<?xml version="1.0" standalone="no"?>
<!DOCTYPE svg PUBLIC "-//W3C//DTD SVG 1.1//EN" "http://www.w3.org/Graphics/SVG/1.1/DTD/svg11.dtd" >
<svg xmlns="http://www.w3.org/2000/svg">
<metadata></metadata>
<defs>
<font id="amadeusbold_italic" horiz-adv-x="1218" >
<font-face units-per-em="2048" ascent="1536" descent="-512" />
<missing-glyph horiz-adv-x="600" />
<glyph unicode="fj" horiz-adv-x="1222" d="M117 45q14 67 60.5 303.5t82.5 413.5h-88q-44 0 -35 47l31 158q9 45 53 45h86q22 111 23 114q34 179 144.5 271t332.5 92q82 0 178.5 -13t149.5 -40q16 -6 24 -14.5t7.5 -20t-3 -19t-8.5 -22.5l-49 -133q-10 -24 -24 -28t-48 1q-140 12 -194 12q-87 0 -138 -32.5 t-65 -106.5l-12 -61h542q24 0 30.5 -8.5t2.5 -32.5l-215 -1114q-32 -164 -132 -231.5t-261 -67.5q-60 0 -130.5 12t-119.5 33q-41 14 -23 71l41 140q7 27 19 33t51 1q93 -6 109 -6q63 0 100 26.5t51 96.5l154 797h-271l-139 -717q-10 -45 -51 -45h-227q-46 0 -39 45z" />
<glyph unicode="ffj" horiz-adv-x="1781" d="M92 33v12q27 132 65 322.5t79 394.5h-89q-36 0 -36 29q0 3 1 8t1 8l30 158q9 47 54 47h86l20 98q37 177 145 268.5t318 91.5q165 0 276 -43q108 95 385 91q165 -11 269 -58q33 -13 33 -39q0 -6 -11 -39l-51 -131q-14 -37 -88 -26q-89 14 -178 14q-174 0 -201 -137 l-18 -90h544q24 0 31.5 -8.5t3.5 -32.5l-215 -1114q-33 -166 -130.5 -232.5t-260.5 -66.5q-61 0 -133 12t-119 33q-40 14 -24 71l41 140q9 28 19.5 33t51.5 1q108 -10 148 -2q92 17 112 119l152 797h-273q-35 -178 -68 -351.5t-71 -365.5q-5 -45 -49 -45h-227q-39 0 -39 33 v12q19 96 54.5 283t84.5 434h-266q-77 -401 -141 -717q-5 -45 -50 -45h-227q-39 0 -39 33zM600 1012h264q6 26 19 100q11 51 20 76q-76 8 -129 8q-136 0 -160 -117z" />
<glyph unicode="ff" horiz-adv-x="1449" d="M66 -211l192 973h-88q-37 0 -37 26q0 2 1 8t1 9l31 166q6 41 53 41h86l21 98q75 363 462 363q166 0 279 -48q122 88 307 88q71 0 156.5 -13t138.5 -38q31 -13 31 -39q0 -7 -10 -37l-52 -133q-12 -26 -29 -29t-42 3q-96 12 -176 12q-130 0 -160 -135l-21 -92h238 q48 0 35 -45l-33 -160q-5 -25 -15 -35t-36 -10h-240l-213 -1110q-5 -45 -49 -45h-227q-39 0 -39 31v14q123 629 213 1110h-273q-156 -805 -190 -973q-5 -47 -51 -47h-226q-22 0 -30 8.5t-8 24.5v14zM625 1012h268l20 102q6 25 23 74q-88 8 -137 8q-139 0 -160 -113z" />
<glyph unicode="fi" horiz-adv-x="1222" d="M37 -350l221 1112h-86q-44 0 -35 47l31 158q9 45 53 45h86l23 114q34 179 144.5 271t332.5 92q82 0 178.5 -13t149.5 -40q16 -6 24 -14.5t7.5 -20t-3 -19t-8.5 -22.5l-49 -133q-10 -25 -24.5 -29t-47.5 2q-148 12 -194 12q-85 0 -136 -30t-67 -103l-12 -67h544 q25 0 32 -14t1 -31l-178 -922q-5 -45 -51 -45h-228q-46 0 -36 45l139 717h-275l-219 -1112q-10 -45 -51 -45h-227q-46 0 -39 45z" />
<glyph unicode="fl" horiz-adv-x="1230" d="M96 -66l162 828h-86q-46 0 -35 47l29 158q6 24 18 34.5t35 10.5h88l23 114q34 179 144.5 271t332.5 92q77 0 166.5 -11.5t142.5 -35.5l141 35q27 6 34.5 -3.5t2.5 -31.5l-323 -1682q-10 -45 -51 -45h-230q-47 0 -37 45l279 1448q-6 0 -42 3t-52 3q-175 0 -201 -135 l-12 -67h145q46 0 37 -45l-31 -158q-11 -47 -53 -47h-150l-161 -828q-5 -45 -52 -45h-227q-44 0 -37 45z" />
<glyph unicode="ffi" horiz-adv-x="1781" d="M39 -215l197 977h-89q-36 0 -36 29q0 3 1 8t1 8l30 158q9 47 54 47h86l20 98q37 177 145 268.5t318 91.5q165 0 276 -43q108 95 385 91q165 -11 269 -58q33 -13 33 -39q0 -6 -11 -39l-51 -131q-14 -37 -88 -26q-89 14 -178 14q-174 0 -201 -137l-18 -90h544q35 0 35 -31 q0 -10 -2 -16l-178 -920q-5 -45 -49 -45h-229q-37 0 -37 33v12l139 717h-275l-221 -1112q-5 -45 -49 -45h-227q-39 0 -39 33v12l221 1112h-266q-52 -269 -195 -977q-5 -45 -49 -45h-227q-39 0 -39 33v12zM600 1012h264q6 26 19 100q11 51 20 76q-76 8 -129 8 q-136 0 -160 -117z" />
<glyph unicode="ffl" horiz-adv-x="1812" d="M61 -215l197 977h-88q-37 0 -37 31q0 2 1 6.5t1 7.5q0 1 31 158q12 47 53 47h86l19 98q71 363 434 363q200 0 307 -46q116 84 326 84q77 0 168 -11.5t143 -35.5l141 37q21 5 32.5 -1.5t4.5 -26.5l-276 -1428q-2 -18 -14 -31.5t-36 -13.5h-229q-39 0 -39 33v12l232 1186 q-9 1 -44 3.5t-51 2.5q-85 0 -135.5 -31t-64.5 -104l-19 -90h148q26 0 32.5 -12t1.5 -35l-30 -158q-5 -24 -17 -34.5t-36 -10.5h-150l-221 -1112q-5 -45 -49 -45h-228q-37 0 -37 33v12q213 1066 222 1112h-269q-83 -431 -194 -977q-5 -45 -49 -45h-228q-39 0 -39 33v12z M623 1012h264l18 98l21 78q-95 10 -127 10q-73 0 -112.5 -34.5t-53.5 -102.5z" />
<glyph unicode="ft" horiz-adv-x="1480" d="M45 -350l219 1112h-86q-48 0 -35 45l31 168q4 22 15.5 29.5t35.5 7.5h88l31 143q32 156 130 238t284 82q116 0 213 -31q30 -8 30 -35q0 -13 -8 -37l-49 -151q-11 -32 -41 -29q-10 1 -36 3t-36 2.5t-32.5 0.5t-33 -1.5t-28.5 -5t-27 -10t-22.5 -16t-20.5 -22.5 t-14.5 -31.5t-11.5 -40.5l-12 -59h313l35 178q4 18 10 29.5t20 18.5t20.5 9t29.5 8l192 52q25 8 41.5 -6.5t7.5 -38.5l-49 -250h207q39 0 39 -29q0 -10 -2 -16l-33 -160q-5 -25 -15 -35t-36 -10h-211l-68 -348q-16 -84 1.5 -112t101.5 -28q15 0 63.5 4t67.5 5q25 0 36.5 -9 t10.5 -34l-6 -146q-3 -46 -49 -65q-126 -45 -305 -45q-71 0 -121.5 17t-79 46.5t-41.5 72t-12.5 89t10.5 102.5l84 451h-311q-23 -114 -100 -506.5t-120 -605.5q-5 -45 -49 -45h-227q-39 0 -39 33v12z" />
<glyph unicode=" "  horiz-adv-x="600" />
<glyph unicode="&#x09;" horiz-adv-x="600" />
<glyph unicode="&#xa0;" horiz-adv-x="600" />
<glyph unicode="!" horiz-adv-x="602" d="M76 82q0 88 47 144.5t147 56.5q138 0 138 -99q0 -38 -8.5 -71t-28.5 -64.5t-60.5 -50t-97.5 -18.5q-137 0 -137 102zM184 428q0 2 1 7t1 7l140 873q4 25 14.5 34t32.5 9h221q33 0 33 -25q0 -10 -2 -16q-46 -167 -111.5 -484.5t-81.5 -386.5q-9 -45 -49 -45h-166 q-33 0 -33 27z" />
<glyph unicode="&#x22;" horiz-adv-x="753" d="M219 893l64 430q7 35 41 35h172q32 0 26 -35l-106 -430q-8 -31 -39 -31h-135q-12 0 -19 9t-4 22zM520 893l64 430q2 15 13 25t28 10h172q30 0 24 -35l-102 -430q-12 -31 -41 -31h-135q-12 0 -19 9t-4 22z" />
<glyph unicode="#" horiz-adv-x="1288" d="M41.5 443.5q-5.5 7.5 3.5 29.5l59 131q9 21 21.5 29t36.5 8h174l65 150h-176q-21 0 -26.5 8t4.5 30l59 127q16 39 60 39h170l143 322q8 19 12 25.5t12.5 11t22.5 4.5h162q22 0 27 -9t-7 -32l-139 -322h170l143 322q8 19 12 25.5t12 11t21 4.5h164q21 0 26 -9t-5 -32 l-142 -322h179q23 0 28 -8.5t-6 -30.5l-59 -127q-9 -21 -21 -29.5t-35 -8.5h-176l-65 -150h176q23 0 28 -8.5t-6 -30.5l-59 -129q-11 -21 -22.5 -29t-32.5 -8h-176l-174 -397q-7 -15 -11.5 -22t-13 -12t-21.5 -5h-155q-48 0 -31 41l174 395h-172l-172 -397q-17 -30 -27 -35 q-9 -4 -20 -4h-156q-48 0 -28 41l172 395h-176q-21 0 -26.5 7.5zM567 641h170l68 150h-172z" />
<glyph unicode="$" d="M52.5 118q1.5 9 8.5 27l48 117q14 36 31.5 43.5t56.5 -0.5q237 -29 344 -29q205 0 219 142q4 55 -30.5 77.5t-127.5 41.5q-49 12 -85 22t-80 26.5t-75 34.5t-62.5 45.5t-51 59.5t-31.5 75.5t-12 94.5q0 102 35.5 182.5t99.5 133.5t145.5 84.5t180.5 41.5l34 172 q7 39 45 39h158q37 0 31 -39l-33 -172q162 -8 256 -51q42 -17 48.5 -36.5t-7.5 -47.5l-43 -112q-11 -27 -24 -38.5t-31 -12.5t-45 1q-169 23 -307 23q-184 0 -195 -127q-6 -51 24 -71t125 -40q53 -12 86 -20.5t80 -24.5t76 -33.5t62.5 -45t52 -60t31 -78.5t12.5 -102 q0 -104 -37.5 -187t-102.5 -136t-145 -85t-174 -43l-35 -170q0 -12 -11.5 -25.5t-33.5 -13.5h-157q-35 0 -31 39l33 160q-206 13 -306 59q-23 9 -35 18t-14 20.5t-0.5 20.5z" />
<glyph unicode="%" horiz-adv-x="1959" d="M74 803q2 55 18 139q7 37 14 67.5t24 79t38 86t56.5 79t78 69t104 45.5t134.5 18q78 0 138 -17t97 -45t61 -68.5t33 -82.5t9 -92q0 -58 -15 -139q-10 -49 -18.5 -83.5t-27.5 -87.5t-40.5 -90t-57.5 -79t-79 -68t-105 -43.5t-135 -17.5q-291 0 -321 252q0 3 -3 32.5 t-3 45.5zM338 797q3 -107 84 -107q74 0 113 60t63 178q16 106 16 131q0 56 -22 83t-76 27q-46 0 -79.5 -34t-51.5 -83t-33 -124q-14 -79 -14 -131zM432 -33q0 13 4 17q25 42 836 1423q18 27 39 27q31 0 92 -1t92 -1q14 0 14 -13q0 -12 -4 -16l-835 -1426q-15 -24 -35 -24 h-184q-19 0 -19 14zM1065 297q0 78 16 160q7 37 14.5 67.5t24.5 78.5t38 85.5t56.5 78.5t78.5 68.5t104.5 45.5t134.5 18q96 0 164.5 -25t104.5 -69.5t51.5 -95.5t15.5 -113q0 -55 -15 -139q-10 -50 -18.5 -84t-26.5 -87.5t-39.5 -90t-57 -78.5t-78 -67.5t-104.5 -42.5 t-136 -17q-328 0 -328 307zM1329 326q0 -59 18.5 -90t65.5 -31q74 0 113 59.5t61 177.5q17 90 17 131q0 56 -21.5 82.5t-75.5 26.5q-68 0 -105.5 -63t-58.5 -177q-14 -72 -14 -116z" />
<glyph unicode="&#x26;" horiz-adv-x="1523" d="M66 305q0 294 385 512q-41 105 -41 191q0 167 111.5 271.5t283.5 104.5q149 0 237 -72t88 -188q0 -123 -95 -228t-228 -161q48 -94 89 -156.5t108 -138.5q169 166 243 379q3 7 7.5 18.5t6 15.5t4.5 10.5t6 8t6.5 4.5t9.5 3.5t12.5 1t17.5 0.5h143q40 0 48 -13.5t-1 -60.5 q-33 -139 -132 -295t-201 -254q81 -86 198 -164q12 -9 17.5 -15t1.5 -16t-7 -14.5t-18 -23.5l-98 -121q-19 -21 -34 -25.5t-48 8.5q-104 53 -262 203q-205 -115 -459 -115q-182 0 -290.5 82.5t-108.5 247.5zM360 356q0 -66 45.5 -103.5t116.5 -37.5q115 -3 236 59 q-149 194 -211 330q-89 -55 -138 -112.5t-49 -135.5zM678 1047q-3 -52 29 -107q62 32 99 64t40 71q3 30 -17 50t-53 20q-38 0 -66.5 -30.5t-31.5 -67.5z" />
<glyph unicode="'" horiz-adv-x="466" d="M223 893l64 430q7 35 41 35h172q32 0 26 -35l-106 -430q-2 -13 -12.5 -22t-26.5 -9h-135q-26 0 -23 31z" />
<glyph unicode="(" horiz-adv-x="694" d="M119 420q7 287 130 546.5t331 473.5q29 29 47 31.5t41 -13.5l106 -72q24 -14 24 -29t-26 -50q-331 -411 -340 -922q-3 -266 72 -461q12 -35 6.5 -50t-35.5 -30l-135 -69q-30 -18 -46 -16t-34 32q-147 270 -141 629z" />
<glyph unicode=")" horiz-adv-x="696" d="M-19.5 -128q0.5 15 27.5 50q331 415 340 924q3 269 -74 461q-11 36 -5 50t36 29l133 70q23 13 35 15.5t22.5 -4.5t22.5 -29q149 -275 141 -627q-7 -288 -129.5 -547.5t-330.5 -472.5q-29 -29 -46 -31.5t-40 13.5l-109 71q-24 13 -23.5 28z" />
<glyph unicode="*" horiz-adv-x="890" d="M164 873.5q7 13.5 35 31.5l135 90l-105 74q-15 13 -19.5 21t-1.5 21.5t19 33.5l43 65q22 28 41 29t41 -12l125 -58l37 144q9 30 21 38.5t47 8.5h82q33 0 44.5 -11.5t6.5 -39.5l-21 -144l158 66q27 15 37 13t22 -27l29 -64q19 -40 -12 -57l-160 -97l113 -96 q23 -21 22.5 -33t-22.5 -39l-47 -57q-21 -25 -36.5 -28t-39.5 10l-127 65l-39 -139q-9 -32 -18.5 -39.5t-43.5 -7.5h-96q-31 0 -37.5 7.5t-3.5 39.5l13 139l-142 -59q-21 -11 -39 -10.5t-28 20.5l-31 74q-9 14 -2 27.5z" />
<glyph unicode="+" d="M164 592l29 147q9 43 51 43h284l54 283q8 43 53 43h186q43 0 35 -43l-53 -283h287q25 0 31 -9.5t1 -31.5l-28 -149q-5 -24 -15.5 -33.5t-36.5 -9.5h-286l-60 -301q-4 -25 -15 -34t-32 -9h-190q-25 0 -33 8.5t-4 34.5l59 301h-282q-23 0 -31 10t-4 33z" />
<glyph unicode="," horiz-adv-x="487" d="M-92 -241.5q-1 10.5 5 19t30 32.5q97 82 100 178q3 52 -25 94q-23 28 -19 49t44 47l156 105q23 16 40 17t27.5 -7t26.5 -27q49 -55 49 -147q0 -135 -94 -264.5t-211 -192.5q-51 -25 -74 12l-41 56q-13 18 -14 28.5z" />
<glyph unicode="-" horiz-adv-x="839" d="M92 573l33 168q6 43 51 43h639q25 0 31.5 -10t1.5 -33l-33 -168q-3 -24 -13.5 -33.5t-37.5 -9.5h-639q-22 0 -29.5 10t-3.5 33z" />
<glyph unicode="." horiz-adv-x="473" d="M8 88q0 91 48.5 149t154.5 58q76 0 108.5 -25.5t32.5 -76.5q0 -40 -9 -74.5t-30 -67.5t-62 -52t-99 -19q-144 0 -144 108z" />
<glyph unicode="/" horiz-adv-x="655" d="M-82 -84q412 964 633 1468q14 35 51 35h195q40 0 26 -49l-630 -1462q-6 -14 -21.5 -24.5t-28.5 -10.5h-200q-41 0 -25 43z" />
<glyph unicode="0" d="M84 457q3 116 29 241q14 69 26 119t38 126.5t56.5 131t81 115.5t111 99t147 63.5t189.5 25.5q132 0 227.5 -35t148.5 -99t77 -142.5t24 -177.5q0 -106 -20 -226q-12 -73 -26 -133t-40 -136.5t-59 -136t-85 -120t-115 -100.5t-152.5 -65t-194.5 -25t-187 25.5t-134 69 t-85 105.5t-45.5 129t-11.5 146zM424 532q-11 -136 23 -203t137 -67q61 0 107.5 26t80 78.5t57 117.5t43.5 157q24 119 29 193q11 135 -24 199.5t-142 64.5q-59 0 -106 -28.5t-80 -83t-55.5 -119t-40.5 -150.5q-24 -112 -29 -185z" />
<glyph unicode="1" d="M131 45l35 182q9 43 53 43h215l152 779h-189q-29 0 -39 6.5t-6 31.5l19 103q7 26 18.5 42.5t36.5 27.5l195 77q55 25 135 25h164q26 0 35 -11t6 -36l-205 -1045h235q24 0 31 -10t2 -31l-37 -184q-3 -24 -13.5 -34.5t-35.5 -10.5h-770q-46 0 -37 45z" />
<glyph unicode="2" d="M12 45l29 148q12 51 47 81q3 2 346 277q1 1 115 92t137 111q72 60 113 117t41 122q0 53 -39 76t-131 23q-120 0 -355 -25q-38 -5 -50.5 3t-12.5 42l8 117q0 29 14.5 50t59.5 38q81 30 204 44.5t203 14.5q220 0 331.5 -84.5t111.5 -244.5q0 -77 -19.5 -142t-61.5 -124 t-89 -105.5t-119 -106.5q-117 -99 -360 -286l2 -11h483q23 0 29.5 -10t3.5 -33l-37 -184q-3 -24 -13 -34.5t-34 -10.5h-922q-44 0 -35 45z" />
<glyph unicode="3" d="M4.5 81.5q-9.5 21.5 5.5 51.5l43 115q12 33 28.5 42t55.5 5q198 -29 326 -29q64 0 117.5 13.5t97 41.5t68 75.5t24.5 109.5q0 69 -100 86l-264 51q-35 6 -44.5 21t-3.5 53l15 76q6 35 14 51.5t27 29.5l278 209l-2 7h-424q-44 0 -35 43l35 182q9 45 53 45h852 q25 0 32.5 -10.5t2.5 -36.5l-30 -142q-8 -53 -62 -94l-272 -213v-6l98 -22q87 -22 135.5 -82t48.5 -146q0 -626 -690 -626q-79 0 -193 14.5t-182 44.5q-45 19 -54.5 40.5z" />
<glyph unicode="4" d="M27 352l32 162q4 37 35 66l729 741q43 37 90 37h232q40 0 35 -43l-146 -742h131q25 0 32.5 -9t2.5 -32l-35 -186q-7 -24 -17 -34.5t-34 -10.5l-131 2l-51 -258q-10 -45 -51 -45h-236q-40 0 -33 43l52 260l-592 -2q-53 0 -45 51zM420 567h297l74 371h-11l-131 -135z" />
<glyph unicode="5" d="M27.5 81.5q-9.5 21.5 5.5 51.5l43 115q12 33 28.5 42t55.5 5q201 -29 325 -29q303 0 303 232q0 75 -96 94l-436 78q-52 10 -62.5 38.5t9.5 75.5l178 500q14 41 37 58.5t65 17.5h697q43 0 34 -43l-34 -184q-9 -43 -56 -43h-499l-64 -185l332 -51q121 -19 184.5 -87.5 t63.5 -184.5q0 -128 -36 -230.5t-98 -170.5t-148.5 -113.5t-182.5 -65.5t-205 -20q-80 0 -201 14.5t-188 44.5q-45 19 -54.5 40.5z" />
<glyph unicode="6" d="M88 352q-2 107 23 285q10 76 25.5 144.5t43 145t64 139.5t90.5 122t120 99.5t156 64.5t195 24q255 0 395 -57q41 -16 49 -35t-6 -49l-47 -123q-13 -31 -29 -41.5t-43 -7.5q-11 1 -59.5 7.5t-72.5 9t-66.5 6.5t-80.5 6t-75 2q-115 0 -178.5 -62t-97.5 -186q189 18 321 18 q342 0 342 -319q0 -114 -34 -208.5t-93 -159t-140 -109.5t-173.5 -65.5t-194.5 -20.5q-127 0 -214 27t-133.5 80t-65.5 115.5t-21 147.5zM406 391q0 -49 6 -69q28 -72 170 -72q108 0 178.5 57.5t70.5 153.5q0 71 -29.5 105t-103.5 34q-82 0 -266 -18q-23 -120 -26 -191z" />
<glyph unicode="7" d="M171 83q-1 15 19 44l664 963h-596q-42 0 -33 43l35 182q9 47 51 47h942q24 0 31 -10.5t2 -36.5l-26 -131q-8 -38 -54 -103l-755 -1087q-19 -27 -32.5 -32.5t-41.5 7.5l-178 86q-27 13 -28 28z" />
<glyph unicode="8" d="M49 319q0 140 69 244.5t193 155.5q-110 73 -110 219q0 137 81 238.5t210.5 151.5t285.5 50q95 0 173.5 -18t140 -55t95.5 -99t34 -145q0 -116 -59.5 -203t-160.5 -135v-2q144 -71 144 -254q0 -116 -50 -209.5t-135.5 -153t-197 -91t-238.5 -31.5q-80 0 -148 10.5 t-129.5 35.5t-104.5 63t-68 96t-25 132zM385 391q0 -65 49.5 -98t130.5 -33q113 0 182.5 57t69.5 138q0 121 -188 153q-46 -8 -86.5 -23.5t-77.5 -40.5t-58.5 -64.5t-21.5 -88.5zM535 946q0 -78 151 -110q94 13 144.5 54.5t50.5 102.5q0 53 -41 79t-105 26q-88 0 -144 -41 t-56 -111z" />
<glyph unicode="9" d="M70 74q-8 19 6 49l47 123q13 31 29 41.5t43 7.5q11 -1 59.5 -7.5t72.5 -9t66.5 -6.5t80.5 -6t75 -2q115 0 178.5 62t97.5 186q-189 -18 -321 -18q-342 0 -342 319q0 114 34 208.5t93 159t140 109.5t173.5 65.5t194.5 20.5q127 0 214 -27t133.5 -80t65.5 -115.5t21 -147.5 q2 -107 -23 -285q-10 -76 -25.5 -144.5t-43 -145t-64 -139.5t-90.5 -122t-120 -99.5t-156 -64.5t-195 -24q-255 0 -395 57q-41 16 -49 35zM487 897q0 -71 30 -105t104 -34q82 0 266 18q23 120 26 191q0 49 -6 69q-28 72 -170 72q-108 0 -179 -57.5t-71 -153.5z" />
<glyph unicode=":" horiz-adv-x="479" d="M12 88q0 91 48.5 149t154.5 58q75 0 108 -25.5t33 -76.5q0 -40 -9 -74.5t-30 -67.5t-62.5 -52t-100.5 -19q-142 0 -142 108zM137 725q0 89 47.5 147t153.5 58q76 0 109.5 -25.5t33.5 -77.5q0 -40 -9.5 -74.5t-30.5 -66.5t-62.5 -51t-99.5 -19q-142 0 -142 109z" />
<glyph unicode=";" horiz-adv-x="479" d="M-92 -241.5q-1 10.5 5 19t30 32.5q97 82 100 178q3 52 -25 94q-23 28 -19 49t44 47l156 105q23 16 40 17t27.5 -7t26.5 -27q49 -55 49 -147q0 -135 -94 -264.5t-211 -192.5q-51 -25 -74 12l-41 56q-13 18 -14 28.5zM137 725q0 89 47.5 147t153.5 58q76 0 109.5 -25.5 t33.5 -77.5q0 -40 -9.5 -74.5t-30.5 -66.5t-62.5 -51t-99.5 -19q-142 0 -142 109z" />
<glyph unicode="&#x3c;" d="M172 594l29 147q4 20 12.5 29t24.5 18l913 424q20 8 27.5 0t3.5 -22l-39 -221q-7 -32 -41 -47l-559 -267l-2 -10l458 -260q30 -13 23 -47l-41 -193q-3 -16 -16 -21.5t-25 1.5l-747 422q-27 14 -21 47z" />
<glyph unicode="=" d="M127 397l29 150q8 43 51 43h844q25 0 32 -9t2 -32l-28 -152q-5 -23 -15.5 -33t-35.5 -10h-844q-44 0 -35 43zM201 778l28 148q9 45 52 45h843q25 0 32.5 -10t2.5 -33l-29 -150q-7 -25 -16.5 -35t-34.5 -10h-843q-44 0 -35 45z" />
<glyph unicode="&#x3e;" d="M109 150l38 221q7 32 41 47l560 266l2 10l-459 260q-30 13 -23 47l41 193q3 16 16 21.5t25 -1.5l748 -421q27 -13 20 -48l-28 -147q-4 -20 -12.5 -29t-24.5 -18l-914 -424q-20 -8 -27 0.5t-3 22.5z" />
<glyph unicode="?" horiz-adv-x="894" d="M125 84q0 86 47.5 142.5t149.5 56.5q74 0 104.5 -25.5t30.5 -73.5q0 -30 -4.5 -56t-17.5 -53.5t-34 -47.5t-56.5 -32.5t-82.5 -12.5q-137 0 -137 102zM205 416v2q3 53 12 102q14 75 38 131.5t65.5 104.5t83 82t112.5 84q46 32 68 58.5t22 63.5t-33 53.5t-112 16.5 q-107 0 -199 -12q-28 -4 -42 2t-11 31l12 122q3 33 10.5 45t38.5 25q126 49 293 49q191 0 290 -69.5t99 -202.5q0 -192 -237 -344q-94 -61 -140 -113t-67 -133q-8 -32 -19 -98q-8 -39 -40 -39h-207q-21 0 -29 8t-8 31z" />
<glyph unicode="@" horiz-adv-x="1849" d="M164 551q0 197 70.5 369t196 297t309 196.5t399.5 71.5q161 0 288 -45t208 -125.5t123 -188t42 -235.5q0 -260 -138 -424t-355 -164q-91 0 -155.5 39t-80.5 96q-48 -45 -122.5 -77.5t-149.5 -32.5q-120 0 -165.5 56t-45.5 171q0 64 18 170q14 78 30.5 135.5t43.5 110 t63 85.5t88 52.5t119 19.5q40 0 96 -16t95 -39l6 27q3 16 10.5 21t22.5 5h168q22 0 26.5 -7.5t1.5 -28.5l-92 -510q-6 -34 8 -56t68 -22q89 0 154 104.5t65 263.5q0 186 -116 298t-337 112q-170 0 -310.5 -56t-233 -152t-143.5 -223.5t-52 -270.5q0 -100 23.5 -174 t76 -129.5t143 -84t218.5 -28.5q136 0 256 22q30 10 47.5 5.5t22.5 -37.5l14 -80q9 -43 -37 -60q-67 -28 -161.5 -40.5t-170.5 -12.5q-329 0 -492 157.5t-163 434.5zM840 635q0 -45 14.5 -61.5t46.5 -16.5q56 0 148 45l53 279q-61 20 -111 20q-61 0 -93.5 -40t-47.5 -128 q-10 -58 -10 -98z" />
<glyph unicode="A" horiz-adv-x="1263" d="M-60 10q-1 2 -1 5q0 12 12 38l635 1250q17 32 35.5 45.5t56.5 13.5h258q39 0 51 -14t17 -48l167 -1251v-11q-1 -16 -5 -26q-6 -12 -27 -12h-244q-32 0 -43 14t-14 49l-21 244h-407l-123 -250q-27 -57 -82 -57h-236q-25 0 -29 10zM528 557h267l-19 225l-16 250h-10 l-117 -248z" />
<glyph unicode="B" horiz-adv-x="1263" d="M57 45l248 1270q7 45 55 45l510 2q112 0 194 -34q83 -32 131 -108q44 -70 44 -171v-17q-1 -52 -23.5 -109t-71.5 -114.5t-116 -91.5l-2 -8q140 -69 139 -249v-22q-6 -195 -145 -316.5t-342 -121.5h-580q-28 0 -36 12q-6 8 -6 22q0 5 1 11zM436 279h201q85 0 134 46 t52 117v9q1 49 -31 83q-34 36 -104 37h-196zM545 838h186q65 0 109.5 37.5t48.5 95.5v10q-1 47 -25 73q-28 30 -94 29h-180z" />
<glyph unicode="C" horiz-adv-x="1212" d="M147 475q0 72 19 201q18 114 46.5 207.5t83.5 188t129.5 159t189.5 105t259 40.5q248 0 381 -65q16 -8 26 -15q11 -6 17 -16q6 -9 5 -22q0 -16 -9 -39l-51 -121q-11 -29 -26 -37t-52 -4q-249 22 -297 22q-82 0 -143.5 -29.5t-101.5 -86t-64 -123.5t-41 -158 q-18 -92 -18 -164v-20q3 -113 56 -167.5t169 -54.5q111 0 311 21q40 3 54.5 -4t17.5 -37l4 -113q4 -36 -14.5 -57.5t-55.5 -36.5q-82 -33 -192 -51t-211 -18q-492 0 -492 481v14z" />
<glyph unicode="D" horiz-adv-x="1345" d="M61 33v10l2 2l246 1270q10 43 56 43h428q137 0 235 -34.5t154 -100t81 -149.5t25 -195q0 -91 -16 -197q-20 -125 -49 -221.5t-82.5 -186t-127.5 -147.5t-185 -92.5t-253 -34.5h-473q-41 0 -41 33zM438 276h131q155 0 245 95t120 297q16 102 16 157q0 256 -227 256h-129 q-74 -377 -156 -805z" />
<glyph unicode="E" horiz-adv-x="1138" d="M61 45l248 1270q10 47 56 47h806q20 0 29 -12q6 -8 6 -20q0 -6 -2 -13l-37 -193q-7 -43 -51 -43h-522l-45 -237h455q36 0 36 -30q0 -7 -2 -15l-37 -193q-7 -41 -51 -41h-454l-56 -286h537q36 0 36 -34q0 -6 -1 -12l-37 -192q-5 -21 -16 -31t-35 -10h-824q-40 0 -40 34 q0 5 1 11z" />
<glyph unicode="F" horiz-adv-x="1091" d="M55 45l246 1272q7 45 55 45h791q22 0 32 -12q7 -8 7 -20q0 -6 -2 -13l-37 -193q-10 -43 -55 -43h-506l-45 -237h436q20 0 29.5 -12.5t5.5 -32.5l-37 -193q-7 -43 -53 -43h-435l-102 -518q-2 -17 -13.5 -31t-35.5 -14h-244q-38 0 -38 33q0 6 1 12z" />
<glyph unicode="G" horiz-adv-x="1314" d="M145 473q0 81 21 203q18 114 47.5 209t85 188.5t131.5 158t191 104.5t258 40q99 0 208 -16.5t175 -48.5q22 -10 32 -19.5t14 -27.5q1 -5 1 -9q0 -16 -11 -36l-49 -121q-11 -29 -26 -37t-52 -4q-249 22 -299 22q-81 0 -142.5 -29t-102.5 -85t-66.5 -124t-42.5 -159 q-18 -105 -18 -167v-17q1 -58 9.5 -96.5t30 -69.5t61.5 -45.5t101 -14.5q67 0 148 15l45 235h-137q-26 0 -33 10.5t-4 32.5l35 176q7 45 53 45h410q21 0 31 -12t7 -33l-114 -581q-9 -42 -26.5 -68.5t-57.5 -42.5q-191 -69 -449 -69q-114 0 -198.5 26.5t-135 70t-81 109 t-41.5 133.5q-9 62 -9 139v15z" />
<glyph unicode="H" horiz-adv-x="1320" d="M61 37l248 1286q9 39 56 39h243q24 0 29.5 -10.5t1.5 -28.5l-90 -477h389l90 477q5 21 17 30t38 9h240q27 0 33 -10q4 -6 4 -16q0 -6 -2 -13l-248 -1286q-4 -37 -49 -37h-242q-26 0 -34 8t-5 29l101 528h-387l-101 -528q-8 -37 -49 -37h-244q-26 0 -34 8q-6 6 -6 19 q0 4 1 10z" />
<glyph unicode="I" horiz-adv-x="622" d="M70 45l247 1270q10 47 56 47h241q35 0 35 -32q0 -7 -2 -15l-246 -1270q-10 -45 -51 -45h-241q-40 0 -40 34q0 5 1 11z" />
<glyph unicode="J" horiz-adv-x="993" d="M-25 58q-4 6 -4 16q0 16 9 41l40 137q8 30 22.5 37t43.5 2q116 -17 197 -17q100 0 143 43t59 123l166 875q7 47 54 47h235q27 0 34 -12q5 -6 5 -18q0 -7 -2 -17l-178 -932q-18 -96 -50 -165.5t-89 -125t-147.5 -83t-215.5 -27.5q-158 0 -264 41q-49 18 -58 35z" />
<glyph unicode="K" horiz-adv-x="1265" d="M49 45l246 1270q10 47 55 47h244q35 0 35 -32q0 -7 -2 -15l-90 -457h6l166 180l276 283q24 22 44 31.5t50 9.5h303q25 0 32 -16q2 -4 2 -8q0 -14 -19 -33l-541 -541l315 -701q11 -31 -0.5 -47t-35.5 -16h-252q-35 0 -52.5 13.5t-27.5 39.5l-195 465l-176 -178l-53 -295 q-2 -17 -13.5 -31t-35.5 -14h-244q-38 0 -38 33q0 6 1 12z" />
<glyph unicode="L" horiz-adv-x="1073" d="M63 45l246 1270q10 47 56 47h241q37 0 37 -31q0 -7 -2 -16l-201 -1036h545q30 0 30 -26q0 -4 -1 -9l-39 -203q-5 -21 -16 -31t-35 -10h-824q-39 0 -39 31q0 6 2 14z" />
<glyph unicode="M" horiz-adv-x="1591" d="M61 45l248 1272q10 43 53 43h166q41 0 57 -10t25 -37q46 -143 86 -291q58 -190 119 -422h10q23 38 142.5 215t134.5 199l207 297q21 27 41 38t61 11h182q35 0 35 -28q0 -7 -2 -15l-248 -1272q-4 -45 -51 -45h-233q-36 0 -36 33q0 6 1 12l119 610h-7q-1 -2 -54.5 -83.5 t-59.5 -92.5q-117 -172 -158 -229q-2 -3 -7 -9.5t-7 -9t-6.5 -8t-6.5 -7.5t-6.5 -6t-8 -5.5t-8.5 -4t-10 -3t-11 -1.5t-13 -1h-131q-12 0 -20.5 2t-13 3.5t-9.5 8.5t-6 9t-6 14.5t-6 15.5l-64 221l-53 190l-4 -2l-119 -612q-9 -45 -49 -45h-234q-40 0 -40 34q0 5 1 11z" />
<glyph unicode="N" horiz-adv-x="1366" d="M59 31q0 2 1 7t1 7l246 1270q11 45 55 45h170q30 0 47.5 -8.5t22.5 -17t16 -31.5l316 -725h8q49 266 139 735q9 47 52 47h233q39 0 39 -31q0 -10 -2 -16q-84 -422 -248 -1270q-7 -43 -53 -43h-170q-33 0 -51 12t-29 37l-207 475l-113 269h-6l-143 -748q-9 -45 -51 -45 h-234q-39 0 -39 31z" />
<glyph unicode="O" horiz-adv-x="1406" d="M145 457q0 91 23 241q11 65 26 124t42.5 129.5t62.5 129t89 115t119 95.5t154.5 63t194.5 24q502 0 502 -482v-28q0 -53 -17 -170q-11 -80 -27 -148.5t-43.5 -143.5t-64 -134.5t-91.5 -115.5t-122.5 -93t-160 -59t-201.5 -22q-112 0 -197.5 25t-139.5 67t-88 104 t-47.5 129.5t-13.5 149.5zM492 496v-15q0 -105 40 -157q44 -56 142 -56q74 0 127.5 27t90.5 83t60.5 125.5t44.5 172.5q23 122 23 194v14q0 105 -44 155q-47 53 -153 53q-55 0 -99 -19t-76 -52.5t-57.5 -87t-43.5 -114.5t-33 -143q-19 -88 -22 -180z" />
<glyph unicode="P" horiz-adv-x="1153" d="M57 45l248 1272q7 45 55 45l453 -2q182 0 293 -94t111 -275q0 -96 -32 -181.5t-95 -156.5t-170.5 -113t-245.5 -42h-197l-88 -453q-10 -45 -51 -45h-242q-40 0 -40 34q0 5 1 11zM528 768h148q82 0 139 50.5t57 142.5q0 120 -145 120h-137z" />
<glyph unicode="Q" horiz-adv-x="1411" d="M145 457q0 91 23 241q11 65 26 124t42.5 129.5t62.5 129t89 115t119 95.5t154.5 63t194.5 24q502 0 502 -482v-28q0 -53 -17 -170q-27 -184 -86 -329.5t-172 -241.5l162 -59q27 -10 32 -22.5t-9 -35.5l-113 -190q-15 -28 -41 -36q-10 -3 -19 -3q-17 0 -34 10l-418 191 h-12q-112 0 -197.5 25t-139.5 67t-88 104t-47.5 129.5t-13.5 149.5zM492 496v-15q0 -105 40 -157q44 -56 142 -56q74 0 127.5 27t90.5 83t60.5 125.5t44.5 172.5q23 122 23 194v14q0 105 -44 155q-47 53 -153 53q-55 0 -99 -19t-76 -52.5t-57.5 -87t-43.5 -114.5t-33 -143 q-19 -88 -22 -180z" />
<glyph unicode="R" horiz-adv-x="1228" d="M57 45l248 1272q11 45 55 45l498 -2q168 0 272.5 -86.5t104.5 -261.5q0 -140 -75 -254.5t-220 -182.5l147 -522q6 -25 -3.5 -39t-32.5 -14h-228q-33 0 -50 10t-23 35q-36 126 -113 471h-158l-90 -471q-2 -17 -13.5 -31t-35.5 -14h-244q-40 0 -40 34q0 5 1 11zM535 784 h159q80 0 137.5 47.5t57.5 137.5q0 112 -141 112h-158z" />
<glyph unicode="S" horiz-adv-x="1187" d="M36 84q-2 6 -3 14q0 16 10 35l47 123q14 39 32 46t58 -1q178 -29 352 -29q108 0 170 36q64 36 64 109q0 47 -34 71t-124 47q-74 22 -122 39t-101.5 42t-85.5 52t-60 64t-40.5 85.5t-12.5 108.5q0 114 47 202t129 140.5t184 79t220 26.5q253 0 385 -59q43 -19 50 -39 q2 -6 2 -14q0 -16 -11 -35l-49 -123q-17 -39 -37 -44.5t-62 1.5q-161 22 -303 22q-33 0 -59.5 -3t-53 -11.5t-44.5 -22t-29.5 -37t-11.5 -55.5q0 -42 33.5 -63t121.5 -41q50 -11 87 -21t84.5 -27.5t81 -37t69 -49t57 -64.5t35.5 -83t14 -105q0 -105 -33 -187.5t-89.5 -137 t-137.5 -90t-173 -51t-199 -15.5q-91 0 -210.5 14.5t-199.5 48.5q-42 19 -48 39z" />
<glyph unicode="T" horiz-adv-x="1062" d="M160 1124l37 193q5 23 16.5 34t38.5 11h926q20 0 30 -12q6 -8 6 -20q0 -6 -2 -13l-36 -193q-10 -43 -56 -43h-297l-202 -1036q-5 -45 -50 -45h-241q-40 0 -40 34q0 5 1 11l201 1036h-295q-26 0 -33 11q-5 8 -5 20q0 6 1 12z" />
<glyph unicode="U" horiz-adv-x="1337" d="M152 508l157 807q10 47 56 47h239q25 0 32 -14.5t1 -32.5l-156 -801q-9 -46 -9 -83q0 -161 165 -161q207 0 256 244l154 801q10 47 55 47h239q37 0 37 -32q0 -7 -2 -15l-157 -807q-98 -526 -607 -526q-264 0 -386 142q-88 102 -88 255q0 61 14 129z" />
<glyph unicode="V" horiz-adv-x="1302" d="M203 1311q-1 6 -1 11q0 18 8 27q10 11 40 11h207q41 0 56.5 -11.5t18.5 -43.5q8 -78 48 -455q38 -350 49 -467h10q96 214 225 475q162 333 209 436q29 66 92 66h258q26 0 26 -19q0 -12 -11 -32l-656 -1250q-16 -31 -35.5 -45t-62.5 -14h-235q-49 0 -63 17t-19 59z" />
<glyph unicode="W" horiz-adv-x="1789" d="M203 1309q-1 6 -1 11q0 42 46 42h221q35 0 50 -12.5t18 -44.5l24 -533l14 -321h11l104 225q6 9 80.5 164t79.5 168l-35 303q-2 21 7.5 36t29.5 15h219q35 0 51 -12t17 -45q37 -547 39 -574l14 -280h10l121 305l233 549q12 32 34 44.5t61 12.5h237q34 0 34 -24 q0 -12 -9 -31l-567 -1248q-16 -30 -38.5 -44.5t-64.5 -14.5h-190q-43 0 -58 15t-20 46l-31 291l-20 183l-11 -3l-90 -180l-149 -291q-16 -32 -36 -46.5t-63 -14.5h-192q-75 0 -78 59z" />
<glyph unicode="X" horiz-adv-x="1204" d="M-49 22q0 16 18 37l496 635l-232 609q-9 27 1.5 43t39.5 16h244q31 0 41.5 -8.5t20.5 -36.5l53 -178l53 -187l129 197l115 164q17 27 33.5 37t42.5 10h282q22 0 32 -4t11 -13l-1 -1q0 -9 -3.5 -16.5t-11.5 -18.5l-481 -613l251 -639q4 -13 4 -24q0 -31 -42 -31h-246 q-28 0 -42.5 9t-23.5 36l-57 186l-64 218l-139 -222l-125 -178q-20 -28 -39 -38.5t-49 -10.5h-280q-31 0 -31 22z" />
<glyph unicode="Y" horiz-adv-x="1290" d="M197 1311q-2 8 -2 16q0 11 5 20q9 15 31 15h228q34 0 47 -9.5t22 -39.5l82 -264l74 -254h12l174 256l174 245q20 27 29 37t26.5 19.5t39.5 9.5h272q16 0 23 -6q4 -5 4 -12v-5q-3 -10 -11 -22l-620 -823l-86 -449q-2 -17 -14 -31t-37 -14h-242q-39 0 -39 31q0 6 2 14 l86 449z" />
<glyph unicode="Z" horiz-adv-x="1124" d="M12 45l35 168q3 41 41 84l703 784h-492q-27 0 -34.5 11t-2.5 32l37 193q5 23 16.5 34t38.5 11h822q18 0 28 -12q7 -9 7 -22q0 -5 -1 -11l-30 -152q-10 -54 -50 -100l-704 -786h541q27 0 34.5 -11t2.5 -32l-37 -191q-5 -23 -16 -34t-38 -11h-864q-38 0 -38 31q0 7 1 14z " />
<glyph unicode="[" horiz-adv-x="602" d="M-39 -150l297 1528q7 45 53 45h377q35 0 25 -43l-33 -172q-2 -14 -5 -21t-12 -12.5t-26 -5.5h-125l-215 -1112h127q35 0 25 -43l-33 -170q-2 -14 -5 -21t-11.5 -12.5t-24.5 -5.5h-379q-42 0 -35 45z" />
<glyph unicode="\" horiz-adv-x="655" d="M182 1368q7 49 43 49h197q29 0 37 -33q55 -916 86 -1466q0 -45 -43 -45h-199q-15 0 -25 10t-12 25q-42 758 -84 1460z" />
<glyph unicode="]" horiz-adv-x="602" d="M-35.5 -184q-4.5 11 2.5 30l31 168q10 43 45 43h125l217 1112h-125q-16 0 -23 5t-7.5 14t1.5 22l35 170q6 43 43 43h375q44 0 37 -45l-299 -1528q-7 -45 -53 -45h-377q-23 0 -27.5 11z" />
<glyph unicode="^" horiz-adv-x="1150" d="M134 798q2 11 22 33l436 492q22 22 38.5 29.5t51.5 7.5l168 -2q41 0 52.5 -6.5t23.5 -28.5l225 -502q12 -22 10 -33t-22 -24l-82 -53q-37 -28 -62 4l-270 395l-436 -399q-21 -19 -36.5 -19.5t-29.5 15.5l-78 65q-13 15 -11 26z" />
<glyph unicode="_" horiz-adv-x="1015" d="M-166 -250l23 113q5 24 16.5 34.5t34.5 10.5h1001q25 0 32.5 -10t2.5 -33l-22 -113q-5 -25 -15.5 -35t-36.5 -10h-1001q-44 0 -35 43z" />
<glyph unicode="`" horiz-adv-x="1093" d="M471 1446q-34 43 4 65l137 84q25 14 40 10.5t32 -28.5l229 -379q22 -32 -8 -51l-84 -53q-36 -24 -59 2z" />
<glyph unicode="a" horiz-adv-x="1148" d="M70 274q0 84 24 218q20 102 43 177.5t60.5 144t86.5 111.5t119 68t160 25q54 0 124 -19t126 -51l8 33q4 20 14 26.5t31 6.5h228q27 0 33 -10q3 -6 3 -17q0 -9 -2 -20l-176 -922q-2 -18 -14 -31.5t-37 -13.5h-231q-25 0 -31.5 10.5t-1.5 32.5l10 51l-2 2 q-172 -112 -311 -112q-145 0 -204.5 74t-59.5 216zM403 379q0 -63 21 -85t70 -22q65 0 198 60l72 368q-89 29 -154 29q-83 -1 -125 -51t-65 -174q-17 -87 -17 -125z" />
<glyph unicode="b" horiz-adv-x="1124" d="M35 111q0 10 4 34q164 836 244 1254q10 45 53 45h229q37 0 37 -29q0 -12 -2 -16q-40 -199 -78 -402q115 33 207 33q100 0 168.5 -22t107 -65.5t54.5 -100.5t16 -135q0 -70 -16 -179q-16 -102 -42 -182t-70.5 -150t-106.5 -116t-151 -72t-202 -26q-114 0 -228.5 15 t-180.5 46q-43 21 -43 68zM381 268q98 -12 144 -12h7q61 2 104.5 38.5t72.5 129.5q20 65 26 129q3 26 3 48q0 63 -21 103q-28 52 -109 52q-58 0 -137 -21z" />
<glyph unicode="c" horiz-adv-x="976" d="M82 338q0 96 20 201q16 88 38 154.5t63.5 133t99 109.5t147.5 69.5t207 26.5q191 0 306 -53q34 -15 34 -45q0 -15 -8 -33l-39 -127q-8 -23 -16 -30.5t-24 -8.5t-44 2q-154 15 -204 15q-101 0 -157 -55.5t-79 -180.5q-10 -75 -10 -113q0 -77 37 -110t118 -33q94 0 238 16 q32 7 46.5 1t14.5 -37v-117q0 -39 -12.5 -57t-60.5 -37q-63 -21 -153.5 -34t-166.5 -13q-114 0 -194.5 28.5t-122.5 80t-60 111.5t-18 136z" />
<glyph unicode="d" horiz-adv-x="1126" d="M72 279q2 111 43 311q25 109 60 186t92 137.5t142.5 90.5t202.5 30q113 0 213 -33v3l9 45l69 350q5 23 16 35t35 12h230q37 0 37 -31q0 -10 -2 -16l-265 -1354q-4 -45 -51 -45h-231q-35 0 -35 27q0 10 2 16q1 8 5 25.5t5 25.5h-4q-171 -110 -309 -110q-146 0 -206 76 q-58 72 -58 206v13zM406 373q0 -60 21 -80.5t67 -20.5q67 0 200 60l78 405q-76 21 -123 21q-90 0 -135 -34t-76 -140q-32 -118 -32 -211z" />
<glyph unicode="e" horiz-adv-x="1085" d="M70 326q0 120 39 262q18 69 43 126t70 117t104 101t149 67.5t201 26.5q100 0 180.5 -29t132 -92.5t51.5 -152.5q0 -358 -639 -383q-8 -21 -8 -52q0 -23 9 -38.5t21.5 -24t37.5 -12.5t45 -5t55 -1q115 0 285 18q15 2 26 1t18 -9.5t7 -26.5v-98q0 -41 -13.5 -57.5 t-58.5 -34.5q-63 -23 -165.5 -35t-198.5 -12q-184 0 -287.5 83t-103.5 261zM432 573q277 18 277 142q0 30 -24.5 47.5t-66.5 17.5q-35 0 -63.5 -13.5t-46.5 -31.5t-34 -49t-24 -54.5t-18 -58.5z" />
<glyph unicode="f" horiz-adv-x="858" d="M-296 -335q-1 6 -1 13q0 15 8 29l43 131q10 27 22 31.5t50 -2.5q108 -17 137 -17q76 0 110 37.5t52 124.5l147 750h-108q-23 0 -29.5 11t0.5 36l29 158q5 24 15.5 34.5t33.5 10.5h111l16 98q36 179 139.5 275t294.5 96q172 0 273 -49q31 -14 31 -40q0 -20 -11 -38 l-43 -129q-9 -25 -21.5 -29t-48.5 2q-104 14 -149 14q-70 0 -104 -32.5t-48 -102.5l-14 -65h235q26 0 33 -10t2 -33l-30 -160q-5 -26 -16 -36.5t-38 -10.5h-237l-164 -823q-34 -176 -133 -269.5t-285 -93.5q-158 0 -268 55q-29 12 -34 34z" />
<glyph unicode="g" horiz-adv-x="1124" d="M14 -326q0 14 6 29l48 117q14 34 31.5 40.5t45.5 -1.5q135 -23 273 -23q74 0 115 15t59 42.5t33 83.5l14 54l-2 2q-106 -33 -207 -33q-99 0 -167.5 22.5t-107 66.5t-55 100.5t-16.5 134.5q0 143 37 278q27 101 68.5 176.5t107 134.5t163 89t224.5 30q106 0 214 -16 t177 -45q24 -9 35 -27q10 -16 10 -32q0 -14 -4 -44l-155 -805q-15 -72 -25 -114t-31 -101.5t-46 -93.5t-66.5 -73.5t-94.5 -60t-129.5 -34.5t-171.5 -14h-11q-80 0 -168 13q-93 14 -148 36q-31 12 -43.5 24t-12.5 29zM418 401q0 -70 29 -97.5t88 -27.5q66 0 155 21l86 446 q-86 11 -127 11q-81 0 -133.5 -43t-79.5 -166q-18 -85 -18 -144z" />
<glyph unicode="h" horiz-adv-x="1140" d="M25 45l262 1356q7 45 51 45h227q37 0 37 -31q0 -6 -2 -14l-90 -463q76 39 164 65.5t160 26.5q64 0 112 -13t78 -33t48 -53t25 -65q6 -28 6 -66v-10q-1 -44 -6 -79.5t-14 -83.5l-112 -582q-9 -45 -51 -45h-226q-38 0 -38 33q0 5 1 12q79 388 109 551q7 35 7 61 q0 36 -13 57q-23 36 -88 36q-60 0 -213 -60l-125 -645q-9 -45 -51 -45h-226q-33 0 -33 32q0 6 1 13z" />
<glyph unicode="i" horiz-adv-x="569" d="M49 45l178 922q9 45 56 45h229q35 0 35 -30q0 -7 -2 -15l-178 -922q-5 -45 -52 -45h-229q-39 0 -39 31q0 6 2 14zM279 1229q0 91 47.5 148t152.5 57q142 0 142 -103q0 -39 -9 -73t-29.5 -66t-62.5 -51t-100 -19q-141 0 -141 107z" />
<glyph unicode="j" horiz-adv-x="600" d="M-309 -326l41 140q9 28 19.5 33t51.5 1q60 -6 99 -6q31 0 49 4q92 17 112 119l193 1006q4 24 15.5 32.5t35.5 8.5h232q24 0 31 -8.5t3 -32.5l-215 -1114q-33 -166 -130.5 -232.5t-260.5 -66.5q-61 0 -133 12t-119 33q-29 10 -29 42q0 13 5 29zM305 1229q0 90 49 147.5 t152 57.5q75 0 108 -26t33 -77q0 -38 -9 -72t-29.5 -66.5t-62.5 -51.5t-100 -19q-141 0 -141 107z" />
<glyph unicode="k" horiz-adv-x="1085" d="M31 43l262 1358q7 45 53 45h223q37 0 37 -31q0 -6 -2 -14l-137 -703v-2q54 54 144.5 138t138.5 131q27 26 46.5 35.5t57.5 9.5h258q21 0 30 -6q7 -5 7 -13q0 -15 -25 -37l-368 -348l239 -551q9 -15 6 -28q-3 -27 -47 -27h-204q-13 0 -24 1t-19.5 4t-14.5 4.5t-12 8t-9 8 t-7.5 11t-5.5 11.5t-5.5 14t-5.5 14l-131 301q-13 -13 -62 -58t-73 -69l-41 -207q-9 -43 -51 -43h-223q-37 0 -37 29q0 6 2 14z" />
<glyph unicode="l" horiz-adv-x="616" d="M88 258l221 1143q10 45 53 45h230q38 0 38 -31q0 -6 -1 -14l-209 -1067q-3 -15 -2.5 -26.5t1.5 -19.5t8.5 -14t12 -9t18 -5.5t20.5 -3t26 -2.5q30 -3 37 -11t4 -32l-21 -150q-3 -18 -12 -28t-29 -17q-62 -26 -170 -26q-137 0 -195 64q-39 44 -39 123q0 37 9 81z" />
<glyph unicode="m" horiz-adv-x="1716" d="M23 43l178 922q10 45 53 45h225q37 0 37 -31q0 -6 -2 -14l-8 -47l2 -3q161 113 321 113q95 0 157.5 -35t80.5 -104q89 63 186.5 101t186.5 38q47 0 85 -8t64.5 -20.5t45 -33.5t29.5 -42t16 -52q5 -30 6 -56q0 -5 1 -11q0 -22 -4 -51q-4 -36 -8.5 -62.5t-11.5 -64.5 l-113 -584q-9 -43 -49 -43h-225q-39 0 -39 29q0 6 2 14l104 539q9 43 9 73q0 33 -11 50q-20 32 -81 32q-70 0 -195 -59l-18 -94l-105 -541q-2 -12 -6 -20.5t-15.5 -15.5t-29.5 -7h-225q-37 0 -37 29q0 6 2 14l104 545q8 39 8 67q-1 31 -11 49q-20 32 -77 33q-76 0 -196 -59 l-123 -635q-9 -43 -53 -43h-226q-36 0 -36 29q0 6 2 14z" />
<glyph unicode="n" horiz-adv-x="1140" d="M23 45l178 922q10 45 53 45h229q38 0 38 -27q0 -8 -3 -18l-8 -49h4q75 51 171.5 81.5t168.5 30.5q60 0 105.5 -13t73 -34t43.5 -54q18 -33 24 -65q5 -24 4 -57v-20q-2 -45 -7 -80t-14 -82l-112 -580q-2 -17 -14 -31t-37 -14h-232q-24 0 -31 11t-4 34l105 533q7 39 7 67 q-1 39 -13 57q-22 32 -86 31q-54 0 -203 -57l-123 -631q-2 -17 -14.5 -31t-38.5 -14h-230q-35 0 -35 33q0 5 1 12z" />
<glyph unicode="o" horiz-adv-x="1122" d="M84 365q0 57 16 155q10 53 22 98t34 99t49.5 97t70.5 85t94.5 70t123.5 45.5t157 17.5q114 0 196.5 -28t129.5 -79t68.5 -115.5t21.5 -145.5q0 -65 -14 -144q-8 -48 -16 -85t-21.5 -84t-29 -82.5t-39.5 -75.5t-52.5 -69t-68.5 -56.5t-87 -45t-108.5 -28t-132.5 -10.5 q-414 0 -414 381zM408 387q0 -70 27 -100.5t89 -30.5q50 0 85.5 16.5t58 52t35.5 77.5t24 106q14 79 14 123q0 67 -29.5 97t-95.5 30q-89 0 -130 -62t-64 -188q-14 -79 -14 -121z" />
<glyph unicode="p" horiz-adv-x="1126" d="M-49 -356l254 1321q10 47 53 47h229q27 0 33.5 -9.5t3.5 -29.5l-8 -55q0 -3 2 -3q168 113 313 113q133 0 192 -74.5t62 -212.5q0 -48 -2 -75q-3 -103 -32 -242q-46 -222 -163 -333t-337 -111q-111 0 -213 30l-72 -366q-10 -45 -53 -45h-227q-37 0 -37 31q0 6 2 14z M387 274q99 -22 164 -22q56 0 98 38.5t63 98t30.5 116t9.5 107.5q0 67 -17.5 94t-70.5 27q-76 0 -197 -57q-17 -80 -46.5 -231t-33.5 -171z" />
<glyph unicode="q" horiz-adv-x="1124" d="M80 295q0 156 45 309q57 212 186.5 320t370.5 108q109 0 218 -15.5t177 -45.5q32 -17 39 -45q4 -14 4 -28q0 -15 -4 -30l-239 -1224q-5 -45 -52 -45h-229q-37 0 -37 32v13l74 368l-2 2q-104 -30 -205 -30q-185 0 -265.5 80t-80.5 231zM418 385q0 -73 29 -101t92 -28 q57 0 147 20l90 467q-86 11 -125 11q-89 0 -144.5 -55.5t-78.5 -192.5q-10 -56 -10 -121z" />
<glyph unicode="r" horiz-adv-x="839" d="M53 45l178 922q10 45 54 45h231q37 0 37 -30q0 -7 -2 -15l-23 -123l2 -4q63 69 159 120.5t165 61.5q17 3 29 3q16 0 23 -5q10 -6 10 -31q0 -6 -1 -14l-16 -209q-2 -30 -13.5 -41t-56.5 -20q-178 -33 -352 -113l-104 -547q-10 -45 -51 -45h-232q-38 0 -38 33q0 6 1 12z " />
<glyph unicode="s" horiz-adv-x="997" d="M14 67q-4 7 -3 17q0 18 12 45l40 98q12 30 25.5 36.5t46.5 0.5q149 -26 287 -26q77 0 115 18t41 63q3 34 -20 47.5t-77 24.5q-63 11 -108 22t-93.5 33t-79 50.5t-50 74t-19.5 103.5q0 80 26.5 143t71.5 102.5t108.5 65.5t132 36.5t148.5 10.5q74 0 163 -12.5t147 -34.5 q29 -10 41.5 -18.5t18.5 -25.5q2 -5 3 -12q0 -13 -10 -30l-45 -106q-11 -29 -22 -35t-48 -2q-182 21 -280 24h-7q-61 0 -89 -16q-28 -17 -31 -55q-2 -20 17 -34t39.5 -19.5t53.5 -10.5q59 -9 101.5 -18.5t90.5 -30t78 -48.5t50 -73t20 -104q0 -389 -520 -389 q-77 0 -168.5 12.5t-148.5 32.5q-48 19 -58 40z" />
<glyph unicode="t" horiz-adv-x="837" d="M125 811l31 154q5 24 16 34.5t35 10.5h92l39 200q7 41 55 54l217 55q11 4 20 4q10 1 16 -5q12 -10 9 -34l-53 -274h209q26 0 33 -10q4 -6 4 -16q0 -7 -2 -17l-31 -156q-5 -25 -15 -35t-36 -10h-211l-72 -381q-9 -39 -7 -63t27 -35.5t83 -12.5q28 0 143 9q29 0 35 -7 q7 -9 6 -36l-10 -148q1 -22 -13.5 -40.5t-35.5 -24.5q-136 -43 -308 -43q-75 0 -127 18t-78 47t-38 73q-10 38 -10 76v12q2 44 12 99l90 457h-90q-24 0 -32 10q-5 6 -5 19q0 7 2 16z" />
<glyph unicode="u" horiz-adv-x="1130" d="M62 212q2 46 7 80.5t15 88.5l115 586q10 45 51 45h231q37 0 37 -30q0 -7 -2 -15l-102 -533q-6 -36 -6 -63q0 -36 11 -56q20 -34 85 -34q15 0 34 3t33.5 6.5t37.5 11.5t32.5 11.5t33 12.5t25.5 10l121 631q10 45 53 45h230q39 0 39 -31q0 -7 -2 -14l-180 -922 q-7 -45 -52 -45h-231q-36 0 -36 36q0 4 1 9l10 49l-4 2q-80 -52 -173.5 -82t-166.5 -30q-60 0 -105 12t-73 30t-44 50t-22 61q-4 20 -4 50q0 11 1 25z" />
<glyph unicode="v" horiz-adv-x="1116" d="M139 958q-1 6 -1 12q0 18 8 28q10 14 36 14h215q22 0 32 -2t18 -12.5t10 -32.5l41 -351q26 -256 28 -264h9l135 277l180 342q11 24 27.5 33.5t52.5 9.5h227q33 0 37 -12q1 -3 0 -7q0 -12 -12 -32l-508 -895q-20 -35 -42.5 -50.5t-60.5 -15.5h-192q-42 0 -58 15t-22 51z " />
<glyph unicode="w" horiz-adv-x="1550" d="M137 971q-1 5 -1 9q0 32 42 32h215q27 0 38.5 -9t12.5 -36q18 -206 25 -342l20 -254h11q20 39 61.5 120.5t74.5 144.5t64 118l-30 211q0 47 39 47h215q30 0 39 -8.5t10 -42.5q1 -8 24 -238q13 -147 33 -332h8l105 230q25 60 76 174.5t73 167.5q12 29 25 39t37 10h245 q28 0 32 -13q1 -3 1 -6q0 -11 -10 -26l-465 -930q-19 -37 -82 -37h-176q-30 0 -45 15.5t-18 50.5l-50 331h-6l-202 -356q-28 -41 -82 -41h-160q-38 0 -54 15.5t-22 54.5z" />
<glyph unicode="x" horiz-adv-x="1060" d="M-62 14q-1 2 -1 5q0 14 20 36l410 461l-215 442q-11 19 -2 36.5t38 17.5h234q29 0 38 -6.5t17 -28.5l103 -246l198 244q16 22 27.5 29.5t34.5 7.5h278q23 0 32 -8q6 -5 6 -12q0 -4 -2 -8q-4 -12 -17 -26l-400 -444l234 -459q10 -21 -0.5 -38t-38.5 -17h-236q-26 0 -38 7 t-21 28l-115 266l-211 -262q-19 -23 -34.5 -31t-40.5 -8h-267q-27 0 -31 14z" />
<glyph unicode="y" horiz-adv-x="1067" d="M74 -390q-1 3 -1 7q0 12 13 33l213 377l-170 934q-5 26 5 38.5t38 12.5h209q22 0 31 -1.5t16.5 -11t9.5 -30.5l39 -291l29 -277h10l148 281q99 198 147 287q10 23 26.5 33t51.5 10h221q33 0 37 -14q1 -3 1 -6q0 -13 -13 -34l-742 -1312q-18 -28 -33.5 -37.5t-48.5 -9.5 h-200q-31 0 -37 11z" />
<glyph unicode="z" horiz-adv-x="960" d="M-18 43l24 131q7 43 49 80l516 506h-378q-35 0 -35 30q0 8 2 17l28 162q12 43 54 43h716q26 0 32 -9q4 -6 4 -19q0 -6 -1 -13l-26 -137q-10 -43 -49 -82l-508 -500h411q23 0 31 -10t4 -35l-31 -162q-9 -45 -51 -45h-758q-25 0 -32 10q-4 6 -4 16q0 7 2 17z" />
<glyph unicode="{" horiz-adv-x="706" d="M86 563l20 111q6 28 39 35q62 17 83.5 54t35.5 116l62 315q10 50 30 91.5t54 77t87.5 55.5t123.5 20q95 0 176 -11q32 -3 26 -41l-28 -139q-4 -21 -14.5 -29t-30.5 -8l-56 -4q-41 -3 -62 -25.5t-30 -68.5l-51 -262q-5 -31 -16.5 -62.5t-31 -68t-53.5 -65.5t-77 -42l-2 -6 q43 -17 66.5 -41.5t29 -58.5t3 -60.5t-10.5 -68.5l-56 -285q-9 -47 3.5 -68t54.5 -24l53 -4q20 -2 27.5 -10t3.5 -29l-27 -133q-3 -18 -14 -28.5t-27 -12.5q-70 -10 -162 -10q-61 0 -106 16t-68 42t-36 60t-11 71t8 73l62 319q5 31 7 43t4 34.5t-1 32t-9.5 23t-19.5 21.5 t-32 14q-32 11 -27 41z" />
<glyph unicode="|" horiz-adv-x="614" d="M168 -182v1564q0 45 45 45h190q43 0 43 -45v-1564q0 -45 -43 -45h-190q-45 0 -45 45z" />
<glyph unicode="}" horiz-adv-x="706" d="M-59 -176l26 133q7 36 45 39l51 4q45 3 65.5 24t29.5 68l55 285q7 34 12.5 55t18.5 50.5t30.5 49.5t47 40t69.5 34l2 6q-37 13 -60 42t-29.5 65.5t-5.5 68t7 62.5l49 262q9 46 -2.5 68.5t-52.5 25.5l-51 4q-20 0 -27.5 8t-3.5 29l27 139q6 38 43 41q84 11 172 11 q122 0 173.5 -71.5t31.5 -172.5l-62 -315l-8.5 -51t-2.5 -39.5t6.5 -36t21 -24t38.5 -19.5q30 -8 25 -35l-23 -111q-5 -29 -41 -41q-23 -6 -39.5 -14t-28.5 -22t-18.5 -23t-13.5 -32t-9.5 -34t-8.5 -43l-66 -342q-20 -100 -92.5 -169.5t-198.5 -69.5q-113 0 -176 10 q-32 3 -26 41z" />
<glyph unicode="~" d="M135 557q69 129 154.5 179t195.5 50q57 0 126 -25t131 -50t102 -25q72 0 133 76q15 19 27.5 22t31.5 -10l92 -63q21 -13 22.5 -20.5t-9.5 -28.5q-74 -125 -154 -170.5t-182 -45.5q-54 0 -177 56.5t-171 56.5q-47 0 -82.5 -20.5t-81.5 -73.5q-24 -30 -55 -12l-95 57 q-25 14 -8 47z" />
<glyph unicode="&#xa1;" horiz-adv-x="602" d="M16 -313l199 876q6 23 16 32t31 9h166q22 0 29 -10t4 -31l-146 -876q-4 -24 -14.5 -32.5t-34.5 -8.5h-219q-22 0 -29.5 9t-1.5 32zM231 834q1 27 5.5 51t17.5 50.5t33.5 45t55.5 31t81 12.5q79 0 108 -30t27 -83q-7 -192 -192 -192q-79 0 -109 30t-27 85z" />
<glyph unicode="&#xa2;" d="M197 338q0 71 20 197q14 78 32 138t51 122t77.5 105t113 75.5t156.5 44.5l51 254q7 45 52 45h129q41 0 32 -45l-49 -248q137 -11 217 -47q49 -22 27 -78l-41 -127q-8 -23 -15.5 -30.5t-24 -8.5t-44.5 2q-150 15 -203 15q-102 0 -158 -55.5t-79 -180.5q-11 -82 -11 -113 q0 -77 37.5 -110t118.5 -33q94 0 238 16q32 7 47.5 1t15.5 -37l-2 -117q0 -40 -12 -57.5t-60 -36.5q-88 -31 -254 -43l-45 -246q-15 -45 -51 -45h-129q-43 0 -33 45l48 258q-252 53 -252 340z" />
<glyph unicode="&#xa3;" d="M33 41l16 106q8 45 27 73t74 75q81 71 118 199l19 77h-103q-9 0 -15.5 0.5t-10.5 3t-6.5 4t-3.5 6.5t-1 7v9.5v10.5l29 152q4 21 15.5 29t35.5 8h95q29 177 47 248q41 154 152.5 237.5t318.5 83.5q244 -6 362 -57q17 -8 23.5 -17t6 -18.5t-6.5 -24.5l-49 -143 q-12 -41 -54 -41q-157 23 -260 23q-172 0 -205 -168l-22 -123h280q27 0 33.5 -8t1.5 -29l-30 -152q-4 -24 -15 -32.5t-35 -8.5h-272q-14 -79 -43 -157q-38 -116 -74 -152q85 0 255.5 -1t256.5 -1q26 0 31 -9t2 -32l-33 -180q-6 -25 -15 -32t-34 -7h-874q-23 0 -31 10t-6 31z " />
<glyph unicode="&#xa4;" horiz-adv-x="1105" d="M49 934.5q0 12.5 23 34.5l88 84q20 19 31.5 23t20 -0.5t26.5 -22.5l94 -97q93 49 211 52q135 0 225 -56l113 111q28 25 38.5 24.5t32.5 -20.5l97 -94q20 -22 18.5 -34t-23.5 -34l-118 -119q47 -90 47 -194q0 -119 -53 -225l118 -119q16 -16 21.5 -25t2.5 -20.5t-18 -26.5 l-81 -86q-26 -27 -40.5 -27.5t-35.5 21.5l-127 123q-106 -54 -217 -51q-103 0 -193 41l-114 -107q-16 -16 -25.5 -22t-21 -3.5t-25.5 17.5l-94 96q-16 16 -15.5 30t23.5 36l104 102q-27 56 -41 122t-14 116q0 113 49 209l-104 106q-23 23 -23 35.5zM358 590q0 -97 50 -150 t139 -53q95 0 148 56t53 147q0 94 -52.5 147.5t-148.5 53.5q-89 0 -139 -53.5t-50 -147.5z" />
<glyph unicode="&#xa5;" d="M74 328l18 88q8 35 49 35h875q24 0 30 -7t3 -28l-19 -90q-5 -22 -13.5 -29.5t-33.5 -7.5h-278l-50 -244q-5 -45 -49 -45h-231q-44 0 -37 45l49 244h-278q-23 0 -31 8.5t-4 30.5zM121 565l18 88q5 37 49 37h187l-182 619q-6 21 5.5 36t34.5 15h220q34 0 46 -9t21 -40 l115 -512h12l301 497q20 27 27.5 36t24.5 18.5t38 9.5h252q21 0 25 -17t-10 -34l-431 -619h187q26 0 32 -7.5t1 -29.5l-19 -88q-3 -22 -12 -30.5t-33 -8.5h-874q-23 0 -31 8.5t-4 30.5z" />
<glyph unicode="&#xa6;" horiz-adv-x="614" d="M168 -182v723q0 45 45 45h190q43 0 43 -45v-723q0 -45 -43 -45h-190q-45 0 -45 45zM168 748v630q0 47 45 47h190q43 0 43 -47v-630q0 -46 -43 -46h-190q-45 0 -45 46z" />
<glyph unicode="&#xa7;" horiz-adv-x="929" d="M-25.5 -245.5q-6.5 15.5 2.5 40.5l46 113q4 10 8 17.5t9 12.5t8 8.5t10 4.5t10 2t12 -1t12.5 -3t15.5 -5t17 -5q85 -25 197 -25q46 0 84.5 9t67 32t28.5 57q0 35 -36.5 71.5t-79.5 61t-98.5 53t-72.5 40.5q-133 89 -133 245q0 95 50.5 180t131.5 140q-86 80 -86 188 q0 100 36.5 176.5t100.5 122.5t144.5 69t175.5 23q94 0 191.5 -20.5t144.5 -46.5q43 -23 22 -66q-9 -22 -23.5 -62.5t-17.5 -47.5q-20 -35 -38 -40t-52 5q-138 29 -219 29q-35 0 -60.5 -3.5t-51 -14t-40 -32t-16.5 -53.5q0 -19 10.5 -36.5t32 -33.5t38 -26t44.5 -24.5 t35 -18.5q114 -60 154 -91q105 -85 106 -212q0 -91 -45 -165.5t-137 -154.5q94 -101 94 -233q0 -118 -67.5 -204.5t-172 -127.5t-229.5 -41q-98 0 -191.5 17.5t-140.5 44.5q-25 15 -31.5 30.5zM371 522q0 -12 4 -22.5t14.5 -21.5t18.5 -18t27.5 -18.5t28.5 -16.5t34.5 -17.5 t33.5 -16.5q65 65 72 129q0 52 -59 88l-101 54q-73 -83 -73 -140z" />
<glyph unicode="&#xa8;" horiz-adv-x="1093" d="M360 1210q0 195 185 195q70 0 101.5 -22.5t31.5 -67.5q0 -55 -16 -97t-60.5 -72t-114.5 -30q-127 0 -127 94zM788 1210q0 195 185 195q70 0 101.5 -22.5t31.5 -67.5q0 -87 -44 -143t-147 -56q-127 0 -127 94z" />
<glyph unicode="&#xa9;" horiz-adv-x="1695" d="M121 688q0 196 97 361t264 260.5t364 95.5q152 0 287 -56.5t231.5 -152t152.5 -228.5t56 -280q0 -196 -97.5 -361t-264.5 -260.5t-365 -95.5q-197 0 -364 95.5t-264 260.5t-97 361zM295 688q0 -149 74 -276t201 -201t276 -74q150 0 277 74t200.5 201t73.5 276 t-73.5 275.5t-200.5 200t-277 73.5q-149 0 -276 -73.5t-201 -200t-74 -275.5zM496 676q0 414 352 414q141 0 227 -37q22 -10 30.5 -21.5t4.5 -32.5l-14 -71q-7 -31 -43 -25q-86 12 -187 12q-48 0 -81 -18t-50 -52t-23.5 -74t-6.5 -93q0 -123 34 -181.5t127 -58.5 q62 0 189 13q19 2 28 -3t15 -22l16 -66q8 -39 -33 -55q-86 -41 -233 -41q-352 0 -352 412z" />
<glyph unicode="&#xaa;" horiz-adv-x="815" d="M106 666q0 58 17 141q16 84 39.5 145t61.5 111.5t95.5 76t135.5 25.5q94 0 163 -53l7 29q1 12 7.5 16t20.5 4h172q27 0 27 -16q0 -9 -2 -15l-117 -614q-4 -31 -37 -31h-164q-24 0 -24 19v8l8 41h-2q-115 -80 -221 -80q-184 0 -187 193zM356 737q0 -61 54 -61t122 33 q10 52 46 225q-45 18 -93 18q-50 0 -75.5 -31t-44.5 -108q-9 -37 -9 -76z" />
<glyph unicode="&#xab;" horiz-adv-x="1140" d="M66 419q4 16 26 36l273 272q37 37 69 37h250q18 0 21 -11t-7 -18l-327 -325l186 -316q7 -8 3 -22.5t-21 -14.5h-246q-13 0 -24.5 8t-15 12.5t-11.5 18.5l-164 279q-16 28 -12 44zM500 418.5q4 16.5 26 36.5l273 272q37 37 69 37h248q19 0 22.5 -11t-8.5 -18l-323 -325 l182 -316q7 -8 3 -22.5t-21 -14.5h-244q-13 0 -24.5 8t-15 12.5t-11.5 18.5l-166 279q-14 27 -10 43.5z" />
<glyph unicode="&#xac;" d="M168 606l27 139q9 43 51 43h844q25 0 32 -8.5t2 -31.5l-96 -498q-6 -25 -17 -33t-34 -8h-178q-25 0 -34 8t-3 33l59 311h-620q-23 0 -30.5 10.5t-2.5 34.5z" />
<glyph unicode="&#xad;" horiz-adv-x="839" d="M92 573l33 168q6 43 51 43h639q25 0 31.5 -10t1.5 -33l-33 -168q-3 -24 -13.5 -33.5t-37.5 -9.5h-639q-22 0 -29.5 10t-3.5 33z" />
<glyph unicode="&#xae;" horiz-adv-x="1101" d="M88 1032q0 194 137.5 329.5t333.5 135.5q199 0 335 -135t136 -330q0 -128 -62.5 -235t-171 -168.5t-237.5 -61.5q-196 0 -333.5 135.5t-137.5 329.5zM205 1032q0 -146 104 -249t250 -103t249 103t103 249t-103 249t-249 103t-250 -103t-104 -249zM371 799v477q0 22 22 22 h193q71 0 122.5 -40.5t51.5 -120.5q0 -104 -80 -142l90 -196q5 -7 1.5 -14t-13.5 -7h-101q-24 0 -32 19l-76 172h-41v-170q0 -21 -19 -21h-98q-20 0 -20 21zM508 1081h55q55 0 55 54q0 49 -55 49h-55v-103z" />
<glyph unicode="&#xaf;" horiz-adv-x="1099" d="M342 1204l29 148q8 43 53 43h623q24 0 30.5 -9t1.5 -32l-30 -150q-3 -24 -13.5 -34.5t-34.5 -10.5h-624q-44 0 -35 45z" />
<glyph unicode="&#xb0;" horiz-adv-x="808" d="M74 1061q0 130 99.5 224.5t238.5 94.5t235 -95t96 -224q0 -134 -96 -227t-235 -93q-154 0 -246 91.5t-92 228.5zM274 1057q0 -54 38.5 -91.5t95.5 -37.5q54 0 92.5 37.5t38.5 91.5t-38.5 92.5t-92.5 38.5t-94 -38.5t-40 -92.5z" />
<glyph unicode="&#xb1;" d="M74 63l26 138q8 43 52 43h845q25 0 31.5 -9t1.5 -32l-26 -140q-5 -23 -16 -33t-36 -10h-843q-44 0 -35 43zM197 682l30 147q6 43 49 43h283l51 258q9 44 52 44h188q44 0 35 -44l-51 -258h286q26 0 33 -9.5t4 -33.5l-29 -147q-5 -24 -15.5 -33.5t-37.5 -9.5h-287l-55 -283 q-3 -25 -14 -34t-33 -9h-190q-24 0 -31.5 8.5t-3.5 34.5l53 283h-283q-23 0 -30 9.5t-4 33.5z" />
<glyph unicode="&#xb2;" horiz-adv-x="829" d="M74 705l20 106q8 41 45 68q16 14 195.5 152.5t189.5 146.5q83 66 86 120q2 25 -18 38.5t-72 13.5q-124 0 -231 -15q-40 -7 -51 -2.5t-11 37.5v82q-1 18 1.5 30t18.5 26.5t48 23.5q54 20 135 29.5t137 9.5q170 0 244 -55.5t74 -161.5q0 -94 -48.5 -168.5t-148.5 -155.5 q-50 -41 -192 -147h286q19 0 24.5 -7t2.5 -26l-29 -145q-8 -35 -39 -35h-639q-19 0 -24.5 8t-3.5 27z" />
<glyph unicode="&#xb3;" horiz-adv-x="829" d="M81.5 729.5q-11.5 18.5 2.5 52.5l33 80q11 29 20 36t33 3q123 -22 233 -22q50 0 84.5 6.5t62.5 32.5t28 71q0 21 -12.5 31.5t-39.5 15.5l-164 31q-32 6 -43 20t-6 39l15 70q6 33 39 53q55 31 161 97v4h-280q-35 0 -29 32l29 144q6 35 39 35h600q22 0 27 -8.5t1 -26.5 l-16 -92q-5 -28 -31 -62q-19 -19 -48 -41t-70 -50t-60 -42l49 -14q119 -36 119 -199q0 -96 -36 -168t-100 -115t-146 -63.5t-181 -20.5q-61 0 -139 9.5t-119 25.5q-44 17 -55.5 35.5z" />
<glyph unicode="&#xb4;" horiz-adv-x="1093" d="M578 1212l258 355q30 41 63 20l137 -90q40 -22 0 -65l-303 -310q-30 -33 -55 -18l-96 59q-29 18 -4 49z" />
<glyph unicode="&#xb6;" horiz-adv-x="1157" d="M145 877q0 109 41 201.5t109 153.5t156.5 95.5t183.5 34.5h590q48 0 39 -45l-33 -166q-5 -25 -17 -37t-38 -12h-37l-248 -1274q-4 -28 -16.5 -38.5t-38.5 -10.5h-144q-24 0 -33.5 11t-5.5 38l248 1276h-174l-248 -1276q-4 -28 -17.5 -38.5t-39.5 -10.5h-139q-27 0 -37 11 t-6 38l145 747q-123 7 -181.5 90.5t-58.5 211.5z" />
<glyph unicode="&#xb7;" horiz-adv-x="479" d="M96 506q0 89 48.5 147t154.5 58q74 0 107.5 -26t33.5 -77q0 -40 -8.5 -74.5t-29.5 -67.5t-62.5 -52t-99.5 -19q-144 0 -144 111z" />
<glyph unicode="&#xb8;" horiz-adv-x="864" d="M92 -432l31 84q6 15 29 12q65 -10 131 -10q56 0 95.5 20t39.5 66q0 33 -28.5 43.5t-108.5 15.5q-46 3 -21 49l90 170q0 1 3.5 4.5t10 7t11.5 3.5h104q7 0 7.5 -7t-1.5 -10l-65 -114q91 -3 136.5 -43t45.5 -101q0 -111 -87.5 -175t-240.5 -64q-102 0 -170 24q-19 8 -12 25 z" />
<glyph unicode="&#xb9;" horiz-adv-x="796" d="M141 702l31 146q3 19 11.5 26t27.5 7h131l84 442h-123q-25 0 -30.5 7t-2.5 26l17 84q5 23 12.5 33t30.5 18l135 55q41 15 82 15h141q21 0 28.5 -7.5t4.5 -27.5l-123 -645h139q20 0 26 -6t3 -25l-31 -148q-3 -18 -10.5 -25t-26.5 -7h-528q-20 0 -26 6t-3 26z" />
<glyph unicode="&#xba;" horiz-adv-x="774" d="M121 707q-2 44 10 127q65 337 387 337q293 0 293 -243q0 -35 -8 -97q-10 -58 -22.5 -100.5t-41.5 -94t-68.5 -84t-107 -55t-155.5 -22.5q-283 0 -287 232zM365 752q0 -40 16 -57t53 -17q56 0 82 35t41 110q10 48 10 74q0 38 -18 55t-57 17q-51 0 -77.5 -37.5 t-41.5 -108.5q-8 -36 -8 -71z" />
<glyph unicode="&#xbb;" horiz-adv-x="1140" d="M6.5 78.5q2.5 8.5 7.5 13.5l316 320l-195 319q-9 9 -0.5 21t27.5 12h241q13 0 26 -8t17 -12t15 -17l164 -274q14 -20 11 -38t-26 -42l-274 -277q-39 -39 -66 -39h-250q-9 0 -12.5 6.5t-1 15zM441 64q-3 7 0 15t8 13l315 320l-197 319q-7 10 0.5 21.5t26.5 11.5h246 q8 0 14.5 -2t13 -7.5t9.5 -8t9 -10.5t7 -9l164 -274q14 -21 11.5 -38.5t-26.5 -41.5l-272 -277q-3 -3 -10.5 -10t-12 -11t-12 -9t-15 -7t-15.5 -2h-250q-11 0 -14 7z" />
<glyph unicode="&#xbc;" horiz-adv-x="1945" d="M188 518l31 146q3 18 11.5 25t27.5 7h131l84 443h-123q-25 0 -30.5 6.5t-2.5 25.5l17 84q5 23 12.5 33.5t30.5 18.5l135 55q39 14 82 14h141q21 0 28.5 -7.5t4.5 -27.5l-123 -645h139q20 0 26 -5.5t3 -24.5l-31 -148q-3 -18 -10.5 -25.5t-26.5 -7.5h-528q-19 0 -25.5 6.5 t-3.5 26.5zM521 -38.5q-4 8.5 3 22.5l838 1423q15 27 37 27h184q11 0 14 -9t-4 -22l-835 -1426q-12 -24 -35 -24h-184q-14 0 -18 8.5zM1036 223l23 113q8 32 31 55q37 34 232 233.5t224 227.5q22 24 37 30.5t41 6.5h191q18 0 22.5 -7.5t1.5 -25.5l-90 -461h84 q18 0 23.5 -7.5t1.5 -25.5l-27 -139q-4 -18 -11.5 -26.5t-27.5 -8.5h-82l-31 -151q-3 -20 -11.5 -27.5t-29.5 -7.5h-184q-21 0 -26.5 6t-2.5 27l31 153h-385q-19 0 -28.5 7.5t-6.5 27.5zM1325 391h174l41 209h-6q-17 -16 -59.5 -58.5t-91.5 -92t-58 -58.5z" />
<glyph unicode="&#xbd;" horiz-adv-x="1945" d="M143 518l31 146q3 18 11.5 25t27.5 7h131l84 443h-123q-25 0 -30.5 6.5t-2.5 25.5l17 84q5 23 12.5 33.5t30.5 18.5l135 55q38 14 82 14h141q21 0 28.5 -7.5t4.5 -27.5l-123 -645h139q20 0 26 -5.5t3 -24.5l-31 -148q-3 -18 -10.5 -25.5t-26.5 -7.5h-528q-19 0 -25.5 6.5 t-3.5 26.5zM461.5 -38.5q-3.5 8.5 3.5 22.5l838 1423q15 27 36 27h185q11 0 14 -9t-4 -22l-836 -1426q-12 -24 -34 -24h-185q-14 0 -17.5 8.5zM1094 35l20 106q8 41 45 68q16 14 195.5 152.5t189.5 146.5q83 66 86 121q2 25 -18 38t-72 13q-131 0 -231 -14q-40 -7 -51 -3 t-11 37v82q-1 18 1.5 30t18.5 26.5t48 23.5q54 20 135 29.5t137 9.5q170 0 244 -55.5t74 -161.5q0 -94 -48.5 -168.5t-148.5 -155.5q-50 -41 -192 -147h286q19 0 24.5 -7t2.5 -26l-29 -145q-8 -35 -39 -35h-639q-19 0 -24.5 8t-3.5 27z" />
<glyph unicode="&#xbe;" horiz-adv-x="1945" d="M147.5 545.5q-11.5 18.5 2.5 52.5l32 80q11 29 20.5 36t33.5 3q128 -23 233 -23q36 0 63.5 4t54.5 15t41.5 34.5t14.5 57.5q0 21 -12 31.5t-39 15.5l-164 31q-32 6 -43 20t-6 39l14 70q6 33 39 53q82 47 162 96v4h-281q-35 0 -28 33l28 143q6 35 39 35h600q23 0 28 -8.5 t1 -26.5l-16 -92q-4 -27 -31 -61q-19 -19 -48 -41t-70 -50t-60 -42l49 -15q119 -36 119 -198q0 -96 -36 -168t-100 -115t-146 -63.5t-181 -20.5q-61 0 -139 9.5t-119 25.5q-44 17 -55.5 35.5zM543.5 -38.5q-3.5 8.5 3.5 22.5l837 1423q15 27 37 27h185q11 0 14 -9t-4 -22 l-836 -1426q-12 -24 -35 -24h-184q-14 0 -17.5 8.5zM1081 223l23 113q8 32 31 55q37 34 232 233.5t224 227.5q22 24 37 30.5t41 6.5h191q18 0 22.5 -7.5t1.5 -25.5l-90 -461h84q18 0 23.5 -7.5t1.5 -25.5l-27 -139q-4 -18 -11.5 -26.5t-27.5 -8.5h-82l-31 -151 q-3 -20 -11.5 -27.5t-29.5 -7.5h-184q-21 0 -26.5 6t-2.5 27l31 153h-385q-19 0 -28.5 7.5t-6.5 27.5zM1370 391h174l41 209h-6q-17 -16 -59.5 -58.5t-91.5 -92t-58 -58.5z" />
<glyph unicode="&#xbf;" horiz-adv-x="894" d="M-33 -102q0 191 238 344q94 61 140 113t67 132q5 20 18 99q8 39 41 39h207q21 0 29 -8t8 -31v-2q-2 -48 -13 -103q-11 -60 -30.5 -110t-42.5 -86t-61.5 -73.5t-73 -64.5t-91.5 -67q-46 -32 -68 -59t-22 -64t33.5 -53.5t112.5 -16.5q99 0 198 13q28 4 42.5 -2t11.5 -31 l-13 -123q-3 -33 -10.5 -45t-38.5 -25q-126 -49 -293 -49q-190 0 -289.5 69.5t-99.5 203.5zM463 817q0 38 8 70.5t27.5 64t60 50t98.5 18.5q138 0 138 -102q0 -86 -47.5 -142.5t-149.5 -56.5q-74 0 -104.5 25t-30.5 73z" />
<glyph unicode="&#xc0;" horiz-adv-x="1263" d="M-60.5 9.5q-4.5 9.5 11.5 43.5l635 1250q17 32 35.5 45.5t56.5 13.5h258q39 0 51 -14t17 -48l167 -1251q2 -26 -4.5 -37.5t-27.5 -11.5h-244q-32 0 -43 14t-14 49l-21 244h-407l-123 -250q-27 -57 -82 -57h-236q-25 0 -29.5 9.5zM440 1720l109 119q20 20 36 20t38 -20 l307 -295q13 -11 16 -20.5t0.5 -15t-10.5 -15.5l-68 -72q-22 -31 -67 0l-348 238q-44 30 -13 61zM528 557h267l-19 225l-16 250h-10l-117 -248z" />
<glyph unicode="&#xc1;" horiz-adv-x="1263" d="M-60.5 9.5q-4.5 9.5 11.5 43.5l635 1250q17 32 35.5 45.5t56.5 13.5h258q39 0 51 -14t17 -48l167 -1251q2 -26 -4.5 -37.5t-27.5 -11.5h-244q-32 0 -43 14t-14 49l-21 244h-407l-123 -250q-27 -57 -82 -57h-236q-25 0 -29.5 9.5zM528 557h267l-19 225l-16 250h-10 l-117 -248zM709 1548q-16 27 22 49l377 220q43 22 59 -11l64 -157q9 -17 0.5 -34t-31.5 -26l-391 -157q-16 -8 -30.5 -7t-24.5 17z" />
<glyph unicode="&#xc2;" horiz-adv-x="1263" d="M-60.5 9.5q-4.5 9.5 11.5 43.5l635 1250q17 32 35.5 45.5t56.5 13.5h258q39 0 51 -14t17 -48l167 -1251q2 -26 -4.5 -37.5t-27.5 -11.5h-244q-32 0 -43 14t-14 49l-21 244h-407l-123 -250q-27 -57 -82 -57h-236q-25 0 -29.5 9.5zM401 1504q1 11 21 30l307 248 q23 21 39 29t49 8h131q35 0 48 -6t26 -25l205 -254q13 -19 10 -30t-23 -27l-69 -62q-22 -14 -32 -12.5t-26 16.5l-231 187l-317 -195q-19 -12 -28 -15.5t-17.5 -1.5t-16.5 13l-65 72q-12 14 -11 25zM528 557h267l-19 225l-16 250h-10l-117 -248z" />
<glyph unicode="&#xc3;" horiz-adv-x="1263" d="M-60.5 9.5q-4.5 9.5 11.5 43.5l635 1250q17 32 35.5 45.5t56.5 13.5h258q39 0 51 -14t17 -48l167 -1251q2 -26 -4.5 -37.5t-27.5 -11.5h-244q-32 0 -43 14t-14 49l-21 244h-407l-123 -250q-27 -57 -82 -57h-236q-25 0 -29.5 9.5zM391.5 1517.5q-3.5 10.5 3.5 28.5 q63 120 139.5 167.5t172.5 47.5q50 0 110 -23.5t113 -47t88 -23.5q64 0 115 74q14 17 25 19.5t28 -7.5l86 -59q15 -10 17 -18t-7 -27q-66 -118 -137.5 -162.5t-159.5 -44.5q-47 0 -154 52t-149 52q-38 0 -69.5 -19.5t-71.5 -66.5q-26 -32 -58 -10l-80 53q-8 4 -11.5 14.5z M528 557h267l-19 225l-16 250h-10l-117 -248z" />
<glyph unicode="&#xc4;" horiz-adv-x="1263" d="M-60.5 9.5q-4.5 9.5 11.5 43.5l635 1250q17 32 35.5 45.5t56.5 13.5h258q39 0 51 -14t17 -48l167 -1251q2 -26 -4.5 -37.5t-27.5 -11.5h-244q-32 0 -43 14t-14 49l-21 244h-407l-123 -250q-27 -57 -82 -57h-236q-25 0 -29.5 9.5zM469 1518q0 196 184 196q71 0 102 -23.5 t31 -70.5q0 -195 -186 -195q-131 0 -131 93zM528 557h267l-19 225l-16 250h-10l-117 -248zM897 1518q0 196 186 196q70 0 100.5 -22.5t30.5 -69.5q0 -87 -42.5 -142t-143.5 -55q-131 0 -131 93z" />
<glyph unicode="&#xc5;" horiz-adv-x="1263" d="M-60.5 9.5q-4.5 9.5 11.5 43.5l635 1250q17 32 35.5 45.5t56.5 13.5h258q39 0 51 -14t17 -48l167 -1251q2 -26 -4.5 -37.5t-27.5 -11.5h-244q-32 0 -43 14t-14 49l-21 244h-407l-123 -250q-27 -57 -82 -57h-236q-25 0 -29.5 9.5zM528 557h267l-19 225l-16 250h-10 l-117 -248zM594 1589q0 89 46 157t113 101t140 33q96 0 159.5 -63.5t63.5 -155.5q0 -119 -89.5 -202t-207.5 -83q-95 0 -160 59t-65 154zM766 1608q0 -34 20 -55t54 -21q42 0 77 34.5t35 80.5q0 34 -20.5 55.5t-54.5 21.5q-45 0 -78 -35t-33 -81z" />
<glyph unicode="&#xc6;" horiz-adv-x="1853" d="M-66 53l824 1256q19 32 38 42.5t62 10.5h985q21 0 31.5 -12t7.5 -33l-29 -193q-3 -43 -51 -43h-516l-33 -237h457q20 0 31 -12.5t8 -32.5l-27 -193q-7 -41 -51 -41h-459l-38 -286h532q21 0 31.5 -12.5t7.5 -33.5l-27 -192q-3 -21 -13.5 -31t-35.5 -10h-821q-46 0 -39 43 l37 264h-389l-168 -260q-20 -26 -39.5 -36.5t-48.5 -10.5h-254q-51 0 -13 53zM627 565h254l73 512h-4z" />
<glyph unicode="&#xc7;" horiz-adv-x="1212" d="M147 475q0 72 19 201q18 114 46.5 207.5t83.5 188t129.5 159t189.5 105t259 40.5q248 0 381 -65q16 -8 26 -14.5t16.5 -17t5.5 -25.5t-9 -35l-51 -121q-11 -29 -26 -37t-52 -4q-249 22 -297 22q-82 0 -143.5 -29.5t-101.5 -86t-64 -123.5t-41 -158q-21 -105 -18 -184 q3 -113 56 -167.5t169 -54.5q111 0 311 21q40 3 54.5 -4t17.5 -37l4 -113q4 -36 -14.5 -57.5t-55.5 -36.5q-146 -60 -358 -67l-45 -80q91 -3 136.5 -43t45.5 -101q0 -111 -87 -175t-240 -64q-35 0 -87 6.5t-81 17.5q-22 7 -15 25l31 84q6 15 27 12q68 -10 133 -10 q56 0 95.5 20t39.5 66q0 33 -28.5 43.5t-108.5 15.5q-22 2 -27 14.5t8 34.5l72 136q-413 40 -406 491z" />
<glyph unicode="&#xc8;" horiz-adv-x="1138" d="M61 45l248 1270q10 47 56 47h806q20 0 29 -12.5t4 -32.5l-37 -193q-7 -43 -51 -43h-522l-45 -237h455q44 0 34 -45l-37 -193q-7 -41 -51 -41h-454l-56 -286h537q42 0 35 -46l-37 -192q-5 -21 -16 -31t-35 -10h-824q-46 0 -39 45zM436 1720l109 119q20 20 35.5 20 t37.5 -20l308 -295q13 -11 16 -20.5t0.5 -15t-10.5 -15.5l-68 -72q-22 -31 -67 0l-348 238q-44 30 -13 61z" />
<glyph unicode="&#xc9;" horiz-adv-x="1138" d="M61 45l248 1270q10 47 56 47h806q20 0 29 -12.5t4 -32.5l-37 -193q-7 -43 -51 -43h-522l-45 -237h455q44 0 34 -45l-37 -193q-7 -41 -51 -41h-454l-56 -286h537q42 0 35 -46l-37 -192q-5 -21 -16 -31t-35 -10h-824q-46 0 -39 45zM610 1548q-15 27 23 49l377 220 q43 22 59 -11l64 -157q9 -17 0.5 -34t-31.5 -26l-391 -157q-16 -8 -31 -7t-25 17z" />
<glyph unicode="&#xca;" horiz-adv-x="1138" d="M61 45l248 1270q10 47 56 47h806q20 0 29 -12.5t4 -32.5l-37 -193q-7 -43 -51 -43h-522l-45 -237h455q44 0 34 -45l-37 -193q-7 -41 -51 -41h-454l-56 -286h537q42 0 35 -46l-37 -192q-5 -21 -16 -31t-35 -10h-824q-46 0 -39 45zM370 1504q1 11 21 30l307 248 q23 21 39 29t49 8h132q35 0 47.5 -6t25.5 -25l205 -254q13 -19 10 -30t-22 -27l-70 -62q-22 -14 -31 -12.5t-26 16.5l-232 187l-317 -195q-19 -12 -28 -15.5t-17.5 -1.5t-16.5 13l-65 72q-12 14 -11 25z" />
<glyph unicode="&#xcb;" horiz-adv-x="1138" d="M61 45l248 1270q10 47 56 47h806q20 0 29 -12.5t4 -32.5l-37 -193q-7 -43 -51 -43h-522l-45 -237h455q44 0 34 -45l-37 -193q-7 -41 -51 -41h-454l-56 -286h537q42 0 35 -46l-37 -192q-5 -21 -16 -31t-35 -10h-824q-46 0 -39 45zM436 1518q0 196 185 196q71 0 102 -23.5 t31 -70.5q0 -55 -15 -96t-58.5 -70t-113.5 -29q-131 0 -131 93zM864 1518q0 196 187 196q70 0 100.5 -22.5t30.5 -69.5q0 -55 -15 -96.5t-58.5 -71t-113.5 -29.5q-131 0 -131 93z" />
<glyph unicode="&#xcc;" horiz-adv-x="622" d="M70 45l247 1270q10 47 56 47h241q42 0 33 -47l-246 -1270q-10 -45 -51 -45h-241q-46 0 -39 45zM123 1720l108 119q20 20 36 20t38 -20l307 -295q13 -11 16 -20.5t0.5 -15t-10.5 -15.5l-67 -72q-23 -32 -68 0l-348 238q-43 30 -12 61z" />
<glyph unicode="&#xcd;" horiz-adv-x="622" d="M70 45l247 1270q10 47 56 47h241q42 0 33 -47l-246 -1270q-10 -45 -51 -45h-241q-46 0 -39 45zM399 1548q-15 27 23 49l377 220q43 22 59 -11l64 -157q9 -17 0.5 -34t-31.5 -26l-391 -157q-16 -8 -31 -7t-25 17z" />
<glyph unicode="&#xce;" horiz-adv-x="622" d="M70 45l247 1270q10 47 56 47h241q42 0 33 -47l-246 -1270q-10 -45 -51 -45h-241q-46 0 -39 45zM110 1504q1 11 21 30l307 248q23 21 39 29t49 8h131q35 0 48 -6t26 -25l205 -254q13 -19 10 -30t-22 -27l-70 -62q-22 -14 -31 -12.5t-26 16.5l-232 187l-317 -195 q-19 -12 -28 -15.5t-17.5 -1.5t-16.5 13l-65 72q-12 14 -11 25z" />
<glyph unicode="&#xcf;" horiz-adv-x="622" d="M70 45l247 1270q10 47 56 47h241q42 0 33 -47l-246 -1270q-10 -45 -51 -45h-241q-46 0 -39 45zM166 1518q0 196 184 196q71 0 102 -23.5t31 -70.5q0 -195 -186 -195q-131 0 -131 93zM594 1518q0 196 186 196q70 0 100.5 -22.5t30.5 -69.5q0 -87 -42.5 -142t-143.5 -55 q-131 0 -131 93z" />
<glyph unicode="&#xd0;" horiz-adv-x="1345" d="M61 33v10l2 2q66 350 107 551h-68q-36 0 -36 22q0 2 1 6.5t1 6.5q14 74 26 119q5 19 15.5 27.5t33.5 8.5h64q53 282 102 529q10 43 56 43h428q137 0 235 -34.5t154 -100t81 -149.5t25 -195q0 -91 -16 -197q-20 -125 -49 -221.5t-82.5 -186t-127.5 -147.5t-185 -92.5 t-253 -34.5h-473q-41 0 -41 33zM438 276h131q155 0 245 95t120 297q16 102 16 157q0 256 -227 256h-129l-59 -295h221q35 0 35 -22q0 -5 -3 -14l-26 -119q-5 -19 -14.5 -27t-32.5 -8h-217z" />
<glyph unicode="&#xd1;" horiz-adv-x="1366" d="M59 31q0 2 1 7t1 7l246 1270q11 45 55 45h170q30 0 47.5 -8.5t22.5 -17t16 -31.5l316 -725h8q49 266 139 735q9 47 52 47h233q39 0 39 -31q0 -10 -2 -16q-84 -422 -248 -1270q-7 -43 -53 -43h-170q-33 0 -51 12t-29 37l-207 475l-113 269h-6l-143 -748q-9 -45 -51 -45 h-234q-39 0 -39 31zM428.5 1499.5q-3.5 10.5 3.5 28.5q64 120 139.5 167.5t171.5 47.5q50 0 110 -23.5t113.5 -47t88.5 -23.5q64 0 114 73q14 17 25.5 20t28.5 -7l86 -60q15 -10 17 -18t-7 -27q-66 -118 -137.5 -162.5t-159.5 -44.5q-47 0 -154 52.5t-149 52.5 q-38 0 -69.5 -19.5t-71.5 -66.5q-26 -32 -58 -10l-80 53q-8 4 -11.5 14.5z" />
<glyph unicode="&#xd2;" horiz-adv-x="1406" d="M145 457q0 91 23 241q11 65 26 124t42.5 129.5t62.5 129t89 115t119 95.5t154.5 63t194.5 24q517 0 502 -510q0 -53 -17 -170q-11 -80 -27 -148.5t-43.5 -143.5t-64 -134.5t-91.5 -115.5t-122.5 -93t-160 -59t-201.5 -22q-112 0 -197.5 25t-139.5 67t-88 104t-47.5 129.5 t-13.5 149.5zM492 496q-3 -116 40.5 -172t141.5 -56q74 0 127.5 27t90.5 83t60.5 125.5t44.5 172.5q23 122 23 194q3 116 -44 169t-153 53q-55 0 -99 -19t-76 -52.5t-57.5 -87t-43.5 -114.5t-33 -143q-19 -88 -22 -180zM541 1726l108 119q20 20 36 20t38 -20l307 -295 q13 -11 16 -20.5t0.5 -15t-10.5 -15.5l-67 -72q-23 -32 -68 0l-348 238q-43 30 -12 61z" />
<glyph unicode="&#xd3;" horiz-adv-x="1406" d="M145 457q0 91 23 241q11 65 26 124t42.5 129.5t62.5 129t89 115t119 95.5t154.5 63t194.5 24q517 0 502 -510q0 -53 -17 -170q-11 -80 -27 -148.5t-43.5 -143.5t-64 -134.5t-91.5 -115.5t-122.5 -93t-160 -59t-201.5 -22q-112 0 -197.5 25t-139.5 67t-88 104t-47.5 129.5 t-13.5 149.5zM492 496q-3 -116 40.5 -172t141.5 -56q74 0 127.5 27t90.5 83t60.5 125.5t44.5 172.5q23 122 23 194q3 116 -44 169t-153 53q-55 0 -99 -19t-76 -52.5t-57.5 -87t-43.5 -114.5t-33 -143q-19 -88 -22 -180zM784 1548q-15 27 23 49l377 220q43 22 59 -11l64 -157 q9 -17 0.5 -34t-31.5 -26l-391 -157q-16 -8 -31 -7t-25 17z" />
<glyph unicode="&#xd4;" horiz-adv-x="1406" d="M145 457q0 91 23 241q11 65 26 124t42.5 129.5t62.5 129t89 115t119 95.5t154.5 63t194.5 24q517 0 502 -510q0 -53 -17 -170q-11 -80 -27 -148.5t-43.5 -143.5t-64 -134.5t-91.5 -115.5t-122.5 -93t-160 -59t-201.5 -22q-112 0 -197.5 25t-139.5 67t-88 104t-47.5 129.5 t-13.5 149.5zM492 496q-3 -116 40.5 -172t141.5 -56q74 0 127.5 27t90.5 83t60.5 125.5t44.5 172.5q23 122 23 194q3 116 -44 169t-153 53q-55 0 -99 -19t-76 -52.5t-57.5 -87t-43.5 -114.5t-33 -143q-19 -88 -22 -180zM503 1504q1 11 21 30l307 248q23 21 39.5 29t49.5 8 h131q35 0 47.5 -6t25.5 -25l205 -254q13 -19 10 -30t-22 -27l-70 -62q-22 -14 -31 -12.5t-26 16.5l-232 187l-317 -195q-19 -12 -27.5 -15.5t-17 -1.5t-16.5 13l-66 72q-12 14 -11 25z" />
<glyph unicode="&#xd5;" horiz-adv-x="1406" d="M145 457q0 91 23 241q11 65 26 124t42.5 129.5t62.5 129t89 115t119 95.5t154.5 63t194.5 24q517 0 502 -510q0 -53 -17 -170q-11 -80 -27 -148.5t-43.5 -143.5t-64 -134.5t-91.5 -115.5t-122.5 -93t-160 -59t-201.5 -22q-112 0 -197.5 25t-139.5 67t-88 104t-47.5 129.5 t-13.5 149.5zM475.5 1507.5q-3.5 10.5 3.5 28.5q63 120 139.5 167.5t172.5 47.5q50 0 110 -23.5t113 -47t88 -23.5q64 0 115 74q14 17 25 19.5t28 -7.5l86 -60q15 -10 17 -18t-7 -27q-66 -118 -137.5 -162t-159.5 -44q-47 0 -154 52t-149 52q-38 0 -69.5 -19.5t-71.5 -66.5 q-26 -32 -58 -10l-80 53q-8 4 -11.5 14.5zM492 496q-3 -116 40.5 -172t141.5 -56q74 0 127.5 27t90.5 83t60.5 125.5t44.5 172.5q23 122 23 194q3 116 -44 169t-153 53q-55 0 -99 -19t-76 -52.5t-57.5 -87t-43.5 -114.5t-33 -143q-19 -88 -22 -180z" />
<glyph unicode="&#xd6;" horiz-adv-x="1406" d="M145 457q0 91 23 241q11 65 26 124t42.5 129.5t62.5 129t89 115t119 95.5t154.5 63t194.5 24q517 0 502 -510q0 -53 -17 -170q-11 -80 -27 -148.5t-43.5 -143.5t-64 -134.5t-91.5 -115.5t-122.5 -93t-160 -59t-201.5 -22q-112 0 -197.5 25t-139.5 67t-88 104t-47.5 129.5 t-13.5 149.5zM492 496q-3 -116 40.5 -172t141.5 -56q74 0 127.5 27t90.5 83t60.5 125.5t44.5 172.5q23 122 23 194q3 116 -44 169t-153 53q-55 0 -99 -19t-76 -52.5t-57.5 -87t-43.5 -114.5t-33 -143q-19 -88 -22 -180zM553 1518q0 196 184 196q71 0 102 -23.5t31 -70.5 q0 -195 -186 -195q-131 0 -131 93zM981 1518q0 196 186 196q70 0 100.5 -22.5t30.5 -69.5q0 -87 -42.5 -142t-143.5 -55q-131 0 -131 93z" />
<glyph unicode="&#xd7;" d="M172.5 400.5q2.5 12.5 22.5 31.5l272 230l-182 227q-12 20 -9 31.5t21 25.5l133 113q21 18 33.5 19t28.5 -17l182 -227l264 223q38 32 63 0l107 -133q23 -29 -12 -62l-267 -223l181 -221q24 -31 -15 -64l-133 -112q-37 -29 -59 2l-180 225l-271 -229q-22 -18 -34 -18 t-23 18l-111 133q-14 15 -11.5 27.5z" />
<glyph unicode="&#xd8;" horiz-adv-x="1406" d="M109 50.5q2 11.5 20 29.5l82 88q-66 112 -66 289q0 91 23 241q11 65 26 124t42.5 129.5t62.5 129t89 115t119 95.5t154.5 63t194.5 24q251 0 375 -118l72 77q21 21 30 24t25 -9l47 -41q15 -15 13 -25t-21 -31l-92 -98q56 -108 53 -289q0 -53 -17 -170q-11 -80 -27 -148.5 t-43.5 -143.5t-64 -134.5t-91.5 -115.5t-122.5 -93t-160 -59t-201.5 -22q-219 0 -338 92l-72 -78q-19 -19 -29.5 -22t-27.5 10l-43 41q-14 14 -12 25.5zM492 467l503 541q-43 84 -172 84q-55 0 -99 -19t-76 -52.5t-57.5 -87t-43.5 -114.5t-33 -143q-19 -88 -22 -180v-29z M530 326q43 -58 144 -58q74 0 127.5 27t90.5 83t60.5 125.5t44.5 172.5q21 113 23 174z" />
<glyph unicode="&#xd9;" horiz-adv-x="1337" d="M152 508l157 807q10 47 56 47h239q25 0 32 -14.5t1 -32.5l-156 -801q-47 -244 156 -244q207 0 256 244l154 801q10 47 55 47h239q44 0 35 -47l-157 -807q-98 -526 -607 -526q-264 0 -386 142t-74 384zM496 1720l108 119q20 20 36 20t38 -20l307 -295q13 -11 16 -20.5 t0.5 -15t-10.5 -15.5l-67 -72q-23 -32 -68 0l-348 238q-43 30 -12 61z" />
<glyph unicode="&#xda;" horiz-adv-x="1337" d="M152 508l157 807q10 47 56 47h239q25 0 32 -14.5t1 -32.5l-156 -801q-47 -244 156 -244q207 0 256 244l154 801q10 47 55 47h239q44 0 35 -47l-157 -807q-98 -526 -607 -526q-264 0 -386 142t-74 384zM723 1548q-16 27 22 49l377 220q43 22 60 -11l63 -157q9 -17 0.5 -34 t-31.5 -26l-391 -157q-16 -8 -30.5 -7t-24.5 17z" />
<glyph unicode="&#xdb;" horiz-adv-x="1337" d="M152 508l157 807q10 47 56 47h239q25 0 32 -14.5t1 -32.5l-156 -801q-47 -244 156 -244q207 0 256 244l154 801q10 47 55 47h239q44 0 35 -47l-157 -807q-98 -526 -607 -526q-264 0 -386 142t-74 384zM466 1504q1 11 21 30l308 248q23 21 39 29t49 8h131q35 0 47.5 -6 t25.5 -25l205 -254q13 -19 10 -30t-22 -27l-70 -62q-22 -14 -31 -12.5t-26 16.5l-231 187l-318 -195q-19 -12 -27.5 -15.5t-17 -1.5t-16.5 13l-66 72q-12 14 -11 25z" />
<glyph unicode="&#xdc;" horiz-adv-x="1337" d="M152 508l157 807q10 47 56 47h239q25 0 32 -14.5t1 -32.5l-156 -801q-47 -244 156 -244q207 0 256 244l154 801q10 47 55 47h239q44 0 35 -47l-157 -807q-98 -526 -607 -526q-264 0 -386 142t-74 384zM512 1518q0 196 184 196q71 0 102 -23.5t31 -70.5q0 -195 -186 -195 q-131 0 -131 93zM940 1518q0 196 186 196q70 0 100.5 -22.5t30.5 -69.5q0 -87 -42.5 -142t-143.5 -55q-131 0 -131 93z" />
<glyph unicode="&#xdd;" horiz-adv-x="1290" d="M197 1311q-6 21 3 36t31 15h228q34 0 47 -9.5t22 -39.5l82 -264l74 -254h12l174 256l174 245q20 27 29 37t26.5 19.5t39.5 9.5h272q16 0 22.5 -6.5t4 -16.5t-10.5 -22l-620 -823l-86 -449q-2 -17 -14 -31t-37 -14h-242q-47 0 -37 45l86 449zM664 1548q-16 27 22 49 l377 220q43 22 59 -11l64 -157q9 -17 0.5 -34t-31.5 -26l-391 -157q-16 -8 -30.5 -7t-24.5 17z" />
<glyph unicode="&#xde;" horiz-adv-x="1167" d="M57 45l248 1272q10 45 53 45h244q43 0 33 -45l-37 -184h184q183 0 287.5 -95.5t104.5 -283.5q-1 -88 -34 -171t-97 -154.5t-172 -115t-244 -43.5h-195l-43 -225q-10 -45 -51 -45h-242q-46 0 -39 45zM485 541h148q83 0 140.5 51t57.5 145q0 119 -149 119l-135 -2z" />
<glyph unicode="&#xdf;" horiz-adv-x="1126" d="M18 41l187 956q45 234 172 349.5t328 115.5q169 0 277 -81t108 -226q0 -97 -42 -188.5t-130 -153.5q74 -29 109.5 -96t35.5 -154q0 -123 -29 -229t-84.5 -187.5t-145 -128.5t-202.5 -47q-91 0 -135 17q-23 6 -28.5 21t1.5 38l37 158q6 22 14.5 28t32.5 11 q98 10 149.5 80.5t57.5 175.5q6 83 -19 126t-102 54q-29 4 -36.5 13t-4.5 28l21 104q4 23 13.5 32.5t27.5 16.5q67 23 111 81t44 132q0 48 -28 77.5t-78 29.5q-60 0 -98 -44t-52 -120l-194 -987q-2 -18 -14 -31.5t-37 -13.5h-232q-24 0 -31 11t-4 32z" />
<glyph unicode="&#xe0;" horiz-adv-x="1148" d="M70 274q0 84 24 218q20 102 43 177.5t60.5 144t86.5 111.5t119 68t160 25q54 0 124 -19t126 -51l8 33q4 20 14 26.5t31 6.5h228q27 0 33 -10.5t1 -36.5l-176 -922q-2 -18 -14 -31.5t-37 -13.5h-231q-25 0 -31.5 10.5t-1.5 32.5l10 51l-2 2q-172 -112 -311 -112 q-145 0 -204.5 74t-59.5 216zM403 379q0 -63 21 -85t70 -22q65 0 198 60l72 368q-89 29 -154 29q-83 -1 -125 -51t-65 -174q-17 -87 -17 -125zM406 1446q-34 43 4 65l137 84q25 14 39.5 10.5t31.5 -28.5l230 -379q22 -32 -8 -51l-84 -53q-37 -24 -60 2z" />
<glyph unicode="&#xe1;" horiz-adv-x="1148" d="M70 274q0 84 24 218q20 102 43 177.5t60.5 144t86.5 111.5t119 68t160 25q54 0 124 -19t126 -51l8 33q4 20 14 26.5t31 6.5h228q27 0 33 -10.5t1 -36.5l-176 -922q-2 -18 -14 -31.5t-37 -13.5h-231q-25 0 -31.5 10.5t-1.5 32.5l10 51l-2 2q-172 -112 -311 -112 q-145 0 -204.5 74t-59.5 216zM403 379q0 -63 21 -85t70 -22q65 0 198 60l72 368q-89 29 -154 29q-83 -1 -125 -51t-65 -174q-17 -87 -17 -125zM543 1212l258 355q30 41 63 20l137 -90q40 -22 0 -65l-303 -310q-30 -33 -55 -18l-96 59q-29 18 -4 49z" />
<glyph unicode="&#xe2;" horiz-adv-x="1148" d="M70 274q0 84 24 218q20 102 43 177.5t60.5 144t86.5 111.5t119 68t160 25q54 0 124 -19t126 -51l8 33q4 20 14 26.5t31 6.5h228q27 0 33 -10.5t1 -36.5l-176 -922q-2 -18 -14 -31.5t-37 -13.5h-231q-25 0 -31.5 10.5t-1.5 32.5l10 51l-2 2q-172 -112 -311 -112 q-145 0 -204.5 74t-59.5 216zM293 1176q1 11 20 30l305 277q17 15 25.5 20.5t25.5 11t40 5.5h131q36 0 49 -6.5t24 -26.5l199 -285q13 -21 10.5 -31t-20.5 -24l-80 -66q-19 -15 -30.5 -14t-26.5 16l-228 217l-301 -217q-19 -11 -26.5 -14t-16.5 -1t-18 13l-70 70 q-13 14 -12 25zM403 379q0 -63 21 -85t70 -22q65 0 198 60l72 368q-89 29 -154 29q-83 -1 -125 -51t-65 -174q-17 -87 -17 -125z" />
<glyph unicode="&#xe3;" horiz-adv-x="1148" d="M70 274q0 84 24 218q20 102 43 177.5t60.5 144t86.5 111.5t119 68t160 25q54 0 124 -19t126 -51l8 33q4 20 14 26.5t31 6.5h228q27 0 33 -10.5t1 -36.5l-176 -922q-2 -18 -14 -31.5t-37 -13.5h-231q-25 0 -31.5 10.5t-1.5 32.5l10 51l-2 2q-172 -112 -311 -112 q-145 0 -204.5 74t-59.5 216zM279.5 1200.5q-3.5 10.5 3.5 28.5q64 120 139.5 167.5t171.5 47.5q50 0 110 -23.5t113 -47t88 -23.5q65 0 115 73q14 18 25 20.5t28 -7.5l86 -60q15 -10 17 -18t-7 -27q-66 -118 -137.5 -162.5t-159.5 -44.5q-47 0 -154 52.5t-149 52.5 q-38 0 -69.5 -19.5t-71.5 -66.5q-26 -32 -57 -10l-80 53q-8 4 -11.5 14.5zM403 379q0 -63 21 -85t70 -22q65 0 198 60l72 368q-89 29 -154 29q-83 -1 -125 -51t-65 -174q-17 -87 -17 -125z" />
<glyph unicode="&#xe4;" horiz-adv-x="1148" d="M70 274q0 84 24 218q20 102 43 177.5t60.5 144t86.5 111.5t119 68t160 25q54 0 124 -19t126 -51l8 33q4 20 14 26.5t31 6.5h228q27 0 33 -10.5t1 -36.5l-176 -922q-2 -18 -14 -31.5t-37 -13.5h-231q-25 0 -31.5 10.5t-1.5 32.5l10 51l-2 2q-172 -112 -311 -112 q-145 0 -204.5 74t-59.5 216zM375 1210q0 195 184 195q70 0 101.5 -22.5t31.5 -67.5q0 -40 -9.5 -73.5t-30 -63t-59 -46t-91.5 -16.5q-127 0 -127 94zM403 379q0 -63 21 -85t70 -22q65 0 198 60l72 368q-89 29 -154 29q-83 -1 -125 -51t-65 -174q-17 -87 -17 -125zM803 1210 q0 195 184 195q70 0 101.5 -22.5t31.5 -67.5q0 -87 -43.5 -143t-146.5 -56q-127 0 -127 94z" />
<glyph unicode="&#xe5;" horiz-adv-x="1148" d="M70 274q0 84 24 218q20 102 43 177.5t60.5 144t86.5 111.5t119 68t160 25q54 0 124 -19t126 -51l8 33q4 20 14 26.5t31 6.5h228q27 0 33 -10.5t1 -36.5l-176 -922q-2 -18 -14 -31.5t-37 -13.5h-231q-25 0 -31.5 10.5t-1.5 32.5l10 51l-2 2q-172 -112 -311 -112 q-145 0 -204.5 74t-59.5 216zM403 379q0 -63 21 -85t70 -22q65 0 198 60l72 368q-89 29 -154 29q-83 -1 -125 -51t-65 -174q-17 -87 -17 -125zM479 1298q0 89 46 157t113 101t140 33q96 0 159.5 -63.5t63.5 -155.5q0 -119 -89 -202t-207 -83q-95 0 -160.5 59t-65.5 154z M651 1317q0 -34 20 -55t54 -21q42 0 77.5 34.5t35.5 80.5q0 34 -21 56t-55 22q-45 0 -78 -35.5t-33 -81.5z" />
<glyph unicode="&#xe6;" horiz-adv-x="1712" d="M49 207q0 206 129.5 311t347.5 105q8 0 217 -11q1 9 8 38t7 46q0 40 -35 58t-125 18q-120 0 -268 -18q-28 -7 -50 -2t-22 36q0 18 -1 55t-1 56q0 27 16.5 45.5t65.5 34.5q69 24 174.5 37.5t187.5 13.5q214 0 285 -88q119 82 315 82q164 0 268.5 -70.5t104.5 -201.5 q0 -340 -557 -367q-53 0 -78 -2q-12 -36 -12 -66q0 -26 9.5 -42.5t31 -24.5t42.5 -10.5t56 -3.5q148 0 293 16q21 2 37 1.5t25.5 -11.5t9.5 -35v-86q0 -41 -13.5 -57.5t-56.5 -34.5q-63 -23 -166.5 -35t-199.5 -12q-257 0 -342 147q-216 -145 -453 -145q-74 0 -124.5 17 t-77 49t-37.5 69.5t-11 87.5zM379 287q1 -36 21 -51t63 -15q41 0 108.5 20.5t118.5 45.5q4 86 12 131q-86 6 -155 6q-168 0 -168 -137zM1069 588q29 0 43 2q231 17 231 125q0 30 -24 47.5t-68 17.5q-75 0 -116 -50t-66 -142z" />
<glyph unicode="&#xe7;" horiz-adv-x="976" d="M82 338q0 96 20 201q16 88 38 154.5t63.5 133t99 109.5t147.5 69.5t207 26.5q191 0 306 -53q51 -22 26 -78l-39 -127q-8 -23 -16 -30.5t-24 -8.5t-44 2q-154 15 -204 15q-101 0 -157 -55.5t-79 -180.5q-10 -75 -10 -113q0 -77 37 -110t118 -33q94 0 238 16q32 7 46.5 1 t14.5 -37v-117q0 -39 -12.5 -57t-60.5 -37q-125 -43 -312 -47l-45 -80q91 -3 137 -43t46 -101q0 -111 -87.5 -175t-240.5 -64q-103 0 -170 24q-19 8 -12 25l30 84q6 15 29 12q65 -10 131 -10q56 0 95.5 20t39.5 66q0 33 -28.5 43.5t-108.5 15.5q-45 3 -20 49l75 144 q-274 47 -274 346z" />
<glyph unicode="&#xe8;" horiz-adv-x="1085" d="M70 326q0 120 39 262q18 69 43 126t70 117t104 101t149 67.5t201 26.5q100 0 180.5 -29t132 -92.5t51.5 -152.5q0 -358 -639 -383q-8 -21 -8 -52q0 -23 9 -38.5t21.5 -24t37.5 -12.5t45 -5t55 -1q115 0 285 18q15 2 26 1t18 -9.5t7 -26.5v-98q0 -41 -13.5 -57.5 t-58.5 -34.5q-63 -23 -165.5 -35t-198.5 -12q-184 0 -287.5 83t-103.5 261zM385 1446q-34 43 4 65l137 84q25 14 40 10.5t32 -28.5l229 -379q22 -32 -8 -51l-84 -53q-36 -24 -59 2zM432 573q277 18 277 142q0 30 -24.5 47.5t-66.5 17.5q-35 0 -63.5 -13.5t-46.5 -31.5 t-34 -49t-24 -54.5t-18 -58.5z" />
<glyph unicode="&#xe9;" horiz-adv-x="1085" d="M70 326q0 120 39 262q18 69 43 126t70 117t104 101t149 67.5t201 26.5q100 0 180.5 -29t132 -92.5t51.5 -152.5q0 -358 -639 -383q-8 -21 -8 -52q0 -23 9 -38.5t21.5 -24t37.5 -12.5t45 -5t55 -1q115 0 285 18q15 2 26 1t18 -9.5t7 -26.5v-98q0 -41 -13.5 -57.5 t-58.5 -34.5q-63 -23 -165.5 -35t-198.5 -12q-184 0 -287.5 83t-103.5 261zM432 573q277 18 277 142q0 30 -24.5 47.5t-66.5 17.5q-35 0 -63.5 -13.5t-46.5 -31.5t-34 -49t-24 -54.5t-18 -58.5zM578 1212l258 355q30 41 63 20l137 -90q40 -22 0 -65l-303 -310 q-30 -33 -55 -18l-96 59q-29 18 -4 49z" />
<glyph unicode="&#xea;" horiz-adv-x="1085" d="M70 326q0 120 39 262q18 69 43 126t70 117t104 101t149 67.5t201 26.5q100 0 180.5 -29t132 -92.5t51.5 -152.5q0 -358 -639 -383q-8 -21 -8 -52q0 -23 9 -38.5t21.5 -24t37.5 -12.5t45 -5t55 -1q115 0 285 18q15 2 26 1t18 -9.5t7 -26.5v-98q0 -41 -13.5 -57.5 t-58.5 -34.5q-63 -23 -165.5 -35t-198.5 -12q-184 0 -287.5 83t-103.5 261zM283 1176q1 11 20 30l305 277q18 15 25.5 20.5t24.5 11t40 5.5h131q36 0 49.5 -6.5t24.5 -26.5l199 -285q13 -21 10.5 -31t-20.5 -24l-80 -66q-19 -15 -31 -14t-27 16l-227 217l-301 -217 q-19 -11 -26.5 -14t-16.5 -1t-18 13l-70 70q-13 14 -12 25zM432 573q277 18 277 142q0 30 -24.5 47.5t-66.5 17.5q-35 0 -63.5 -13.5t-46.5 -31.5t-34 -49t-24 -54.5t-18 -58.5z" />
<glyph unicode="&#xeb;" horiz-adv-x="1085" d="M70 326q0 120 39 262q18 69 43 126t70 117t104 101t149 67.5t201 26.5q100 0 180.5 -29t132 -92.5t51.5 -152.5q0 -358 -639 -383q-8 -21 -8 -52q0 -23 9 -38.5t21.5 -24t37.5 -12.5t45 -5t55 -1q115 0 285 18q15 2 26 1t18 -9.5t7 -26.5v-98q0 -41 -13.5 -57.5 t-58.5 -34.5q-63 -23 -165.5 -35t-198.5 -12q-184 0 -287.5 83t-103.5 261zM346 1210q0 195 184 195q70 0 102 -22.5t32 -67.5q0 -55 -16 -97t-60.5 -72t-114.5 -30q-127 0 -127 94zM432 573q277 18 277 142q0 30 -24.5 47.5t-66.5 17.5q-35 0 -63.5 -13.5t-46.5 -31.5 t-34 -49t-24 -54.5t-18 -58.5zM774 1210q0 195 184 195q70 0 102 -22.5t32 -67.5q0 -87 -44 -143t-147 -56q-127 0 -127 94z" />
<glyph unicode="&#xec;" horiz-adv-x="606" d="M121 45l178 922q5 23 16.5 34t36.5 11h230q44 0 34 -45l-180 -922q-5 -45 -49 -45h-231q-45 0 -35 45zM154 1446q-34 43 4 65l137 84q25 14 40 10.5t32 -28.5l229 -379q22 -32 -8 -51l-84 -53q-37 -24 -60 2z" />
<glyph unicode="&#xed;" horiz-adv-x="548" d="M43 45l178 922q5 23 16.5 34t36.5 11h230q45 0 35 -45l-181 -922q-5 -45 -49 -45h-231q-45 0 -35 45zM334 1212l258 355q30 41 63 20l138 -90q40 -22 0 -65l-304 -310q-30 -33 -55 -18l-96 59q-29 18 -4 49z" />
<glyph unicode="&#xee;" horiz-adv-x="786" d="M111 1176q1 11 20 30l305 277q18 15 25.5 20.5t24.5 11t40 5.5h131q36 0 49.5 -6.5t24.5 -26.5l199 -285q13 -21 10.5 -31t-20.5 -24l-80 -66q-19 -15 -31 -14t-27 16l-227 217l-301 -217q-19 -11 -26.5 -14t-16.5 -1t-18 13l-70 70q-13 14 -12 25zM145 45l179 922 q5 23 16.5 34t36.5 11h229q45 0 35 -45l-180 -922q-5 -45 -49 -45h-232q-45 0 -35 45z" />
<glyph unicode="&#xef;" horiz-adv-x="745" d="M121 45l178 922q5 23 16.5 34t36.5 11h230q44 0 34 -45l-180 -922q-5 -45 -49 -45h-231q-45 0 -35 45zM139 1210q0 195 185 195q70 0 101.5 -22.5t31.5 -67.5q0 -55 -16 -97t-60.5 -72t-114.5 -30q-127 0 -127 94zM567 1210q0 195 185 195q70 0 101.5 -22.5t31.5 -67.5 q0 -87 -44 -143t-147 -56q-127 0 -127 94z" />
<glyph unicode="&#xf0;" horiz-adv-x="1112" d="M76 338q0 74 12 133q9 43 19.5 81t31 88.5t46.5 91t66.5 82.5t90 70t118.5 46t150 18q55 0 124.5 -19t94.5 -46h2q11 60 11 141q0 60 -15 94q-30 -26 -98 -82q-27 -27 -49 -2l-45 51q-17 17 6 41q19 14 52.5 43t43.5 37q-45 23 -127 23q-37 0 -131 -8q-25 -4 -32 8.5 t-7 36.5l4 125q0 22 10 33.5t33 19.5q92 31 218 31q153 0 256 -68l112 94q18 15 27.5 16t23.5 -12l45 -51q12 -19 10.5 -24.5t-18.5 -20.5l-112 -96q71 -98 75 -309q0 -142 -26 -314q-12 -81 -27 -148.5t-40.5 -142.5t-58 -133.5t-80.5 -113.5t-106.5 -91t-138 -57.5 t-174.5 -21.5q-397 0 -397 356zM395 375q0 -119 119 -119q146 0 188 209q11 60 11 86q0 63 -26.5 95t-92.5 32q-77 0 -122 -54.5t-66 -162.5q-11 -61 -11 -86z" />
<glyph unicode="&#xf1;" horiz-adv-x="1140" d="M23 45l178 922q10 45 53 45h229q49 0 35 -45l-8 -49h4q75 51 171.5 81.5t168.5 30.5q60 0 105.5 -13t73 -34t44 -54t23 -65t4.5 -77t-7 -80t-14 -82l-112 -580q-2 -17 -14 -31t-37 -14h-232q-24 0 -31 11t-4 34l105 533q16 92 -5.5 123.5t-86.5 31.5q-54 0 -203 -57 l-123 -631q-2 -17 -14.5 -31t-38.5 -14h-230q-41 0 -34 45zM240.5 1200.5q-3.5 10.5 3.5 28.5q64 120 139.5 167.5t171.5 47.5q50 0 110 -23.5t113 -47t88 -23.5q65 0 115 73q14 18 25 20.5t28 -7.5l86 -60q15 -10 17 -18t-7 -27q-66 -118 -137 -162.5t-159 -44.5 q-47 0 -154.5 52.5t-149.5 52.5q-38 0 -69.5 -19.5t-71.5 -66.5q-26 -32 -57 -10l-80 53q-8 4 -11.5 14.5z" />
<glyph unicode="&#xf2;" horiz-adv-x="1122" d="M84 365q0 57 16 155q10 53 22 98t34 99t49.5 97t70.5 85t94.5 70t123.5 45.5t157 17.5q114 0 196.5 -28t129.5 -79t68.5 -115.5t21.5 -145.5q0 -65 -14 -144q-8 -48 -16 -85t-21.5 -84t-29 -82.5t-39.5 -75.5t-52.5 -69t-68.5 -56.5t-87 -45t-108.5 -28t-132.5 -10.5 q-414 0 -414 381zM385 1446q-34 43 4 65l137 84q25 14 40 10.5t32 -28.5l229 -379q22 -32 -8 -51l-84 -53q-36 -24 -59 2zM408 387q0 -70 27 -100.5t89 -30.5q50 0 85.5 16.5t58 52t35.5 77.5t24 106q14 79 14 123q0 67 -29.5 97t-95.5 30q-89 0 -130 -62t-64 -188 q-14 -79 -14 -121z" />
<glyph unicode="&#xf3;" horiz-adv-x="1122" d="M84 365q0 57 16 155q10 53 22 98t34 99t49.5 97t70.5 85t94.5 70t123.5 45.5t157 17.5q114 0 196.5 -28t129.5 -79t68.5 -115.5t21.5 -145.5q0 -65 -14 -144q-8 -48 -16 -85t-21.5 -84t-29 -82.5t-39.5 -75.5t-52.5 -69t-68.5 -56.5t-87 -45t-108.5 -28t-132.5 -10.5 q-414 0 -414 381zM408 387q0 -70 27 -100.5t89 -30.5q50 0 85.5 16.5t58 52t35.5 77.5t24 106q14 79 14 123q0 67 -29.5 97t-95.5 30q-89 0 -130 -62t-64 -188q-14 -79 -14 -121zM596 1212l258 355q30 41 64 20l137 -90q40 -22 0 -65l-303 -310q-30 -34 -56 -18l-96 59 q-29 18 -4 49z" />
<glyph unicode="&#xf4;" horiz-adv-x="1122" d="M84 365q0 57 16 155q10 53 22 98t34 99t49.5 97t70.5 85t94.5 70t123.5 45.5t157 17.5q114 0 196.5 -28t129.5 -79t68.5 -115.5t21.5 -145.5q0 -65 -14 -144q-8 -48 -16 -85t-21.5 -84t-29 -82.5t-39.5 -75.5t-52.5 -69t-68.5 -56.5t-87 -45t-108.5 -28t-132.5 -10.5 q-414 0 -414 381zM293 1176q1 11 20 30l305 277q17 15 25.5 20.5t25.5 11t40 5.5h131q36 0 49 -6.5t24 -26.5l199 -285q13 -21 10.5 -31t-20.5 -24l-80 -66q-19 -15 -30.5 -14t-26.5 16l-228 217l-301 -217q-19 -11 -26.5 -14t-16.5 -1t-18 13l-70 70q-13 14 -12 25z M408 387q0 -70 27 -100.5t89 -30.5q50 0 85.5 16.5t58 52t35.5 77.5t24 106q14 79 14 123q0 67 -29.5 97t-95.5 30q-89 0 -130 -62t-64 -188q-14 -79 -14 -121z" />
<glyph unicode="&#xf5;" horiz-adv-x="1122" d="M84 365q0 57 16 155q10 53 22 98t34 99t49.5 97t70.5 85t94.5 70t123.5 45.5t157 17.5q114 0 196.5 -28t129.5 -79t68.5 -115.5t21.5 -145.5q0 -65 -14 -144q-8 -48 -16 -85t-21.5 -84t-29 -82.5t-39.5 -75.5t-52.5 -69t-68.5 -56.5t-87 -45t-108.5 -28t-132.5 -10.5 q-414 0 -414 381zM271 1200.5q-4 10.5 3 28.5q63 120 139.5 167.5t172.5 47.5q50 0 110 -23.5t113 -47t88 -23.5q65 0 115 73q14 18 25 20.5t28 -7.5l86 -60q15 -10 17 -18t-7 -27q-66 -118 -137.5 -162.5t-159.5 -44.5q-47 0 -154 52.5t-149 52.5q-38 0 -69.5 -19.5 t-71.5 -66.5q-26 -32 -58 -10l-79 53q-8 4 -12 14.5zM408 387q0 -70 27 -100.5t89 -30.5q50 0 85.5 16.5t58 52t35.5 77.5t24 106q14 79 14 123q0 67 -29.5 97t-95.5 30q-89 0 -130 -62t-64 -188q-14 -79 -14 -121z" />
<glyph unicode="&#xf6;" horiz-adv-x="1122" d="M84 365q0 57 16 155q10 53 22 98t34 99t49.5 97t70.5 85t94.5 70t123.5 45.5t157 17.5q114 0 196.5 -28t129.5 -79t68.5 -115.5t21.5 -145.5q0 -65 -14 -144q-8 -48 -16 -85t-21.5 -84t-29 -82.5t-39.5 -75.5t-52.5 -69t-68.5 -56.5t-87 -45t-108.5 -28t-132.5 -10.5 q-414 0 -414 381zM354 1210q0 195 185 195q70 0 101.5 -22.5t31.5 -67.5q0 -55 -16 -97t-60.5 -72t-114.5 -30q-127 0 -127 94zM408 387q0 -70 27 -100.5t89 -30.5q50 0 85.5 16.5t58 52t35.5 77.5t24 106q14 79 14 123q0 67 -29.5 97t-95.5 30q-89 0 -130 -62t-64 -188 q-14 -79 -14 -121zM782 1210q0 195 185 195q70 0 101.5 -22.5t31.5 -67.5q0 -87 -44 -143t-147 -56q-127 0 -127 94z" />
<glyph unicode="&#xf7;" d="M164 592l29 147q8 41 53 41h844q25 0 31 -9t1 -32l-28 -147q-5 -24 -16 -34.5t-36 -10.5h-843q-44 0 -35 45zM397 237.5q-2 28.5 6 59.5q13 72 56.5 112t136.5 40q95 0 121.5 -38t11.5 -114q-14 -74 -55.5 -116t-138.5 -42q-52 0 -83.5 13t-42 35t-12.5 50.5zM539 964.5 q-2 28.5 6 59.5q13 73 56 112.5t136 39.5q95 0 121.5 -37.5t13.5 -114.5q-14 -74 -56.5 -116t-137.5 -42q-52 0 -84 13t-42.5 35t-12.5 50.5z" />
<glyph unicode="&#xf8;" horiz-adv-x="1122" d="M36.5 31q2.5 10 18.5 28l82 82q-53 86 -53 224q0 57 16 155q10 53 22 98t34 99t49.5 97t70.5 85t94.5 70t123.5 45.5t157 17.5q189 0 295 -82l101 101q19 19 28 21t23 -11l32 -31q15 -14 14 -23t-20 -28l-106 -107q49 -83 49 -208q0 -65 -14 -144q-8 -48 -16 -85 t-21.5 -84t-29 -82.5t-39.5 -75.5t-52.5 -69t-68.5 -56.5t-87 -45t-108.5 -28t-132.5 -10.5q-187 0 -291 77l-76 -75q-17 -17 -26.5 -19.5t-26.5 10.5l-33 29q-11 15 -8.5 25zM408 412l309 309q-27 37 -101 37q-89 0 -130 -62t-64 -188q-12 -72 -14 -96zM432 287 q24 -31 92 -31q50 0 85.5 16.5t58 52t35.5 77.5t24 106q9 47 12 86z" />
<glyph unicode="&#xf9;" horiz-adv-x="1130" d="M61.5 212.5q2.5 46.5 7.5 80.5t15 88l115 586q10 45 51 45h231q45 0 35 -45l-102 -533q-15 -85 5 -119t85 -34q15 0 34 3t33.5 6.5t37.5 11.5t32.5 11.5t33 12.5t25.5 10l121 631q10 45 53 45h230q47 0 37 -45l-180 -922q-7 -45 -52 -45h-231q-40 0 -35 45l10 49l-4 2 q-80 -52 -173.5 -82t-166.5 -30q-60 0 -105 12t-73 30t-44 50t-22 61t-3.5 75.5zM373 1446q-34 43 4 65l137 84q25 14 40 10.5t32 -28.5l229 -379q22 -32 -8 -51l-84 -53q-36 -24 -59 2z" />
<glyph unicode="&#xfa;" horiz-adv-x="1130" d="M61.5 212.5q2.5 46.5 7.5 80.5t15 88l115 586q10 45 51 45h231q45 0 35 -45l-102 -533q-15 -85 5 -119t85 -34q15 0 34 3t33.5 6.5t37.5 11.5t32.5 11.5t33 12.5t25.5 10l121 631q10 45 53 45h230q47 0 37 -45l-180 -922q-7 -45 -52 -45h-231q-40 0 -35 45l10 49l-4 2 q-80 -52 -173.5 -82t-166.5 -30q-60 0 -105 12t-73 30t-44 50t-22 61t-3.5 75.5zM578 1212l258 355q30 41 63 20l137 -90q40 -22 0 -65l-303 -310q-30 -33 -55 -18l-96 59q-29 18 -4 49z" />
<glyph unicode="&#xfb;" horiz-adv-x="1130" d="M61.5 212.5q2.5 46.5 7.5 80.5t15 88l115 586q10 45 51 45h231q45 0 35 -45l-102 -533q-15 -85 5 -119t85 -34q15 0 34 3t33.5 6.5t37.5 11.5t32.5 11.5t33 12.5t25.5 10l121 631q10 45 53 45h230q47 0 37 -45l-180 -922q-7 -45 -52 -45h-231q-40 0 -35 45l10 49l-4 2 q-80 -52 -173.5 -82t-166.5 -30q-60 0 -105 12t-73 30t-44 50t-22 61t-3.5 75.5zM291 1176q1 11 20 30l305 277q17 15 25.5 20.5t25.5 11t40 5.5h131q36 0 49 -6.5t24 -26.5l199 -285q13 -21 10.5 -31t-20.5 -24l-80 -66q-19 -15 -30.5 -14t-26.5 16l-228 217l-301 -217 q-19 -11 -26.5 -14t-16.5 -1t-18 13l-70 70q-13 14 -12 25z" />
<glyph unicode="&#xfc;" horiz-adv-x="1130" d="M61.5 212.5q2.5 46.5 7.5 80.5t15 88l115 586q10 45 51 45h231q45 0 35 -45l-102 -533q-15 -85 5 -119t85 -34q15 0 34 3t33.5 6.5t37.5 11.5t32.5 11.5t33 12.5t25.5 10l121 631q10 45 53 45h230q47 0 37 -45l-180 -922q-7 -45 -52 -45h-231q-40 0 -35 45l10 49l-4 2 q-80 -52 -173.5 -82t-166.5 -30q-60 0 -105 12t-73 30t-44 50t-22 61t-3.5 75.5zM360 1210q0 195 185 195q70 0 101.5 -22.5t31.5 -67.5q0 -55 -16 -97t-60.5 -72t-114.5 -30q-127 0 -127 94zM788 1210q0 195 185 195q70 0 101.5 -22.5t31.5 -67.5q0 -87 -44 -143t-147 -56 q-127 0 -127 94z" />
<glyph unicode="&#xfd;" horiz-adv-x="1067" d="M74.5 -389.5q-5.5 11.5 11.5 39.5l213 377l-170 934q-5 26 5 38.5t38 12.5h209q22 0 31 -1.5t16.5 -11t9.5 -30.5l39 -291l29 -277h10l148 281q99 198 147 287q10 23 26.5 33t51.5 10h221q33 0 37 -14t-12 -40l-742 -1312q-18 -28 -33.5 -37.5t-48.5 -9.5h-200 q-31 0 -36.5 11.5zM565 1212l258 355q30 41 64 20l137 -90q40 -22 0 -65l-303 -310q-30 -33 -55 -18l-97 59q-29 18 -4 49z" />
<glyph unicode="&#xfe;" horiz-adv-x="1126" d="M-49 -356l321 1671q10 47 54 47h229q27 0 33.5 -9.5t3.5 -29.5l-76 -405q0 -3 2 -3q168 113 313 113q133 0 192 -74.5t62 -212.5q0 -48 -2 -75q-3 -103 -32 -242q-46 -222 -163 -333t-337 -111q-111 0 -213 30l-72 -366q-10 -45 -53 -45h-227q-44 0 -35 45zM387 274 q99 -22 164 -22q56 0 98 38.5t63 98t30.5 116t9.5 107.5q0 67 -17.5 94t-70.5 27q-76 0 -197 -57q-17 -80 -46.5 -231t-33.5 -171z" />
<glyph unicode="&#xff;" horiz-adv-x="1067" d="M74.5 -389.5q-5.5 11.5 11.5 39.5l213 377l-170 934q-5 26 5 38.5t38 12.5h209q22 0 31 -1.5t16.5 -11t9.5 -30.5l39 -291l29 -277h10l148 281q99 198 147 287q10 23 26.5 33t51.5 10h221q33 0 37 -14t-12 -40l-742 -1312q-18 -28 -33.5 -37.5t-48.5 -9.5h-200 q-31 0 -36.5 11.5zM322 1210q0 195 184 195q70 0 101.5 -22.5t31.5 -67.5q0 -40 -9.5 -73.5t-30 -63t-59 -46t-91.5 -16.5q-127 0 -127 94zM750 1210q0 195 184 195q70 0 101.5 -22.5t31.5 -67.5q0 -87 -43.5 -143t-146.5 -56q-127 0 -127 94z" />
<glyph unicode="&#x100;" horiz-adv-x="1263" d="M-60.5 9.5q-4.5 9.5 11.5 43.5l635 1250q17 32 35.5 45.5t56.5 13.5h258q39 0 51 -14t17 -48l167 -1251q2 -26 -4.5 -37.5t-27.5 -11.5h-244q-32 0 -43 14t-14 49l-21 244h-407l-123 -250q-27 -57 -82 -57h-236q-25 0 -29.5 9.5zM473 1499l27 148q8 43 53 43h623 q25 0 31 -9t3 -32l-30 -150q-5 -24 -15.5 -33.5t-34.5 -9.5h-622q-46 0 -35 43zM528 557h267l-19 225l-16 250h-10l-117 -248z" />
<glyph unicode="&#x101;" horiz-adv-x="1148" d="M70 274q0 84 24 218q20 102 43 177.5t60.5 144t86.5 111.5t119 68t160 25q54 0 124 -19t126 -51l8 33q4 20 14 26.5t31 6.5h228q27 0 33 -10.5t1 -36.5l-176 -922q-2 -18 -14 -31.5t-37 -13.5h-231q-25 0 -31.5 10.5t-1.5 32.5l10 51l-2 2q-172 -112 -311 -112 q-145 0 -204.5 74t-59.5 216zM365 1204l28 148q8 43 53 43h623q24 0 31 -9t2 -32l-31 -150q-3 -24 -13 -34.5t-34 -10.5h-625q-43 0 -34 45zM403 379q0 -63 21 -85t70 -22q65 0 198 60l72 368q-89 29 -154 29q-83 -1 -125 -51t-65 -174q-17 -87 -17 -125z" />
<glyph unicode="&#x102;" horiz-adv-x="1263" d="M-60.5 9.5q-4.5 9.5 11.5 43.5l635 1250q17 32 35.5 45.5t56.5 13.5h258q39 0 51 -14t17 -48l167 -1251q2 -26 -4.5 -37.5t-27.5 -11.5h-244q-32 0 -43 14t-14 49l-21 244h-407l-123 -250q-27 -57 -82 -57h-236q-25 0 -29.5 9.5zM434.5 1693.5q2.5 24.5 28.5 41.5l86 57 q24 15 38 12.5t31 -28.5q84 -131 220 -131q133 0 268 135q25 25 40.5 28t35.5 -12l73 -55q17 -12 17.5 -27.5t-8 -30t-27.5 -38.5q-83 -112 -194 -170t-220 -58q-126 0 -232 58.5t-147 169.5q-12 24 -9.5 48.5zM528 557h267l-19 225l-16 250h-10l-117 -248z" />
<glyph unicode="&#x103;" horiz-adv-x="1148" d="M70 274q0 84 24 218q20 102 43 177.5t60.5 144t86.5 111.5t119 68t160 25q54 0 124 -19t126 -51l8 33q4 20 14 26.5t31 6.5h228q27 0 33 -10.5t1 -36.5l-176 -922q-2 -18 -14 -31.5t-37 -13.5h-231q-25 0 -31.5 10.5t-1.5 32.5l10 51l-2 2q-172 -112 -311 -112 q-145 0 -204.5 74t-59.5 216zM328.5 1369.5q1.5 24.5 27.5 41.5l88 57q23 16 38 13t30 -29q87 -131 221 -131q131 0 266 135q26 26 40 29.5t38 -12.5l76 -58q17 -11 17.5 -26.5t-8 -30.5t-27.5 -39q-82 -112 -193.5 -168.5t-222.5 -56.5q-125 0 -232.5 58.5t-146.5 168.5 q-13 24 -11.5 48.5zM403 379q0 -63 21 -85t70 -22q65 0 198 60l72 368q-89 29 -154 29q-83 -1 -125 -51t-65 -174q-17 -87 -17 -125z" />
<glyph unicode="&#x104;" horiz-adv-x="1263" d="M-60.5 9.5q-4.5 9.5 11.5 43.5l635 1250q17 32 35.5 45.5t56.5 13.5h258q39 0 51 -14t17 -48l167 -1251q2 -26 -4.5 -37.5t-27.5 -11.5h-74q-82 -101 -82 -182q0 -51 74 -51q58 0 117 16q12 4 18.5 1.5t9.5 -15.5l12 -80q0 -20 -7.5 -29t-24.5 -16q-99 -45 -211 -45 q-97 0 -149 46t-52 122q0 65 26 120t83 113q-22 4 -30.5 18.5t-10.5 44.5l-21 244h-407l-123 -250q-27 -57 -82 -57h-236q-25 0 -29.5 9.5zM528 557h267l-19 225l-16 250h-10l-117 -248z" />
<glyph unicode="&#x105;" horiz-adv-x="1148" d="M70 274q0 84 24 218q20 102 43 177.5t60.5 144t86.5 111.5t119 68t160 25q54 0 124 -19t126 -51l8 33q4 20 14 26.5t31 6.5h228q27 0 33 -10.5t1 -36.5l-176 -922q-2 -18 -14 -31.5t-37 -13.5h-49q-82 -101 -82 -182q0 -51 74 -51q58 0 117 16q12 4 18.5 1.5t9.5 -15.5 l12 -80q0 -20 -7.5 -29t-24.5 -16q-99 -45 -211 -45q-97 0 -149 46t-52 122q0 65 26 120t83 113q-22 0 -28 10.5t-1 32.5l10 51l-2 2q-172 -112 -311 -112q-145 0 -204.5 74t-59.5 216zM403 379q0 -63 21 -85t70 -22q65 0 198 60l72 368q-89 29 -154 29q-83 -1 -125 -51 t-65 -174q-17 -87 -17 -125z" />
<glyph unicode="&#x106;" horiz-adv-x="1212" d="M147 475q0 72 19 201q18 114 46.5 207.5t83.5 188t129.5 159t189.5 105t259 40.5q248 0 381 -65q16 -8 26 -14.5t16.5 -17t5.5 -25.5t-9 -35l-51 -121q-11 -29 -26 -37t-52 -4q-249 22 -297 22q-82 0 -143.5 -29.5t-101.5 -86t-64 -123.5t-41 -158q-21 -105 -18 -184 q3 -113 56 -167.5t169 -54.5q111 0 311 21q40 3 54.5 -4t17.5 -37l4 -113q4 -36 -14.5 -57.5t-55.5 -36.5q-82 -33 -192 -51t-211 -18q-499 0 -492 495zM774 1548q-15 27 23 49l377 220q43 22 59 -11l63 -157q9 -17 1 -34t-31 -26l-392 -157q-16 -8 -30.5 -7t-24.5 17z" />
<glyph unicode="&#x107;" horiz-adv-x="976" d="M82 338q0 96 20 201q16 88 38 154.5t63.5 133t99 109.5t147.5 69.5t207 26.5q191 0 306 -53q51 -22 26 -78l-39 -127q-8 -23 -16 -30.5t-24 -8.5t-44 2q-154 15 -204 15q-101 0 -157 -55.5t-79 -180.5q-10 -75 -10 -113q0 -77 37 -110t118 -33q94 0 238 16q32 7 46.5 1 t14.5 -37v-117q0 -39 -12.5 -57t-60.5 -37q-63 -21 -153.5 -34t-166.5 -13q-114 0 -194.5 28.5t-122.5 80t-60 111.5t-18 136zM506 1212l258 355q30 41 63 20l138 -90q40 -22 0 -65l-303 -310q-30 -34 -56 -18l-96 59q-29 18 -4 49z" />
<glyph unicode="&#x108;" horiz-adv-x="1212" d="M147 475q0 72 19 201q18 114 46.5 207.5t83.5 188t129.5 159t189.5 105t259 40.5q248 0 381 -65q16 -8 26 -14.5t16.5 -17t5.5 -25.5t-9 -35l-51 -121q-11 -29 -26 -37t-52 -4q-249 22 -297 22q-82 0 -143.5 -29.5t-101.5 -86t-64 -123.5t-41 -158q-21 -105 -18 -184 q3 -113 56 -167.5t169 -54.5q111 0 311 21q40 3 54.5 -4t17.5 -37l4 -113q4 -36 -14.5 -57.5t-55.5 -36.5q-82 -33 -192 -51t-211 -18q-499 0 -492 495zM485 1504q1 11 21 30l307 248q23 21 39 29t49 8h131q35 0 48 -6t26 -25l205 -254q13 -19 10 -30t-23 -27l-69 -62 q-22 -14 -32 -12.5t-26 16.5l-231 187l-317 -195q-19 -12 -28 -15.5t-17.5 -1.5t-16.5 13l-65 72q-12 14 -11 25z" />
<glyph unicode="&#x109;" horiz-adv-x="976" d="M82 338q0 96 20 201q16 88 38 154.5t63.5 133t99 109.5t147.5 69.5t207 26.5q191 0 306 -53q51 -22 26 -78l-39 -127q-8 -23 -16 -30.5t-24 -8.5t-44 2q-154 15 -204 15q-101 0 -157 -55.5t-79 -180.5q-10 -75 -10 -113q0 -77 37 -110t118 -33q94 0 238 16q32 7 46.5 1 t14.5 -37v-117q0 -39 -12.5 -57t-60.5 -37q-63 -21 -153.5 -34t-166.5 -13q-114 0 -194.5 28.5t-122.5 80t-60 111.5t-18 136zM258.5 1176q1.5 11 20.5 30l305 277q18 15 25.5 20.5t24.5 11t40 5.5h131q36 0 49.5 -6.5t24.5 -26.5l198 -285q13 -21 10.5 -31t-20.5 -24 l-80 -66q-19 -15 -30.5 -14t-26.5 16l-228 217l-301 -217q-19 -11 -26.5 -14t-16.5 -1t-18 13l-70 70q-13 14 -11.5 25z" />
<glyph unicode="&#x10a;" horiz-adv-x="1212" d="M147 475q0 72 19 201q18 114 46.5 207.5t83.5 188t129.5 159t189.5 105t259 40.5q248 0 381 -65q16 -8 26 -14.5t16.5 -17t5.5 -25.5t-9 -35l-51 -121q-11 -29 -26 -37t-52 -4q-249 22 -297 22q-82 0 -143.5 -29.5t-101.5 -86t-64 -123.5t-41 -158q-21 -105 -18 -184 q3 -113 56 -167.5t169 -54.5q111 0 311 21q40 3 54.5 -4t17.5 -37l4 -113q4 -36 -14.5 -57.5t-55.5 -36.5q-82 -33 -192 -51t-211 -18q-499 0 -492 495zM762 1565q0 89 47 146.5t152 57.5q74 0 106.5 -25.5t32.5 -76.5q0 -38 -9 -71.5t-30 -65.5t-62.5 -51t-99.5 -19 q-137 0 -137 105z" />
<glyph unicode="&#x10b;" horiz-adv-x="976" d="M82 338q0 96 20 201q16 88 38 154.5t63.5 133t99 109.5t147.5 69.5t207 26.5q191 0 306 -53q51 -22 26 -78l-39 -127q-8 -23 -16 -30.5t-24 -8.5t-44 2q-154 15 -204 15q-101 0 -157 -55.5t-79 -180.5q-10 -75 -10 -113q0 -77 37 -110t118 -33q94 0 238 16q32 7 46.5 1 t14.5 -37v-117q0 -39 -12.5 -57t-60.5 -37q-63 -21 -153.5 -34t-166.5 -13q-114 0 -194.5 28.5t-122.5 80t-60 111.5t-18 136zM561 1233q0 89 47 147t152 58q74 0 106.5 -26t32.5 -77q0 -38 -9 -71.5t-30 -65.5t-62.5 -51t-99.5 -19q-137 0 -137 105z" />
<glyph unicode="&#x10c;" horiz-adv-x="1212" d="M147 475q0 72 19 201q18 114 46.5 207.5t83.5 188t129.5 159t189.5 105t259 40.5q248 0 381 -65q16 -8 26 -14.5t16.5 -17t5.5 -25.5t-9 -35l-51 -121q-11 -29 -26 -37t-52 -4q-249 22 -297 22q-82 0 -143.5 -29.5t-101.5 -86t-64 -123.5t-41 -158q-21 -105 -18 -184 q3 -113 56 -167.5t169 -54.5q111 0 311 21q40 3 54.5 -4t17.5 -37l4 -113q4 -36 -14.5 -57.5t-55.5 -36.5q-82 -33 -192 -51t-211 -18q-499 0 -492 495zM538 1747.5q2 11.5 21 26.5l78 63q21 15 32.5 14t26.5 -16l217 -203l310 203q27 16 37.5 17t25.5 -15l70 -70 q13 -12 12 -24t-22 -31l-306 -260q-21 -21 -37.5 -29t-50.5 -8h-131q-37 0 -49 6t-24 25l-199 270q-13 20 -11 31.5z" />
<glyph unicode="&#x10d;" horiz-adv-x="976" d="M82 338q0 96 20 201q16 88 38 154.5t63.5 133t99 109.5t147.5 69.5t207 26.5q191 0 306 -53q51 -22 26 -78l-39 -127q-8 -23 -16 -30.5t-24 -8.5t-44 2q-154 15 -204 15q-101 0 -157 -55.5t-79 -180.5q-10 -75 -10 -113q0 -77 37 -110t118 -33q94 0 238 16q32 7 46.5 1 t14.5 -37v-117q0 -39 -12.5 -57t-60.5 -37q-63 -21 -153.5 -34t-166.5 -13q-114 0 -194.5 28.5t-122.5 80t-60 111.5t-18 136zM307 1429q3 11 21 25l80 66q19 15 30.5 14t26.5 -16l217 -220l311 218q26 17 36 18.5t26 -14.5l69 -70q13 -14 12 -25t-20 -30l-305 -277 q-23 -22 -39.5 -29.5t-50.5 -7.5h-131q-36 0 -49.5 6.5t-24.5 26.5l-199 285q-13 19 -10 30z" />
<glyph unicode="&#x10e;" horiz-adv-x="1345" d="M61 33v10l2 2l246 1270q10 43 56 43h428q137 0 235 -34.5t154 -100t81 -149.5t25 -195q0 -91 -16 -197q-20 -125 -49 -221.5t-82.5 -186t-127.5 -147.5t-185 -92.5t-253 -34.5h-473q-41 0 -41 33zM407 1747.5q2 11.5 21 26.5l78 63q21 15 32.5 14t26.5 -16l217 -203 l310 203q27 16 37.5 17t25.5 -15l70 -70q13 -13 11.5 -24.5t-22.5 -30.5l-305 -260q-21 -21 -37.5 -29t-50.5 -8h-131q-37 0 -50 6t-24 25l-198 270q-13 20 -11 31.5zM438 276h131q155 0 245 95t120 297q16 102 16 157q0 256 -227 256h-129q-74 -377 -156 -805z" />
<glyph unicode="&#x10f;" horiz-adv-x="1519" d="M72 279q2 111 43 311q25 109 60 186t92 137.5t142.5 90.5t202.5 30q113 0 213 -33v3l9 45l69 350q5 23 16 35t35 12h230q37 0 37 -31q0 -10 -2 -16l-265 -1354q-4 -45 -51 -45h-231q-35 0 -35 27q0 10 2 16q1 8 5 25.5t5 25.5h-4q-171 -110 -309 -110q-146 0 -206.5 76 t-57.5 219zM406 373q0 -60 21 -80.5t67 -20.5q67 0 200 60l78 405q-76 21 -123 21q-90 0 -135 -34t-76 -140q-32 -118 -32 -211zM1253.5 1024q3.5 12 36.5 43q82 70 82 141q0 53 -35 103q-22 26 -18 48t43 48l151 100q23 16 40 17.5t28.5 -6.5t28.5 -27q51 -59 51 -168 q0 -66 -25 -130.5t-66.5 -115t-88 -90t-95.5 -65.5q-48 -25 -75 10l-43 55q-18 25 -14.5 37z" />
<glyph unicode="&#x110;" horiz-adv-x="1345" d="M61 33v10l2 2l107 553h-55q-35 0 -35 27v10q19 87 26 115q5 19 16 27.5t34 8.5h51q53 282 102 529q10 43 56 43h428q137 0 235 -34.5t154 -100t81 -149.5t25 -195q0 -91 -16 -197q-20 -125 -49 -221.5t-82.5 -186t-127.5 -147.5t-185 -92.5t-253 -34.5h-473q-41 0 -41 33 zM438 276h131q155 0 245 95t120 297q16 102 16 157q0 256 -227 256h-129l-59 -295h233q35 0 35 -22q0 -8 -2 -14q-16 -76 -27 -115q-5 -21 -14 -29t-33 -8h-227z" />
<glyph unicode="&#x111;" horiz-adv-x="1157" d="M70 258q0 142 43 311q25 103 60 175t91.5 125.5t140 79.5t197.5 26q108 0 211 -33l2 2l29 152h-256q-29 0 -29 18q0 10 2 16l21 95q4 21 11.5 26.5t29.5 5.5h251l29 142q10 47 53 47h228q43 0 35 -47l-29 -142h82q19 0 23 -7.5t1 -26.5l-20 -95q-5 -19 -11.5 -25.5 t-25.5 -6.5h-80l-205 -1051q-9 -45 -51 -45h-235q-38 0 -31 31l12 63l-2 2q-170 -112 -311 -112q-145 0 -205.5 68.5t-60.5 205.5zM403 371q0 -56 22 -77.5t69 -21.5q67 0 200 60l68 346q-81 22 -150 22q-82 0 -127 -51t-71 -176q-11 -68 -11 -102z" />
<glyph unicode="&#x112;" horiz-adv-x="1138" d="M61 45l248 1270q10 47 56 47h806q20 0 29 -12.5t4 -32.5l-37 -193q-7 -43 -51 -43h-522l-45 -237h455q44 0 34 -45l-37 -193q-7 -41 -51 -41h-454l-56 -286h537q42 0 35 -46l-37 -192q-5 -21 -16 -31t-35 -10h-824q-46 0 -39 45zM451 1499l26 148q8 43 53 43h623 q25 0 31.5 -9t3.5 -32l-31 -150q-5 -24 -15 -33.5t-34 -9.5h-623q-24 0 -32 10t-2 33z" />
<glyph unicode="&#x113;" horiz-adv-x="1085" d="M70 326q0 120 39 262q18 69 43 126t70 117t104 101t149 67.5t201 26.5q100 0 180.5 -29t132 -92.5t51.5 -152.5q0 -358 -639 -383q-8 -21 -8 -52q0 -23 9 -38.5t21.5 -24t37.5 -12.5t45 -5t55 -1q115 0 285 18q15 2 26 1t18 -9.5t7 -26.5v-98q0 -41 -13.5 -57.5 t-58.5 -34.5q-63 -23 -165.5 -35t-198.5 -12q-184 0 -287.5 83t-103.5 261zM342 1204l29 148q8 43 53 43h623q24 0 30.5 -9t1.5 -32l-30 -150q-3 -24 -13.5 -34.5t-34.5 -10.5h-624q-44 0 -35 45zM432 573q277 18 277 142q0 30 -24.5 47.5t-66.5 17.5q-35 0 -63.5 -13.5 t-46.5 -31.5t-34 -49t-24 -54.5t-18 -58.5z" />
<glyph unicode="&#x114;" horiz-adv-x="1138" d="M61 45l248 1270q10 47 56 47h806q20 0 29 -12.5t4 -32.5l-37 -193q-7 -43 -51 -43h-522l-45 -237h455q44 0 34 -45l-37 -193q-7 -41 -51 -41h-454l-56 -286h537q42 0 35 -46l-37 -192q-5 -21 -16 -31t-35 -10h-824q-46 0 -39 45zM398 1693.5q2 24.5 28 41.5l86 57 q24 16 38.5 13t31.5 -29q84 -131 219 -131q133 0 268 135q25 25 40.5 28t35.5 -12l74 -55q17 -12 17.5 -28t-8 -29.5t-28.5 -38.5q-83 -112 -194 -170t-220 -58q-126 0 -231.5 58.5t-146.5 169.5q-12 24 -10 48.5z" />
<glyph unicode="&#x115;" horiz-adv-x="1085" d="M70 326q0 120 39 262q18 69 43 126t70 117t104 101t149 67.5t201 26.5q100 0 180.5 -29t132 -92.5t51.5 -152.5q0 -358 -639 -383q-8 -21 -8 -52q0 -23 9 -38.5t21.5 -24t37.5 -12.5t45 -5t55 -1q115 0 285 18q15 2 26 1t18 -9.5t7 -26.5v-98q0 -41 -13.5 -57.5 t-58.5 -34.5q-63 -23 -165.5 -35t-198.5 -12q-184 0 -287.5 83t-103.5 261zM310.5 1369.5q1.5 24.5 27.5 41.5l88 57q23 16 38 13t30 -29q87 -131 221 -131q131 0 266 135q26 26 40 29.5t38 -12.5l76 -58q17 -11 17.5 -27t-8.5 -30.5t-28 -38.5q-82 -112 -193.5 -168.5 t-222.5 -56.5q-125 0 -232 58.5t-146 168.5q-13 24 -11.5 48.5zM432 573q277 18 277 142q0 30 -24.5 47.5t-66.5 17.5q-35 0 -63.5 -13.5t-46.5 -31.5t-34 -49t-24 -54.5t-18 -58.5z" />
<glyph unicode="&#x116;" horiz-adv-x="1138" d="M61 45l248 1270q10 47 56 47h806q20 0 29 -12.5t4 -32.5l-37 -193q-7 -43 -51 -43h-522l-45 -237h455q44 0 34 -45l-37 -193q-7 -41 -51 -41h-454l-56 -286h537q42 0 35 -46l-37 -192q-5 -21 -16 -31t-35 -10h-824q-46 0 -39 45zM651 1540q0 89 47 147t152 58 q74 0 106.5 -26t32.5 -77q0 -30 -5 -57t-19 -55t-36 -48t-58 -33t-83 -13q-137 0 -137 104z" />
<glyph unicode="&#x117;" horiz-adv-x="1085" d="M70 326q0 120 39 262q18 69 43 126t70 117t104 101t149 67.5t201 26.5q100 0 180.5 -29t132 -92.5t51.5 -152.5q0 -358 -639 -383q-8 -21 -8 -52q0 -23 9 -38.5t21.5 -24t37.5 -12.5t45 -5t55 -1q115 0 285 18q15 2 26 1t18 -9.5t7 -26.5v-98q0 -41 -13.5 -57.5 t-58.5 -34.5q-63 -23 -165.5 -35t-198.5 -12q-184 0 -287.5 83t-103.5 261zM432 573q277 18 277 142q0 30 -24.5 47.5t-66.5 17.5q-35 0 -63.5 -13.5t-46.5 -31.5t-34 -49t-24 -54.5t-18 -58.5zM575 1233q0 89 47 147t152 58q74 0 106.5 -26t32.5 -77q0 -38 -9 -71.5 t-30 -65.5t-62 -51t-99 -19q-138 0 -138 105z" />
<glyph unicode="&#x118;" horiz-adv-x="1138" d="M61 45l248 1270q10 47 56 47h806q20 0 29 -12.5t4 -32.5l-37 -193q-7 -43 -51 -43h-522l-45 -237h455q44 0 34 -45l-37 -193q-7 -41 -51 -41h-454l-56 -286h537q42 0 35 -46l-37 -192q-5 -21 -16 -31t-35 -10h-43q-82 -101 -82 -182q0 -51 73 -51q58 0 117 16 q25 6 29 -14l12 -80q0 -20 -8 -29t-25 -16q-99 -45 -211 -45q-97 0 -148.5 46t-51.5 122q0 65 26 120t82 113h-594q-46 0 -39 45z" />
<glyph unicode="&#x119;" horiz-adv-x="1085" d="M70 326q0 120 39 262q18 69 43 126t70 117t104 101t149 67.5t201 26.5q100 0 180.5 -29t132 -92.5t51.5 -152.5q0 -358 -639 -383q-8 -21 -8 -52q0 -23 9 -38.5t21.5 -24t37.5 -12.5t45 -5t55 -1q115 0 285 18q15 2 26 1t18 -9.5t7 -26.5v-98q0 -41 -13.5 -57.5 t-58.5 -34.5q-25 -10 -30 -11q-99 -113 -99 -200q0 -51 74 -51q58 0 117 16q12 4 18.5 1.5t9.5 -15.5l13 -80q0 -20 -8 -29t-25 -16q-99 -45 -211 -45q-97 0 -149 46t-52 122q0 113 97 219q-86 -4 -119 -4q-184 0 -287.5 83t-103.5 261zM432 573q277 18 277 142 q0 30 -24.5 47.5t-66.5 17.5q-35 0 -63.5 -13.5t-46.5 -31.5t-34 -49t-24 -54.5t-18 -58.5z" />
<glyph unicode="&#x11a;" horiz-adv-x="1138" d="M61 45l248 1270q10 47 56 47h806q20 0 29 -12.5t4 -32.5l-37 -193q-7 -43 -51 -43h-522l-45 -237h455q44 0 34 -45l-37 -193q-7 -41 -51 -41h-454l-56 -286h537q42 0 35 -46l-37 -192q-5 -21 -16 -31t-35 -10h-824q-46 0 -39 45zM435.5 1748q2.5 11 21.5 26l78 63 q21 15 32.5 14t26.5 -16l217 -203l309 203q27 16 38 17t26 -15l69 -70q13 -12 12 -24t-22 -31l-305 -260q-21 -21 -37.5 -29t-50.5 -8h-131q-37 0 -50 6t-24 25l-199 270q-13 21 -10.5 32z" />
<glyph unicode="&#x11b;" horiz-adv-x="1085" d="M70 326q0 120 39 262q18 69 43 126t70 117t104 101t149 67.5t201 26.5q100 0 180.5 -29t132 -92.5t51.5 -152.5q0 -358 -639 -383q-8 -21 -8 -52q0 -23 9 -38.5t21.5 -24t37.5 -12.5t45 -5t55 -1q115 0 285 18q15 2 26 1t18 -9.5t7 -26.5v-98q0 -41 -13.5 -57.5 t-58.5 -34.5q-63 -23 -165.5 -35t-198.5 -12q-184 0 -287.5 83t-103.5 261zM362.5 1429q2.5 11 20.5 25l80 66q19 15 30.5 14t26.5 -16l217 -220l312 218q26 17 35.5 18.5t25.5 -14.5l70 -70q13 -14 11.5 -25t-20.5 -30l-305 -277q-23 -22 -39.5 -29.5t-50.5 -7.5h-131 q-36 0 -49.5 6.5t-24.5 26.5l-198 285q-13 19 -10.5 30zM432 573q277 18 277 142q0 30 -24.5 47.5t-66.5 17.5q-35 0 -63.5 -13.5t-46.5 -31.5t-34 -49t-24 -54.5t-18 -58.5z" />
<glyph unicode="&#x11c;" horiz-adv-x="1314" d="M145 473q0 81 21 203q18 114 47.5 209t85 188.5t131.5 158t191 104.5t258 40q99 0 208 -16.5t175 -48.5q22 -10 32 -19.5t14 -28t-10 -44.5l-49 -121q-11 -29 -26 -37t-52 -4q-249 22 -299 22q-81 0 -142.5 -29t-102.5 -85t-66.5 -124t-42.5 -159q-21 -120 -18 -184 q1 -58 9.5 -96.5t30 -69.5t61.5 -45.5t101 -14.5q67 0 148 15l45 235h-137q-26 0 -33 10.5t-4 32.5l35 176q7 45 53 45h410q21 0 31 -12t7 -33l-114 -581q-9 -42 -26.5 -68.5t-57.5 -42.5q-191 -69 -449 -69q-114 0 -198.5 26.5t-135 70t-81 109t-41 133.5t-9.5 154z M491 1504q1 11 21 30l307 248q23 21 39 29t49 8h131q35 0 48 -6t26 -25l205 -254q13 -19 10 -30t-22 -27l-70 -62q-22 -14 -31 -12.5t-26 16.5l-232 187l-317 -195q-19 -12 -28 -15.5t-17.5 -1.5t-16.5 13l-65 72q-12 14 -11 25z" />
<glyph unicode="&#x11d;" horiz-adv-x="1124" d="M14 -326q0 14 6 29l48 117q14 34 31.5 40.5t45.5 -1.5q135 -23 273 -23q74 0 115 15t59 42.5t33 83.5l14 54l-2 2q-106 -33 -207 -33q-99 0 -167.5 22.5t-107 66.5t-55 100.5t-16.5 134.5q0 143 37 278q27 101 68.5 176.5t107 134.5t163 89t224.5 30q106 0 214 -16 t177 -45q24 -9 35 -26.5t10 -36t-4 -40.5l-155 -805q-15 -72 -25 -114t-31 -101.5t-46 -93.5t-66.5 -73.5t-94.5 -60t-129.5 -34.5t-171.5 -14q-85 -1 -178.5 13t-148.5 36q-31 12 -43.5 24t-12.5 29zM334 1176q1 11 20 30l305 277q17 15 25.5 20.5t25.5 11t40 5.5h131 q36 0 49 -6.5t24 -26.5l199 -285q13 -21 10.5 -31t-20.5 -24l-80 -66q-19 -15 -30.5 -14t-26.5 16l-228 217l-301 -217q-19 -11 -26.5 -14t-16.5 -1t-18 13l-70 70q-13 14 -12 25zM418 401q0 -70 29 -97.5t88 -27.5q66 0 155 21l86 446q-86 11 -127 11q-81 0 -133.5 -43 t-79.5 -166q-18 -85 -18 -144z" />
<glyph unicode="&#x11e;" horiz-adv-x="1314" d="M145 473q0 81 21 203q18 114 47.5 209t85 188.5t131.5 158t191 104.5t258 40q99 0 208 -16.5t175 -48.5q22 -10 32 -19.5t14 -28t-10 -44.5l-49 -121q-11 -29 -26 -37t-52 -4q-249 22 -299 22q-81 0 -142.5 -29t-102.5 -85t-66.5 -124t-42.5 -159q-21 -120 -18 -184 q1 -58 9.5 -96.5t30 -69.5t61.5 -45.5t101 -14.5q67 0 148 15l45 235h-137q-26 0 -33 10.5t-4 32.5l35 176q7 45 53 45h410q21 0 31 -12t7 -33l-114 -581q-9 -42 -26.5 -68.5t-57.5 -42.5q-191 -69 -449 -69q-114 0 -198.5 26.5t-135 70t-81 109t-41 133.5t-9.5 154z M527 1693.5q2 24.5 28 41.5l86 57q24 16 38.5 13t31.5 -29q84 -131 219 -131q133 0 268 135q25 25 40.5 28t35.5 -12l74 -55q17 -12 17.5 -28t-8 -29.5t-28.5 -38.5q-83 -112 -194 -170t-220 -58q-126 0 -231.5 58.5t-146.5 169.5q-12 24 -10 48.5z" />
<glyph unicode="&#x11f;" horiz-adv-x="1124" d="M14 -326q0 14 6 29l48 117q14 34 31.5 40.5t45.5 -1.5q135 -23 273 -23q74 0 115 15t59 42.5t33 83.5l14 54l-2 2q-106 -33 -207 -33q-99 0 -167.5 22.5t-107 66.5t-55 100.5t-16.5 134.5q0 143 37 278q27 101 68.5 176.5t107 134.5t163 89t224.5 30q106 0 214 -16 t177 -45q24 -9 35 -26.5t10 -36t-4 -40.5l-155 -805q-15 -72 -25 -114t-31 -101.5t-46 -93.5t-66.5 -73.5t-94.5 -60t-129.5 -34.5t-171.5 -14q-85 -1 -178.5 13t-148.5 36q-31 12 -43.5 24t-12.5 29zM328.5 1369.5q1.5 24.5 27.5 41.5l88 57q23 16 38 13t30 -29 q87 -131 221 -131q131 0 266 135q26 26 40 29.5t38 -12.5l76 -58q17 -11 17.5 -26.5t-8 -30.5t-27.5 -39q-82 -112 -193.5 -168.5t-222.5 -56.5q-125 0 -232.5 58.5t-146.5 168.5q-13 24 -11.5 48.5zM418 401q0 -70 29 -97.5t88 -27.5q66 0 155 21l86 446q-86 11 -127 11 q-81 0 -133.5 -43t-79.5 -166q-18 -85 -18 -144z" />
<glyph unicode="&#x120;" horiz-adv-x="1314" d="M145 473q0 81 21 203q18 114 47.5 209t85 188.5t131.5 158t191 104.5t258 40q99 0 208 -16.5t175 -48.5q22 -10 32 -19.5t14 -28t-10 -44.5l-49 -121q-11 -29 -26 -37t-52 -4q-249 22 -299 22q-81 0 -142.5 -29t-102.5 -85t-66.5 -124t-42.5 -159q-21 -120 -18 -184 q1 -58 9.5 -96.5t30 -69.5t61.5 -45.5t101 -14.5q67 0 148 15l45 235h-137q-26 0 -33 10.5t-4 32.5l35 176q7 45 53 45h410q21 0 31 -12t7 -33l-114 -581q-9 -42 -26.5 -68.5t-57.5 -42.5q-191 -69 -449 -69q-114 0 -198.5 26.5t-135 70t-81 109t-41 133.5t-9.5 154z M778 1540q0 89 47 147t152 58q74 0 106.5 -26t32.5 -77q0 -30 -5 -57t-19 -55t-36 -48t-58 -33t-83 -13q-137 0 -137 104z" />
<glyph unicode="&#x121;" horiz-adv-x="1124" d="M14 -326q0 14 6 29l48 117q14 34 31.5 40.5t45.5 -1.5q135 -23 273 -23q74 0 115 15t59 42.5t33 83.5l14 54l-2 2q-106 -33 -207 -33q-99 0 -167.5 22.5t-107 66.5t-55 100.5t-16.5 134.5q0 143 37 278q27 101 68.5 176.5t107 134.5t163 89t224.5 30q106 0 214 -16 t177 -45q24 -9 35 -26.5t10 -36t-4 -40.5l-155 -805q-15 -72 -25 -114t-31 -101.5t-46 -93.5t-66.5 -73.5t-94.5 -60t-129.5 -34.5t-171.5 -14q-85 -1 -178.5 13t-148.5 36q-31 12 -43.5 24t-12.5 29zM418 401q0 -70 29 -97.5t88 -27.5q66 0 155 21l86 446q-86 11 -127 11 q-81 0 -133.5 -43t-79.5 -166q-18 -85 -18 -144zM592 1233q0 89 47 147t152 58q74 0 106.5 -26t32.5 -77q0 -38 -9 -71.5t-30 -65.5t-62.5 -51t-99.5 -19q-137 0 -137 105z" />
<glyph unicode="&#x122;" horiz-adv-x="1314" d="M145 473q0 81 21 203q18 114 47.5 209t85 188.5t131.5 158t191 104.5t258 40q99 0 208 -16.5t175 -48.5q22 -10 32 -19.5t14 -28t-10 -44.5l-49 -121q-11 -29 -26 -37t-52 -4q-249 22 -299 22q-81 0 -142.5 -29t-102.5 -85t-66.5 -124t-42.5 -159q-21 -120 -18 -184 q1 -58 9.5 -96.5t30 -69.5t61.5 -45.5t101 -14.5q67 0 148 15l45 235h-137q-26 0 -33 10.5t-4 32.5l35 176q7 45 53 45h410q21 0 31 -12t7 -33l-114 -581q-9 -42 -26.5 -68.5t-57.5 -42.5q-191 -69 -449 -69q-114 0 -198.5 26.5t-135 70t-81 109t-41 133.5t-9.5 154z M354.5 -577.5q3.5 10.5 36.5 42.5q82 70 82 142q0 52 -35 102q-22 26 -18 48t43 48l151 101q23 16 40.5 17t28.5 -7t28 -27q51 -59 51 -168q0 -66 -25 -130.5t-66.5 -115t-88 -90t-95.5 -65.5q-48 -25 -75 10l-43 56q-18 26 -14.5 36.5z" />
<glyph unicode="&#x123;" horiz-adv-x="1124" d="M14 -326q0 14 6 29l48 117q14 34 31.5 40.5t45.5 -1.5q135 -23 273 -23q74 0 115 15t59 42.5t33 83.5l14 54l-2 2q-106 -33 -207 -33q-99 0 -167.5 22.5t-107 66.5t-55 100.5t-16.5 134.5q0 143 37 278q27 101 68.5 176.5t107 134.5t163 89t224.5 30q106 0 214 -16 t177 -45q24 -9 35 -26.5t10 -36t-4 -40.5l-155 -805q-15 -72 -25 -114t-31 -101.5t-46 -93.5t-66.5 -73.5t-94.5 -60t-129.5 -34.5t-171.5 -14q-85 -1 -178.5 13t-148.5 36q-31 12 -43.5 24t-12.5 29zM418 401q0 -70 29 -97.5t88 -27.5q66 0 155 21l86 446q-86 11 -127 11 q-81 0 -133.5 -43t-79.5 -166q-18 -85 -18 -144zM627 1311q0 134 83.5 248.5t194.5 175.5q21 12 38.5 10t31.5 -23l43 -55q14 -18 14.5 -28.5t-14.5 -26.5q-56 -58 -79.5 -97t-23.5 -77q0 -39 35 -99q24 -27 20 -44.5t-36 -39.5l-156 -108q-30 -18 -55 -15.5t-49 29.5 q-47 56 -47 150z" />
<glyph unicode="&#x124;" horiz-adv-x="1320" d="M61 37l248 1286q9 39 56 39h243q24 0 29.5 -10.5t1.5 -28.5l-90 -477h389l90 477q5 21 17 30t38 9h240q26 0 32.5 -10t2.5 -29l-248 -1286q-4 -37 -49 -37h-242q-26 0 -34 8t-5 29l101 528h-387l-101 -528q-8 -37 -49 -37h-244q-26 0 -34 8t-5 29zM458 1504q1 11 21 30 l307 248q23 21 39 29t49 8h132q35 0 47.5 -6t25.5 -25l205 -254q13 -19 10 -30t-22 -27l-70 -62q-22 -14 -31 -12.5t-26 16.5l-232 187l-317 -195q-19 -12 -27.5 -15.5t-17 -1.5t-16.5 13l-66 72q-12 14 -11 25z" />
<glyph unicode="&#x125;" horiz-adv-x="1140" d="M25 45l262 1356q7 45 51 45h227q44 0 35 -45l-90 -463q76 39 164 65.5t160 26.5q64 0 112 -13t78 -33t48 -53t25 -65t6 -76.5t-6 -79.5t-14 -83l-112 -582q-9 -45 -51 -45h-226q-44 0 -37 45q79 388 109 551q17 82 -6 118t-88 36q-60 0 -213 -60l-125 -645 q-9 -45 -51 -45h-226q-39 0 -32 45zM61 1532.5q1 11.5 21 30.5l307 247q23 21 39 29t49 8h131q35 0 48 -6t26 -24l205 -254q13 -19 10 -30.5t-23 -27.5l-69 -61q-22 -14 -31 -12.5t-26 16.5l-232 186l-317 -194q-19 -12 -28 -15.5t-17.5 -1.5t-16.5 13l-65 71 q-12 14 -11 25.5z" />
<glyph unicode="&#x126;" horiz-adv-x="1320" d="M61 37l187 969h-62q-23 0 -30 10.5t-4 34.5l18 88q6 43 51 43h60l28 141q9 39 56 39h243q24 0 29.5 -10.5t1.5 -28.5l-27 -141h389l27 141q5 21 17 30t38 9h240q26 0 32.5 -10t2.5 -29l-29 -141h66q26 0 32 -10.5t0 -32.5l-16 -88q-5 -25 -14.5 -35t-34.5 -10h-66 l-186 -969q-4 -37 -49 -37h-242q-26 0 -34 8t-5 29l101 528h-387l-101 -528q-8 -37 -49 -37h-244q-26 0 -34 8t-5 29zM549 846h389l29 160h-389z" />
<glyph unicode="&#x127;" horiz-adv-x="1140" d="M25 45l202 1053h-77q-29 0 -29 18q0 3 1 8.5t1 8.5l18 92q4 21 11.5 26.5t29.5 5.5h76l29 144q7 45 51 45h227q44 0 35 -45l-29 -144h359q19 0 24 -8t2 -26l-18 -93q-3 -18 -11 -25t-26 -7h-360l-41 -219q76 39 163.5 65.5t159.5 26.5q64 0 112 -13t78.5 -33.5 t48.5 -53.5t25 -65t6 -76.5t-6 -80t-14 -82.5l-102 -522q-9 -45 -51 -45h-226q-44 0 -37 45q86 420 99 492q17 82 -5.5 117.5t-88.5 35.5q-63 0 -213 -59l-115 -586q-9 -45 -51 -45h-226q-39 0 -32 45z" />
<glyph unicode="&#x128;" horiz-adv-x="622" d="M70 45l247 1270q10 47 56 47h241q42 0 33 -47l-246 -1270q-10 -45 -51 -45h-241q-46 0 -39 45zM88.5 1536.5q-3.5 10.5 3.5 28.5q64 120 139.5 167.5t171.5 47.5q50 0 110 -23.5t113.5 -47t88.5 -23.5q64 0 114 73q14 17 25.5 20t28.5 -7l86 -60q15 -10 17 -18t-7 -27 q-66 -118 -137.5 -162.5t-159.5 -44.5q-47 0 -154 52.5t-149 52.5q-38 0 -69.5 -19.5t-71.5 -66.5q-26 -33 -58 -11l-80 54q-8 4 -11.5 14.5z" />
<glyph unicode="&#x129;" horiz-adv-x="841" d="M127.5 1200.5q-3.5 10.5 3.5 28.5q64 120 139.5 167.5t171.5 47.5q50 0 110 -23.5t113.5 -47t88.5 -23.5q64 0 114 73q14 17 25.5 20t28.5 -7l86 -60q15 -10 17 -18t-7 -27q-66 -118 -137.5 -162.5t-159.5 -44.5q-47 0 -154 52.5t-149 52.5q-38 0 -70 -19.5t-72 -66.5 q-26 -32 -57 -10l-80 53q-8 4 -11.5 14.5zM190 45l179 922q5 23 16.5 34t36.5 11h229q45 0 35 -45l-180 -922q-5 -45 -49 -45h-232q-45 0 -35 45z" />
<glyph unicode="&#x12a;" horiz-adv-x="673" d="M90 45l248 1270q10 47 55 47h242q42 0 33 -47l-246 -1270q-10 -45 -51 -45h-242q-46 0 -39 45zM182 1499l27 148q8 43 53 43h623q25 0 31.5 -9t3.5 -32l-31 -150q-5 -24 -15 -33.5t-34 -9.5h-623q-46 0 -35 43z" />
<glyph unicode="&#x12b;" horiz-adv-x="747" d="M125 45l178 922q5 23 16.5 34t36.5 11h230q45 0 35 -45l-181 -922q-5 -45 -49 -45h-231q-45 0 -35 45zM162 1204l28 148q8 43 54 43h622q24 0 31 -9t2 -32l-31 -150q-3 -24 -13 -34.5t-34 -10.5h-624q-44 0 -35 45z" />
<glyph unicode="&#x12c;" horiz-adv-x="702" d="M109 45l247 1270q10 47 56 47h241q42 0 33 -47l-246 -1270q-10 -45 -51 -45h-242q-45 0 -38 45zM183 1693.5q2 24.5 28 41.5l86 57q24 16 38.5 13t31.5 -29q84 -131 219 -131q133 0 268 135q25 25 40.5 28t35.5 -12l74 -55q17 -12 17.5 -28t-8 -29.5t-28.5 -38.5 q-83 -112 -194 -170t-220 -58q-126 0 -231.5 58.5t-146.5 169.5q-12 24 -10 48.5z" />
<glyph unicode="&#x12d;" horiz-adv-x="841" d="M186 45l179 922q5 23 16.5 34t36.5 11h229q45 0 35 -45l-180 -922q-5 -45 -49 -45h-232q-45 0 -35 45zM191.5 1381.5q1.5 24.5 27.5 41.5l88 58q23 16 38 12.5t30 -29.5q87 -131 221 -131q131 0 266 135q26 26 40 29.5t38 -12.5l76 -58q17 -11 17.5 -27t-8.5 -30.5 t-28 -38.5q-82 -112 -193 -168.5t-222 -56.5q-125 0 -232.5 58.5t-146.5 168.5q-13 24 -11.5 48.5z" />
<glyph unicode="&#x12e;" horiz-adv-x="622" d="M-4 -233q0 65 26 120t82 113q-41 0 -34 45l247 1270q10 47 56 47h241q42 0 33 -47l-246 -1270q-10 -45 -51 -45h-59q-82 -101 -82 -182q0 -51 74 -51q57 0 116 16q25 6 29 -14l12 -80q0 -20 -7.5 -29t-24.5 -16q-99 -45 -211 -45q-97 0 -149 46t-52 122z" />
<glyph unicode="&#x12f;" horiz-adv-x="569" d="M-27 -233q0 65 26 120t83 113q-43 0 -33 45l178 922q9 45 56 45h229q43 0 33 -45l-178 -922q-5 -45 -52 -45h-47q-82 -101 -82 -182q0 -51 74 -51q58 0 117 16q25 6 29 -14l12 -80q0 -20 -8 -29t-25 -16q-99 -45 -211 -45q-97 0 -149 46t-52 122zM279 1229q0 91 47.5 148 t152.5 57q142 0 142 -103q0 -39 -9 -73t-29.5 -66t-62.5 -51t-100 -19q-141 0 -141 107z" />
<glyph unicode="&#x130;" horiz-adv-x="622" d="M70 45l247 1270q10 47 56 47h241q42 0 33 -47l-246 -1270q-10 -45 -51 -45h-241q-46 0 -39 45zM381 1571q0 89 47 147t152 58q74 0 106.5 -26t32.5 -77q0 -38 -9 -71.5t-30 -65.5t-62.5 -51t-99.5 -19q-137 0 -137 105z" />
<glyph unicode="&#x131;" horiz-adv-x="548" d="M43 45l178 922q5 23 16.5 34t36.5 11h230q45 0 35 -45l-181 -922q-5 -45 -49 -45h-231q-45 0 -35 45z" />
<glyph unicode="&#x132;" horiz-adv-x="1550" d="M70 45l247 1270q10 47 56 47h241q42 0 33 -47l-246 -1270q-10 -45 -51 -45h-241q-46 0 -39 45zM532 57.5q-9 16.5 5 57.5l41 137q8 30 22 37t43 2q116 -17 197 -17q100 0 143 43t59 123l166 875q7 47 54 47h235q27 0 34.5 -11.5t2.5 -35.5l-178 -932q-18 -96 -50 -165.5 t-89 -125t-147.5 -83t-215.5 -27.5q-158 0 -264 41q-49 18 -58 34.5z" />
<glyph unicode="&#x133;" horiz-adv-x="1095" d="M49 45l178 922q9 45 56 45h229q43 0 33 -45l-178 -922q-5 -45 -52 -45h-229q-47 0 -37 45zM186 -326l41 140q9 28 20 33t52 1q108 -10 148 -2q92 17 112 119l193 1006q4 24 15.5 32.5t35.5 8.5h231q24 0 31.5 -8.5t3.5 -32.5l-215 -1114q-33 -166 -130.5 -232.5 t-260.5 -66.5q-61 0 -133 12t-119 33q-41 14 -25 71zM279 1229q0 91 47.5 148t152.5 57q142 0 142 -103q0 -39 -9 -73t-29.5 -66t-62.5 -51t-100 -19q-141 0 -141 107zM801 1229q0 90 48.5 147.5t151.5 57.5q76 0 109 -26t33 -77q0 -38 -9 -72t-29.5 -66.5t-62.5 -51.5 t-100 -19q-141 0 -141 107z" />
<glyph unicode="&#x134;" horiz-adv-x="993" d="M-25 59.5q-9 16.5 5 57.5l40 137q8 30 22.5 37t43.5 2q116 -17 197 -17q100 0 143 43t59 123l166 875q7 47 54 47h235q27 0 34.5 -11.5t2.5 -35.5l-178 -932q-18 -96 -50 -165.5t-89 -125t-147.5 -83t-215.5 -27.5q-158 0 -264 41q-49 18 -58 34.5zM423 1508q1 11 21 30 l308 248q23 21 39 29t49 8h131q35 0 47.5 -6t25.5 -25l205 -254q13 -19 10 -30t-22 -27l-70 -62q-22 -14 -31 -12.5t-26 16.5l-231 187l-318 -195q-19 -12 -27.5 -15.5t-17 -1.5t-16.5 13l-66 72q-12 14 -11 25z" />
<glyph unicode="&#x135;" horiz-adv-x="808" d="M-203 -326l41 140q9 28 20 33t52 1q108 -10 148 -2q92 17 112 119l192 1006q4 24 16 32.5t36 8.5h231q24 0 31.5 -8.5t3.5 -32.5l-215 -1114q-33 -166 -130.5 -232.5t-260.5 -66.5q-61 0 -133 12t-119 33q-41 14 -25 71zM137.5 1211q1.5 11 20.5 30l305 277 q21 21 37.5 28.5t50.5 7.5h133q36 0 48.5 -6t23.5 -26l198 -285q13 -19 11 -29.5t-21 -25.5l-78 -66q-21 -14 -32 -13t-27 15l-225 217l-301 -215q-26 -17 -36 -18.5t-26 14.5l-72 70q-11 14 -9.5 25z" />
<glyph unicode="&#x136;" horiz-adv-x="1265" d="M49 45l246 1270q10 47 55 47h244q42 0 33 -47l-90 -457h6l166 180l276 283q24 22 44 31.5t50 9.5h303q25 0 32 -16t-17 -41l-541 -541l315 -701q11 -31 -0.5 -47t-35.5 -16h-252q-35 0 -52.5 13.5t-27.5 39.5l-195 465l-176 -178l-53 -295q-2 -17 -13.5 -31t-35.5 -14 h-244q-44 0 -37 45zM252 -536.5q4 10.5 37 42.5q82 70 82 142q0 52 -35 102q-22 26 -18.5 48t42.5 48l152 101q23 16 40 17t28 -7t28 -27q51 -59 51 -168q0 -66 -25 -130.5t-66 -115t-87.5 -90t-95.5 -65.5q-49 -25 -76 10l-43 56q-18 26 -14 36.5z" />
<glyph unicode="&#x137;" horiz-adv-x="1085" d="M31 43l262 1358q7 45 53 45h223q44 0 35 -45l-137 -703v-2q54 54 144.5 138t138.5 131q27 26 46.5 35.5t57.5 9.5h258q21 0 30 -6t7 -17q-4 -15 -25 -33l-368 -348l239 -551q9 -15 6 -28q-3 -27 -47 -27h-204q-13 0 -24 1t-19.5 4t-14.5 4.5t-12 8t-9 8t-7.5 11 t-5.5 11.5t-5.5 14t-5.5 14l-131 301q-13 -13 -62 -58t-73 -69l-41 -207q-9 -43 -51 -43h-223q-45 0 -35 43zM166 -577.5q4 10.5 37 42.5q82 70 82 142q0 52 -35 102q-22 26 -18.5 48t42.5 48l152 101q23 16 40 17t28 -7t28 -27q51 -59 51 -168q0 -66 -25 -130.5t-66 -115 t-87.5 -90t-95.5 -65.5q-49 -25 -76 10l-43 56q-18 26 -14 36.5z" />
<glyph unicode="&#x138;" horiz-adv-x="1085" d="M31 43l178 924q7 45 53 45h223q44 0 35 -45l-53 -269v-2q54 54 144.5 138t138.5 131q27 26 46.5 35.5t57.5 9.5h252q25 0 34.5 -9t4 -21.5t-20.5 -25.5l-368 -348l239 -551q9 -15 6 -28q-3 -27 -47 -27h-204q-13 0 -24 1t-19.5 4t-14.5 4.5t-12 8t-9 8t-7.5 11t-5.5 11.5 t-5.5 14t-5.5 14l-131 301q-13 -13 -62 -58t-73 -69l-41 -207q-9 -43 -51 -43h-223q-45 0 -35 43z" />
<glyph unicode="&#x139;" horiz-adv-x="1073" d="M63 45l246 1270q10 47 56 47h241q45 0 35 -47l-201 -1036h545q35 0 29 -35l-39 -203q-5 -21 -16 -31t-35 -10h-824q-47 0 -37 45zM385 1548q-15 27 23 49l376 220q43 22 60 -11l63 -157q9 -17 1 -34t-31 -26l-392 -157q-16 -8 -30.5 -7t-24.5 17z" />
<glyph unicode="&#x13a;" horiz-adv-x="616" d="M88 258l221 1143q10 45 53 45h230q46 0 37 -45l-209 -1067q-3 -15 -2.5 -26.5t1.5 -19.5t8.5 -14t12 -9t18 -5.5t20.5 -3t26 -2.5q30 -3 37 -11t4 -32l-21 -150q-3 -18 -12 -28t-29 -17q-62 -26 -170 -26q-137 0 -194.5 64.5t-30.5 203.5zM399 1626q-15 27 23 49l377 219 q43 22 59 -10l64 -158q9 -17 0.5 -33.5t-31.5 -25.5l-391 -158q-41 -14 -56 11z" />
<glyph unicode="&#x13b;" horiz-adv-x="1073" d="M63 45l246 1270q10 47 56 47h241q45 0 35 -47l-201 -1036h545q35 0 29 -35l-39 -203q-5 -21 -16 -31t-35 -10h-824q-47 0 -37 45zM203 -577.5q4 10.5 37 42.5q82 70 82 142q0 52 -35 102q-22 26 -18.5 48t42.5 48l152 101q23 16 40 17t28 -7t28 -27q51 -59 51 -168 q0 -66 -25 -130.5t-66 -115t-87.5 -90t-95.5 -65.5q-49 -25 -76 10l-43 56q-18 26 -14 36.5z" />
<glyph unicode="&#x13c;" horiz-adv-x="616" d="M-57 -577.5q4 10.5 37 42.5q81 69 81 142q0 53 -34 102q-22 26 -18.5 48t42.5 48l152 101q23 16 40 17t28 -7t28 -27q51 -59 51 -168q0 -66 -25 -130.5t-66 -115t-87.5 -90t-95.5 -65.5q-49 -25 -76 10l-43 56q-18 26 -14 36.5zM88 258l221 1143q10 45 53 45h230 q46 0 37 -45l-209 -1067q-3 -15 -2.5 -26.5t1.5 -19.5t8.5 -14t12 -9t18 -5.5t20.5 -3t26 -2.5q30 -3 37 -11t4 -32l-21 -150q-3 -18 -12 -28t-29 -17q-62 -26 -170 -26q-137 0 -194.5 64.5t-30.5 203.5z" />
<glyph unicode="&#x13d;" horiz-adv-x="1073" d="M63 45l246 1270q10 47 56 47h241q45 0 35 -47l-201 -1036h545q35 0 29 -35l-39 -203q-5 -21 -16 -31t-35 -10h-824q-47 0 -37 45zM729 883q4 11 37 43q82 70 82 141q0 52 -35 102q-22 26 -18 48.5t43 48.5l151 100q23 16 40 17.5t28 -6.5t28 -27q52 -60 52 -168 q0 -87 -44.5 -170.5t-104 -139.5t-126.5 -92q-48 -25 -76 11l-43 55q-18 26 -14 37z" />
<glyph unicode="&#x13e;" horiz-adv-x="937" d="M88 258l221 1143q10 45 53 45h230q46 0 37 -45l-209 -1067q-3 -15 -2.5 -26.5t1.5 -19.5t8.5 -14t12 -9t18 -5.5t20.5 -3t26 -2.5q30 -3 37 -11t4 -32l-21 -150q-3 -18 -12 -28t-29 -17q-62 -26 -170 -26q-137 0 -194.5 64.5t-30.5 203.5zM645 983q4 11 37 43 q82 70 82 141q0 53 -35 103q-22 26 -18 48t43 48l151 100q23 16 40 17.5t28 -6.5t28 -27q52 -60 52 -168q0 -66 -25 -130.5t-66.5 -115t-88 -90t-95.5 -65.5q-49 -25 -76 10l-43 55q-18 26 -14 37z" />
<glyph unicode="&#x13f;" horiz-adv-x="1073" d="M63 45l246 1270q10 47 56 47h241q45 0 35 -47l-201 -1036h545q35 0 29 -35l-39 -203q-5 -21 -16 -31t-35 -10h-824q-47 0 -37 45zM707 698q0 89 47 147t151 58q74 0 106.5 -25.5t32.5 -76.5q0 -38 -9 -71.5t-30 -65.5t-62 -51t-99 -19q-137 0 -137 104z" />
<glyph unicode="&#x140;" horiz-adv-x="913" d="M88 258l221 1143q10 45 53 45h230q46 0 37 -45l-209 -1067q-3 -15 -2.5 -26.5t1.5 -19.5t8.5 -14t12 -9t18 -5.5t20.5 -3t26 -2.5q30 -3 37 -11t4 -32l-21 -150q-3 -18 -12 -28t-29 -17q-62 -26 -170 -26q-137 0 -194.5 64.5t-30.5 203.5zM600 748q0 89 47 146.5 t152 57.5q74 0 106.5 -25.5t32.5 -76.5q0 -38 -9 -71.5t-30 -65.5t-62.5 -51t-99.5 -19q-137 0 -137 105z" />
<glyph unicode="&#x141;" horiz-adv-x="1073" d="M-23 494q-14 37 29 59l172 90l131 672q10 47 56 47h241q45 0 35 -47l-92 -477l172 90q25 11 36 7t17 -24l37 -80q8 -19 3 -33.5t-30 -25.5l-276 -145l-68 -348h545q35 0 29 -35l-39 -203q-5 -21 -16 -31t-35 -10h-824q-47 0 -37 45l74 389l-69 -37q-42 -20 -58 17z" />
<glyph unicode="&#x142;" horiz-adv-x="753" d="M14 541q-14 39 27 59l182 96l137 705q10 45 54 45h229q46 0 37 -45l-102 -520l108 57q25 11 36 7.5t17 -23.5l37 -84q9 -20 4 -33.5t-30 -26.5l-213 -112l-66 -332q-3 -15 -2.5 -26.5t1.5 -19.5t8.5 -14t12 -9t18 -5.5t20.5 -3t26 -2.5q30 -3 37 -11t4 -32l-21 -150 q-3 -18 -11.5 -28t-28.5 -17q-62 -26 -170 -26q-137 0 -195 64.5t-31 203.5l43 223l-73 -39q-42 -23 -60 15z" />
<glyph unicode="&#x143;" horiz-adv-x="1366" d="M59 31q0 2 1 7t1 7l246 1270q11 45 55 45h170q30 0 47.5 -8.5t22.5 -17t16 -31.5l316 -725h8q49 266 139 735q9 47 52 47h233q39 0 39 -31q0 -10 -2 -16q-84 -422 -248 -1270q-7 -43 -53 -43h-170q-33 0 -51 12t-29 37l-207 475l-113 269h-6l-143 -748q-9 -45 -51 -45 h-234q-39 0 -39 31zM739 1548q-15 27 23 49l377 220q43 22 59 -11l64 -157q9 -17 0.5 -34t-31.5 -26l-391 -157q-16 -8 -31 -7t-25 17z" />
<glyph unicode="&#x144;" horiz-adv-x="1140" d="M23 45l178 922q10 45 53 45h229q49 0 35 -45l-8 -49h4q75 51 171.5 81.5t168.5 30.5q60 0 105.5 -13t73 -34t44 -54t23 -65t4.5 -77t-7 -80t-14 -82l-112 -580q-2 -17 -14 -31t-37 -14h-232q-24 0 -31 11t-4 34l105 533q16 92 -5.5 123.5t-86.5 31.5q-54 0 -203 -57 l-123 -631q-2 -17 -14.5 -31t-38.5 -14h-230q-41 0 -34 45zM522 1212l258 355q30 41 64 20l137 -90q40 -22 0 -65l-303 -310q-30 -33 -55 -18l-97 59q-29 18 -4 49z" />
<glyph unicode="&#x145;" horiz-adv-x="1366" d="M59 31q0 2 1 7t1 7l246 1270q11 45 55 45h170q30 0 47.5 -8.5t22.5 -17t16 -31.5l316 -725h8q49 266 139 735q9 47 52 47h233q39 0 39 -31q0 -10 -2 -16q-84 -422 -248 -1270q-7 -43 -53 -43h-170q-33 0 -51 12t-29 37l-207 475l-113 269h-6l-143 -748q-9 -45 -51 -45 h-234q-39 0 -39 31zM307.5 -536.5q3.5 10.5 36.5 42.5q82 70 82 142q0 52 -35 102q-22 26 -18 48t43 48l151 101q23 16 40.5 17t28.5 -7t28 -27q51 -59 51 -168q0 -66 -25 -130.5t-66.5 -115t-88 -90t-95.5 -65.5q-48 -25 -75 10l-43 56q-18 26 -14.5 36.5z" />
<glyph unicode="&#x146;" horiz-adv-x="1140" d="M23 45l178 922q10 45 53 45h229q49 0 35 -45l-8 -49h4q75 51 171.5 81.5t168.5 30.5q60 0 105.5 -13t73 -34t44 -54t23 -65t4.5 -77t-7 -80t-14 -82l-112 -580q-2 -17 -14 -31t-37 -14h-232q-24 0 -31 11t-4 34l105 533q16 92 -5.5 123.5t-86.5 31.5q-54 0 -203 -57 l-123 -631q-2 -17 -14.5 -31t-38.5 -14h-230q-41 0 -34 45zM147.5 -577.5q3.5 10.5 36.5 42.5q82 70 82 142q0 52 -35 102q-22 26 -18 48t43 48l152 101q23 16 40 17t28 -7t28 -27q51 -59 51 -168q0 -66 -25 -130.5t-66 -115t-87.5 -90t-95.5 -65.5q-49 -25 -76 10l-43 56 q-18 26 -14.5 36.5z" />
<glyph unicode="&#x147;" horiz-adv-x="1366" d="M59 31q0 2 1 7t1 7l246 1270q11 45 55 45h170q30 0 47.5 -8.5t22.5 -17t16 -31.5l316 -725h8q49 266 139 735q9 47 52 47h233q39 0 39 -31q0 -10 -2 -16q-84 -422 -248 -1270q-7 -43 -53 -43h-170q-33 0 -51 12t-29 37l-207 475l-113 269h-6l-143 -748q-9 -45 -51 -45 h-234q-39 0 -39 31zM513.5 1748q2.5 11 21.5 26l77 63q21 15 33 14t27 -16l217 -203l309 203q27 16 38 17t26 -15l69 -70q13 -12 12 -24t-22 -31l-305 -260q-21 -21 -37.5 -29t-50.5 -8h-131q-37 0 -50 6t-24 25l-199 270q-13 21 -10.5 32z" />
<glyph unicode="&#x148;" horiz-adv-x="1140" d="M23 45l178 922q10 45 53 45h229q49 0 35 -45l-8 -49h4q75 51 171.5 81.5t168.5 30.5q60 0 105.5 -13t73 -34t44 -54t23 -65t4.5 -77t-7 -80t-14 -82l-112 -580q-2 -17 -14 -31t-37 -14h-232q-24 0 -31 11t-4 34l105 533q16 92 -5.5 123.5t-86.5 31.5q-54 0 -203 -57 l-123 -631q-2 -17 -14.5 -31t-38.5 -14h-230q-41 0 -34 45zM280.5 1429q2.5 11 20.5 25l80 66q19 15 30.5 14t26.5 -16l217 -220l312 218q26 17 35.5 18.5t25.5 -14.5l70 -70q13 -14 12 -25t-20 -30l-306 -277q-23 -22 -39.5 -29.5t-50.5 -7.5h-131q-36 0 -49.5 6.5 t-24.5 26.5l-198 285q-13 19 -10.5 30z" />
<glyph unicode="&#x149;" horiz-adv-x="1419" d="M104.5 999.5q3.5 10.5 36.5 42.5q82 70 82 142q0 52 -35 102q-22 26 -18 48t43 48l152 101q23 16 40 17t28 -7t28 -27q51 -59 51 -168q0 -66 -25 -130.5t-66 -115t-87.5 -90t-95.5 -65.5q-49 -25 -76 10l-43 56q-18 26 -14.5 36.5zM301 45l178 922q10 45 53 45h230 q48 0 35 -45l-9 -49h5q75 51 171.5 81.5t168.5 30.5q60 0 105.5 -13t73 -34t44 -54t23 -65t4.5 -77t-7 -80t-14 -82l-113 -580q-2 -17 -14 -31t-37 -14h-231q-24 0 -31 11t-4 34l104 533q16 92 -5.5 123.5t-86.5 31.5q-54 0 -203 -57l-123 -631q-2 -17 -14.5 -31t-38.5 -14 h-229q-42 0 -35 45z" />
<glyph unicode="&#x14a;" horiz-adv-x="1366" d="M61 45l248 1272q11 45 53 45h175q25 0 40 -6t20.5 -13.5t14.5 -25.5l222 -479l104 -228h6l137 705q9 47 54 47h233q45 0 35 -47l-279 -1428q-9 -47 -21.5 -85t-33.5 -78.5t-52.5 -70.5t-74 -54.5t-102 -37t-133.5 -12.5q-89 0 -142 19q-13 4 -16 13t2 26l39 188 q10 25 39 25q95 3 135 29.5t55 99.5l23 123l-201 422l-115 254h-6l-137 -703q-2 -17 -14 -31t-37 -14h-232q-46 0 -39 45z" />
<glyph unicode="&#x14b;" horiz-adv-x="1136" d="M23 45l178 922q10 45 53 45h229q49 0 35 -45l-8 -49h4q75 51 171.5 81.5t168.5 30.5q60 0 105.5 -13t73 -34t44 -54t23 -65t4.5 -77t-7 -80t-14 -82l-143 -721q-33 -168 -129 -260.5t-281 -92.5q-102 0 -149 17q-21 8 -16 39l41 188q8 25 38 25q97 3 138.5 33.5 t52.5 95.5q3 14 26 134t52.5 270.5t44.5 224.5q16 92 -5.5 123.5t-86.5 31.5q-54 0 -203 -57l-123 -631q-2 -17 -14.5 -31t-38.5 -14h-230q-41 0 -34 45z" />
<glyph unicode="&#x14c;" horiz-adv-x="1406" d="M145 457q0 91 23 241q11 65 26 124t42.5 129.5t62.5 129t89 115t119 95.5t154.5 63t194.5 24q517 0 502 -510q0 -53 -17 -170q-11 -80 -27 -148.5t-43.5 -143.5t-64 -134.5t-91.5 -115.5t-122.5 -93t-160 -59t-201.5 -22q-112 0 -197.5 25t-139.5 67t-88 104t-47.5 129.5 t-13.5 149.5zM492 496q-3 -116 40.5 -172t141.5 -56q74 0 127.5 27t90.5 83t60.5 125.5t44.5 172.5q23 122 23 194q3 116 -44 169t-153 53q-55 0 -99 -19t-76 -52.5t-57.5 -87t-43.5 -114.5t-33 -143q-19 -88 -22 -180zM553 1499l27 148q8 43 53 43h622q25 0 31.5 -9 t3.5 -32l-30 -150q-5 -24 -15.5 -33.5t-34.5 -9.5h-622q-46 0 -35 43z" />
<glyph unicode="&#x14d;" horiz-adv-x="1122" d="M84 365q0 57 16 155q10 53 22 98t34 99t49.5 97t70.5 85t94.5 70t123.5 45.5t157 17.5q114 0 196.5 -28t129.5 -79t68.5 -115.5t21.5 -145.5q0 -65 -14 -144q-8 -48 -16 -85t-21.5 -84t-29 -82.5t-39.5 -75.5t-52.5 -69t-68.5 -56.5t-87 -45t-108.5 -28t-132.5 -10.5 q-414 0 -414 381zM352 1204l29 148q8 43 53 43h623q24 0 31 -9t2 -32l-31 -150q-3 -24 -13 -34.5t-34 -10.5h-625q-44 0 -35 45zM408 387q0 -70 27 -100.5t89 -30.5q50 0 85.5 16.5t58 52t35.5 77.5t24 106q14 79 14 123q0 67 -29.5 97t-95.5 30q-89 0 -130 -62t-64 -188 q-14 -79 -14 -121z" />
<glyph unicode="&#x14e;" horiz-adv-x="1406" d="M145 457q0 91 23 241q11 65 26 124t42.5 129.5t62.5 129t89 115t119 95.5t154.5 63t194.5 24q517 0 502 -510q0 -53 -17 -170q-11 -80 -27 -148.5t-43.5 -143.5t-64 -134.5t-91.5 -115.5t-122.5 -93t-160 -59t-201.5 -22q-112 0 -197.5 25t-139.5 67t-88 104t-47.5 129.5 t-13.5 149.5zM492 496q-3 -116 40.5 -172t141.5 -56q74 0 127.5 27t90.5 83t60.5 125.5t44.5 172.5q23 122 23 194q3 116 -44 169t-153 53q-55 0 -99 -19t-76 -52.5t-57.5 -87t-43.5 -114.5t-33 -143q-19 -88 -22 -180zM531 1693.5q2 24.5 28 41.5l86 57q24 16 38.5 13 t31.5 -29q84 -131 219 -131q133 0 268 135q25 25 40.5 28t35.5 -12l74 -55q17 -12 17.5 -28t-8 -29.5t-28.5 -38.5q-83 -112 -193.5 -170t-219.5 -58q-126 0 -232 58.5t-147 169.5q-12 24 -10 48.5z" />
<glyph unicode="&#x14f;" horiz-adv-x="1122" d="M84 365q0 57 16 155q10 53 22 98t34 99t49.5 97t70.5 85t94.5 70t123.5 45.5t157 17.5q114 0 196.5 -28t129.5 -79t68.5 -115.5t21.5 -145.5q0 -65 -14 -144q-8 -48 -16 -85t-21.5 -84t-29 -82.5t-39.5 -75.5t-52.5 -69t-68.5 -56.5t-87 -45t-108.5 -28t-132.5 -10.5 q-414 0 -414 381zM312.5 1369.5q1.5 24.5 27.5 41.5l88 57q23 16 38 13t30 -29q87 -131 221 -131q131 0 266 135q26 26 40 29.5t38 -12.5l76 -58q17 -11 17.5 -27t-8.5 -30.5t-28 -38.5q-82 -112 -193.5 -168.5t-222.5 -56.5q-125 0 -232 58.5t-146 168.5q-13 24 -11.5 48.5 zM408 387q0 -70 27 -100.5t89 -30.5q50 0 85.5 16.5t58 52t35.5 77.5t24 106q14 79 14 123q0 67 -29.5 97t-95.5 30q-89 0 -130 -62t-64 -188q-14 -79 -14 -121z" />
<glyph unicode="&#x150;" horiz-adv-x="1406" d="M145 457q0 91 23 241q11 65 26 124t42.5 129.5t62.5 129t89 115t119 95.5t154.5 63t194.5 24q517 0 502 -510q0 -53 -17 -170q-11 -80 -27 -148.5t-43.5 -143.5t-64 -134.5t-91.5 -115.5t-122.5 -93t-160 -59t-201.5 -22q-112 0 -197.5 25t-139.5 67t-88 104t-47.5 129.5 t-13.5 149.5zM492 496q-3 -116 40.5 -172t141.5 -56q74 0 127.5 27t90.5 83t60.5 125.5t44.5 172.5q23 122 23 194q3 116 -44 169t-153 53q-55 0 -99 -19t-76 -52.5t-57.5 -87t-43.5 -114.5t-33 -143q-19 -88 -22 -180zM537 1516q-20 28 14 49l360 254q24 15 38.5 12.5 t21.5 -16.5l86 -146q19 -37 -27 -61l-381 -193q-20 -10 -31 -11t-24 13zM1008 1516q-20 28 14 49l360 254q41 29 62 -4l84 -146q19 -37 -25 -61l-383 -193q-20 -10 -30 -11t-23 13z" />
<glyph unicode="&#x151;" horiz-adv-x="1122" d="M84 365q0 57 16 155q10 53 22 98t34 99t49.5 97t70.5 85t94.5 70t123.5 45.5t157 17.5q114 0 196.5 -28t129.5 -79t68.5 -115.5t21.5 -145.5q0 -65 -14 -144q-8 -48 -16 -85t-21.5 -84t-29 -82.5t-39.5 -75.5t-52.5 -69t-68.5 -56.5t-87 -45t-108.5 -28t-132.5 -10.5 q-414 0 -414 381zM408 387q0 -70 27 -100.5t89 -30.5q50 0 85.5 16.5t58 52t35.5 77.5t24 106q14 79 14 123q0 67 -29.5 97t-95.5 30q-89 0 -130 -62t-64 -188q-14 -79 -14 -121zM420 1212l258 355q29 40 61 20l140 -90q37 -23 -2 -65l-302 -310q-28 -32 -57 -18l-94 59 q-29 18 -4 49zM782 1212l258 355q30 40 62 20l137 -90q40 -22 0 -65l-301 -310q-29 -33 -57 -18l-95 59q-29 18 -4 49z" />
<glyph unicode="&#x152;" horiz-adv-x="1724" d="M145 457q0 91 23 241q11 65 26 124t42.5 129.5t62.5 129t89 115t119 95.5t154.5 63t194.5 24q92 0 170 -16h750q20 0 28.5 -12t3.5 -33l-36 -193q-7 -43 -52 -43h-522l-45 -237h455q44 0 34 -45l-36 -193q-7 -41 -52 -41h-454l-56 -286h537q42 0 35 -46l-37 -192 q-5 -21 -16 -31t-35 -10h-709q-83 -18 -188 -18q-112 0 -197.5 25t-139.5 67t-88 104t-47.5 129.5t-13.5 149.5zM492 496q-3 -116 40.5 -172t141.5 -56q25 0 35 2l159 817q-35 5 -45 5q-55 0 -99 -19t-76 -52.5t-57.5 -87t-43.5 -114.5t-33 -143q-19 -88 -22 -180z" />
<glyph unicode="&#x153;" horiz-adv-x="1734" d="M84 365q0 57 16 155q10 53 22 98t34 99t49.5 97t70.5 85t94.5 70t123.5 45.5t157 17.5q212 0 320 -100q135 94 350 94q74 0 139 -17t116 -50t80.5 -86t29.5 -121q0 -358 -639 -383q-9 -24 -9 -52q0 -23 9 -38.5t21.5 -24t37.5 -12.5t45 -5t55 -1q116 0 285 18q15 2 26 1 t18 -9.5t7 -26.5v-98q0 -41 -13.5 -57.5t-58.5 -34.5q-63 -23 -165.5 -35t-198.5 -12q-186 0 -287 79q-119 -77 -321 -77q-414 0 -414 381zM408 387q0 -70 27 -100.5t89 -30.5q50 0 85.5 16.5t58 52t35.5 77.5t24 106q14 79 14 123q0 67 -29.5 97t-95.5 30q-89 0 -130 -62 t-64 -188q-14 -79 -14 -121zM1077 573q277 18 277 142q0 30 -24 47.5t-66 17.5q-43 0 -75.5 -17.5t-54 -52t-33 -64t-24.5 -73.5z" />
<glyph unicode="&#x154;" horiz-adv-x="1228" d="M57 45l248 1272q11 45 55 45l498 -2q168 0 272.5 -86.5t104.5 -261.5q0 -140 -75 -254.5t-220 -182.5l147 -522q6 -25 -3.5 -39t-32.5 -14h-228q-33 0 -50 10t-23 35q-36 126 -113 471h-158l-90 -471q-2 -17 -13.5 -31t-35.5 -14h-244q-46 0 -39 45zM535 784h159 q80 0 137.5 47.5t57.5 137.5q0 112 -141 112h-158zM651 1548q-15 27 23 49l377 220q43 22 59 -11l64 -157q9 -17 0.5 -34t-31.5 -26l-391 -157q-16 -8 -31 -7t-25 17z" />
<glyph unicode="&#x155;" horiz-adv-x="839" d="M53 45l178 922q10 45 54 45h231q45 0 35 -45l-23 -123l2 -4q63 69 159 120.5t165 61.5q40 6 52 -2t9 -45l-16 -209q-2 -30 -13.5 -41t-56.5 -20q-178 -33 -352 -113l-104 -547q-10 -45 -51 -45h-232q-44 0 -37 45zM401 1212l258 355q30 41 64 20l137 -90q40 -22 0 -65 l-303 -310q-30 -33 -55 -18l-96 59q-29 18 -5 49z" />
<glyph unicode="&#x156;" horiz-adv-x="1228" d="M57 45l248 1272q11 45 55 45l498 -2q168 0 272.5 -86.5t104.5 -261.5q0 -140 -75 -254.5t-220 -182.5l147 -522q6 -25 -3.5 -39t-32.5 -14h-228q-33 0 -50 10t-23 35q-36 126 -113 471h-158l-90 -471q-2 -17 -13.5 -31t-35.5 -14h-244q-46 0 -39 45zM258 -536.5 q4 10.5 37 42.5q82 70 82 142q0 52 -35 102q-22 26 -18 48t43 48l151 101q23 16 40 17t28 -7t28 -27q52 -60 52 -168q0 -66 -25 -130.5t-66.5 -115t-88 -90t-95.5 -65.5q-49 -25 -76 10l-43 56q-18 26 -14 36.5zM535 784h159q80 0 137.5 47.5t57.5 137.5q0 112 -141 112 h-158z" />
<glyph unicode="&#x157;" horiz-adv-x="839" d="M-88 -577.5q4 10.5 37 42.5q82 70 82 142q0 52 -35 102q-22 26 -18.5 48t42.5 48l152 101q23 16 40 17t28 -7t28 -27q51 -59 51 -168q0 -66 -25 -130.5t-66 -115t-87.5 -90t-95.5 -65.5q-49 -25 -76 10l-43 56q-18 26 -14 36.5zM53 45l178 922q10 45 54 45h231 q45 0 35 -45l-23 -123l2 -4q63 69 159 120.5t165 61.5q40 6 52 -2t9 -45l-16 -209q-2 -30 -13.5 -41t-56.5 -20q-178 -33 -352 -113l-104 -547q-10 -45 -51 -45h-232q-44 0 -37 45z" />
<glyph unicode="&#x158;" horiz-adv-x="1228" d="M57 45l248 1272q11 45 55 45l498 -2q168 0 272.5 -86.5t104.5 -261.5q0 -140 -75 -254.5t-220 -182.5l147 -522q6 -25 -3.5 -39t-32.5 -14h-228q-33 0 -50 10t-23 35q-36 126 -113 471h-158l-90 -471q-2 -17 -13.5 -31t-35.5 -14h-244q-46 0 -39 45zM425 1747.5 q2 11.5 21 26.5l78 63q21 15 33 14t27 -16l217 -203l309 203q27 16 38 17t26 -15l69 -70q13 -12 12 -24t-22 -31l-305 -260q-21 -21 -37.5 -29t-50.5 -8h-131q-37 0 -50 6t-24 25l-199 270q-13 20 -11 31.5zM535 784h159q80 0 137.5 47.5t57.5 137.5q0 112 -141 112h-158z " />
<glyph unicode="&#x159;" horiz-adv-x="839" d="M53 45l178 922q10 45 54 45h231q45 0 35 -45l-23 -123l2 -4q63 69 159 120.5t165 61.5q40 6 52 -2t9 -45l-16 -209q-2 -30 -13.5 -41t-56.5 -20q-178 -33 -352 -113l-104 -547q-10 -45 -51 -45h-232q-44 0 -37 45zM161.5 1429q2.5 11 20.5 25l80 66q19 15 30.5 14 t26.5 -16l218 -220l311 218q26 17 35.5 18.5t25.5 -14.5l70 -70q13 -14 12 -25t-20 -30l-305 -277q-23 -21 -40 -29t-51 -8h-131q-36 0 -49 6.5t-24 26.5l-199 285q-13 19 -10.5 30z" />
<glyph unicode="&#x15a;" horiz-adv-x="1187" d="M35.5 84.5q-6.5 20.5 7.5 48.5l47 123q14 39 32 46t58 -1q178 -29 352 -29q108 0 170.5 35.5t63.5 106.5q1 49 -33.5 73.5t-124.5 47.5q-74 22 -122 39t-101.5 42t-85.5 52t-60 64t-40.5 85.5t-12.5 108.5q0 114 47 202t129 140.5t184 79t220 26.5q253 0 385 -59 q43 -19 50 -39.5t-9 -48.5l-49 -123q-17 -39 -37 -44.5t-62 1.5q-161 22 -303 22q-33 0 -59.5 -3t-53 -11.5t-44.5 -22t-29.5 -37t-11.5 -55.5q0 -42 33.5 -63t121.5 -41q50 -11 87 -21t84.5 -27.5t81 -37t69 -49t57 -64.5t35.5 -83t14 -105q0 -105 -33 -187.5t-89.5 -137 t-137.5 -90t-173 -51t-199 -15.5q-91 0 -210.5 14.5t-199.5 48.5q-42 19 -48.5 39.5zM606 1548q-15 27 23 49l377 220q43 22 59 -11l63 -157q9 -17 1 -34t-31 -26l-391 -157q-16 -8 -31 -7t-25 17z" />
<glyph unicode="&#x15b;" horiz-adv-x="997" d="M14.5 67q-10.5 21 8.5 62l40 98q12 30 25.5 36.5t46.5 0.5q149 -26 287 -26q77 0 115 18t41 63q3 34 -20 47.5t-77 24.5q-63 11 -108 22t-93.5 33t-79 50.5t-50 74t-19.5 103.5q0 80 26.5 143t71.5 102.5t108.5 65.5t132 36.5t148.5 10.5q74 0 163 -12.5t147 -34.5 q29 -10 41.5 -18.5t19 -25.5t-7.5 -42l-45 -106q-11 -29 -22 -35t-48 -2q-182 21 -280 24q-68 1 -96.5 -16t-30.5 -55q-2 -20 17 -34t39.5 -19.5t53.5 -10.5q59 -9 101.5 -18.5t90.5 -30t78 -48.5t50 -73t20 -104q0 -389 -520 -389q-77 0 -168.5 12.5t-148.5 32.5 q-47 19 -57.5 40zM502 1212l258 355q30 41 63 20l138 -90q40 -22 0 -65l-304 -310q-30 -33 -55 -18l-96 59q-29 18 -4 49z" />
<glyph unicode="&#x15c;" horiz-adv-x="1187" d="M35.5 84.5q-6.5 20.5 7.5 48.5l47 123q14 39 32 46t58 -1q178 -29 352 -29q108 0 170.5 35.5t63.5 106.5q1 49 -33.5 73.5t-124.5 47.5q-74 22 -122 39t-101.5 42t-85.5 52t-60 64t-40.5 85.5t-12.5 108.5q0 114 47 202t129 140.5t184 79t220 26.5q253 0 385 -59 q43 -19 50 -39.5t-9 -48.5l-49 -123q-17 -39 -37 -44.5t-62 1.5q-161 22 -303 22q-33 0 -59.5 -3t-53 -11.5t-44.5 -22t-29.5 -37t-11.5 -55.5q0 -42 33.5 -63t121.5 -41q50 -11 87 -21t84.5 -27.5t81 -37t69 -49t57 -64.5t35.5 -83t14 -105q0 -105 -33 -187.5t-89.5 -137 t-137.5 -90t-173 -51t-199 -15.5q-91 0 -210.5 14.5t-199.5 48.5q-42 19 -48.5 39.5zM368 1504q1 11 21 30l307 248q23 21 39 29t49 8h131q35 0 48 -6t26 -25l205 -254q13 -19 10 -30t-22 -27l-70 -62q-22 -14 -31 -12.5t-26 16.5l-232 187l-317 -195q-19 -12 -28 -15.5 t-17.5 -1.5t-16.5 13l-65 72q-12 14 -11 25z" />
<glyph unicode="&#x15d;" horiz-adv-x="997" d="M14.5 67q-10.5 21 8.5 62l40 98q12 30 25.5 36.5t46.5 0.5q149 -26 287 -26q77 0 115 18t41 63q3 34 -20 47.5t-77 24.5q-63 11 -108 22t-93.5 33t-79 50.5t-50 74t-19.5 103.5q0 80 26.5 143t71.5 102.5t108.5 65.5t132 36.5t148.5 10.5q74 0 163 -12.5t147 -34.5 q29 -10 41.5 -18.5t19 -25.5t-7.5 -42l-45 -106q-11 -29 -22 -35t-48 -2q-182 21 -280 24q-68 1 -96.5 -16t-30.5 -55q-2 -20 17 -34t39.5 -19.5t53.5 -10.5q59 -9 101.5 -18.5t90.5 -30t78 -48.5t50 -73t20 -104q0 -389 -520 -389q-77 0 -168.5 12.5t-148.5 32.5 q-47 19 -57.5 40zM201 1176q1 11 20 30l305 277q18 15 25.5 20.5t24.5 11t40 5.5h132q36 0 49 -6.5t24 -26.5l199 -285q13 -21 10.5 -31t-20.5 -24l-80 -66q-19 -15 -31 -14t-27 16l-227 217l-301 -217q-19 -11 -26.5 -14t-16.5 -1t-18 13l-70 70q-13 14 -12 25z" />
<glyph unicode="&#x15e;" horiz-adv-x="1187" d="M35.5 84.5q-6.5 20.5 7.5 48.5l47 123q14 39 32 46t58 -1q178 -29 352 -29q108 0 170.5 35.5t63.5 106.5q1 49 -33.5 73.5t-124.5 47.5q-74 22 -122 39t-101.5 42t-85.5 52t-60 64t-40.5 85.5t-12.5 108.5q0 114 47 202t129 140.5t184 79t220 26.5q253 0 385 -59 q43 -19 50 -39.5t-9 -48.5l-49 -123q-17 -39 -37 -44.5t-62 1.5q-161 22 -303 22q-33 0 -59.5 -3t-53 -11.5t-44.5 -22t-29.5 -37t-11.5 -55.5q0 -42 33.5 -63t121.5 -41q50 -11 87 -21t84.5 -27.5t81 -37t69 -49t57 -64.5t35.5 -83t14 -105q0 -123 -44 -215t-124 -147 t-180 -83.5t-225 -33.5l-45 -82q91 -3 136.5 -43t45.5 -101q0 -111 -87.5 -175t-240.5 -64q-102 0 -169 24q-20 8 -13 25l31 84q6 15 29 12q65 -10 131 -10q56 0 95.5 20t39.5 66q0 33 -28.5 43.5t-108.5 15.5q-46 3 -21 49l72 136q-230 14 -336 61q-42 19 -48.5 39.5z" />
<glyph unicode="&#x15f;" horiz-adv-x="997" d="M14.5 67q-10.5 21 8.5 62l40 98q12 30 25.5 36.5t46.5 0.5q149 -26 287 -26q77 0 115 18t41 63q3 34 -20 47.5t-77 24.5q-63 11 -108 22t-93.5 33t-79 50.5t-50 74t-19.5 103.5q0 80 26.5 143t71.5 102.5t108.5 65.5t132 36.5t148.5 10.5q74 0 163 -12.5t147 -34.5 q29 -10 41.5 -18.5t19 -25.5t-7.5 -42l-45 -106q-11 -29 -22 -35t-48 -2q-182 21 -280 24q-68 1 -96.5 -16t-30.5 -55q-2 -20 17 -34t39.5 -19.5t53.5 -10.5q59 -9 101.5 -18.5t90.5 -30t78 -48.5t50 -73t20 -104q0 -83 -24 -148.5t-63.5 -107.5t-97.5 -70.5t-119 -42 t-134 -18.5l-47 -82q91 -3 136.5 -43t45.5 -101q0 -111 -87 -175t-240 -64q-103 0 -170 24q-20 8 -13 25l31 84q6 15 29 12q65 -10 131 -10q56 0 95.5 20t39.5 66q0 33 -28.5 43.5t-108.5 15.5q-46 3 -21 49l72 136q-166 7 -264 43q-47 19 -57.5 40z" />
<glyph unicode="&#x160;" horiz-adv-x="1187" d="M35.5 84.5q-6.5 20.5 7.5 48.5l47 123q14 39 32 46t58 -1q178 -29 352 -29q108 0 170.5 35.5t63.5 106.5q1 49 -33.5 73.5t-124.5 47.5q-74 22 -122 39t-101.5 42t-85.5 52t-60 64t-40.5 85.5t-12.5 108.5q0 114 47 202t129 140.5t184 79t220 26.5q253 0 385 -59 q43 -19 50 -39.5t-9 -48.5l-49 -123q-17 -39 -37 -44.5t-62 1.5q-161 22 -303 22q-33 0 -59.5 -3t-53 -11.5t-44.5 -22t-29.5 -37t-11.5 -55.5q0 -42 33.5 -63t121.5 -41q50 -11 87 -21t84.5 -27.5t81 -37t69 -49t57 -64.5t35.5 -83t14 -105q0 -105 -33 -187.5t-89.5 -137 t-137.5 -90t-173 -51t-199 -15.5q-91 0 -210.5 14.5t-199.5 48.5q-42 19 -48.5 39.5zM427.5 1748q2.5 11 21.5 26l77 63q21 15 33 14t27 -16l217 -203l309 203q27 16 38 17t26 -15l69 -70q13 -12 12 -24t-22 -31l-305 -260q-21 -21 -37.5 -29t-50.5 -8h-131q-37 0 -50 6 t-24 25l-199 270q-13 21 -10.5 32z" />
<glyph unicode="&#x161;" horiz-adv-x="997" d="M14.5 67q-10.5 21 8.5 62l40 98q12 30 25.5 36.5t46.5 0.5q149 -26 287 -26q77 0 115 18t41 63q3 34 -20 47.5t-77 24.5q-63 11 -108 22t-93.5 33t-79 50.5t-50 74t-19.5 103.5q0 80 26.5 143t71.5 102.5t108.5 65.5t132 36.5t148.5 10.5q74 0 163 -12.5t147 -34.5 q29 -10 41.5 -18.5t19 -25.5t-7.5 -42l-45 -106q-11 -29 -22 -35t-48 -2q-182 21 -280 24q-68 1 -96.5 -16t-30.5 -55q-2 -20 17 -34t39.5 -19.5t53.5 -10.5q59 -9 101.5 -18.5t90.5 -30t78 -48.5t50 -73t20 -104q0 -389 -520 -389q-77 0 -168.5 12.5t-148.5 32.5 q-47 19 -57.5 40zM272.5 1429q2.5 11 20.5 25l80 66q19 15 30.5 14t26.5 -16l217 -220l311 218q26 17 36 18.5t26 -14.5l70 -70q13 -14 11.5 -25t-20.5 -30l-305 -277q-23 -22 -39.5 -29.5t-50.5 -7.5h-131q-36 0 -49.5 6.5t-24.5 26.5l-198 285q-13 19 -10.5 30z" />
<glyph unicode="&#x162;" horiz-adv-x="1062" d="M141 -432l31 84q6 15 29 12q65 -10 131 -10q56 0 95.5 20t39.5 66q0 33 -28.5 43.5t-108.5 15.5q-46 3 -21 49l80 152h-59q-46 0 -39 45l201 1036h-295q-26 0 -33 11t-4 32l37 193q5 23 16.5 34t38.5 11h926q20 0 29.5 -12.5t4.5 -32.5l-36 -193q-10 -43 -56 -43h-297 l-202 -1036q-5 -45 -50 -45h-47l-55 -98q91 -3 136.5 -43t45.5 -101q0 -111 -87 -175t-240 -64q-102 0 -170 24q-20 8 -13 25z" />
<glyph unicode="&#x163;" horiz-adv-x="837" d="M-10 -422l30 84q6 15 29 12q65 -10 131 -10q56 0 95.5 20t39.5 66q0 33 -28.5 44t-108.5 16q-45 3 -20 49l82 155q-48 26 -71 73.5t-21 102.5t12 119l90 457h-90q-24 0 -32 10.5t-3 34.5l31 154q5 24 16 34.5t35 10.5h92l39 200q7 41 55 54l217 55q24 8 36.5 -1.5 t8.5 -33.5l-53 -274h209q26 0 33 -10t2 -33l-31 -156q-5 -25 -15 -35t-36 -10h-211l-72 -381q-9 -39 -7 -63t27 -35.5t83 -12.5q28 0 143 9q29 0 35 -7q7 -9 6 -36l-10 -148q1 -22 -13.5 -40.5t-35.5 -24.5q-136 -43 -308 -43q-29 0 -43 2l-41 -74q91 -3 137 -42.5 t46 -100.5q0 -111 -87.5 -175.5t-240.5 -64.5q-34 0 -86.5 7t-83.5 18q-19 8 -12 24z" />
<glyph unicode="&#x164;" horiz-adv-x="1062" d="M160 1124l37 193q5 23 16.5 34t38.5 11h926q20 0 29.5 -12.5t4.5 -32.5l-36 -193q-10 -43 -56 -43h-297l-202 -1036q-5 -45 -50 -45h-241q-46 0 -39 45l201 1036h-295q-26 0 -33 11t-4 32zM372 1747.5q2 11.5 21 26.5l78 63q21 15 32.5 14t26.5 -16l218 -203l309 203 q27 16 37.5 17t25.5 -15l70 -70q13 -12 12 -24t-22 -31l-306 -260q-21 -21 -37.5 -29t-50.5 -8h-131q-37 0 -49 6t-24 25l-199 270q-13 20 -11 31.5z" />
<glyph unicode="&#x165;" horiz-adv-x="1030" d="M125 811l31 154q5 24 16 34.5t35 10.5h92l39 200q7 41 55 54l217 55q24 8 36.5 -1.5t8.5 -33.5l-53 -274h209q26 0 33 -10t2 -33l-31 -156q-5 -25 -15 -35t-36 -10h-211l-72 -381q-9 -39 -7 -63t27 -35.5t83 -12.5q28 0 143 9q29 0 35 -7q7 -9 6 -36l-10 -148 q1 -22 -13.5 -40.5t-35.5 -24.5q-136 -43 -308 -43q-75 0 -127 18t-78.5 47t-38 73.5t-9.5 88t12 98.5l90 457h-90q-24 0 -32 10.5t-3 34.5zM799 1151q4 11 37 43q82 70 82 141q0 53 -35 103q-22 26 -18.5 48t42.5 48l152 100q23 16 40 17.5t28 -6.5t28 -27q51 -59 51 -168 q0 -66 -25 -130.5t-66 -115t-87.5 -90t-95.5 -65.5q-49 -25 -76 10l-43 55q-18 26 -14 37z" />
<glyph unicode="&#x166;" horiz-adv-x="1062" d="M160 1124l37 193q5 23 16.5 34t38.5 11h926q20 0 29.5 -12.5t4.5 -32.5l-36 -193q-10 -43 -56 -43h-297l-53 -268h209q26 0 32 -9t3 -32l-17 -98q-7 -25 -15.5 -34t-33.5 -9h-213l-114 -586q-5 -45 -50 -45h-241q-46 0 -39 45l112 586h-196q-24 0 -31 9.5t-2 33.5l16 96 q9 43 50 43h198l54 268h-295q-26 0 -33 11t-4 32z" />
<glyph unicode="&#x167;" horiz-adv-x="854" d="M85 463q-5 10 1 33l16 79q5 24 13 33.5t30 9.5h91l28 148h-90q-24 0 -32 10.5t-3 34.5l31 154q5 24 16 34.5t35 10.5h92l39 200q7 41 56 54l217 55q24 8 36.5 -1.5t8.5 -33.5l-54 -274h209q26 0 33 -10t2 -33l-31 -156q-5 -25 -15 -35t-36 -10h-211l-28 -148h188 q18 0 25.5 -4.5t7.5 -13.5t-2 -22l-17 -82q-5 -19 -8 -26t-11.5 -12t-25.5 -5h-188l-12 -68q-9 -39 -7.5 -63t26.5 -35.5t83 -12.5q28 0 143 9q29 0 35 -7q7 -9 6 -36l-10 -148q1 -22 -13.5 -40.5t-35.5 -24.5q-136 -43 -307 -43q-75 0 -127 18t-79 47t-38 73.5t-9.5 88 t11.5 98.5l29 144h-90q-23 0 -28 10z" />
<glyph unicode="&#x168;" horiz-adv-x="1337" d="M152 508l157 807q10 47 56 47h239q25 0 32 -14.5t1 -32.5l-156 -801q-47 -244 156 -244q207 0 256 244l154 801q10 47 55 47h239q44 0 35 -47l-157 -807q-98 -526 -607 -526q-264 0 -386 142t-74 384zM443 1507.5q-4 10.5 3 28.5q63 120 139.5 167.5t172.5 47.5 q50 0 110 -23.5t113 -47t88 -23.5q64 0 115 74q14 17 25 19.5t28 -7.5l86 -60q15 -10 17 -18t-7 -27q-66 -118 -137.5 -162t-159.5 -44q-47 0 -154 52t-149 52q-38 0 -69.5 -19.5t-71.5 -66.5q-26 -32 -57 -10l-80 53q-8 4 -12 14.5z" />
<glyph unicode="&#x169;" horiz-adv-x="1130" d="M61.5 212.5q2.5 46.5 7.5 80.5t15 88l115 586q10 45 51 45h231q45 0 35 -45l-102 -533q-15 -85 5 -119t85 -34q15 0 34 3t33.5 6.5t37.5 11.5t32.5 11.5t33 12.5t25.5 10l121 631q10 45 53 45h230q47 0 37 -45l-180 -922q-7 -45 -52 -45h-231q-40 0 -35 45l10 49l-4 2 q-80 -52 -173.5 -82t-166.5 -30q-60 0 -105 12t-73 30t-44 50t-22 61t-3.5 75.5zM281.5 1200.5q-3.5 10.5 3.5 28.5q64 120 139.5 167.5t171.5 47.5q50 0 110 -23.5t113 -47t88 -23.5q65 0 115 73q14 18 25 20.5t28 -7.5l86 -60q15 -10 17 -18t-7 -27 q-66 -118 -137.5 -162.5t-159.5 -44.5q-47 0 -154 52.5t-149 52.5q-38 0 -69.5 -19.5t-71.5 -66.5q-26 -32 -57 -10l-80 53q-8 4 -11.5 14.5z" />
<glyph unicode="&#x16a;" horiz-adv-x="1337" d="M152 508l157 807q10 47 56 47h239q25 0 32 -14.5t1 -32.5l-156 -801q-47 -244 156 -244q207 0 256 244l154 801q10 47 55 47h239q44 0 35 -47l-157 -807q-98 -526 -607 -526q-264 0 -386 142t-74 384zM522 1499l27 148q8 43 53 43h623q25 0 31.5 -9t3.5 -32l-31 -150 q-5 -24 -15 -33.5t-34 -9.5h-623q-46 0 -35 43z" />
<glyph unicode="&#x16b;" horiz-adv-x="1130" d="M61.5 212.5q2.5 46.5 7.5 80.5t15 88l115 586q10 45 51 45h231q45 0 35 -45l-102 -533q-15 -85 5 -119t85 -34q15 0 34 3t33.5 6.5t37.5 11.5t32.5 11.5t33 12.5t25.5 10l121 631q10 45 53 45h230q47 0 37 -45l-180 -922q-7 -45 -52 -45h-231q-40 0 -35 45l10 49l-4 2 q-80 -52 -173.5 -82t-166.5 -30q-60 0 -105 12t-73 30t-44 50t-22 61t-3.5 75.5zM348 1204l29 148q8 43 53 43h623q24 0 30.5 -9t1.5 -32l-30 -150q-3 -24 -13 -34.5t-34 -10.5h-625q-44 0 -35 45z" />
<glyph unicode="&#x16c;" horiz-adv-x="1337" d="M152 508l157 807q10 47 56 47h239q25 0 32 -14.5t1 -32.5l-156 -801q-47 -244 156 -244q207 0 256 244l154 801q10 47 55 47h239q44 0 35 -47l-157 -807q-98 -526 -607 -526q-264 0 -386 142t-74 384zM469.5 1693.5q2.5 24.5 28.5 41.5l86 57q24 15 38 12.5t31 -28.5 q84 -131 219 -131q134 0 269 135q25 25 40.5 28t35.5 -12l73 -55q17 -12 17.5 -27.5t-8 -30t-27.5 -38.5q-83 -112 -194 -170t-220 -58q-126 0 -232 58.5t-147 169.5q-12 24 -9.5 48.5z" />
<glyph unicode="&#x16d;" horiz-adv-x="1130" d="M61.5 212.5q2.5 46.5 7.5 80.5t15 88l115 586q10 45 51 45h231q45 0 35 -45l-102 -533q-15 -85 5 -119t85 -34q15 0 34 3t33.5 6.5t37.5 11.5t32.5 11.5t33 12.5t25.5 10l121 631q10 45 53 45h230q47 0 37 -45l-180 -922q-7 -45 -52 -45h-231q-40 0 -35 45l10 49l-4 2 q-80 -52 -173.5 -82t-166.5 -30q-60 0 -105 12t-73 30t-44 50t-22 61t-3.5 75.5zM312.5 1369.5q1.5 24.5 27.5 41.5l88 57q23 16 38 13t30 -29q87 -131 221 -131q131 0 266 135q26 26 40 29.5t38 -12.5l76 -58q17 -11 17.5 -27t-8.5 -30.5t-28 -38.5q-82 -112 -193.5 -168.5 t-222.5 -56.5q-125 0 -232 58.5t-146 168.5q-13 24 -11.5 48.5z" />
<glyph unicode="&#x16e;" horiz-adv-x="1337" d="M152 508l157 807q10 47 56 47h239q25 0 32 -14.5t1 -32.5l-156 -801q-47 -244 156 -244q207 0 256 244l154 801q10 47 55 47h239q44 0 35 -47l-157 -807q-98 -526 -607 -526q-264 0 -386 142t-74 384zM635 1591q0 89 46 157t113 101t140 33q96 0 159.5 -63.5t63.5 -155.5 q0 -119 -89.5 -202t-207.5 -83q-95 0 -160 59t-65 154zM807 1610q0 -34 20 -55t54 -21q42 0 77 34.5t35 80.5q0 34 -20.5 55.5t-54.5 21.5q-45 0 -78 -35t-33 -81z" />
<glyph unicode="&#x16f;" horiz-adv-x="1130" d="M61.5 212.5q2.5 46.5 7.5 80.5t15 88l115 586q10 45 51 45h231q45 0 35 -45l-102 -533q-15 -85 5 -119t85 -34q15 0 34 3t33.5 6.5t37.5 11.5t32.5 11.5t33 12.5t25.5 10l121 631q10 45 53 45h230q47 0 37 -45l-180 -922q-7 -45 -52 -45h-231q-40 0 -35 45l10 49l-4 2 q-80 -52 -173.5 -82t-166.5 -30q-60 0 -105 12t-73 30t-44 50t-22 61t-3.5 75.5zM475 1298q0 89 46 157t113 101t140 33q96 0 159.5 -63.5t63.5 -155.5q0 -119 -89.5 -202t-207.5 -83q-95 0 -160 59t-65 154zM647 1317q0 -34 20 -55t54 -21q42 0 77.5 34.5t35.5 80.5 q0 34 -21 56t-55 22q-45 0 -78 -35.5t-33 -81.5z" />
<glyph unicode="&#x170;" horiz-adv-x="1337" d="M152 508l157 807q10 47 56 47h239q25 0 32 -14.5t1 -32.5l-156 -801q-47 -244 156 -244q207 0 256 244l154 801q10 47 55 47h239q44 0 35 -47l-157 -807q-98 -526 -607 -526q-264 0 -386 142t-74 384zM512 1516q-20 28 14 49l361 254q24 15 38 12.5t21 -16.5l86 -146 q20 -37 -26 -61l-381 -193q-40 -21 -56 2zM983 1516q-20 28 14 49l361 254q41 28 61 -4l84 -146q19 -37 -24 -61l-383 -193q-20 -10 -30.5 -11t-23.5 13z" />
<glyph unicode="&#x171;" horiz-adv-x="1130" d="M61.5 212.5q2.5 46.5 7.5 80.5t15 88l115 586q10 45 51 45h231q45 0 35 -45l-102 -533q-15 -85 5 -119t85 -34q15 0 34 3t33.5 6.5t37.5 11.5t32.5 11.5t33 12.5t25.5 10l121 631q10 45 53 45h230q47 0 37 -45l-180 -922q-7 -45 -52 -45h-231q-40 0 -35 45l10 49l-4 2 q-80 -52 -173.5 -82t-166.5 -30q-60 0 -105 12t-73 30t-44 50t-22 61t-3.5 75.5zM408 1212l258 355q29 40 61 20l139 -90q37 -23 -2 -65l-301 -310q-28 -32 -57 -18l-94 59q-29 18 -4 49zM770 1212l258 355q30 40 62 20l137 -90q40 -22 0 -65l-301 -310q-29 -33 -58 -18 l-94 59q-29 18 -4 49z" />
<glyph unicode="&#x172;" horiz-adv-x="1337" d="M152 508l157 807q10 47 56 47h239q25 0 32 -14.5t1 -32.5l-156 -801q-47 -244 156 -244q207 0 256 244l154 801q10 47 55 47h239q44 0 35 -47l-157 -807q-95 -509 -576 -526q-68 -88 -68 -164q0 -51 74 -51q58 0 117 16q25 6 29 -14l12 -80q0 -20 -8 -29t-25 -16 q-99 -45 -211 -45q-97 0 -149 46t-52 122q0 63 24.5 117t78.5 112q-190 37 -272 172t-41 340z" />
<glyph unicode="&#x173;" horiz-adv-x="1130" d="M61.5 212.5q2.5 46.5 7.5 80.5t15 88l115 586q10 45 51 45h231q45 0 35 -45l-102 -533q-15 -85 5 -119t85 -34q15 0 34 3t33.5 6.5t37.5 11.5t32.5 11.5t33 12.5t25.5 10l121 631q10 45 53 45h230q47 0 37 -45l-180 -922q-7 -45 -52 -45h-49q-82 -101 -82 -182 q0 -51 74 -51q58 0 117 16q12 4 18.5 1.5t9.5 -15.5l13 -80q0 -20 -8 -29t-25 -16q-99 -45 -211 -45q-97 0 -149 46t-52 122q0 65 26 120t83 113q-35 2 -31 45l10 49l-4 2q-80 -52 -173.5 -82t-166.5 -30q-60 0 -105 12t-73 30t-44 50t-22 61t-3.5 75.5z" />
<glyph unicode="&#x174;" horiz-adv-x="1789" d="M203 1309q-6 53 45 53h221q35 0 50 -12.5t18 -44.5l24 -533l14 -321h11l104 225q6 9 80.5 164t79.5 168l-35 303q-2 21 7.5 36t29.5 15h219q35 0 51 -12t17 -45q37 -547 39 -574l14 -280h10l121 305l233 549q12 32 34 44.5t61 12.5h237q52 0 25 -55l-567 -1248 q-16 -30 -38.5 -44.5t-64.5 -14.5h-190q-43 0 -58 15t-20 46l-31 291l-20 183l-11 -3l-90 -180l-149 -291q-16 -32 -36 -46.5t-63 -14.5h-192q-75 0 -78 59zM628 1504q1 11 21 30l307 248q23 21 39 29t49 8h132q35 0 47.5 -6t25.5 -25l205 -254q13 -19 10 -30t-22 -27 l-70 -62q-22 -14 -31 -12.5t-26 16.5l-232 187l-317 -195q-19 -12 -27.5 -15.5t-17 -1.5t-16.5 13l-66 72q-12 14 -11 25z" />
<glyph unicode="&#x175;" horiz-adv-x="1550" d="M137 971q-6 41 41 41h215q27 0 38.5 -9t12.5 -36q18 -206 25 -342l20 -254h11q20 39 61.5 120.5t74.5 144.5t64 118l-30 211q0 47 39 47h215q30 0 39 -8.5t10 -42.5q1 -8 24 -238q13 -147 33 -332h8l105 230q25 60 76 174.5t73 167.5q12 29 25 39t37 10h245q28 0 32 -13 t-9 -32l-465 -930q-19 -37 -82 -37h-176q-30 0 -45 15.5t-18 50.5l-50 331h-6l-202 -356q-28 -41 -82 -41h-160q-38 0 -54 15.5t-22 54.5zM477.5 1176q1.5 11 20.5 30l305 277q18 15 25.5 20.5t24.5 11t40 5.5h131q36 0 49.5 -6.5t24.5 -26.5l198 -285q13 -21 10.5 -31 t-20.5 -24l-80 -66q-19 -15 -30.5 -14t-26.5 16l-227 217l-301 -217q-26 -15 -36 -16.5t-26 14.5l-70 70q-13 14 -11.5 25z" />
<glyph unicode="&#x176;" horiz-adv-x="1290" d="M197 1311q-6 21 3 36t31 15h228q34 0 47 -9.5t22 -39.5l82 -264l74 -254h12l174 256l174 245q20 27 29 37t26.5 19.5t39.5 9.5h272q16 0 22.5 -6.5t4 -16.5t-10.5 -22l-620 -823l-86 -449q-2 -17 -14 -31t-37 -14h-242q-47 0 -37 45l86 449zM421 1504q1 11 21 30l308 248 q23 21 39 29t49 8h131q35 0 47.5 -6t25.5 -25l205 -254q13 -19 10 -30t-22 -27l-70 -62q-22 -14 -31 -12.5t-26 16.5l-231 187l-318 -195q-19 -12 -27.5 -15.5t-17 -1.5t-16.5 13l-66 72q-12 14 -11 25z" />
<glyph unicode="&#x177;" horiz-adv-x="1067" d="M74.5 -389.5q-5.5 11.5 11.5 39.5l213 377l-170 934q-5 26 5 38.5t38 12.5h209q22 0 31 -1.5t16.5 -11t9.5 -30.5l39 -291l29 -277h10l148 281q99 198 147 287q10 23 26.5 33t51.5 10h221q33 0 37 -14t-12 -40l-742 -1312q-18 -28 -33.5 -37.5t-48.5 -9.5h-200 q-31 0 -36.5 11.5zM271 1176q1 11 20 30l305 277q18 15 25.5 20.5t24.5 11t40 5.5h131q36 0 49.5 -6.5t24.5 -26.5l199 -285q12 -21 9.5 -31t-20.5 -24l-80 -66q-19 -15 -30.5 -14t-26.5 16l-227 217l-301 -217q-26 -15 -36 -16.5t-26 14.5l-69 70q-13 14 -12 25z" />
<glyph unicode="&#x178;" horiz-adv-x="1290" d="M197 1311q-6 21 3 36t31 15h228q34 0 47 -9.5t22 -39.5l82 -264l74 -254h12l174 256l174 245q20 27 29 37t26.5 19.5t39.5 9.5h272q16 0 22.5 -6.5t4 -16.5t-10.5 -22l-620 -823l-86 -449q-2 -17 -14 -31t-37 -14h-242q-47 0 -37 45l86 449zM465 1518q0 196 184 196 q71 0 102 -23.5t31 -70.5q0 -195 -186 -195q-131 0 -131 93zM893 1518q0 196 186 196q70 0 100.5 -22.5t30.5 -69.5q0 -87 -42.5 -142t-143.5 -55q-131 0 -131 93z" />
<glyph unicode="&#x179;" horiz-adv-x="1124" d="M12 45l35 168q3 41 41 84l703 784h-492q-27 0 -34.5 11t-2.5 32l37 193q5 23 16.5 34t38.5 11h822q19 0 28.5 -12.5t5.5 -32.5l-30 -152q-10 -54 -50 -100l-704 -786h541q27 0 34.5 -11t2.5 -32l-37 -191q-5 -23 -16 -34t-38 -11h-864q-46 0 -37 45zM604 1548 q-15 27 23 49l377 220q43 22 59 -11l63 -157q9 -17 1 -34t-31 -26l-391 -157q-16 -8 -31 -7t-25 17z" />
<glyph unicode="&#x17a;" horiz-adv-x="960" d="M-18 43l24 131q7 43 49 80l516 506h-378q-44 0 -33 47l28 162q12 43 54 43h716q25 0 31.5 -9t3.5 -32l-26 -137q-10 -43 -49 -82l-508 -500h411q23 0 31 -10t4 -35l-31 -162q-9 -45 -51 -45h-758q-25 0 -32 10t-2 33zM520 1212l258 355q30 41 64 20l137 -90q40 -22 0 -65 l-303 -310q-30 -33 -55 -18l-97 59q-29 18 -4 49z" />
<glyph unicode="&#x17b;" horiz-adv-x="1124" d="M12 45l35 168q3 41 41 84l703 784h-492q-27 0 -34.5 11t-2.5 32l37 193q5 23 16.5 34t38.5 11h822q19 0 28.5 -12.5t5.5 -32.5l-30 -152q-10 -54 -50 -100l-704 -786h541q27 0 34.5 -11t2.5 -32l-37 -191q-5 -23 -16 -34t-38 -11h-864q-46 0 -37 45zM657 1567 q0 89 47 147t152 58q74 0 106.5 -26t32.5 -77q0 -38 -9 -71.5t-30 -65.5t-62 -51t-99 -19q-138 0 -138 105z" />
<glyph unicode="&#x17c;" horiz-adv-x="960" d="M-18 43l24 131q7 43 49 80l516 506h-378q-44 0 -33 47l28 162q12 43 54 43h716q25 0 31.5 -9t3.5 -32l-26 -137q-10 -43 -49 -82l-508 -500h411q23 0 31 -10t4 -35l-31 -162q-9 -45 -51 -45h-758q-25 0 -32 10t-2 33zM508 1233q0 89 47 147t152 58q74 0 106.5 -26 t32.5 -77q0 -38 -9 -71.5t-30 -65.5t-62.5 -51t-99.5 -19q-137 0 -137 105z" />
<glyph unicode="&#x17d;" horiz-adv-x="1124" d="M12 45l35 168q3 41 41 84l703 784h-492q-27 0 -34.5 11t-2.5 32l37 193q5 23 16.5 34t38.5 11h822q19 0 28.5 -12.5t5.5 -32.5l-30 -152q-10 -54 -50 -100l-704 -786h541q27 0 34.5 -11t2.5 -32l-37 -191q-5 -23 -16 -34t-38 -11h-864q-46 0 -37 45zM438 1747.5 q2 11.5 21 26.5l78 63q21 15 32.5 14t26.5 -16l217 -203l309 203q27 16 38 17t26 -15l69 -70q13 -12 12 -24t-22 -31l-305 -260q-21 -21 -37.5 -29t-50.5 -8h-131q-37 0 -50 6t-24 25l-198 270q-13 20 -11 31.5z" />
<glyph unicode="&#x17e;" horiz-adv-x="960" d="M-18 43l24 131q7 43 49 80l516 506h-378q-44 0 -33 47l28 162q12 43 54 43h716q25 0 31.5 -9t3.5 -32l-26 -137q-10 -43 -49 -82l-508 -500h411q23 0 31 -10t4 -35l-31 -162q-9 -45 -51 -45h-758q-25 0 -32 10t-2 33zM264 1429q3 11 21 25l80 66q19 15 30.5 14t26.5 -16 l217 -220l311 218q26 17 36 18.5t26 -14.5l69 -70q13 -14 12 -25t-20 -30l-305 -277q-23 -22 -39.5 -29.5t-50.5 -7.5h-131q-36 0 -49.5 6.5t-24.5 26.5l-199 285q-13 19 -10 30z" />
<glyph unicode="&#x192;" d="M-12 -115l32 125q8 32 19.5 38t40.5 1q49 -6 106 -6q38 0 64.5 13t45 44t29.5 63.5t25 90.5l94 379h-129q-26 0 -34 8t-7 33l15 139q2 28 9.5 36.5t33.5 8.5h160l49 199q88 344 397 344q122 0 231 -35q28 -10 15 -47l-43 -143q-7 -23 -17 -28.5t-34 -0.5q-57 8 -97 8 q-77 0 -110 -38.5t-56 -125.5l-30 -133h157q27 0 36.5 -7.5t6.5 -31.5l-12 -145q-1 -28 -9.5 -34.5t-37.5 -6.5h-188l-136 -539q-13 -56 -41 -107t-72 -96t-111.5 -71.5t-149.5 -26.5q-57 0 -126.5 11t-107.5 26q-31 10 -18 55z" />
<glyph unicode="&#x1a0;" horiz-adv-x="1447" d="M145 457q0 91 23 241q11 65 26 124t42.5 129.5t62.5 129t89 115t119 95.5t154.5 63t194.5 24q225 0 350 -98q70 1 101 35.5t51 134.5l20 106q3 17 11.5 23t25.5 6h174q15 0 20.5 -6t2.5 -23l-35 -178q-22 -115 -83 -192.5t-159 -106.5q26 -96 23 -211q0 -53 -17 -170 q-11 -80 -27 -148.5t-43.5 -143.5t-64 -134.5t-91.5 -115.5t-122.5 -93t-160 -59t-201.5 -22q-112 0 -197.5 25t-139.5 67t-88 104t-47.5 129.5t-13.5 149.5zM492 496q-3 -116 40.5 -172t141.5 -56q74 0 127.5 27t90.5 83t60.5 125.5t44.5 172.5q23 122 23 194 q3 116 -44 169t-153 53q-55 0 -99 -19t-76 -52.5t-57.5 -87t-43.5 -114.5t-33 -143q-19 -88 -22 -180z" />
<glyph unicode="&#x1a1;" horiz-adv-x="1222" d="M84 365q0 57 16 155q10 53 22 98t34 99t49.5 97t70.5 85t94.5 70t123.5 45.5t157 17.5q184 0 289 -78q58 6 85 41.5t46 128.5l21 107q3 18 11 23.5t25 5.5h175q15 0 20 -6t2 -23l-35 -178q-23 -113 -81 -190t-150 -105q8 -62 8 -94q0 -65 -14 -144q-8 -48 -16 -85 t-21.5 -84t-29 -82.5t-39.5 -75.5t-52.5 -69t-68.5 -56.5t-87 -45t-108.5 -28t-132.5 -10.5q-414 0 -414 381zM408 387q0 -70 27 -100.5t89 -30.5q50 0 85.5 16.5t58 52t35.5 77.5t24 106q14 79 14 123q0 67 -29.5 97t-95.5 30q-89 0 -130 -62t-64 -188q-14 -79 -14 -121z " />
<glyph unicode="&#x1af;" horiz-adv-x="1505" d="M152 508l157 807q10 47 56 47h239q25 0 32 -14.5t1 -32.5l-156 -801q-47 -244 156 -244q207 0 256 244l154 801q10 47 55 47h239q44 0 35 -47l-8 -35q46 9 69.5 45t41.5 121l20 106q3 17 11.5 23t25.5 6h174q15 0 20.5 -6t2.5 -23l-35 -178q-27 -140 -110.5 -223.5 t-219.5 -87.5q-14 -2 -41 -2l-108 -553q-98 -526 -607 -526q-264 0 -386 142t-74 384z" />
<glyph unicode="&#x1b0;" horiz-adv-x="1363" d="M61.5 212.5q2.5 46.5 7.5 80.5t15 88l115 586q10 45 51 45h231q45 0 35 -45l-102 -533q-15 -85 5 -119t85 -34q15 0 34 3t33.5 6.5t37.5 11.5t32.5 11.5t33 12.5t25.5 10l121 631q10 45 53 45h230q47 0 37 -45l-4 -17q57 6 83.5 41.5t43.5 126.5l20 107q3 17 11.5 22.5 t25.5 5.5h174q16 0 21 -5.5t2 -22.5l-35 -178q-27 -140 -110.5 -224t-219.5 -88q-16 -2 -49 -2h-10l-133 -688q-7 -45 -52 -45h-231q-40 0 -35 45l10 49l-4 2q-80 -52 -173.5 -82t-166.5 -30q-60 0 -105 12t-73 30t-44 50t-22 61t-3.5 75.5z" />
<glyph unicode="&#x1fc;" horiz-adv-x="1853" d="M-66 53l824 1256q19 32 38 42.5t62 10.5h985q21 0 31.5 -12t7.5 -33l-29 -193q-3 -43 -51 -43h-516l-33 -237h457q20 0 31 -12.5t8 -32.5l-27 -193q-7 -41 -51 -41h-459l-38 -286h532q21 0 31.5 -12.5t7.5 -33.5l-27 -192q-3 -21 -13.5 -31t-35.5 -10h-821q-46 0 -39 43 l37 264h-389l-168 -260q-20 -26 -39.5 -36.5t-48.5 -10.5h-254q-51 0 -13 53zM627 565h254l73 512h-4zM1169 1548q-15 27 23 49l377 220q43 22 59 -11l64 -157q9 -17 0.5 -34t-31.5 -26l-391 -157q-16 -8 -31 -7t-25 17z" />
<glyph unicode="&#x1fd;" horiz-adv-x="1712" d="M49 207q0 206 129.5 311t347.5 105q8 0 217 -11q1 9 8 38t7 46q0 40 -35 58t-125 18q-120 0 -268 -18q-28 -7 -50 -2t-22 36q0 18 -1 55t-1 56q0 27 16.5 45.5t65.5 34.5q69 24 174.5 37.5t187.5 13.5q214 0 285 -88q119 82 315 82q164 0 268.5 -70.5t104.5 -201.5 q0 -340 -557 -367q-53 0 -78 -2q-12 -36 -12 -66q0 -26 9.5 -42.5t31 -24.5t42.5 -10.5t56 -3.5q148 0 293 16q21 2 37 1.5t25.5 -11.5t9.5 -35v-86q0 -41 -13.5 -57.5t-56.5 -34.5q-63 -23 -166.5 -35t-199.5 -12q-257 0 -342 147q-216 -145 -453 -145q-74 0 -124.5 17 t-77 49t-37.5 69.5t-11 87.5zM379 287q1 -36 21 -51t63 -15q41 0 108.5 20.5t118.5 45.5q4 86 12 131q-86 6 -155 6q-168 0 -168 -137zM928 1212l258 355q30 41 63 20l137 -90q40 -22 0 -65l-303 -310q-30 -33 -55 -18l-96 59q-29 18 -4 49zM1069 588q29 0 43 2 q231 17 231 125q0 30 -24 47.5t-68 17.5q-75 0 -116 -50t-66 -142z" />
<glyph unicode="&#x1fe;" horiz-adv-x="1406" d="M73.5 38q2.5 12 20.5 30l109 112q-58 105 -58 277q0 91 23 241q11 65 26 124t42.5 129.5t62.5 129t89 115t119 95.5t154.5 63t194.5 24q253 0 379 -123l88 93q21 22 31 25t24 -11q2 -1 18.5 -15.5t18.5 -15.5q14 -15 12.5 -25t-20.5 -30l-107 -111q61 -115 58 -297 q0 -53 -17 -170q-11 -80 -27 -148.5t-43.5 -143.5t-64 -134.5t-91.5 -115.5t-122.5 -93t-160 -59t-201.5 -22q-242 0 -361 110l-94 -98q-19 -19 -29.5 -22t-27.5 10l-35 30q-13 14 -10.5 26zM492 481l503 527q-43 84 -172 84q-55 0 -99 -19t-76 -52.5t-57.5 -87 t-43.5 -114.5t-33 -143q-19 -88 -22 -180v-15zM516 348q41 -80 158 -80q74 0 127.5 27t90.5 83t60.5 125.5t44.5 172.5q23 122 23 194v2zM776 1548q-15 27 23 49l377 220q43 22 59 -11l63 -157q9 -17 1 -34t-31 -26l-391 -157q-16 -8 -31 -7t-25 17z" />
<glyph unicode="&#x1ff;" horiz-adv-x="1122" d="M44 30.5q2 9.5 17 26.5l78 80q-55 85 -55 228q0 57 16 155q10 53 22 98t34 99t49.5 97t70.5 85t94.5 70t123.5 45.5t157 17.5q182 0 289 -76l90 93q19 19 28.5 21t24.5 -11l33 -31q14 -16 13 -24t-19 -27l-96 -98q53 -87 53 -215q0 -65 -14 -144q-8 -48 -16 -85 t-21.5 -84t-29 -82.5t-39.5 -75.5t-52.5 -69t-68.5 -56.5t-87 -45t-108.5 -28t-132.5 -10.5q-182 0 -287 75l-72 -73q-15 -13 -19.5 -16.5t-13.5 -3.5t-20 9l-31 31q-13 15 -11 24.5zM408 412l307 313q-29 33 -99 33q-89 0 -130 -62t-64 -188q-12 -72 -14 -96zM434 287 q24 -31 90 -31q50 0 85.5 16.5t58 52t35.5 77.5t24 106q9 51 12 90zM594 1212l258 355q30 41 63 20l138 -90q40 -22 0 -65l-303 -310q-30 -34 -56 -18l-96 59q-29 18 -4 49z" />
<glyph unicode="&#x218;" horiz-adv-x="1187" d="M35.5 84.5q-6.5 20.5 7.5 48.5l47 123q14 39 32 46t58 -1q178 -29 352 -29q108 0 170.5 35.5t63.5 106.5q1 49 -33.5 73.5t-124.5 47.5q-74 22 -122 39t-101.5 42t-85.5 52t-60 64t-40.5 85.5t-12.5 108.5q0 114 47 202t129 140.5t184 79t220 26.5q253 0 385 -59 q43 -19 50 -39.5t-9 -48.5l-49 -123q-17 -39 -37 -44.5t-62 1.5q-161 22 -303 22q-33 0 -59.5 -3t-53 -11.5t-44.5 -22t-29.5 -37t-11.5 -55.5q0 -42 33.5 -63t121.5 -41q50 -11 87 -21t84.5 -27.5t81 -37t69 -49t57 -64.5t35.5 -83t14 -105q0 -105 -33 -187.5t-89.5 -137 t-137.5 -90t-173 -51t-199 -15.5q-91 0 -210.5 14.5t-199.5 48.5q-42 19 -48.5 39.5zM237.5 -577.5q3.5 10.5 36.5 42.5q82 70 82 142q0 53 -34 102q-22 26 -18.5 48t42.5 48l152 101q23 16 40 17t28 -7t28 -27q51 -59 51 -168q0 -66 -25 -130.5t-66 -115t-87.5 -90 t-95.5 -65.5q-49 -25 -76 10l-43 56q-18 26 -14.5 36.5z" />
<glyph unicode="&#x219;" horiz-adv-x="997" d="M14.5 67q-10.5 21 8.5 62l40 98q12 30 25.5 36.5t46.5 0.5q149 -26 287 -26q77 0 115 18t41 63q3 34 -20 47.5t-77 24.5q-63 11 -108 22t-93.5 33t-79 50.5t-50 74t-19.5 103.5q0 80 26.5 143t71.5 102.5t108.5 65.5t132 36.5t148.5 10.5q74 0 163 -12.5t147 -34.5 q29 -10 41.5 -18.5t19 -25.5t-7.5 -42l-45 -106q-11 -29 -22 -35t-48 -2q-182 21 -280 24q-68 1 -96.5 -16t-30.5 -55q-2 -20 17 -34t39.5 -19.5t53.5 -10.5q59 -9 101.5 -18.5t90.5 -30t78 -48.5t50 -73t20 -104q0 -389 -520 -389q-77 0 -168.5 12.5t-148.5 32.5 q-47 19 -57.5 40zM145.5 -577.5q3.5 10.5 36.5 42.5q82 70 82 142q0 52 -35 102q-22 26 -18 48t43 48l152 101q23 16 40 17t28 -7t28 -27q51 -59 51 -168q0 -66 -25 -130.5t-66 -115t-87.5 -90t-95.5 -65.5q-49 -25 -76 10l-43 56q-18 26 -14.5 36.5z" />
<glyph unicode="&#x21a;" horiz-adv-x="1062" d="M147.5 -577.5q3.5 10.5 36.5 42.5q82 70 82 142q0 52 -35 102q-22 26 -18 48t43 48l152 101q23 16 40 17t28 -7t28 -27q51 -59 51 -168q0 -66 -25 -130.5t-66 -115t-87.5 -90t-95.5 -65.5q-49 -25 -76 10l-43 56q-18 26 -14.5 36.5zM160 1124l37 193q5 23 16.5 34 t38.5 11h926q20 0 29.5 -12.5t4.5 -32.5l-36 -193q-10 -43 -56 -43h-297l-202 -1036q-5 -45 -50 -45h-241q-46 0 -39 45l201 1036h-295q-26 0 -33 11t-4 32z" />
<glyph unicode="&#x21b;" horiz-adv-x="837" d="M41 -577.5q4 10.5 37 42.5q82 70 82 142q0 52 -35 102q-22 26 -18 48t43 48l151 101q23 16 40 17t28 -7t28 -27q52 -60 52 -168q0 -66 -25 -130.5t-66.5 -115t-88 -90t-95.5 -65.5q-49 -25 -76 10l-43 56q-18 26 -14 36.5zM125 811l31 154q5 24 16 34.5t35 10.5h92 l39 200q7 41 55 54l217 55q24 8 36.5 -1.5t8.5 -33.5l-53 -274h209q26 0 33 -10t2 -33l-31 -156q-5 -25 -15 -35t-36 -10h-211l-72 -381q-9 -39 -7 -63t27 -35.5t83 -12.5q28 0 143 9q29 0 35 -7q7 -9 6 -36l-10 -148q1 -22 -13.5 -40.5t-35.5 -24.5q-136 -43 -308 -43 q-75 0 -127 18t-78.5 47t-38 73.5t-9.5 88t12 98.5l90 457h-90q-24 0 -32 10.5t-3 34.5z" />
<glyph unicode="&#x259;" horiz-adv-x="1087" d="M70 256q0 358 639 383q8 21 8 51q0 23 -9 38.5t-22 24t-37 13t-45 5.5t-55 1q-115 0 -285 -18q-26 -4 -38.5 2.5t-12.5 31.5v99q0 41 13.5 57.5t58.5 34.5q63 23 165.5 35t198.5 12q184 0 287.5 -83t103.5 -261q0 -120 -39 -262q-18 -69 -43 -126t-70 -117t-104 -101 t-149 -67.5t-201 -26.5q-100 0 -180.5 29t-132 92.5t-51.5 152.5zM401 293q0 -30 24.5 -48t66.5 -18q35 0 63.5 13.5t46.5 31.5t34 49t24 54.5t18 58.5q-277 -18 -277 -141z" />
<glyph unicode="&#x2b9;" horiz-adv-x="622" d="M164 866l368 578q18 31 64 16l168 -90q39 -16 2 -59l-416 -543q-24 -28 -49 -18l-131 67q-26 13 -6 49z" />
<glyph unicode="&#x2c6;" horiz-adv-x="1110" d="M273 1176q1 11 20 30l305 277q18 15 25.5 20.5t24.5 11t40 5.5h131q36 0 49.5 -6.5t24.5 -26.5l199 -285q12 -21 9.5 -31t-20.5 -24l-80 -66q-19 -15 -30.5 -14t-26.5 16l-227 217l-301 -217q-26 -15 -36 -16.5t-26 14.5l-69 70q-13 14 -12 25z" />
<glyph unicode="&#x2c7;" horiz-adv-x="1105" d="M337.5 1429q2.5 11 20.5 25l80 66q19 15 31 14t27 -16l217 -220l311 218q26 17 35.5 18.5t25.5 -14.5l70 -70q13 -14 12 -25t-20 -30l-305 -277q-23 -22 -39.5 -29.5t-50.5 -7.5h-131q-36 0 -49.5 6.5t-24.5 26.5l-199 285q-13 19 -10.5 30z" />
<glyph unicode="&#x2d8;" horiz-adv-x="1101" d="M318.5 1369.5q1.5 24.5 27.5 41.5l88 57q23 16 38 13t30 -29q87 -131 221 -131q131 0 266 135q26 26 40 29.5t38 -12.5l76 -58q17 -11 17.5 -27t-8.5 -30.5t-28 -38.5q-82 -112 -193 -168.5t-222 -56.5q-125 0 -232.5 58.5t-146.5 168.5q-13 24 -11.5 48.5z" />
<glyph unicode="&#x2d9;" horiz-adv-x="1099" d="M557 1233q0 89 47 147t152 58q74 0 106.5 -26t32.5 -77q0 -38 -9 -71.5t-30 -65.5t-62.5 -51t-99.5 -19q-137 0 -137 105z" />
<glyph unicode="&#x2da;" horiz-adv-x="7600" d="M0 287q0 57 21 107t66.5 93.5t130 69t200.5 25.5h200v75q0 164 -200 164q-64 0 -138 -14.5t-116 -29.5l-41 -15l-41 168q176 71 397 71q174 0 259 -65t85 -219v-680q-65 0 -113 5.5t-69.5 11t-22.5 5.5q-4 -3 -12.5 -7.5t-37 -17t-59 -22t-79 -17t-98.5 -7.5 q-66 0 -122.5 15.5t-105 48.5t-76.5 93t-28 142zM213 299q0 -76 44 -103.5t124 -27.5q59 0 131.5 16.5t105.5 42.5v203h-227q-178 0 -178 -131zM1102 0l94 993q71 8 104 8q32 0 49 -1t40.5 -5.5t37 -14t28 -27.5t24.5 -44l186 -473q14 -42 18 -69q6 28 23 71l190 471 q26 63 56 77.5t104 14.5l115 -8l96 -993h-225l-45 670l-207 -502q-12 -30 -35.5 -46t-73.5 -16q-53 0 -77.5 15.5t-36.5 46.5l-193 502l-59 -670h-213zM2472 287q0 57 21 107t66.5 93.5t130 69t200.5 25.5h200v75q0 164 -200 164q-64 0 -138 -14.5t-116 -29.5l-41 -15 l-41 168q176 71 397 71q174 0 259 -65t85 -219v-680q-65 0 -113 5.5t-69.5 11t-22.5 5.5q-4 -3 -12.5 -7.5t-37 -17t-59 -22t-79 -17t-98.5 -7.5q-66 0 -122.5 15.5t-105 48.5t-76.5 93t-28 142zM2685 299q0 -76 44 -103.5t124 -27.5q59 0 131.5 16.5t105.5 42.5v203h-227 q-178 0 -178 -131zM3625 18v924q157 59 389 59q236 0 372 -131t136 -362q0 -267 -126.5 -394.5t-412.5 -127.5q-198 0 -358 32zM3834 180q74 -16 164 -16t148 19.5t91.5 63.5t46.5 105.5t13 155.5q0 87 -22.5 152t-63 102.5t-89.5 55.5t-108 18q-95 0 -180 -13v-643z M4786 33v925q17 5 49 12t137 19t218 12q79 0 150 -4t102 -8l32 -4v-172q-120 25 -270 25q-53 0 -105 -4t-78 -8l-26 -3v-239h432v-162h-432v-242q12 -2 32.5 -4.5t79.5 -6.5t113 -3q72 1 139 7.5t97 12.5l31 7v-175q-105 -30 -328 -30q-93 0 -186 11t-140 23zM5741 373v614 q83 14 190 14h33v-593q0 -124 36 -177t144 -53q58 0 134 25.5t118 50.5v747h47q98 0 178 -14v-950q-59 0 -113 9.5t-78 18.5l-24 9q-2 0 -18.5 -9t-45.5 -21.5t-67 -25t-92 -21.5t-111 -9q-96 0 -161 23.5t-102 74t-52.5 119.5t-15.5 168zM6869 31l45 164q133 -31 268 -31 q195 0 195 117q0 14 -5 26t-19.5 23.5t-24.5 19t-35.5 19.5t-36.5 16.5t-43 17.5l-30 12q-42 17 -63 26t-58.5 27t-58 33t-47 38.5t-40 48t-23.5 58t-10 71.5q0 70 30.5 126t82.5 89.5t114.5 51t131.5 17.5q107 0 192 -21t123 -40l-45 -164q-15 7 -41 17.5t-93 27.5t-120 17 q-47 0 -79.5 -11.5t-46 -31t-18.5 -34.5t-5 -30q0 -34 29 -62t54.5 -40t89.5 -37q6 -3 9 -4q78 -33 128.5 -59.5t95 -62.5t65 -80t20.5 -99q0 -69 -25 -122.5t-64.5 -86.5t-94 -54.5t-108 -29.5t-111.5 -8q-87 0 -169 11t-120 23z" />
<glyph unicode="&#x2db;" horiz-adv-x="772" d="M82 -233q0 88 50.5 161.5t168.5 173.5q27 0 83 -1t83 -1v-2q-92 -94 -132 -158t-40 -122q0 -51 74 -51q57 0 116 16q25 6 29 -14l12 -80q0 -20 -7.5 -29t-24.5 -16q-99 -45 -211 -45q-97 0 -149 46t-52 122z" />
<glyph unicode="&#x2dc;" horiz-adv-x="1110" d="M279.5 1200.5q-3.5 10.5 3.5 28.5q64 120 139.5 167.5t171.5 47.5q50 0 110 -23.5t113 -47t88 -23.5q65 0 115 73q14 18 25 20.5t28 -7.5l86 -60q15 -10 17 -18t-7 -27q-66 -118 -137.5 -162.5t-159.5 -44.5q-47 0 -154 52.5t-149 52.5q-38 0 -69.5 -19.5t-71.5 -66.5 q-26 -32 -57 -10l-80 53q-8 4 -11.5 14.5z" />
<glyph unicode="&#x2dd;" horiz-adv-x="1220" d="M446 1212l259 355q29 40 61 20l139 -90q37 -23 -2 -65l-301 -310q-28 -32 -57 -18l-94 59q-29 18 -5 49zM809 1212l258 355q29 40 61 20l138 -90q40 -22 0 -65l-301 -310q-29 -33 -58 -18l-94 59q-29 18 -4 49z" />
<glyph unicode="&#x384;" horiz-adv-x="1093" d="M578 1212l258 355q30 41 63 20l137 -90q40 -22 0 -65l-303 -310q-30 -33 -55 -18l-96 59q-29 18 -4 49z" />
<glyph unicode="&#x385;" horiz-adv-x="1064" d="M209 1210q0 195 184 195q70 0 101.5 -22.5t31.5 -67.5q0 -40 -9.5 -73.5t-30 -63t-59 -46t-91.5 -16.5q-127 0 -127 94zM535 1192l225 377q26 43 61 26l146 -77q39 -19 6 -66l-275 -336q-25 -36 -53 -22l-102 49q-31 15 -8 49zM891 1210q0 195 184 195q70 0 101.5 -22.5 t31.5 -67.5q0 -87 -43.5 -143t-146.5 -56q-127 0 -127 94z" />
<glyph unicode="&#x386;" horiz-adv-x="1263" d="M-96 1022l258 354q31 41 63 21l137 -90q40 -23 0 -66l-303 -309q-30 -34 -55 -19l-96 60q-29 18 -4 49zM-60.5 9.5q-4.5 9.5 11.5 43.5l635 1250q17 32 35.5 45.5t56.5 13.5h258q39 0 51 -14t17 -48l167 -1251q2 -26 -4.5 -37.5t-27.5 -11.5h-244q-32 0 -43 14t-14 49 l-21 244h-407l-123 -250q-27 -57 -82 -57h-236q-25 0 -29.5 9.5zM528 557h267l-19 225l-16 250h-10l-117 -248z" />
<glyph unicode="&#x387;" horiz-adv-x="479" d="M137 725q0 89 47.5 147t153.5 58q76 0 109.5 -25.5t33.5 -77.5q0 -40 -9.5 -74.5t-30.5 -66.5t-62.5 -51t-99.5 -19q-142 0 -142 109z" />
<glyph unicode="&#x388;" horiz-adv-x="1138" d="M-260 1022l258 354q31 41 63 21l138 -90q40 -23 0 -66l-303 -309q-30 -34 -56 -19l-96 60q-29 18 -4 49zM61 45l248 1270q10 47 56 47h806q20 0 29 -12.5t4 -32.5l-37 -193q-7 -43 -51 -43h-522l-45 -237h455q44 0 34 -45l-37 -193q-7 -41 -51 -41h-454l-56 -286h537 q42 0 35 -46l-37 -192q-5 -21 -16 -31t-35 -10h-824q-46 0 -39 45z" />
<glyph unicode="&#x389;" horiz-adv-x="1320" d="M-256 1022l258 354q31 42 64 21l137 -90q40 -23 0 -66l-303 -309q-30 -34 -56 -19l-96 60q-29 18 -4 49zM61 37l248 1286q9 39 56 39h243q24 0 29.5 -10.5t1.5 -28.5l-90 -477h389l90 477q5 21 17 30t38 9h240q26 0 32.5 -10t2.5 -29l-248 -1286q-4 -37 -49 -37h-242 q-26 0 -34 8t-5 29l101 528h-387l-101 -528q-8 -37 -49 -37h-244q-26 0 -34 8t-5 29z" />
<glyph unicode="&#x38a;" horiz-adv-x="622" d="M-246 1022l258 354q31 42 64 21l137 -90q40 -23 0 -66l-303 -309q-30 -34 -55 -19l-97 60q-29 18 -4 49zM70 45l247 1270q10 47 56 47h241q42 0 33 -47l-246 -1270q-10 -45 -51 -45h-241q-46 0 -39 45z" />
<glyph unicode="&#x38c;" horiz-adv-x="1406" d="M-186 1022l258 354q31 41 63 21l137 -90q40 -23 0 -66l-303 -309q-30 -34 -55 -19l-96 60q-29 18 -4 49zM145 457q0 91 23 241q11 65 26 124t42.5 129.5t62.5 129t89 115t119 95.5t154.5 63t194.5 24q517 0 502 -510q0 -53 -17 -170q-11 -80 -27 -148.5t-43.5 -143.5 t-64 -134.5t-91.5 -115.5t-122.5 -93t-160 -59t-201.5 -22q-112 0 -197.5 25t-139.5 67t-88 104t-47.5 129.5t-13.5 149.5zM492 496q-3 -116 40.5 -172t141.5 -56q74 0 127.5 27t90.5 83t60.5 125.5t44.5 172.5q23 122 23 194q3 116 -44 169t-153 53q-55 0 -99 -19 t-76 -52.5t-57.5 -87t-43.5 -114.5t-33 -143q-19 -88 -22 -180z" />
<glyph unicode="&#x38e;" horiz-adv-x="1290" d="M-340 1022l258 354q31 42 64 21l137 -90q40 -23 0 -66l-303 -309q-30 -34 -56 -19l-96 60q-29 18 -4 49zM197 1311q-6 21 3 36t31 15h228q34 0 47 -9.5t22 -39.5l82 -264l74 -254h12l174 256l174 245q20 27 29 37t26.5 19.5t39.5 9.5h272q16 0 22.5 -6.5t4 -16.5 t-10.5 -22l-620 -823l-86 -449q-2 -17 -14 -31t-37 -14h-242q-47 0 -37 45l86 449z" />
<glyph unicode="&#x38f;" horiz-adv-x="1415" d="M-197 1022l258 354q31 42 64 21l137 -90q40 -23 0 -66l-303 -309q-30 -34 -55 -19l-97 60q-29 18 -4 49zM25 45l36 186q3 21 14.5 31t37.5 10h123l2 2q-46 40 -65 127.5t-15 171.5q3 155 47 299q25 81 60 151t91 136.5t125 113t165.5 75t209.5 28.5q514 0 514 -487 q0 -116 -22 -215q-60 -287 -215 -398v-4h127q18 0 27 -5.5t9 -14.5t-2 -21l-37 -186q-9 -45 -61 -45h-453q-46 0 -36 45l34 184q2 10 6 18.5t11 16.5t10.5 11.5t12.5 11t10 8.5q86 60 137.5 147t77.5 217q20 88 24 197q2 118 -47.5 176t-159.5 58q-67 0 -119 -30 t-88.5 -88.5t-60.5 -130.5t-43 -169q-15 -94 -18 -166q-3 -142 69 -191q8 -7 11 -9.5t10 -12.5t5.5 -18t-1.5 -25l-39 -205q-3 -13 -6 -20t-14.5 -16t-30.5 -9h-439q-26 0 -32.5 11t-1.5 34z" />
<glyph unicode="&#x390;" horiz-adv-x="569" d="M-39 1210q0 195 184 195q70 0 102 -22.5t32 -67.5q0 -55 -16 -97t-60.5 -72t-114.5 -30q-127 0 -127 94zM49 45l178 922q9 45 56 45h229q43 0 33 -45l-178 -922q-5 -45 -52 -45h-229q-47 0 -37 45zM287 1192l225 377q26 43 61 26l146 -77q39 -19 6 -66l-274 -336 q-25 -36 -54 -22l-102 49q-31 15 -8 49zM643 1210q0 195 184 195q70 0 102 -22.5t32 -67.5q0 -87 -44 -143t-147 -56q-127 0 -127 94z" />
<glyph unicode="&#x391;" horiz-adv-x="1263" d="M-60.5 9.5q-4.5 9.5 11.5 43.5l635 1250q17 32 35.5 45.5t56.5 13.5h258q39 0 51 -14t17 -48l167 -1251q2 -26 -4.5 -37.5t-27.5 -11.5h-244q-32 0 -43 14t-14 49l-21 244h-407l-123 -250q-27 -57 -82 -57h-236q-25 0 -29.5 9.5zM528 557h267l-19 225l-16 250h-10 l-117 -248z" />
<glyph unicode="&#x392;" horiz-adv-x="1263" d="M57 45l248 1270q7 45 55 45l510 2q112 0 194.5 -33.5t130.5 -109t44 -187.5q-1 -52 -23.5 -109t-71.5 -114.5t-116 -91.5l-2 -8q148 -73 139 -271q-6 -195 -145 -316.5t-342 -121.5h-580q-27 0 -35.5 11.5t-5.5 33.5zM436 279h201q85 0 134 46t52 117q3 56 -31.5 92.5 t-103.5 36.5h-196zM545 838h186q65 0 109.5 37.5t48.5 95.5q3 53 -24.5 82.5t-94.5 29.5h-180z" />
<glyph unicode="&#x393;" horiz-adv-x="1073" d="M61 45l246 1272q11 45 55 45h797q22 0 32 -12.5t5 -32.5l-37 -193q-10 -43 -55 -43h-510l-201 -1036q-2 -17 -13.5 -31t-35.5 -14h-244q-46 0 -39 45z" />
<glyph unicode="&#x394;" horiz-adv-x="1263" d="M-55 29q0 6 8 22q54 107 639 1249q17 33 36 46.5t60 13.5h242q41 0 52.5 -13t16.5 -49q42 -295 172 -1251q3 -9 3 -18q-7 -29 -35 -29h-1168q-33 0 -26 29zM385 268h436q-5 74 -28.5 349t-32.5 407h-10q-56 -130 -121 -262q-17 -37 -123 -251t-121 -243z" />
<glyph unicode="&#x395;" horiz-adv-x="1138" d="M61 45l248 1270q10 47 56 47h806q20 0 29 -12.5t4 -32.5l-37 -193q-7 -43 -51 -43h-522l-45 -237h455q44 0 34 -45l-37 -193q-7 -41 -51 -41h-454l-56 -286h537q42 0 35 -46l-37 -192q-5 -21 -16 -31t-35 -10h-824q-46 0 -39 45z" />
<glyph unicode="&#x396;" horiz-adv-x="1124" d="M12 45l35 168q3 41 41 84l703 784h-492q-27 0 -34.5 11t-2.5 32l37 193q5 23 16.5 34t38.5 11h822q19 0 28.5 -12.5t5.5 -32.5l-30 -152q-10 -54 -50 -100l-704 -786h541q27 0 34.5 -11t2.5 -32l-37 -191q-5 -23 -16 -34t-38 -11h-864q-46 0 -37 45z" />
<glyph unicode="&#x397;" horiz-adv-x="1320" d="M61 37l248 1286q9 39 56 39h243q24 0 29.5 -10.5t1.5 -28.5l-90 -477h389l90 477q5 21 17 30t38 9h240q26 0 32.5 -10t2.5 -29l-248 -1286q-4 -37 -49 -37h-242q-26 0 -34 8t-5 29l101 528h-387l-101 -528q-8 -37 -49 -37h-244q-26 0 -34 8t-5 29z" />
<glyph unicode="&#x398;" horiz-adv-x="1411" d="M145 457q0 91 23 241q11 65 26 124t42.5 129.5t62.5 129t89 115t119 95.5t154.5 63t194.5 24q517 0 502 -510q0 -53 -17 -170q-11 -80 -27 -148.5t-43.5 -143.5t-64 -134.5t-91.5 -115.5t-122.5 -93t-160 -59t-201.5 -22q-112 0 -197.5 25t-139.5 67t-88 104t-47.5 129.5 t-13.5 149.5zM492 496q-3 -116 40.5 -172t141.5 -56q74 0 127.5 27t90.5 83t60.5 125.5t44.5 172.5q23 122 23 194q3 116 -44 169t-153 53q-55 0 -99 -19t-76 -52.5t-57.5 -87t-43.5 -114.5t-33 -143q-19 -88 -22 -180zM567 598l33 176q8 43 53 43h248q23 0 33 -11.5 t4 -31.5l-35 -176q-9 -43 -53 -43h-248q-20 0 -29.5 11t-5.5 32z" />
<glyph unicode="&#x399;" horiz-adv-x="622" d="M70 45l247 1270q10 47 56 47h241q42 0 33 -47l-246 -1270q-10 -45 -51 -45h-241q-46 0 -39 45z" />
<glyph unicode="&#x39a;" horiz-adv-x="1265" d="M49 45l246 1270q10 47 55 47h244q42 0 33 -47l-90 -457h6l166 180l276 283q24 22 44 31.5t50 9.5h303q25 0 32 -16t-17 -41l-541 -541l315 -701q11 -31 -0.5 -47t-35.5 -16h-252q-35 0 -52.5 13.5t-27.5 39.5l-195 465l-176 -178l-53 -295q-2 -17 -13.5 -31t-35.5 -14 h-244q-44 0 -37 45z" />
<glyph unicode="&#x39b;" horiz-adv-x="1263" d="M-55 29q0 6 8 22q54 107 639 1249q17 33 36 46.5t60 13.5h242q41 0 52.5 -13t16.5 -49q42 -295 172 -1251q3 -9 3 -18q-7 -29 -35 -29h-252q-31 0 -42 13.5t-14 47.5q-7 73 -20.5 213t-24 258.5t-18.5 223.5q-4 40 -7.5 87t-7 101t-5.5 80h-11q-78 -180 -119 -262 q-25 -56 -171 -356.5t-171 -350.5q-14 -31 -33 -43t-48 -12h-224q-33 0 -26 29z" />
<glyph unicode="&#x39c;" horiz-adv-x="1591" d="M61 45l248 1272q10 43 53 43h166q41 0 57 -10t25 -37q46 -143 86 -291q58 -190 119 -422h10q23 38 142.5 215t134.5 199l207 297q21 27 41 38t61 11h182q44 0 33 -43l-248 -1272q-4 -45 -51 -45h-233q-42 0 -35 45l119 610h-7q-1 -2 -54.5 -83.5t-59.5 -92.5 q-117 -172 -158 -229q-2 -3 -7 -9.5t-7 -9t-6.5 -8t-6.5 -7.5t-6.5 -6t-8 -5.5t-8.5 -4t-10 -3t-11 -1.5t-13 -1h-131q-12 0 -20.5 2t-13 3.5t-9.5 8.5t-6 9t-6 14.5t-6 15.5l-64 221l-53 190l-4 -2l-119 -612q-9 -45 -49 -45h-234q-46 0 -39 45z" />
<glyph unicode="&#x39d;" horiz-adv-x="1366" d="M59 31q0 2 1 7t1 7l246 1270q11 45 55 45h170q30 0 47.5 -8.5t22.5 -17t16 -31.5l316 -725h8q49 266 139 735q9 47 52 47h233q39 0 39 -31q0 -10 -2 -16q-84 -422 -248 -1270q-7 -43 -53 -43h-170q-33 0 -51 12t-29 37l-207 475l-113 269h-6l-143 -748q-9 -45 -51 -45 h-234q-39 0 -39 31z" />
<glyph unicode="&#x39e;" horiz-adv-x="1183" d="M6 41l37 192q5 21 19 33.5t34 12.5h305l56 286h-213q-44 0 -37 41l37 193q3 20 18 32.5t35 12.5h215l45 237h-285q-44 0 -34 43l36 193q3 20 18.5 32.5t35.5 12.5h891q20 0 29.5 -12.5t4.5 -32.5l-36 -193q-10 -43 -54 -43h-282l-47 -237h213q21 0 31 -12t5 -33l-36 -193 q-7 -41 -54 -41h-213l-55 -286h303q20 0 30 -13t5 -33l-37 -192q-10 -41 -51 -41h-932q-44 0 -37 41z" />
<glyph unicode="&#x39f;" horiz-adv-x="1406" d="M145 457q0 91 23 241q11 65 26 124t42.5 129.5t62.5 129t89 115t119 95.5t154.5 63t194.5 24q517 0 502 -510q0 -53 -17 -170q-11 -80 -27 -148.5t-43.5 -143.5t-64 -134.5t-91.5 -115.5t-122.5 -93t-160 -59t-201.5 -22q-112 0 -197.5 25t-139.5 67t-88 104t-47.5 129.5 t-13.5 149.5zM492 496q-3 -116 40.5 -172t141.5 -56q74 0 127.5 27t90.5 83t60.5 125.5t44.5 172.5q23 122 23 194q3 116 -44 169t-153 53q-55 0 -99 -19t-76 -52.5t-57.5 -87t-43.5 -114.5t-33 -143q-19 -88 -22 -180z" />
<glyph unicode="&#x3a0;" horiz-adv-x="1320" d="M61 45l248 1270q10 47 56 47h958q44 0 35 -47l-248 -1270q-5 -45 -49 -45h-242q-46 0 -39 45l201 1036h-387l-201 -1036q-10 -45 -49 -45h-244q-46 0 -39 45z" />
<glyph unicode="&#x3a1;" horiz-adv-x="1153" d="M57 45l248 1272q7 45 55 45l453 -2q182 0 293 -94t111 -275q0 -96 -32 -181.5t-95 -156.5t-170.5 -113t-245.5 -42h-197l-88 -453q-10 -45 -51 -45h-242q-46 0 -39 45zM528 768h148q82 0 139 50.5t57 142.5q0 120 -145 120h-137z" />
<glyph unicode="&#x3a3;" horiz-adv-x="1081" d="M14 43l27 137q6 32 19.5 56t48.5 69l313 393l-186 371q-26 51 -13 109l25 129q5 22 20 36.5t37 14.5h832q27 0 33.5 -11t3.5 -34l-37 -187q-3 -21 -15 -32t-39 -11h-514l162 -309q32 -51 27 -80q-4 -18 -31 -51l-309 -373h540q26 0 33 -10t4 -31l-37 -186q-6 -43 -53 -43 h-856q-44 0 -35 43z" />
<glyph unicode="&#x3a4;" horiz-adv-x="1062" d="M160 1124l37 193q5 23 16.5 34t38.5 11h926q20 0 29.5 -12.5t4.5 -32.5l-36 -193q-10 -43 -56 -43h-297l-202 -1036q-5 -45 -50 -45h-241q-46 0 -39 45l201 1036h-295q-26 0 -33 11t-4 32z" />
<glyph unicode="&#x3a5;" horiz-adv-x="1290" d="M197 1311q-6 21 3 36t31 15h228q34 0 47 -9.5t22 -39.5l82 -264l74 -254h12l174 256l174 245q20 27 29 37t26.5 19.5t39.5 9.5h272q16 0 22.5 -6.5t4 -16.5t-10.5 -22l-620 -823l-86 -449q-2 -17 -14 -31t-37 -14h-242q-47 0 -37 45l86 449z" />
<glyph unicode="&#x3a6;" horiz-adv-x="1691" d="M150 569q0 99 22 190t74.5 179t132 156.5t201 118.5t274.5 69l10 43q5 21 13.5 28t31.5 7h250q39 0 31 -41l-6 -39q101 -9 180.5 -38.5t130.5 -71t85 -97t48 -112.5t14 -121q0 -105 -22.5 -200t-74.5 -184t-129.5 -158t-194.5 -117.5t-263 -65.5l-14 -74q-8 -41 -51 -41 h-246q-24 0 -32 9t-3 28l17 74q-109 10 -193.5 42t-137.5 76t-87 102t-47.5 116t-13.5 122zM492 604q0 -188 188 -215l121 617q-140 -12 -224.5 -129t-84.5 -273zM1012 391q91 10 160 69.5t104 146.5t35 186q0 182 -181 211z" />
<glyph unicode="&#x3a7;" horiz-adv-x="1204" d="M-48.5 18q-2.5 18 17.5 41l496 635l-232 609q-9 27 1.5 43t39.5 16h244q31 0 41.5 -8.5t20.5 -36.5l53 -178l53 -187l129 197l115 164q17 27 33.5 37t42.5 10h282q22 0 32.5 -4.5t10 -13.5t-4 -16.5t-11.5 -18.5l-481 -613l251 -639q18 -55 -38 -55h-246q-28 0 -42.5 9 t-23.5 36l-57 186l-64 218l-139 -222l-125 -178q-20 -28 -39 -38.5t-49 -10.5h-280q-28 0 -30.5 18z" />
<glyph unicode="&#x3a8;" horiz-adv-x="1634" d="M191 693.5q-3 80.5 12 172.5l86 449q7 47 53 47h236q48 0 34 -47l-90 -473q-23 -116 19.5 -184t140.5 -76l143 733q7 47 54 47h241q44 0 35 -47l-143 -733q97 12 169 80t93 180l92 473q10 47 55 47h230q44 0 35 -47l-91 -473q-24 -120 -67.5 -211t-117 -164.5t-187 -115 t-265.5 -48.5l-51 -258q-2 -17 -14 -31t-37 -14h-242q-25 0 -32 11.5t-4 33.5l51 258q-106 7 -188 39t-134 83t-82.5 119.5t-33.5 149z" />
<glyph unicode="&#x3a9;" horiz-adv-x="1415" d="M25 45l36 186q3 21 14.5 31t37.5 10h123l2 2q-46 40 -65 127.5t-15 171.5q3 155 47 299q25 81 60 151t91 136.5t125 113t165.5 75t209.5 28.5q514 0 514 -487q0 -116 -22 -215q-60 -287 -215 -398v-4h127q18 0 27 -5.5t9 -14.5t-2 -21l-37 -186q-9 -45 -61 -45h-453 q-46 0 -36 45l34 184q2 10 6 18.5t11 16.5t10.5 11.5t12.5 11t10 8.5q86 60 137.5 147t77.5 217q20 88 24 197q2 118 -47.5 176t-159.5 58q-67 0 -119 -30t-88.5 -88.5t-60.5 -130.5t-43 -169q-15 -94 -18 -166q-3 -142 69 -191q8 -7 11 -9.5t10 -12.5t5.5 -18t-1.5 -25 l-39 -205q-3 -13 -6 -20t-14.5 -16t-30.5 -9h-439q-26 0 -32.5 11t-1.5 34z" />
<glyph unicode="&#x3aa;" horiz-adv-x="622" d="M70 45l247 1270q10 47 56 47h241q42 0 33 -47l-246 -1270q-10 -45 -51 -45h-241q-46 0 -39 45zM166 1518q0 196 184 196q71 0 102 -23.5t31 -70.5q0 -195 -186 -195q-131 0 -131 93zM594 1518q0 196 186 196q70 0 100.5 -22.5t30.5 -69.5q0 -87 -42.5 -142t-143.5 -55 q-131 0 -131 93z" />
<glyph unicode="&#x3ab;" horiz-adv-x="1290" d="M197 1311q-6 21 3 36t31 15h228q34 0 47 -9.5t22 -39.5l82 -264l74 -254h12l174 256l174 245q20 27 29 37t26.5 19.5t39.5 9.5h272q16 0 22.5 -6.5t4 -16.5t-10.5 -22l-620 -823l-86 -449q-2 -17 -14 -31t-37 -14h-242q-47 0 -37 45l86 449zM485 1518q0 196 185 196 q71 0 102 -23.5t31 -70.5q0 -55 -15 -96t-58.5 -70t-113.5 -29q-131 0 -131 93zM913 1518q0 196 187 196q70 0 100.5 -22.5t30.5 -69.5q0 -55 -15 -96.5t-58.5 -71t-113.5 -29.5q-131 0 -131 93z" />
<glyph unicode="&#x3ac;" horiz-adv-x="1148" d="M70 274q0 84 24 218q20 102 43 177.5t60.5 144t86.5 111.5t119 68t160 25q54 0 124 -19t126 -51l8 33q4 20 14 26.5t31 6.5h228q27 0 33 -10.5t1 -36.5l-176 -922q-2 -18 -14 -31.5t-37 -13.5h-231q-25 0 -31.5 10.5t-1.5 32.5l10 51l-2 2q-172 -112 -311 -112 q-145 0 -204.5 74t-59.5 216zM403 379q0 -63 21 -85t70 -22q65 0 198 60l72 368q-89 29 -154 29q-83 -1 -125 -51t-65 -174q-17 -87 -17 -125zM592 1212l258 355q30 41 63 20l138 -90q40 -22 0 -65l-303 -310q-30 -34 -56 -18l-96 59q-29 18 -4 49z" />
<glyph unicode="&#x3ad;" horiz-adv-x="983" d="M53 256q0 88 54 161t143 105v6q-48 23 -72 65.5t-24 90.5q0 79 31 142t80 101t115 63t130 34.5t131 9.5q87 0 180 -13t148 -40q25 -13 31.5 -29t-3.5 -49l-34 -108q-12 -33 -24.5 -38.5t-59.5 -0.5q-144 18 -261 18q-57 0 -93.5 -20.5t-39.5 -65.5q-3 -34 29 -50.5 t88 -16.5h115q26 0 32 -11t1 -35l-23 -116q-5 -25 -14.5 -33t-36.5 -8h-133q-137 0 -142 -92q-3 -44 22.5 -63t94.5 -19q141 0 297 18q32 3 42.5 -4t10.5 -35l2 -100q0 -40 -12.5 -58t-60.5 -36q-134 -47 -332 -47q-412 0 -412 274zM520 1212l258 355q30 41 64 20l137 -90 q40 -22 0 -65l-303 -310q-30 -33 -55 -18l-97 59q-29 18 -4 49z" />
<glyph unicode="&#x3ae;" horiz-adv-x="1136" d="M23 45l178 922q10 45 53 45h231q49 0 35 -45l-10 -49h4q75 51 171.5 81.5t168.5 30.5q60 0 105.5 -13t73 -34t44 -54t23 -65t4.5 -77t-7 -80t-14 -82l-172 -854q-2 -17 -14 -31t-37 -14h-231q-24 0 -31 11t-4 34l164 807q16 92 -5.5 123.5t-86.5 31.5q-54 0 -203 -57 l-123 -631q-2 -17 -14.5 -31t-38.5 -14h-230q-41 0 -34 45zM532 1212l259 355q30 41 63 20l137 -90q40 -22 0 -65l-303 -310q-30 -33 -55 -18l-96 59q-29 18 -5 49z" />
<glyph unicode="&#x3af;" horiz-adv-x="569" d="M49 45l178 922q9 45 56 45h229q43 0 33 -45l-178 -922q-5 -45 -52 -45h-229q-47 0 -37 45zM305 1212l258 355q30 41 64 20l137 -90q40 -22 0 -65l-303 -310q-30 -33 -55 -18l-97 59q-29 18 -4 49z" />
<glyph unicode="&#x3b0;" horiz-adv-x="1132" d="M96 410l107 557q10 45 51 45h231q25 0 32.5 -11t2.5 -34l-106 -553q-14 -73 10.5 -116.5t107.5 -43.5q82 0 127 45t58 115l106 553q10 45 51 45h230q47 0 37 -45l-111 -572q-18 -89 -54.5 -160.5t-97 -128.5t-154 -88.5t-214.5 -31.5q-242 0 -347 114t-67 310zM242 1210 q0 195 184 195q70 0 101.5 -22.5t31.5 -67.5q0 -40 -9.5 -73.5t-30 -63t-59 -46t-91.5 -16.5q-127 0 -127 94zM567 1192l226 377q26 43 61 26l145 -77q39 -19 7 -66l-275 -336q-25 -36 -53 -22l-103 49q-31 15 -8 49zM924 1210q0 195 184 195q70 0 101.5 -22.5t31.5 -67.5 q0 -87 -43.5 -143t-146.5 -56q-127 0 -127 94z" />
<glyph unicode="&#x3b1;" horiz-adv-x="1148" d="M70 274q0 84 24 218q20 102 43 177.5t60.5 144t86.5 111.5t119 68t160 25q54 0 124 -19t126 -51l8 33q4 20 14 26.5t31 6.5h228q27 0 33 -10.5t1 -36.5l-176 -922q-2 -18 -14 -31.5t-37 -13.5h-231q-25 0 -31.5 10.5t-1.5 32.5l10 51l-2 2q-172 -112 -311 -112 q-145 0 -204.5 74t-59.5 216zM403 379q0 -63 21 -85t70 -22q65 0 198 60l72 368q-89 29 -154 29q-83 -1 -125 -51t-65 -174q-17 -87 -17 -125z" />
<glyph unicode="&#x3b2;" horiz-adv-x="1134" d="M-41 -276l238 1232q96 502 532 502q171 0 273 -78t102 -221q0 -201 -176 -315q141 -57 141 -252q0 -111 -25 -193q-62 -211 -179.5 -315t-317.5 -104q-48 0 -111.5 8.5t-103.5 21.5q0 -2 -2 -2l-56 -284q-9 -46 -53 -46h-227q-25 0 -32 12t-3 34zM379 272q85 -20 149 -20 q80 0 129.5 57t73.5 185q8 36 8 73q0 69 -36.5 99t-124.5 30q-40 0 -35 35l24 129q2 14 5 21t12 14t26 10q176 46 176 193q0 40 -26 68t-68 28q-34 0 -61.5 -15t-46 -37.5t-33.5 -58.5t-24 -69.5t-17 -77.5z" />
<glyph unicode="&#x3b3;" horiz-adv-x="1103" d="M94 969q3 23 33 35q78 30 152 30q82 0 125.5 -43t56.5 -139l43 -301l26 -197h9q9 19 66.5 133t78.5 156q161 309 170 326q22 43 80 43h223q39 0 39 -19q0 -14 -12 -35l-549 -952q-32 -169 -72 -362q-5 -45 -51 -45h-229q-27 0 -34 11.5t-3 33.5l67 350q-96 591 -120 727 q-3 26 -14 38t-44 13h-4q-11 0 -15 0.5t-7.5 5.5t-4.5 15z" />
<glyph unicode="&#x3b4;" horiz-adv-x="1126" d="M82 348q0 65 18 164q59 293 287 401q-96 70 -96 199q0 92 36.5 161.5t102 110.5t147 61t179.5 21q76 0 166.5 -12t150.5 -35q44 -16 55.5 -31.5t-0.5 -52.5l-32 -104q-2 -8 -5.5 -14.5t-6.5 -11.5t-8.5 -8t-8.5 -5t-10 -3l-10.5 -1.5t-12.5 0t-12 1t-13.5 2t-13.5 1.5 q-157 20 -252 20q-127 0 -127 -67q0 -30 40.5 -55t116.5 -60t122 -67q85 -57 127.5 -132.5t42.5 -197.5q0 -53 -12 -135q-13 -91 -38.5 -166t-70.5 -141t-108 -111t-153.5 -70.5t-203.5 -25.5q-397 0 -397 364zM412 391q0 -70 22.5 -103.5t91.5 -33.5q86 0 130 55.5 t69 159.5q14 91 14 123q0 142 -123 160q-123 -33 -178 -203q-26 -76 -26 -158z" />
<glyph unicode="&#x3b5;" horiz-adv-x="983" d="M53 256q0 88 54 161t143 105v6q-48 23 -72 65.5t-24 90.5q0 79 31 142t80 101t115 63t130 34.5t131 9.5q87 0 180 -13t148 -40q25 -13 31.5 -29t-3.5 -49l-34 -108q-12 -33 -24.5 -38.5t-59.5 -0.5q-144 18 -261 18q-57 0 -93.5 -20.5t-39.5 -65.5q-3 -34 29 -50.5 t88 -16.5h115q26 0 32 -11t1 -35l-23 -116q-5 -25 -14.5 -33t-36.5 -8h-133q-137 0 -142 -92q-3 -44 22.5 -63t94.5 -19q141 0 297 18q32 3 42.5 -4t10.5 -35l2 -100q0 -40 -12.5 -58t-60.5 -36q-134 -47 -332 -47q-412 0 -412 274z" />
<glyph unicode="&#x3b6;" horiz-adv-x="1028" d="M57 260q0 80 42 157t114.5 140t149.5 112t167 91h-309q-47 0 -35 47l29 162q6 23 18.5 33t36.5 10h801q25 0 32.5 -10t2.5 -31l-25 -125q-6 -32 -20.5 -51.5t-46.5 -36.5q-44 -20 -62.5 -28.5t-70.5 -33t-80 -39.5t-78.5 -41.5t-81 -46.5t-72 -47t-66.5 -50.5t-49 -49.5 t-35 -51t-11 -49q0 -55 80.5 -75t220.5 -20h106q41 0 54 -7.5t22 -37.5l27 -94q8 -18 2.5 -40.5t-31.5 -53.5q-87 -108 -195 -299q-14 -25 -21.5 -36.5t-18 -20.5t-22 -8t-28.5 10l-135 53q-49 19 -20 84q49 96 124 194q-516 21 -516 289z" />
<glyph unicode="&#x3b7;" horiz-adv-x="1136" d="M23 45l178 922q10 45 53 45h231q49 0 35 -45l-10 -49h4q75 51 171.5 81.5t168.5 30.5q60 0 105.5 -13t73 -34t44 -54t23 -65t4.5 -77t-7 -80t-14 -82l-172 -854q-2 -17 -14 -31t-37 -14h-231q-24 0 -31 11t-4 34l164 807q16 92 -5.5 123.5t-86.5 31.5q-54 0 -203 -57 l-123 -631q-2 -17 -14.5 -31t-38.5 -14h-230q-41 0 -34 45z" />
<glyph unicode="&#x3b8;" horiz-adv-x="1173" d="M104 391q0 122 39 350q9 52 18 93.5t25 100.5t34 106t46 102.5t60 98t76.5 83.5t95.5 67.5t117 43t141 16.5q424 0 424 -410v-6q0 -108 -33 -299q-13 -82 -26.5 -145.5t-39 -145.5t-56.5 -143t-80 -124t-108.5 -103.5t-143 -66t-183.5 -25.5q-115 0 -196.5 31t-126 88.5 t-64 127.5t-19.5 160zM424 418q0 -88 29 -129t94 -41q105 0 160.5 85.5t97.5 303.5h-354q-27 -132 -27 -219zM500 864h344q16 98 16 162q0 162 -131 162q-156 0 -229 -324z" />
<glyph unicode="&#x3b9;" horiz-adv-x="569" d="M49 45l178 922q9 45 56 45h229q43 0 33 -45l-178 -922q-5 -45 -52 -45h-229q-47 0 -37 45z" />
<glyph unicode="&#x3ba;" horiz-adv-x="1085" d="M31 43l178 924q7 45 53 45h223q44 0 35 -45l-53 -269v-2q54 54 144.5 138t138.5 131q27 26 46.5 35.5t57.5 9.5h252q25 0 34.5 -9t4 -21.5t-20.5 -25.5l-368 -348l239 -551q9 -15 6 -28q-3 -27 -47 -27h-204q-13 0 -24 1t-19.5 4t-14.5 4.5t-12 8t-9 8t-7.5 11t-5.5 11.5 t-5.5 14t-5.5 14l-131 301q-13 -13 -62 -58t-73 -69l-41 -207q-9 -43 -51 -43h-223q-45 0 -35 43z" />
<glyph unicode="&#x3bb;" horiz-adv-x="1044" d="M-62.5 13q-5.5 13 5.5 30l549 920l-15 145q-7 52 -23 74t-63 22q-3 0 -24 -1t-25 -1q-17 -1 -23 5t-6 24l6 155q0 25 35 37q100 33 189 33q42 0 72 -3.5t59.5 -15t48.5 -31.5t33 -53.5t20 -80.5q99 -876 113 -981q3 -24 5.5 -34.5t12.5 -19t31 -8.5h29q24 0 24 -22 q-1 -15 -0.5 -43t1.5 -67.5t1 -43.5q0 -31 -32 -41q-76 -24 -175 -24q-95 0 -135.5 41.5t-48.5 120.5l-27 227l-18 184h-6l-100 -182l-195 -344q-11 -20 -23.5 -27.5t-37.5 -7.5h-230q-22 0 -27.5 13z" />
<glyph unicode="&#x3bc;" horiz-adv-x="1130" d="M-55 -354l254 1319q10 45 51 45h227q44 0 35 -45l-106 -551q-15 -80 7.5 -112t86.5 -32q46 0 103.5 18t101.5 42l122 635q9 45 52 45h225q47 0 37 -45l-178 -922q-5 -22 -17 -32.5t-37 -10.5h-225q-44 0 -35 43l8 49l-2 2q-141 -92 -272 -92q-30 0 -57 6q-5 -31 -13 -71 t-25 -121.5t-34 -169.5q-10 -45 -51 -45h-226q-42 0 -32 45z" />
<glyph unicode="&#x3bd;" horiz-adv-x="1116" d="M139 958q-3 27 6.5 40.5t36.5 13.5h215q22 0 32 -2t18 -12.5t10 -32.5l41 -351q26 -256 28 -264h9l135 277l180 342q11 24 27.5 33.5t52.5 9.5h227q32 0 36.5 -12.5t-11.5 -38.5l-508 -895q-20 -35 -42.5 -50.5t-60.5 -15.5h-192q-42 0 -58 15t-22 51z" />
<glyph unicode="&#x3be;" horiz-adv-x="964" d="M51 342q0 132 71.5 247t199.5 175q-63 34 -96 109t-33 149q0 105 45.5 189t122 135.5t172 78.5t200.5 27q89 0 195 -14t159 -41q37 -16 37 -45q0 -15 -8 -31q-18 -55 -39 -111q-9 -25 -17.5 -33t-27.5 -8q-23 0 -37 2q-173 19 -254 19q-97 0 -150.5 -48.5t-53.5 -125.5 q0 -62 44 -91.5t119 -29.5h185q27 0 33.5 -10t3.5 -33l-27 -145q-9 -48 -57 -48h-158q-117 0 -202 -73t-85 -199q0 -40 16.5 -69t42 -46t64.5 -27t76 -13t84 -3h92q41 0 53.5 -8t20.5 -39l28 -94q6 -25 -0.5 -44t-29.5 -50q-85 -112 -199 -318q-19 -35 -31 -48t-30 -13 q-17 0 -33 8l-141 51q-33 13 -33 37q0 16 12 43q51 108 131 217q-105 5 -185.5 25t-145.5 61.5t-99.5 113t-34.5 171.5z" />
<glyph unicode="&#x3bf;" horiz-adv-x="1122" d="M84 365q0 57 16 155q10 53 22 98t34 99t49.5 97t70.5 85t94.5 70t123.5 45.5t157 17.5q114 0 196.5 -28t129.5 -79t68.5 -115.5t21.5 -145.5q0 -65 -14 -144q-8 -48 -16 -85t-21.5 -84t-29 -82.5t-39.5 -75.5t-52.5 -69t-68.5 -56.5t-87 -45t-108.5 -28t-132.5 -10.5 q-414 0 -414 381zM408 387q0 -70 27 -100.5t89 -30.5q50 0 85.5 16.5t58 52t35.5 77.5t24 106q14 79 14 123q0 67 -29.5 97t-95.5 30q-89 0 -130 -62t-64 -188q-14 -79 -14 -121z" />
<glyph unicode="&#x3c0;" horiz-adv-x="1150" d="M27 45l180 922q5 24 16.5 34.5t34.5 10.5h862q27 0 34.5 -10t2.5 -33l-180 -924q-2 -17 -14 -31t-37 -14h-232q-24 0 -31 11t-4 34l138 711h-314l-137 -711q-10 -45 -53 -45h-230q-43 0 -36 45z" />
<glyph unicode="&#x3c1;" horiz-adv-x="1128" d="M-59 -371q0 11 2 15l166 856q49 261 181 396.5t369 135.5q412 0 412 -381q0 -71 -12 -141q-19 -126 -54 -218.5t-94 -165t-151.5 -109.5t-216.5 -37q-112 0 -211 30l-74 -366q-10 -45 -53 -45h-225q-39 0 -39 30zM379 272q79 -20 143 -20q61 0 98 19.5t66.5 77 t48.5 163.5q10 42 10 102q-1 74 -30 106t-84 32q-160 0 -203 -222z" />
<glyph unicode="&#x3c2;" horiz-adv-x="997" d="M14.5 67q-10.5 21 8.5 62l40 98q12 30 25.5 36.5t46.5 0.5q149 -26 287 -26q77 0 115 18t41 63q3 34 -20 47.5t-77 24.5q-63 11 -108 22t-93.5 33t-79 50.5t-50 74t-19.5 103.5q0 80 26.5 143t71.5 102.5t108.5 65.5t132 36.5t148.5 10.5q74 0 163 -12.5t147 -34.5 q29 -10 41.5 -18.5t19 -25.5t-7.5 -42l-45 -106q-11 -29 -22 -35t-48 -2q-182 21 -280 24q-68 1 -96.5 -16t-30.5 -55q-2 -20 17 -34t39.5 -19.5t53.5 -10.5q59 -9 101.5 -18.5t90.5 -30t78 -48.5t50 -73t20 -104q0 -389 -520 -389q-77 0 -168.5 12.5t-148.5 32.5 q-47 19 -57.5 40z" />
<glyph unicode="&#x3c3;" horiz-adv-x="1161" d="M90 369q0 71 12 145q9 66 28 127.5t61.5 131.5t102 120.5t157 84.5t219.5 34h524q26 0 33 -10t2 -33l-31 -162q-7 -25 -17 -35t-36 -10h-137l-7 -8q46 -57 46 -156q0 -30 -9 -109q-7 -48 -15.5 -88.5t-27.5 -94t-44.5 -96.5t-67 -86.5t-93.5 -73t-126.5 -48t-163.5 -18.5 q-99 0 -173.5 22.5t-119 58t-71.5 87.5t-36.5 103.5t-9.5 113.5zM403 383q0 -69 29.5 -99t89.5 -30q86 0 129.5 54t71.5 194q16 72 16 119q-2 69 -30.5 100t-94.5 31q-82 0 -126.5 -57.5t-69.5 -192.5q-15 -70 -15 -119z" />
<glyph unicode="&#x3c4;" horiz-adv-x="886" d="M84 811l31 154q5 24 16 34.5t35 10.5h690q26 0 33 -10t2 -33l-31 -156q-5 -25 -15 -35t-36 -10h-211l-72 -381q-9 -39 -7 -63t27 -35.5t83 -12.5q28 0 143 9q29 0 35 -7q7 -9 6 -36l-10 -148q1 -22 -13.5 -40.5t-35.5 -24.5q-136 -43 -308 -43q-75 0 -127 18t-78.5 47 t-38 73.5t-9.5 88t12 98.5l90 457h-176q-24 0 -32 10.5t-3 34.5z" />
<glyph unicode="&#x3c5;" horiz-adv-x="1132" d="M96 410l107 557q10 45 51 45h231q25 0 32.5 -11t2.5 -34l-106 -553q-14 -73 10.5 -116.5t107.5 -43.5q82 0 127 45t58 115l106 553q10 45 51 45h230q47 0 37 -45l-111 -572q-18 -89 -54.5 -160.5t-97 -128.5t-154 -88.5t-214.5 -31.5q-242 0 -347 114t-67 310z" />
<glyph unicode="&#x3c6;" horiz-adv-x="1546" d="M86 387q0 398 340 612q22 15 37 15q16 0 31 -21l120 -137q12 -13 11.5 -23.5t-6 -16.5t-21.5 -19q-82 -73 -130 -179t-48 -194q0 -145 166 -178l127 647q15 76 56.5 108.5t123.5 32.5h139q447 0 447 -413q0 -28 -9 -111q-28 -222 -187.5 -368.5t-430.5 -159.5l-57 -293 q-10 -45 -54 -45h-229q-37 0 -37 28q0 11 2 17l55 291q-101 4 -179 28.5t-127.5 62t-81.5 90t-45 107.5t-13 119zM905 250q108 0 172 78t78 186q6 38 6 78q0 162 -157 162q-16 -75 -32.5 -159t-36 -186.5t-30.5 -158.5z" />
<glyph unicode="&#x3c7;" horiz-adv-x="1060" d="M-62.5 14.5q-4.5 14.5 19.5 40.5l410 461l-215 442q-11 19 -2 36.5t38 17.5h234q29 0 38 -6.5t17 -28.5l103 -246l198 244q16 22 27.5 29.5t34.5 7.5h278q23 0 32 -8t4.5 -20t-17.5 -26l-400 -444l234 -459q10 -21 -0.5 -38t-38.5 -17h-236q-26 0 -38 7t-21 28l-115 266 l-211 -262q-19 -23 -34.5 -31t-40.5 -8h-267q-27 0 -31.5 14.5z" />
<glyph unicode="&#x3c8;" horiz-adv-x="1464" d="M94 440l101 525q9 47 51 47h227q45 0 37 -47l-107 -551q-12 -69 22 -113.5t112 -48.5l159 823q10 45 56 45h229q46 0 37 -45l-164 -823q88 3 141 49.5t66 112.5l106 551q9 47 52 47h229q39 0 39 -31q0 -10 -2 -16l-103 -541q-78 -424 -579 -440l-58 -295q-10 -45 -53 -45 h-229q-37 0 -37 30v15l57 295q-223 3 -325 130.5t-64 325.5z" />
<glyph unicode="&#x3c9;" horiz-adv-x="1605" d="M88 338q0 86 14 174q14 83 41 157.5t73 151t120.5 136.5t171.5 92q62 21 80 -21l69 -141q10 -24 2 -38t-43 -38q-52 -35 -80.5 -64t-50.5 -69q-27 -51 -47 -145t-20 -162q0 -121 92 -121q62 0 102.5 43t51.5 108l49 244q10 45 53 45h199q46 0 34 -45l-47 -244 q-12 -62 8.5 -105.5t83.5 -43.5q64 0 108 56.5t71 189.5q14 69 14 129q1 50 -21 100.5t-61 89.5q-19 20 -25.5 30t-5 22t14.5 26l108 123q17 19 36 22.5t35 -2.5t40 -20q202 -127 196 -430q-1 -90 -18.5 -173.5t-57 -163t-98 -138t-149 -94t-201.5 -35.5q-91 0 -169 36.5 t-103 102.5h-10q-50 -66 -136.5 -102.5t-177.5 -36.5q-342 0 -346 354z" />
<glyph unicode="&#x3ca;" horiz-adv-x="569" d="M49 45l178 922q9 45 56 45h229q43 0 33 -45l-178 -922q-5 -45 -52 -45h-229q-47 0 -37 45zM74 1210q0 195 184 195q70 0 101.5 -22.5t31.5 -67.5q0 -40 -9.5 -73.5t-30 -63t-59 -46t-91.5 -16.5q-127 0 -127 94zM502 1210q0 195 184 195q70 0 101.5 -22.5t31.5 -67.5 q0 -87 -43.5 -143t-146.5 -56q-127 0 -127 94z" />
<glyph unicode="&#x3cb;" horiz-adv-x="1132" d="M96 410l107 557q10 45 51 45h231q25 0 32.5 -11t2.5 -34l-106 -553q-14 -73 10.5 -116.5t107.5 -43.5q82 0 127 45t58 115l106 553q10 45 51 45h230q47 0 37 -45l-111 -572q-18 -89 -54.5 -160.5t-97 -128.5t-154 -88.5t-214.5 -31.5q-242 0 -347 114t-67 310zM352 1210 q0 195 185 195q70 0 101.5 -22.5t31.5 -67.5q0 -55 -16 -97t-60.5 -72t-114.5 -30q-127 0 -127 94zM780 1210q0 195 185 195q70 0 101.5 -22.5t31.5 -67.5q0 -87 -44 -143t-147 -56q-127 0 -127 94z" />
<glyph unicode="&#x3cc;" horiz-adv-x="1122" d="M84 365q0 57 16 155q10 53 22 98t34 99t49.5 97t70.5 85t94.5 70t123.5 45.5t157 17.5q114 0 196.5 -28t129.5 -79t68.5 -115.5t21.5 -145.5q0 -65 -14 -144q-8 -48 -16 -85t-21.5 -84t-29 -82.5t-39.5 -75.5t-52.5 -69t-68.5 -56.5t-87 -45t-108.5 -28t-132.5 -10.5 q-414 0 -414 381zM408 387q0 -70 27 -100.5t89 -30.5q50 0 85.5 16.5t58 52t35.5 77.5t24 106q14 79 14 123q0 67 -29.5 97t-95.5 30q-89 0 -130 -62t-64 -188q-14 -79 -14 -121zM602 1212l258 355q30 41 64 20l137 -90q40 -22 0 -65l-303 -310q-30 -34 -56 -18l-96 59 q-29 18 -4 49z" />
<glyph unicode="&#x3cd;" horiz-adv-x="1132" d="M96 410l107 557q10 45 51 45h231q25 0 32.5 -11t2.5 -34l-106 -553q-14 -73 10.5 -116.5t107.5 -43.5q82 0 127 45t58 115l106 553q10 45 51 45h230q47 0 37 -45l-111 -572q-18 -89 -54.5 -160.5t-97 -128.5t-154 -88.5t-214.5 -31.5q-242 0 -347 114t-67 310zM590 1212 l258 355q30 41 63 20l138 -90q40 -22 0 -65l-304 -310q-30 -33 -55 -18l-96 59q-29 18 -4 49z" />
<glyph unicode="&#x3ce;" horiz-adv-x="1605" d="M88 338q0 86 14 174q14 83 41 157.5t73 151t120.5 136.5t171.5 92q62 21 80 -21l69 -141q10 -24 2 -38t-43 -38q-52 -35 -80.5 -64t-50.5 -69q-27 -51 -47 -145t-20 -162q0 -121 92 -121q62 0 102.5 43t51.5 108l49 244q10 45 53 45h199q46 0 34 -45l-47 -244 q-12 -62 8.5 -105.5t83.5 -43.5q64 0 108 56.5t71 189.5q14 69 14 129q1 50 -21 100.5t-61 89.5q-19 20 -25.5 30t-5 22t14.5 26l108 123q17 19 36 22.5t35 -2.5t40 -20q202 -127 196 -430q-1 -90 -18.5 -173.5t-57 -163t-98 -138t-149 -94t-201.5 -35.5q-91 0 -169 36.5 t-103 102.5h-10q-50 -66 -136.5 -102.5t-177.5 -36.5q-342 0 -346 354zM788 1212l259 355q30 41 63 20l137 -90q40 -22 0 -65l-303 -310q-30 -33 -55 -18l-96 59q-29 18 -5 49z" />
<glyph unicode="&#x400;" horiz-adv-x="1138" d="M61 45l248 1270q10 47 56 47h806q20 0 29 -12.5t4 -32.5l-37 -193q-7 -43 -51 -43h-522l-45 -237h455q44 0 34 -45l-37 -193q-7 -41 -51 -41h-454l-56 -286h537q42 0 35 -46l-37 -192q-5 -21 -16 -31t-35 -10h-824q-46 0 -39 45zM469 1720l109 119q20 20 35.5 20 t37.5 -20l307 -295q13 -11 16 -20.5t0.5 -15t-9.5 -15.5l-68 -72q-23 -32 -68 0l-348 238q-43 30 -12 61z" />
<glyph unicode="&#x401;" horiz-adv-x="1138" d="M61 45l248 1270q10 47 56 47h806q20 0 29 -12.5t4 -32.5l-37 -193q-7 -43 -51 -43h-522l-45 -237h455q44 0 34 -45l-37 -193q-7 -41 -51 -41h-454l-56 -286h537q42 0 35 -46l-37 -192q-5 -21 -16 -31t-35 -10h-824q-46 0 -39 45zM424 1518q0 196 184 196q71 0 102 -23.5 t31 -70.5q0 -195 -186 -195q-131 0 -131 93zM852 1518q0 196 186 196q70 0 100.5 -22.5t30.5 -69.5q0 -87 -42.5 -142t-143.5 -55q-131 0 -131 93z" />
<glyph unicode="&#x402;" horiz-adv-x="1533" d="M164 1126l35 189q5 23 16 34t37 11h1065q42 0 35 -45l-35 -193q-7 -41 -55 -41h-439l-49 -252q160 56 293 56q397 0 397 -387q0 -259 -146.5 -472.5t-406.5 -338.5q-28 -13 -47 -8.5t-37 34.5l-59 105q-12 26 -7.5 39.5t30.5 33.5q164 107 255 253.5t91 301.5 q0 175 -174 175q-35 0 -80 -10.5t-70 -19t-92 -32.5l-98 -514q-9 -45 -50 -45h-243q-26 0 -33 11t-4 34l201 1036h-295q-49 0 -35 45z" />
<glyph unicode="&#x403;" horiz-adv-x="1073" d="M61 45l246 1272q11 45 55 45h797q22 0 32 -12.5t5 -32.5l-37 -193q-10 -43 -55 -43h-510l-201 -1036q-2 -17 -13.5 -31t-35.5 -14h-244q-46 0 -39 45zM596 1548q-16 27 22 49l377 220q43 22 60 -11l63 -157q9 -17 0.5 -34t-31.5 -26l-391 -157q-16 -8 -30.5 -7t-24.5 17z " />
<glyph unicode="&#x404;" horiz-adv-x="1212" d="M147 475q0 72 19 201q18 114 46.5 207.5t83.5 188t129.5 159t189.5 105t259 40.5q248 0 381 -65q16 -8 26 -14.5t16.5 -17t5.5 -25.5t-9 -35l-51 -121q-11 -29 -26 -37t-52 -4q-249 22 -297 22q-125 0 -200.5 -67t-114.5 -189h451q26 0 33.5 -11.5t2.5 -33.5l-36 -176 q-7 -43 -52 -43h-452v-61q3 -113 56 -167.5t169 -54.5q111 0 311 21q40 3 54.5 -4t17.5 -37l4 -113q4 -36 -14.5 -57.5t-55.5 -36.5q-82 -33 -192 -51t-211 -18q-499 0 -492 495z" />
<glyph unicode="&#x405;" horiz-adv-x="1187" d="M35.5 84.5q-6.5 20.5 7.5 48.5l47 123q14 39 32 46t58 -1q178 -29 352 -29q108 0 170.5 35.5t63.5 106.5q1 49 -33.5 73.5t-124.5 47.5q-74 22 -122 39t-101.5 42t-85.5 52t-60 64t-40.5 85.5t-12.5 108.5q0 114 47 202t129 140.5t184 79t220 26.5q253 0 385 -59 q43 -19 50 -39.5t-9 -48.5l-49 -123q-17 -39 -37 -44.5t-62 1.5q-161 22 -303 22q-33 0 -59.5 -3t-53 -11.5t-44.5 -22t-29.5 -37t-11.5 -55.5q0 -42 33.5 -63t121.5 -41q50 -11 87 -21t84.5 -27.5t81 -37t69 -49t57 -64.5t35.5 -83t14 -105q0 -105 -33 -187.5t-89.5 -137 t-137.5 -90t-173 -51t-199 -15.5q-91 0 -210.5 14.5t-199.5 48.5q-42 19 -48.5 39.5z" />
<glyph unicode="&#x406;" horiz-adv-x="622" d="M70 45l247 1270q10 47 56 47h241q42 0 33 -47l-246 -1270q-10 -45 -51 -45h-241q-46 0 -39 45z" />
<glyph unicode="&#x407;" horiz-adv-x="622" d="M70 45l247 1270q10 47 56 47h241q42 0 33 -47l-246 -1270q-10 -45 -51 -45h-241q-46 0 -39 45zM160 1518q0 196 184 196q71 0 102 -23.5t31 -70.5q0 -195 -186 -195q-131 0 -131 93zM588 1518q0 196 186 196q70 0 100.5 -22.5t30.5 -69.5q0 -87 -42.5 -142t-143.5 -55 q-131 0 -131 93z" />
<glyph unicode="&#x408;" horiz-adv-x="993" d="M-25 57.5q-9 16.5 5 57.5l40 137q8 30 22.5 37t43.5 2q116 -17 197 -17q100 0 143 43t59 123l166 875q7 47 54 47h235q27 0 34.5 -11.5t2.5 -35.5l-178 -932q-18 -96 -50 -165.5t-89 -125t-147.5 -83t-215.5 -27.5q-158 0 -264 41q-49 18 -58 34.5z" />
<glyph unicode="&#x409;" horiz-adv-x="1888" d="M-14 178q-1 25 10 35t41 16q58 13 93.5 29t69.5 51.5t59 94t50 151.5q12 51 189 758q9 45 53 45h743q17 0 27 -9t10 -24v-6l-92 -471h199q96 0 170 -20.5t118.5 -54t73 -81.5t39 -96t10.5 -104q0 -101 -31 -184t-84 -139.5t-126 -95t-155.5 -56t-174.5 -17.5h-483 q-22 0 -30.5 9t-8.5 30l198 1042h-209l-96 -393q-30 -121 -48 -188.5t-47.5 -154.5t-57.5 -133t-70.5 -98t-93.5 -76.5t-119.5 -41.5t-155.5 -19q-41 0 -54 10t-13 44zM1126 272h193q91 0 144 49t53 125q0 69 -39.5 102.5t-108.5 33.5h-180q-8 -39 -30 -146t-32 -164z" />
<glyph unicode="&#x40a;" horiz-adv-x="1855" d="M61 43l248 1278q5 21 16.5 31t36.5 10h244q41 0 33 -41l-90 -473h309l92 473q9 39 56 39h241q19 0 28 -6t8.5 -15t-1.5 -18l-90 -471h197q96 0 170 -21t118.5 -54.5t73 -81.5t39 -96.5t10.5 -104.5q0 -118 -44 -213t-119.5 -155t-172.5 -92t-207 -32h-516q-26 0 -34 10.5 t-5 32.5l103 524h-311l-101 -524q-10 -43 -49 -43h-244q-25 0 -33.5 10.5t-5.5 32.5zM1077 272h191q91 0 144.5 49.5t53.5 124.5q0 138 -147 138h-180z" />
<glyph unicode="&#x40b;" horiz-adv-x="1536" d="M150 1124l34 193q5 22 17 32.5t39 10.5h1060q20 0 29.5 -11.5t5.5 -31.5l-35 -193q-10 -43 -55 -43h-434l-43 -221q78 30 172 53t166 23q99 0 168.5 -23.5t107 -61.5t54.5 -94t16 -113.5t-14 -127.5l-92 -471q-2 -18 -14.5 -31.5t-37.5 -13.5h-241q-44 0 -37 45l92 471 q14 72 -14 107.5t-105 35.5q-65 0 -274 -67l-107 -547q-4 -45 -49 -45h-242q-45 0 -38 45l200 1036h-295q-27 0 -33 10.5t-1 32.5z" />
<glyph unicode="&#x40c;" horiz-adv-x="1280" d="M59 45l246 1270q10 47 57 47h242q42 0 33 -47l-92 -467h88q138 0 207 137l161 309q22 38 40 50t61 12h233q52 0 27 -51l-174 -342q-110 -213 -223 -256q60 -25 84 -83.5t38 -168.5l48 -404q6 -51 -45 -51h-216q-44 0 -57.5 12t-19.5 49l-35 367q-8 83 -46.5 112 t-103.5 29h-120l-103 -524q-5 -45 -49 -45h-242q-46 0 -39 45zM686 1548q-15 27 23 49l376 220q43 22 60 -11l63 -157q9 -17 1 -34t-31 -26l-392 -157q-16 -8 -30.5 -7t-24.5 17z" />
</font>
</defs>
</svg>
