<?xml version="1.0" standalone="no"?>
<!DOCTYPE svg PUBLIC "-//W3C//DTD SVG 1.1//EN" "http://www.w3.org/Graphics/SVG/1.1/DTD/svg11.dtd" >
<svg xmlns="http://www.w3.org/2000/svg">
<metadata></metadata>
<defs>
<font id="amadeusbold" horiz-adv-x="1222" >
<font-face units-per-em="2048" ascent="1536" descent="-512" />
<missing-glyph horiz-adv-x="602" />
<glyph unicode="fj" horiz-adv-x="1214" d="M63 813v154q0 45 46 45h86v114q0 175 100 268t323 93q79 0 171 -13t153 -38q30 -13 36.5 -34.5t-1.5 -41.5l-25 -129q-4 -23 -17.5 -27.5t-49.5 0.5q-175 15 -199 15q-87 0 -132.5 -32t-45.5 -106v-69h547q43 0 43 -45v-928q0 -136 -35.5 -230.5t-106.5 -148.5 t-168 -76.5t-229 -17.5q-17 0 -34.5 10.5t-18.5 34.5l-14 160q-3 25 4.5 35t33.5 16q57 11 87.5 18.5t64.5 19.5t49 24.5t29.5 33.5t19 48.5t4.5 66.5v733h-278v-721q0 -45 -43 -45h-223q-45 0 -45 45v721h-86q-46 0 -46 47z" />
<glyph unicode="ffj" horiz-adv-x="1796" d="M61 811v154q0 45 45 45h89v100q0 172 100.5 265t306.5 93q165 0 287 -41q108 84 311 84q195 0 324 -53q48 -19 37 -74l-27 -129q-4 -27 -24.5 -30t-43.5 4q-94 12 -198 12q-87 0 -131.5 -31t-44.5 -106v-94h544q43 0 43 -45v-883q0 -41 -4 -111q-17 -215 -140 -310 t-353 -95q-23 0 -32.5 0.5t-27 4.5t-26 14.5t-9.5 27.5l-14 158q-2 24 6.5 35.5t32.5 17.5q50 10 76.5 16t59 15.5t48 19t32.5 23.5t24 32.5t11.5 43t4.5 57.5v735h-281v-723q0 -43 -43 -43h-223q-45 0 -45 43q0 320 2 723h-274v-723q0 -43 -43 -43h-221q-26 0 -36.5 10.5 t-10.5 32.5q0 352 2 723h-89q-45 0 -45 45zM506 1010h272v104q0 44 6 78q-76 10 -135 10q-81 0 -112 -39t-31 -116v-37z" />
<glyph unicode="ff" horiz-adv-x="1468" d="M61 811v154q0 45 45 45h89v100q0 172 101 265t306 93q174 0 289 -43q103 86 291 86q174 0 288 -49q29 -12 35.5 -30t1.5 -46l-26 -129q-2 -13 -8 -20t-18.5 -8t-18 -0.5t-23.5 2.5q-96 12 -178 12q-139 0 -139 -137v-96h223q26 0 35.5 -10t9.5 -33v-156q0 -25 -9 -35 t-36 -10h-225v-723q0 -43 -43 -43h-224q-25 0 -35 10.5t-10 32.5q0 121 1 361.5t1 361.5h-280v-723q0 -43 -43 -43h-221q-26 0 -36.5 10.5t-10.5 32.5q0 121 1 361.5t1 361.5h-89q-45 0 -45 45zM506 1010h278v106q0 30 4 76q-83 10 -139 10q-81 0 -112 -39t-31 -116v-37z " />
<glyph unicode="fi" horiz-adv-x="1214" d="M61 811v154q0 45 45 45h89v114q0 175 99.5 268t321.5 93q209 0 324 -51q31 -14 37 -32.5t-2 -43.5l-23 -129q-4 -17 -10 -23t-18 -6q-30 0 -64 6q-121 11 -176 11q-87 0 -132.5 -32t-45.5 -106v-69h547q43 0 43 -45v-922q0 -43 -43 -43h-224q-25 0 -35 10.5t-10 32.5v723 h-280v-723q0 -43 -43 -43h-221q-26 0 -36.5 10.5t-10.5 32.5v723h-87q-45 0 -45 45z" />
<glyph unicode="fl" horiz-adv-x="1202" d="M57 813v154q0 45 45 45h88v114q0 175 99.5 268t322.5 93q186 0 301 -45l134 33q26 6 35.5 -3.5t9.5 -31.5v-1395q0 -45 -43 -45h-226q-45 0 -45 45v1167q-65 7 -98 7q-87 0 -132.5 -32t-45.5 -106v-69h155q45 0 45 -45v-154q0 -47 -45 -47h-157v-721q0 -45 -43 -45h-224 q-45 0 -45 45v721h-86q-45 0 -45 47z" />
<glyph unicode="ffi" horiz-adv-x="1796" d="M61 811v154q0 45 45 45h89v100q0 172 101 265t306 93q166 0 287 -41q108 84 311 84q73 2 167.5 -12.5t156.5 -40.5q29 -11 36.5 -24.5t2.5 -38.5l-29 -140q-5 -26 -18.5 -30t-36.5 2q-101 14 -211 14q-87 0 -131.5 -31t-44.5 -106v-94h544q43 0 43 -45v-922 q0 -43 -43 -43h-221q-25 0 -35 10.5t-10 32.5q0 121 -1 361.5t-1 361.5h-281v-723q0 -43 -43 -43h-223q-45 0 -45 43q0 320 2 723h-274v-723q0 -43 -43 -43h-221q-26 0 -36.5 10.5t-10.5 32.5q0 352 2 723h-89q-45 0 -45 45zM506 1010h272v96q0 46 6 86q-76 10 -135 10 q-81 0 -112 -40t-31 -118v-34z" />
<glyph unicode="ffl" horiz-adv-x="1796" d="M61 811v154q0 45 45 45h89v100q0 170 102.5 264.5t304.5 93.5q166 0 287 -41q108 84 311 84q190 0 303 -47l133 35q12 4 19 4q24 0 24 -33v-1427q0 -43 -43 -43h-221q-25 0 -35 10.5t-10 32.5q0 198 -1 596t-1 598q-74 4 -100 4q-87 0 -131.5 -31t-44.5 -106v-94h153 q24 0 34.5 -10.5t10.5 -34.5v-154q0 -24 -10.5 -34.5t-34.5 -10.5h-158v-723q0 -43 -43 -43h-221q-25 0 -35 10.5t-10 32.5v723h-274v-723q0 -43 -43 -43h-221q-26 0 -36.5 10.5t-10.5 32.5q0 352 2 723h-89q-45 0 -45 45zM506 1010h272v96q0 46 6 86q-76 10 -135 10 q-75 0 -109 -35t-34 -104v-53z" />
<glyph unicode="ft" horiz-adv-x="1476" d="M61 811v154q0 45 45 45h89v92q0 177 86.5 274t287.5 97q114 0 209 -29q28 -7 36 -23t5 -41l-24 -155q-3 -21 -18 -25.5t-38 0.5q-51 6 -94 6q-139 0 -139 -139v-57h317v186q0 26 10 36t35 17l207 56q51 14 51 -39v-256h209q26 0 34.5 -9.5t8.5 -33.5v-156q0 -25 -8.5 -35 t-34.5 -10h-211l2 -410q0 -60 21 -77t94 -17q30 0 148 8h10.5h10.5t8 -1t8 -3l5.5 -5.5t5.5 -9t3 -13.5l20 -142q6 -22 -5 -39.5t-32 -25.5q-65 -25 -153 -36t-154 -11q-88 0 -148.5 24.5t-91 71t-43 99.5t-12.5 124v463h-317v-723q0 -43 -43 -43h-221q-26 0 -36.5 10.5 t-10.5 32.5q0 121 1 361.5t1 361.5h-89q-45 0 -45 45z" />
<glyph unicode=" "  horiz-adv-x="602" />
<glyph unicode="&#x09;" horiz-adv-x="602" />
<glyph unicode="&#xa0;" horiz-adv-x="602" />
<glyph unicode="!" horiz-adv-x="600" d="M141 129q0 70 34.5 108.5t123.5 38.5q91 0 124.5 -37.5t33.5 -109.5q0 -68 -33.5 -108.5t-124.5 -40.5q-50 0 -83.5 12t-48.5 35.5t-20.5 46.5t-5.5 55zM156 1315q-1 24 8 33.5t33 9.5h213q23 0 32 -9t9 -34l-27 -877q-3 -43 -39 -43h-164q-21 0 -29 9.5t-8 33.5z" />
<glyph unicode="&#x22;" horiz-adv-x="751" d="M109 1325q0 14 9 23.5t25 9.5h170q18 0 25.5 -11t7.5 -22l-22 -428q0 -12 -8.5 -20.5t-24.5 -8.5h-133q-12 0 -19.5 8.5t-7.5 20.5zM408 1325q-2 14 7.5 23.5t26.5 9.5h168q33 0 33 -33l-20 -428q-2 -12 -10.5 -20.5t-22.5 -8.5h-133q-12 0 -20.5 8.5t-8.5 20.5z" />
<glyph unicode="#" horiz-adv-x="1290" d="M59 446q-7 8 0 29l33 127q6 22 17 29.5t34 7.5h179l36 154h-182q-20 0 -27.5 7.5t-1.5 28.5l35 125q6 22 17 30.5t34 8.5h177l79 326q5 18 7.5 24t10.5 10.5t23 4.5h158q21 0 28 -9t1 -32l-80 -324h174l80 326q6 18 9 24t10.5 10.5t21.5 4.5h160q21 0 27.5 -9t0.5 -30 l-82 -326h185q23 0 28.5 -8.5t-0.5 -30.5l-32 -125q-6 -20 -16.5 -28t-31.5 -8h-182l-39 -154h185q22 0 28 -8.5t0 -30.5l-35 -125q-6 -21 -16 -29t-31 -8h-182l-98 -399q-5 -21 -12.5 -30t-26.5 -9h-152q-45 0 -37 41l99 397h-174l-99 -399q-5 -21 -12.5 -30t-26.5 -9h-151 q-45 0 -37 41l98 397h-184q-20 0 -27 8zM549 639h174l39 154h-176z" />
<glyph unicode="$" d="M121 944q0 168 100 269.5t279 125.5v170q0 39 39 39h153q37 0 37 -39v-168q171 -12 272 -53q32 -12 46 -24t14.5 -26t-2.5 -34l-23 -108q-8 -37 -25.5 -44.5t-62.5 -2.5q-165 22 -315 22q-178 0 -178 -119q0 -62 35 -84.5t145 -44.5q65 -14 100 -22t93.5 -26.5t91 -37 t73.5 -50t62.5 -68.5t37 -90.5t15.5 -118.5q0 -93 -29 -165.5t-82 -119.5t-119 -75.5t-149 -41.5v-168q0 -39 -37 -39h-153q-39 0 -39 39v160q-208 13 -318 57q-46 17 -55 34.5t-2 49.5l25 117q7 34 22.5 41t54.5 0q232 -29 353 -29q198 0 198 125q0 70 -38.5 97t-147.5 49 q-61 13 -100.5 23t-94 28.5t-89.5 37.5t-74 50t-61.5 67t-37 86.5t-14.5 110.5z" />
<glyph unicode="%" horiz-adv-x="1959" d="M55 944q0 32 2.5 62.5t11.5 76.5t24.5 85.5t44.5 81t67.5 70.5t98 47.5t132.5 18.5q84 0 150 -19t107.5 -54t69 -76t41 -94.5t18.5 -99t5 -99.5q0 -469 -391 -469q-74 0 -133.5 17t-98.5 44t-68 67.5t-44 79.5t-24 90t-11 88t-2 83zM315 930q0 -54 5 -94t17 -75.5t37 -54 t62 -18.5q40 0 66.5 17t41 50.5t20 75t5.5 99.5q0 129 -26 186.5t-107 57.5q-69 0 -95 -63.5t-26 -180.5zM584 -16l565 1423q12 27 33 27h180q11 0 15.5 -9t0.5 -22l-563 -1426q-9 -24 -31 -24h-180q-13 0 -19 8.5t-1 22.5zM1130 455q0 32 2.5 63.5t11.5 78t24.5 85.5 t44.5 80.5t67.5 70.5t98 47.5t132.5 18.5t132 -15t99 -39t70 -60.5t47 -73.5t27.5 -84t13.5 -86.5t3 -85.5q0 -467 -392 -467q-74 0 -133.5 17t-98.5 43.5t-68 67.5t-44 80t-24 89.5t-11 87t-2 82.5zM1391 442q0 -54 4.5 -93.5t17 -75t37 -54t61.5 -18.5q53 0 83 31.5 t40.5 81.5t10.5 128q0 128 -27 186t-107 58q-70 0 -95 -63t-25 -181z" />
<glyph unicode="&#x26;" horiz-adv-x="1527" d="M80 371q0 132 78 246t221 200q-40 63 -62 127.5t-22 104.5q0 145 94 240t262 95q157 0 252.5 -89t95.5 -222q0 -104 -68.5 -194.5t-185.5 -141.5q66 -95 123 -161.5t140 -141.5q136 161 172 383q8 47 14 53q8 9 43 9h141q39 0 50 -13.5t10 -58.5q-6 -140 -76.5 -296 t-155.5 -255q118 -97 236 -166q24 -14 24.5 -28.5t-16.5 -38.5l-74 -119q-15 -21 -29 -25.5t-49 8.5q-60 28 -148.5 88t-156.5 117q-184 -117 -448 -117q-99 0 -182 24t-147 71t-100 124t-36 177zM365 391q0 -86 55.5 -133t142.5 -47q119 -3 234 61q-83 83 -161 176 t-122 162q-149 -99 -149 -219zM555 1059q0 -52 51 -123q58 34 87.5 65t29.5 70q0 33 -23.5 55.5t-60.5 22.5q-39 0 -61.5 -28t-22.5 -62z" />
<glyph unicode="'" horiz-adv-x="466" d="M113 1325q0 14 10 23.5t27 9.5h167q33 0 33 -33l-22 -428q0 -29 -31 -29h-133q-12 0 -20.5 8.5t-8.5 20.5z" />
<glyph unicode="(" horiz-adv-x="696" d="M102 625q0 226 79.5 435.5t205.5 379.5q22 28 38.5 30t41.5 -14l119 -67q27 -14 30 -29t-18 -49q-180 -297 -180 -686q0 -196 47.5 -378.5t132.5 -326.5q20 -35 17.5 -49.5t-29.5 -28.5l-117 -67q-27 -16 -43.5 -14t-38.5 30q-127 169 -206 382.5t-79 451.5z" />
<glyph unicode=")" horiz-adv-x="698" d="M92.5 1360q2.5 15 28.5 29l119 67q27 16 43.5 14t38.5 -30q125 -169 203.5 -379t78.5 -436q0 -238 -78 -452t-204 -382q-22 -28 -38.5 -30t-43.5 14l-119 67q-25 14 -27.5 28t15.5 50q86 143 134 325.5t48 379.5q0 390 -182 686q-19 34 -16.5 49z" />
<glyph unicode="*" horiz-adv-x="888" d="M76.5 1103.5q-3.5 12.5 11.5 43.5l33 63q16 28 33.5 30t42.5 -13l137 -58l10 144q2 30 11 38.5t44 8.5h82q32 0 45 -11t15 -38l8 -146l145 68q26 13 37 11t25 -27l41 -62q25 -38 -2 -55l-142 -96l131 -97q27 -18 29 -30.5t-16 -38.5l-33 -58q-17 -24 -31.5 -26.5 t-40.5 10.5l-141 65l-12 -139q-3 -33 -10.5 -40t-39.5 -7h-96q-29 0 -36.5 7.5t-10.5 39.5l-14 139l-135 -59q-18 -11 -36 -10.5t-30 20.5l-47 70q-11 14 -7 27.5t29 31.5l119 90l-121 76q-24 16 -27.5 28.5z" />
<glyph unicode="+" d="M147 592v143q0 23 9.5 33t31.5 10h287v283q0 23 10 33t35 10h185q22 0 31 -10t9 -33v-283h289q25 0 34 -9t9 -32v-145q0 -23 -9 -33t-34 -10h-289v-301q0 -25 -8.5 -33t-29.5 -8h-187q-26 0 -35.5 8t-9.5 33v301h-287q-41 0 -41 43z" />
<glyph unicode="," horiz-adv-x="487" d="M36 -234q2 11 30 41q67 67 67 152q0 68 -47 121q-19 21 -25 35t0.5 29t30.5 32l133 103q20 15 37.5 15.5t30 -7t31.5 -25.5q40 -38 63 -93t23 -103q0 -128 -66.5 -237t-157.5 -163q-46 -24 -75 10l-54 54q-23 25 -21 36z" />
<glyph unicode="-" horiz-adv-x="841" d="M63 578v155q0 22 10 31.5t33 9.5h639q25 0 34 -9t9 -30v-157q0 -24 -9 -33.5t-34 -9.5h-639q-23 0 -33 10t-10 33z" />
<glyph unicode="." horiz-adv-x="473" d="M72 135q0 72 36.5 113t127.5 41q94 0 128.5 -39t34.5 -115q0 -33 -6.5 -58t-22.5 -48.5t-50 -36t-84 -12.5q-51 0 -85.5 13t-50.5 37t-22 48t-6 57z" />
<glyph unicode="/" horiz-adv-x="653" d="M16 -84q227 954 353 1468q7 35 43 35h190q40 0 33 -49l-346 -1464q-3 -14 -16 -23.5t-27 -9.5h-195q-45 0 -35 43z" />
<glyph unicode="0" d="M61 698q0 49 3.5 96.5t16.5 118t35 131t63.5 124t97 108.5t140.5 73.5t189 28.5t189 -23t142.5 -60t100.5 -93t67.5 -113t39.5 -128.5t19.5 -132t4.5 -130.5q0 -716 -563 -716q-106 0 -191 26t-141 67t-97 103.5t-63 121.5t-34.5 137t-15.5 134.5t-3 126.5zM389 680 q0 -75 5 -133.5t19 -115t37.5 -93.5t63 -59.5t92.5 -22.5q56 0 97.5 20t68 54.5t42.5 89t22 116.5t6 144q0 86 -5.5 147.5t-20.5 116.5t-41 88.5t-68 52.5t-101 19q-53 0 -92 -21.5t-62.5 -58t-38 -92.5t-19.5 -115.5t-5 -136.5z" />
<glyph unicode="1" d="M209 43v180q0 41 43 41h217v791h-193q-27 0 -38 7t-11 30v100q0 26 7.5 42.5t31.5 27.5l180 75q51 25 129 25h164q26 0 36.5 -11t10.5 -36v-1051h238q24 0 32.5 -9.5t8.5 -31.5v-180q0 -23 -8 -33t-33 -10h-772q-43 0 -43 43z" />
<glyph unicode="2" d="M88 43v145q0 49 33 82q274 258 297 281q3 3 49.5 46.5t96.5 91t65 63.5q110 105 110 209q0 75 -41.5 106t-152.5 31q-127 0 -352 -25q-38 -5 -52 2.5t-20 40.5l-17 115q-2 17 -1.5 31.5t15 28.5t44.5 26q73 30 193 44.5t200 14.5q272 0 395 -99.5t123 -291.5 q0 -129 -46 -216t-157 -198q-145 -142 -315 -295l4 -10h494q25 0 33 -10t8 -33v-180q0 -23 -8 -33t-31 -10h-924q-43 0 -43 43z" />
<glyph unicode="3" d="M86 133l23 113q6 31 19.5 40t53.5 5q189 -27 334 -33q51 0 86 3.5t71.5 16.5t58.5 36.5t36 64.5t14 98q0 51 -27.5 78t-92.5 39l-273 49q-36 6 -48.5 21t-12.5 51v78q0 33 4.5 48.5t19.5 28.5q212 186 248 217q0 1 -1 3.5t-1 3.5h-440q-43 0 -43 43v178q0 23 10 33t33 10 h852q26 0 35.5 -11t9.5 -34v-113q0 -41 -9 -68t-36 -53q0 -3 -20.5 -22.5t-53.5 -49t-64.5 -57t-62 -54t-37.5 -32.5q2 -2 2 -8l129 -31q110 -27 159.5 -108t49.5 -215q0 -121 -27 -211.5t-74.5 -149t-121 -94t-158 -49.5t-194.5 -14q-79 0 -194 14.5t-189 44.5 q-48 18 -61.5 38t-6.5 52z" />
<glyph unicode="4" d="M41 354v158q0 38 22 66l596 743q30 37 82 37h226q41 0 41 -41v-746h135q24 0 32.5 -9.5t8.5 -31.5v-182q0 -23 -8.5 -33t-32.5 -10h-135v-262q0 -43 -43 -43h-228q-43 0 -43 43v262h-598q-55 0 -55 49zM393 565h305v383l-10 2l-295 -377v-8z" />
<glyph unicode="5" d="M92 131l23 113q6 31 19.5 40t53.5 5q201 -29 332 -29q64 0 106 7t80.5 29t57 67t18.5 116q0 50 -29.5 77t-90.5 38l-453 78q-52 10 -67.5 36.5t-8.5 77.5l82 500q6 40 25.5 57t62.5 17h698q43 0 43 -43v-178q0 -43 -45 -43h-507l-31 -193l352 -51q139 -21 220 -110 t81 -238q0 -121 -27 -211.5t-74.5 -149.5t-120.5 -95.5t-157 -51t-192 -14.5q-79 0 -194 14.5t-189 44.5q-48 18 -61.5 38t-6.5 52z" />
<glyph unicode="6" d="M78 637q0 77 4.5 142t19 143.5t38.5 140t67 122.5t101 101t143 65t190 25q235 0 385 -57q44 -16 54.5 -33.5t4.5 -50.5l-24 -113q-7 -32 -21.5 -42t-42.5 -7q-208 25 -358 25q-114 0 -165.5 -63.5t-61.5 -188.5q184 18 317 18q428 0 428 -454q0 -92 -31 -166t-83.5 -122 t-124 -80.5t-148.5 -46t-162 -13.5q-105 0 -186.5 17.5t-137 45.5t-94.5 77.5t-61 98t-33.5 123.5t-14.5 137.5t-3 155.5zM401 582q-3 -190 31 -260q42 -74 184 -74q218 0 218 160q0 100 -34.5 146t-119.5 46q-100 0 -279 -18z" />
<glyph unicode="7" d="M88 1137v180q0 45 41 45h944q25 0 34 -11.5t9 -35.5v-125q0 -31 -8 -54t-29 -61l-549 -1083q-15 -25 -27 -30.5t-44 5.5l-189 84q-29 13 -32 28t12 42l487 975h-608q-41 0 -41 41z" />
<glyph unicode="8" d="M59 391q0 105 50.5 191t148.5 137q-75 36 -116.5 108t-41.5 146q0 196 136.5 300.5t369.5 104.5q112 0 202 -23t158 -70.5t105 -125t37 -180.5q0 -68 -44 -144t-120 -112v-2q100 -43 152.5 -130.5t52.5 -195.5q0 -193 -151 -303t-398 -110q-255 0 -398 99t-143 310z M385 420q0 -81 59 -123.5t156 -42.5q98 0 159.5 46t61.5 116q0 44 -17 77.5t-50.5 55.5t-70.5 36t-89 25q-209 -38 -209 -190zM426 967q0 -52 46 -84t136 -52q174 27 174 136q0 68 -48.5 102.5t-127.5 34.5q-92 0 -136 -36.5t-44 -100.5z" />
<glyph unicode="9" d="M74 938q0 92 31 167t83.5 124.5t123.5 83t148 48.5t161 15q74 0 136 -8t110.5 -25t88 -38t68 -52.5t50 -63.5t35.5 -76.5t23 -85t13.5 -95.5t6 -101.5t1.5 -109.5q0 -77 -4.5 -142t-19 -143.5t-38.5 -140t-67.5 -122.5t-101.5 -101t-143 -65t-191 -25q-240 0 -383 57 q-43 15 -55 33.5t-3 50.5l23 110q9 32 22 42.5t41 7.5q208 -25 353 -25q115 0 168 63t63 187q-161 -16 -317 -16q-213 0 -319.5 109.5t-106.5 336.5zM397 944q0 -100 33.5 -144t120.5 -44q100 0 276 18q0 201 -28 256q-34 74 -185 74q-217 0 -217 -160z" />
<glyph unicode=":" horiz-adv-x="479" d="M76 135q0 72 36.5 113t127.5 41q94 0 128.5 -39t34.5 -115q0 -33 -6.5 -58t-22.5 -48.5t-50 -36t-84 -12.5q-52 0 -86.5 13t-50.5 37t-21.5 48t-5.5 57zM76 776q0 71 36.5 112.5t127.5 41.5q94 0 128.5 -39t34.5 -115q0 -33 -6.5 -58t-22.5 -48.5t-50 -36t-84 -12.5 q-52 0 -86.5 13t-50.5 37t-21.5 48t-5.5 57z" />
<glyph unicode=";" horiz-adv-x="479" d="M36 -234q2 11 30 41q67 67 67 152q0 68 -47 121q-19 21 -25 35t0.5 29t30.5 32l133 103q20 15 37.5 15.5t30 -7t31.5 -25.5q39 -38 61.5 -93t22.5 -103q0 -128 -66 -237t-156 -163q-42 -22 -77 10l-52 54q-23 25 -21 36zM76 776q0 71 36.5 112.5t127.5 41.5 q94 0 128.5 -39t34.5 -115q0 -33 -6.5 -58t-22.5 -48.5t-50 -36t-84 -12.5q-52 0 -86.5 13t-50.5 37t-21.5 48t-5.5 57z" />
<glyph unicode="&#x3c;" d="M164 596v143q0 20 7.5 29t23.5 18l831 422q19 7 26 0.5t7 -22.5v-197q0 -20 -7.5 -29t-23.5 -18l-512 -268v-8l514 -265q31 -12 31 -47v-207q0 -17 -10.5 -21.5t-24.5 3.5l-829 420q-33 12 -33 47z" />
<glyph unicode="=" d="M147 401v146q0 43 43 43h844q25 0 34 -9.5t9 -31.5v-148q0 -23 -9 -33t-34 -10h-844q-43 0 -43 43zM147 778v146q0 43 43 43h844q25 0 34 -9.5t9 -31.5v-148q0 -23 -9 -33t-34 -10h-844q-23 0 -33 10t-10 33z" />
<glyph unicode="&#x3e;" d="M166 147v207q0 33 31 47l516 265v8l-514 268q-11 7 -15.5 10.5t-10 13t-5.5 23.5v197q0 38 35 22l831 -422q10 -6 15 -10t9.5 -13.5t4.5 -23.5v-143q0 -34 -31 -47l-829 -420q-15 -8 -26 -3.5t-11 21.5z" />
<glyph unicode="?" horiz-adv-x="892" d="M57 1262q-3 31 3 42.5t36 24.5q115 47 283 47q216 0 331 -86t115 -248q0 -42 -12 -80.5t-27 -64.5t-43 -54.5t-45.5 -43t-48.5 -37.5q-87 -64 -123.5 -119t-36.5 -143v-78q0 -45 -34 -45h-203q-22 0 -31.5 8.5t-13.5 32.5q-6 41 -6 102q0 74 14 130.5t47 105t67 82.5 t95 84q36 31 52 52.5t16 49.5q0 52 -38 74t-126 22q-75 0 -197 -12q-37 -4 -47.5 2t-13.5 33zM188 131q0 150 160 150q91 0 125.5 -39t34.5 -111q0 -68 -34 -109.5t-126 -41.5q-94 0 -127 41.5t-33 109.5z" />
<glyph unicode="@" horiz-adv-x="1853" d="M121 719q0 162 64 304t175 242.5t267 158t334 57.5q192 0 341.5 -57.5t241.5 -158t139.5 -231t47.5 -282.5q0 -112 -33.5 -201t-89.5 -144t-126 -83.5t-147 -28.5q-91 0 -158.5 30.5t-99.5 88.5q-131 -82 -258 -82q-131 0 -189.5 58.5t-58.5 184.5q0 143 82.5 208 t243.5 65q83 2 137 6q0 59 -29.5 78.5t-99.5 19.5q-68 0 -200 -12q-24 -6 -40.5 -1.5t-21.5 30.5l-14 69q-5 25 4.5 38t30.5 24q41 23 117.5 35t150.5 12q99 0 164 -19.5t100 -60.5t48 -93t13 -130v-269q0 -79 93 -79q68 0 114.5 64.5t46.5 182.5q0 154 -59.5 273.5 t-184 191.5t-298.5 72q-143 0 -262.5 -43.5t-199.5 -118.5t-124.5 -177t-44.5 -218q0 -124 33.5 -224.5t102 -176t181.5 -117t265 -41.5q30 0 110 8.5t148 20.5q27 6 40.5 4t20.5 -21l18 -67q19 -71 -20 -91q-56 -30 -149 -44.5t-175 -14.5q-203 0 -357 56t-248 159 t-140.5 239.5t-46.5 305.5zM788 575q0 -63 66 -63q72 0 178 61q0 17 -1 54t-1 55h-143q-49 0 -74 -24.5t-25 -82.5z" />
<glyph unicode="A" horiz-adv-x="1265" d="M18 10q-3 4 -3 12q0 11 5 31l396 1250q10 31 26 45t54 14h258q39 0 53.5 -13.5t26.5 -48.5l411 -1251q4 -15 4 -25q0 -7 -2 -12q-5 -12 -26 -12h-254q-32 0 -46 14t-24 49l-68 244h-407l-74 -250q-16 -57 -72 -57h-227q-25 0 -31 10zM492 557h266l-62 225l-65 250h-10 l-68 -248z" />
<glyph unicode="B" horiz-adv-x="1269" d="M137 45v1270q0 45 45 45l520 2q207 0 316.5 -100.5t109.5 -278.5q0 -29 -6 -61t-21 -70t-46 -72.5t-74 -56.5l2 -8q56 -22 95 -61t56.5 -86.5t24 -86t6.5 -78.5q0 -123 -60.5 -216.5t-156.5 -140t-209 -46.5h-555q-47 0 -47 45zM463 272h211q157 0 157 148 q0 68 -39 110.5t-118 42.5h-211v-301zM463 836h196q62 0 99 34.5t37 90.5q0 59 -36 94t-110 35h-186v-254z" />
<glyph unicode="C" horiz-adv-x="1214" d="M119 674q0 702 594 702q234 0 385 -65q34 -15 48 -33.5t7 -54.5l-27 -119q-6 -29 -19 -36.5t-50 -4.5q-211 22 -314 22q-67 0 -117 -21t-80.5 -56t-49 -88.5t-25 -110t-6.5 -129.5q0 -82 7 -142.5t25.5 -113.5t49 -86t79.5 -51.5t115 -18.5q106 0 318 23q39 3 51.5 -4 t19.5 -37l27 -109q4 -15 4 -28q1 -17 -7 -29q-14 -20 -48 -35q-75 -33 -183 -51t-208 -18q-596 0 -596 694z" />
<glyph unicode="D" horiz-adv-x="1347" d="M137 45v1270q0 45 45 45h447q602 0 602 -676q0 -116 -16 -212t-58 -186t-108 -151t-173 -98t-247 -37h-445q-47 0 -47 45zM461 272h131q145 0 223 94t78 304q0 216 -69.5 316.5t-217.5 100.5h-145v-815z" />
<glyph unicode="E" horiz-adv-x="1142" d="M139 43v1272q0 47 45 47h813q20 0 31.5 -12.5t11.5 -32.5v-187q0 -43 -45 -43h-530v-247h463q22 0 34.5 -11.5t12.5 -31.5v-187q0 -43 -47 -43h-463v-295h541q21 0 33 -12t12 -33v-186q0 -41 -45 -41h-822q-45 0 -45 43z" />
<glyph unicode="F" horiz-adv-x="1075" d="M137 1317q0 45 47 45h797q20 0 32.5 -12.5t12.5 -32.5v-187q0 -43 -47 -43h-514v-247h440q45 0 45 -43v-187q0 -22 -10 -32.5t-35 -10.5h-440v-522q0 -45 -43 -45h-238q-45 0 -45 45z" />
<glyph unicode="G" horiz-adv-x="1320" d="M121 676q0 700 592 700q238 0 385 -65q34 -13 48 -32.5t7 -55.5l-27 -121q-6 -30 -18.5 -37t-50.5 -2q-194 24 -307 24q-56 0 -101 -14t-75.5 -41.5t-51.5 -63t-33 -83t-17 -97t-5 -108.5q0 -76 5.5 -133.5t23 -113t46.5 -91t77.5 -57t115.5 -21.5q69 0 150 15v245h-140 q-28 0 -37.5 10.5t-9.5 32.5v172q0 22 9.5 32.5t37.5 10.5h408q21 0 34 -12.5t13 -30.5q0 -337 -2 -581q0 -41 -12 -68t-51 -43q-90 -34 -207 -50.5t-221 -16.5q-100 0 -182.5 19.5t-142.5 53.5t-106 84.5t-75 108.5t-47 130t-25.5 144t-7.5 156z" />
<glyph unicode="H" horiz-adv-x="1325" d="M137 45v1270q0 47 45 47h238q43 0 43 -47v-471h399v471q0 47 45 47h238q43 0 43 -47v-1270q0 -45 -43 -45h-238q-45 0 -45 45v524h-399v-524q0 -45 -43 -45h-238q-45 0 -45 45z" />
<glyph unicode="I" horiz-adv-x="622" d="M147 45v1270q0 47 43 47h240q43 0 43 -47v-1270q0 -45 -43 -45h-240q-43 0 -43 45z" />
<glyph unicode="J" horiz-adv-x="968" d="M16 113l31 133q9 30 18 36t37 1q131 -15 203 -15q105 0 141.5 39.5t36.5 118.5v889q0 47 45 47h236q45 0 45 -47q0 -711 -2 -953q0 -184 -110.5 -282t-336.5 -98q-158 0 -274 41q-53 19 -66 35q-8 10 -8 28q0 11 4 27z" />
<glyph unicode="K" horiz-adv-x="1267" d="M125 45v1270q0 47 45 47h238q43 0 43 -47v-484h4l147 193l240 297q35 41 92 41h264q32 0 39 -17t-12 -40l-441 -531l457 -713q12 -22 12 -35q-1 -6 -3 -12q-8 -14 -33 -14h-271q-34 0 -53.5 13t-36.5 40l-285 465l-120 -149v-324q0 -45 -43 -45h-238q-45 0 -45 45z" />
<glyph unicode="L" horiz-adv-x="1075" d="M139 43v1272q0 47 45 47h236q45 0 45 -47v-1043h551q37 0 37 -34v-197q0 -41 -45 -41h-824q-45 0 -45 43z" />
<glyph unicode="M" horiz-adv-x="1597" d="M139 45v1272q0 45 43 45h176q40 0 58.5 -10.5t32.5 -38.5l198 -404l152 -317h8l156 321l198 398q15 28 32.5 39.5t55.5 11.5h168q41 0 41 -45v-1272q0 -45 -41 -45h-229q-45 0 -45 45v627l-6 2l-72 -160l-129 -264q-15 -27 -34 -40t-52 -13h-100q-34 0 -52.5 11.5 t-33.5 37.5l-134 274l-71 156l-4 -2v-629q0 -45 -43 -45h-230q-43 0 -43 45z" />
<glyph unicode="N" horiz-adv-x="1372" d="M135 43v1272q0 45 45 45h168q29 0 48.5 -9t27 -18.5t22.5 -32.5q126 -188 463 -708q1 0 3 1t3 1v719q0 47 46 47h227q43 0 43 -47v-1270q0 -43 -43 -43h-168q-34 0 -53 11t-35 36q-233 349 -311 465l-162 250h-6v-719q0 -43 -43 -43h-228q-47 0 -47 43z" />
<glyph unicode="O" horiz-adv-x="1411" d="M117 698q0 59 4.5 114.5t20 126t40.5 129.5t70 118t104 100t147.5 66.5t196.5 25.5q107 0 194 -21t147.5 -56.5t106 -88.5t72.5 -110t44 -128t22.5 -135.5t5.5 -140.5q0 -75 -4.5 -137.5t-20 -138.5t-41 -136t-70.5 -119t-106 -98t-151 -63t-201 -24t-199.5 24t-148.5 63 t-104 98.5t-68 118.5t-38.5 136t-18.5 138.5t-4 137.5zM461 676q0 -216 52.5 -315t188.5 -99q141 0 198.5 99t57.5 315q0 226 -56 324t-200 98q-133 0 -187 -100.5t-54 -321.5z" />
<glyph unicode="P" horiz-adv-x="1161" d="M137 45v1272q0 45 45 45h475q131 0 234 -45.5t166 -143t63 -235.5q0 -62 -11.5 -118.5t-43.5 -116.5t-82 -103.5t-134 -71.5t-192 -28h-194v-455q0 -45 -43 -45h-238q-45 0 -45 45zM463 764h151q81 0 126.5 42t45.5 124q0 79 -47 119.5t-129 40.5h-147v-326z" />
<glyph unicode="Q" horiz-adv-x="1417" d="M119 698q0 59 4.5 114t19.5 126t40 130t69.5 118t103.5 100t147.5 66.5t196.5 25.5q107 0 194 -21t148 -56.5t106.5 -88.5t73 -110t44 -128t22.5 -136t6 -140q0 -85 -6.5 -156t-24.5 -150.5t-56 -148t-95 -118.5l209 -59q31 -9 37 -25q2 -5 2 -11q0 -14 -10 -34l-74 -176 q-12 -38 -46 -38q-17 0 -38 9l-461 193q-10 -2 -31 -2q-111 0 -200.5 24t-149 63t-103.5 98.5t-68 118t-38 136t-18 139t-4 137.5zM461 676q0 -214 54 -314t187 -100q138 0 197 100t59 314q0 226 -56 324t-200 98q-132 0 -186.5 -101t-54.5 -321z" />
<glyph unicode="R" horiz-adv-x="1228" d="M133 45v1272q0 45 47 45h502q86 0 164 -25t142.5 -73.5t103 -130.5t38.5 -187q0 -73 -20 -140t-72 -131t-131 -100l252 -524q6 -14 6 -24q0 -7 -3 -13q-7 -14 -29 -14h-252q-62 0 -80 45l-209 473h-133v-473q0 -45 -43 -45h-236q-47 0 -47 45zM459 782h164q172 0 172 160 q0 75 -46 110t-122 35h-168v-305z" />
<glyph unicode="S" horiz-adv-x="1189" d="M94 958q0 198 133.5 307t362.5 109q248 0 391 -59q33 -12 47 -25t14.5 -27t-2.5 -34l-28 -121q-8 -36 -27 -42t-61 1q-176 23 -310 23q-90 0 -134 -29.5t-44 -93.5q0 -62 35.5 -84.5t146.5 -46.5q66 -14 101 -23t94.5 -28t92.5 -38t75 -51.5t64 -71t37.5 -94t15.5 -122.5 q0 -94 -30 -168.5t-80 -122t-120 -78.5t-145.5 -44t-161.5 -13q-89 0 -203 14.5t-200 48.5q-47 19 -56 35.5t-2 50.5l25 119q8 37 24.5 44t55.5 -1q237 -29 358 -29q104 0 152.5 32.5t48.5 98.5q0 70 -40.5 98.5t-150.5 51.5q-61 13 -101.5 23.5t-95.5 29t-91.5 38t-75.5 51 t-62 68.5t-38 89t-15 114z" />
<glyph unicode="T" horiz-adv-x="1067" d="M25 1130v187q0 22 9.5 33.5t35.5 11.5h927q21 0 33 -12t12 -33v-187q0 -43 -45 -43h-303v-1042q0 -45 -43 -45h-235q-45 0 -45 45v1042h-301q-26 0 -35.5 11t-9.5 32z" />
<glyph unicode="U" horiz-adv-x="1343" d="M137 506v809q0 47 45 47h236q43 0 43 -47v-801q0 -252 209 -252q215 0 215 252l-2 801q0 47 47 47h235q43 0 43 -47l-2 -809q0 -145 -39 -244q-40 -97 -120 -161.5t-174 -91.5t-203 -27h-10q-246 0 -384 140q-140 143 -139 384z" />
<glyph unicode="V" horiz-adv-x="1304" d="M35 1311q-6 14 -6 25q0 26 39 26h219q41 0 58.5 -12t25.5 -45l149 -482l131 -444h11l126 448l138 471q19 64 80 64h237q27 0 31 -16q2 -5 2 -11q0 -11 -6 -24l-416 -1252q-10 -30 -28 -44.5t-60 -14.5h-231q-40 0 -59 14t-27 43z" />
<glyph unicode="W" horiz-adv-x="1796" d="M31 1311q-3 11 -3 19q0 32 38 32h233q34 0 50.5 -12t23.5 -43q129 -518 139 -549l74 -318h8l63 224q3 14 50 173.5t51 170.5l-96 303q-7 19 -0.5 35t26.5 16h217q35 0 53 -12t25 -43q148 -559 156 -590l67 -277h11l61 301l133 566q7 30 26 42.5t56 12.5h221q37 0 37 -30 q0 -10 -4 -23l-330 -1250q-8 -31 -27.5 -45t-60.5 -14h-186q-43 0 -60 14t-28 45l-94 310l-54 178h-10l-57 -178l-97 -310q-11 -31 -27.5 -45t-58.5 -14h-190q-40 0 -59 14t-27 43z" />
<glyph unicode="X" horiz-adv-x="1206" d="M31 17q-1 4 -1 9q0 14 11 31l377 637l-355 609q-13 23 -5.5 41t34.5 18h254q30 0 42 -8.5t26 -36.5l94 -182l90 -181l92 191l88 170q12 25 26 35t40 10h260q25 1 35.5 -8t8.5 -20t-9 -23l-365 -615l379 -641q8 -11 8 -23q0 -5 -1 -11q-5 -19 -34 -19h-256q-26 0 -41 9 t-30 34l-101 193l-102 202l-100 -202l-99 -187q-14 -28 -30.5 -38.5t-47.5 -10.5h-256q-27 0 -32 17z" />
<glyph unicode="Y" horiz-adv-x="1288" d="M23 1346q6 16 28 16h244q35 0 50 -9.5t30 -39.5l135 -269l121 -245h12l127 248l131 251q17 36 32.5 50t47.5 14h246q23 0 29 -14q3 -6 3 -11q0 -10 -6 -20l-462 -817v-455q0 -45 -41 -45h-238q-45 0 -45 45v455l-440 811q-6 13 -6 23q0 7 2 12z" />
<glyph unicode="Z" horiz-adv-x="1126" d="M86 43v166q0 48 27 82l559 796h-500q-26 0 -35.5 11t-9.5 32v187q0 22 9.5 33.5t35.5 11.5h823q19 0 31 -12t12 -31l-2 -150q0 -53 -26 -98l-561 -799h548q26 0 35.5 -11t9.5 -32v-184q0 -22 -9 -33.5t-34 -11.5h-868q-20 0 -32.5 11.5t-12.5 31.5z" />
<glyph unicode="[" horiz-adv-x="602" d="M74 -150v1530q0 43 43 43h364q20 0 31.5 -11t11.5 -30v-168q0 -38 -43 -38h-116v-1125h118q43 0 43 -43v-162q0 -41 -43 -41h-364q-45 0 -45 45z" />
<glyph unicode="\" horiz-adv-x="653" d="M18 1370q-7 49 33 49h191q34 0 45 -35l350 -1468q10 -43 -35 -43h-192q-15 0 -27.5 9t-15.5 24z" />
<glyph unicode="]" horiz-adv-x="602" d="M80 8q0 20 12 31.5t31 11.5h121v1125h-119q-45 0 -45 38v168q0 19 12 30t31 11h366q46 0 46 -43v-1532q0 -43 -46 -43h-366q-43 0 -43 41v162z" />
<glyph unicode="^" horiz-adv-x="1179" d="M50 768.5q0 9.5 16 30.5l368 524q16 22 31.5 29.5t50.5 7.5l168 -2q40 0 53 -7t27 -28l348 -524q15 -22 15 -33.5t-17 -24.5l-80 -59q-17 -15 -29.5 -15t-29.5 17l-381 432l-383 -430q-18 -17 -32 -17t-32 15l-75 59q-18 16 -18 25.5z" />
<glyph unicode="_" horiz-adv-x="1024" d="M-37 -139q0 43 43 43h1012q25 0 34 -9t9 -32v-111q0 -23 -9 -33t-34 -10h-1012q-43 0 -43 41v111z" />
<glyph unicode="`" horiz-adv-x="1097" d="M324 1405q-33 38 4 61l141 109q37 20 59 -12l228 -326q21 -30 -6 -49l-97 -76q-23 -20 -51 8z" />
<glyph unicode="a" horiz-adv-x="1173" d="M80 285v10q0 173 99 251q102 80 294 79h236v32q0 68 -36 94.5t-145 26.5q-88 0 -268 -18q-42 -6 -56.5 -0.5t-21.5 35.5l-22 106q-5 28 7.5 45t57.5 35q63 24 166.5 36.5t186.5 12.5q95 0 166 -11t119 -35.5t78.5 -55t46.5 -77.5t22 -94.5t6 -113.5v-324q0 -62 13 -77 t63 -21q26 -1 34.5 -8.5t8.5 -26.5v-131q0 -41 -60 -53q-57 -14 -127 -14q-85 0 -138.5 28.5t-72.5 104.5l-4 2q-73 -69 -176 -104t-190 -35q-70 0 -122 17t-83 44t-50 67.5t-25.5 81t-6.5 91.5zM395 301q0 -47 20 -65.5t72 -18.5q45 0 107 22t108 50v137h-184 q-61 0 -92 -28t-31 -97z" />
<glyph unicode="b" horiz-adv-x="1128" d="M94 143v1258q0 45 45 45h226q43 0 43 -45v-406q109 35 206 35q106 0 183.5 -25.5t124 -68.5t74 -111t37 -140t9.5 -169q0 -103 -11.5 -180.5t-42.5 -146.5t-82.5 -113t-135 -69t-197.5 -25q-109 0 -227 16t-190 45q-36 16 -49 39.5t-13 60.5zM408 264q59 -10 135 -10 q42 0 70.5 8.5t55 32.5t39.5 75.5t13 129.5q0 100 -17 157.5t-49 80.5t-86 24q-61 0 -161 -23v-475z" />
<glyph unicode="c" horiz-adv-x="978" d="M84 510q0 57 5 107t18.5 104t35.5 98t58.5 84t84.5 67.5t116.5 43.5t152.5 16q201 0 322 -51q44 -18 44 -61q0 -7 -1 -15l-23 -125q-7 -30 -21.5 -35t-56.5 0q-154 15 -221 15q-102 0 -148.5 -58.5t-46.5 -183.5q0 -148 42 -205t149 -57q105 0 246 16q34 5 44.5 -0.5 t16.5 -36.5l21 -112q4 -16 4 -29q0 -16 -6 -26q-10 -18 -52 -37q-60 -21 -148.5 -34t-164.5 -13q-119 0 -206 30t-137 77.5t-80 120t-39 141.5t-9 159z" />
<glyph unicode="d" horiz-adv-x="1132" d="M82 492q0 105 9.5 182t36.5 148t72.5 115t120 69.5t177.5 25.5q109 0 221 -33q0 2 2 2v398q0 47 43 47h223q43 0 43 -47v-1356q0 -43 -43 -43h-225q-24 0 -32.5 9.5t-8.5 31.5v53q-1 0 -3 1t-3 1q-148 -112 -291 -112q-82 0 -142.5 25.5t-98.5 68.5t-61 109.5t-31.5 139 t-8.5 165.5zM399 502q0 -99 14 -151t39 -68.5t70 -16.5q70 0 197 62v413q-92 23 -160 23q-61 0 -94 -21.5t-49.5 -78t-16.5 -162.5z" />
<glyph unicode="e" horiz-adv-x="1091" d="M86 498q0 50 3 92.5t14.5 99t30.5 101.5t54.5 91t83.5 77.5t120 51t161 19.5q113 0 198 -28.5t134.5 -72.5t80 -108t41 -124.5t11.5 -133.5q0 -67 -25 -99t-88 -32h-499q6 -112 58 -151t163 -39q73 0 241 20q41 5 52 -1.5t18 -43.5l16 -96q7 -39 -1.5 -56.5t-51.5 -35.5 q-59 -21 -155.5 -34t-174.5 -13q-120 0 -208.5 28.5t-140.5 74.5t-83.5 115.5t-42 139t-10.5 158.5zM410 616h284q0 175 -141 175q-70 0 -104 -44t-39 -131z" />
<glyph unicode="f" horiz-adv-x="878" d="M63 813v154q0 45 46 45h88v96q0 170 98 265t299 95q174 0 289 -51q30 -12 37 -33q2 -10 2 -19q0 -12 -4 -22l-25 -129q-6 -23 -19.5 -27.5t-48.5 1.5q-112 14 -178 14q-74 0 -106.5 -34.5t-32.5 -104.5v-51h223q26 0 34.5 -10.5t8.5 -32.5v-156q0 -25 -8.5 -36t-34.5 -11 h-225v-721q0 -45 -43 -45h-223q-45 0 -45 45v721h-86q-46 0 -46 47z" />
<glyph unicode="g" horiz-adv-x="1130" d="M88 504q0 97 13 173.5t46.5 144.5t87.5 113t139 71t199 26q105 0 215 -15.5t185 -43.5q37 -16 49 -40.5t12 -62.5v-835q0 -63 -3.5 -108t-15 -96.5t-31.5 -86.5t-56 -69.5t-86 -55t-123 -33t-166 -12.5q-202 0 -326 47q-43 17 -54.5 35.5t-6.5 46.5l24 115q6 31 20.5 37 t49.5 -2q144 -21 277 -21q111 0 148.5 35t37.5 119v49q-112 -35 -205 -35q-102 0 -178 25t-124 67.5t-77 108t-40 138t-11 165.5zM410 522q0 -147 36 -200.5t123 -53.5q59 0 154 23v457q-71 12 -135 12q-42 0 -70 -8t-55 -31.5t-40 -73t-13 -125.5z" />
<glyph unicode="h" horiz-adv-x="1142" d="M98 45v1356q0 45 43 45h228q43 0 43 -45v-463q164 92 305 92q64 0 115 -13t85 -33.5t58.5 -53t38 -64.5t21.5 -76.5t10 -80t2 -82.5v-582q0 -45 -43 -45h-226q-45 0 -45 45q0 44 1 275.5t1 275.5q0 82 -30 118t-95 36q-59 0 -200 -60v-645q0 -45 -43 -45h-226 q-43 0 -43 45z" />
<glyph unicode="i" horiz-adv-x="567" d="M121 1278q0 71 36.5 111.5t127.5 40.5q93 0 127 -39t34 -113q0 -70 -34 -112t-127 -42q-51 0 -85.5 13t-50.5 37t-22 48t-6 56zM125 45v922q0 23 10 34t35 11h225q41 0 41 -45v-922q0 -45 -41 -45h-225q-45 0 -45 45z" />
<glyph unicode="j" horiz-adv-x="598" d="M-139 -229q-1 10 -1 17q0 16 4 20q6 8 36 14q46 10 67.5 15t53.5 14t45.5 16t33 19t26.5 24.5t15 30.5t10.5 40.5t2.5 51.5v934q0 45 47 45h223q43 0 43 -45v-928q0 -136 -35 -230.5t-106 -148.5t-168 -76q-79 -19 -183 -19q-23 0 -47 1q-19 0 -35.5 10t-17.5 35z M150 1278q0 71 35.5 111.5t125.5 40.5q94 0 129 -39t35 -113q0 -69 -35 -111.5t-129 -42.5q-50 0 -84 13t-50 37t-21.5 48t-5.5 56z" />
<glyph unicode="k" horiz-adv-x="1085" d="M100 45v1356q0 47 45 47h224q43 0 43 -47v-719l6 -2l129 147l123 140q21 25 40 35t56 10h233q36 0 42 -16.5t-17 -39.5l-313 -338l358 -561q9 -15 9 -27q0 -8 -4 -14q-10 -16 -38 -16h-225q-42 0 -63 12t-35 37l-207 344l-94 -102v-246q0 -45 -43 -45h-224q-45 0 -45 45z " />
<glyph unicode="l" horiz-adv-x="614" d="M123 252v1149q0 45 45 45h223q43 0 43 -45v-1088q0 -40 19 -51.5t69 -13.5q31 -1 37.5 -6t9.5 -27l11 -154q1 -17 -6 -26.5t-27 -18.5q-55 -26 -164 -26q-134 0 -197 62t-63 200z" />
<glyph unicode="m" horiz-adv-x="1726" d="M98 43v922q0 45 43 45h226q45 0 45 -45v-47l2 -3q142 113 301 113q95 0 163.5 -35t100.5 -104q76 63 166.5 101t179.5 38q60 0 107.5 -13t78.5 -32.5t53.5 -53t34 -64t18 -76.5t8 -79.5t1.5 -82.5v-584q0 -43 -41 -43h-225q-25 0 -35 10.5t-10 32.5v539q0 91 -27 123 t-88 32q-34 0 -86.5 -18t-95.5 -41v-635q0 -43 -43 -43h-225q-43 0 -43 43v545q0 83 -26.5 116t-84.5 33q-76 0 -184 -59v-635q0 -43 -45 -43h-226q-43 0 -43 43z" />
<glyph unicode="n" horiz-adv-x="1142" d="M96 43v922q0 45 45 45h224q43 0 43 -45v-50q1 0 3 -1t3 -1q67 51 157 83t164 32q61 0 109 -13t80 -33t55 -53t35.5 -65t19.5 -77t8.5 -79.5t1.5 -82.5v-582q0 -43 -43 -43h-225q-45 0 -45 43q0 90 1 269t1 268q0 84 -29.5 120.5t-95.5 36.5q-30 0 -66 -10.5t-79.5 -27.5 t-54.5 -21v-635q0 -43 -43 -43h-224q-25 0 -35 10.5t-10 32.5z" />
<glyph unicode="o" horiz-adv-x="1124" d="M86 520q0 45 3.5 87t16 95t32.5 97t56 88t84 74.5t119 49.5t158 19q88 0 159.5 -16t121.5 -43t87 -67t59 -83t35.5 -96.5t18 -101t4.5 -103.5t-3 -100.5t-14.5 -102.5t-31 -102t-56.5 -89.5t-86.5 -75t-124.5 -48t-169 -18.5q-91 0 -164 18.5t-121.5 48t-83.5 75t-54 89 t-30 102t-13.5 102.5t-2.5 101zM401 508q0 -139 32.5 -198.5t121.5 -59.5q98 0 132 59.5t34 198.5t-32.5 197.5t-129.5 58.5q-90 0 -124 -62t-34 -194z" />
<glyph unicode="p" horiz-adv-x="1126" d="M98 -354v1319q0 45 43 45h226q43 0 43 -45v-50q1 0 2 -1t2 -1q154 113 291 113q83 0 144.5 -26.5t99 -71t60.5 -113t31.5 -141.5t8.5 -166q0 -104 -11 -181.5t-39 -145.5t-74.5 -110.5t-119.5 -66.5t-172 -24q-110 0 -221 30h-2v-364q0 -45 -43 -45h-226q-25 0 -34 11.5 t-9 33.5zM410 268q81 -22 159 -22q60 0 92.5 20.5t49 76.5t16.5 161q0 140 -28 187.5t-95 47.5q-68 0 -194 -59v-412z" />
<glyph unicode="q" horiz-adv-x="1130" d="M86 496q0 99 13 176.5t46.5 146.5t87.5 114t139 71t199 26q255 0 402 -59q36 -16 47.5 -40t11.5 -63v-1222q0 -45 -41 -45h-225q-47 0 -47 45v368q-104 -30 -203 -30q-102 0 -178 25t-124 68t-77 109.5t-40 140t-11 169.5zM408 514q0 -152 37 -209t122 -57q57 0 156 24 v476q-73 12 -137 12q-41 0 -70 -8.5t-55 -33t-39.5 -75.5t-13.5 -129z" />
<glyph unicode="r" horiz-adv-x="841" d="M129 45v922q0 45 45 45h223q45 0 45 -45v-99l4 -4q54 55 142 101t155 57q13 2 24 2q17 0 25 -5q14 -8 19 -44l25 -201q1 -8 1 -14q0 -20 -7 -28q-9 -12 -52 -19q-192 -36 -336 -88v-580q0 -45 -43 -45h-225q-45 0 -45 45z" />
<glyph unicode="s" horiz-adv-x="999" d="M80 125l22 98q6 29 19 35.5t47 -0.5q159 -27 293 -27q77 0 110 18t33 58q0 43 -24 59.5t-91 24.5q-55 8 -92.5 14.5t-83.5 18.5t-76 26.5t-61 38t-49 52.5t-29.5 70t-11.5 91q0 158 115 243t303 85q77 0 167 -11.5t150 -33.5q46 -15 62 -31.5t8 -52.5l-23 -104 q-8 -29 -17.5 -35t-43.5 -2q-184 24 -291 24h-8q-64 0 -86 -16t-23 -53q0 -18 8 -30.5t29 -20.5t38 -11.5t52 -9.5q52 -7 89 -13t81.5 -18t75 -27t61.5 -39.5t49.5 -55t30 -74t11.5 -97.5q0 -74 -25 -132.5t-67 -96t-101 -62.5t-123 -35.5t-137 -10.5q-76 0 -168.5 12.5 t-152.5 32.5q-51 19 -65 39q-9 12 -9 31q0 12 4 28z" />
<glyph unicode="t" horiz-adv-x="837" d="M49 811v154q0 24 9.5 34.5t33.5 10.5h92v200q0 41 45 54l207 55q10 4 19 4q9 1 17 -5q14 -10 15 -34v-274h209q26 0 34.5 -9.5t8.5 -33.5v-156q0 -25 -8.5 -35t-34.5 -10h-211l2 -381q0 -34 3 -51t15 -32.5t37.5 -21t69.5 -6.5q27 0 142 9h7.5h7.5t6 -0.5t6 -1t5 -2t5 -4 t3.5 -5.5t3.5 -7.5t2.5 -10t2.5 -12.5l18 -148q2 -8 2 -16q0 -14 -7 -25q-11 -18 -32 -24q-128 -43 -299 -43q-93 0 -155.5 26t-93.5 75t-42.5 101.5t-11.5 122.5v457h-90q-24 0 -33.5 10.5t-9.5 34.5z" />
<glyph unicode="u" horiz-adv-x="1136" d="M94 377v588q0 45 43 45h225q44 0 44 -45v-537q0 -80 28.5 -119t95.5 -39q30 0 65 10.5t77.5 28.5t50.5 21v635q0 45 43 45h225q45 0 45 -45v-922q0 -22 -10 -32.5t-35 -10.5h-225q-43 0 -43 43v51q-1 0 -2 1t-2 1q-67 -51 -156.5 -81.5t-165.5 -30.5q-61 0 -108 11.5 t-78.5 29.5t-54 49t-34.5 60.5t-18.5 74.5t-8 80t-1.5 88z" />
<glyph unicode="v" horiz-adv-x="1116" d="M39 958q-6 15 -6 26q0 28 37 28h225q22 0 32 -2t19.5 -12.5t15.5 -32.5l115 -361q76 -254 78 -262h10l82 272l119 355q7 24 20 33.5t48 9.5h210q32 0 40 -12q3 -5 3 -14q0 -10 -6 -25l-338 -898q-12 -35 -31.5 -49t-58.5 -14h-190q-41 0 -58 13.5t-30 49.5z" />
<glyph unicode="w" horiz-adv-x="1554" d="M33 981q0 29 33 29h231q27 0 39.5 -8.5t19.5 -34.5l93 -342l71 -263h10l74 232l55 162l-71 209q-6 19 1 32t29 13h205q32 0 42.5 -8t19.5 -41q51 -168 108 -367l62 -213h8l65 256l84 326q8 28 17.5 37.5t32.5 9.5h229q35 0 35 -24q0 -8 -4 -19l-283 -904 q-10 -34 -26 -48.5t-54 -14.5h-172q-35 0 -49.5 11t-26.5 48l-49 148l-67 201h-7l-75 -207l-51 -142q-7 -21 -13.5 -31.5t-23.5 -19t-45 -8.5h-158q-39 0 -55 12t-27 45l-305 908q-2 6 -2 16z" />
<glyph unicode="x" horiz-adv-x="1060" d="M16 14q-2 4 -2 9q0 13 13 32l323 461l-303 442q-14 19 -8 36.5t33 17.5h239q28 0 38.5 -6.5t25.5 -28.5l153 -248l154 246q11 21 22 29t33 8h254q34 0 40.5 -17t-9.5 -37l-315 -442l323 -461q9 -14 9 -26q-1 -7 -3 -13q-8 -16 -35 -16h-239q-26 0 -40 7t-26 28l-168 268 l-166 -266q-22 -37 -71 -37h-242q-27 0 -33 14z" />
<glyph unicode="y" horiz-adv-x="1069" d="M29 961q-6 14 -6 24q0 27 38 27h220q31 0 44 -7t21 -36l96 -297l86 -281h11q13 34 36.5 105t40.5 126l17 54q13 40 46 144.5t48 148.5q8 24 21.5 33.5t48.5 9.5h204q31 0 37 -14q3 -6 3 -13q0 -11 -7 -27l-487 -1310q-11 -28 -25 -37.5t-49 -9.5h-197q-30 0 -37 11.5 t5 39.5l139 375z" />
<glyph unicode="z" horiz-adv-x="964" d="M57 41v131q0 45 31 80l428 512h-387q-23 0 -33 10t-10 35v160q0 43 43 43h717q25 0 34 -9t9 -32v-137q0 -42 -31 -80l-422 -504h420q24 0 34.5 -10.5t10.5 -34.5v-160q0 -24 -10.5 -34.5t-34.5 -10.5h-758q-25 0 -33 9.5t-8 31.5z" />
<glyph unicode="{" horiz-adv-x="704" d="M59 563v109q0 28 31 35q26 7 43 19.5t26 25t13.5 36.5t5 40t0.5 51v317q0 101 65.5 172.5t186.5 71.5q41 0 168 -13q21 -1 28 -11t7 -30v-133q0 -22 -9.5 -30.5t-29.5 -8.5l-55 -4q-41 -3 -56.5 -24.5t-15.5 -67.5v-268q0 -31 -5.5 -62.5t-18.5 -68t-41.5 -65.5 t-69.5 -42v-6q37 -14 63 -34t39.5 -40t20.5 -50t8.5 -50.5t1.5 -54.5v-291q0 -46 16.5 -66.5t59.5 -23.5l53 -4q20 -2 29.5 -10t9.5 -29v-131q0 -17 -10 -27t-25 -12q-66 -10 -176 -10q-65 0 -114 20t-76.5 55t-40.5 75.5t-13 86.5v346q0 35 -0.5 51t-4.5 39t-13 35t-25 24 t-41 19q-35 10 -35 39z" />
<glyph unicode="|" horiz-adv-x="608" d="M168 -182v1564q0 45 45 45h184q41 0 41 -45v-1564q0 -45 -41 -45h-184q-45 0 -45 45z" />
<glyph unicode="}" horiz-adv-x="704" d="M57 -47q0 21 8.5 29t28.5 10l53 4q43 3 59.5 23.5t16.5 66.5v291q0 34 1.5 54.5t8.5 50.5t20.5 50t39.5 40t63 34v6q-41 13 -69.5 42t-41.5 65.5t-18.5 68t-5.5 62.5v268q0 47 -15 68t-56 24l-56 4q-20 0 -28.5 8.5t-8.5 30.5v133q0 38 33 41q81 11 168 11q122 0 187 -71 t65 -171v-317q0 -35 0.5 -51t5 -40t13.5 -36.5t26 -25t43 -19.5q31 -7 31 -35v-109q0 -28 -33 -39q-25 -7 -42 -19t-25.5 -24t-13 -35t-5 -39t-0.5 -51v-346q0 -46 -13 -86.5t-40 -75.5t-75.5 -55t-113.5 -20q-112 0 -178 10q-33 3 -33 39v131z" />
<glyph unicode="~" d="M133 551q52 120 132 173.5t169 53.5q73 0 215.5 -50t186.5 -50q34 0 59 18.5t53 59.5q12 17 22 19.5t34 -9.5l86 -51q21 -12 25 -20t-3 -27q-55 -123 -128.5 -171t-172.5 -48q-54 0 -195 53t-190 53q-35 0 -65 -18t-70 -66q-2 -2 -6 -7t-5.5 -6.5t-5 -4.5t-6 -3t-7 0.5 t-10.5 2.5t-13 6l-86 47q-34 17 -19 45z" />
<glyph unicode="&#xa1;" horiz-adv-x="600" d="M141 872q0 68 32 109t126 41q92 0 125 -41t33 -109q0 -73 -33.5 -111t-124.5 -38q-89 0 -123.5 39.5t-34.5 109.5zM154 -315l28 880q0 22 8 31.5t29 9.5h162q22 0 30.5 -9.5t10.5 -31.5l27 -880q0 -23 -9.5 -32t-31.5 -9h-218q-21 0 -29 9t-7 32z" />
<glyph unicode="&#xa2;" d="M199 510q0 74 7.5 135t30.5 127.5t61 114.5t103.5 85t153.5 50v246q0 47 41 47h129q39 0 39 -47v-242q140 -10 225 -47q52 -21 43 -76l-22 -125q-5 -29 -25.5 -35t-52.5 0q-154 15 -219 15q-104 0 -150.5 -58.5t-46.5 -183.5q0 -148 42 -205t149 -57t245 16q32 5 44 -2 t18 -35l20 -112q10 -34 0 -54t-53 -38q-89 -31 -217 -41v-242q0 -45 -39 -45h-129q-41 0 -41 45v246q-90 12 -156 47t-104 81.5t-60 114t-29 130.5t-7 145z" />
<glyph unicode="&#xa3;" d="M119 188q0 40 47 76q75 51 96 178q8 36 8 131h-100q-25 0 -35 8.5t-10 32.5v146q0 23 10 31t35 8h94q-2 43 -2 125q0 84 2 123q13 151 114.5 237t305.5 86q82 0 189 -13t188 -44q25 -9 31.5 -20t3.5 -33l-23 -146q-4 -28 -14.5 -35t-30.5 -4q-173 23 -268 23 q-171 0 -187 -142q-7 -91 -2 -157h285q25 0 34 -8t9 -31v-146q0 -24 -9 -32.5t-34 -8.5h-276q-5 -239 -60 -317q55 0 240 -1t280 -1q23 0 32 -8.5t9 -30.5v-176q0 -24 -8 -31.5t-33 -7.5h-876q-43 0 -43 39q-2 51 -2 149z" />
<glyph unicode="&#xa4;" horiz-adv-x="1101" d="M49 935.5q0 13.5 23 33.5l86 82q29 26 41 25.5t37 -25.5l94 -97q87 49 211 52q137 0 227 -56l113 113q17 16 28.5 20.5t19 0.5t21.5 -17l94 -94q20 -21 19.5 -32.5t-21.5 -33.5l-120 -119q49 -92 49 -196q0 -120 -56 -227l121 -119q16 -16 21.5 -25t2.5 -20.5t-18 -26.5 l-81 -84q-26 -26 -40.5 -26.5t-35.5 20.5l-125 123q-102 -52 -219 -49q-109 0 -193 41l-115 -109q-18 -17 -26.5 -22.5t-19.5 -3t-25 17.5l-92 94q-18 17 -17 30t25 36l104 102q-28 56 -42.5 122t-14.5 118q0 109 51 209l-104 106q-23 23 -23 36.5zM360 588q0 -96 48 -148.5 t137 -52.5q95 0 147.5 55.5t52.5 145.5q0 94 -52 147t-148 53q-89 0 -137 -53t-48 -147z" />
<glyph unicode="&#xa5;" horiz-adv-x="1226" d="M55 1327q0 31 33 31h234q34 0 48 -9t29 -40l213 -512h13q35 80 101 246.5t103 250.5q17 36 32 50t46 14h238q15 0 24 -9t9 -22q0 -9 -7 -20q0 -1 -311 -619h187q25 0 32.5 -7t7.5 -28v-90q0 -23 -7.5 -30t-32.5 -7h-875q-22 0 -31.5 8t-9.5 29v90q0 35 41 35h188 l-301 619q-4 8 -4 20zM131 326v88q0 20 9.5 28.5t31.5 8.5h875q25 0 32.5 -8t7.5 -29v-88q0 -23 -7.5 -31t-32.5 -8h-279v-242q0 -45 -41 -45h-233q-43 0 -43 45v242h-279q-22 0 -31.5 9t-9.5 30z" />
<glyph unicode="&#xa6;" horiz-adv-x="608" d="M168 -182v723q0 45 45 45h184q41 0 41 -45v-723q0 -45 -41 -45h-184q-45 0 -45 45zM168 743v635q0 47 45 47h184q41 0 41 -47v-635q0 -45 -41 -45h-184q-45 0 -45 45z" />
<glyph unicode="&#xa7;" horiz-adv-x="933" d="M72 500q0 152 123 284q-123 99 -123 256q0 87 35.5 154.5t95.5 107t131.5 60t150.5 20.5q99 0 191 -18t141 -47q24 -12 32 -27t1 -39l-35 -106q-4 -14 -10 -23t-11 -13.5t-14.5 -5t-15.5 0.5t-20.5 4t-22.5 4q-140 23 -205 23q-69 0 -116.5 -25t-47.5 -66q0 -22 13 -42 t38 -37t46 -28.5t52.5 -26t41.5 -19.5q14 -7 55 -26.5t58.5 -28.5t53 -29.5t52.5 -35.5t42 -40.5t36.5 -50t20.5 -57.5t9 -70q0 -157 -125 -285q123 -113 123 -256q0 -77 -27 -138t-70.5 -99.5t-101.5 -64t-115.5 -36t-117.5 -10.5q-94 0 -183.5 19t-137.5 47q-24 13 -32 27 t-1 38l35 107q4 14 10 23t11.5 13.5t15 4.5t15.5 -1t20 -4t22 -4q132 -22 211 -22t122.5 25.5t43.5 70.5q0 34 -42.5 70.5t-92 61t-113.5 53t-82 38.5q-85 48 -135.5 110.5t-50.5 158.5zM346 541q0 -32 30 -60.5t57 -42t89 -39.5q15 -7 23 -10q49 59 49 123q0 51 -78 96 q-25 14 -119 58q-51 -68 -51 -125z" />
<glyph unicode="&#xa8;" horiz-adv-x="1097" d="M213 1264q0 67 31.5 103t117.5 36q89 0 120.5 -34.5t31.5 -104.5q0 -68 -31.5 -107t-120.5 -39q-48 0 -79.5 11.5t-46 34t-19 45t-4.5 55.5zM641 1264q0 67 32.5 103t117.5 36q90 0 120.5 -34t30.5 -105q0 -69 -30.5 -107.5t-120.5 -38.5q-89 0 -119.5 39t-30.5 107z" />
<glyph unicode="&#xa9;" horiz-adv-x="1691" d="M119 688q0 196 97 361t264 260.5t364 95.5q152 0 287 -56.5t231.5 -152t152.5 -228.5t56 -280q0 -196 -97.5 -361t-264.5 -260.5t-365 -95.5q-197 0 -364 95.5t-264 260.5t-97 361zM291 688q0 -112 44 -214.5t118 -176.5t176.5 -118t214.5 -44q113 0 216 44t177 118 t118 176.5t44 214.5t-44 214t-118 176t-177 117.5t-216 43.5q-112 0 -214.5 -43.5t-176.5 -117t-118 -176t-44 -214.5zM496 674q0 416 352 416q139 0 225 -37q21 -9 30 -20t5 -32l-14 -71q-8 -29 -43 -23q-89 13 -187 13q-49 0 -82.5 -18.5t-51.5 -53.5t-25 -75.5t-7 -94.5 q0 -125 35 -184.5t131 -59.5q94 0 189 10q19 3 28 -1t15 -21l14 -64q10 -39 -31 -55q-88 -39 -231 -39q-352 0 -352 410z" />
<glyph unicode="&#xaa;" horiz-adv-x="806" d="M45 684q0 119 71.5 167t209.5 48h147v19q0 38 -28 54.5t-107 16.5q-62 0 -154 -10q-32 -4 -39 -4q-12 0 -17.5 5t-8.5 21l-15 70q-5 26 6 42.5t46 27.5q99 35 241 35q99 0 162.5 -17.5t95.5 -55t43 -82t11 -112.5v-200q0 -33 8 -43t35 -13q26 -3 32.5 -8.5t6.5 -26.5v-86 q0 -19 -12.5 -28.5t-39.5 -16.5q-39 -8 -92 -8q-121 0 -149 86h-4q-46 -44 -113 -67t-125 -23q-63 0 -106.5 16.5t-65 47.5t-30 65t-9.5 80zM289 692q0 -27 13 -36t46 -9q45 0 121 39v76h-107q-73 0 -73 -70z" />
<glyph unicode="&#xab;" horiz-adv-x="1136" d="M68 416.5q1 15.5 18 36.5l221 272q30 35 62 35h243q18 0 23.5 -10t-4.5 -19l-262 -321l249 -316q4 -5 5.5 -13.5t-2.5 -16t-15 -7.5h-241q-5 0 -10.5 1t-9 2.5t-8.5 5t-7.5 5t-7 6.5t-6 6t-6.5 7l-5 6l-219 277q-19 28 -18 43.5zM501 416.5q1 14.5 17 36.5l221 272 q30 35 62 35h243q18 0 23.5 -10t-4.5 -19l-262 -321l250 -316q4 -5 5.5 -13.5t-3 -16t-15.5 -7.5h-241q-5 0 -10.5 1t-9 2.5t-8.5 5t-7.5 5t-7 6.5t-6 6t-6.5 7l-5 6l-219 277q-18 29 -17 43.5z" />
<glyph unicode="&#xac;" d="M147 606v139q0 43 43 43h844q26 0 34.5 -9t8.5 -31v-498q0 -25 -10 -33t-33 -8h-178q-25 0 -35 8t-10 33v311h-621q-43 0 -43 45z" />
<glyph unicode="&#xad;" horiz-adv-x="841" d="M63 578v155q0 22 10 31.5t33 9.5h639q25 0 34 -9t9 -30v-157q0 -24 -9 -33.5t-34 -9.5h-639q-23 0 -33 10t-10 33z" />
<glyph unicode="&#xae;" horiz-adv-x="1099" d="M88 1032q0 194 137.5 329.5t333.5 135.5q198 0 333.5 -135t135.5 -330t-137 -330t-332 -135q-196 0 -333.5 135.5t-137.5 329.5zM203 1032q0 -146 104 -249t252 -103q146 0 249 103t103 249t-103 249t-249 103q-148 0 -252 -103t-104 -249zM371 799v477q0 22 22 22h191 q71 0 122.5 -40.5t51.5 -120.5q0 -104 -82 -142l92 -196q5 -9 1.5 -16t-13.5 -7h-101q-22 0 -34 21q-42 102 -76 172h-41v-170q0 -23 -19 -23h-94q-20 0 -20 23zM504 1079h59q58 0 58 56q0 51 -58 51h-59v-107z" />
<glyph unicode="&#xaf;" horiz-adv-x="1097" d="M209 1198v145q0 43 43 43h625q24 0 32.5 -9.5t8.5 -30.5v-148q0 -23 -8.5 -33t-32.5 -10h-625q-43 0 -43 43z" />
<glyph unicode="&#xb0;" horiz-adv-x="804" d="M74 1063q0 128 99.5 222.5t236.5 94.5q138 0 233.5 -94t95.5 -223q0 -132 -95.5 -225t-233.5 -93q-153 0 -244.5 91t-91.5 227zM272 1059q0 -54 38.5 -92.5t95.5 -38.5q54 0 92.5 38.5t38.5 92.5t-38.5 92.5t-92.5 38.5t-94 -38.5t-40 -92.5z" />
<glyph unicode="&#xb1;" d="M147 68v131q0 23 10 33t33 10h844q25 0 33 -9t8 -32v-133q0 -23 -8 -33t-33 -10h-844q-43 0 -43 43zM147 680v143q0 22 9.5 31.5t31.5 9.5h287v260q0 23 10 33t35 10h185q22 0 31 -9.5t9 -33.5v-260h289q25 0 34 -9t9 -32v-143q0 -24 -9 -33.5t-34 -9.5h-289v-285 q0 -24 -8.5 -32.5t-29.5 -8.5h-187q-25 0 -35 8.5t-10 32.5v285h-287q-22 0 -31.5 10t-9.5 33z" />
<glyph unicode="&#xb2;" horiz-adv-x="829" d="M49 705v102q0 38 29 67l334 302q63 60 63 114q0 35 -24 49.5t-80 14.5q-83 0 -230 -15q-35 -6 -49.5 -1.5t-19.5 36.5l-13 80q-2 16 -2 29.5t13.5 26.5t42.5 22q51 19 131.5 29t132.5 10q362 0 362 -266q0 -83 -33.5 -143.5t-107.5 -129.5q-120 -111 -170 -153h291 q19 0 27 -8t8 -27v-139q0 -33 -35 -33h-637q-19 0 -26 7.5t-7 25.5z" />
<glyph unicode="&#xb3;" horiz-adv-x="829" d="M47 741q-4 13 0 31l19 86q7 31 17.5 37.5t41.5 -0.5q111 -21 225 -21q80 0 118 21t38 92q0 39 -66 53l-170 31q-33 6 -45 20.5t-12 47.5v51q0 40 25 55l139 105v2h-275q-19 0 -26.5 7.5t-7.5 24.5v140q0 35 34 35h598q21 0 28 -9t7 -26v-99q0 -45 -35 -75 q-18 -15 -66 -53t-73 -60l57 -14q71 -19 109.5 -78t38.5 -152t-28 -159t-82.5 -103.5t-126.5 -54.5t-169 -17q-148 0 -243 35q-21 7 -30.5 11.5t-22.5 13.5t-17 22z" />
<glyph unicode="&#xb4;" horiz-adv-x="1097" d="M446 1210l191 353q21 38 57 18l156 -88q42 -22 10 -61l-242 -310q-21 -32 -51 -18l-106 57q-31 17 -15 49z" />
<glyph unicode="&#xb6;" horiz-adv-x="1155" d="M49 938q0 204 112.5 314t291.5 110h589q50 0 50 -47v-158q0 -25 -11.5 -37t-38.5 -12h-36v-1278q0 -28 -11.5 -38.5t-36.5 -10.5h-139q-25 0 -36 10.5t-11 38.5v1280h-178v-1280q0 -28 -11 -38.5t-36 -10.5h-137q-26 0 -39 10.5t-13 38.5v748q-96 5 -167.5 57.5 t-106.5 131.5t-35 171z" />
<glyph unicode="&#xb7;" horiz-adv-x="479" d="M76 551q0 71 36.5 112.5t127.5 41.5q94 0 128.5 -39t34.5 -115q0 -33 -6.5 -58t-22.5 -48.5t-50 -36.5t-84 -13q-52 0 -86.5 13t-50.5 37.5t-21.5 48.5t-5.5 57z" />
<glyph unicode="&#xb8;" horiz-adv-x="870" d="M260 -428l19 84q3 14 24 12q82 -12 131 -12q57 0 89 17t32 67q0 37 -26 46.5t-101 13.5q-14 1 -22 1q-47 3 -31 49l59 168q0 2 6 8.5t13 6.5h102q8 0 10.5 -7t-0.5 -10l-45 -114q65 -2 109.5 -16t66 -38.5t29.5 -50t8 -59.5q0 -97 -70.5 -156t-209.5 -59q-103 0 -174 24 q-24 8 -19 25z" />
<glyph unicode="&#xb9;" horiz-adv-x="796" d="M115 707v137q0 19 8.5 26t28.5 7h127v450h-123q-22 0 -29.5 7.5t-7.5 25.5v80q0 22 5.5 32.5t27.5 18.5l124 53q35 17 78 17h140q21 0 29.5 -8t8.5 -27v-649h140q18 0 26.5 -7t8.5 -26v-137q0 -19 -7.5 -27t-27.5 -8h-520q-21 0 -29 7t-8 28z" />
<glyph unicode="&#xba;" horiz-adv-x="776" d="M51 834q0 44 6 83t26.5 88t54.5 83.5t97.5 58.5t147.5 24q86 0 149.5 -20.5t99.5 -52t58 -78.5t28.5 -90t6.5 -96q0 -37 -2 -66.5t-10.5 -68t-22.5 -68t-39.5 -60t-61 -50t-88 -32t-118.5 -12.5q-89 0 -153 24t-97.5 58t-53 86.5t-24 93.5t-4.5 95zM295 823 q0 -80 18 -113.5t70 -33.5q57 0 77.5 34t20.5 113q0 80 -19.5 115t-76.5 35q-51 0 -70.5 -36.5t-19.5 -113.5z" />
<glyph unicode="&#xbb;" horiz-adv-x="1136" d="M72 749q5 11 24 11h238q31 0 63 -37l219 -272q18 -21 18 -37.5t-18 -40.5l-221 -277q-29 -39 -57 -39h-246q-14 0 -15.5 13.5t5.5 21.5l254 318l-260 319q-9 9 -4 20zM503 749q5 11 23 11h240q31 0 63 -37l220 -272q18 -22 18 -38t-18 -40l-222 -277q-29 -39 -57 -39 h-246q-14 0 -16.5 13.5t4.5 21.5l254 318l-258 319q-10 9 -5 20z" />
<glyph unicode="&#xbc;" horiz-adv-x="1945" d="M131 522v137q0 19 8.5 26t28.5 7h127v451h-123q-22 0 -29.5 7.5t-7.5 25.5v79q0 23 5.5 33.5t27.5 18.5l125 53q33 16 78 16h139q22 0 30.5 -8t8.5 -27v-649h139q18 0 26.5 -7t8.5 -26v-137q0 -19 -7.5 -27t-27.5 -8h-520q-21 0 -29 7t-8 28zM567 -16l566 1423 q7 15 13 21t19 6h181q11 0 15.5 -9t0.5 -22l-563 -1426q-9 -24 -31 -24h-180q-14 0 -19.5 9t-1.5 22zM1018 223v109q0 32 20 55q21 26 178.5 224t192.5 239q18 24 31 30.5t39 6.5h184q35 0 35 -33v-463h82q19 0 25.5 -7t6.5 -26v-135q0 -35 -32 -35h-82v-153q0 -20 -7 -27.5 t-28 -7.5h-182q-20 0 -27.5 6.5t-7.5 28.5v153h-393q-18 0 -26.5 7.5t-8.5 27.5zM1270 387h180v215h-4z" />
<glyph unicode="&#xbd;" horiz-adv-x="1945" d="M113 522v137q0 19 8.5 26t28.5 7h126v451h-122q-22 0 -29.5 7.5t-7.5 25.5v79q0 23 5.5 33.5t27.5 18.5l124 53q33 16 78 16h140q21 0 29.5 -8t8.5 -27v-649h140q18 0 26.5 -7t8.5 -26v-137q0 -19 -7.5 -27t-27.5 -8h-520q-21 0 -29 7t-8 28zM528 -16l566 1423 q7 15 13 21t19 6h181q11 0 15.5 -9t0.5 -22l-563 -1426q-9 -24 -31 -24h-180q-14 0 -19.5 9t-1.5 22zM1128 33v102q0 39 29 68l334 301q63 60 63 114q0 35 -24 49.5t-80 14.5q-91 0 -229 -14q-35 -7 -50 -2.5t-20 36.5l-12 80q-2 16 -2.5 29.5t13 26.5t42.5 22 q51 19 131.5 29t132.5 10q363 0 363 -266q0 -83 -33.5 -143t-108.5 -130q-120 -111 -170 -153h291q19 0 27 -8t8 -27v-139q0 -33 -35 -33h-637q-19 0 -26 7.5t-7 25.5z" />
<glyph unicode="&#xbe;" horiz-adv-x="1945" d="M80 557q-4 13 0 31l18 86q7 31 18 37.5t42 -0.5q111 -21 225 -21q80 0 118 21t38 92q0 39 -66 53l-170 31q-33 6 -45 20t-12 47v52q0 21 4 33t20 22l140 104v2h-275q-35 0 -35 33v139q0 35 35 35h598q21 0 28 -9t7 -26v-98q0 -46 -35 -76q-19 -16 -66.5 -53t-72.5 -59 l57 -15q71 -19 109.5 -77.5t38.5 -151.5t-28 -159t-82.5 -103.5t-126.5 -54.5t-169 -17q-148 0 -243 35q-21 7 -30.5 11.5t-22.5 13.5t-17 22zM594 -16l565 1423q12 27 33 27h180q11 0 16 -9t1 -22l-564 -1426q-9 -24 -30 -24h-181q-13 0 -19 8.5t-1 22.5zM1073 223v109 q0 31 21 55q22 27 179 224.5t191 238.5q18 24 31 30.5t39 6.5h184q35 0 35 -33v-463h82q19 0 26 -7t7 -26v-135q0 -35 -33 -35h-82v-153q0 -20 -7 -27.5t-28 -7.5h-182q-20 0 -27.5 6.5t-7.5 28.5v153h-393q-18 0 -26.5 7.5t-8.5 27.5zM1325 387h180v215h-4z" />
<glyph unicode="&#xbf;" horiz-adv-x="892" d="M59 -43q0 53 15.5 98t46 80.5t54.5 56.5t61 48q58 43 89.5 76t50.5 79t19 107v78q0 45 35 45h203q22 0 31.5 -8.5t13.5 -32.5q6 -41 6 -105q0 -60 -10.5 -109t-27 -85t-48 -74t-60 -64.5t-77.5 -66.5q-68 -52 -68 -103q0 -53 37 -74.5t125 -21.5q100 0 199 13q36 4 47 -2 t14 -33l10 -119q3 -19 1.5 -31t-10 -20t-28.5 -17q-117 -47 -282 -47q-216 0 -331.5 85.5t-115.5 246.5zM377 870q0 68 34 110t126 42q50 0 83 -12.5t48 -36.5t20.5 -47.5t5.5 -55.5q0 -69 -35 -109t-122 -40q-91 0 -125.5 38.5t-34.5 110.5z" />
<glyph unicode="&#xc0;" horiz-adv-x="1265" d="M17.5 9.5q-6.5 9.5 2.5 43.5l396 1250q10 31 26 45t54 14h258q39 0 53.5 -13.5t26.5 -48.5l411 -1251q7 -25 2 -37t-26 -12h-254q-32 0 -46 14t-24 49l-68 244h-407l-74 -250q-16 -57 -72 -57h-227q-25 0 -31.5 9.5zM234 1641q-4 17 10 32l112 142q27 32 60 4l309 -252 q29 -21 6 -47l-76 -97q-21 -23 -55 -4l-342 195q-20 10 -24 27zM492 557h266l-62 225l-65 250h-10l-68 -248z" />
<glyph unicode="&#xc1;" horiz-adv-x="1265" d="M17.5 9.5q-6.5 9.5 2.5 43.5l396 1250q10 31 26 45t54 14h258q39 0 53.5 -13.5t26.5 -48.5l411 -1251q7 -25 2 -37t-26 -12h-254q-32 0 -46 14t-24 49l-68 244h-407l-74 -250q-16 -57 -72 -57h-227q-25 0 -31.5 9.5zM492 557h266l-62 225l-65 250h-10l-68 -248zM494 1544 q-19 31 12 49l334 219q39 24 59 -12l94 -151q26 -40 -18 -60l-361 -157q-14 -8 -28 -7t-25 17z" />
<glyph unicode="&#xc2;" horiz-adv-x="1265" d="M17.5 9.5q-6.5 9.5 2.5 43.5l396 1250q10 31 26 45t54 14h258q39 0 53.5 -13.5t26.5 -48.5l411 -1251q7 -25 2 -37t-26 -12h-254q-32 0 -46 14t-24 49l-68 244h-407l-74 -250q-16 -57 -72 -57h-227q-25 0 -31.5 9.5zM200 1512q-1 9 15 30l252 230q1 1 7.5 7t7.5 7 t6.5 5.5t7.5 5t7 3.5t9 3.5t9.5 2t12 2t13.5 0.5h131h14.5t13 -1.5t10 -2t9 -3t7 -3t7 -4t6.5 -4.5t7.5 -6t7.5 -6l252 -234q17 -19 16 -28.5t-18 -26.5l-68 -72q-17 -14 -26 -12.5t-31 16.5l-277 178l-266 -180q-22 -16 -31 -17t-28 15l-66 70q-16 16 -17 25zM492 557h266 l-62 225l-65 250h-10l-68 -248z" />
<glyph unicode="&#xc3;" horiz-adv-x="1265" d="M17.5 9.5q-6.5 9.5 2.5 43.5l396 1250q10 31 26 45t54 14h258q39 0 53.5 -13.5t26.5 -48.5l411 -1251q7 -25 2 -37t-26 -12h-254q-32 0 -46 14t-24 49l-68 244h-407l-74 -250q-16 -57 -72 -57h-227q-25 0 -31.5 9.5zM193 1494q-7 12 0 30q46 120 116.5 175.5t147.5 55.5 q50 0 114.5 -25t122.5 -50t92 -25q68 0 115 78q8 16 21 17t34 -9l76 -41q17 -7 21 -17.5t-2 -29.5q-51 -122 -116 -172.5t-147 -50.5q-47 0 -167 49t-162 49q-69 0 -121 -76q-12 -17 -18.5 -18.5t-32.5 8.5l-78 35q-9 5 -16 17zM492 557h266l-62 225l-65 250h-10l-68 -248z " />
<glyph unicode="&#xc4;" horiz-adv-x="1265" d="M17.5 9.5q-6.5 9.5 2.5 43.5l396 1250q10 31 26 45t54 14h258q39 0 53.5 -13.5t26.5 -48.5l411 -1251q7 -25 2 -37t-26 -12h-254q-32 0 -46 14t-24 49l-68 244h-407l-74 -250q-16 -57 -72 -57h-227q-25 0 -31.5 9.5zM262 1567q0 67 32 103t118 36q89 0 120 -34.5 t31 -104.5q0 -33 -6 -56.5t-21 -45t-46 -33t-78 -11.5q-48 0 -80 11.5t-46 34t-19 45t-5 55.5zM492 557h266l-62 225l-65 250h-10l-68 -248zM682 1567q0 67 33 103t119 36q89 0 119 -34t30 -105q0 -69 -30.5 -107.5t-118.5 -38.5q-49 0 -80.5 11.5t-46.5 34t-20 45t-5 55.5z " />
<glyph unicode="&#xc5;" horiz-adv-x="1265" d="M17.5 9.5q-6.5 9.5 2.5 43.5l396 1250q10 31 26 45t54 14h258q39 0 53.5 -13.5t26.5 -48.5l411 -1251q7 -25 2 -37t-26 -12h-254q-32 0 -46 14t-24 49l-68 244h-407l-74 -250q-16 -57 -72 -57h-227q-25 0 -31.5 9.5zM365 1628q0 106 79 177t183 71q103 0 178.5 -74.5 t75.5 -173.5q0 -103 -75 -176.5t-179 -73.5q-105 0 -183.5 71.5t-78.5 178.5zM492 557h266l-62 225l-65 250h-10l-68 -248zM532 1628q0 -44 26.5 -71t68.5 -27q37 0 63.5 28.5t26.5 69.5q0 38 -26.5 67t-63.5 29q-38 0 -66.5 -29t-28.5 -67z" />
<glyph unicode="&#xc6;" horiz-adv-x="1904" d="M20 51l674 1260q18 31 35.5 41t58.5 10h969q22 0 34.5 -12.5t12.5 -32.5v-187q0 -43 -47 -43h-528v-247h463q20 0 32.5 -11.5t12.5 -31.5v-187q0 -43 -45 -43h-463v-295h540q20 0 31.5 -12.5t11.5 -32.5v-186q0 -41 -45 -41h-821q-45 0 -45 41v266h-407l-140 -260 q-27 -47 -82 -47h-231q-47 0 -21 51zM625 557h276v526h-4z" />
<glyph unicode="&#xc7;" horiz-adv-x="1214" d="M119 674q0 702 594 702q234 0 385 -65q34 -15 48 -33.5t7 -54.5l-27 -119q-6 -29 -19 -36.5t-50 -4.5q-211 22 -314 22q-67 0 -117 -21t-80.5 -56t-49 -88.5t-25 -110t-6.5 -129.5q0 -82 7 -142.5t25.5 -113.5t49 -86t79.5 -51.5t115 -18.5q106 0 318 23q39 3 51.5 -4 t19.5 -37l27 -109q10 -36 -3.5 -56.5t-47.5 -35.5q-75 -33 -183 -51t-208 -18h-17l-30 -78q65 -2 109.5 -16t66 -38.5t29.5 -50t8 -59.5q0 -97 -71 -156t-210 -59q-104 0 -174 24q-23 8 -18 25l18 84q3 14 25 12q82 -12 131 -12q57 0 88.5 17t31.5 67q0 37 -26 46.5 t-101 13.5h-7.5t-6.5 0.5t-8 0.5q-47 3 -31 49l49 142q-452 74 -452 682z" />
<glyph unicode="&#xc8;" horiz-adv-x="1142" d="M139 43v1272q0 47 45 47h813q20 0 31.5 -12.5t11.5 -32.5v-187q0 -43 -45 -43h-530v-247h463q22 0 34.5 -11.5t12.5 -31.5v-187q0 -43 -47 -43h-463v-295h541q21 0 33 -12t12 -33v-186q0 -41 -45 -41h-822q-45 0 -45 43zM232 1641q-4 17 10 32l112 142q27 32 60 4 l309 -252q29 -21 6 -47l-76 -97q-21 -23 -55 -4l-342 195q-20 10 -24 27z" />
<glyph unicode="&#xc9;" horiz-adv-x="1142" d="M139 43v1272q0 47 45 47h813q20 0 31.5 -12.5t11.5 -32.5v-187q0 -43 -45 -43h-530v-247h463q22 0 34.5 -11.5t12.5 -31.5v-187q0 -43 -47 -43h-463v-295h541q21 0 33 -12t12 -33v-186q0 -41 -45 -41h-822q-45 0 -45 43zM399 1544q-19 30 13 49l333 219q23 12 37.5 7.5 t22.5 -19.5l94 -151q26 -40 -18 -60l-361 -157q-14 -8 -28 -7t-25 17z" />
<glyph unicode="&#xca;" horiz-adv-x="1142" d="M139 43v1272q0 47 45 47h813q20 0 31.5 -12.5t11.5 -32.5v-187q0 -43 -45 -43h-530v-247h463q22 0 34.5 -11.5t12.5 -31.5v-187q0 -43 -47 -43h-463v-295h541q21 0 33 -12t12 -33v-186q0 -41 -45 -41h-822q-45 0 -45 43zM175.5 1511.5q-1.5 8.5 14.5 30.5l252 230 q1 1 7.5 7t7.5 7t6.5 5.5t7.5 5t7 3.5t9 3.5t9.5 2t12 2t13.5 0.5h131h14.5t13 -1.5t10 -2t9 -3t7 -3t7 -4t6.5 -4.5t7.5 -6t7.5 -6l252 -234q17 -19 16 -28.5t-18 -26.5l-67 -72q-17 -14 -26.5 -12.5t-31.5 16.5l-276 178l-267 -180q-22 -16 -31 -17t-28 15l-65 70 q-16 16 -17.5 24.5z" />
<glyph unicode="&#xcb;" horiz-adv-x="1142" d="M139 43v1272q0 47 45 47h813q20 0 31.5 -12.5t11.5 -32.5v-187q0 -43 -45 -43h-530v-247h463q22 0 34.5 -11.5t12.5 -31.5v-187q0 -43 -47 -43h-463v-295h541q21 0 33 -12t12 -33v-186q0 -41 -45 -41h-822q-45 0 -45 43zM231 1567q0 67 32 103t118 36q89 0 120 -34.5 t31 -104.5q0 -33 -6 -56.5t-21 -45t-46 -33t-78 -11.5q-48 0 -80 11.5t-46 34t-19 45t-5 55.5zM651 1567q0 67 33 103t119 36q89 0 119 -34t30 -105q0 -69 -30.5 -107.5t-118.5 -38.5q-49 0 -80.5 11.5t-46.5 34t-20 45t-5 55.5z" />
<glyph unicode="&#xcc;" horiz-adv-x="622" d="M-83.5 1641q-4.5 17 9.5 32l113 142q27 31 59 4l310 -252q29 -21 6 -47l-76 -97q-21 -23 -55 -4l-342 195q-20 10 -24.5 27zM147 45v1270q0 47 43 47h240q43 0 43 -47v-1270q0 -45 -43 -45h-240q-43 0 -43 45z" />
<glyph unicode="&#xcd;" horiz-adv-x="622" d="M147 45v1270q0 47 43 47h240q43 0 43 -47v-1270q0 -45 -43 -45h-240q-43 0 -43 45zM186 1544q-19 30 13 49l333 219q23 12 37.5 7.5t22.5 -19.5l94 -151q26 -40 -18 -60l-361 -157q-14 -8 -28 -7t-25 17z" />
<glyph unicode="&#xce;" horiz-adv-x="622" d="M-91 1512q-1 9 15 30l252 230q1 1 7.5 7t7.5 7t6.5 5.5t7.5 5t7 3.5t9 3.5t9.5 2t12 2t13.5 0.5h131h14.5t13 -1.5t10 -2t9 -3t7 -3t7 -4t6.5 -4.5t7.5 -6t7.5 -6l252 -234q17 -19 16 -28.5t-18 -26.5l-68 -72q-17 -14 -26 -12.5t-31 16.5l-277 178l-266 -180 q-22 -16 -31 -17t-28 15l-66 70q-16 16 -17 25zM147 45v1270q0 47 43 47h240q43 0 43 -47v-1270q0 -45 -43 -45h-240q-43 0 -43 45z" />
<glyph unicode="&#xcf;" horiz-adv-x="622" d="M-45 1567q0 67 31.5 103t117.5 36q89 0 120.5 -34.5t31.5 -104.5q0 -68 -31.5 -107t-120.5 -39q-48 0 -79.5 11.5t-46 34t-19 45t-4.5 55.5zM147 45v1270q0 47 43 47h240q43 0 43 -47v-1270q0 -45 -43 -45h-240q-43 0 -43 45zM375 1567q0 67 32.5 103t118.5 36 q89 0 119.5 -34.5t30.5 -104.5q0 -69 -31 -107.5t-119 -38.5q-48 0 -80 11.5t-46.5 34t-19.5 45t-5 55.5z" />
<glyph unicode="&#xd0;" horiz-adv-x="1347" d="M-20 629v127q0 39 43 39h114v520q0 45 45 45h447q602 0 602 -676q0 -116 -16 -212t-58 -186t-108 -151t-173 -98t-247 -37h-445q-47 0 -47 45v545h-114q-43 0 -43 39zM461 272h131q145 0 223 94t78 304q0 216 -69.5 316.5t-217.5 100.5h-145v-292h176q24 0 32.5 -8.5 t8.5 -28.5v-129q0 -21 -8.5 -30t-32.5 -9h-176v-318z" />
<glyph unicode="&#xd1;" horiz-adv-x="1372" d="M135 43v1272q0 45 45 45h168q29 0 48.5 -9t27 -18.5t22.5 -32.5q126 -188 463 -708q1 0 3 1t3 1v719q0 47 46 47h227q43 0 43 -47v-1270q0 -43 -43 -43h-168q-34 0 -53 11t-35 36q-233 349 -311 465l-162 250h-6v-719q0 -43 -43 -43h-228q-47 0 -47 43zM252 1475 q-7 12 0 30q47 120 117 176t147 56q50 0 114.5 -25.5t123 -50.5t92.5 -25q68 0 115 78q8 16 21 17t34 -9l76 -41q17 -7 20.5 -17.5t-2.5 -29.5q-51 -122 -115.5 -172.5t-146.5 -50.5q-47 0 -167.5 49t-162.5 49q-70 0 -121 -75q-12 -17 -18.5 -19t-32.5 8l-78 35 q-9 5 -16 17z" />
<glyph unicode="&#xd2;" horiz-adv-x="1411" d="M117 698q0 59 4.5 114.5t20 126t40.5 129.5t70 118t104 100t147.5 66.5t196.5 25.5q107 0 194 -21t147.5 -56.5t106 -88.5t72.5 -110t44 -128t22.5 -135.5t5.5 -140.5q0 -75 -4.5 -137.5t-20 -138.5t-41 -136t-70.5 -119t-106 -98t-151 -63t-201 -24t-199.5 24t-148.5 63 t-104 98.5t-68 118.5t-38.5 136t-18.5 138.5t-4 137.5zM416 1641q-4 17 10 32l113 142q27 31 59 4l309 -252q29 -21 6 -47l-75 -97q-21 -23 -56 -4l-342 195q-20 10 -24 27zM461 676q0 -216 52.5 -315t188.5 -99q141 0 198.5 99t57.5 315q0 226 -56 324t-200 98 q-133 0 -187 -100.5t-54 -321.5z" />
<glyph unicode="&#xd3;" horiz-adv-x="1411" d="M117 698q0 59 4.5 114.5t20 126t40.5 129.5t70 118t104 100t147.5 66.5t196.5 25.5q107 0 194 -21t147.5 -56.5t106 -88.5t72.5 -110t44 -128t22.5 -135.5t5.5 -140.5q0 -75 -4.5 -137.5t-20 -138.5t-41 -136t-70.5 -119t-106 -98t-151 -63t-201 -24t-199.5 24t-148.5 63 t-104 98.5t-68 118.5t-38.5 136t-18.5 138.5t-4 137.5zM461 676q0 -216 52.5 -315t188.5 -99q141 0 198.5 99t57.5 315q0 226 -56 324t-200 98q-133 0 -187 -100.5t-54 -321.5zM569 1544q-19 30 13 49l333 219q23 12 37.5 7.5t22.5 -19.5l94 -151q26 -40 -18 -60l-361 -157 q-14 -8 -28 -7t-25 17z" />
<glyph unicode="&#xd4;" horiz-adv-x="1411" d="M117 698q0 59 4.5 114.5t20 126t40.5 129.5t70 118t104 100t147.5 66.5t196.5 25.5q107 0 194 -21t147.5 -56.5t106 -88.5t72.5 -110t44 -128t22.5 -135.5t5.5 -140.5q0 -75 -4.5 -137.5t-20 -138.5t-41 -136t-70.5 -119t-106 -98t-151 -63t-201 -24t-199.5 24t-148.5 63 t-104 98.5t-68 118.5t-38.5 136t-18.5 138.5t-4 137.5zM302 1512q-1 9 15 30l252 230q1 1 7.5 7t7.5 7t6.5 5.5t7.5 5t7 3.5t9 3.5t9.5 2t12 2t13.5 0.5h131h14.5t13 -1.5t10 -2t9 -3t7 -3t7 -4t6.5 -4.5t7.5 -6t7.5 -6l252 -234q17 -19 16 -28.5t-18 -26.5l-68 -72 q-17 -14 -26 -12.5t-31 16.5l-276 178l-267 -180q-22 -16 -31 -17t-28 15l-66 70q-16 16 -17 25zM461 676q0 -216 52.5 -315t188.5 -99q141 0 198.5 99t57.5 315q0 226 -56 324t-200 98q-133 0 -187 -100.5t-54 -321.5z" />
<glyph unicode="&#xd5;" horiz-adv-x="1411" d="M117 698q0 59 4.5 114.5t20 126t40.5 129.5t70 118t104 100t147.5 66.5t196.5 25.5q107 0 194 -21t147.5 -56.5t106 -88.5t72.5 -110t44 -128t22.5 -135.5t5.5 -140.5q0 -75 -4.5 -137.5t-20 -138.5t-41 -136t-70.5 -119t-106 -98t-151 -63t-201 -24t-199.5 24t-148.5 63 t-104 98.5t-68 118.5t-38.5 136t-18.5 138.5t-4 137.5zM285 1485.5q-7 12.5 0 30.5q46 120 116.5 175.5t147.5 55.5q50 0 114.5 -25t123 -50t92.5 -25q68 0 114 77q9 16 22 17.5t34 -8.5l75 -41q17 -7 21 -17.5t-2 -29.5q-51 -123 -115.5 -173.5t-146.5 -50.5 q-47 0 -167.5 49.5t-162.5 49.5q-69 0 -121 -76q-12 -17 -18.5 -18.5t-32.5 8.5l-78 34q-9 5 -16 17.5zM461 676q0 -216 52.5 -315t188.5 -99q141 0 198.5 99t57.5 315q0 226 -56 324t-200 98q-133 0 -187 -100.5t-54 -321.5z" />
<glyph unicode="&#xd6;" horiz-adv-x="1411" d="M117 698q0 59 4.5 114.5t20 126t40.5 129.5t70 118t104 100t147.5 66.5t196.5 25.5q107 0 194 -21t147.5 -56.5t106 -88.5t72.5 -110t44 -128t22.5 -135.5t5.5 -140.5q0 -75 -4.5 -137.5t-20 -138.5t-41 -136t-70.5 -119t-106 -98t-151 -63t-201 -24t-199.5 24t-148.5 63 t-104 98.5t-68 118.5t-38.5 136t-18.5 138.5t-4 137.5zM346 1567q0 67 32 103t118 36q89 0 120 -34.5t31 -104.5q0 -33 -6 -56.5t-21 -45t-46 -33t-78 -11.5q-48 0 -80 11.5t-46 34t-19 45t-5 55.5zM461 676q0 -216 52.5 -315t188.5 -99q141 0 198.5 99t57.5 315 q0 226 -56 324t-200 98q-133 0 -187 -100.5t-54 -321.5zM766 1567q0 67 33 103t119 36q89 0 119 -34t30 -105q0 -69 -30.5 -107.5t-118.5 -38.5q-49 0 -80.5 11.5t-46.5 34t-20 45t-5 55.5z" />
<glyph unicode="&#xd7;" d="M192 400.5q-1 11.5 17 31.5l229 230l-227 229q-18 20 -17.5 31t15.5 24l119 121q18 18 29.5 19t29.5 -17l229 -229l226 225q26 30 61 0l121 -121q28 -31 0 -59l-227 -226l227 -225q28 -28 0 -61l-121 -119q-29 -28 -59 2l-223 227l-232 -233q-30 -30 -57 0l-123 123 q-16 16 -17 27.5z" />
<glyph unicode="&#xd8;" horiz-adv-x="1411" d="M117 698q0 59 4.5 114.5t20 126t40.5 129.5t70 118t104 100t147.5 66.5t196.5 25.5q236 0 381 -104l47 61q14 17 19 22t13 4t22 -11l53 -41q13 -10 16.5 -17.5t0.5 -14t-15 -22.5l-59 -79q114 -162 114 -478q0 -75 -4.5 -137.5t-20 -138.5t-41 -136t-70.5 -119t-106 -98 t-151 -63t-201 -24q-218 0 -354 92l-53 -70q-18 -23 -25 -25.5t-28 11.5l-54 41q-14 10 -17 17.5t0 13.5t15 22l64 82q-76 99 -102.5 233.5t-26.5 298.5zM461 676q0 -125 14 -205l414 547q-59 80 -187 80q-133 0 -187 -100.5t-54 -321.5zM537 328q54 -66 165 -66 q141 0 198.5 99t57.5 315q0 118 -14 192z" />
<glyph unicode="&#xd9;" horiz-adv-x="1343" d="M137 506v809q0 47 45 47h236q43 0 43 -47v-801q0 -252 209 -252q215 0 215 252l-2 801q0 47 47 47h235q43 0 43 -47l-2 -809q0 -145 -39 -244q-40 -97 -120 -161.5t-174 -91.5t-203 -27q-254 -3 -393.5 140t-139.5 384zM332 1641q-4 17 10 32l113 142q27 31 59 4 l309 -252q29 -21 6 -47l-75 -97q-21 -23 -56 -4l-342 195q-20 10 -24 27z" />
<glyph unicode="&#xda;" horiz-adv-x="1343" d="M137 506v809q0 47 45 47h236q43 0 43 -47v-801q0 -252 209 -252q215 0 215 252l-2 801q0 47 47 47h235q43 0 43 -47l-2 -809q0 -145 -39 -244q-40 -97 -120 -161.5t-174 -91.5t-203 -27q-254 -3 -393.5 140t-139.5 384zM545 1544q-19 31 12 49l334 219q39 24 59 -12 l94 -151q26 -40 -18 -60l-360 -157q-37 -15 -54 10z" />
<glyph unicode="&#xdb;" horiz-adv-x="1343" d="M137 506v809q0 47 45 47h236q43 0 43 -47v-801q0 -252 209 -252q215 0 215 252l-2 801q0 47 47 47h235q43 0 43 -47l-2 -809q0 -145 -39 -244q-40 -97 -120 -161.5t-174 -91.5t-203 -27q-254 -3 -393.5 140t-139.5 384zM264 1512q-1 9 15 30l251 230q1 1 7.5 7t7.5 7 t6.5 5.5t7.5 5t7 3.5t9 3.5t9.5 2t12 2t13.5 0.5h131h14.5t13 -1.5t10 -2t9 -3t7 -3t7 -4t6.5 -4.5t7.5 -6t7.5 -6l252 -234q17 -19 16 -28.5t-18 -26.5l-67 -72q-17 -14 -26.5 -12.5t-31.5 16.5l-276 178l-266 -180q-22 -16 -31.5 -17t-28.5 15l-65 70q-16 16 -17 25z" />
<glyph unicode="&#xdc;" horiz-adv-x="1343" d="M137 506v809q0 47 45 47h236q43 0 43 -47v-801q0 -252 209 -252q215 0 215 252l-2 801q0 47 47 47h235q43 0 43 -47l-2 -809q0 -145 -39 -244q-40 -97 -120 -161.5t-174 -91.5t-203 -27q-254 -3 -393.5 140t-139.5 384zM305 1567q0 67 32 103t118 36q89 0 120 -34.5 t31 -104.5q0 -33 -6 -56.5t-21 -45t-46 -33t-78 -11.5q-48 0 -80 11.5t-46 34t-19 45t-5 55.5zM725 1567q0 67 33 103t119 36q89 0 119 -34t30 -105q0 -69 -30.5 -107.5t-118.5 -38.5q-49 0 -80.5 11.5t-46.5 34t-20 45t-5 55.5z" />
<glyph unicode="&#xdd;" horiz-adv-x="1288" d="M23 1346.5q6 15.5 28 15.5h244q35 0 50 -9.5t30 -39.5l135 -269l121 -245h12l127 248l131 251q17 36 32.5 50t47.5 14h246q23 0 29.5 -14t-3.5 -31l-462 -817v-455q0 -45 -41 -45h-238q-45 0 -45 45v455l-440 811q-10 20 -4 35.5zM504 1544q-19 31 12 49l334 219 q39 24 59 -12l95 -151q12 -19 6.5 -35t-25.5 -25l-360 -157q-37 -15 -54 10z" />
<glyph unicode="&#xde;" horiz-adv-x="1169" d="M133 45v1270q0 47 45 47h236q45 0 45 -47v-187h192q97 0 180 -26.5t147.5 -77.5t101 -133t36.5 -186q0 -61 -12 -118t-44 -116.5t-82.5 -103t-134 -71.5t-190.5 -28h-194v-223q0 -45 -43 -45h-238q-45 0 -45 45zM459 530h153q81 0 125.5 43t44.5 125q0 79 -47 118.5 t-129 39.5h-147v-326z" />
<glyph unicode="&#xdf;" horiz-adv-x="1130" d="M96 10v1024q0 90 27 164t71 122t100.5 81t113.5 47t114 14q200 0 315 -95t115 -277q0 -59 -26.5 -133t-83.5 -119q61 -24 102.5 -64.5t61.5 -95.5t28 -109t8 -123q0 -238 -100.5 -355t-302.5 -116q-37 0 -84 7q-53 11 -51 59l10 147q1 21 8 26t35 11q94 12 131.5 64.5 t34.5 173.5q0 111 -39 163t-139 58q-37 3 -37 35v110q0 37 37 48q117 45 117 184q0 62 -32 101.5t-95 39.5q-57 0 -91 -41t-34 -121v-1030q0 -45 -45 -45h-226q-43 0 -43 45z" />
<glyph unicode="&#xe0;" horiz-adv-x="1173" d="M80 285q-3 181 99 260.5t294 79.5h236v32q0 68 -36 94.5t-145 26.5q-88 0 -268 -18q-42 -6 -56.5 -0.5t-21.5 35.5l-22 106q-5 28 7.5 45t57.5 35q63 24 166.5 36.5t186.5 12.5q95 0 166 -11t119 -35.5t78.5 -55t46.5 -77.5t22 -94.5t6 -113.5v-324q0 -62 13 -77t63 -21 q26 -1 34.5 -8.5t8.5 -26.5v-131q0 -41 -60 -53q-57 -14 -127 -14q-85 0 -138.5 28.5t-72.5 104.5l-4 2q-73 -69 -176 -104t-190 -35q-70 0 -122 17t-83 44t-50 67.5t-25.5 81t-6.5 91.5zM324 1405q-33 38 4 61l141 109q37 20 59 -12l228 -326q21 -30 -6 -49l-97 -76 q-23 -20 -51 8zM395 301q0 -47 20 -65.5t72 -18.5q45 0 107 22t108 50v137h-184q-61 0 -92 -28t-31 -97z" />
<glyph unicode="&#xe1;" horiz-adv-x="1173" d="M80 285q-3 181 99 260.5t294 79.5h236v32q0 68 -36 94.5t-145 26.5q-88 0 -268 -18q-42 -6 -56.5 -0.5t-21.5 35.5l-22 106q-5 28 7.5 45t57.5 35q63 24 166.5 36.5t186.5 12.5q95 0 166 -11t119 -35.5t78.5 -55t46.5 -77.5t22 -94.5t6 -113.5v-324q0 -62 13 -77t63 -21 q26 -1 34.5 -8.5t8.5 -26.5v-131q0 -41 -60 -53q-57 -14 -127 -14q-85 0 -138.5 28.5t-72.5 104.5l-4 2q-73 -69 -176 -104t-190 -35q-70 0 -122 17t-83 44t-50 67.5t-25.5 81t-6.5 91.5zM395 301q0 -47 20 -65.5t72 -18.5q45 0 107 22t108 50v137h-184q-61 0 -92 -28 t-31 -97zM473 1210l191 353q21 38 57 18l156 -88q42 -22 10 -61l-242 -310q-21 -32 -51 -18l-107 57q-31 17 -14 49z" />
<glyph unicode="&#xe2;" horiz-adv-x="1173" d="M80 285q-3 181 99 260.5t294 79.5h236v32q0 68 -36 94.5t-145 26.5q-88 0 -268 -18q-42 -6 -56.5 -0.5t-21.5 35.5l-22 106q-5 28 7.5 45t57.5 35q63 24 166.5 36.5t186.5 12.5q95 0 166 -11t119 -35.5t78.5 -55t46.5 -77.5t22 -94.5t6 -113.5v-324q0 -62 13 -77t63 -21 q26 -1 34.5 -8.5t8.5 -26.5v-131q0 -41 -60 -53q-57 -14 -127 -14q-85 0 -138.5 28.5t-72.5 104.5l-4 2q-73 -69 -176 -104t-190 -35q-70 0 -122 17t-83 44t-50 67.5t-25.5 81t-6.5 91.5zM155.5 1177q-0.5 10 16.5 29l248 273q14 16 21 21.5t22 10.5t39 5h131q36 0 50 -6 t30 -25l250 -281q17 -19 16.5 -29t-16.5 -24l-72 -68q-20 -14 -30 -13t-30 15l-270 209l-258 -207q-16 -12 -23 -15.5t-16 -1.5t-20 13l-72 70q-16 14 -16.5 24zM395 301q0 -47 20 -65.5t72 -18.5q45 0 107 22t108 50v137h-184q-61 0 -92 -28t-31 -97z" />
<glyph unicode="&#xe3;" horiz-adv-x="1173" d="M80 285q-3 181 99 260.5t294 79.5h236v32q0 68 -36 94.5t-145 26.5q-88 0 -268 -18q-42 -6 -56.5 -0.5t-21.5 35.5l-22 106q-5 28 7.5 45t57.5 35q63 24 166.5 36.5t186.5 12.5q95 0 166 -11t119 -35.5t78.5 -55t46.5 -77.5t22 -94.5t6 -113.5v-324q0 -62 13 -77t63 -21 q26 -1 34.5 -8.5t8.5 -26.5v-131q0 -41 -60 -53q-57 -14 -127 -14q-85 0 -138.5 28.5t-72.5 104.5l-4 2q-73 -69 -176 -104t-190 -35q-70 0 -122 17t-83 44t-50 67.5t-25.5 81t-6.5 91.5zM166 1178q-7 12 0 30q47 120 117 176t147 56q50 0 114.5 -25t123 -50.5t92.5 -25.5 q67 0 114 78q8 16 21.5 17t34.5 -9l76 -41q17 -7 20.5 -17.5t-2.5 -29.5q-51 -122 -115.5 -172.5t-146.5 -50.5q-47 0 -167.5 49t-162.5 49q-70 0 -121 -75q-12 -17 -18.5 -19t-32.5 8l-78 35q-9 5 -16 17zM395 301q0 -47 20 -65.5t72 -18.5q45 0 107 22t108 50v137h-184 q-61 0 -92 -28t-31 -97z" />
<glyph unicode="&#xe4;" horiz-adv-x="1173" d="M80 285q-3 181 99 260.5t294 79.5h236v32q0 68 -36 94.5t-145 26.5q-88 0 -268 -18q-42 -6 -56.5 -0.5t-21.5 35.5l-22 106q-5 28 7.5 45t57.5 35q63 24 166.5 36.5t186.5 12.5q95 0 166 -11t119 -35.5t78.5 -55t46.5 -77.5t22 -94.5t6 -113.5v-324q0 -62 13 -77t63 -21 q26 -1 34.5 -8.5t8.5 -26.5v-131q0 -41 -60 -53q-57 -14 -127 -14q-85 0 -138.5 28.5t-72.5 104.5l-4 2q-73 -69 -176 -104t-190 -35q-70 0 -122 17t-83 44t-50 67.5t-25.5 81t-6.5 91.5zM225 1264q0 67 32 103t118 36q89 0 120 -34.5t31 -104.5q0 -33 -6 -56.5t-21 -45 t-46 -33t-78 -11.5q-48 0 -80 11.5t-46 34t-19 45t-5 55.5zM395 301q0 -47 20 -65.5t72 -18.5q45 0 107 22t108 50v137h-184q-61 0 -92 -28t-31 -97zM653 1264q0 67 32.5 103t117.5 36q90 0 120.5 -34t30.5 -105q0 -69 -30.5 -107.5t-120.5 -38.5q-89 0 -119.5 39t-30.5 107 z" />
<glyph unicode="&#xe5;" horiz-adv-x="1173" d="M80 285q-3 181 99 260.5t294 79.5h236v32q0 68 -36 94.5t-145 26.5q-88 0 -268 -18q-42 -6 -56.5 -0.5t-21.5 35.5l-22 106q-5 28 7.5 45t57.5 35q63 24 166.5 36.5t186.5 12.5q95 0 166 -11t119 -35.5t78.5 -55t46.5 -77.5t22 -94.5t6 -113.5v-324q0 -62 13 -77t63 -21 q26 -1 34.5 -8.5t8.5 -26.5v-131q0 -41 -60 -53q-57 -14 -127 -14q-85 0 -138.5 28.5t-72.5 104.5l-4 2q-73 -69 -176 -104t-190 -35q-70 0 -122 17t-83 44t-50 67.5t-25.5 81t-6.5 91.5zM336 1335q0 106 79 177t183 71q103 0 178.5 -74.5t75.5 -173.5q0 -103 -75 -176.5 t-179 -73.5q-105 0 -183.5 71.5t-78.5 178.5zM395 301q0 -47 20 -65.5t72 -18.5q45 0 107 22t108 50v137h-184q-61 0 -92 -28t-31 -97zM504 1335q0 -44 26 -71t68 -27q37 0 63.5 28.5t26.5 69.5q0 39 -27 68t-63 29q-38 0 -66 -29t-28 -68z" />
<glyph unicode="&#xe6;" horiz-adv-x="1720" d="M90 283q0 176 99 253.5t292 77.5h238v43q0 68 -36 94.5t-144 26.5q-85 0 -269 -18q-28 -7 -49 -2.5t-28 35.5l-23 106q-6 29 7.5 47t55.5 33q64 24 168 36.5t187 12.5q120 0 195 -22t124 -72q109 94 279 94q467 0 467 -471q0 -66 -26 -100.5t-87 -34.5h-504 q4 -58 18.5 -94t43.5 -54.5t64.5 -25t92.5 -6.5q108 0 248 20q29 8 46 1.5t24 -42.5l18 -102q6 -36 -3.5 -54t-51.5 -36q-56 -22 -155 -34.5t-179 -12.5q-278 0 -389 143q-172 -141 -422 -141q-75 0 -130 16.5t-87.5 43t-51.5 67t-25.5 81t-6.5 91.5zM406 297q0 -44 20 -63 t70 -19q43 0 116.5 23.5t122.5 50.5q-11 51 -18 133h-174q-74 0 -105.5 -29t-31.5 -96zM1044 612h281q-4 172 -139 172q-132 0 -142 -172z" />
<glyph unicode="&#xe7;" horiz-adv-x="978" d="M84 510q0 57 5 107t18.5 104t35.5 98t58.5 84t84.5 67.5t116.5 43.5t152.5 16q201 0 322 -51q52 -21 43 -76l-23 -125q-7 -30 -21.5 -35t-56.5 0q-154 15 -221 15q-102 0 -148.5 -58.5t-46.5 -183.5q0 -148 42 -205t149 -57q105 0 246 16q34 5 44.5 -0.5t16.5 -36.5 l21 -112q8 -37 -2 -55.5t-52 -36.5q-125 -43 -297 -47l-30 -80q65 -2 109.5 -16t66 -38.5t29.5 -50t8 -59.5q0 -97 -71 -156t-210 -59q-103 0 -174 24q-23 8 -18 25l18 84q3 14 25 12q82 -12 131 -12q57 0 88.5 17t31.5 67q0 37 -26 46.5t-101 13.5q-14 1 -22 1 q-47 3 -31 49l49 140q-90 12 -156.5 48t-105 83t-61 114.5t-30 131t-7.5 143.5z" />
<glyph unicode="&#xe8;" horiz-adv-x="1091" d="M86 498q0 50 3 92.5t14.5 99t30.5 101.5t54.5 91t83.5 77.5t120 51t161 19.5q113 0 198 -28.5t134.5 -72.5t80 -108t41 -124.5t11.5 -133.5q0 -67 -25 -99t-88 -32h-499q6 -112 58 -151t163 -39q73 0 241 20q41 5 52 -1.5t18 -43.5l16 -96q7 -39 -1.5 -56.5t-51.5 -35.5 q-59 -21 -155.5 -34t-174.5 -13q-120 0 -208.5 28.5t-140.5 74.5t-83.5 115.5t-42 139t-10.5 158.5zM287 1405q-33 38 4 61l141 109q37 21 60 -12l227 -326q21 -30 -6 -49l-97 -76q-23 -20 -51 8zM410 616h284q0 175 -141 175q-70 0 -104 -44t-39 -131z" />
<glyph unicode="&#xe9;" horiz-adv-x="1091" d="M86 498q0 50 3 92.5t14.5 99t30.5 101.5t54.5 91t83.5 77.5t120 51t161 19.5q113 0 198 -28.5t134.5 -72.5t80 -108t41 -124.5t11.5 -133.5q0 -67 -25 -99t-88 -32h-499q6 -112 58 -151t163 -39q73 0 241 20q41 5 52 -1.5t18 -43.5l16 -96q7 -39 -1.5 -56.5t-51.5 -35.5 q-59 -21 -155.5 -34t-174.5 -13q-120 0 -208.5 28.5t-140.5 74.5t-83.5 115.5t-42 139t-10.5 158.5zM410 616h284q0 175 -141 175q-70 0 -104 -44t-39 -131zM446 1210l191 353q21 38 57 18l156 -88q42 -22 10 -61l-242 -310q-21 -32 -51 -18l-106 57q-31 17 -15 49z" />
<glyph unicode="&#xea;" horiz-adv-x="1091" d="M86 498q0 50 3 92.5t14.5 99t30.5 101.5t54.5 91t83.5 77.5t120 51t161 19.5q113 0 198 -28.5t134.5 -72.5t80 -108t41 -124.5t11.5 -133.5q0 -67 -25 -99t-88 -32h-499q6 -112 58 -151t163 -39q73 0 241 20q41 5 52 -1.5t18 -43.5l16 -96q7 -39 -1.5 -56.5t-51.5 -35.5 q-59 -21 -155.5 -34t-174.5 -13q-120 0 -208.5 28.5t-140.5 74.5t-83.5 115.5t-42 139t-10.5 158.5zM145.5 1177q-0.5 10 16.5 29l248 273q14 16 21 21.5t22 10.5t39 5h131q36 0 49 -6t30 -25l250 -281q17 -19 16.5 -29t-16.5 -24l-71 -68q-20 -14 -30 -13t-30 15l-270 209 l-258 -207q-23 -17 -31.5 -18.5t-28.5 14.5l-71 70q-16 14 -16.5 24zM410 616h284q0 175 -141 175q-70 0 -104 -44t-39 -131z" />
<glyph unicode="&#xeb;" horiz-adv-x="1091" d="M86 498q0 50 3 92.5t14.5 99t30.5 101.5t54.5 91t83.5 77.5t120 51t161 19.5q113 0 198 -28.5t134.5 -72.5t80 -108t41 -124.5t11.5 -133.5q0 -67 -25 -99t-88 -32h-499q6 -112 58 -151t163 -39q73 0 241 20q41 5 52 -1.5t18 -43.5l16 -96q7 -39 -1.5 -56.5t-51.5 -35.5 q-59 -21 -155.5 -34t-174.5 -13q-120 0 -208.5 28.5t-140.5 74.5t-83.5 115.5t-42 139t-10.5 158.5zM197 1264q0 67 31.5 103t117.5 36q89 0 120.5 -34.5t31.5 -104.5q0 -68 -31.5 -107t-120.5 -39q-48 0 -79.5 11.5t-46 34t-19 45t-4.5 55.5zM410 616h284q0 175 -141 175 q-70 0 -104 -44t-39 -131zM625 1264q0 67 32 103t117 36q90 0 121 -34.5t31 -104.5q0 -69 -31 -107.5t-121 -38.5q-89 0 -119 38.5t-30 107.5z" />
<glyph unicode="&#xec;" horiz-adv-x="548" d="M-37 1405q-33 38 4 61l142 109q37 20 59 -12l227 -326q21 -30 -6 -49l-96 -76q-23 -20 -51 8zM119 45v922q0 23 10 34t35 11h223q43 0 43 -45v-922q0 -45 -43 -45h-223q-45 0 -45 45z" />
<glyph unicode="&#xed;" horiz-adv-x="548" d="M119 45v922q0 23 10 34t35 11h223q43 0 43 -45v-922q0 -45 -43 -45h-223q-45 0 -45 45zM199 1210l190 353q21 38 57 18l156 -88q42 -22 10 -61l-241 -310q-22 -33 -52 -18l-106 57q-31 17 -14 49z" />
<glyph unicode="&#xee;" horiz-adv-x="802" d="M-10.5 1177q-0.5 10 16.5 29l248 273q14 16 21 21.5t22 10.5t39 5h131q36 0 50 -6t30 -25l250 -281q17 -19 16.5 -29t-16.5 -24l-72 -68q-20 -14 -29.5 -13t-29.5 15l-271 209l-258 -207q-16 -12 -23 -15.5t-16 -1.5t-20 13l-72 70q-16 14 -16.5 24zM238 45v922 q0 23 10 34t35 11h223q43 0 43 -45v-922q0 -45 -43 -45h-223q-45 0 -45 45z" />
<glyph unicode="&#xef;" horiz-adv-x="708" d="M-10 1264q0 67 31.5 103t117.5 36q89 0 120.5 -34.5t31.5 -104.5q0 -68 -31.5 -107t-120.5 -39q-48 0 -79.5 11.5t-46 34t-19 45t-4.5 55.5zM197 45v922q0 23 10 34t35 11h223q43 0 43 -45v-922q0 -45 -43 -45h-223q-45 0 -45 45zM418 1264q0 67 32 103t117 36 q90 0 121 -34.5t31 -104.5q0 -69 -31 -107.5t-121 -38.5q-89 0 -119 38.5t-30 107.5z" />
<glyph unicode="&#xf0;" horiz-adv-x="1114" d="M82 471q0 41 5 81.5t18.5 89t35 90.5t58 82.5t83.5 69.5t115 46.5t150 17.5q55 0 108.5 -14t83.5 -41h2q0 53 -12.5 120.5t-36.5 104.5l-67 -71q-24 -24 -47 -3l-58 54q-21 18 0 39l70 71q-55 25 -135 25q-31 0 -133 -8q-22 -1 -30 7t-13 32l-21 118q-6 39 31 52 q88 36 227 36q164 0 268 -65l95 96q15 15 24.5 16t24.5 -14l55 -49q16 -15 15 -22.5t-15 -22.5l-94 -96q49 -54 81.5 -134.5t46 -175.5t17.5 -165.5t4 -157.5q0 -81 -4.5 -148.5t-18.5 -141.5t-37 -131.5t-61.5 -111t-90 -88.5t-125.5 -56t-166 -21q-86 0 -155.5 17.5 t-116 45t-81 69t-53.5 82.5t-30 93t-14 93t-3 89zM401 461q0 -106 32 -155.5t112 -49.5q153 0 153 209q0 106 -32.5 159.5t-116.5 53.5q-79 0 -113.5 -54.5t-34.5 -162.5z" />
<glyph unicode="&#xf1;" horiz-adv-x="1142" d="M96 43v922q0 45 45 45h224q43 0 43 -45v-50q1 0 3 -1t3 -1q67 51 157 83t164 32q61 0 109 -13t80 -33t55 -53t35.5 -65t19.5 -77t8.5 -79.5t1.5 -82.5v-582q0 -43 -43 -43h-225q-45 0 -45 43q0 90 1 269t1 268q0 84 -29.5 120.5t-95.5 36.5q-30 0 -66 -10.5t-79.5 -27.5 t-54.5 -21v-635q0 -43 -43 -43h-224q-25 0 -35 10.5t-10 32.5zM121 1178q-7 12 0 30q47 120 117 176t147 56q50 0 114.5 -25t123 -50.5t92.5 -25.5q67 0 114 78q8 16 21.5 17t34.5 -9l76 -41q17 -7 20.5 -17.5t-2.5 -29.5q-51 -122 -115.5 -172.5t-146.5 -50.5 q-47 0 -167.5 49t-162.5 49q-70 0 -121 -75q-12 -17 -18.5 -19t-32.5 8l-78 35q-9 5 -16 17z" />
<glyph unicode="&#xf2;" horiz-adv-x="1124" d="M86 520q0 45 3.5 87t16 95t32.5 97t56 88t84 74.5t119 49.5t158 19q88 0 159.5 -16t121.5 -43t87 -67t59 -83t35.5 -96.5t18 -101t4.5 -103.5t-3 -100.5t-14.5 -102.5t-31 -102t-56.5 -89.5t-86.5 -75t-124.5 -48t-169 -18.5q-91 0 -164 18.5t-121.5 48t-83.5 75t-54 89 t-30 102t-13.5 102.5t-2.5 101zM276 1405q-32 37 5 61l141 109q37 20 59 -12l228 -326q21 -29 -7 -49l-96 -76q-23 -20 -51 8zM401 508q0 -139 32.5 -198.5t121.5 -59.5q98 0 132 59.5t34 198.5t-32.5 197.5t-129.5 58.5q-90 0 -124 -62t-34 -194z" />
<glyph unicode="&#xf3;" horiz-adv-x="1124" d="M86 520q0 45 3.5 87t16 95t32.5 97t56 88t84 74.5t119 49.5t158 19q88 0 159.5 -16t121.5 -43t87 -67t59 -83t35.5 -96.5t18 -101t4.5 -103.5t-3 -100.5t-14.5 -102.5t-31 -102t-56.5 -89.5t-86.5 -75t-124.5 -48t-169 -18.5q-91 0 -164 18.5t-121.5 48t-83.5 75t-54 89 t-30 102t-13.5 102.5t-2.5 101zM401 508q0 -139 32.5 -198.5t121.5 -59.5q98 0 132 59.5t34 198.5t-32.5 197.5t-129.5 58.5q-90 0 -124 -62t-34 -194zM457 1210l190 353q21 38 58 18l155 -88q42 -22 10 -61l-241 -310q-21 -32 -51 -18l-107 57q-31 17 -14 49z" />
<glyph unicode="&#xf4;" horiz-adv-x="1124" d="M86 520q0 45 3.5 87t16 95t32.5 97t56 88t84 74.5t119 49.5t158 19q88 0 159.5 -16t121.5 -43t87 -67t59 -83t35.5 -96.5t18 -101t4.5 -103.5t-3 -100.5t-14.5 -102.5t-31 -102t-56.5 -89.5t-86.5 -75t-124.5 -48t-169 -18.5q-91 0 -164 18.5t-121.5 48t-83.5 75t-54 89 t-30 102t-13.5 102.5t-2.5 101zM153.5 1177q-0.5 10 16.5 29l248 273q14 16 21 21.5t22 10.5t39 5h131q36 0 50 -6t30 -25l250 -281q17 -19 16.5 -29t-16.5 -24l-72 -68q-20 -14 -30 -13t-30 15l-270 209l-258 -207q-16 -12 -23 -15.5t-16 -1.5t-20 13l-72 70 q-16 14 -16.5 24zM401 508q0 -139 32.5 -198.5t121.5 -59.5q98 0 132 59.5t34 198.5t-32.5 197.5t-129.5 58.5q-90 0 -124 -62t-34 -194z" />
<glyph unicode="&#xf5;" horiz-adv-x="1124" d="M86 520q0 45 3.5 87t16 95t32.5 97t56 88t84 74.5t119 49.5t158 19q88 0 159.5 -16t121.5 -43t87 -67t59 -83t35.5 -96.5t18 -101t4.5 -103.5t-3 -100.5t-14.5 -102.5t-31 -102t-56.5 -89.5t-86.5 -75t-124.5 -48t-169 -18.5q-91 0 -164 18.5t-121.5 48t-83.5 75t-54 89 t-30 102t-13.5 102.5t-2.5 101zM139 1208q47 120 117 176t147 56q50 0 114.5 -25t123 -50.5t92.5 -25.5q68 0 115 78q8 16 21 17t34 -9l76 -41q17 -7 20.5 -17.5t-2.5 -29.5q-51 -122 -115.5 -172.5t-146.5 -50.5q-47 0 -167 49t-162 49q-70 0 -121 -75q-12 -17 -19 -19 t-33 8l-77 35q-29 15 -17 47zM401 508q0 -139 32.5 -198.5t121.5 -59.5q98 0 132 59.5t34 198.5t-32.5 197.5t-129.5 58.5q-90 0 -124 -62t-34 -194z" />
<glyph unicode="&#xf6;" horiz-adv-x="1124" d="M86 520q0 45 3.5 87t16 95t32.5 97t56 88t84 74.5t119 49.5t158 19q88 0 159.5 -16t121.5 -43t87 -67t59 -83t35.5 -96.5t18 -101t4.5 -103.5t-3 -100.5t-14.5 -102.5t-31 -102t-56.5 -89.5t-86.5 -75t-124.5 -48t-169 -18.5q-91 0 -164 18.5t-121.5 48t-83.5 75t-54 89 t-30 102t-13.5 102.5t-2.5 101zM205 1264q0 67 31.5 103t117.5 36q89 0 120.5 -34.5t31.5 -104.5q0 -68 -31.5 -107t-120.5 -39q-48 0 -79.5 11.5t-46 34t-19 45t-4.5 55.5zM401 508q0 -139 32.5 -198.5t121.5 -59.5q98 0 132 59.5t34 198.5t-32.5 197.5t-129.5 58.5 q-90 0 -124 -62t-34 -194zM633 1264q0 67 32 103t117 36q90 0 121 -34.5t31 -104.5q0 -69 -31 -107.5t-121 -38.5q-89 0 -119 38.5t-30 107.5z" />
<glyph unicode="&#xf7;" d="M147 594v143q0 22 10 31.5t33 9.5h844q25 0 34 -9t9 -32v-143q0 -24 -9 -33.5t-34 -9.5h-844q-23 0 -33 10t-10 33zM446 299q0 72 34.5 111t127.5 39t126.5 -37t33.5 -113q0 -73 -32.5 -113.5t-127.5 -40.5q-52 0 -86 12t-49.5 35.5t-21 47.5t-5.5 59zM446 1022 q0 72 34.5 109.5t127.5 37.5t126.5 -36.5t33.5 -110.5t-32.5 -115t-127.5 -41q-52 0 -86 12.5t-49.5 36.5t-21 48t-5.5 59z" />
<glyph unicode="&#xf8;" horiz-adv-x="1124" d="M86 520q0 45 3.5 87t16 95t32.5 97t56 88t84 74.5t119 49.5t158 19q178 0 289 -65l67 82q18 22 26 24t28 -14l51 -43q19 -16 18.5 -24t-18.5 -29l-70 -87q94 -121 94 -354q0 -56 -3 -100.5t-14.5 -102.5t-31 -102t-56.5 -89.5t-86.5 -75t-124.5 -48t-169 -18.5 q-171 0 -281 63l-47 -57q-19 -22 -26 -24t-27 11l-51 46q-19 16 -18.5 24t18.5 29l51 63q-54 73 -71 168t-17 213zM401 508q0 -59 2 -86l256 315q-39 27 -100 27q-90 0 -124 -62t-34 -194zM461 276q33 -26 94 -26q98 0 132 59.5t34 198.5q0 34 -4 84z" />
<glyph unicode="&#xf9;" horiz-adv-x="1136" d="M94 377v588q0 45 43 45h225q44 0 44 -45v-537q0 -80 28.5 -119t95.5 -39q30 0 65 10.5t77.5 28.5t50.5 21v635q0 45 43 45h225q45 0 45 -45v-922q0 -22 -10 -32.5t-35 -10.5h-225q-43 0 -43 43v51q-1 0 -2 1t-2 1q-67 -51 -156.5 -81.5t-165.5 -30.5q-61 0 -108 11.5 t-78.5 29.5t-54 49t-34.5 60.5t-18.5 74.5t-8 80t-1.5 88zM272 1405q-33 38 4 61l142 109q37 20 59 -12l228 -326q21 -29 -7 -49l-96 -76q-23 -20 -51 8z" />
<glyph unicode="&#xfa;" horiz-adv-x="1136" d="M94 377v588q0 45 43 45h225q44 0 44 -45v-537q0 -80 28.5 -119t95.5 -39q30 0 65 10.5t77.5 28.5t50.5 21v635q0 45 43 45h225q45 0 45 -45v-922q0 -22 -10 -32.5t-35 -10.5h-225q-43 0 -43 43v51q-1 0 -2 1t-2 1q-67 -51 -156.5 -81.5t-165.5 -30.5q-61 0 -108 11.5 t-78.5 29.5t-54 49t-34.5 60.5t-18.5 74.5t-8 80t-1.5 88zM442 1210l191 353q21 38 57 18l156 -88q42 -22 10 -61l-242 -310q-21 -32 -51 -18l-106 57q-31 17 -15 49z" />
<glyph unicode="&#xfb;" horiz-adv-x="1136" d="M94 377v588q0 45 43 45h225q44 0 44 -45v-537q0 -80 28.5 -119t95.5 -39q30 0 65 10.5t77.5 28.5t50.5 21v635q0 45 43 45h225q45 0 45 -45v-922q0 -22 -10 -32.5t-35 -10.5h-225q-43 0 -43 43v51q-1 0 -2 1t-2 1q-67 -51 -156.5 -81.5t-165.5 -30.5q-61 0 -108 11.5 t-78.5 29.5t-54 49t-34.5 60.5t-18.5 74.5t-8 80t-1.5 88zM153.5 1177q-0.5 10 16.5 29l248 273q14 16 21 21.5t22 10.5t39 5h131q36 0 50 -6t30 -25l250 -281q17 -19 16.5 -29t-16.5 -24l-72 -68q-20 -14 -30 -13t-30 15l-270 209l-258 -207q-16 -12 -23 -15.5t-16 -1.5 t-20 13l-72 70q-16 14 -16.5 24z" />
<glyph unicode="&#xfc;" horiz-adv-x="1136" d="M94 377v588q0 45 43 45h225q44 0 44 -45v-537q0 -80 28.5 -119t95.5 -39q30 0 65 10.5t77.5 28.5t50.5 21v635q0 45 43 45h225q45 0 45 -45v-922q0 -22 -10 -32.5t-35 -10.5h-225q-43 0 -43 43v51q-1 0 -2 1t-2 1q-67 -51 -156.5 -81.5t-165.5 -30.5q-61 0 -108 11.5 t-78.5 29.5t-54 49t-34.5 60.5t-18.5 74.5t-8 80t-1.5 88zM213 1264q0 67 31.5 103t117.5 36q89 0 120.5 -34.5t31.5 -104.5q0 -68 -31.5 -107t-120.5 -39q-48 0 -79.5 11.5t-46 34t-19 45t-4.5 55.5zM641 1264q0 67 32.5 103t117.5 36q90 0 120.5 -34t30.5 -105 q0 -69 -30.5 -107.5t-120.5 -38.5q-89 0 -119.5 39t-30.5 107z" />
<glyph unicode="&#xfd;" horiz-adv-x="1069" d="M29 961q-20 51 32 51h220q31 0 44 -7t21 -36l96 -297l86 -281h11q13 34 36.5 105t40.5 126l17 54q13 40 46 144.5t48 148.5q8 24 21.5 33.5t48.5 9.5h204q31 0 37.5 -14.5t-4.5 -39.5l-487 -1310q-11 -28 -25 -37.5t-49 -9.5h-197q-30 0 -37 11.5t5 39.5l139 375z M424 1210l190 353q21 38 58 18l155 -88q42 -22 11 -61l-242 -310q-21 -32 -51 -18l-107 57q-31 17 -14 49z" />
<glyph unicode="&#xfe;" horiz-adv-x="1128" d="M100 -354v1669q0 45 47 45h224q43 0 43 -45v-400q1 0 2 -1t2 -1q158 113 291 113q83 0 145 -26.5t99.5 -71t60.5 -113t31 -141t8 -166.5q0 -104 -11 -181.5t-39 -145.5t-74.5 -110.5t-119.5 -66.5t-172 -24q-110 0 -221 30h-2v-364q0 -45 -43 -45h-224q-47 0 -47 45z M414 268q81 -22 159 -22q90 0 125 52.5t35 205.5q0 96 -14.5 148t-40 69.5t-70.5 17.5q-68 0 -194 -59v-412z" />
<glyph unicode="&#xff;" horiz-adv-x="1069" d="M29 961q-20 51 32 51h220q31 0 44 -7t21 -36l96 -297l86 -281h11q13 34 36.5 105t40.5 126l17 54q13 40 46 144.5t48 148.5q8 24 21.5 33.5t48.5 9.5h204q31 0 37.5 -14.5t-4.5 -39.5l-487 -1310q-11 -28 -25 -37.5t-49 -9.5h-197q-30 0 -37 11.5t5 39.5l139 375z M174 1264q0 67 32 103t118 36q89 0 120 -34.5t31 -104.5q0 -33 -6 -56.5t-21 -45t-46 -33t-78 -11.5q-48 0 -80 11.5t-46 34t-19 45t-5 55.5zM602 1264q0 67 32.5 103t117.5 36q90 0 120.5 -34t30.5 -105q0 -69 -30.5 -107.5t-120.5 -38.5q-89 0 -119.5 39t-30.5 107z" />
<glyph unicode="&#x100;" horiz-adv-x="1265" d="M17.5 9.5q-6.5 9.5 2.5 43.5l396 1250q10 31 26 45t54 14h258q39 0 53.5 -13.5t26.5 -48.5l411 -1251q7 -25 2 -37t-26 -12h-254q-32 0 -46 14t-24 49l-68 244h-407l-74 -250q-16 -57 -72 -57h-227q-25 0 -31.5 9.5zM270 1495v143q0 23 10 33t33 10h623q24 0 32.5 -9 t8.5 -32v-145q0 -24 -8.5 -33.5t-32.5 -9.5h-623q-43 0 -43 43zM492 557h266l-62 225l-65 250h-10l-68 -248z" />
<glyph unicode="&#x101;" horiz-adv-x="1173" d="M80 285q-3 181 99 260.5t294 79.5h236v32q0 68 -36 94.5t-145 26.5q-88 0 -268 -18q-42 -6 -56.5 -0.5t-21.5 35.5l-22 106q-5 28 7.5 45t57.5 35q63 24 166.5 36.5t186.5 12.5q95 0 166 -11t119 -35.5t78.5 -55t46.5 -77.5t22 -94.5t6 -113.5v-324q0 -62 13 -77t63 -21 q26 -1 34.5 -8.5t8.5 -26.5v-131q0 -41 -60 -53q-57 -14 -127 -14q-85 0 -138.5 28.5t-72.5 104.5l-4 2q-73 -69 -176 -104t-190 -35q-70 0 -122 17t-83 44t-50 67.5t-25.5 81t-6.5 91.5zM223 1198v145q0 43 43 43h625q24 0 32.5 -9.5t8.5 -30.5v-148q0 -23 -8.5 -33 t-32.5 -10h-625q-43 0 -43 43zM395 301q0 -47 20 -65.5t72 -18.5q45 0 107 22t108 50v137h-184q-61 0 -92 -28t-31 -97z" />
<glyph unicode="&#x102;" horiz-adv-x="1265" d="M17.5 9.5q-6.5 9.5 2.5 43.5l396 1250q10 31 26 45t54 14h258q39 0 53.5 -13.5t26.5 -48.5l411 -1251q7 -25 2 -37t-26 -12h-254q-32 0 -46 14t-24 49l-68 244h-407l-74 -250q-16 -57 -72 -57h-227q-25 0 -31.5 9.5zM194.5 1699.5q2.5 15.5 18.5 26.5l74 60q13 9 21 12.5 t18.5 -3t13 -9t18.5 -19.5q58 -69 115 -100t131 -31q72 0 129.5 28.5t114.5 102.5q19 25 34 28.5t40 -11.5l71 -43q18 -12 21 -27.5t-2 -29.5t-19 -37q-62 -114 -161 -171t-224 -57q-126 0 -233 54t-162 165q-21 46 -18.5 61.5zM492 557h266l-62 225l-65 250h-10l-68 -248z " />
<glyph unicode="&#x103;" horiz-adv-x="1173" d="M80 285q-3 181 99 260.5t294 79.5h236v32q0 68 -36 94.5t-145 26.5q-88 0 -268 -18q-42 -6 -56.5 -0.5t-21.5 35.5l-22 106q-5 28 7.5 45t57.5 35q63 24 166.5 36.5t186.5 12.5q95 0 166 -11t119 -35.5t78.5 -55t46.5 -77.5t22 -94.5t6 -113.5v-324q0 -62 13 -77t63 -21 q26 -1 34.5 -8.5t8.5 -26.5v-131q0 -41 -60 -53q-57 -14 -127 -14q-85 0 -138.5 28.5t-72.5 104.5l-4 2q-73 -69 -176 -104t-190 -35q-70 0 -122 17t-83 44t-50 67.5t-25.5 81t-6.5 91.5zM164.5 1389.5q0.5 4.5 1.5 11t5.5 12t10.5 10.5l74 60q18 12 31 11.5t19 -6t24 -24.5 q67 -81 121 -114t127 -33q68 0 122 32.5t119 114.5q19 24 33 27.5t39 -10.5l74 -45q17 -11 20 -27.5t-1.5 -28t-18.5 -39.5q-63 -121 -163 -185t-224 -64q-123 0 -233.5 63.5t-162.5 179.5q-1 3 -6 14t-6 14.5t-3.5 12.5t-2 13.5zM395 301q0 -47 20 -65.5t72 -18.5 q45 0 107 22t108 50v137h-184q-61 0 -92 -28t-31 -97z" />
<glyph unicode="&#x104;" horiz-adv-x="1265" d="M17.5 9.5q-6.5 9.5 2.5 43.5l396 1250q10 31 26 45t54 14h258q39 0 53.5 -13.5t26.5 -48.5l411 -1251q7 -25 2 -37t-26 -12h-64q-51 -85 -51 -164q0 -72 88 -72q43 0 113 17q29 6 36 -14q9 -26 25 -78q11 -32 -22 -45q-84 -43 -211 -43q-111 0 -170.5 58.5t-59.5 154.5 q0 95 68 186h-6q-32 0 -46 14t-24 49l-68 244h-407l-74 -250q-16 -57 -72 -57h-227q-25 0 -31.5 9.5zM492 557h266l-62 225l-65 250h-10l-68 -248z" />
<glyph unicode="&#x105;" horiz-adv-x="1173" d="M80 285q-3 181 99 260.5t294 79.5h236v32q0 68 -36 94.5t-145 26.5q-88 0 -268 -18q-42 -6 -56.5 -0.5t-21.5 35.5l-22 106q-5 28 7.5 45t57.5 35q63 24 166.5 36.5t186.5 12.5q95 0 166 -11t119 -35.5t78.5 -55t46.5 -77.5t22 -94.5t6 -113.5v-324q0 -62 13 -77t63 -21 q26 -1 34.5 -8.5t8.5 -26.5v-131q0 -41 -60 -53q-62 -12 -94 -14q-45 -78 -45 -152q0 -72 88 -72q43 0 113 17q30 7 37 -14q4 -12 24 -78q11 -32 -22 -45q-84 -43 -211 -43q-111 0 -170.5 58.5t-59.5 154.5q0 105 78 200q-58 28 -76 107l-4 2q-73 -69 -176 -104t-190 -35 q-70 0 -122 17t-83 44t-50 67.5t-25.5 81t-6.5 91.5zM395 301q0 -47 20 -65.5t72 -18.5q45 0 107 22t108 50v137h-184q-61 0 -92 -28t-31 -97z" />
<glyph unicode="&#x106;" horiz-adv-x="1214" d="M119 674q0 702 594 702q234 0 385 -65q34 -15 48 -33.5t7 -54.5l-27 -119q-6 -29 -19 -36.5t-50 -4.5q-211 22 -314 22q-67 0 -117 -21t-80.5 -56t-49 -88.5t-25 -110t-6.5 -129.5q0 -82 7 -142.5t25.5 -113.5t49 -86t79.5 -51.5t115 -18.5q106 0 318 23q39 3 51.5 -4 t19.5 -37l27 -109q10 -36 -3.5 -56.5t-47.5 -35.5q-75 -33 -183 -51t-208 -18q-596 0 -596 694zM561 1544q-19 31 12 49l334 219q23 12 37.5 7.5t22.5 -19.5l94 -151q12 -19 6.5 -35t-25.5 -25l-360 -157q-14 -8 -28 -7t-25 17z" />
<glyph unicode="&#x107;" horiz-adv-x="978" d="M84 510q0 57 5 107t18.5 104t35.5 98t58.5 84t84.5 67.5t116.5 43.5t152.5 16q201 0 322 -51q52 -21 43 -76l-23 -125q-7 -30 -21.5 -35t-56.5 0q-154 15 -221 15q-102 0 -148.5 -58.5t-46.5 -183.5q0 -148 42 -205t149 -57q105 0 246 16q34 5 44.5 -0.5t16.5 -36.5 l21 -112q8 -37 -2 -55.5t-52 -36.5q-60 -21 -148.5 -34t-164.5 -13q-119 0 -206 30t-137 77.5t-80 120t-39 141.5t-9 159zM375 1210l190 353q21 38 58 18l155 -88q42 -22 10 -61l-241 -310q-21 -32 -51 -18l-107 57q-31 17 -14 49z" />
<glyph unicode="&#x108;" horiz-adv-x="1214" d="M119 674q0 702 594 702q234 0 385 -65q34 -15 48 -33.5t7 -54.5l-27 -119q-6 -29 -19 -36.5t-50 -4.5q-211 22 -314 22q-67 0 -117 -21t-80.5 -56t-49 -88.5t-25 -110t-6.5 -129.5q0 -82 7 -142.5t25.5 -113.5t49 -86t79.5 -51.5t115 -18.5q106 0 318 23q39 3 51.5 -4 t19.5 -37l27 -109q10 -36 -3.5 -56.5t-47.5 -35.5q-75 -33 -183 -51t-208 -18q-596 0 -596 694zM286 1512q-1 9 15 30l252 230q1 1 7.5 7t7.5 7t6.5 5.5t7.5 5t7 3.5t9 3.5t9.5 2t12 2t13.5 0.5h131h14.5t13 -1.5t10 -2t9 -3t7 -3t7 -4t6.5 -4.5t7.5 -6t7.5 -6l252 -234 q17 -19 16 -28.5t-18 -26.5l-68 -72q-17 -14 -26 -12.5t-31 16.5l-277 178l-266 -180q-22 -16 -31 -17t-28 15l-66 70q-16 16 -17 25z" />
<glyph unicode="&#x109;" horiz-adv-x="978" d="M84 510q0 57 5 107t18.5 104t35.5 98t58.5 84t84.5 67.5t116.5 43.5t152.5 16q201 0 322 -51q52 -21 43 -76l-23 -125q-7 -30 -21.5 -35t-56.5 0q-154 15 -221 15q-102 0 -148.5 -58.5t-46.5 -183.5q0 -148 42 -205t149 -57q105 0 246 16q34 5 44.5 -0.5t16.5 -36.5 l21 -112q8 -37 -2 -55.5t-52 -36.5q-60 -21 -148.5 -34t-164.5 -13q-119 0 -206 30t-137 77.5t-80 120t-39 141.5t-9 159zM118.5 1177q-0.5 10 16.5 29l248 273q14 16 21 21.5t22 10.5t39 5h131q36 0 50 -6t30 -25l250 -281q17 -19 16.5 -29t-16.5 -24l-72 -68 q-20 -14 -29.5 -13t-29.5 15l-271 209l-258 -207q-16 -12 -23 -15.5t-16 -1.5t-20 13l-72 70q-16 14 -16.5 24z" />
<glyph unicode="&#x10a;" horiz-adv-x="1214" d="M119 674q0 702 594 702q234 0 385 -65q34 -15 48 -33.5t7 -54.5l-27 -119q-6 -29 -19 -36.5t-50 -4.5q-211 22 -314 22q-67 0 -117 -21t-80.5 -56t-49 -88.5t-25 -110t-6.5 -129.5q0 -82 7 -142.5t25.5 -113.5t49 -86t79.5 -51.5t115 -18.5q106 0 318 23q39 3 51.5 -4 t19.5 -37l27 -109q10 -36 -3.5 -56.5t-47.5 -35.5q-75 -33 -183 -51t-208 -18q-596 0 -596 694zM559 1616q0 151 162 151q93 0 127.5 -38.5t34.5 -112.5q0 -68 -34.5 -110t-127.5 -42q-50 0 -84 13t-50 36.5t-22 47.5t-6 55z" />
<glyph unicode="&#x10b;" horiz-adv-x="978" d="M84 510q0 57 5 107t18.5 104t35.5 98t58.5 84t84.5 67.5t116.5 43.5t152.5 16q201 0 322 -51q52 -21 43 -76l-23 -125q-7 -30 -21.5 -35t-56.5 0q-154 15 -221 15q-102 0 -148.5 -58.5t-46.5 -183.5q0 -148 42 -205t149 -57q105 0 246 16q34 5 44.5 -0.5t16.5 -36.5 l21 -112q8 -37 -2 -55.5t-52 -36.5q-60 -21 -148.5 -34t-164.5 -13q-119 0 -206 30t-137 77.5t-80 120t-39 141.5t-9 159zM393 1282q0 152 162 152q93 0 127.5 -39t34.5 -113q0 -68 -34.5 -110t-127.5 -42q-50 0 -84 13t-50 36.5t-22 47.5t-6 55z" />
<glyph unicode="&#x10c;" horiz-adv-x="1214" d="M119 674q0 702 594 702q234 0 385 -65q34 -15 48 -33.5t7 -54.5l-27 -119q-6 -29 -19 -36.5t-50 -4.5q-211 22 -314 22q-67 0 -117 -21t-80.5 -56t-49 -88.5t-25 -110t-6.5 -129.5q0 -82 7 -142.5t25.5 -113.5t49 -86t79.5 -51.5t115 -18.5q106 0 318 23q39 3 51.5 -4 t19.5 -37l27 -109q10 -36 -3.5 -56.5t-47.5 -35.5q-75 -33 -183 -51t-208 -18q-596 0 -596 694zM284 1716.5q1 9.5 17 24.5l66 71q9 11 18 13t16.5 -1.5t22.5 -13.5l268 -165l275 163q22 15 31 16.5t28 -12.5l68 -69q15 -16 15.5 -24.5t-15.5 -28.5l-252 -236 q-15 -13 -21.5 -17.5t-21.5 -9t-37 -4.5h-131q-22 0 -38 5.5t-23.5 11t-20.5 18.5l-248 228q-18 21 -17 30.5z" />
<glyph unicode="&#x10d;" horiz-adv-x="978" d="M84 510q0 57 5 107t18.5 104t35.5 98t58.5 84t84.5 67.5t116.5 43.5t152.5 16q201 0 322 -51q52 -21 43 -76l-23 -125q-7 -30 -21.5 -35t-56.5 0q-154 15 -221 15q-102 0 -148.5 -58.5t-46.5 -183.5q0 -148 42 -205t149 -57q105 0 246 16q34 5 44.5 -0.5t16.5 -36.5 l21 -112q8 -37 -2 -55.5t-52 -36.5q-60 -21 -148.5 -34t-164.5 -13q-119 0 -206 30t-137 77.5t-80 120t-39 141.5t-9 159zM118 1423.5q1 8.5 17 24.5l70 70q11 11 20.5 13t16.5 -2t22 -16l260 -206l269 209q20 14 30.5 15t28.5 -13l72 -68q15 -14 16 -25t-14 -30l-252 -279 q-16 -19 -30 -25t-50 -6h-131q-34 0 -48.5 7.5t-33.5 29.5l-248 273q-16 20 -15 28.5z" />
<glyph unicode="&#x10e;" horiz-adv-x="1347" d="M137 45v1270q0 45 45 45h447q602 0 602 -676q0 -116 -16 -212t-58 -186t-108 -151t-173 -98t-247 -37h-445q-47 0 -47 45zM182 1716.5q1 9.5 17 24.5l65 71q9 11 18.5 13t17 -1.5t22.5 -13.5l268 -165l274 163q22 15 31.5 16.5t28.5 -12.5l67 -69q15 -16 15.5 -24.5 t-15.5 -28.5l-252 -236q-15 -13 -21.5 -17.5t-21.5 -9t-37 -4.5h-131q-22 0 -38 5.5t-23.5 11t-20.5 18.5l-247 228q-18 21 -17 30.5zM461 272h131q145 0 223 94t78 304q0 216 -69.5 316.5t-217.5 100.5h-145v-815z" />
<glyph unicode="&#x10f;" horiz-adv-x="1462" d="M82 492q0 105 9.5 182t36.5 148t72.5 115t120 69.5t177.5 25.5q109 0 221 -33q0 2 2 2v398q0 47 43 47h223q43 0 43 -47v-1356q0 -43 -43 -43h-225q-24 0 -32.5 9.5t-8.5 31.5v53q-1 0 -3 1t-3 1q-148 -112 -291 -112q-82 0 -142.5 25.5t-98.5 68.5t-61 109.5t-31.5 139 t-8.5 165.5zM399 502q0 -99 14 -151t39 -68.5t70 -16.5q70 0 197 62v413q-92 23 -160 23q-61 0 -94 -21.5t-49.5 -78t-16.5 -162.5zM1135 1028q1 11 28 41q54 54 54 131q0 48 -54 113q-19 20 -25.5 33.5t0 29t29.5 33.5l133 98q20 16 37.5 17t30 -7t31.5 -26 q39 -37 61.5 -92t22.5 -105q0 -124 -55 -218.5t-144 -147.5q-46 -24 -76 10l-53 55q-21 24 -20 35z" />
<glyph unicode="&#x110;" horiz-adv-x="1347" d="M-4 621v127q0 38 43 38h98v529q0 45 45 45h447q602 0 602 -676q0 -116 -16 -212t-58 -186t-108 -151t-173 -98t-247 -37h-445q-47 0 -47 45v537h-98q-43 0 -43 39zM461 272h131q145 0 223 94t78 304q0 216 -69.5 316.5t-217.5 100.5h-145v-301h192q24 0 32.5 -8t8.5 -28 v-129q0 -21 -8.5 -30t-32.5 -9h-192v-310z" />
<glyph unicode="&#x111;" horiz-adv-x="1161" d="M82 463q0 105 9.5 180t36 141.5t72.5 106.5t120 63t178 23h30q113 -8 191 -33h2v139h-270q-20 0 -26.5 6.5t-6.5 26.5v109q0 21 6 26.5t27 5.5h270v142q0 47 43 47h223q43 0 43 -47v-142h88q20 0 26.5 -6.5t6.5 -27.5v-109q0 -18 -6 -24.5t-25 -6.5h-90v-1040 q0 -43 -43 -43h-223q-43 0 -43 43v51q-1 0 -3 1t-3 1q-64 -51 -143 -80.5t-154 -29.5h-10q-39 0 -66 6q-77 12 -129 50t-80 101.5t-39.5 139.5t-11.5 180zM399 473q0 -123 28 -165t95 -42q70 0 197 62v358q-92 23 -160 23q-88 0 -124 -53t-36 -183z" />
<glyph unicode="&#x112;" horiz-adv-x="1142" d="M139 43v1272q0 47 45 47h813q20 0 31.5 -12.5t11.5 -32.5v-187q0 -43 -45 -43h-530v-247h463q22 0 34.5 -11.5t12.5 -31.5v-187q0 -43 -47 -43h-463v-295h541q21 0 33 -12t12 -33v-186q0 -41 -45 -41h-822q-45 0 -45 43zM248 1495v143q0 23 10 33t33 10h622q24 0 32.5 -9 t8.5 -32v-145q0 -24 -8.5 -33.5t-32.5 -9.5h-622q-43 0 -43 43z" />
<glyph unicode="&#x113;" horiz-adv-x="1091" d="M86 498q0 50 3 92.5t14.5 99t30.5 101.5t54.5 91t83.5 77.5t120 51t161 19.5q113 0 198 -28.5t134.5 -72.5t80 -108t41 -124.5t11.5 -133.5q0 -67 -25 -99t-88 -32h-499q6 -112 58 -151t163 -39q73 0 241 20q41 5 52 -1.5t18 -43.5l16 -96q7 -39 -1.5 -56.5t-51.5 -35.5 q-59 -21 -155.5 -34t-174.5 -13q-120 0 -208.5 28.5t-140.5 74.5t-83.5 115.5t-42 139t-10.5 158.5zM201 1198v145q0 43 43 43h624q24 0 32.5 -9.5t8.5 -30.5v-148q0 -23 -8.5 -33t-32.5 -10h-624q-43 0 -43 43zM410 616h284q0 175 -141 175q-70 0 -104 -44t-39 -131z" />
<glyph unicode="&#x114;" horiz-adv-x="1142" d="M139 43v1272q0 47 45 47h813q20 0 31.5 -12.5t11.5 -32.5v-187q0 -43 -45 -43h-530v-247h463q22 0 34.5 -11.5t12.5 -31.5v-187q0 -43 -47 -43h-463v-295h541q21 0 33 -12t12 -33v-186q0 -41 -45 -41h-822q-45 0 -45 43zM165.5 1699.5q2.5 15.5 18.5 26.5l74 60 q17 12 29.5 11.5t18.5 -6t24 -24.5q58 -69 114.5 -100t130.5 -31q72 0 129.5 28.5t114.5 102.5q19 25 34 28.5t40 -11.5l72 -43q18 -12 21 -27.5t-2 -29.5t-19 -37q-62 -114 -161 -171t-224 -57q-126 0 -233.5 54t-162.5 165q-21 46 -18.5 61.5z" />
<glyph unicode="&#x115;" horiz-adv-x="1091" d="M86 498q0 50 3 92.5t14.5 99t30.5 101.5t54.5 91t83.5 77.5t120 51t161 19.5q113 0 198 -28.5t134.5 -72.5t80 -108t41 -124.5t11.5 -133.5q0 -67 -25 -99t-88 -32h-499q6 -112 58 -151t163 -39q73 0 241 20q41 5 52 -1.5t18 -43.5l16 -96q7 -39 -1.5 -56.5t-51.5 -35.5 q-59 -21 -155.5 -34t-174.5 -13q-120 0 -208.5 28.5t-140.5 74.5t-83.5 115.5t-42 139t-10.5 158.5zM140.5 1389.5q0.5 4.5 1.5 11t5.5 12t10.5 10.5l73 60q18 12 31 11.5t19 -6t24 -24.5q67 -81 121 -114t127 -33q68 0 122.5 32.5t119.5 114.5q19 24 32.5 27.5t38.5 -10.5 l74 -45q17 -11 20 -27.5t-1.5 -28t-18.5 -39.5q-63 -121 -163 -185t-224 -64q-123 0 -233 63.5t-162 179.5q-1 3 -6 14t-6 14.5t-3.5 12.5t-2 13.5zM410 616h284q0 175 -141 175q-70 0 -104 -44t-39 -131z" />
<glyph unicode="&#x116;" horiz-adv-x="1142" d="M139 43v1272q0 47 45 47h813q20 0 31.5 -12.5t11.5 -32.5v-187q0 -43 -45 -43h-530v-247h463q22 0 34.5 -11.5t12.5 -31.5v-187q0 -43 -47 -43h-463v-295h541q21 0 33 -12t12 -33v-186q0 -41 -45 -41h-822q-45 0 -45 43zM449 1589q0 152 161 152q93 0 127.5 -39 t34.5 -113q0 -68 -34.5 -109.5t-127.5 -41.5q-50 0 -84 13t-50 36.5t-21.5 47t-5.5 54.5z" />
<glyph unicode="&#x117;" horiz-adv-x="1091" d="M86 498q0 50 3 92.5t14.5 99t30.5 101.5t54.5 91t83.5 77.5t120 51t161 19.5q113 0 198 -28.5t134.5 -72.5t80 -108t41 -124.5t11.5 -133.5q0 -67 -25 -99t-88 -32h-499q6 -112 58 -151t163 -39q73 0 241 20q41 5 52 -1.5t18 -43.5l16 -96q7 -39 -1.5 -56.5t-51.5 -35.5 q-59 -21 -155.5 -34t-174.5 -13q-120 0 -208.5 28.5t-140.5 74.5t-83.5 115.5t-42 139t-10.5 158.5zM410 616h284q0 175 -141 175q-70 0 -104 -44t-39 -131zM410 1282q0 152 161 152q93 0 127.5 -39t34.5 -113q0 -68 -34.5 -110t-127.5 -42q-50 0 -84 13t-50 36.5 t-21.5 47.5t-5.5 55z" />
<glyph unicode="&#x118;" horiz-adv-x="1142" d="M139 43v1272q0 47 45 47h813q20 0 31.5 -12.5t11.5 -32.5v-187q0 -43 -45 -43h-530v-247h463q22 0 34.5 -11.5t12.5 -31.5v-187q0 -43 -47 -43h-463v-295h541q21 0 33 -12t12 -33v-186q0 -41 -45 -41h-35q-51 -85 -51 -164q0 -72 88 -72q42 0 112 17q30 7 37 -14 q9 -26 25 -78q11 -31 -23 -45q-84 -43 -211 -43q-111 0 -170 58.5t-59 154.5q0 97 67 186h-602q-45 0 -45 43z" />
<glyph unicode="&#x119;" horiz-adv-x="1091" d="M86 498q0 50 3 92.5t14.5 99t30.5 101.5t54.5 91t83.5 77.5t120 51t161 19.5q113 0 198 -28.5t134.5 -72.5t80 -108t41 -124.5t11.5 -133.5q0 -67 -25 -99t-88 -32h-499q6 -112 58 -151t163 -39q73 0 241 20q41 5 52 -1.5t18 -43.5l16 -96q7 -39 -1.5 -56.5t-51.5 -35.5 q-32 -12 -57 -17q-60 -91 -60 -176q0 -72 88 -72q43 0 113 17q30 7 37 -14q9 -26 25 -78q11 -31 -23 -45q-84 -43 -211 -43q-111 0 -170 58.5t-59 154.5q0 88 55 170q-13 0 -36 -1t-32 -1q-120 0 -208.5 28.5t-140.5 74.5t-83.5 115.5t-42 139t-10.5 158.5zM410 616h284 q0 175 -141 175q-70 0 -104 -44t-39 -131z" />
<glyph unicode="&#x11a;" horiz-adv-x="1142" d="M139 43v1272q0 47 45 47h813q20 0 31.5 -12.5t11.5 -32.5v-187q0 -43 -45 -43h-530v-247h463q22 0 34.5 -11.5t12.5 -31.5v-187q0 -43 -47 -43h-463v-295h541q21 0 33 -12t12 -33v-186q0 -41 -45 -41h-822q-45 0 -45 43zM178 1716.5q1 9.5 17 24.5l65 71q9 11 18 13 t16.5 -1.5t22.5 -13.5l269 -165l274 163q22 15 31.5 16.5t28.5 -12.5l67 -69q15 -16 15.5 -24.5t-15.5 -28.5l-252 -236q-15 -13 -21.5 -17.5t-21.5 -9t-37 -4.5h-131q-22 0 -38 5.5t-23.5 11t-20.5 18.5l-247 228q-18 21 -17 30.5z" />
<glyph unicode="&#x11b;" horiz-adv-x="1091" d="M86 498q0 50 3 92.5t14.5 99t30.5 101.5t54.5 91t83.5 77.5t120 51t161 19.5q113 0 198 -28.5t134.5 -72.5t80 -108t41 -124.5t11.5 -133.5q0 -67 -25 -99t-88 -32h-499q6 -112 58 -151t163 -39q73 0 241 20q41 5 52 -1.5t18 -43.5l16 -96q7 -39 -1.5 -56.5t-51.5 -35.5 q-59 -21 -155.5 -34t-174.5 -13q-120 0 -208.5 28.5t-140.5 74.5t-83.5 115.5t-42 139t-10.5 158.5zM151 1423.5q1 8.5 17 24.5l70 70q11 11 20.5 13t16.5 -2t22 -16l260 -206l268 209q20 14 31 15t29 -13l71 -68q15 -14 16 -25t-14 -30l-251 -279q-16 -19 -30 -25t-50 -6 h-131q-34 0 -48.5 7.5t-33.5 29.5l-248 273q-16 20 -15 28.5zM410 616h284q0 175 -141 175q-70 0 -104 -44t-39 -131z" />
<glyph unicode="&#x11c;" horiz-adv-x="1320" d="M121 676q0 700 592 700q238 0 385 -65q34 -13 48 -32.5t7 -55.5l-27 -121q-6 -30 -18.5 -37t-50.5 -2q-194 24 -307 24q-56 0 -101 -14t-75.5 -41.5t-51.5 -63t-33 -83t-17 -97t-5 -108.5q0 -76 5.5 -133.5t23 -113t46.5 -91t77.5 -57t115.5 -21.5q69 0 150 15v245h-140 q-28 0 -37.5 10.5t-9.5 32.5v172q0 22 9.5 32.5t37.5 10.5h408q21 0 34 -12.5t13 -30.5q0 -337 -2 -581q0 -41 -12 -68t-51 -43q-90 -34 -207 -50.5t-221 -16.5q-100 0 -182.5 19.5t-142.5 53.5t-106 84.5t-75 108.5t-47 130t-25.5 144t-7.5 156zM298 1512q-1 9 15 30 l252 230q1 1 7.5 7t7.5 7t6.5 5.5t7.5 5t7 3.5t9 3.5t9.5 2t12 2t13.5 0.5h131h14.5t13 -1.5t10 -2t9 -3t7 -3t7 -4t6.5 -4.5t7.5 -6t7.5 -6l252 -234q17 -19 16 -28.5t-18 -26.5l-68 -72q-17 -14 -26 -12.5t-31 16.5l-276 178l-267 -180q-22 -16 -31 -17t-28 15l-66 70 q-16 16 -17 25z" />
<glyph unicode="&#x11d;" horiz-adv-x="1130" d="M88 504q0 97 13 173.5t46.5 144.5t87.5 113t139 71t199 26q105 0 215 -15.5t185 -43.5q37 -16 49 -40.5t12 -62.5v-835q0 -63 -3.5 -108t-15 -96.5t-31.5 -86.5t-56 -69.5t-86 -55t-123 -33t-166 -12.5q-202 0 -326 47q-43 17 -54.5 35.5t-6.5 46.5l24 115q6 31 20.5 37 t49.5 -2q144 -21 277 -21q111 0 148.5 35t37.5 119v49q-112 -35 -205 -35q-102 0 -178 25t-124 67.5t-77 108t-40 138t-11 165.5zM194.5 1177q-0.5 10 16.5 29l248 273q14 16 21 21.5t22 10.5t39 5h131q36 0 50 -6t30 -25l249 -281q17 -19 16.5 -29t-16.5 -24l-71 -68 q-20 -14 -30 -13t-30 15l-270 209l-258 -207q-16 -12 -23 -15.5t-16 -1.5t-20 13l-72 70q-16 14 -16.5 24zM410 522q0 -147 36 -200.5t123 -53.5q59 0 154 23v457q-71 12 -135 12q-42 0 -70 -8t-55 -31.5t-40 -73t-13 -125.5z" />
<glyph unicode="&#x11e;" horiz-adv-x="1320" d="M121 676q0 700 592 700q238 0 385 -65q34 -13 48 -32.5t7 -55.5l-27 -121q-6 -30 -18.5 -37t-50.5 -2q-194 24 -307 24q-56 0 -101 -14t-75.5 -41.5t-51.5 -63t-33 -83t-17 -97t-5 -108.5q0 -76 5.5 -133.5t23 -113t46.5 -91t77.5 -57t115.5 -21.5q69 0 150 15v245h-140 q-28 0 -37.5 10.5t-9.5 32.5v172q0 22 9.5 32.5t37.5 10.5h408q21 0 34 -12.5t13 -30.5q0 -337 -2 -581q0 -41 -12 -68t-51 -43q-90 -34 -207 -50.5t-221 -16.5q-100 0 -182.5 19.5t-142.5 53.5t-106 84.5t-75 108.5t-47 130t-25.5 144t-7.5 156zM291 1699q3 16 18 27l74 60 q17 12 29.5 11.5t18.5 -6t24 -24.5q58 -69 114.5 -100t130.5 -31q72 0 129.5 28.5t114.5 102.5q19 25 34 28.5t40 -11.5l72 -43q18 -12 21 -27.5t-2 -29.5t-19 -37q-62 -114 -161 -171t-224 -57q-126 0 -233.5 54t-162.5 165q-21 46 -18 61z" />
<glyph unicode="&#x11f;" horiz-adv-x="1130" d="M88 504q0 97 13 173.5t46.5 144.5t87.5 113t139 71t199 26q105 0 215 -15.5t185 -43.5q37 -16 49 -40.5t12 -62.5v-835q0 -63 -3.5 -108t-15 -96.5t-31.5 -86.5t-56 -69.5t-86 -55t-123 -33t-166 -12.5q-202 0 -326 47q-43 17 -54.5 35.5t-6.5 46.5l24 115q6 31 20.5 37 t49.5 -2q144 -21 277 -21q111 0 148.5 35t37.5 119v49q-112 -35 -205 -35q-102 0 -178 25t-124 67.5t-77 108t-40 138t-11 165.5zM164.5 1389.5q0.5 4.5 1.5 11t5.5 12t10.5 10.5l74 60q18 12 31 11.5t19 -6t24 -24.5q67 -81 121 -114t127 -33q68 0 122 32.5t119 114.5 q19 24 33 27.5t39 -10.5l74 -45q17 -11 20 -27.5t-1.5 -28t-18.5 -39.5q-63 -121 -163 -185t-224 -64q-123 0 -233.5 63.5t-162.5 179.5q-1 3 -6 14t-6 14.5t-3.5 12.5t-2 13.5zM410 522q0 -147 36 -200.5t123 -53.5q59 0 154 23v457q-71 12 -135 12q-42 0 -70 -8t-55 -31.5 t-40 -73t-13 -125.5z" />
<glyph unicode="&#x120;" horiz-adv-x="1320" d="M121 676q0 700 592 700q238 0 385 -65q34 -13 48 -32.5t7 -55.5l-27 -121q-6 -30 -18.5 -37t-50.5 -2q-194 24 -307 24q-56 0 -101 -14t-75.5 -41.5t-51.5 -63t-33 -83t-17 -97t-5 -108.5q0 -76 5.5 -133.5t23 -113t46.5 -91t77.5 -57t115.5 -21.5q69 0 150 15v245h-140 q-28 0 -37.5 10.5t-9.5 32.5v172q0 22 9.5 32.5t37.5 10.5h408q21 0 34 -12.5t13 -30.5q0 -337 -2 -581q0 -41 -12 -68t-51 -43q-90 -34 -207 -50.5t-221 -16.5q-100 0 -182.5 19.5t-142.5 53.5t-106 84.5t-75 108.5t-47 130t-25.5 144t-7.5 156zM569 1589q0 152 162 152 q93 0 127.5 -39t34.5 -113q0 -68 -34.5 -109.5t-127.5 -41.5q-50 0 -84 13t-50 36.5t-22 47t-6 54.5z" />
<glyph unicode="&#x121;" horiz-adv-x="1130" d="M88 504q0 97 13 173.5t46.5 144.5t87.5 113t139 71t199 26q105 0 215 -15.5t185 -43.5q37 -16 49 -40.5t12 -62.5v-835q0 -63 -3.5 -108t-15 -96.5t-31.5 -86.5t-56 -69.5t-86 -55t-123 -33t-166 -12.5q-202 0 -326 47q-43 17 -54.5 35.5t-6.5 46.5l24 115q6 31 20.5 37 t49.5 -2q144 -21 277 -21q111 0 148.5 35t37.5 119v49q-112 -35 -205 -35q-102 0 -178 25t-124 67.5t-77 108t-40 138t-11 165.5zM410 522q0 -147 36 -200.5t123 -53.5q59 0 154 23v457q-71 12 -135 12q-42 0 -70 -8t-55 -31.5t-40 -73t-13 -125.5zM442 1282q0 152 162 152 q93 0 127.5 -39t34.5 -113q0 -68 -34.5 -110t-127.5 -42q-50 0 -84 13t-50 36.5t-22 47.5t-6 55z" />
<glyph unicode="&#x122;" horiz-adv-x="1320" d="M121 676q0 700 592 700q238 0 385 -65q34 -13 48 -32.5t7 -55.5l-27 -121q-6 -30 -18.5 -37t-50.5 -2q-194 24 -307 24q-56 0 -101 -14t-75.5 -41.5t-51.5 -63t-33 -83t-17 -97t-5 -108.5q0 -76 5.5 -133.5t23 -113t46.5 -91t77.5 -57t115.5 -21.5q69 0 150 15v245h-140 q-28 0 -37.5 10.5t-9.5 32.5v172q0 22 9.5 32.5t37.5 10.5h408q21 0 34 -12.5t13 -30.5q0 -337 -2 -581q0 -41 -12 -68t-51 -43q-90 -34 -207 -50.5t-221 -16.5q-100 0 -182.5 19.5t-142.5 53.5t-106 84.5t-75 108.5t-47 130t-25.5 144t-7.5 156zM544.5 -241 q-0.5 18 33.5 48l133 99q20 16 37 16.5t29 -7t32 -26.5q40 -37 62 -91.5t22 -104.5q0 -124 -55 -219t-144 -148q-46 -24 -76 10l-53 56q-21 24 -20 35t28 41q54 54 54 131q0 47 -54 112q-28 30 -28.5 48z" />
<glyph unicode="&#x123;" horiz-adv-x="1130" d="M88 504q0 97 13 173.5t46.5 144.5t87.5 113t139 71t199 26q105 0 215 -15.5t185 -43.5q37 -16 49 -40.5t12 -62.5v-835q0 -63 -3.5 -108t-15 -96.5t-31.5 -86.5t-56 -69.5t-86 -55t-123 -33t-166 -12.5q-202 0 -326 47q-43 17 -54.5 35.5t-6.5 46.5l24 115q6 31 20.5 37 t49.5 -2q144 -21 277 -21q111 0 148.5 35t37.5 119v49q-112 -35 -205 -35q-102 0 -178 25t-124 67.5t-77 108t-40 138t-11 165.5zM410 522q0 -147 36 -200.5t123 -53.5q59 0 154 23v457q-71 12 -135 12q-42 0 -70 -8t-55 -31.5t-40 -73t-13 -125.5zM449 1339 q0 126 56.5 223.5t143.5 147.5q49 24 78 -10l51 -53q23 -23 23 -33q0 -12 -31 -43q-55 -55 -55 -131q0 -59 51 -117q3 -3 8.5 -9t7.5 -8.5t6 -7t5.5 -7.5t2.5 -7t1 -8q0 -23 -35 -45l-133 -101q-18 -16 -35 -16.5t-30 7.5t-32 26q-39 37 -61 90t-22 102z" />
<glyph unicode="&#x124;" horiz-adv-x="1325" d="M137 45v1270q0 47 45 47h238q43 0 43 -47v-471h399v471q0 47 45 47h238q43 0 43 -47v-1270q0 -45 -43 -45h-238q-45 0 -45 45v524h-399v-524q0 -45 -43 -45h-238q-45 0 -45 45zM251 1512q-1 9 15 30l252 230q1 1 7.5 7t7.5 7t6.5 5.5t7.5 5t7 3.5t9 3.5t9.5 2t12 2 t13.5 0.5h131h14.5t13 -1.5t10 -2t9 -3t7 -3t7 -4t6.5 -4.5t7.5 -6t7.5 -6l252 -234q17 -19 16 -28.5t-18 -26.5l-68 -72q-17 -14 -26 -12.5t-31 16.5l-277 178l-266 -180q-22 -16 -31 -17t-28 15l-66 70q-16 16 -17 25z" />
<glyph unicode="&#x125;" horiz-adv-x="1142" d="M-144 1538.5q-1 9.5 15 30.5l252 229q2 2 8.5 8t8.5 7.5t7.5 6t8 5.5t8.5 4t11 3.5t12.5 1.5t15.5 1h131q9 0 16.5 -0.5t13 -1t11.5 -3t9 -3.5t8.5 -4.5t7 -5t8 -6.5t8.5 -7l252 -233q17 -19 16 -28.5t-18 -26.5l-68 -72q-17 -14 -26 -12.5t-31 16.5l-277 178l-266 -180 q-22 -16 -31 -17t-28 15l-66 69q-16 16 -17 25.5zM98 45v1356q0 45 43 45h228q43 0 43 -45v-463q164 92 305 92q64 0 115 -13t85 -33.5t58.5 -53t38 -64.5t21.5 -76.5t10 -80t2 -82.5v-582q0 -45 -43 -45h-226q-45 0 -45 45q0 44 1 275.5t1 275.5q0 82 -30 118t-95 36 q-59 0 -200 -60v-645q0 -45 -43 -45h-226q-43 0 -43 45z" />
<glyph unicode="&#x126;" horiz-adv-x="1325" d="M31 1042v97q0 43 43 43h63v133q0 47 45 47h238q43 0 43 -47v-133h399v133q0 47 45 47h238q43 0 43 -47v-133h67q25 0 33 -10t8 -33v-97q0 -23 -8 -33t-33 -10h-67v-954q0 -45 -43 -45h-238q-45 0 -45 45v524h-399v-524q0 -45 -43 -45h-238q-45 0 -45 45v954h-63 q-43 0 -43 43zM463 844h399v155h-399v-155z" />
<glyph unicode="&#x127;" horiz-adv-x="1153" d="M-10 1114v103q0 23 6 28.5t27 5.5h83v150q0 45 44 45h225q45 0 45 -45v-150h358q22 0 28.5 -6.5t6.5 -27.5v-103q0 -20 -6 -27.5t-27 -7.5h-360v-209q69 39 150.5 66t154.5 27q64 0 114.5 -13t84.5 -33.5t59 -53t38.5 -65t21.5 -76.5t10 -80t2 -83v-516q0 -43 -45 -43 h-224q-45 0 -45 43v487q0 152 -123 152q-67 0 -200 -59v-580q0 -43 -43 -43h-225q-44 0 -44 43v1036h-83q-20 0 -26.5 6.5t-6.5 28.5z" />
<glyph unicode="&#x128;" horiz-adv-x="622" d="M-117 1556q47 120 117 176t147 56q50 0 114.5 -25t123 -50t92.5 -25q69 0 115 77q9 16 21.5 17.5t33.5 -8.5l76 -41q17 -7 20.5 -17.5t-2.5 -29.5q-51 -123 -115.5 -173.5t-146.5 -50.5q-47 0 -167 49.5t-162 49.5q-69 0 -121 -76q-12 -16 -19 -18.5t-33 8.5l-77 34 q-29 15 -17 47zM147 45v1270q0 47 43 47h240q43 0 43 -47v-1270q0 -45 -43 -45h-240q-43 0 -43 45z" />
<glyph unicode="&#x129;" horiz-adv-x="845" d="M-6 1178q-7 12 0 30q47 120 117 176t147 56q50 0 114.5 -25t123 -50.5t92.5 -25.5q67 0 114 78q8 16 21.5 17t34.5 -9l76 -41q17 -7 20.5 -17.5t-2.5 -29.5q-51 -122 -115.5 -172.5t-146.5 -50.5q-47 0 -167.5 49t-162.5 49q-70 0 -121 -75q-12 -17 -18.5 -19t-32.5 8 l-78 35q-9 5 -16 17zM264 45v922q0 23 10 34t35 11h223q43 0 43 -45v-922q0 -45 -43 -45h-223q-45 0 -45 45z" />
<glyph unicode="&#x12a;" horiz-adv-x="686" d="M-10 1495v143q0 23 10 33t33 10h622q24 0 32.5 -9t8.5 -32v-145q0 -24 -8.5 -33.5t-32.5 -9.5h-622q-43 0 -43 43zM182 45v1270q0 47 43 47h240q43 0 43 -47v-1270q0 -45 -43 -45h-240q-43 0 -43 45z" />
<glyph unicode="&#x12b;" horiz-adv-x="688" d="M-10 1198v145q0 43 43 43h624q24 0 32.5 -9.5t8.5 -30.5v-148q0 -23 -8.5 -33t-32.5 -10h-624q-43 0 -43 43zM182 45v922q0 23 10 34t35 11h224q43 0 43 -45v-922q0 -45 -43 -45h-224q-45 0 -45 45z" />
<glyph unicode="&#x12c;" horiz-adv-x="784" d="M-18.5 1699.5q2.5 15.5 18.5 26.5l74 60q13 9 21 12.5t18.5 -3t13 -9t18.5 -19.5q58 -69 115 -100t131 -31q72 0 129.5 28.5t114.5 102.5q19 25 34 28.5t40 -11.5l71 -43q18 -12 21 -27.5t-2 -29.5t-19 -37q-62 -114 -161 -171t-224 -57q-126 0 -233 54t-162 165 q-21 46 -18.5 61.5zM225 45v1270q0 47 43 47h240q43 0 43 -47v-1270q0 -45 -43 -45h-240q-43 0 -43 45z" />
<glyph unicode="&#x12d;" horiz-adv-x="782" d="M-19.5 1402.5q0.5 4.5 1.5 11t5.5 12t10.5 10.5l74 59q11 7 20 9.5t13.5 4t13.5 -6t11 -9.5t15 -16q67 -81 121 -114.5t127 -33.5q68 0 122.5 33t119.5 115q19 24 33 27.5t39 -11.5l73 -45q13 -8 18.5 -17.5t2 -24t-6.5 -22.5t-14 -30q-63 -121 -163 -185.5t-224 -64.5 q-122 0 -232.5 64t-162.5 180q-1 3 -6 14t-6 14.5t-3.5 12.5t-2 13.5zM225 45v922q0 23 10 34t35 11h224q43 0 43 -45v-922q0 -45 -43 -45h-224q-45 0 -45 45z" />
<glyph unicode="&#x12e;" horiz-adv-x="622" d="M127 -186q0 95 68 186h-5q-43 0 -43 45v1270q0 47 43 47h240q43 0 43 -47v-1270q0 -45 -43 -45h-51q-51 -85 -51 -164q0 -72 88 -72q42 0 112 17q30 7 37 -14q9 -26 25 -78q11 -31 -23 -45q-84 -43 -211 -43q-111 0 -170 58.5t-59 154.5z" />
<glyph unicode="&#x12f;" horiz-adv-x="567" d="M102 -186q0 95 68 186q-45 0 -45 45v922q0 23 10 34t35 11h225q41 0 41 -45v-922q0 -45 -41 -45h-41q-51 -85 -51 -164q0 -72 88 -72q43 0 113 17q30 7 37 -14q4 -12 24 -78q11 -32 -22 -45q-84 -43 -211 -43q-111 0 -170.5 58.5t-59.5 154.5zM121 1278q0 71 36.5 111.5 t127.5 40.5q93 0 127 -39t34 -113q0 -70 -34 -112t-127 -42q-51 0 -85.5 13t-50.5 37t-22 48t-6 56z" />
<glyph unicode="&#x130;" horiz-adv-x="622" d="M147 45v1270q0 47 43 47h240q43 0 43 -47v-1270q0 -45 -43 -45h-240q-43 0 -43 45zM154 1630q0 152 161 152q93 0 127.5 -39t34.5 -113q0 -68 -34.5 -109.5t-127.5 -41.5q-50 0 -84 13t-50 36.5t-21.5 47t-5.5 54.5z" />
<glyph unicode="&#x131;" horiz-adv-x="548" d="M119 45v922q0 23 10 34t35 11h223q43 0 43 -45v-922q0 -45 -43 -45h-223q-45 0 -45 45z" />
<glyph unicode="&#x132;" horiz-adv-x="1511" d="M147 45v1270q0 47 43 47h240q43 0 43 -47v-1270q0 -45 -43 -45h-240q-43 0 -43 45zM559 113l31 133q9 30 18 36t37 1q131 -15 203 -15q105 0 141.5 39.5t36.5 118.5v889q0 47 45 47h236q45 0 45 -47q0 -711 -2 -953q0 -184 -110.5 -282t-336.5 -98q-158 0 -274 41 q-53 19 -66 35.5t-4 54.5z" />
<glyph unicode="&#x133;" horiz-adv-x="1073" d="M121 1278q0 71 36.5 111.5t127.5 40.5q93 0 127 -39t34 -113q0 -70 -34 -112t-127 -42q-51 0 -85.5 13t-50.5 37t-22 48t-6 56zM125 45v922q0 23 10 34t35 11h225q41 0 41 -45v-922q0 -45 -41 -45h-225q-45 0 -45 45zM336 -229q-3 30 3 37.5t36 13.5q46 10 67.5 15 t53.5 14t45.5 16t33 19t26.5 24.5t15 30.5t10.5 40.5t2.5 51.5v934q0 45 47 45h223q43 0 43 -45v-928q0 -136 -35 -230.5t-106 -148.5t-168 -76.5t-230 -17.5q-19 0 -35.5 10t-17.5 35zM625 1278q0 71 35.5 111.5t125.5 40.5q94 0 129 -39t35 -113q0 -69 -35 -111.5 t-129 -42.5q-50 0 -84 13t-50 37t-21.5 48t-5.5 56z" />
<glyph unicode="&#x134;" horiz-adv-x="1038" d="M16 115l31 133q9 30 18 36t37 1q131 -15 203 -15q105 0 141.5 39.5t36.5 118.5v889q0 47 45 47h236q45 0 45 -47q0 -710 -2 -952q0 -184 -110.5 -282.5t-336.5 -98.5q-158 0 -274 41q-53 19 -66 35.5t-4 54.5zM231 1516q-1 9 15 30l252 230q1 1 7.5 7t7.5 7t6.5 5.5 t7.5 5t7 3.5t9 3.5t9.5 2t12 2t13.5 0.5h131h14.5t13 -1.5t10 -2t9 -3t7 -3t7 -4t6.5 -4.5t7.5 -6t7.5 -6l251 -234q17 -19 16 -28.5t-18 -26.5l-67 -72q-17 -14 -26.5 -12.5t-31.5 16.5l-276 179l-266 -181q-22 -16 -31.5 -17t-28.5 15l-65 70q-16 16 -17 25z" />
<glyph unicode="&#x135;" horiz-adv-x="825" d="M-18 -229q-3 25 4.5 35t33.5 16q57 11 87.5 18.5t64.5 19.5t49 24.5t29.5 33.5t19 48.5t4.5 66.5v934q0 45 48 45h223q43 0 43 -45v-928q0 -136 -35 -230.5t-106 -148.5t-168 -76.5t-230 -17.5q-19 0 -35.5 10t-17.5 35zM22.5 1198q-0.5 10 16.5 29l248 272 q14 16 21 21.5t22 10.5t39 5h131q36 0 50 -6t30 -25l249 -280q17 -19 16.5 -29.5t-16.5 -24.5l-71 -67q-20 -14 -30 -13t-30 15l-270 209l-258 -207q-16 -12 -23 -15.5t-16 -1.5t-20 13l-72 70q-16 14 -16.5 24z" />
<glyph unicode="&#x136;" horiz-adv-x="1267" d="M125 45v1270q0 47 45 47h238q43 0 43 -47v-484h4l147 193l240 297q35 41 92 41h264q32 0 39 -17t-12 -40l-441 -531l457 -713q18 -32 9.5 -46.5t-33.5 -14.5h-271q-34 0 -53.5 13t-36.5 40l-285 465l-120 -149v-324q0 -45 -43 -45h-238q-45 0 -45 45zM437 -532.5 q1 10.5 28 40.5q53 53 53 132q0 48 -53 112q-19 20 -25.5 33.5t0 29t29.5 33.5l133 99q20 16 37 16.5t29 -7t32 -26.5q40 -37 62 -91.5t22 -104.5q0 -125 -55 -219.5t-143 -147.5q-46 -24 -76 10l-53 56q-21 24 -20 34.5z" />
<glyph unicode="&#x137;" horiz-adv-x="1085" d="M100 45v1356q0 47 45 47h224q43 0 43 -47v-719l6 -2l129 147l123 140q21 25 40 35t56 10h233q36 0 42 -16.5t-17 -39.5l-313 -338l358 -561q15 -25 5.5 -41t-38.5 -16h-225q-42 0 -63 12t-35 37l-207 344l-94 -102v-246q0 -45 -43 -45h-224q-45 0 -45 45zM355 -573 q1 11 28 41q53 53 53 131q0 48 -53 112q-19 20 -25.5 33.5t0 29t29.5 33.5l133 99q20 16 37 16.5t29 -7t32 -26.5q40 -37 62 -91.5t22 -104.5q0 -125 -55 -219.5t-143 -147.5q-46 -24 -76 10l-53 56q-21 24 -20 35z" />
<glyph unicode="&#x138;" horiz-adv-x="1085" d="M100 45v918q0 47 45 47h224q43 0 43 -47v-281l6 -2l129 147l123 140q21 25 40 35t56 10h233q36 0 42 -16.5t-17 -39.5l-313 -338l358 -561q15 -25 5.5 -41t-38.5 -16h-225q-42 0 -63 12t-35 37l-207 344l-94 -102v-246q0 -45 -43 -45h-224q-45 0 -45 45z" />
<glyph unicode="&#x139;" horiz-adv-x="1075" d="M139 43v1272q0 47 45 47h236q45 0 45 -47v-1043h551q37 0 37 -34v-197q0 -41 -45 -41h-824q-45 0 -45 43zM172 1544q-19 31 12 49l334 219q23 12 37.5 7.5t22.5 -19.5l94 -151q12 -19 6.5 -35t-25.5 -25l-360 -157q-14 -8 -28 -7t-25 17z" />
<glyph unicode="&#x13a;" horiz-adv-x="614" d="M123 252v1149q0 45 45 45h223q43 0 43 -45v-1088q0 -40 19 -51.5t69 -13.5q31 -1 37.5 -6t9.5 -27l11 -154q1 -17 -6 -26.5t-27 -18.5q-55 -26 -164 -26q-134 0 -197 62t-63 200zM172 1622q-19 31 12 49l334 219q23 12 37.5 7.5t22.5 -19.5l94 -152q25 -39 -19 -59 l-360 -158q-35 -14 -53 11z" />
<glyph unicode="&#x13b;" horiz-adv-x="1075" d="M139 43v1272q0 47 45 47h236q45 0 45 -47v-1043h551q37 0 37 -34v-197q0 -41 -45 -41h-824q-45 0 -45 43zM396 -573q1 11 28 41q53 53 53 131q0 48 -53 112q-19 20 -25.5 33.5t0 29t29.5 33.5l133 99q20 16 37 16.5t29 -7t32 -26.5q40 -37 62 -91.5t22 -104.5 q0 -125 -55 -219.5t-143 -147.5q-46 -24 -76 10l-53 56q-21 24 -20 35z" />
<glyph unicode="&#x13c;" horiz-adv-x="614" d="M123 252v1149q0 45 45 45h223q43 0 43 -45v-1088q0 -40 19 -51.5t69 -13.5q31 -1 37.5 -6t9.5 -27l11 -154q1 -17 -6 -26.5t-27 -18.5q-55 -26 -164 -26q-134 0 -197 62t-63 200zM132 -573q1 11 28 41q53 53 53 131q0 48 -53 112q-19 20 -25.5 33.5t0 29t29.5 33.5 l133 99q20 16 37 16.5t29 -7t32 -26.5q40 -37 62 -91.5t22 -104.5q0 -125 -55 -219.5t-143 -147.5q-46 -24 -76 10l-53 56q-21 24 -20 35z" />
<glyph unicode="&#x13d;" horiz-adv-x="1075" d="M139 43v1272q0 47 45 47h236q45 0 45 -47v-1043h551q37 0 37 -34v-197q0 -41 -45 -41h-824q-45 0 -45 43zM644 887q1 11 28 41q53 53 53 131q0 48 -53 112q-19 20 -25.5 34t0 29.5t29.5 33.5l133 98q20 16 37 17t29.5 -7t31.5 -26q39 -37 61.5 -92t22.5 -105 q0 -125 -55 -219.5t-143 -147.5q-46 -24 -76 11l-53 55q-21 24 -20 35z" />
<glyph unicode="&#x13e;" horiz-adv-x="851" d="M123 252v1149q0 45 45 45h223q43 0 43 -45v-1088q0 -40 19 -51.5t69 -13.5q31 -1 37.5 -6t9.5 -27l11 -154q1 -17 -6 -26.5t-27 -18.5q-55 -26 -164 -26q-134 0 -197 62t-63 200zM531 987q1 11 28 41q53 53 53 131q0 49 -53 113q-19 20 -25.5 33.5t0 29t29.5 33.5l133 98 q20 16 37.5 17t30 -7t31.5 -26q39 -37 61.5 -92t22.5 -105q0 -124 -55 -218.5t-144 -147.5q-46 -24 -76 10l-53 55q-21 24 -20 35z" />
<glyph unicode="&#x13f;" horiz-adv-x="1075" d="M139 43v1272q0 47 45 47h236q45 0 45 -47v-1043h551q37 0 37 -34v-197q0 -41 -45 -41h-824q-45 0 -45 43zM643 745q0 152 162 152q93 0 127.5 -39t34.5 -113q0 -68 -34.5 -109.5t-127.5 -41.5q-50 0 -84 13t-50 36.5t-22 47t-6 54.5z" />
<glyph unicode="&#x140;" horiz-adv-x="819" d="M123 252v1149q0 45 45 45h223q43 0 43 -45v-1088q0 -40 19 -51.5t69 -13.5q31 -1 37.5 -6t9.5 -27l11 -154q1 -17 -6 -26.5t-27 -18.5q-55 -26 -164 -26q-134 0 -197 62t-63 200zM518 795q0 151 162 151q93 0 127.5 -38.5t34.5 -112.5q0 -68 -34.5 -110t-127.5 -42 q-50 0 -84 13t-50 36.5t-22 47.5t-6 55z" />
<glyph unicode="&#x141;" horiz-adv-x="1120" d="M-2 487q-20 39 16 58l154 88v682q0 47 45 47h236q45 0 45 -47v-494l165 97q22 11 33.5 7t22.5 -24l55 -92q12 -20 9 -33t-25 -24l-260 -152v-328h550q37 0 37 -34v-197q0 -41 -45 -41h-823q-45 0 -45 43v369l-57 -33q-38 -21 -58 14z" />
<glyph unicode="&#x142;" horiz-adv-x="688" d="M-2 551q-20 38 16 57l152 86v707q0 45 45 45h223q43 0 43 -45v-527l101 58q22 12 34 8.5t21 -22.5l55 -95q12 -20 10 -33t-24 -24l-197 -113v-340q0 -40 19 -51.5t69 -13.5q31 -1 37.5 -6t9.5 -27l11 -154q1 -17 -6 -26.5t-27 -18.5q-55 -26 -164 -26q-134 0 -197 62 t-63 200v221l-55 -31q-38 -21 -58 15z" />
<glyph unicode="&#x143;" horiz-adv-x="1372" d="M135 43v1272q0 45 45 45h168q29 0 48.5 -9t27 -18.5t22.5 -32.5q126 -188 463 -708q1 0 3 1t3 1v719q0 47 46 47h227q43 0 43 -47v-1270q0 -43 -43 -43h-168q-34 0 -53 11t-35 36q-233 349 -311 465l-162 250h-6v-719q0 -43 -43 -43h-228q-47 0 -47 43zM526 1544 q-19 30 13 49l333 219q23 12 37.5 7.5t22.5 -19.5l94 -151q26 -40 -18 -60l-361 -157q-14 -8 -28 -7t-25 17z" />
<glyph unicode="&#x144;" horiz-adv-x="1142" d="M96 43v922q0 45 45 45h224q43 0 43 -45v-50q1 0 3 -1t3 -1q67 51 157 83t164 32q61 0 109 -13t80 -33t55 -53t35.5 -65t19.5 -77t8.5 -79.5t1.5 -82.5v-582q0 -43 -43 -43h-225q-45 0 -45 43q0 90 1 269t1 268q0 84 -29.5 120.5t-95.5 36.5q-30 0 -66 -10.5t-79.5 -27.5 t-54.5 -21v-635q0 -43 -43 -43h-224q-25 0 -35 10.5t-10 32.5zM397 1210l191 353q21 38 57 18l156 -88q42 -22 10 -61l-242 -310q-21 -32 -51 -18l-106 57q-31 17 -15 49z" />
<glyph unicode="&#x145;" horiz-adv-x="1372" d="M135 43v1272q0 45 45 45h168q29 0 48.5 -9t27 -18.5t22.5 -32.5q126 -188 463 -708q1 0 3 1t3 1v719q0 47 46 47h227q43 0 43 -47v-1270q0 -43 -43 -43h-168q-34 0 -53 11t-35 36q-233 349 -311 465l-162 250h-6v-719q0 -43 -43 -43h-228q-47 0 -47 43zM496 -532.5 q1 10.5 28 40.5q54 54 54 132q0 47 -54 112q-19 20 -25.5 33.5t0 29t29.5 33.5l134 99q20 16 37 16.5t29 -7t32 -26.5q40 -37 62 -91.5t22 -104.5q0 -124 -55 -219t-144 -148q-46 -24 -76 10l-53 56q-21 24 -20 34.5z" />
<glyph unicode="&#x146;" horiz-adv-x="1142" d="M96 43v922q0 45 45 45h224q43 0 43 -45v-50q1 0 3 -1t3 -1q67 51 157 83t164 32q61 0 109 -13t80 -33t55 -53t35.5 -65t19.5 -77t8.5 -79.5t1.5 -82.5v-582q0 -43 -43 -43h-225q-45 0 -45 43q0 90 1 269t1 268q0 84 -29.5 120.5t-95.5 36.5q-30 0 -66 -10.5t-79.5 -27.5 t-54.5 -21v-635q0 -43 -43 -43h-224q-25 0 -35 10.5t-10 32.5zM367 -573q1 11 28 41q54 54 54 131q0 47 -54 112q-19 20 -25.5 33.5t0 29t29.5 33.5l133 99q20 16 37.5 16.5t29.5 -7.5t32 -26q40 -37 62 -91.5t22 -104.5q0 -124 -55 -219t-144 -148q-46 -24 -76 10l-53 56 q-21 24 -20 35z" />
<glyph unicode="&#x147;" horiz-adv-x="1372" d="M135 43v1272q0 45 45 45h168q29 0 48.5 -9t27 -18.5t22.5 -32.5q126 -188 463 -708q1 0 3 1t3 1v719q0 47 46 47h227q43 0 43 -47v-1270q0 -43 -43 -43h-168q-34 0 -53 11t-35 36q-233 349 -311 465l-162 250h-6v-719q0 -43 -43 -43h-228q-47 0 -47 43zM276 1716.5 q1 9.5 17 24.5l65 71q9 11 18.5 13t17 -1.5t22.5 -13.5l268 -165l274 163q22 15 31.5 16.5t28.5 -12.5l67 -69q15 -16 15.5 -24.5t-15.5 -28.5l-251 -236q-15 -13 -21.5 -17.5t-21.5 -9t-37 -4.5h-131q-22 0 -38 5.5t-23.5 11t-20.5 18.5l-248 228q-18 21 -17 30.5z" />
<glyph unicode="&#x148;" horiz-adv-x="1142" d="M96 43v922q0 45 45 45h224q43 0 43 -45v-50q1 0 3 -1t3 -1q67 51 157 83t164 32q61 0 109 -13t80 -33t55 -53t35.5 -65t19.5 -77t8.5 -79.5t1.5 -82.5v-582q0 -43 -43 -43h-225q-45 0 -45 43q0 90 1 269t1 268q0 84 -29.5 120.5t-95.5 36.5q-30 0 -66 -10.5t-79.5 -27.5 t-54.5 -21v-635q0 -43 -43 -43h-224q-25 0 -35 10.5t-10 32.5zM116 1423.5q1 8.5 17 24.5l70 70q11 11 20.5 13t16.5 -2t22 -16l260 -206l269 209q20 14 30.5 15t28.5 -13l72 -68q15 -14 16 -25t-14 -30l-252 -279q-16 -19 -30 -25t-50 -6h-131q-34 0 -48.5 7.5t-33.5 29.5 l-248 273q-16 20 -15 28.5z" />
<glyph unicode="&#x149;" horiz-adv-x="1386" d="M-8.5 1332q-0.5 18 33.5 48l133 99q20 16 37 16.5t29 -7t32 -26.5q40 -37 62 -91.5t22 -104.5q0 -124 -55 -219t-144 -148q-46 -24 -75 10l-54 56q-21 24 -20 34.5t28 40.5q54 54 54 131q0 48 -54 113q-28 30 -28.5 48zM340 43v922q0 45 45 45h223q43 0 43 -45v-50 q1 0 3 -1t3 -1q67 51 157.5 83t164.5 32q61 0 109 -13t80 -33t55 -53t35.5 -65t19.5 -77t8.5 -79.5t1.5 -82.5v-582q0 -43 -43 -43h-225q-45 0 -45 43q0 90 1 269t1 268q0 84 -29.5 120.5t-95.5 36.5q-30 0 -66 -10.5t-80.5 -28t-54.5 -20.5v-635q0 -43 -43 -43h-223 q-25 0 -35 10.5t-10 32.5z" />
<glyph unicode="&#x14a;" horiz-adv-x="1372" d="M135 43v1272q0 45 45 45h168q10 0 18.5 -0.5t16 -3t12.5 -4t11 -6.5t8.5 -6.5t8.5 -8.5t7.5 -9t8 -11t7.5 -11l248 -374l215 -334q1 0 3 1t3 1v719q0 47 46 47h227q43 0 43 -47v-1391q0 -173 -88.5 -268.5t-276.5 -95.5q-92 0 -143 16q-11 3 -15.5 9.5t-5 10.5t-0.5 17 l19 184q1 15 10.5 20t34.5 5q93 4 122.5 30t29.5 97v121q-23 35 -297 444l-162 250h-6v-719q0 -43 -43 -43h-228q-47 0 -47 43z" />
<glyph unicode="&#x14b;" horiz-adv-x="1140" d="M96 43v922q0 45 45 45h224q43 0 43 -45v-50q1 0 3 -1t3 -1q67 51 157 83t164 32q61 0 109 -13t80 -33t55 -53t35.5 -65t19.5 -77t8.5 -79.5t1.5 -82.5v-703q0 -364 -366 -364q-71 0 -127 12q-2 1 -7.5 2.5t-7.5 2.5l-6 3t-6 4.5t-4 6t-3 9.5t-1 13q2 31 8 92t8 92 q1 15 12 20t36 5q92 4 121.5 29.5t29.5 97.5q0 104 1 315.5t1 317.5q0 79 -29 118t-96 39q-61 0 -200 -59v-635q0 -43 -43 -43h-224q-25 0 -35 10.5t-10 32.5z" />
<glyph unicode="&#x14c;" horiz-adv-x="1411" d="M117 698q0 59 4.5 114.5t20 126t40.5 129.5t70 118t104 100t147.5 66.5t196.5 25.5q107 0 194 -21t147.5 -56.5t106 -88.5t72.5 -110t44 -128t22.5 -135.5t5.5 -140.5q0 -75 -4.5 -137.5t-20 -138.5t-41 -136t-70.5 -119t-106 -98t-151 -63t-201 -24t-199.5 24t-148.5 63 t-104 98.5t-68 118.5t-38.5 136t-18.5 138.5t-4 137.5zM346 1495v143q0 23 10 33t33 10h623q24 0 32.5 -9t8.5 -32v-145q0 -24 -8.5 -33.5t-32.5 -9.5h-623q-43 0 -43 43zM461 676q0 -216 52.5 -315t188.5 -99q141 0 198.5 99t57.5 315q0 226 -56 324t-200 98 q-133 0 -187 -100.5t-54 -321.5z" />
<glyph unicode="&#x14d;" horiz-adv-x="1124" d="M86 520q0 45 3.5 87t16 95t32.5 97t56 88t84 74.5t119 49.5t158 19q88 0 159.5 -16t121.5 -43t87 -67t59 -83t35.5 -96.5t18 -101t4.5 -103.5t-3 -100.5t-14.5 -102.5t-31 -102t-56.5 -89.5t-86.5 -75t-124.5 -48t-169 -18.5q-91 0 -164 18.5t-121.5 48t-83.5 75t-54 89 t-30 102t-13.5 102.5t-2.5 101zM209 1198v145q0 43 43 43h625q24 0 32.5 -9.5t8.5 -30.5v-148q0 -23 -8.5 -33t-32.5 -10h-625q-43 0 -43 43zM401 508q0 -139 32.5 -198.5t121.5 -59.5q98 0 132 59.5t34 198.5t-32.5 197.5t-129.5 58.5q-90 0 -124 -62t-34 -194z" />
<glyph unicode="&#x14e;" horiz-adv-x="1411" d="M117 698q0 59 4.5 114.5t20 126t40.5 129.5t70 118t104 100t147.5 66.5t196.5 25.5q107 0 194 -21t147.5 -56.5t106 -88.5t72.5 -110t44 -128t22.5 -135.5t5.5 -140.5q0 -75 -4.5 -137.5t-20 -138.5t-41 -136t-70.5 -119t-106 -98t-151 -63t-201 -24t-199.5 24t-148.5 63 t-104 98.5t-68 118.5t-38.5 136t-18.5 138.5t-4 137.5zM287 1699q3 16 18 27l74 60q17 12 29.5 11.5t18.5 -6t24 -24.5q58 -69 114.5 -100t130.5 -31q72 0 129.5 28.5t114.5 102.5q19 25 34 28.5t40 -11.5l71 -43q18 -12 21 -27.5t-2 -29.5t-19 -37q-62 -114 -161 -171 t-224 -57q-126 0 -233 54t-162 165q-21 46 -18 61zM461 676q0 -216 52.5 -315t188.5 -99q141 0 198.5 99t57.5 315q0 226 -56 324t-200 98q-133 0 -187 -100.5t-54 -321.5z" />
<glyph unicode="&#x14f;" horiz-adv-x="1124" d="M86 520q0 45 3.5 87t16 95t32.5 97t56 88t84 74.5t119 49.5t158 19q88 0 159.5 -16t121.5 -43t87 -67t59 -83t35.5 -96.5t18 -101t4.5 -103.5t-3 -100.5t-14.5 -102.5t-31 -102t-56.5 -89.5t-86.5 -75t-124.5 -48t-169 -18.5q-91 0 -164 18.5t-121.5 48t-83.5 75t-54 89 t-30 102t-13.5 102.5t-2.5 101zM140.5 1389.5q0.5 4.5 1.5 11t5.5 12t10.5 10.5l73 60q18 12 31 11.5t19 -6t24 -24.5q67 -81 121 -114t127 -33q68 0 122.5 32.5t119.5 114.5q19 24 32.5 27.5t38.5 -10.5l74 -45q17 -11 20 -27.5t-1.5 -28t-18.5 -39.5q-63 -121 -163 -185 t-224 -64q-123 0 -233 63.5t-162 179.5q-1 3 -6 14t-6 14.5t-3.5 12.5t-2 13.5zM401 508q0 -139 32.5 -198.5t121.5 -59.5q98 0 132 59.5t34 198.5t-32.5 197.5t-129.5 58.5q-90 0 -124 -62t-34 -194z" />
<glyph unicode="&#x150;" horiz-adv-x="1411" d="M117 698q0 59 4.5 114.5t20 126t40.5 129.5t70 118t104 100t147.5 66.5t196.5 25.5q107 0 194 -21t147.5 -56.5t106 -88.5t72.5 -110t44 -128t22.5 -135.5t5.5 -140.5q0 -75 -4.5 -137.5t-20 -138.5t-41 -136t-70.5 -119t-106 -98t-151 -63t-201 -24t-199.5 24t-148.5 63 t-104 98.5t-68 118.5t-38.5 136t-18.5 138.5t-4 137.5zM319 1516q-21 25 7 47l311 252q33 25 59 -5l113 -143q29 -37 -14 -59l-344 -193q-34 -19 -54 4zM461 676q0 -216 52.5 -315t188.5 -99q141 0 198.5 99t57.5 315q0 226 -56 324t-200 98q-133 0 -187 -100.5t-54 -321.5z M788 1516q-22 26 7 47l311 252q32 26 59 -5l111 -143q29 -37 -14 -59l-342 -193q-35 -19 -56 4z" />
<glyph unicode="&#x151;" horiz-adv-x="1124" d="M86 520q0 45 3.5 87t16 95t32.5 97t56 88t84 74.5t119 49.5t158 19q88 0 159.5 -16t121.5 -43t87 -67t59 -83t35.5 -96.5t18 -101t4.5 -103.5t-3 -100.5t-14.5 -102.5t-31 -102t-56.5 -89.5t-86.5 -75t-124.5 -48t-169 -18.5q-91 0 -164 18.5t-121.5 48t-83.5 75t-54 89 t-30 102t-13.5 102.5t-2.5 101zM279 1210l188 353q24 39 57 18l158 -88q38 -22 10 -61l-241 -310q-25 -32 -52 -18l-108 57q-30 19 -12 49zM401 508q0 -139 32.5 -198.5t121.5 -59.5q98 0 132 59.5t34 198.5t-32.5 197.5t-129.5 58.5q-90 0 -124 -62t-34 -194zM637 1210 l188 353q21 38 58 18l155 -88q39 -20 13 -61l-242 -310q-25 -32 -51 -18l-109 57q-30 19 -12 49z" />
<glyph unicode="&#x152;" horiz-adv-x="1726" d="M102 698q0 59 4.5 114t20 125t40.5 129t70 118t104.5 100t148 66.5t196.5 25.5q90 0 172 -16h721q20 0 32.5 -12.5t12.5 -32.5v-187q0 -41 -45 -41h-512v-247h444q21 0 33 -12t12 -33v-187q0 -41 -45 -41h-444v-297h522q21 0 33 -12t12 -33v-186q0 -20 -10 -29.5 t-35 -9.5h-723q-82 -18 -180 -18q-87 0 -161 15t-129 39.5t-99.5 62.5t-74.5 79.5t-52.5 94.5t-35 102t-20 108.5t-10 108t-2.5 106.5zM446 676q0 -215 54 -315.5t188 -100.5q27 0 51 6v824q-24 6 -51 6q-133 0 -187.5 -100t-54.5 -320z" />
<glyph unicode="&#x153;" horiz-adv-x="1736" d="M86 520q0 45 3.5 87t16 95t32.5 97t56 88t84 74.5t119 49.5t158 19q218 0 332 -117q111 111 309 111q113 0 198 -28t135 -72t81 -108t41.5 -125t11.5 -134q0 -67 -25 -99t-88 -32h-501q6 -112 55.5 -150t161.5 -38q104 0 247 20q39 5 51.5 -2.5t18.5 -42.5l16 -96 q10 -36 0.5 -55t-53.5 -37q-58 -22 -157.5 -36t-176.5 -14q-227 0 -335 121q-104 -112 -322 -112q-91 0 -164 18.5t-121.5 48t-83.5 75t-54 89t-30 102t-13.5 102.5t-2.5 101zM401 508q0 -139 32.5 -198.5t121.5 -59.5q98 0 132 59.5t34 198.5t-32.5 197.5t-129.5 58.5 q-90 0 -124 -62t-34 -194zM1055 618h280q-4 162 -137 162q-71 0 -104.5 -41t-38.5 -121z" />
<glyph unicode="&#x154;" horiz-adv-x="1228" d="M133 45v1272q0 45 47 45h502q86 0 164 -25t142.5 -73.5t103 -130.5t38.5 -187q0 -73 -20 -140t-72 -131t-131 -100l252 -524q10 -23 3 -37t-29 -14h-252q-62 0 -80 45l-209 473h-133v-473q0 -45 -43 -45h-236q-47 0 -47 45zM436 1544q-19 30 13 49l333 219 q23 12 37.5 7.5t22.5 -19.5l94 -151q26 -40 -18 -60l-361 -157q-14 -8 -28 -7t-25 17zM459 782h164q172 0 172 160q0 75 -46 110t-122 35h-168v-305z" />
<glyph unicode="&#x155;" horiz-adv-x="841" d="M129 45v922q0 45 45 45h223q45 0 45 -45v-99l4 -4q54 55 142 101t155 57q35 5 49.5 -3t18.5 -44l25 -201q3 -30 -6 -41.5t-52 -19.5q-192 -36 -336 -88v-580q0 -45 -43 -45h-225q-45 0 -45 45zM266 1210l191 353q21 38 57 18l156 -88q42 -22 10 -61l-242 -310 q-21 -32 -51 -18l-106 57q-31 17 -15 49z" />
<glyph unicode="&#x156;" horiz-adv-x="1228" d="M133 45v1272q0 45 47 45h502q86 0 164 -25t142.5 -73.5t103 -130.5t38.5 -187q0 -73 -20 -140t-72 -131t-131 -100l252 -524q10 -23 3 -37t-29 -14h-252q-62 0 -80 45l-209 473h-133v-473q0 -45 -43 -45h-236q-47 0 -47 45zM435 -532.5q1 10.5 28 40.5q53 53 53 132 q0 48 -53 112q-19 20 -25.5 33.5t0 29t29.5 33.5l133 99q20 16 37 16.5t29 -7t32 -26.5q40 -37 62 -91.5t22 -104.5q0 -125 -55 -219.5t-143 -147.5q-46 -24 -76 10l-53 56q-21 24 -20 34.5zM459 782h164q172 0 172 160q0 75 -46 110t-122 35h-168v-305z" />
<glyph unicode="&#x157;" horiz-adv-x="841" d="M105 -573q1 11 28 41q53 53 53 131q0 48 -53 112q-19 20 -25.5 33.5t0 29t29.5 33.5l133 99q20 16 37.5 16.5t29.5 -7.5t32 -26q40 -37 62 -91.5t22 -104.5q0 -124 -55 -219t-144 -148q-46 -24 -76 10l-53 56q-21 24 -20 35zM129 45v922q0 45 45 45h223q45 0 45 -45v-99 l4 -4q54 55 142 101t155 57q35 5 49.5 -3t18.5 -44l25 -201q3 -30 -6 -41.5t-52 -19.5q-192 -36 -336 -88v-580q0 -45 -43 -45h-225q-45 0 -45 45z" />
<glyph unicode="&#x158;" horiz-adv-x="1228" d="M133 45v1272q0 45 47 45h502q86 0 164 -25t142.5 -73.5t103 -130.5t38.5 -187q0 -73 -20 -140t-72 -131t-131 -100l252 -524q10 -23 3 -37t-29 -14h-252q-62 0 -80 45l-209 473h-133v-473q0 -45 -43 -45h-236q-47 0 -47 45zM178 1716.5q1 9.5 17 24.5l65 71q9 11 18 13 t16.5 -1.5t22.5 -13.5l269 -165l274 163q22 15 31.5 16.5t28.5 -12.5l67 -69q15 -16 15.5 -24.5t-15.5 -28.5l-252 -236q-15 -13 -21.5 -17.5t-21.5 -9t-37 -4.5h-131q-22 0 -38 5.5t-23.5 11t-20.5 18.5l-247 228q-18 21 -17 30.5zM459 782h164q172 0 172 160q0 75 -46 110 t-122 35h-168v-305z" />
<glyph unicode="&#x159;" horiz-adv-x="841" d="M-21 1423.5q1 8.5 17 24.5l70 70q11 11 20.5 13t16.5 -2t22 -16l260 -206l268 209q20 14 31 15t29 -13l71 -68q15 -14 16 -25t-14 -30l-251 -279q-16 -19 -30 -25t-50 -6h-131q-34 0 -48.5 7.5t-33.5 29.5l-248 273q-16 20 -15 28.5zM129 45v922q0 45 45 45h223 q45 0 45 -45v-99l4 -4q54 55 142 101t155 57q35 5 49.5 -3t18.5 -44l25 -201q3 -30 -6 -41.5t-52 -19.5q-192 -36 -336 -88v-580q0 -45 -43 -45h-225q-45 0 -45 45z" />
<glyph unicode="&#x15a;" horiz-adv-x="1189" d="M94 958q0 198 133.5 307t362.5 109q248 0 391 -59q33 -12 47 -25t14.5 -27t-2.5 -34l-28 -121q-8 -36 -27 -42t-61 1q-176 23 -310 23q-90 0 -134 -29.5t-44 -93.5q0 -62 35.5 -84.5t146.5 -46.5q66 -14 101 -23t94.5 -28t92.5 -38t75 -51.5t64 -71t37.5 -94t15.5 -122.5 q0 -94 -30 -168.5t-80 -122t-120 -78.5t-145.5 -44t-161.5 -13q-89 0 -203 14.5t-200 48.5q-47 19 -56 35.5t-2 50.5l25 119q8 37 24.5 44t55.5 -1q237 -29 358 -29q104 0 152.5 32.5t48.5 98.5q0 70 -40.5 98.5t-150.5 51.5q-61 13 -101.5 23.5t-95.5 29t-91.5 38t-75.5 51 t-62 68.5t-38 89t-15 114zM387 1544q-19 31 12 49l334 219q23 12 37.5 7.5t22.5 -19.5l94 -151q12 -19 6.5 -35t-25.5 -25l-360 -157q-14 -8 -28 -7t-25 17z" />
<glyph unicode="&#x15b;" horiz-adv-x="999" d="M80 125l22 98q6 29 19 35.5t47 -0.5q159 -27 293 -27q77 0 110 18t33 58q0 43 -24 59.5t-91 24.5q-55 8 -92.5 14.5t-83.5 18.5t-76 26.5t-61 38t-49 52.5t-29.5 70t-11.5 91q0 158 115 243t303 85q77 0 167 -11.5t150 -33.5q46 -15 62 -31.5t8 -52.5l-23 -104 q-8 -29 -17.5 -35t-43.5 -2q-184 24 -291 24q-72 1 -94.5 -15.5t-22.5 -53.5q0 -18 8 -30.5t29 -20.5t38 -11.5t52 -9.5q52 -7 89 -13t81.5 -18t75 -27t61.5 -39.5t49.5 -55t30 -74t11.5 -97.5q0 -74 -25 -132.5t-67 -96t-101 -62.5t-123 -35.5t-137 -10.5 q-76 0 -168.5 12.5t-152.5 32.5q-51 19 -65 38.5t-5 59.5zM369 1210l190 353q21 38 57 18l156 -88q42 -22 10 -61l-241 -310q-22 -33 -52 -18l-106 57q-31 17 -14 49z" />
<glyph unicode="&#x15c;" horiz-adv-x="1189" d="M94 958q0 198 133.5 307t362.5 109q248 0 391 -59q33 -12 47 -25t14.5 -27t-2.5 -34l-28 -121q-8 -36 -27 -42t-61 1q-176 23 -310 23q-90 0 -134 -29.5t-44 -93.5q0 -62 35.5 -84.5t146.5 -46.5q66 -14 101 -23t94.5 -28t92.5 -38t75 -51.5t64 -71t37.5 -94t15.5 -122.5 q0 -94 -30 -168.5t-80 -122t-120 -78.5t-145.5 -44t-161.5 -13q-89 0 -203 14.5t-200 48.5q-47 19 -56 35.5t-2 50.5l25 119q8 37 24.5 44t55.5 -1q237 -29 358 -29q104 0 152.5 32.5t48.5 98.5q0 70 -40.5 98.5t-150.5 51.5q-61 13 -101.5 23.5t-95.5 29t-91.5 38t-75.5 51 t-62 68.5t-38 89t-15 114zM184 1512q-1 9 15 30l252 230q2 2 7.5 7t7.5 7t6.5 5.5t7 5t7 4t8.5 3.5t9.5 2t12 1.5t13.5 0.5h132q9 0 16.5 -0.5t13 -1t11.5 -3t8.5 -3t8 -4.5t7 -5t8 -6.5t8.5 -6.5l252 -234q17 -19 16 -28.5t-18 -26.5l-67 -72q-17 -14 -26.5 -12.5 t-31.5 16.5l-276 178l-266 -180q-22 -16 -31.5 -17t-28.5 15l-65 70q-16 16 -17 25z" />
<glyph unicode="&#x15d;" horiz-adv-x="999" d="M77.5 1177q-0.5 10 16.5 29l248 273q14 16 21 21.5t22 10.5t39 5h131q36 0 50 -6t30 -25l250 -281q17 -19 16.5 -29t-16.5 -24l-72 -68q-20 -14 -29.5 -13t-29.5 15l-271 209l-258 -207q-16 -12 -23 -15.5t-16 -1.5t-20 13l-72 70q-16 14 -16.5 24zM80 125l22 98 q6 29 19 35.5t47 -0.5q159 -27 293 -27q77 0 110 18t33 58q0 43 -24 59.5t-91 24.5q-55 8 -92.5 14.5t-83.5 18.5t-76 26.5t-61 38t-49 52.5t-29.5 70t-11.5 91q0 158 115 243t303 85q77 0 167 -11.5t150 -33.5q46 -15 62 -31.5t8 -52.5l-23 -104q-8 -29 -17.5 -35t-43.5 -2 q-184 24 -291 24q-72 1 -94.5 -15.5t-22.5 -53.5q0 -18 8 -30.5t29 -20.5t38 -11.5t52 -9.5q52 -7 89 -13t81.5 -18t75 -27t61.5 -39.5t49.5 -55t30 -74t11.5 -97.5q0 -74 -25 -132.5t-67 -96t-101 -62.5t-123 -35.5t-137 -10.5q-76 0 -168.5 12.5t-152.5 32.5 q-51 19 -65 38.5t-5 59.5z" />
<glyph unicode="&#x15e;" horiz-adv-x="1189" d="M94 958q0 198 133.5 307t362.5 109q248 0 391 -59q33 -12 47 -25t14.5 -27t-2.5 -34l-28 -121q-8 -36 -27 -42t-61 1q-176 23 -310 23q-90 0 -134 -29.5t-44 -93.5q0 -62 35.5 -84.5t146.5 -46.5q66 -14 101 -23t94.5 -28t92.5 -38t75 -51.5t64 -71t37.5 -94t15.5 -122.5 q0 -109 -38.5 -190.5t-106.5 -129.5t-150 -73t-182 -31l-31 -82q65 -2 109.5 -16t66 -38.5t29.5 -50t8 -59.5q0 -97 -71 -156t-210 -59q-104 0 -174 24q-23 8 -18 25l18 84q3 14 25 12q82 -12 131 -12q57 0 89 17t32 67q0 20 -7 31t-24.5 17t-38.5 8t-58 4q-14 1 -22 1 q-47 3 -31 49l48 134q-219 14 -334 61q-47 19 -56 35.5t-2 50.5l25 119q8 37 24.5 44t55.5 -1q237 -29 358 -29q104 0 152.5 32.5t48.5 98.5q0 70 -40.5 98.5t-150.5 51.5q-61 13 -101.5 23.5t-95.5 29t-91.5 38t-75.5 51t-62 68.5t-38 89t-15 114z" />
<glyph unicode="&#x15f;" horiz-adv-x="999" d="M80 125l22 98q6 29 19 35.5t47 -0.5q159 -27 293 -27q77 0 110 18t33 58q0 43 -24 59.5t-91 24.5q-55 8 -92.5 14.5t-83.5 18.5t-76 26.5t-61 38t-49 52.5t-29.5 70t-11.5 91q0 158 115 243t303 85q77 0 167 -11.5t150 -33.5q46 -15 62 -31.5t8 -52.5l-23 -104 q-8 -29 -17.5 -35t-43.5 -2q-184 24 -291 24q-72 1 -94.5 -15.5t-22.5 -53.5q0 -18 8 -30.5t29 -20.5t38 -11.5t52 -9.5q52 -7 89 -13t81.5 -18t75 -27t61.5 -39.5t49.5 -55t30 -74t11.5 -97.5q0 -82 -30 -144.5t-83 -101t-118 -60t-144 -27.5l-33 -84q65 -2 109.5 -16 t66 -38.5t29.5 -50t8 -59.5q0 -97 -70.5 -156t-209.5 -59q-105 0 -175 24q-23 8 -18 25l18 84q3 14 25 12q82 -12 131 -12q57 0 89 17t32 67q0 20 -7 31t-24.5 17t-38.5 8t-58 4q-14 1 -22 1q-46 3 -30 49l47 134q-162 7 -268 43q-51 19 -65 38.5t-5 59.5z" />
<glyph unicode="&#x160;" horiz-adv-x="1189" d="M94 958q0 198 133.5 307t362.5 109q248 0 391 -59q33 -12 47 -25t14.5 -27t-2.5 -34l-28 -121q-8 -36 -27 -42t-61 1q-176 23 -310 23q-90 0 -134 -29.5t-44 -93.5q0 -62 35.5 -84.5t146.5 -46.5q66 -14 101 -23t94.5 -28t92.5 -38t75 -51.5t64 -71t37.5 -94t15.5 -122.5 q0 -94 -30 -168.5t-80 -122t-120 -78.5t-145.5 -44t-161.5 -13q-89 0 -203 14.5t-200 48.5q-47 19 -56 35.5t-2 50.5l25 119q8 37 24.5 44t55.5 -1q237 -29 358 -29q104 0 152.5 32.5t48.5 98.5q0 70 -40.5 98.5t-150.5 51.5q-61 13 -101.5 23.5t-95.5 29t-91.5 38t-75.5 51 t-62 68.5t-38 89t-15 114zM176 1716.5q1 9.5 17 24.5l65 71q9 11 18 13t16.5 -1.5t22.5 -13.5l269 -165l274 163q22 15 31.5 16.5t28.5 -12.5l67 -69q15 -16 15.5 -24.5t-15.5 -28.5l-252 -236q-15 -13 -21.5 -17.5t-21.5 -9t-37 -4.5h-131q-22 0 -38 5.5t-23.5 11 t-20.5 18.5l-247 228q-18 21 -17 30.5z" />
<glyph unicode="&#x161;" horiz-adv-x="999" d="M80 125l22 98q6 29 19 35.5t47 -0.5q159 -27 293 -27q77 0 110 18t33 58q0 43 -24 59.5t-91 24.5q-55 8 -92.5 14.5t-83.5 18.5t-76 26.5t-61 38t-49 52.5t-29.5 70t-11.5 91q0 158 115 243t303 85q77 0 167 -11.5t150 -33.5q46 -15 62 -31.5t8 -52.5l-23 -104 q-8 -29 -17.5 -35t-43.5 -2q-184 24 -291 24q-72 1 -94.5 -15.5t-22.5 -53.5q0 -18 8 -30.5t29 -20.5t38 -11.5t52 -9.5q52 -7 89 -13t81.5 -18t75 -27t61.5 -39.5t49.5 -55t30 -74t11.5 -97.5q0 -74 -25 -132.5t-67 -96t-101 -62.5t-123 -35.5t-137 -10.5 q-76 0 -168.5 12.5t-152.5 32.5q-51 19 -65 38.5t-5 59.5zM96 1423.5q1 8.5 17 24.5l69 70q11 11 20.5 13t17 -2t22.5 -16l260 -206l268 209q20 14 30.5 15t28.5 -13l72 -68q15 -14 16 -25t-14 -30l-252 -279q-16 -19 -30 -25t-50 -6h-131q-34 0 -48.5 7.5t-33.5 29.5 l-247 273q-16 20 -15 28.5z" />
<glyph unicode="&#x162;" horiz-adv-x="1067" d="M25 1130v187q0 22 9.5 33.5t35.5 11.5h927q21 0 33 -12t12 -33v-187q0 -43 -45 -43h-303v-1042q0 -45 -43 -45h-49l-39 -98q65 -2 109.5 -16t66 -38.5t29.5 -50t8 -59.5q0 -97 -70.5 -156t-209.5 -59q-104 0 -174 24q-24 8 -19 25l19 84q3 14 24 12q82 -12 131 -12 q57 0 89 17t32 67q0 37 -26 46.5t-101 13.5q-14 1 -22 1q-47 3 -31 49l53 150h-55q-45 0 -45 45v1042h-301q-26 0 -35.5 11t-9.5 32z" />
<glyph unicode="&#x163;" horiz-adv-x="837" d="M49 811v154q0 24 9.5 34.5t33.5 10.5h92v200q0 41 45 54l207 55q22 8 36.5 -1.5t14.5 -33.5v-274h209q26 0 34.5 -9.5t8.5 -33.5v-156q0 -25 -8.5 -35t-34.5 -10h-211l2 -381q0 -34 3 -51t15 -32.5t37.5 -21t69.5 -6.5q27 0 142 9h7.5h7.5t6 -0.5t6 -1t5 -2t5 -4 t3.5 -5.5t3.5 -7.5t2.5 -10t2.5 -12.5l18 -148q6 -23 -5 -41t-32 -24q-128 -43 -299 -43q-23 0 -59 4l-27 -68q65 -2 109.5 -16t66 -38.5t29.5 -50t8 -59.5q0 -97 -70.5 -156t-209.5 -59q-35 0 -88 7t-86 18q-24 8 -19 24l19 84q3 15 24 13q89 -13 131 -13q57 0 89 17t32 67 q0 37 -26.5 47t-105.5 14h-5.5t-5.5 0.5t-6 0.5q-47 3 -31 49l53 151q-125 70 -125 289v457h-90q-24 0 -33.5 10.5t-9.5 34.5z" />
<glyph unicode="&#x164;" horiz-adv-x="1067" d="M25 1130v187q0 22 9.5 33.5t35.5 11.5h927q21 0 33 -12t12 -33v-187q0 -43 -45 -43h-303v-1042q0 -45 -43 -45h-235q-45 0 -45 45v1042h-301q-26 0 -35.5 11t-9.5 32zM120 1716.5q1 9.5 17 24.5l66 71q9 11 18 13t16.5 -1.5t22.5 -13.5l268 -165l275 163q23 15 31 16.5 t28 -12.5l68 -69q15 -16 15.5 -24.5t-15.5 -28.5l-252 -236q-15 -13 -21.5 -17.5t-21.5 -9t-37 -4.5h-131q-22 0 -38 5.5t-23.5 11t-20.5 18.5l-248 228q-18 21 -17 30.5z" />
<glyph unicode="&#x165;" horiz-adv-x="968" d="M49 811v154q0 24 9.5 34.5t33.5 10.5h92v200q0 41 45 54l207 55q22 8 36.5 -1.5t14.5 -33.5v-274h209q26 0 34.5 -9.5t8.5 -33.5v-156q0 -25 -8.5 -35t-34.5 -10h-211l2 -381q0 -34 3 -51t15 -32.5t37.5 -21t69.5 -6.5q27 0 142 9h7.5h7.5t6 -0.5t6 -1t5 -2t5 -4 t3.5 -5.5t3.5 -7.5t2.5 -10t2.5 -12.5l18 -148q6 -23 -5 -41t-32 -24q-128 -43 -299 -43q-93 0 -155.5 26t-93.5 75t-42.5 101.5t-11.5 122.5v457h-90q-24 0 -33.5 10.5t-9.5 34.5zM646 1151q1 11 28 41q53 53 53 131q0 49 -53 113q-19 20 -25.5 33.5t0 29t29.5 33.5l133 98 q20 16 37 17t29.5 -7t31.5 -26q39 -37 61.5 -92t22.5 -105q0 -124 -54.5 -218.5t-143.5 -147.5q-46 -24 -76 10l-53 55q-21 24 -20 35z" />
<glyph unicode="&#x166;" horiz-adv-x="1067" d="M25 1130v187q0 22 9.5 33.5t35.5 11.5h927q21 0 33 -12t12 -33v-187q0 -43 -45 -43h-303v-262h217q26 0 34.5 -9.5t8.5 -33.5v-104q0 -25 -8 -35t-33 -10h-219v-588q0 -45 -43 -45h-235q-45 0 -45 45v588h-205q-23 0 -32 10.5t-9 34.5v104q0 43 43 43h203v262h-301 q-26 0 -35.5 11t-9.5 32z" />
<glyph unicode="&#x167;" horiz-adv-x="837" d="M49 811v154q0 24 9.5 34.5t33.5 10.5h92v200q0 41 45 54l207 55q22 8 36.5 -1.5t14.5 -33.5v-274h209q26 0 34.5 -9.5t8.5 -33.5v-156q0 -25 -8.5 -35t-34.5 -10h-211v-125h183q25 0 33 -9.5t8 -31.5v-108q0 -23 -8 -33t-33 -10h-181v-64q0 -34 3 -51t15 -32.5t37.5 -21 t69.5 -6.5q27 0 142 9h7.5h7.5t6 -0.5t6 -1t5 -2t5 -4t3.5 -5.5t3.5 -7.5t2.5 -10t2.5 -12.5l18 -148q6 -23 -5 -41t-32 -24q-128 -43 -299 -43q-93 0 -155.5 26t-93.5 75t-42.5 101.5t-11.5 122.5v140h-82q-23 0 -32 10.5t-9 32.5v106q0 22 9 32.5t32 10.5h82v125h-90 q-24 0 -33.5 10.5t-9.5 34.5z" />
<glyph unicode="&#x168;" horiz-adv-x="1343" d="M137 506v809q0 47 45 47h236q43 0 43 -47v-801q0 -252 209 -252q215 0 215 252l-2 801q0 47 47 47h235q43 0 43 -47l-2 -809q0 -145 -39 -244q-40 -97 -120 -161.5t-174 -91.5t-203 -27q-254 -3 -393.5 140t-139.5 384zM258 1485.5q-7 12.5 0 30.5q46 120 116.5 175.5 t147.5 55.5q50 0 114.5 -25t123 -50t92.5 -25q69 0 115 77q9 16 21.5 17.5t33.5 -8.5l76 -41q17 -7 20.5 -17.5t-2.5 -29.5q-51 -123 -115.5 -173.5t-146.5 -50.5q-47 0 -167.5 49.5t-162.5 49.5q-69 0 -121 -76q-12 -17 -18.5 -18.5t-32.5 8.5l-78 34q-9 5 -16 17.5z" />
<glyph unicode="&#x169;" horiz-adv-x="1136" d="M94 377v588q0 45 43 45h225q44 0 44 -45v-537q0 -80 28.5 -119t95.5 -39q30 0 65 10.5t77.5 28.5t50.5 21v635q0 45 43 45h225q45 0 45 -45v-922q0 -22 -10 -32.5t-35 -10.5h-225q-43 0 -43 43v51q-1 0 -2 1t-2 1q-67 -51 -156.5 -81.5t-165.5 -30.5q-61 0 -108 11.5 t-78.5 29.5t-54 49t-34.5 60.5t-18.5 74.5t-8 80t-1.5 88zM150 1178q-7 12 0 30q47 120 117 176t147 56q50 0 114.5 -25t122.5 -50.5t92 -25.5q68 0 115 78q8 16 21 17t34 -9l76 -41q17 -7 21 -17.5t-2 -29.5q-51 -122 -116 -172.5t-147 -50.5q-47 0 -167 49t-162 49 q-70 0 -121 -75q-12 -17 -18.5 -19t-32.5 8l-78 35q-9 5 -16 17z" />
<glyph unicode="&#x16a;" horiz-adv-x="1343" d="M137 506v809q0 47 45 47h236q43 0 43 -47v-801q0 -252 209 -252q215 0 215 252l-2 801q0 47 47 47h235q43 0 43 -47l-2 -809q0 -145 -39 -244q-40 -97 -120 -161.5t-174 -91.5t-203 -27q-254 -3 -393.5 140t-139.5 384zM319 1495v143q0 23 10 33t33 10h623q24 0 32.5 -9 t8.5 -32v-145q0 -24 -8.5 -33.5t-32.5 -9.5h-623q-43 0 -43 43z" />
<glyph unicode="&#x16b;" horiz-adv-x="1136" d="M94 377v588q0 45 43 45h225q44 0 44 -45v-537q0 -80 28.5 -119t95.5 -39q30 0 65 10.5t77.5 28.5t50.5 21v635q0 45 43 45h225q45 0 45 -45v-922q0 -22 -10 -32.5t-35 -10.5h-225q-43 0 -43 43v51q-1 0 -2 1t-2 1q-67 -51 -156.5 -81.5t-165.5 -30.5q-61 0 -108 11.5 t-78.5 29.5t-54 49t-34.5 60.5t-18.5 74.5t-8 80t-1.5 88zM209 1198v145q0 43 43 43h625q24 0 32.5 -9.5t8.5 -30.5v-148q0 -23 -8.5 -33t-32.5 -10h-625q-43 0 -43 43z" />
<glyph unicode="&#x16c;" horiz-adv-x="1343" d="M137 506v809q0 47 45 47h236q43 0 43 -47v-801q0 -252 209 -252q215 0 215 252l-2 801q0 47 47 47h235q43 0 43 -47l-2 -809q0 -145 -39 -244q-40 -97 -120 -161.5t-174 -91.5t-203 -27q-254 -3 -393.5 140t-139.5 384zM250.5 1697q0.5 4 1.5 11t5.5 12.5t10.5 10.5 l74 59q18 12 30.5 12t19.5 -5.5t24 -24.5q67 -81 121 -114.5t127 -33.5q68 0 122 32.5t119 115.5q19 24 33 27.5t39 -11.5l74 -45q13 -8 18.5 -17.5t2 -24t-6.5 -22.5t-14 -30q-63 -121 -163 -185.5t-224 -64.5q-123 0 -233.5 63.5t-162.5 179.5q-1 2 -6 14t-6 15t-3.5 12.5 t-2 13.5z" />
<glyph unicode="&#x16d;" horiz-adv-x="1136" d="M94 377v588q0 45 43 45h225q44 0 44 -45v-537q0 -80 28.5 -119t95.5 -39q30 0 65 10.5t77.5 28.5t50.5 21v635q0 45 43 45h225q45 0 45 -45v-922q0 -22 -10 -32.5t-35 -10.5h-225q-43 0 -43 43v51q-1 0 -2 1t-2 1q-67 -51 -156.5 -81.5t-165.5 -30.5q-61 0 -108 11.5 t-78.5 29.5t-54 49t-34.5 60.5t-18.5 74.5t-8 80t-1.5 88zM144.5 1389.5q0.5 4.5 1.5 11t5.5 12t10.5 10.5l74 60q18 12 31 11.5t18.5 -5.5t23.5 -25q67 -81 121 -114t127 -33q68 0 122.5 32.5t119.5 114.5q19 24 32.5 27.5t38.5 -10.5l74 -45q17 -11 20 -27.5t-1.5 -28 t-18.5 -39.5q-63 -121 -163 -185t-224 -64q-123 0 -233 63.5t-162 179.5q-1 3 -6 14t-6 14.5t-3.5 12.5t-2 13.5z" />
<glyph unicode="&#x16e;" horiz-adv-x="1343" d="M137 506v809q0 47 45 47h236q43 0 43 -47v-801q0 -252 209 -252q215 0 215 252l-2 801q0 47 47 47h235q43 0 43 -47l-2 -809q0 -145 -39 -244q-40 -97 -120 -161.5t-174 -91.5t-203 -27q-254 -3 -393.5 140t-139.5 384zM416 1630q0 106 79 177t183 71q103 0 178.5 -74.5 t75.5 -173.5q0 -103 -75 -176.5t-179 -73.5q-105 0 -183.5 71.5t-78.5 178.5zM584 1630q0 -44 26 -71t68 -27q37 0 63.5 28.5t26.5 69.5q0 38 -26.5 67t-63.5 29q-38 0 -66 -29t-28 -67z" />
<glyph unicode="&#x16f;" horiz-adv-x="1136" d="M94 377v588q0 45 43 45h225q44 0 44 -45v-537q0 -80 28.5 -119t95.5 -39q30 0 65 10.5t77.5 28.5t50.5 21v635q0 45 43 45h225q45 0 45 -45v-922q0 -22 -10 -32.5t-35 -10.5h-225q-43 0 -43 43v51q-1 0 -2 1t-2 1q-67 -51 -156.5 -81.5t-165.5 -30.5q-61 0 -108 11.5 t-78.5 29.5t-54 49t-34.5 60.5t-18.5 74.5t-8 80t-1.5 88zM307 1335q0 106 79 177t183 71q103 0 178.5 -74.5t75.5 -173.5q0 -103 -75 -176.5t-179 -73.5q-105 0 -183.5 71.5t-78.5 178.5zM475 1335q0 -44 26 -71t68 -27q37 0 63.5 28.5t26.5 69.5q0 39 -27 68t-63 29 q-38 0 -66 -29t-28 -68z" />
<glyph unicode="&#x170;" horiz-adv-x="1343" d="M137 506v809q0 47 45 47h236q43 0 43 -47v-801q0 -252 209 -252q215 0 215 252l-2 801q0 47 47 47h235q43 0 43 -47l-2 -809q0 -145 -39 -244q-40 -97 -120 -161.5t-174 -91.5t-203 -27q-254 -3 -393.5 140t-139.5 384zM301 1516q-22 25 6 47l311 252q34 25 60 -5 l113 -143q29 -36 -15 -59l-344 -193q-33 -18 -53 4zM770 1516q-23 26 6 47l311 252q33 26 60 -5l110 -143q29 -37 -14 -59l-342 -193q-34 -19 -55 4z" />
<glyph unicode="&#x171;" horiz-adv-x="1136" d="M94 377v588q0 45 43 45h225q44 0 44 -45v-537q0 -80 28.5 -119t95.5 -39q30 0 65 10.5t77.5 28.5t50.5 21v635q0 45 43 45h225q45 0 45 -45v-922q0 -22 -10 -32.5t-35 -10.5h-225q-43 0 -43 43v51q-1 0 -2 1t-2 1q-67 -51 -156.5 -81.5t-165.5 -30.5q-61 0 -108 11.5 t-78.5 29.5t-54 49t-34.5 60.5t-18.5 74.5t-8 80t-1.5 88zM268 1210l189 353q24 39 57 18l158 -88q38 -22 10 -61l-242 -310q-25 -32 -51 -18l-108 57q-31 19 -13 49zM627 1210l188 353q21 38 57 18l156 -88q38 -20 12 -61l-241 -310q-25 -32 -51 -18l-109 57q-30 19 -12 49 z" />
<glyph unicode="&#x172;" horiz-adv-x="1343" d="M137 506v809q0 47 45 47h236q43 0 43 -47v-801q0 -252 209 -252q215 0 215 252l-2 801q0 47 47 47h235q43 0 43 -47l-2 -809q0 -145 -39 -244q-54 -128 -169 -196.5t-263 -81.5q-43 -72 -43 -148q0 -72 88 -72q43 0 113 17q30 7 37 -14q4 -12 24 -78q11 -32 -22 -45 q-84 -43 -211 -43q-111 0 -170 58.5t-59 154.5q0 93 59 176q-199 30 -306.5 167.5t-107.5 348.5z" />
<glyph unicode="&#x173;" horiz-adv-x="1136" d="M94 377v588q0 45 43 45h225q44 0 44 -45v-537q0 -80 28.5 -119t95.5 -39q30 0 65 10.5t77.5 28.5t50.5 21v635q0 45 43 45h225q45 0 45 -45v-922q0 -22 -10 -32.5t-35 -10.5h-37q-51 -85 -51 -164q0 -72 88 -72q43 0 113 17q30 7 37 -14q4 -12 24 -78q11 -32 -22 -45 q-84 -43 -211 -43q-111 0 -170.5 58.5t-59.5 154.5q0 95 68 186h-4q-43 0 -43 43v51q-1 0 -2 1t-2 1q-67 -51 -156.5 -81.5t-165.5 -30.5q-61 0 -108 11.5t-78.5 29.5t-54 49t-34.5 60.5t-18.5 74.5t-8 80t-1.5 88z" />
<glyph unicode="&#x174;" horiz-adv-x="1796" d="M31 1311q-13 51 35 51h233q34 0 50.5 -12t23.5 -43q129 -518 139 -549l74 -318h8l63 224q3 14 50 173.5t51 170.5l-96 303q-7 19 -0.5 35t26.5 16h217q35 0 53 -12t25 -43q148 -559 156 -590l67 -277h11l61 301l133 566q7 30 26 42.5t56 12.5h221q50 0 33 -53l-330 -1250 q-8 -31 -27.5 -45t-60.5 -14h-186q-43 0 -60 14t-28 45l-94 310l-54 178h-10l-57 -178l-97 -310q-11 -31 -27.5 -45t-58.5 -14h-190q-40 0 -59 14t-27 43zM438 1512q-1 9 15 30l252 230q2 2 7.5 7t7.5 7t6.5 5.5t7 5t7 4t8.5 3.5t9.5 2t12 1.5t13.5 0.5h131h14.5t13 -1.5 t10 -2t9 -3t7 -3t7 -4t6.5 -4.5t7.5 -6t7.5 -6l252 -234q17 -19 16 -28.5t-18 -26.5l-67 -72q-17 -14 -26.5 -12.5t-31.5 16.5l-276 178l-266 -180q-22 -16 -31.5 -17t-28.5 15l-65 70q-16 16 -17 25z" />
<glyph unicode="&#x175;" horiz-adv-x="1554" d="M33 981q0 29 33 29h231q27 0 39.5 -8.5t19.5 -34.5l93 -342l71 -263h10l74 232l55 162l-71 209q-6 19 1 32t29 13h205q32 0 42.5 -8t19.5 -41q51 -168 108 -367l62 -213h8l65 256l84 326q8 28 17.5 37.5t32.5 9.5h229q46 0 31 -43l-283 -904q-10 -34 -26 -48.5t-54 -14.5 h-172q-35 0 -49.5 11t-26.5 48l-49 148l-67 201h-7l-75 -207l-51 -142q-7 -21 -13.5 -31.5t-23.5 -19t-45 -8.5h-158q-39 0 -55 12t-27 45l-305 908q-2 6 -2 16zM337.5 1177q-0.5 10 16.5 29l248 273q14 16 21 21.5t22 10.5t39 5h131q36 0 50 -6t30 -25l250 -281 q17 -19 16.5 -29t-16.5 -24l-72 -68q-20 -14 -29.5 -13t-29.5 15l-271 209l-258 -207q-16 -12 -23 -15.5t-16 -1.5t-20 13l-72 70q-16 14 -16.5 24z" />
<glyph unicode="&#x176;" horiz-adv-x="1288" d="M23 1346.5q6 15.5 28 15.5h244q35 0 50 -9.5t30 -39.5l135 -269l121 -245h12l127 248l131 251q17 36 32.5 50t47.5 14h246q23 0 29.5 -14t-3.5 -31l-462 -817v-455q0 -45 -41 -45h-238q-45 0 -45 45v455l-440 811q-10 20 -4 35.5zM223 1512q-1 9 15 30l251 230q1 1 7.5 7 t7.5 7t6.5 5.5t7.5 5t7 3.5t9 3.5t9.5 2t12 2t13.5 0.5h131h14.5t13 -1.5t10 -2t9 -3t7 -3t7 -4t6.5 -4.5t7.5 -6t7.5 -6l252 -234q17 -19 16 -28.5t-18 -26.5l-67 -72q-17 -14 -26.5 -12.5t-31.5 16.5l-276 178l-266 -180q-22 -16 -31.5 -17t-28.5 15l-65 70q-16 16 -17 25 z" />
<glyph unicode="&#x177;" horiz-adv-x="1069" d="M29 961q-20 51 32 51h220q31 0 44 -7t21 -36l96 -297l86 -281h11q13 34 36.5 105t40.5 126l17 54q13 40 46 144.5t48 148.5q8 24 21.5 33.5t48.5 9.5h204q31 0 37.5 -14.5t-4.5 -39.5l-487 -1310q-11 -28 -25 -37.5t-49 -9.5h-197q-30 0 -37 11.5t5 39.5l139 375z M133.5 1177q-0.5 10 16.5 29l247 273q14 16 21 21.5t22 10.5t39 5h131q36 0 50 -6t30 -25l250 -281q17 -19 16.5 -29t-16.5 -24l-72 -68q-20 -14 -29.5 -13t-29.5 15l-270 209l-258 -207q-23 -17 -31.5 -18.5t-28.5 14.5l-71 70q-16 14 -16.5 24z" />
<glyph unicode="&#x178;" horiz-adv-x="1288" d="M23 1346.5q6 15.5 28 15.5h244q35 0 50 -9.5t30 -39.5l135 -269l121 -245h12l127 248l131 251q17 36 32.5 50t47.5 14h246q23 0 29.5 -14t-3.5 -31l-462 -817v-455q0 -45 -41 -45h-238q-45 0 -45 45v455l-440 811q-10 20 -4 35.5zM276 1567q0 67 32 103t118 36 q89 0 120.5 -34.5t31.5 -104.5q0 -68 -31.5 -107t-120.5 -39q-48 0 -80 11.5t-46 34t-19 45t-5 55.5zM696 1567q0 67 33 103t119 36q89 0 119 -34t30 -105q0 -69 -30.5 -107.5t-118.5 -38.5q-49 0 -80.5 11.5t-46.5 34t-20 45t-5 55.5z" />
<glyph unicode="&#x179;" horiz-adv-x="1126" d="M86 43v166q0 48 27 82l559 796h-500q-26 0 -35.5 11t-9.5 32v187q0 22 9.5 33.5t35.5 11.5h823q19 0 31 -12t12 -31l-2 -150q0 -53 -26 -98l-561 -799h548q26 0 35.5 -11t9.5 -32v-184q0 -22 -9 -33.5t-34 -11.5h-868q-20 0 -32.5 11.5t-12.5 31.5zM379 1544 q-19 31 12 49l334 219q39 24 59 -12l95 -151q12 -19 6.5 -35t-25.5 -25l-360 -157q-37 -15 -54 10z" />
<glyph unicode="&#x17a;" horiz-adv-x="964" d="M57 41v131q0 45 31 80l428 512h-387q-23 0 -33 10t-10 35v160q0 43 43 43h717q25 0 34 -9t9 -32v-137q0 -42 -31 -80l-422 -504h420q24 0 34.5 -10.5t10.5 -34.5v-160q0 -24 -10.5 -34.5t-34.5 -10.5h-758q-25 0 -33 9.5t-8 31.5zM369 1210l190 353q21 38 57 18l156 -88 q42 -22 10 -61l-241 -310q-22 -33 -52 -18l-106 57q-31 17 -14 49z" />
<glyph unicode="&#x17b;" horiz-adv-x="1126" d="M86 43v166q0 48 27 82l559 796h-500q-26 0 -35.5 11t-9.5 32v187q0 22 9.5 33.5t35.5 11.5h823q19 0 31 -12t12 -31l-2 -150q0 -53 -26 -98l-561 -799h548q26 0 35.5 -11t9.5 -32v-184q0 -22 -9 -33.5t-34 -11.5h-868q-20 0 -32.5 11.5t-12.5 31.5zM440 1614 q0 151 162 151q93 0 127.5 -38.5t34.5 -112.5q0 -68 -34.5 -110t-127.5 -42q-50 0 -84 13t-50 36.5t-22 47.5t-6 55z" />
<glyph unicode="&#x17c;" horiz-adv-x="964" d="M57 41v131q0 45 31 80l428 512h-387q-23 0 -33 10t-10 35v160q0 43 43 43h717q25 0 34 -9t9 -32v-137q0 -42 -31 -80l-422 -504h420q24 0 34.5 -10.5t10.5 -34.5v-160q0 -24 -10.5 -34.5t-34.5 -10.5h-758q-25 0 -33 9.5t-8 31.5zM354 1282q0 152 162 152q93 0 127.5 -39 t34.5 -113q0 -68 -34.5 -110t-127.5 -42q-50 0 -84 13t-50 36.5t-22 47.5t-6 55z" />
<glyph unicode="&#x17d;" horiz-adv-x="1126" d="M86 43v166q0 48 27 82l559 796h-500q-26 0 -35.5 11t-9.5 32v187q0 22 9.5 33.5t35.5 11.5h823q19 0 31 -12t12 -31l-2 -150q0 -53 -26 -98l-561 -799h548q26 0 35.5 -11t9.5 -32v-184q0 -22 -9 -33.5t-34 -11.5h-868q-20 0 -32.5 11.5t-12.5 31.5zM184 1716.5 q1 9.5 17 24.5l65 71q9 11 18.5 13t17 -1.5t22.5 -13.5l268 -165l274 163q22 15 31.5 16.5t28.5 -12.5l67 -69q15 -16 15.5 -24.5t-15.5 -28.5l-252 -236q-27 -23 -42 -27q-14 -4 -37 -4h-132q-22 0 -38 5.5t-23 11t-20 18.5l-248 228q-18 21 -17 30.5z" />
<glyph unicode="&#x17e;" horiz-adv-x="964" d="M57 41v131q0 45 31 80l428 512h-387q-23 0 -33 10t-10 35v160q0 43 43 43h717q25 0 34 -9t9 -32v-137q0 -42 -31 -80l-422 -504h420q24 0 34.5 -10.5t10.5 -34.5v-160q0 -24 -10.5 -34.5t-34.5 -10.5h-758q-25 0 -33 9.5t-8 31.5zM83 1423.5q1 8.5 17 24.5l70 70 q11 11 20.5 13t16.5 -2t22 -16l260 -206l269 209q20 14 30.5 15t28.5 -13l72 -68q15 -14 16 -25t-14 -30l-252 -279q-16 -19 -30 -25t-50 -6h-131q-34 0 -48.5 7.5t-33.5 29.5l-248 273q-16 20 -15 28.5z" />
<glyph unicode="&#x192;" d="M68 -113l26 123q7 29 17 35.5t36 3.5q66 -8 113 -8q31 0 54 10t37 25t25.5 45t17.5 57t14 74l61 383h-131q-27 0 -36 8t-9 33v135q0 28 8 36.5t35 8.5h160l32 201q57 342 365 342q139 0 246 -37q13 -4 15.5 -14.5t-3.5 -30.5l-33 -139q-6 -22 -15.5 -27t-35.5 0 q-59 10 -96 10q-82 0 -110 -35t-44 -133l-22 -137h159q27 0 37 -7.5t10 -31.5v-141q0 -28 -7.5 -34.5t-37.5 -6.5h-188l-86 -539q-50 -301 -350 -301q-57 0 -128.5 11t-111.5 26q-35 10 -24 55z" />
<glyph unicode="&#x1a0;" horiz-adv-x="1411" d="M117 698q0 59 4.5 114.5t20 126t40.5 129.5t70 118t104 100t147.5 66.5t196.5 25.5q229 0 369 -96q59 7 80.5 48.5t21.5 144.5v81q0 18 7.5 23.5t23.5 5.5h170q16 0 22.5 -6t6.5 -23v-155q0 -244 -176 -309q67 -148 67 -394q0 -75 -4.5 -137.5t-20 -138.5t-41 -136 t-70.5 -119t-106 -98t-151 -63t-201 -24t-199.5 24t-148.5 63t-104 98.5t-68 118.5t-38.5 136t-18.5 138.5t-4 137.5zM461 676q0 -216 52.5 -315t188.5 -99q141 0 198.5 99t57.5 315q0 226 -56 324t-200 98q-133 0 -187 -100.5t-54 -321.5z" />
<glyph unicode="&#x1a1;" horiz-adv-x="1181" d="M86 520q0 45 3.5 87t16 95t32.5 97t56 88t84 74.5t119 49.5t158 19q191 0 307 -76q53 9 72.5 51.5t19.5 139.5v82q0 17 7 22.5t24 5.5h170q16 0 22.5 -5.5t6.5 -22.5v-156q0 -245 -178 -309q34 -96 34 -242q0 -56 -3 -100.5t-14.5 -102.5t-31 -102t-56.5 -89.5t-86.5 -75 t-124.5 -48t-169 -18.5q-91 0 -164 18.5t-121.5 48t-83.5 75t-54 89t-30 102t-13.5 102.5t-2.5 101zM401 508q0 -139 32.5 -198.5t121.5 -59.5q98 0 132 59.5t34 198.5t-32.5 197.5t-129.5 58.5q-90 0 -124 -62t-34 -194z" />
<glyph unicode="&#x1af;" horiz-adv-x="1474" d="M137 506v809q0 47 45 47h236q43 0 43 -47v-801q0 -252 209 -252q215 0 215 252l-2 801q0 47 47 47h235q43 0 43 -47v-29q61 6 83 42t22 130v101q0 18 6.5 23t23.5 5h170q16 0 22.5 -5.5t6.5 -22.5v-158q0 -162 -78 -246t-235 -84h-23v-565q0 -145 -39 -244 q-40 -97 -120 -161.5t-174 -91.5t-203 -27q-254 -3 -393.5 140t-139.5 384z" />
<glyph unicode="&#x1b0;" horiz-adv-x="1349" d="M94 377v588q0 45 43 45h225q44 0 44 -45v-537q0 -80 28.5 -119t95.5 -39q30 0 65 10.5t77.5 28.5t50.5 21v635q0 45 43 45h225q45 0 45 -45v-13q59 7 81 49t22 144v82q0 18 6.5 23t23.5 5h170q16 0 22.5 -5.5t6.5 -22.5v-129q0 -33 -2 -49q-5 -138 -70.5 -218.5 t-195.5 -87.5q-20 -2 -64 -2v-698q0 -22 -10 -32.5t-35 -10.5h-225q-43 0 -43 43v51q-1 0 -2 1t-2 1q-67 -51 -156.5 -81.5t-165.5 -30.5q-61 0 -108 11.5t-78.5 29.5t-54 49t-34.5 60.5t-18.5 74.5t-8 80t-1.5 88z" />
<glyph unicode="&#x1fc;" horiz-adv-x="1904" d="M20 51l674 1260q18 31 35.5 41t58.5 10h969q22 0 34.5 -12.5t12.5 -32.5v-187q0 -43 -47 -43h-528v-247h463q20 0 32.5 -11.5t12.5 -31.5v-187q0 -43 -45 -43h-463v-295h540q20 0 31.5 -12.5t11.5 -32.5v-186q0 -41 -45 -41h-821q-45 0 -45 41v266h-407l-140 -260 q-27 -47 -82 -47h-231q-47 0 -21 51zM625 557h276v526h-4zM989 1544q-19 31 12 49l334 219q23 12 37.5 7.5t22.5 -19.5l94 -151q12 -19 6.5 -35t-25.5 -25l-360 -157q-14 -8 -28 -7t-25 17z" />
<glyph unicode="&#x1fd;" horiz-adv-x="1720" d="M90 283q0 176 99 253.5t292 77.5h238v43q0 68 -36 94.5t-144 26.5q-85 0 -269 -18q-28 -7 -49 -2.5t-28 35.5l-23 106q-6 29 7.5 47t55.5 33q64 24 168 36.5t187 12.5q120 0 195 -22t124 -72q109 94 279 94q467 0 467 -471q0 -66 -26 -100.5t-87 -34.5h-504 q4 -58 18.5 -94t43.5 -54.5t64.5 -25t92.5 -6.5q108 0 248 20q29 8 46 1.5t24 -42.5l18 -102q6 -36 -3.5 -54t-51.5 -36q-56 -22 -155 -34.5t-179 -12.5q-278 0 -389 143q-172 -141 -422 -141q-75 0 -130 16.5t-87.5 43t-51.5 67t-25.5 81t-6.5 91.5zM406 297q0 -44 20 -63 t70 -19q43 0 116.5 23.5t122.5 50.5q-11 51 -18 133h-174q-74 0 -105.5 -29t-31.5 -96zM797 1210l190 353q21 38 57 18l156 -88q42 -22 10 -61l-241 -310q-21 -32 -51 -18l-107 57q-31 17 -14 49zM1044 612h281q-4 172 -139 172q-132 0 -142 -172z" />
<glyph unicode="&#x1fe;" horiz-adv-x="1411" d="M117 698q0 59 4.5 114.5t20 126t40.5 129.5t70 118t104 100t147.5 66.5t196.5 25.5q245 0 387 -110l62 80q19 21 25.5 23.5t25.5 -9.5l43 -33q18 -14 18 -23t-16 -30l-74 -94q121 -162 121 -484q0 -75 -4.5 -137.5t-20 -138.5t-41 -136t-70.5 -119t-106 -98t-151 -63 t-201 -24q-242 0 -379 108l-67 -88q-15 -19 -24.5 -21.5t-30.5 9.5l-41 33q-15 13 -14.5 23t14.5 28l82 104q-72 98 -96.5 229t-24.5 291zM461 676q0 -116 12 -195l418 535q-61 82 -189 82q-133 0 -187 -100.5t-54 -321.5zM522 348q56 -86 180 -86q141 0 198.5 99t57.5 315 q0 120 -16 211zM563 1544q-19 31 12 49l334 219q23 12 37.5 7.5t22.5 -19.5l94 -151q12 -19 6.5 -35t-25.5 -25l-360 -157q-14 -8 -28 -7t-25 17z" />
<glyph unicode="&#x1ff;" horiz-adv-x="1124" d="M86 520q0 45 3.5 87t16 95t32.5 97t56 88t84 74.5t119 49.5t158 19q178 0 289 -65l67 82q18 22 26 24t28 -14l51 -43q19 -16 18.5 -24t-18.5 -29l-70 -87q94 -121 94 -354q0 -56 -3 -100.5t-14.5 -102.5t-31 -102t-56.5 -89.5t-86.5 -75t-124.5 -48t-169 -18.5 q-171 0 -281 63l-47 -57q-19 -22 -26 -24t-27 11l-51 46q-19 16 -18.5 24t18.5 29l51 63q-54 73 -71 168t-17 213zM401 508q0 -59 2 -86l256 315q-39 27 -100 27q-90 0 -124 -62t-34 -194zM446 1210l191 353q21 38 57 18l156 -88q42 -22 10 -61l-242 -310q-21 -32 -51 -18 l-106 57q-31 17 -15 49zM461 276q33 -26 94 -26q98 0 132 59.5t34 198.5q0 34 -4 84z" />
<glyph unicode="&#x218;" horiz-adv-x="1189" d="M94 958q0 198 133.5 307t362.5 109q248 0 391 -59q33 -12 47 -25t14.5 -27t-2.5 -34l-28 -121q-8 -36 -27 -42t-61 1q-176 23 -310 23q-90 0 -134 -29.5t-44 -93.5q0 -62 35.5 -84.5t146.5 -46.5q66 -14 101 -23t94.5 -28t92.5 -38t75 -51.5t64 -71t37.5 -94t15.5 -122.5 q0 -94 -30 -168.5t-80 -122t-120 -78.5t-145.5 -44t-161.5 -13q-89 0 -203 14.5t-200 48.5q-47 19 -56 35.5t-2 50.5l25 119q8 37 24.5 44t55.5 -1q237 -29 358 -29q104 0 152.5 32.5t48.5 98.5q0 70 -40.5 98.5t-150.5 51.5q-61 13 -101.5 23.5t-95.5 29t-91.5 38t-75.5 51 t-62 68.5t-38 89t-15 114zM415.5 -241q-0.5 18 33.5 48l133 99q20 16 37 16.5t29 -7t32 -26.5q40 -37 62 -91.5t22 -104.5q0 -124 -55 -219t-144 -148q-46 -24 -76 10l-53 56q-21 24 -20 35t28 41q54 54 54 131q0 47 -54 112q-28 30 -28.5 48z" />
<glyph unicode="&#x219;" horiz-adv-x="999" d="M80 125l22 98q6 29 19 35.5t47 -0.5q159 -27 293 -27q77 0 110 18t33 58q0 43 -24 59.5t-91 24.5q-55 8 -92.5 14.5t-83.5 18.5t-76 26.5t-61 38t-49 52.5t-29.5 70t-11.5 91q0 158 115 243t303 85q77 0 167 -11.5t150 -33.5q46 -15 62 -31.5t8 -52.5l-23 -104 q-8 -29 -17.5 -35t-43.5 -2q-184 24 -291 24q-72 1 -94.5 -15.5t-22.5 -53.5q0 -18 8 -30.5t29 -20.5t38 -11.5t52 -9.5q52 -7 89 -13t81.5 -18t75 -27t61.5 -39.5t49.5 -55t30 -74t11.5 -97.5q0 -74 -25 -132.5t-67 -96t-101 -62.5t-123 -35.5t-137 -10.5 q-76 0 -168.5 12.5t-152.5 32.5q-51 19 -65 38.5t-5 59.5zM328 -573q1 11 28 41q54 54 54 131q0 47 -54 112q-19 20 -25.5 33.5t0 29t29.5 33.5l134 99q20 16 37 16.5t29 -7t32 -26.5q40 -37 62 -91.5t22 -104.5q0 -124 -55 -219t-144 -148q-46 -24 -76 10l-53 56 q-21 24 -20 35z" />
<glyph unicode="&#x21a;" horiz-adv-x="1067" d="M25 1130v187q0 22 9.5 33.5t35.5 11.5h927q21 0 33 -12t12 -33v-187q0 -43 -45 -43h-303v-1042q0 -45 -43 -45h-235q-45 0 -45 45v1042h-301q-26 0 -35.5 11t-9.5 32zM338.5 -573q1.5 11 28.5 41q53 53 53 131q0 48 -53 112q-19 20 -25.5 33.5t0 29t29.5 33.5l133 99 q20 16 37 16.5t29 -7t32 -26.5q40 -37 62 -91.5t22 -104.5q0 -124 -55 -219t-144 -148q-46 -24 -75 10l-54 56q-21 24 -19.5 35z" />
<glyph unicode="&#x21b;" horiz-adv-x="837" d="M49 811v154q0 24 9.5 34.5t33.5 10.5h92v200q0 41 45 54l207 55q22 8 36.5 -1.5t14.5 -33.5v-274h209q26 0 34.5 -9.5t8.5 -33.5v-156q0 -25 -8.5 -35t-34.5 -10h-211l2 -381q0 -34 3 -51t15 -32.5t37.5 -21t69.5 -6.5q27 0 142 9h7.5h7.5t6 -0.5t6 -1t5 -2t5 -4 t3.5 -5.5t3.5 -7.5t2.5 -10t2.5 -12.5l18 -148q6 -23 -5 -41t-32 -24q-128 -43 -299 -43q-93 0 -155.5 26t-93.5 75t-42.5 101.5t-11.5 122.5v457h-90q-24 0 -33.5 10.5t-9.5 34.5zM230 -573q1 11 28 41q53 53 53 131q0 48 -53 112q-19 20 -25.5 33.5t0 29t29.5 33.5l133 99 q20 16 37.5 16.5t29.5 -7.5t32 -26q40 -37 62 -91.5t22 -104.5q0 -124 -55 -219t-144 -148q-46 -24 -76 10l-53 56q-21 24 -20 35z" />
<glyph unicode="&#x259;" horiz-adv-x="1093" d="M80 449q-2 66 24.5 99.5t88.5 33.5h497q-7 112 -58.5 150t-162.5 38q-95 0 -238 -20q-39 -5 -50.5 2.5t-18.5 42.5l-15 98q-3 24 -2 40t13 28t41 24q59 21 154.5 34t172.5 13q120 0 208 -28.5t140 -74.5t83 -115.5t41 -139t10 -158.5q0 -532 -476 -532q-81 0 -147.5 15 t-112.5 40t-80.5 62t-55 76t-33.5 88t-17.5 91.5t-5.5 92.5zM399 397q2 -82 33 -128t105 -46q137 0 149 174h-287z" />
<glyph unicode="&#x2b9;" horiz-adv-x="620" d="M63 866l265 574q17 37 59 18l184 -86q41 -13 13 -55l-320 -547q-17 -26 -45 -16l-143 65q-27 11 -13 47z" />
<glyph unicode="&#x2c6;" horiz-adv-x="1114" d="M135.5 1177q-0.5 10 16.5 29l247 273q14 16 21 21.5t22 10.5t39 5h131q36 0 50 -6t30 -25l250 -281q17 -19 16.5 -29t-16.5 -24l-72 -68q-20 -14 -29.5 -13t-29.5 15l-270 209l-258 -207q-23 -17 -31.5 -18.5t-28.5 14.5l-71 70q-16 14 -16.5 24z" />
<glyph unicode="&#x2c7;" horiz-adv-x="1062" d="M124 1423.5q1 8.5 17 24.5l70 70q11 11 20.5 13t16.5 -2t22 -16l260 -206l269 209q20 14 30.5 15t28.5 -13l72 -68q15 -14 16 -25t-14 -30l-252 -279q-16 -19 -30 -25t-50 -6h-131q-34 0 -48.5 7.5t-33.5 29.5l-248 273q-16 20 -15 28.5z" />
<glyph unicode="&#x2d8;" horiz-adv-x="1107" d="M154.5 1389.5q0.5 4.5 1.5 11t5.5 12t10.5 10.5l74 60q18 12 31 11.5t18.5 -5.5t23.5 -25q67 -81 121 -114t127 -33q68 0 122.5 32.5t119.5 114.5q19 24 33 27.5t39 -10.5l73 -45q17 -11 20 -27.5t-1.5 -28t-18.5 -39.5q-63 -121 -163 -185t-224 -64q-123 0 -233 63.5 t-162 179.5q-1 3 -6 14t-6 14.5t-3.5 12.5t-2 13.5z" />
<glyph unicode="&#x2d9;" horiz-adv-x="999" d="M336 1282q0 152 162 152q93 0 127 -39t34 -113q0 -69 -34 -110.5t-127 -41.5q-50 0 -84 13t-50 36.5t-22 47.5t-6 55z" />
<glyph unicode="&#x2da;" horiz-adv-x="7600" d="M0 287q0 57 21 107t66.5 93.5t130 69t200.5 25.5h200v75q0 164 -200 164q-64 0 -138 -14.5t-116 -29.5l-41 -15l-41 168q176 71 397 71q174 0 259 -65t85 -219v-680q-65 0 -113 5.5t-69.5 11t-22.5 5.5q-4 -3 -12.5 -7.5t-37 -17t-59 -22t-79 -17t-98.5 -7.5 q-66 0 -122.5 15.5t-105 48.5t-76.5 93t-28 142zM213 299q0 -76 44 -103.5t124 -27.5q59 0 131.5 16.5t105.5 42.5v203h-227q-178 0 -178 -131zM1102 0l94 993q71 8 104 8q32 0 49 -1t40.5 -5.5t37 -14t28 -27.5t24.5 -44l186 -473q14 -42 18 -69q6 28 23 71l190 471 q26 63 56 77.5t104 14.5l115 -8l96 -993h-225l-45 670l-207 -502q-12 -30 -35.5 -46t-73.5 -16q-53 0 -77.5 15.5t-36.5 46.5l-193 502l-59 -670h-213zM2472 287q0 57 21 107t66.5 93.5t130 69t200.5 25.5h200v75q0 164 -200 164q-64 0 -138 -14.5t-116 -29.5l-41 -15 l-41 168q176 71 397 71q174 0 259 -65t85 -219v-680q-65 0 -113 5.5t-69.5 11t-22.5 5.5q-4 -3 -12.5 -7.5t-37 -17t-59 -22t-79 -17t-98.5 -7.5q-66 0 -122.5 15.5t-105 48.5t-76.5 93t-28 142zM2685 299q0 -76 44 -103.5t124 -27.5q59 0 131.5 16.5t105.5 42.5v203h-227 q-178 0 -178 -131zM3625 18v924q157 59 389 59q236 0 372 -131t136 -362q0 -267 -126.5 -394.5t-412.5 -127.5q-198 0 -358 32zM3834 180q74 -16 164 -16t148 19.5t91.5 63.5t46.5 105.5t13 155.5q0 87 -22.5 152t-63 102.5t-89.5 55.5t-108 18q-95 0 -180 -13v-643z M4786 33v925q17 5 49 12t137 19t218 12q79 0 150 -4t102 -8l32 -4v-172q-120 25 -270 25q-53 0 -105 -4t-78 -8l-26 -3v-239h432v-162h-432v-242q12 -2 32.5 -4.5t79.5 -6.5t113 -3q72 1 139 7.5t97 12.5l31 7v-175q-105 -30 -328 -30q-93 0 -186 11t-140 23zM5741 373v614 q83 14 190 14h33v-593q0 -124 36 -177t144 -53q58 0 134 25.5t118 50.5v747h47q98 0 178 -14v-950q-59 0 -113 9.5t-78 18.5l-24 9q-2 0 -18.5 -9t-45.5 -21.5t-67 -25t-92 -21.5t-111 -9q-96 0 -161 23.5t-102 74t-52.5 119.5t-15.5 168zM6869 31l45 164q133 -31 268 -31 q195 0 195 117q0 14 -5 26t-19.5 23.5t-24.5 19t-35.5 19.5t-36.5 16.5t-43 17.5l-30 12q-42 17 -63 26t-58.5 27t-58 33t-47 38.5t-40 48t-23.5 58t-10 71.5q0 70 30.5 126t82.5 89.5t114.5 51t131.5 17.5q107 0 192 -21t123 -40l-45 -164q-15 7 -41 17.5t-93 27.5t-120 17 q-47 0 -79.5 -11.5t-46 -31t-18.5 -34.5t-5 -30q0 -34 29 -62t54.5 -40t89.5 -37q6 -3 9 -4q78 -33 128.5 -59.5t95 -62.5t65 -80t20.5 -99q0 -69 -25 -122.5t-64.5 -86.5t-94 -54.5t-108 -29.5t-111.5 -8q-87 0 -169 11t-120 23z" />
<glyph unicode="&#x2db;" horiz-adv-x="862" d="M233 -186q0 144 150 274h170q-119 -135 -119 -252q0 -72 88 -72q43 0 113 17q30 7 37 -14q4 -12 24 -78q11 -32 -22 -45q-84 -43 -211 -43q-111 0 -170.5 58.5t-59.5 154.5z" />
<glyph unicode="&#x2dc;" horiz-adv-x="1116" d="M141 1208q46 120 117 176t148 56q50 0 114.5 -25t122.5 -50.5t92 -25.5q68 0 115 78q8 16 21 17t34 -9l76 -41q17 -7 20.5 -17.5t-2.5 -29.5q-51 -122 -115.5 -172.5t-146.5 -50.5q-47 0 -167 49t-162 49q-70 0 -121 -75q-12 -17 -18.5 -19t-32.5 8l-78 35q-29 15 -17 47 z" />
<glyph unicode="&#x2dd;" horiz-adv-x="1220" d="M303 1210l189 353q24 39 57 18l158 -88q38 -22 10 -61l-242 -310q-25 -32 -51 -18l-109 57q-30 19 -12 49zM662 1210l188 353q21 38 57 18l156 -88q38 -20 12 -61l-241 -310q-25 -32 -52 -18l-108 57q-30 19 -12 49z" />
<glyph unicode="&#x384;" horiz-adv-x="1097" d="M428 1210l188 353q21 38 58 18l155 -88q42 -22 11 -61l-240 -310q-25 -32 -53 -18l-107 57q-28 18 -12 49z" />
<glyph unicode="&#x385;" horiz-adv-x="1054" d="M47 1264q0 67 32 103t118 36q89 0 120 -34.5t31 -104.5q0 -33 -6 -56.5t-21 -45t-46 -33t-78 -11.5q-48 0 -80 11.5t-46 34t-19 45t-5 55.5zM365 1188l147 371q16 41 53 24l166 -70q46 -16 17 -59l-203 -334q-21 -35 -49 -24l-113 45q-30 13 -18 47zM698 1264 q0 67 32.5 103t117.5 36q90 0 120.5 -34t30.5 -105q0 -69 -30.5 -107.5t-120.5 -38.5q-89 0 -119.5 39t-30.5 107z" />
<glyph unicode="&#x386;" horiz-adv-x="1265" d="M-205 1024l189 352q21 39 57 19l156 -88q42 -22 10 -62l-240 -309q-25 -32 -53 -18l-107 57q-28 18 -12 49zM17.5 9.5q-6.5 9.5 2.5 43.5l396 1250q10 31 26 45t54 14h258q39 0 53.5 -13.5t26.5 -48.5l411 -1251q7 -25 2 -37t-26 -12h-254q-32 0 -46 14t-24 49l-68 244 h-407l-74 -250q-16 -57 -72 -57h-227q-25 0 -31.5 9.5zM492 557h266l-62 225l-65 250h-10l-68 -248z" />
<glyph unicode="&#x387;" horiz-adv-x="479" d="M76 776q0 71 36.5 112.5t127.5 41.5q94 0 128.5 -39t34.5 -115q0 -33 -6.5 -58t-22.5 -48.5t-50 -36t-84 -12.5q-52 0 -86.5 13t-50.5 37t-21.5 48t-5.5 57z" />
<glyph unicode="&#x388;" horiz-adv-x="1142" d="M-375 1024l189 352q21 39 57 19l156 -88q42 -22 10 -62l-240 -309q-25 -32 -53 -18l-106 57q-29 18 -13 49zM139 43v1272q0 47 45 47h813q20 0 31.5 -12.5t11.5 -32.5v-187q0 -43 -45 -43h-530v-247h463q22 0 34.5 -11.5t12.5 -31.5v-187q0 -43 -47 -43h-463v-295h541 q21 0 33 -12t12 -33v-186q0 -41 -45 -41h-822q-45 0 -45 43z" />
<glyph unicode="&#x389;" horiz-adv-x="1325" d="M-367 1024l189 352q21 39 57 19l156 -88q42 -22 10 -62l-240 -309q-25 -32 -53 -18l-106 57q-29 18 -13 49zM137 45v1270q0 47 45 47h238q43 0 43 -47v-471h399v471q0 47 45 47h238q43 0 43 -47v-1270q0 -45 -43 -45h-238q-45 0 -45 45v524h-399v-524q0 -45 -43 -45h-238 q-45 0 -45 45z" />
<glyph unicode="&#x38a;" horiz-adv-x="622" d="M-346 1024l188 352q22 39 58 19l155 -88q43 -22 11 -62l-240 -309q-25 -32 -53 -18l-107 57q-28 18 -12 49zM147 45v1270q0 47 43 47h240q43 0 43 -47v-1270q0 -45 -43 -45h-240q-43 0 -43 45z" />
<glyph unicode="&#x38c;" horiz-adv-x="1411" d="M-297 1024l188 352q22 39 58 19l155 -88q43 -22 11 -62l-240 -309q-25 -32 -53 -18l-107 57q-28 18 -12 49zM117 698q0 59 4.5 114.5t20 126t40.5 129.5t70 118t104 100t147.5 66.5t196.5 25.5q107 0 194 -21t147.5 -56.5t106 -88.5t72.5 -110t44 -128t22.5 -135.5 t5.5 -140.5q0 -75 -4.5 -137.5t-20 -138.5t-41 -136t-70.5 -119t-106 -98t-151 -63t-201 -24t-199.5 24t-148.5 63t-104 98.5t-68 118.5t-38.5 136t-18.5 138.5t-4 137.5zM461 676q0 -216 52.5 -315t188.5 -99q141 0 198.5 99t57.5 315q0 226 -56 324t-200 98 q-133 0 -187 -100.5t-54 -321.5z" />
<glyph unicode="&#x38e;" horiz-adv-x="1288" d="M-434 1024l188 352q22 39 58 19l155 -88q42 -22 10 -62l-239 -309q-25 -32 -53 -18l-107 57q-28 18 -12 49zM23 1346.5q6 15.5 28 15.5h244q35 0 50 -9.5t30 -39.5l135 -269l121 -245h12l127 248l131 251q17 36 32.5 50t47.5 14h246q23 0 29.5 -14t-3.5 -31l-462 -817 v-455q0 -45 -41 -45h-238q-45 0 -45 45v455l-440 811q-10 20 -4 35.5z" />
<glyph unicode="&#x38f;" horiz-adv-x="1421" d="M-287 1024l189 352q21 39 57 19l156 -88q42 -22 10 -62l-240 -309q-25 -32 -53 -18l-106 57q-29 18 -13 49zM86 43v180q0 21 9.5 31t35.5 10h117l4 4q-49 39 -81 121.5t-42 158.5t-10 150q0 60 6 119t23.5 128t45 128.5t73.5 116.5t106 97t146 64.5t190 24.5 q142 0 250.5 -40t173 -104.5t105 -156t55 -182t14.5 -195.5t-34.5 -230.5t-103.5 -197.5q0 -1 1 -3t1 -3h111q26 0 35.5 -10t9.5 -31v-180q0 -22 -9.5 -32.5t-35.5 -10.5h-453q-45 0 -45 43v217q0 8 2 15t4 11.5t7.5 10t8 7.5t9.5 7t8 6q79 44 114.5 133t35.5 226 q0 101 -12.5 174.5t-41 130.5t-80.5 86t-126 29q-252 0 -252 -420q0 -147 29.5 -231.5t93.5 -122.5q1 -1 8 -6t9.5 -7t8 -8t7.5 -10.5t4 -13t2 -17.5v-217q0 -43 -43 -43h-451q-26 0 -34.5 10.5t-8.5 32.5z" />
<glyph unicode="&#x390;" horiz-adv-x="567" d="M-197 1264q0 67 32 103t118 36q89 0 120 -34.5t31 -104.5q0 -33 -6 -56.5t-21 -45t-46 -33t-78 -11.5q-48 0 -80 11.5t-46 34t-19 45t-5 55.5zM121 1188l147 371q16 41 54 24l165 -70q46 -16 17 -59l-203 -334q-21 -35 -49 -24l-113 45q-30 13 -18 47zM125 45v922 q0 23 10 34t35 11h225q41 0 41 -45v-922q0 -45 -41 -45h-225q-45 0 -45 45zM455 1264q0 67 32 103t117 36q90 0 121 -34.5t31 -104.5q0 -69 -31 -107.5t-121 -38.5q-89 0 -119 38.5t-30 107.5z" />
<glyph unicode="&#x391;" horiz-adv-x="1265" d="M17.5 9.5q-6.5 9.5 2.5 43.5l396 1250q10 31 26 45t54 14h258q39 0 53.5 -13.5t26.5 -48.5l411 -1251q7 -25 2 -37t-26 -12h-254q-32 0 -46 14t-24 49l-68 244h-407l-74 -250q-16 -57 -72 -57h-227q-25 0 -31.5 9.5zM492 557h266l-62 225l-65 250h-10l-68 -248z" />
<glyph unicode="&#x392;" horiz-adv-x="1269" d="M137 45v1270q0 45 45 45l520 2q207 0 316.5 -100.5t109.5 -278.5q0 -29 -6 -61t-21 -70t-46 -72.5t-74 -56.5l2 -8q56 -22 95 -61t56.5 -86.5t24 -86t6.5 -78.5q0 -123 -60.5 -216.5t-156.5 -140t-209 -46.5h-555q-47 0 -47 45zM463 272h211q157 0 157 148 q0 68 -39 110.5t-118 42.5h-211v-301zM463 836h196q62 0 99 34.5t37 90.5q0 59 -36 94t-110 35h-186v-254z" />
<glyph unicode="&#x393;" horiz-adv-x="1058" d="M137 1317q0 45 45 45h799q20 0 32.5 -12.5t12.5 -32.5v-187q0 -43 -47 -43h-514v-1042q0 -45 -43 -45h-238q-45 0 -45 45z" />
<glyph unicode="&#x394;" horiz-adv-x="1265" d="M16 29q0 6 4 22l400 1249q10 33 26.5 46.5t57.5 13.5h241q41 0 55.5 -13.5t26.5 -48.5l416 -1251q4 -12 4 -18q0 -29 -28 -29h-1170q-33 0 -33 29zM401 268h437q-13 50 -93 331.5t-116 424.5h-11q-52 -203 -69 -262q-8 -31 -77 -259t-71 -235z" />
<glyph unicode="&#x395;" horiz-adv-x="1142" d="M139 43v1272q0 47 45 47h813q20 0 31.5 -12.5t11.5 -32.5v-187q0 -43 -45 -43h-530v-247h463q22 0 34.5 -11.5t12.5 -31.5v-187q0 -43 -47 -43h-463v-295h541q21 0 33 -12t12 -33v-186q0 -41 -45 -41h-822q-45 0 -45 43z" />
<glyph unicode="&#x396;" horiz-adv-x="1126" d="M86 43v166q0 48 27 82l559 796h-500q-26 0 -35.5 11t-9.5 32v187q0 22 9.5 33.5t35.5 11.5h823q19 0 31 -12t12 -31l-2 -150q0 -53 -26 -98l-561 -799h548q26 0 35.5 -11t9.5 -32v-184q0 -22 -9 -33.5t-34 -11.5h-868q-20 0 -32.5 11.5t-12.5 31.5z" />
<glyph unicode="&#x397;" horiz-adv-x="1325" d="M137 45v1270q0 47 45 47h238q43 0 43 -47v-471h399v471q0 47 45 47h238q43 0 43 -47v-1270q0 -45 -43 -45h-238q-45 0 -45 45v524h-399v-524q0 -45 -43 -45h-238q-45 0 -45 45z" />
<glyph unicode="&#x398;" horiz-adv-x="1417" d="M117 698q0 59 4.5 114.5t20 126t40.5 129.5t70 118t104.5 100t148.5 66.5t197 25.5q107 0 194.5 -21t149 -56.5t107.5 -88.5t73.5 -110t44.5 -128t23 -136t6 -140q0 -74 -5 -137.5t-20.5 -139t-41.5 -135.5t-71.5 -119t-107 -98t-151.5 -63t-201 -24t-200.5 24t-149.5 63 t-104.5 98.5t-69 118.5t-39 135.5t-18.5 138.5t-4 138zM461 676q0 -213 55 -313.5t189 -100.5q139 0 199.5 100.5t60.5 313.5q0 226 -57 324t-203 98q-133 0 -188.5 -101t-55.5 -321zM535 602v172q0 41 45 41h262q22 0 32.5 -9t10.5 -32v-172q0 -43 -43 -43h-262 q-45 0 -45 43z" />
<glyph unicode="&#x399;" horiz-adv-x="622" d="M147 45v1270q0 47 43 47h240q43 0 43 -47v-1270q0 -45 -43 -45h-240q-43 0 -43 45z" />
<glyph unicode="&#x39a;" horiz-adv-x="1267" d="M125 45v1270q0 47 45 47h238q43 0 43 -47v-484h4l147 193l240 297q35 41 92 41h264q32 0 39 -17t-12 -40l-441 -531l457 -713q18 -32 9.5 -46.5t-33.5 -14.5h-271q-34 0 -53.5 13t-36.5 40l-285 465l-120 -149v-324q0 -45 -43 -45h-238q-45 0 -45 45z" />
<glyph unicode="&#x39b;" horiz-adv-x="1265" d="M16 29q0 6 4 22l400 1249q10 33 26.5 46.5t57.5 13.5h241q41 0 55.5 -13.5t26.5 -48.5l416 -1251q4 -12 4 -18q0 -29 -28 -29h-252q-31 0 -44.5 13.5t-23.5 47.5q-17 60 -89 309t-110 386l-71 268h-11q-8 -30 -20 -81t-23 -94t-24 -87q-12 -44 -105 -363t-100 -344 q-9 -31 -26 -43t-46 -12h-225q-33 0 -33 29z" />
<glyph unicode="&#x39c;" horiz-adv-x="1597" d="M139 45v1272q0 45 43 45h176q40 0 58.5 -10.5t32.5 -38.5l198 -404l152 -317h8l156 321l198 398q15 28 32.5 39.5t55.5 11.5h168q41 0 41 -45v-1272q0 -45 -41 -45h-229q-45 0 -45 45v627l-6 2l-72 -160l-129 -264q-15 -27 -34 -40t-52 -13h-100q-34 0 -52.5 11.5 t-33.5 37.5l-134 274l-71 156l-4 -2v-629q0 -45 -43 -45h-230q-43 0 -43 45z" />
<glyph unicode="&#x39d;" horiz-adv-x="1372" d="M135 43v1272q0 45 45 45h168q29 0 48.5 -9t27 -18.5t22.5 -32.5q126 -188 463 -708q1 0 3 1t3 1v719q0 47 46 47h227q43 0 43 -47v-1270q0 -43 -43 -43h-168q-34 0 -53 11t-35 36q-233 349 -311 465l-162 250h-6v-719q0 -43 -43 -43h-228q-47 0 -47 43z" />
<glyph unicode="&#x39e;" horiz-adv-x="1185" d="M80 41v186q0 21 12 33t33 12h307v295h-217q-45 0 -45 43v187q0 43 45 43h217v247h-287q-45 0 -45 43v187q0 21 12 33t33 12h893q21 0 33 -12t12 -33v-187q0 -43 -45 -43h-286v-247h217q20 0 32.5 -11.5t12.5 -31.5v-187q0 -43 -45 -43h-217v-295h307q20 0 32.5 -12.5 t12.5 -32.5v-186q0 -41 -47 -41h-932q-45 0 -45 41z" />
<glyph unicode="&#x39f;" horiz-adv-x="1411" d="M117 698q0 59 4.5 114.5t20 126t40.5 129.5t70 118t104 100t147.5 66.5t196.5 25.5q107 0 194 -21t147.5 -56.5t106 -88.5t72.5 -110t44 -128t22.5 -135.5t5.5 -140.5q0 -75 -4.5 -137.5t-20 -138.5t-41 -136t-70.5 -119t-106 -98t-151 -63t-201 -24t-199.5 24t-148.5 63 t-104 98.5t-68 118.5t-38.5 136t-18.5 138.5t-4 137.5zM461 676q0 -216 52.5 -315t188.5 -99q141 0 198.5 99t57.5 315q0 226 -56 324t-200 98q-133 0 -187 -100.5t-54 -321.5z" />
<glyph unicode="&#x3a0;" horiz-adv-x="1327" d="M139 45v1270q0 47 43 47h965q41 0 41 -47v-1270q0 -45 -41 -45h-238q-45 0 -45 45v1042h-401v-1042q0 -45 -43 -45h-238q-43 0 -43 45z" />
<glyph unicode="&#x3a1;" horiz-adv-x="1161" d="M137 45v1272q0 45 45 45h475q131 0 234 -45.5t166 -143t63 -235.5q0 -62 -11.5 -118.5t-43.5 -116.5t-82 -103.5t-134 -71.5t-192 -28h-194v-455q0 -45 -43 -45h-238q-45 0 -45 45zM463 764h151q81 0 126.5 42t45.5 124q0 79 -47 119.5t-129 40.5h-147v-326z" />
<glyph unicode="&#x3a3;" horiz-adv-x="1083" d="M76 1178v129q0 21 12.5 36t34.5 15h831q27 0 36 -11t9 -34v-187q0 -21 -9 -32t-36 -11h-514l224 -309q41 -52 41 -80q0 -16 -21 -51l-238 -373h541q26 0 35.5 -10t9.5 -31v-186q0 -22 -9.5 -32.5t-35.5 -10.5h-858q-43 0 -43 43v137q0 32 9.5 56.5t35.5 68.5l238 393 l-258 371q-22 31 -28.5 54t-6.5 55z" />
<glyph unicode="&#x3a4;" horiz-adv-x="1067" d="M25 1130v187q0 22 9.5 33.5t35.5 11.5h927q21 0 33 -12t12 -33v-187q0 -43 -45 -43h-303v-1042q0 -45 -43 -45h-235q-45 0 -45 45v1042h-301q-26 0 -35.5 11t-9.5 32z" />
<glyph unicode="&#x3a5;" horiz-adv-x="1288" d="M23 1346.5q6 15.5 28 15.5h244q35 0 50 -9.5t30 -39.5l135 -269l121 -245h12l127 248l131 251q17 36 32.5 50t47.5 14h246q23 0 29.5 -14t-3.5 -31l-462 -817v-455q0 -45 -41 -45h-238q-45 0 -45 45v455l-440 811q-10 20 -4 35.5z" />
<glyph unicode="&#x3a6;" horiz-adv-x="1699" d="M115 711q0 62 13.5 126.5t53 142.5t101 139t168.5 107t245 56v33q0 47 45 47h236q45 0 45 -47v-33q132 -11 234 -52t162.5 -97.5t99 -131t52 -144.5t13.5 -146q0 -79 -14 -151.5t-52.5 -150.5t-99 -137t-162 -103t-233.5 -56v-68q0 -45 -45 -45h-236q-45 0 -45 45v66 q-102 6 -187 31t-144 60.5t-104 84.5t-72.5 99.5t-44.5 109.5t-23 110t-6 105zM453 696q0 -141 58.5 -218.5t184.5 -96.5v635q-123 -17 -183 -100t-60 -220zM1022 385q233 29 233 309q0 286 -233 318v-627z" />
<glyph unicode="&#x3a7;" horiz-adv-x="1206" d="M31 17q-5 17 10 40l377 637l-355 609q-13 23 -5.5 41t34.5 18h254q30 0 42 -8.5t26 -36.5l94 -182l90 -181l92 191l88 170q12 25 26 35t40 10h260q25 1 35.5 -8t8.5 -20t-9 -23l-365 -615l379 -641q12 -15 7 -34t-34 -19h-256q-26 0 -41 9t-30 34l-101 193l-102 202 l-100 -202l-99 -187q-14 -28 -30.5 -38.5t-47.5 -10.5h-256q-27 0 -32 17z" />
<glyph unicode="&#x3a8;" horiz-adv-x="1636" d="M119 846v469q0 47 43 47h231q43 0 43 -47v-467q0 -117 61 -187.5t156 -78.5v733q0 47 47 47h238q41 0 41 -47v-733q96 11 157.5 81t61.5 185v467q0 47 45 47h227q41 0 41 -47q0 -27 1 -127.5t1 -341.5q0 -232 -140.5 -378.5t-393.5 -158.5v-264q0 -45 -43 -45h-236 q-47 0 -47 45v264q-115 5 -205.5 34.5t-151.5 77.5t-101.5 115t-58 143.5t-17.5 166.5z" />
<glyph unicode="&#x3a9;" horiz-adv-x="1421" d="M86 43v180q0 21 9.5 31t35.5 10h117l4 4q-49 39 -81 121.5t-42 158.5t-10 150q0 60 6 119t23.5 128t45 128.5t73.5 116.5t106 97t146 64.5t190 24.5q142 0 250.5 -40t173 -104.5t105 -156t55 -182t14.5 -195.5t-34.5 -230.5t-103.5 -197.5q0 -1 1 -3t1 -3h111 q26 0 35.5 -10t9.5 -31v-180q0 -22 -9.5 -32.5t-35.5 -10.5h-453q-45 0 -45 43v217q0 8 2 15t4 11.5t7.5 10t8 7.5t9.5 7t8 6q79 44 114.5 133t35.5 226q0 101 -12.5 174.5t-41 130.5t-80.5 86t-126 29q-252 0 -252 -420q0 -147 29.5 -231.5t93.5 -122.5q1 -1 8 -6t9.5 -7 t8 -8t7.5 -10.5t4 -13t2 -17.5v-217q0 -43 -43 -43h-451q-26 0 -34.5 10.5t-8.5 32.5z" />
<glyph unicode="&#x3aa;" horiz-adv-x="622" d="M-45 1567q0 67 31.5 103t117.5 36q89 0 120.5 -34.5t31.5 -104.5q0 -68 -31.5 -107t-120.5 -39q-48 0 -79.5 11.5t-46 34t-19 45t-4.5 55.5zM147 45v1270q0 47 43 47h240q43 0 43 -47v-1270q0 -45 -43 -45h-240q-43 0 -43 45zM375 1567q0 67 32.5 103t118.5 36 q89 0 119.5 -34.5t30.5 -104.5q0 -69 -31 -107.5t-119 -38.5q-48 0 -80 11.5t-46.5 34t-19.5 45t-5 55.5z" />
<glyph unicode="&#x3ab;" horiz-adv-x="1288" d="M23 1346.5q6 15.5 28 15.5h244q35 0 50 -9.5t30 -39.5l135 -269l121 -245h12l127 248l131 251q17 36 32.5 50t47.5 14h246q23 0 29.5 -14t-3.5 -31l-462 -817v-455q0 -45 -41 -45h-238q-45 0 -45 45v455l-440 811q-10 20 -4 35.5zM274 1567q0 67 32 103t118 36 q89 0 120 -34.5t31 -104.5q0 -33 -6 -56.5t-21 -45t-46 -33t-78 -11.5q-48 0 -80 11.5t-46 34t-19 45t-5 55.5zM694 1567q0 67 33 103t119 36q89 0 119 -34t30 -105q0 -69 -30.5 -107.5t-118.5 -38.5q-49 0 -80.5 11.5t-46.5 34t-20 45t-5 55.5z" />
<glyph unicode="&#x3ac;" horiz-adv-x="1185" d="M82 496q0 112 22 205.5t68 168t124.5 116.5t182.5 42q136 0 248 -80l4 2v23q0 22 8.5 30.5t34.5 8.5h215q43 0 43 -45v-660q0 -57 8.5 -69t46.5 -17q26 -1 33.5 -8.5t7.5 -26.5v-131q0 -23 -13.5 -35t-43.5 -18q-57 -14 -127 -14q-84 0 -133 28t-68 105l-4 2 q-154 -139 -325 -139q-79 0 -138 26t-95.5 70.5t-59 111.5t-31 139.5t-8.5 164.5zM399 492q0 -96 14 -148.5t39.5 -71t71.5 -18.5q39 0 96 19t101 42v394q-84 36 -154 36q-87 0 -127.5 -61t-40.5 -192zM442 1210l189 353q21 38 57 18l156 -88q42 -22 10 -61l-240 -310 q-25 -32 -53 -18l-106 57q-29 18 -13 49z" />
<glyph unicode="&#x3ad;" horiz-adv-x="985" d="M86 307q0 64 34 124.5t103 94.5v4q-62 30 -91.5 79.5t-29.5 103.5q0 74 28.5 132t73 92.5t104.5 57t116 31t115 8.5q87 0 180.5 -13t152.5 -40q29 -13 39.5 -29.5t3.5 -46.5l-20 -106q-6 -31 -18 -36.5t-58 -2.5q-148 18 -264 18q-125 0 -125 -78q0 -73 143 -73h103 q27 0 36 -7.5t9 -29.5v-135q0 -23 -9.5 -31t-35.5 -8h-121q-29 0 -50.5 -2.5t-44 -10.5t-34.5 -25.5t-12 -43.5q0 -51 32.5 -73.5t108.5 -22.5q152 0 295 20q33 3 44 -3.5t17 -33.5l21 -98q10 -36 0.5 -55t-53.5 -37q-60 -24 -154 -36.5t-170 -12.5q-469 0 -469 325z M383 1210l188 353q21 38 58 18l155 -88q42 -22 11 -61l-240 -310q-25 -32 -53 -18l-107 57q-28 18 -12 49z" />
<glyph unicode="&#x3ae;" horiz-adv-x="1142" d="M96 43v922q0 45 45 45h224q43 0 43 -45v-50q1 0 3 -1t3 -1q67 51 157 83t164 32q61 0 109 -13t80 -33t55 -53t35.5 -65t19.5 -77t8.5 -79.5t1.5 -82.5v-582q0 -43 -43 -43h-225q-45 0 -45 43q0 90 1 269t1 268q0 84 -29.5 120.5t-95.5 36.5q-30 0 -66 -10.5t-79.5 -27.5 t-54.5 -21v-635q0 -43 -43 -43h-224q-25 0 -35 10.5t-10 32.5zM391 1210l189 353q21 38 57 18l156 -88q42 -22 10 -61l-240 -310q-25 -32 -53 -18l-107 57q-28 18 -12 49z" />
<glyph unicode="&#x3af;" horiz-adv-x="567" d="M125 45v922q0 23 10 34t35 11h225q41 0 41 -45v-922q0 -45 -41 -45h-225q-45 0 -45 45zM154 1210l188 353q21 38 57 18l156 -88q42 -22 10 -61l-239 -310q-25 -32 -54 -18l-106 57q-28 18 -12 49z" />
<glyph unicode="&#x3b0;" horiz-adv-x="1136" d="M96 1264q0 67 32 103t118 36q89 0 120 -34.5t31 -104.5q0 -33 -6 -56.5t-21 -45t-46 -33t-78 -11.5q-48 0 -80 11.5t-46 34t-19 45t-5 55.5zM100 393v574q0 45 43 45h224q25 0 35 -11t10 -34v-555q0 -76 31 -120t118 -44q85 0 123.5 46t38.5 118v555q0 45 45 45h225 q43 0 43 -45v-574q0 -86 -30 -159t-87.5 -129t-149.5 -87.5t-208 -31.5q-234 0 -347.5 108.5t-113.5 298.5zM414 1188l147 371q16 41 53 24l166 -70q46 -16 17 -59l-203 -334q-21 -35 -49 -24l-113 45q-30 13 -18 47zM748 1264q0 67 32 103t117 36q90 0 121 -34.5t31 -104.5 q0 -69 -31 -107.5t-121 -38.5q-89 0 -119 38.5t-30 107.5z" />
<glyph unicode="&#x3b1;" horiz-adv-x="1185" d="M82 496q0 112 22 205.5t68 168t124.5 116.5t182.5 42q136 0 248 -80l4 2v23q0 22 8.5 30.5t34.5 8.5h215q43 0 43 -45v-660q0 -57 8.5 -69t46.5 -17q26 -1 33.5 -8.5t7.5 -26.5v-131q0 -23 -13.5 -35t-43.5 -18q-57 -14 -127 -14q-84 0 -133 28t-68 105l-4 2 q-154 -139 -325 -139q-79 0 -138 26t-95.5 70.5t-59 111.5t-31 139.5t-8.5 164.5zM399 492q0 -96 14 -148.5t39.5 -71t71.5 -18.5q39 0 96 19t101 42v394q-84 36 -154 36q-87 0 -127.5 -61t-40.5 -192z" />
<glyph unicode="&#x3b2;" horiz-adv-x="1128" d="M92 -274v1263q0 112 34 201.5t94 147.5t140.5 89t174.5 31q198 0 316 -100t118 -273q0 -61 -31 -131t-94 -110q65 -26 107.5 -66t61.5 -91t25 -94t6 -99q0 -129 -20 -221t-66 -159t-124.5 -100t-192.5 -34q-99 0 -235 28v-282q0 -45 -44 -45h-225q-45 0 -45 45zM406 268 q75 -22 159 -22q87 0 122.5 51.5t35.5 194.5q0 111 -32.5 156t-108.5 48q-33 0 -68 -2q-33 0 -33 27v137q0 18 5 28t22 15q75 23 114.5 59.5t39.5 114.5q0 53 -33 90t-92 37q-41 0 -68.5 -19t-40.5 -54t-17.5 -69.5t-4.5 -78.5v-713z" />
<glyph unicode="&#x3b3;" horiz-adv-x="1103" d="M6 958q-3 16 1 26t22 17q85 33 159 33q51 0 85.5 -11.5t57.5 -39.5t36.5 -56.5t29.5 -78.5l160 -500h10l101 322l100 299q7 22 20.5 31.5t49.5 9.5h209q31 0 38.5 -9.5t-0.5 -31.5q0 -4 -370 -963v-360q0 -45 -43 -45h-226q-45 0 -45 45v348l-264 729q-6 19 -10.5 28.5 t-15.5 17t-29 7.5h-14q-17 0 -23.5 3.5t-9.5 17.5z" />
<glyph unicode="&#x3b4;" horiz-adv-x="1130" d="M86 506q0 50 11 104t34 111t66.5 107.5t101.5 80.5q-73 43 -105 98.5t-32 129.5q0 158 115 242.5t303 84.5q75 2 162.5 -10t148.5 -35q46 -15 62.5 -31.5t9.5 -52.5l-21 -96q-7 -33 -23.5 -41t-62.5 0q-147 21 -264 21q-63 1 -90 -15.5t-27 -54.5q0 -35 44.5 -60.5 t132.5 -59.5t141 -66q62 -37 105 -75.5t77 -91.5t50.5 -125t16.5 -165q0 -53 -4 -98.5t-16.5 -100.5t-34 -99t-58.5 -87t-86 -72t-122 -47t-162 -18q-90 0 -162.5 18t-121 46.5t-84.5 72.5t-55.5 87t-31.5 99t-15 100.5t-3 98.5zM408 492q0 -133 31 -188.5t118 -55.5 q95 0 131.5 61.5t36.5 182.5q4 230 -172 266q-70 -30 -107.5 -98t-37.5 -168z" />
<glyph unicode="&#x3b5;" horiz-adv-x="985" d="M86 307q0 64 34 124.5t103 94.5v4q-62 30 -91.5 79.5t-29.5 103.5q0 74 28.5 132t73 92.5t104.5 57t116 31t115 8.5q87 0 180.5 -13t152.5 -40q29 -13 39.5 -29.5t3.5 -46.5l-20 -106q-6 -31 -18 -36.5t-58 -2.5q-148 18 -264 18q-125 0 -125 -78q0 -73 143 -73h103 q27 0 36 -7.5t9 -29.5v-135q0 -23 -9.5 -31t-35.5 -8h-121q-29 0 -50.5 -2.5t-44 -10.5t-34.5 -25.5t-12 -43.5q0 -51 32.5 -73.5t108.5 -22.5q152 0 295 20q33 3 44 -3.5t17 -33.5l21 -98q10 -36 0.5 -55t-53.5 -37q-60 -24 -154 -36.5t-170 -12.5q-469 0 -469 325z" />
<glyph unicode="&#x3b6;" horiz-adv-x="1067" d="M84 326q0 125 111 241.5t266 192.5h-303q-25 0 -35 10.5t-10 36.5v162q0 43 45 43h817q26 0 34.5 -9.5t8.5 -31.5v-127q0 -21 -1 -32t-9.5 -25.5t-24.5 -22.5q-240 -126 -330 -184q-220 -142 -221 -240q0 -34 26.5 -57t75.5 -35t103.5 -16.5t126.5 -4.5q6 0 54 1t54 1 q40 0 55.5 -8.5t30.5 -38.5l43 -94q12 -18 10.5 -40t-20.5 -54q-86 -146 -139 -303q-15 -45 -31 -56t-53 3l-147 53q-27 9 -34.5 26.5t1.5 51.5q24 87 90 202q-102 4 -188.5 17.5t-162.5 41t-129 67t-83.5 98t-30.5 131.5z" />
<glyph unicode="&#x3b7;" horiz-adv-x="1140" d="M96 43v922q0 45 45 45h224q43 0 43 -45v-50q1 0 3 -1t3 -1q67 51 157 83t164 32q61 0 109 -13t80 -33t55 -53t35.5 -65t19.5 -77t8.5 -79.5t1.5 -82.5v-582q0 -43 -43 -43h-225q-45 0 -45 43v537q0 85 -28.5 121t-94.5 36q-26 0 -61.5 -10t-82 -28t-56.5 -21v-635 q0 -43 -43 -43h-224q-25 0 -35 10.5t-10 32.5z" />
<glyph unicode="&#x3b8;" horiz-adv-x="1175" d="M84 737q0 69 3.5 128.5t16 135.5t33.5 136.5t59 121t89 101.5t127 66.5t170 25.5t169.5 -20.5t128.5 -55t92 -88t62 -111.5t37 -134t18.5 -147t4.5 -159q0 -64 -1.5 -114t-8 -114.5t-17 -115t-29.5 -107t-45 -98.5t-65 -82t-88 -65.5t-114.5 -41t-143.5 -15.5 q-77 0 -140.5 14.5t-111.5 38.5t-85.5 62.5t-63 78.5t-44 96.5t-28.5 106t-16 116t-7.5 118.5t-1.5 122zM406 641q0 -209 39.5 -303t138.5 -94q107 0 148.5 88.5t39.5 308.5h-366zM410 864h358q-6 178 -46 254t-138 76q-165 0 -174 -330z" />
<glyph unicode="&#x3b9;" horiz-adv-x="567" d="M125 45v922q0 23 10 34t35 11h225q41 0 41 -45v-922q0 -45 -41 -45h-225q-45 0 -45 45z" />
<glyph unicode="&#x3ba;" horiz-adv-x="1085" d="M100 45v918q0 47 45 47h224q43 0 43 -47v-281l6 -2l129 147l123 140q21 25 40 35t56 10h233q36 0 42 -16.5t-17 -39.5l-313 -338l358 -561q15 -25 5.5 -41t-38.5 -16h-225q-42 0 -63 12t-35 37l-207 344l-94 -102v-246q0 -45 -43 -45h-224q-45 0 -45 45z" />
<glyph unicode="&#x3bb;" horiz-adv-x="1044" d="M10 23q0 6 4 18q67 172 192 485.5t173 436.5q-8 24 -22.5 74t-22.5 75q-19 58 -38 78t-67 20q-7 0 -22.5 -1t-22.5 -1q-25 0 -28 25l-25 139q-5 18 -0.5 31t25.5 20q89 31 180 31q117 0 178.5 -42t95.5 -155l303 -974q6 -19 9 -26.5t10 -18t17 -14t26 -3.5h20q15 0 20 -5 t7 -19l10 -138q3 -36 -22 -47q-52 -20 -138 -20q-108 0 -165.5 52t-94.5 181l-100 346h-6l-199 -538q-6 -19 -14 -26t-25 -7h-231q-27 0 -27 23z" />
<glyph unicode="&#x3bc;" horiz-adv-x="1136" d="M94 -354v1319q0 45 43 45h228q43 0 43 -45v-551q0 -80 28.5 -112t93.5 -32q46 0 100 18t93 42v635q0 45 43 45h225q45 0 45 -45v-922q0 -22 -10 -32.5t-35 -10.5h-225q-43 0 -43 43v49q-2 2 -2 4q-54 -41 -123 -67.5t-133 -26.5q-30 0 -57 6q0 -18 -1 -126t-1 -236 q0 -45 -44 -45h-225q-25 0 -34 11.5t-9 33.5z" />
<glyph unicode="&#x3bd;" horiz-adv-x="1116" d="M39 958q-20 54 33 54h223q22 0 32 -2t19.5 -12.5t15.5 -32.5l115 -357q76 -256 78 -262h10l80 270l121 353q7 24 20 33.5t48 9.5h210q32 0 39 -12.5t-4 -38.5l-336 -898q-14 -35 -33.5 -49t-56.5 -14h-188q-41 0 -59 13.5t-31 49.5z" />
<glyph unicode="&#x3be;" horiz-adv-x="966" d="M72 416q0 46 9 92t28.5 95t57 92t89.5 69l2 10q-87 34 -127.5 106t-40.5 152q0 202 130 311t343 109q88 0 185 -13.5t157 -41.5q53 -19 43 -74l-22 -106q-6 -31 -18 -36.5t-58 -0.5q-160 16 -272 16q-82 0 -123 -46.5t-39 -119.5q1 -48 30.5 -79t72 -43.5t95.5 -12.5h185 q27 0 37 -9.5t10 -33.5v-143q0 -23 -10 -34t-37 -11h-164q-240 0 -240 -248q0 -38 10.5 -68t27 -49.5t44.5 -34t53.5 -22t64 -11.5t67.5 -5t71 -1h92q40 0 55.5 -8t28.5 -37l43 -94q21 -43 -10 -94q-81 -146 -141 -316q-16 -46 -30.5 -56t-51.5 3l-133 47q-28 12 -35.5 23.5 t0.5 44.5q43 146 90 231q-100 4 -180.5 18t-155 46t-124.5 80.5t-79.5 125.5t-29.5 177z" />
<glyph unicode="&#x3bf;" horiz-adv-x="1124" d="M86 520q0 45 3.5 87t16 95t32.5 97t56 88t84 74.5t119 49.5t158 19q88 0 159.5 -16t121.5 -43t87 -67t59 -83t35.5 -96.5t18 -101t4.5 -103.5t-3 -100.5t-14.5 -102.5t-31 -102t-56.5 -89.5t-86.5 -75t-124.5 -48t-169 -18.5q-91 0 -164 18.5t-121.5 48t-83.5 75t-54 89 t-30 102t-13.5 102.5t-2.5 101zM401 508q0 -139 32.5 -198.5t121.5 -59.5q98 0 132 59.5t34 198.5t-32.5 197.5t-129.5 58.5q-90 0 -124 -62t-34 -194z" />
<glyph unicode="&#x3c0;" horiz-adv-x="1146" d="M98 45v922q0 45 45 45h863q25 0 34 -10t9 -33v-924q0 -45 -45 -45h-224q-45 0 -45 45l2 715h-325v-715q0 -45 -45 -45h-224q-45 0 -45 45z" />
<glyph unicode="&#x3c1;" horiz-adv-x="1132" d="M94 -354v856q0 258 120.5 394t354.5 136q111 0 195 -27t137 -72.5t86.5 -114t46.5 -143t13 -167.5q0 -103 -11 -181t-39 -146t-75 -111.5t-121 -68t-174 -24.5q-105 0 -221 35v-366q0 -47 -44 -47h-223q-45 0 -45 47zM406 268q81 -22 159 -22q59 0 92 21t50.5 79.5 t17.5 165.5q0 133 -40.5 189.5t-115.5 56.5q-163 0 -163 -217v-273z" />
<glyph unicode="&#x3c2;" horiz-adv-x="999" d="M80 125l14 90q6 32 21.5 39.5t50.5 1.5q168 -25 295 -25q77 0 110 18t33 58q0 43 -24 59.5t-91 24.5q-55 8 -92.5 14.5t-83.5 18.5t-76 26.5t-61 38t-49 52.5t-29.5 70t-11.5 91q0 158 115 243t303 85q77 0 167 -11.5t150 -33.5q46 -15 62 -31.5t8 -52.5l-21 -98 q-7 -33 -26.5 -40t-73.5 1q-160 20 -254 20q-72 1 -94.5 -15.5t-22.5 -53.5q0 -18 8 -30.5t29 -20.5t38 -11.5t52 -9.5q52 -7 89 -13t81.5 -18t75 -27t61.5 -39.5t49.5 -55t30 -74t11.5 -97.5q0 -74 -25 -132.5t-67 -96t-101 -62.5t-123 -35.5t-137 -10.5q-81 0 -172.5 11.5 t-148.5 33.5q-47 18 -61.5 37.5t-8.5 60.5z" />
<glyph unicode="&#x3c3;" horiz-adv-x="1163" d="M84 514q0 45 4 87t17.5 93.5t34.5 94.5t58.5 85.5t86.5 72t121.5 47.5t160.5 18h516q26 0 34.5 -9.5t8.5 -33.5v-160q0 -25 -8.5 -35t-34.5 -10h-129l-4 -8q78 -87 78 -264q0 -48 -3 -88.5t-15 -94.5t-31.5 -97t-56 -87.5t-85.5 -74t-123.5 -48t-166.5 -18.5 q-72 0 -132.5 11.5t-104.5 29.5t-79.5 47.5t-58.5 59.5t-40 70.5t-26 75.5t-14.5 80.5t-6.5 78.5t-1 77zM395 502q0 -142 34.5 -199t119.5 -57q92 0 129 56.5t37 199.5q0 140 -34.5 197t-129.5 57q-85 0 -120.5 -59t-35.5 -195z" />
<glyph unicode="&#x3c4;" horiz-adv-x="888" d="M29 809v158q0 45 45 45h671q26 0 34.5 -10.5t8.5 -32.5v-160q0 -25 -8.5 -35t-34.5 -10h-215v-356q0 -113 36 -132t196 -9q16 0 24 1q18 1 29.5 0t17 -8t7.5 -24l22 -138q5 -49 -39 -63q-116 -51 -301 -51q-158 0 -227.5 74.5t-69.5 217.5v488h-151q-24 0 -34.5 10.5 t-10.5 34.5z" />
<glyph unicode="&#x3c5;" horiz-adv-x="1136" d="M100 393v574q0 45 43 45h224q25 0 35 -11t10 -34v-555q0 -76 31 -120t118 -44q85 0 123.5 46t38.5 118v555q0 45 45 45h225q43 0 43 -45v-574q0 -86 -30 -159t-87.5 -129t-149.5 -87.5t-208 -31.5q-234 0 -347.5 108.5t-113.5 298.5z" />
<glyph unicode="&#x3c6;" horiz-adv-x="1523" d="M86 514q0 355 295 471q49 21 70 -18l86 -154q14 -24 -17 -45q-123 -86 -123 -270q0 -49 10 -91t32.5 -80t64.5 -61t100 -24v673q0 60 35.5 89.5t97.5 29.5h162q123 0 219 -30.5t155 -80t97.5 -119.5t53 -141.5t14.5 -152.5q0 -111 -30 -202.5t-91 -163t-163.5 -114.5 t-238.5 -50v-295q0 -45 -43 -45h-223q-45 0 -45 45v292q-97 3 -175 21.5t-131.5 47t-92.5 71.5t-61.5 86.5t-36 100t-17.5 104t-4 106.5zM918 246q103 0 154.5 69.5t51.5 180.5q0 264 -206 264v-514z" />
<glyph unicode="&#x3c7;" horiz-adv-x="1060" d="M18 17.5q-6 17.5 9 37.5l323 461l-303 442q-13 19 -6 36.5t31 17.5h239q28 0 38.5 -6.5t25.5 -28.5l153 -248l154 246q11 21 22 29t33 8h254q23 0 32 -10.5t7 -21.5t-8 -22l-315 -442l323 -461q12 -13 5 -34t-34 -21h-239q-26 0 -40 7t-26 28l-168 268l-166 -266 q-22 -37 -71 -37h-242q-25 0 -31 17.5z" />
<glyph unicode="&#x3c8;" horiz-adv-x="1468" d="M94 406v559q0 45 43 45h225q44 0 44 -45v-553q0 -70 45.5 -119.5t121.5 -48.5v829q0 45 45 45h226q41 0 41 -45v-829q91 4 132.5 50.5t41.5 117.5v553q0 45 43 45h225q43 0 43 -45v-559q0 -179 -129 -297t-356 -125v-297q0 -45 -41 -45h-226q-45 0 -45 45v299 q-220 -1 -349.5 115t-129.5 305z" />
<glyph unicode="&#x3c9;" horiz-adv-x="1609" d="M86 500q0 409 338 528q38 13 59.5 9.5t34.5 -31.5l64 -121q13 -22 8 -36.5t-37 -33.5q-92 -58 -122 -125t-30 -192q0 -254 134 -254q129 0 129 157v246q0 22 10 32.5t35 10.5h196q43 0 43 -43v-246q0 -68 31 -112.5t96 -44.5q66 0 99.5 57.5t33.5 196.5 q0 128 -29.5 192.5t-121.5 124.5q-32 19 -36.5 34t9.5 36l60 116q13 28 35.5 34t60.5 -7q340 -116 340 -528q0 -516 -426 -516q-92 0 -172 36.5t-119 102.5h-10q-39 -66 -118 -102.5t-171 -36.5q-84 0 -151 19.5t-112.5 55.5t-77.5 82.5t-50 106.5t-25.5 121t-7.5 131z" />
<glyph unicode="&#x3ca;" horiz-adv-x="567" d="M-78 1264q0 67 32 103t118 36q89 0 120 -34.5t31 -104.5q0 -33 -6 -56.5t-21 -45t-46 -33t-78 -11.5q-48 0 -80 11.5t-46 34t-19 45t-5 55.5zM125 45v922q0 23 10 34t35 11h225q41 0 41 -45v-922q0 -45 -41 -45h-225q-45 0 -45 45zM350 1264q0 67 32.5 103t117.5 36 q90 0 120.5 -34t30.5 -105q0 -69 -30.5 -107.5t-120.5 -38.5q-89 0 -119.5 39t-30.5 107z" />
<glyph unicode="&#x3cb;" horiz-adv-x="1136" d="M100 393v574q0 45 43 45h224q25 0 35 -11t10 -34v-555q0 -76 31 -120t118 -44q85 0 123.5 46t38.5 118v555q0 45 45 45h225q43 0 43 -45v-574q0 -86 -30 -159t-87.5 -129t-149.5 -87.5t-208 -31.5q-234 0 -347.5 108.5t-113.5 298.5zM205 1264q0 67 31.5 103t117.5 36 q89 0 120.5 -34.5t31.5 -104.5q0 -68 -31.5 -107t-120.5 -39q-48 0 -79.5 11.5t-46 34t-19 45t-4.5 55.5zM633 1264q0 67 32 103t117 36q90 0 121 -34.5t31 -104.5q0 -69 -31 -107.5t-121 -38.5q-89 0 -119 38.5t-30 107.5z" />
<glyph unicode="&#x3cc;" horiz-adv-x="1124" d="M86 520q0 45 3.5 87t16 95t32.5 97t56 88t84 74.5t119 49.5t158 19q88 0 159.5 -16t121.5 -43t87 -67t59 -83t35.5 -96.5t18 -101t4.5 -103.5t-3 -100.5t-14.5 -102.5t-31 -102t-56.5 -89.5t-86.5 -75t-124.5 -48t-169 -18.5q-91 0 -164 18.5t-121.5 48t-83.5 75t-54 89 t-30 102t-13.5 102.5t-2.5 101zM401 508q0 -139 32.5 -198.5t121.5 -59.5q98 0 132 59.5t34 198.5t-32.5 197.5t-129.5 58.5q-90 0 -124 -62t-34 -194zM451 1210l188 353q21 38 57 18l156 -88q42 -22 10 -61l-239 -310q-25 -32 -54 -18l-106 57q-28 18 -12 49z" />
<glyph unicode="&#x3cd;" horiz-adv-x="1136" d="M100 393v574q0 45 43 45h224q25 0 35 -11t10 -34v-555q0 -76 31 -120t118 -44q85 0 123.5 46t38.5 118v555q0 45 45 45h225q43 0 43 -45v-574q0 -86 -30 -159t-87.5 -129t-149.5 -87.5t-208 -31.5q-234 0 -347.5 108.5t-113.5 298.5zM438 1210l189 353q21 38 57 18 l156 -88q42 -22 10 -61l-240 -310q-25 -32 -53 -18l-106 57q-29 18 -13 49z" />
<glyph unicode="&#x3ce;" horiz-adv-x="1609" d="M86 500q0 409 338 528q38 13 59.5 9.5t34.5 -31.5l64 -121q13 -22 8 -36.5t-37 -33.5q-92 -58 -122 -125t-30 -192q0 -254 134 -254q129 0 129 157v246q0 22 10 32.5t35 10.5h196q43 0 43 -43v-246q0 -68 31 -112.5t96 -44.5q66 0 99.5 57.5t33.5 196.5 q0 128 -29.5 192.5t-121.5 124.5q-32 19 -36.5 34t9.5 36l60 116q13 28 35.5 34t60.5 -7q340 -116 340 -528q0 -516 -426 -516q-92 0 -172 36.5t-119 102.5h-10q-39 -66 -118 -102.5t-171 -36.5q-84 0 -151 19.5t-112.5 55.5t-77.5 82.5t-50 106.5t-25.5 121t-7.5 131z M692 1210l189 353q21 38 57 18l156 -88q42 -22 10 -61l-240 -310q-25 -32 -53 -18l-106 57q-29 18 -13 49z" />
<glyph unicode="&#x400;" horiz-adv-x="1142" d="M139 43v1272q0 47 45 47h813q20 0 31.5 -12.5t11.5 -32.5v-187q0 -43 -45 -43h-530v-247h463q22 0 34.5 -11.5t12.5 -31.5v-187q0 -43 -47 -43h-463v-295h541q21 0 33 -12t12 -33v-186q0 -41 -45 -41h-822q-45 0 -45 43zM250 1641q-4 17 10 32l113 142q27 31 59 4 l309 -252q29 -21 7 -47l-76 -97q-21 -23 -56 -4l-342 195q-20 10 -24 27z" />
<glyph unicode="&#x401;" horiz-adv-x="1142" d="M139 43v1272q0 47 45 47h813q20 0 31.5 -12.5t11.5 -32.5v-187q0 -43 -45 -43h-530v-247h463q22 0 34.5 -11.5t12.5 -31.5v-187q0 -43 -47 -43h-463v-295h541q21 0 33 -12t12 -33v-186q0 -41 -45 -41h-822q-45 0 -45 43zM219 1567q0 67 32 103t118 36q89 0 120 -34.5 t31 -104.5q0 -33 -6 -56.5t-21 -45t-46 -33t-78 -11.5q-48 0 -80 11.5t-46 34t-19 45t-5 55.5zM639 1567q0 67 33 103t119 36q89 0 119 -34t30 -105q0 -69 -30.5 -107.5t-118.5 -38.5q-49 0 -80.5 11.5t-46.5 34t-20 45t-5 55.5z" />
<glyph unicode="&#x402;" horiz-adv-x="1546" d="M25 1124v193q0 23 9 33t36 10h1071q45 0 45 -43v-193q0 -43 -45 -43h-441v-254q161 60 291 60q104 0 187.5 -26.5t138 -71t91 -107t52 -131t15.5 -145.5q0 -250 -107 -423.5t-330 -299.5q-34 -18 -51.5 -13t-36.5 37l-76 111q-17 28 -15 40.5t28 32.5q145 107 203.5 230 t58.5 282q0 99 -48.5 159.5t-160.5 60.5q-81 0 -240 -62v-516q0 -45 -43 -45h-243q-47 0 -47 45v1036h-297q-27 0 -36 11t-9 32z" />
<glyph unicode="&#x403;" horiz-adv-x="1058" d="M137 1317q0 45 45 45h799q20 0 32.5 -12.5t12.5 -32.5v-187q0 -43 -47 -43h-514v-1042q0 -45 -43 -45h-238q-45 0 -45 45zM354 1544q-19 30 13 49l333 219q23 12 37.5 7.5t22.5 -19.5l94 -151q26 -40 -18 -60l-361 -157q-14 -8 -28 -7t-25 17z" />
<glyph unicode="&#x404;" horiz-adv-x="1208" d="M117 684q0 692 594 692q102 0 207 -16.5t178 -48.5q35 -15 48 -34t5 -56l-25 -115q-4 -30 -20.5 -39t-48.5 -4q-154 22 -316 22q-123 0 -184 -70t-80 -194h445q45 0 45 -43v-174q0 -41 -45 -41h-449q6 -71 21.5 -122.5t45.5 -92t80 -60.5t121 -20q111 0 320 23 q32 3 47 -5t24 -36l25 -109q10 -36 -3.5 -56.5t-47.5 -37.5q-76 -32 -183 -49.5t-208 -17.5q-104 0 -189.5 21.5t-146.5 57.5t-107.5 90t-75 113t-46.5 132t-24.5 142t-6.5 148z" />
<glyph unicode="&#x405;" horiz-adv-x="1189" d="M94 958q0 198 133.5 307t362.5 109q248 0 391 -59q33 -12 47 -25t14.5 -27t-2.5 -34l-28 -121q-8 -36 -27 -42t-61 1q-176 23 -310 23q-90 0 -134 -29.5t-44 -93.5q0 -62 35.5 -84.5t146.5 -46.5q66 -14 101 -23t94.5 -28t92.5 -38t75 -51.5t64 -71t37.5 -94t15.5 -122.5 q0 -94 -30 -168.5t-80 -122t-120 -78.5t-145.5 -44t-161.5 -13q-89 0 -203 14.5t-200 48.5q-47 19 -56 35.5t-2 50.5l25 119q8 37 24.5 44t55.5 -1q237 -29 358 -29q104 0 152.5 32.5t48.5 98.5q0 70 -40.5 98.5t-150.5 51.5q-61 13 -101.5 23.5t-95.5 29t-91.5 38t-75.5 51 t-62 68.5t-38 89t-15 114z" />
<glyph unicode="&#x406;" horiz-adv-x="622" d="M147 45v1270q0 47 43 47h240q43 0 43 -47v-1270q0 -45 -43 -45h-240q-43 0 -43 45z" />
<glyph unicode="&#x407;" horiz-adv-x="622" d="M-47 1567q0 67 31.5 103t117.5 36q89 0 120.5 -34.5t31.5 -104.5q0 -68 -31.5 -107t-120.5 -39q-48 0 -79.5 11.5t-46 34t-19 45t-4.5 55.5zM147 45v1270q0 47 43 47h240q43 0 43 -47v-1270q0 -45 -43 -45h-240q-43 0 -43 45zM373 1567q0 67 32.5 103t118.5 36 q89 0 119.5 -34.5t30.5 -104.5q0 -69 -31 -107.5t-119 -38.5q-48 0 -80 11.5t-46.5 34t-19.5 45t-5 55.5z" />
<glyph unicode="&#x408;" horiz-adv-x="968" d="M16 113l31 133q9 30 18 36t37 1q131 -15 203 -15q105 0 141.5 39.5t36.5 118.5v889q0 47 45 47h236q45 0 45 -47q0 -711 -2 -953q0 -184 -110.5 -282t-336.5 -98q-158 0 -274 41q-53 19 -66 35.5t-4 54.5z" />
<glyph unicode="&#x409;" horiz-adv-x="1898" d="M27 168q-1 26 7 35.5t36 15.5q40 9 65 19.5t48 30t36 46t23.5 71.5t16.5 102t11 141l41 686q0 22 12.5 34.5t34.5 12.5l748 -2h2q21 0 33 -12t12 -33v-465h213q110 0 196 -26.5t138.5 -68.5t86 -99.5t46 -114t12.5 -117.5q0 -104 -39 -186.5t-106 -133.5t-153 -77.5 t-185 -26.5h-498q-47 0 -47 45v1038h-213l-22 -393q-9 -129 -14 -189t-18.5 -154t-32.5 -135.5t-52 -97t-80 -78.5t-114.5 -41t-157.5 -20q-50 0 -64 12.5t-16 45.5zM1151 272h186q73 0 121.5 42t48.5 110q0 160 -164 160h-192v-312z" />
<glyph unicode="&#x40a;" horiz-adv-x="1863" d="M137 45v1270q0 47 45 47h238q43 0 43 -47v-471h321v471q0 45 45 45h238q43 0 43 -45v-469h217q110 0 196 -26.5t138 -69t85 -100.5t45.5 -114t12.5 -118q0 -104 -38.5 -185t-105.5 -131t-152 -76t-183 -26h-496q-45 0 -45 43v526h-321v-524q0 -45 -43 -45h-238 q-45 0 -45 45zM1110 266h190q80 0 128.5 41.5t48.5 112.5q0 164 -170 164h-197v-318z" />
<glyph unicode="&#x40b;" horiz-adv-x="1544" d="M25 1130v187q0 22 9.5 33.5t35.5 11.5h1067q20 0 32.5 -12.5t12.5 -32.5v-187q0 -43 -47 -43h-441v-227q187 76 328 76q100 0 175 -22t120 -58.5t72.5 -91t37 -110.5t9.5 -126v-483q0 -45 -43 -45h-236q-45 0 -45 45v475q0 78 -36 112t-113 34q-82 0 -269 -70v-551 q0 -45 -43 -45h-235q-45 0 -45 45v1042h-301q-26 0 -35.5 11t-9.5 32z" />
<glyph unicode="&#x40c;" horiz-adv-x="1292" d="M135 45v1270q0 47 47 47h244q43 0 43 -47v-473h113q37 0 66 8.5t61 41t49 89.5l100 313q13 37 29 49.5t61 12.5h217q52 0 37 -51l-108 -347q-34 -105 -75.5 -168.5t-98.5 -87.5q34 -13 60 -35.5t46.5 -58.5t34.5 -70t33 -89l125 -398q15 -51 -37 -51h-234q-45 0 -61 12 t-29 49l-104 363q-27 83 -71 112t-108 29h-106v-520q0 -45 -43 -45h-244q-47 0 -47 45zM469 1544q-19 31 12 49l334 219q39 24 59 -12l95 -151q12 -19 6.5 -35t-25.5 -25l-360 -157q-14 -8 -28 -7t-25 17z" />
<glyph unicode="&#x40d;" horiz-adv-x="1396" d="M135 43v1270q0 47 45 47h236q45 0 45 -47v-717l8 -4q7 11 19 30.5t23 36l21 31.5l390 615q15 20 21.5 27.5t25.5 17.5t45 10h200q43 0 43 -45v-1272q0 -43 -45 -43h-235q-45 0 -45 43v756h-2l-473 -744q-35 -55 -101 -55h-176q-25 0 -35 10.5t-10 32.5zM396 1641 q-4 17 10 32l112 142q27 32 60 4l309 -252q29 -21 6 -47l-76 -97q-21 -23 -55 -4l-342 195q-20 10 -24 27z" />
<glyph unicode="&#x40e;" horiz-adv-x="1275" d="M47.5 1346.5q6.5 15.5 28.5 15.5h243q35 0 50 -9.5t30 -39.5l123 -320l127 -342h8l131 353l111 296q12 20 16.5 27t14.5 17.5t21.5 14t27.5 3.5h229q24 0 30.5 -14t-3.5 -31l-395 -977q-29 -67 -49 -108.5t-49 -90.5t-57.5 -77.5t-66.5 -55t-84.5 -38t-103.5 -11.5 q-112 0 -178 16q-38 9 -49 25t-6 55l14 117q3 29 16 35t56 4q68 -8 108.5 -1t56.5 19.5t31 42.5l21 43l-449 996q-10 20 -3.5 35.5zM242.5 1678.5q0.5 4.5 1.5 11t5.5 12t10.5 10.5l74 60q18 12 31 11.5t19 -6t24 -24.5q67 -81 120.5 -114t126.5 -33q68 0 122.5 32.5 t119.5 114.5q19 24 33 27.5t39 -11.5l73 -45q13 -8 18.5 -17.5t2 -24t-6.5 -22.5t-14 -30q-63 -121 -163 -185.5t-224 -64.5q-122 0 -232.5 64t-162.5 180q-1 3 -6 14t-6 14.5t-3.5 12.5t-2 13.5z" />
<glyph unicode="&#x40f;" horiz-adv-x="1331" d="M137 45v1270q0 47 45 47h244q45 0 45 -47v-1034h389v1034q0 47 45 47h244q45 0 45 -47v-1270q0 -45 -45 -45h-324l-14 -266q-3 -47 -12.5 -59.5t-40.5 -12.5h-180q-31 0 -42 9.5t-12 47.5l-12 281h-330q-45 0 -45 45z" />
<glyph unicode="&#x410;" horiz-adv-x="1265" d="M17.5 9.5q-6.5 9.5 2.5 43.5l396 1250q10 31 26 45t54 14h258q39 0 53.5 -13.5t26.5 -48.5l411 -1251q7 -25 2 -37t-26 -12h-254q-32 0 -46 14t-24 49l-68 244h-407l-74 -250q-16 -57 -72 -57h-227q-25 0 -31.5 9.5zM492 557h266l-62 225l-65 250h-10l-68 -248z" />
<glyph unicode="&#x411;" horiz-adv-x="1216" d="M137 43v1272q0 20 11.5 32.5t31.5 12.5h801q21 0 33 -12t12 -33v-185q0 -43 -45 -43h-516v-239h217q110 0 196 -27t138 -69.5t85 -100.5t45.5 -114.5t12.5 -118.5q0 -104 -39 -185t-106 -131t-152 -76t-182 -26h-498q-45 0 -45 43zM463 266h190q79 0 127.5 41.5 t48.5 112.5q0 166 -172 166h-194v-320z" />
<glyph unicode="&#x412;" horiz-adv-x="1269" d="M137 45v1270q0 45 45 45l520 2q207 0 316.5 -100.5t109.5 -278.5q0 -29 -6 -61t-21 -70t-46 -72.5t-74 -56.5l2 -8q56 -22 95 -61t56.5 -86.5t24 -86t6.5 -78.5q0 -123 -60.5 -216.5t-156.5 -140t-209 -46.5h-555q-47 0 -47 45zM463 272h211q157 0 157 148 q0 68 -39 110.5t-118 42.5h-211v-301zM463 836h196q62 0 99 34.5t37 90.5q0 59 -36 94t-110 35h-186v-254z" />
<glyph unicode="&#x413;" horiz-adv-x="1058" d="M137 1317q0 45 45 45h799q20 0 32.5 -12.5t12.5 -32.5v-187q0 -43 -47 -43h-514v-1042q0 -45 -43 -45h-238q-45 0 -45 45z" />
<glyph unicode="&#x414;" horiz-adv-x="1449" d="M23 207q0 27 10 40t39 19l69 13q72 66 105 166.5t51 283.5l45 557q6 74 78 74h811q20 0 32.5 -12.5t12.5 -34.5v-1041l84 -8q45 -5 45 -59l-23 -459q-3 -47 -11.5 -59.5t-39.5 -12.5h-178q-32 0 -43 11.5t-12 50.5l-13 264h-735l-18 -264q-3 -39 -14 -50.5t-44 -11.5 h-182q-30 0 -41 13t-12 57zM512 279h430v808h-299l-37 -436q-19 -254 -94 -372z" />
<glyph unicode="&#x415;" horiz-adv-x="1142" d="M139 43v1272q0 47 45 47h813q20 0 31.5 -12.5t11.5 -32.5v-187q0 -43 -45 -43h-530v-247h463q22 0 34.5 -11.5t12.5 -31.5v-187q0 -43 -47 -43h-463v-295h541q21 0 33 -12t12 -33v-186q0 -41 -45 -41h-822q-45 0 -45 43z" />
<glyph unicode="&#x416;" horiz-adv-x="1921" d="M74 51l125 398q35 109 72 168t102 85q-58 23 -98.5 86.5t-75.5 169.5l-109 347q-15 51 37 51h217q45 0 61 -12.5t29 -49.5l98 -313q19 -57 51.5 -89.5t61.5 -41t66 -8.5h86v473q0 47 45 47h239q43 0 43 -47v-473h86q134 0 179 139l98 313q15 38 30 50t60 12h217 q52 0 37 -51l-107 -347q-36 -106 -77.5 -169.5t-98.5 -86.5q65 -26 102 -85t72 -168l125 -398q15 -51 -37 -51h-233q-45 0 -60.5 11.5t-29.5 49.5l-105 363q-27 83 -70.5 112t-107.5 29h-80v-520q0 -45 -43 -45h-239q-45 0 -45 45v520h-80q-64 0 -107.5 -29t-70.5 -112 l-105 -363q-13 -37 -29 -49t-61 -12h-233q-52 0 -37 51z" />
<glyph unicode="&#x417;" horiz-adv-x="1163" d="M33 109q0 14 2 22l22 113q5 27 14.5 37t32.5 10q15 0 23 -2q205 -31 350 -31q126 0 189 42t63 132q0 75 -44 117.5t-138 42.5h-152q-37 0 -48 11t-11 46v133q0 34 11.5 49t45.5 15h150q70 0 121 34t51 91q0 78 -56.5 109.5t-156.5 31.5q-127 0 -305 -31q-24 -4 -33 -4 q-18 0 -26.5 8.5t-14.5 30.5q-10 55 -27 127q-2 8 -2 23q0 19 14 32.5t50 28.5q80 31 192 46.5t199 15.5q249 0 371 -100t122 -283q0 -86 -47 -163.5t-123 -115.5q88 -34 138.5 -112.5t50.5 -188.5q0 -146 -70.5 -247t-194.5 -149t-294 -48q-78 0 -202.5 15t-199.5 42 q-67 26 -67 70z" />
</font>
</defs>
</svg>
