<?xml version="1.0" standalone="no"?>
<!DOCTYPE svg PUBLIC "-//W3C//DTD SVG 1.1//EN" "http://www.w3.org/Graphics/SVG/1.1/DTD/svg11.dtd" >
<svg xmlns="http://www.w3.org/2000/svg">
<metadata></metadata>
<defs>
<font id="amadeusthin" horiz-adv-x="985" >
<font-face units-per-em="2048" ascent="1536" descent="-512" />
<missing-glyph horiz-adv-x="491" />
<glyph unicode="fj" horiz-adv-x="901" d="M72 952v33q0 12 14 12h113v140q0 301 290 301q148 0 261 -41q13 -4 10 -17l-4 -20q-3 -10 -15 -10q-148 20 -249 20q-112 0 -166.5 -55t-55.5 -187v-131h496q12 0 12 -12v-1178q0 -34 -3.5 -59.5t-19.5 -59t-44.5 -54t-83.5 -33.5t-131 -9q-2 0 -6 1t-8.5 6t-4.5 12v20 q0 19 21 19q42 2 75 8.5t55 15t37.5 23t23.5 27t12 32.5t5 34.5t1 37.5v1114h-437v-930q0 -12 -10 -12h-47q-14 0 -14 12v930h-115q-12 0 -12 10z" />
<glyph unicode="ffj" horiz-adv-x="1400" d="M72 952v33q0 12 14 12h113v125q0 137 73 219t232 82q171 0 278 -41q75 72 215 72q147 0 260 -41q13 -4 11 -16l-4 -21q-3 -10 -15 -10q-148 20 -250 20q-112 0 -166 -54.5t-55 -186.5v-148h488q12 0 12 -12v-1178q0 -34 -3.5 -59.5t-20 -59t-45 -54t-83.5 -33.5t-131 -9 q-2 0 -5.5 1t-8 6t-4.5 12v20q0 19 20 19q42 2 75 8.5t55 15t37.5 23t23.5 27t12 32.5t5 34.5t1 37.5v1114h-428v-930q0 -12 -10 -12h-47q-14 0 -14 12v930h-437v-930q0 -12 -10 -12h-47q-14 0 -14 12v930h-115q-12 0 -12 10zM270 997h437v156q0 115 43 186q-157 17 -244 17 q-118 0 -176.5 -55t-59.5 -187v-117z" />
<glyph unicode="ff" horiz-adv-x="1130" d="M72 952v33q0 12 14 12h113v125q0 137 73 219t232 82q137 0 250 -39q69 66 186 66q122 0 211 -33q14 -5 18.5 -9.5t1.5 -12.5l-6 -21q-3 -9 -7 -10t-21 2q-87 16 -174 16q-205 0 -205 -188v-195h289q12 0 12 -10v-37q0 -10 -12 -10h-289v-930q0 -12 -10 -12h-48 q-14 0 -14 12v930h-416v-930q0 -12 -10 -12h-47q-14 0 -14 12v930h-115q-12 0 -12 10zM270 997q182 0 281.5 1t134.5 1v199q0 86 31 139q-108 19 -211 19q-118 0 -176.5 -55t-59.5 -187v-117z" />
<glyph unicode="fi" horiz-adv-x="901" d="M72 952v33q0 12 14 12h113v140q0 301 290 301q148 0 261 -41q13 -4 10 -17l-4 -20q-3 -10 -15 -10q-148 20 -249 20q-112 0 -166.5 -55t-55.5 -187v-131h496q12 0 12 -12q2 -301 2 -973q0 -12 -10 -12h-47q-7 0 -9.5 2t-2.5 10l-2 930h-439v-930q0 -12 -10 -12h-47 q-14 0 -14 12v930h-115q-12 0 -12 10z" />
<glyph unicode="fl" horiz-adv-x="901" d="M72 952v33q0 12 14 12h113v142q0 301 290 301q113 0 228 -31l47 18q6 3 11 0.5t5 -8.5v-1407q0 -12 -10 -12h-47q-7 0 -9.5 2t-2.5 10l-2 1344q-136 16 -217 16q-112 0 -166.5 -55t-55.5 -187v-133h318q14 0 14 -12v-33q0 -10 -12 -10h-320v-930q0 -12 -10 -12h-47 q-14 0 -14 12v930h-115q-12 0 -12 10z" />
<glyph unicode="ffi" horiz-adv-x="1400" d="M72 952v33q0 12 14 12h113v125q0 137 73 219t232 82q171 0 278 -41q75 72 215 72q147 0 260 -41q13 -4 11 -16l-4 -21q-3 -10 -15 -10q-148 20 -250 20q-112 0 -166 -54.5t-55 -186.5v-148h488q12 0 12 -12v-973q0 -12 -10 -12h-47q-13 0 -13 12v930h-430v-930 q0 -12 -10 -12h-47q-14 0 -14 12v930h-437v-930q0 -12 -10 -12h-47q-14 0 -14 12v930h-115q-12 0 -12 10zM270 997h437v156q0 115 43 186q-157 17 -244 17q-118 0 -176.5 -55t-59.5 -187v-117z" />
<glyph unicode="ffl" horiz-adv-x="1409" d="M72 952v33q0 12 14 12h113v125q0 135 76.5 218t236.5 83q164 0 262 -34q73 67 211 67q123 0 238 -31l47 19q6 3 11 0.5t5 -8.5v-1424q0 -12 -10 -12h-47q-7 0 -9.5 2t-2.5 10v1360q-144 17 -230 17q-111 0 -165.5 -55t-55.5 -187v-150h317q15 0 15 -12v-33q0 -10 -13 -10 h-319v-930q0 -12 -10 -12h-47q-15 0 -15 12v930h-424v-930q0 -12 -10 -12h-47q-14 0 -14 12v930h-115q-12 0 -12 10zM270 997h424v158q0 111 41 180q-92 21 -221 21q-119 0 -181 -55.5t-63 -186.5v-117z" />
<glyph unicode="ft" horiz-adv-x="1073" d="M72 952v35q0 12 14 12h113v199q0 125 68 188.5t186 63.5q122 0 211 -33q14 -5 18.5 -9.5t1.5 -12.5l-6 -21q-3 -9 -7.5 -10t-21.5 2q-87 16 -174 16q-205 0 -205 -188v-195h437v234q0 12 10 16l37 15q19 5 20.5 3t1.5 -18v-250h223q7 0 9 -2t2 -8v-37q0 -10 -11 -10h-223 v-747q0 -40 3.5 -62.5t15.5 -44.5t38.5 -31.5t69.5 -9.5q78 0 144 8q13 2 16 -10l4 -18q2 -13 -10 -19q-81 -24 -187 -24q-93 0 -128 42.5t-35 145.5v770h-437v-930q0 -12 -10 -12h-47q-14 0 -14 12v930h-115q-12 0 -12 10z" />
<glyph unicode=" "  horiz-adv-x="491" />
<glyph unicode="&#x09;" horiz-adv-x="491" />
<glyph unicode="&#xa0;" horiz-adv-x="491" />
<glyph unicode="!" horiz-adv-x="405" d="M137 47q0 64 62 64q36 0 48.5 -16t12.5 -48q0 -31 -13 -48t-48 -17q-36 0 -49 17t-13 48zM162 1341q0 17 14 17h66q5 0 8 -5t2 -12l-29 -1028q0 -12 -8 -12h-22q-11 0 -11 12z" />
<glyph unicode="&#x22;" horiz-adv-x="458" d="M111 1343q0 15 14 15h45q12 0 12 -15l-20 -321q0 -12 -10 -12h-17q-4 0 -8 12zM270 1343q0 15 17 15h43q12 0 12 -15l-20 -321q0 -12 -11 -12h-14q-8 0 -8 12z" />
<glyph unicode="#" horiz-adv-x="1085" d="M2 522l4 27q3 10 14 10h273l74 313h-267q-12 0 -8 15l4 26q3 13 15 13h268l98 420q2 12 10 12h31q8 0 11.5 -2.5t2.5 -9.5l-98 -420h305l99 420q2 12 10 12h31q8 0 11.5 -2.5t2.5 -9.5l-98 -420h278q11 0 8 -13l-4 -26q-4 -15 -14 -15h-281l-71 -313h272q10 0 10 -10 l-6 -27q-3 -16 -14 -16h-275l-114 -494q-5 -12 -17 -12h-30q-13 0 -11 12l115 494h-303l-115 -494q-5 -12 -16 -12h-31q-12 0 -10 12l115 494h-271q-11 0 -8 16zM350 559h303l74 313h-305z" />
<glyph unicode="$" horiz-adv-x="1085" d="M127 72l4 22q3 10 19 10q215 -28 370 -28q167 0 264 70.5t97 195.5q0 82 -21 139t-66.5 93t-102.5 56t-142 34q-60 10 -104 19t-90 23t-78 31t-62 41.5t-47.5 55.5t-28 72t-10.5 91q0 161 101.5 253t277.5 100v170q0 10 12 10h41q8 0 8 -10v-168q216 -4 324 -41 q13 -7 10 -19l-2 -22q-2 -8 -4.5 -9.5t-11.5 -0.5q-194 22 -336 22q-168 0 -254 -73.5t-86 -204.5q0 -48 11.5 -86t36 -64.5t52 -46t70 -33t78.5 -22t88 -17.5q79 -14 130.5 -27t110.5 -40t93 -63.5t56.5 -96t22.5 -139.5q0 -92 -29.5 -161.5t-84 -111.5t-122.5 -64.5 t-153 -27.5v-186q0 -13 -10 -13h-39q-5 0 -7 0.5t-3.5 3.5t-1.5 9v186q-77 0 -199 14.5t-172 34.5q-14 3 -10 19z" />
<glyph unicode="%" horiz-adv-x="1495" d="M74 979q0 35 1.5 63.5t8 70.5t17 74.5t32 68t50.5 59t73.5 38.5t99.5 15q64 0 113 -14.5t80 -43.5t51.5 -62.5t30 -81.5t13 -90t3.5 -97q0 -44 -1.5 -78t-8.5 -79t-19 -78.5t-33.5 -69t-51.5 -58t-75.5 -37t-101.5 -14.5t-100.5 13.5t-73.5 34t-50 55t-32 66.5t-17 79 t-7.5 81.5t-1.5 84.5zM137 965q0 -62 3.5 -106t16.5 -92t36 -77.5t64 -49t99 -19.5q57 0 99 19.5t66 50t38 78t18.5 92.5t4.5 104q0 67 -4 113.5t-17.5 94.5t-37.5 77t-66 47t-101 18q-57 0 -98.5 -21t-64 -52.5t-36 -81t-17 -93t-3.5 -102.5zM444 -35l557 1458q1 5 2 7 t3.5 3t7.5 1h43q10 0 11 -2.5t-3 -8.5l-557 -1458q-3 -8 -5 -10t-9 -2h-41q-14 0 -9 12zM848 403q0 35 1.5 63.5t8 70.5t17 75t32 68.5t50.5 58.5t73.5 38.5t99.5 15.5t99 -12t74 -31t52 -49.5t34.5 -61.5t20 -73.5t9.5 -79t2 -83.5q0 -44 -1.5 -78t-8.5 -79t-19 -78.5 t-33.5 -68.5t-51.5 -57.5t-75.5 -37t-101.5 -14.5t-100.5 13.5t-73.5 34t-50 55t-32 66t-17 78.5t-7.5 81.5t-1.5 84.5zM911 389q0 -62 3.5 -106t16.5 -92t36 -77.5t64 -49t99 -19.5q57 0 99 19.5t66 50t38 78t18.5 92.5t4.5 104q0 67 -4 113.5t-17.5 94.5t-37.5 77t-66 47 t-101 18q-57 0 -98.5 -21t-64 -52.5t-36 -81t-17 -93t-3.5 -102.5z" />
<glyph unicode="&#x26;" horiz-adv-x="1347" d="M70 362q0 133 86 238.5t266 208.5q-121 171 -121 295q0 120 70 197t190 77q123 0 189.5 -67.5t66.5 -173.5q0 -103 -71 -187t-220 -168q168 -282 426 -540q241 234 275 544q4 15 14 15l31 -2q10 0 10 -17q-11 -160 -96 -323t-191 -264q174 -164 303 -234q14 -10 9 -20 l-19 -29q-4 -8 -12 -8t-12 4q-63 31 -158 101t-168 141q-109 -82 -227.5 -125t-229.5 -43q-183 0 -297 98t-114 282zM137 367q0 -157 95.5 -240.5t238.5 -85.5q208 0 424 156q-113 111 -229 262t-209 297q-74 -40 -128.5 -79t-100 -86.5t-68.5 -103.5t-23 -120zM379 1114 q0 -117 110 -274q127 67 193 132.5t66 157.5q0 83 -53.5 135t-139.5 52q-48 0 -84 -21t-55 -53.5t-28 -65t-9 -63.5z" />
<glyph unicode="'" horiz-adv-x="352" d="M137 1343q0 6 4.5 10.5t10.5 4.5h45q12 0 12 -15l-21 -321q0 -12 -10 -12h-16q-4 0 -8 12z" />
<glyph unicode="(" horiz-adv-x="538" d="M139 657q0 222 68.5 410.5t202.5 368.5q6 9 16 6l12 -8q9 -5 2 -19q-35 -50 -66.5 -109.5t-70.5 -156t-62.5 -225t-23.5 -267.5q0 -533 229 -856q8 -11 0 -16l-14 -8q-10 -6 -16 2q-37 51 -53.5 74.5t-52 81.5t-54 100.5t-44.5 115t-39.5 142.5t-23.5 165t-10 199z" />
<glyph unicode=")" horiz-adv-x="538" d="M125 -199q229 316 229 856q0 430 -221 758q-10 14 0 19l14 8q11 4 17 -6q132 -180 200 -368.5t68 -410.5q0 -104 -10 -199t-23.5 -165.5t-38.5 -141.5t-44.5 -115.5t-53.5 -100t-52.5 -82.5t-53.5 -74q-7 -9 -17 -2l-14 8q-8 5 0 16z" />
<glyph unicode="*" horiz-adv-x="595" d="M94 997q-5 7 8 17l148 98l-150 100q-11 5 -4 17l8 14q6 9 17 4l162 -82l10 176q3 11 8 12q2 1 6 1h19q7 0 8.5 -2.5t1.5 -10.5l10 -176l156 74q6 4 9 3.5t9 -7.5l8 -12q6 -8 -6 -17l-147 -96l149 -100q7 -5 7.5 -7.5t-3.5 -11.5l-10 -16q-4 -8 -18 -2l-154 82l-8 -176 q0 -13 -10 -13h-23q-7 0 -10 13l-12 178l-164 -80q-9 -4 -15 2z" />
<glyph unicode="+" horiz-adv-x="1085" d="M168 649v43q0 13 12 13h330v337q0 13 12 13h45q8 0 8 -13v-337h330q13 0 13 -13v-45q0 -8 -13 -8h-330v-346q0 -12 -10 -12h-43q-8 0 -10 2.5t-2 9.5v346h-330q-12 0 -12 10z" />
<glyph unicode="," horiz-adv-x="346" d="M102 -233q-8 8 2 14q56 56 56 135q0 68 -41 125q-12 12 2 20l72 48q10 7 22 -3q37 -40 37 -98q0 -76 -34 -146t-85 -108q-8 -8 -14 -2z" />
<glyph unicode="-" horiz-adv-x="704" d="M80 633v55q0 12 10 12h543q10 0 10 -12v-57q0 -8 -10 -8h-543q-7 0 -8.5 1.5t-1.5 8.5z" />
<glyph unicode="." horiz-adv-x="280" d="M76 47q0 64 61 64q36 0 49 -16t13 -48q0 -31 -13 -48t-49 -17t-48.5 17t-12.5 48z" />
<glyph unicode="/" horiz-adv-x="471" d="M6 -127l379 1532q2 12 14 12h50q10 0 11 -2.5t-1 -9.5l-377 -1532q-2 -7 -3 -8.5t-9 -1.5h-52q-5 0 -7.5 0.5t-4 2.5t-0.5 7z" />
<glyph unicode="0" horiz-adv-x="1085" d="M92 698q0 61 2.5 111.5t13 123.5t28.5 130t52 117.5t80.5 101t117.5 66.5t159 26q89 0 160 -20t119.5 -53.5t84 -86t55.5 -106.5t31.5 -127.5t15 -137t3.5 -145.5q0 -76 -2.5 -134.5t-13.5 -136.5t-30 -136.5t-54 -119.5t-83.5 -100t-121.5 -64t-164 -25 q-70 0 -128.5 14.5t-102 37.5t-78 61t-57.5 76.5t-39.5 92.5t-25.5 101t-14 110t-6.5 111t-1.5 112zM168 678q0 -69 2.5 -123t8.5 -115.5t18 -108t31 -93.5t47.5 -79.5t66 -59t89 -39.5t114.5 -13q72 0 130 18.5t98.5 49.5t70.5 79t48 99.5t28.5 118.5t14 128.5t3.5 137.5 q0 65 -1.5 116t-7 108t-14.5 100t-24 87.5t-35.5 77t-50 61.5t-67 46.5t-86.5 28t-107 10.5q-71 0 -128 -19.5t-95.5 -51.5t-67.5 -82t-45 -101.5t-25.5 -120t-12.5 -127.5t-3 -133z" />
<glyph unicode="1" horiz-adv-x="1085" d="M211 10v47q0 11 12 11h312v1187h-263q-12 0 -12 11v18q0 12 10 14l234 56q14 4 41 4h51q12 0 12 -15v-1275h303q13 0 13 -11v-47q0 -10 -13 -10h-688q-12 0 -12 10z" />
<glyph unicode="2" horiz-adv-x="1085" d="M98 18v31q0 26 29 55q51 51 140.5 144.5t210 221t192.5 202.5q81 83 126.5 160t45.5 176q0 148 -82.5 219t-270.5 71q-132 0 -342 -26q-10 -1 -13 0.5t-5 9.5l-4 23q-4 15 10 18q63 25 165.5 38t186.5 13q230 0 333.5 -87t103.5 -251q0 -89 -24 -160.5t-59 -119 t-102 -119.5q-377 -399 -549 -569h746q14 0 14 -11v-47q0 -10 -14 -10h-819q-19 0 -19 18z" />
<glyph unicode="3" horiz-adv-x="1085" d="M100 51l4 23q2 12 19 10q234 -29 344 -29q68 0 121 7.5t110 33t94.5 68t62 117t24.5 176.5q0 115 -65.5 169.5t-188.5 75.5l-244 43q-7 0 -11.5 5.5t-4.5 11.5v47q0 19 18 37l455 442h-711q-14 0 -14 10v50q0 10 14 10h778q17 0 17 -17v-43q0 -33 -17 -47l-454 -444 l221 -37q129 -20 207.5 -94t78.5 -207q0 -118 -24.5 -205t-65.5 -140.5t-104.5 -86t-131.5 -44t-157 -11.5q-86 0 -194 13t-170 38q-15 4 -11 18z" />
<glyph unicode="4" horiz-adv-x="1085" d="M35 401v43q0 27 18 48l701 849q12 17 41 17h41q10 -3 10 -12v-887h186q15 0 15 -10v-48q0 -10 -15 -10h-186v-379q0 -12 -10 -12h-54q-7 0 -8.5 2t-1.5 10l-2 379h-721q-14 0 -14 10zM115 459h655v790z" />
<glyph unicode="5" horiz-adv-x="1085" d="M96 51l4 23q2 12 19 10q234 -29 344 -29q68 0 121 7.5t110 33t94 68t61.5 117t24.5 176.5q0 115 -65 169.5t-188 75.5l-463 76q-26 5 -23 35l80 524q3 19 25 19h649q16 0 16 -10v-48q0 -10 -16 -10h-608l-70 -446l457 -72q129 -20 207.5 -94t78.5 -207q0 -118 -24.5 -205 t-65.5 -140.5t-104.5 -86t-131.5 -44t-157 -11.5q-86 0 -194.5 13t-170.5 38q-14 3 -10 18z" />
<glyph unicode="6" horiz-adv-x="1085" d="M90 625q0 89 4 160t17 151.5t34.5 141t59.5 118t89 94.5t126 59.5t168 22.5q212 0 327 -43q15 -4 11 -18l-2 -23q-3 -12 -19 -10q-12 1 -86.5 7.5t-130 9.5t-104.5 3q-100 0 -174 -31t-117.5 -80t-70.5 -126t-37 -152.5t-13 -175.5q219 24 306 31.5t181 7.5 q349 0 349 -412q0 -196 -122.5 -287t-342.5 -91q-96 0 -168 17t-120 39t-80 73.5t-49 90.5t-25 123t-9.5 136.5t-1.5 163.5zM170 596q0 -116 1 -164t10 -120.5t28 -114.5q37 -78 120 -116t222 -38q43 0 82 5t84 16.5t81.5 35t67 56.5t47.5 85t17 117q0 168 -66 256t-231 88 q-155 0 -463 -36v-70z" />
<glyph unicode="7" horiz-adv-x="1085" d="M78 1303v40q0 15 14 15h871q7 0 12.5 -6t5.5 -11v-38q0 -13 -14 -41l-625 -1272q-6 -12 -18 -6l-45 20q-6 2 -7.5 7.5t2.5 11.5l623 1267h-807q-12 0 -12 13z" />
<glyph unicode="8" horiz-adv-x="1085" d="M70 340q0 288 307 381v4q-122 32 -192 109.5t-70 175.5q0 179 107 272.5t317 93.5q200 0 308.5 -91.5t108.5 -264.5q0 -101 -67.5 -183.5t-202.5 -115.5v-4q156 -37 238 -130.5t82 -242.5q0 -161 -125 -261.5t-349 -100.5q-462 0 -462 358zM150 356q0 -73 22.5 -128.5 t59 -89t88 -55t102.5 -29t110 -7.5q69 0 134.5 15.5t125.5 47.5t97 91.5t37 138.5q0 50 -13 92.5t-26 71.5t-50.5 57t-55 41.5t-73.5 34t-72.5 25.5t-82.5 24q-6 2 -9.5 3t-8.5 2.5t-9 2.5q-51 -12 -83.5 -20.5t-76.5 -24t-71.5 -31.5t-58 -41.5t-47.5 -55.5t-28 -72 t-11 -93zM197 1024q0 -55 21.5 -98.5t52 -71t81.5 -50.5t89.5 -34t97.5 -25q177 34 257.5 96t80.5 183q0 149 -93.5 219t-244.5 70q-181 0 -261.5 -71.5t-80.5 -217.5z" />
<glyph unicode="9" horiz-adv-x="1085" d="M86 991q0 100 33.5 174.5t96.5 119t147 66t190 21.5q94 0 165 -16.5t119 -40t80.5 -73t50 -91.5t26.5 -122t10.5 -138t1.5 -164q0 -77 -3.5 -140t-12 -134t-25.5 -127t-42.5 -111.5t-63.5 -96t-87.5 -72.5t-117 -48t-148.5 -16q-79 0 -174.5 10t-153.5 31q-12 6 -12 20 l4 23q3 12 16 10q236 -23 322 -23q72 0 130.5 16t100.5 43t73.5 69.5t51 88.5t32 106.5t18.5 117.5t8 127q-222 -24 -308 -31.5t-180 -7.5q-170 0 -259 98t-89 311zM164 995q0 -168 66 -256t231 -88q144 0 463 37v68q0 116 -1 164.5t-10.5 121.5t-29.5 115 q-37 77 -119.5 114.5t-220.5 37.5q-52 0 -99 -6.5t-100.5 -26.5t-91 -53t-63 -92t-25.5 -136z" />
<glyph unicode=":" horiz-adv-x="346" d="M115 53q0 30 13 46t48 16q36 0 49 -15.5t13 -46.5q0 -67 -62 -67q-38 0 -49.5 17t-11.5 50zM115 840q0 30 13 45.5t48 15.5q36 0 49 -15t13 -46q0 -68 -62 -68q-38 0 -49.5 17.5t-11.5 50.5z" />
<glyph unicode=";" horiz-adv-x="346" d="M92 -233q-8 8 2 14q56 56 56 135q0 68 -41 125q-12 12 2 20l71 48q10 7 23 -3q37 -40 37 -98q0 -76 -34 -147t-85 -107q-8 -8 -14 -2zM115 840q0 30 13 45.5t48 15.5q36 0 49 -15t13 -46q0 -68 -62 -68q-38 0 -49.5 17.5t-11.5 50.5z" />
<glyph unicode="&#x3c;" horiz-adv-x="1085" d="M166 649v37q0 14 20 27l703 393q19 8 22.5 5t3.5 -13v-31q0 -16 -3.5 -21t-14.5 -10l-659 -364v-2l657 -332q14 -8 18.5 -15t4.5 -22v-29q0 -20 -23 -10l-707 363q-22 13 -22 24z" />
<glyph unicode="=" horiz-adv-x="1085" d="M168 483v43q0 13 12 13h725q13 0 13 -13v-45q0 -8 -13 -8h-725q-12 0 -12 10zM168 827v43q0 13 12 13h725q13 0 13 -13v-45q0 -8 -13 -8h-725q-12 0 -12 10z" />
<glyph unicode="&#x3e;" horiz-adv-x="1085" d="M166 272v29q0 15 4.5 22.5t17.5 14.5l658 332v2l-660 364q-11 5 -14.5 10t-3.5 21v31q0 23 27 8l702 -393q21 -13 21 -27v-37q0 -11 -23 -24l-707 -363q-22 -9 -22 10z" />
<glyph unicode="?" horiz-adv-x="692" d="M41 1325q0 14 10 16q89 31 248 31q48 0 93.5 -7t93.5 -26.5t83.5 -50t58.5 -81.5t23 -117q0 -45 -12.5 -83t-38.5 -69t-48.5 -51.5t-57.5 -46.5q-53 -39 -91 -74.5t-73.5 -82.5t-54 -103.5t-19.5 -122.5v-142q0 -14 -12 -14h-37q-6 0 -8.5 1.5t-3.5 10.5v164 q0 207 237 391q3 3 25 19.5t27.5 21.5t24 21t24.5 24.5t18.5 25t17 30t9 32t4.5 37.5q0 224 -293 224q-109 0 -230 -11q-16 -3 -16 11zM166 47q0 64 61 64q36 0 49 -16t13 -48q0 -31 -13 -48t-49 -17t-48.5 17t-12.5 48z" />
<glyph unicode="@" horiz-adv-x="1632" d="M98 682q0 153 61 287.5t165 228.5t244.5 148.5t295.5 54.5q330 0 513.5 -182t183.5 -500q0 -98 -27.5 -179t-74 -131.5t-104.5 -78t-120 -27.5q-102 0 -151.5 33t-71.5 110q-61 -36 -96 -53.5t-96 -34t-126 -16.5q-180 0 -180 195q0 125 60.5 182t189.5 57h242v70 q0 49 -6.5 79t-26.5 54t-58.5 34.5t-99.5 10.5q-32 0 -67 -2.5t-82 -7t-68 -6.5q-9 -2 -12 0t-4 12l-2 20q-3 14 10 17q76 28 221 28q154 0 210 -48.5t56 -192.5v-344q0 -146 154 -146q119 0 193.5 104t74.5 263q0 293 -171.5 457.5t-463.5 164.5q-193 0 -354.5 -85.5 t-255.5 -237t-94 -336.5q0 -148 51.5 -272.5t142.5 -210.5t218.5 -133.5t277.5 -47.5q124 0 229 23q9 3 13 -6l8 -23q0 -6 -4 -8q-78 -41 -260 -41q-211 0 -378.5 88.5t-263.5 253t-96 375.5zM584 543q0 -83 28.5 -112.5t110.5 -29.5q44 0 108 21t104.5 40t70.5 36v221h-240 q-88 0 -135 -38t-47 -138z" />
<glyph unicode="A" horiz-adv-x="1069" d="M39 2q-2 1 -1.5 3.5t1.5 6.5l444 1331q2 7 5 10t4.5 3h7.5h63q11 0 17 -15l446 -1329q2 -6 2 -9t-10 -3h-55q-13 0 -17 12l-119 371h-591l-119 -371q-2 -12 -15 -12h-51q-9 0 -12 2zM258 451h547l-273 819h-6z" />
<glyph unicode="B" horiz-adv-x="1075" d="M131 16v1325q0 15 14 15l439 2q170 0 267 -90t97 -238q0 -233 -190 -315v-2q65 -20 112.5 -62t72 -94.5t35.5 -103t11 -101.5q0 -161 -94.5 -256.5t-245.5 -95.5h-493q-25 0 -25 16zM209 68h391q305 0 305 299q0 125 -82 216t-227 91h-387v-606zM209 739h346 q150 0 229.5 75t79.5 202q0 125 -74.5 198.5t-224.5 73.5h-356v-549z" />
<glyph unicode="C" horiz-adv-x="1046" d="M145 664q0 87 6 160.5t21 147t39.5 132t63 110t90 85.5t122.5 53.5t158 19.5q239 0 348 -41q15 -4 11 -18l-3 -23q-3 -12 -18 -10q-240 18 -321 18q-82 0 -148 -20t-111 -52.5t-78.5 -83t-52.5 -102.5t-30.5 -119.5t-15 -126t-3.5 -130.5q0 -102 10 -184.5t39 -164 t76 -136.5t125.5 -88.5t183.5 -33.5q152 0 326 17q15 0 18 -13l5 -22q0 -13 -13 -19q-56 -20 -165 -29t-183 -9q-119 0 -208.5 35.5t-144 95t-88.5 149.5t-46.5 185.5t-12.5 216.5z" />
<glyph unicode="D" horiz-adv-x="1210" d="M154 14v1327q0 6 6 10.5t14 4.5h379q122 0 214.5 -34t151.5 -93t96 -146t51.5 -184t14.5 -217q0 -123 -14 -220.5t-50 -186t-94.5 -147.5t-151 -93.5t-216.5 -34.5h-381q-20 0 -20 14zM229 66h328q108 0 189 33.5t129 87.5t77 134.5t39 161.5t10 183q0 98 -9.5 179.5 t-38 166.5t-74.5 143.5t-124.5 95.5t-183.5 37h-342v-1222z" />
<glyph unicode="E" horiz-adv-x="964" d="M141 10v1333q0 15 11 15h706q10 0 10 -12v-46q0 -12 -10 -12h-641v-549h578q10 0 10 -10v-41q0 -6 -0.5 -8.5t-2.5 -4t-7 -1.5h-578v-606h653q13 0 13 -11v-47q0 -10 -13 -10h-718q-11 0 -11 10z" />
<glyph unicode="F" horiz-adv-x="917" d="M147 14v1329q0 15 11 15h696q10 0 10 -12v-46q0 -12 -10 -12h-631v-549h559q11 0 11 -10v-41q0 -14 -11 -14h-559v-660q0 -14 -10 -14h-53q-13 0 -13 14z" />
<glyph unicode="G" horiz-adv-x="1183" d="M133 664q0 123 12 221.5t45.5 192.5t88.5 156t145 100t211 38q239 0 348 -41q14 -3 10 -18l-2 -23q-3 -12 -18 -10q-240 18 -328 18q-83 0 -149 -20t-110.5 -52.5t-77 -83t-50.5 -101.5t-28.5 -120t-13.5 -126t-3 -131t4.5 -134t17.5 -125t34 -115t57 -96t84.5 -76 t117.5 -47.5t154 -17.5q65 0 148 12t135 33v514h-213q-17 0 -17 15v49q0 10 17 10h278q12 0 12 -14v-588q0 -45 -38 -55q-158 -45 -326 -45q-289 0 -417 165t-128 515z" />
<glyph unicode="H" horiz-adv-x="1167" d="M147 12v1334q0 12 11 12h53q10 0 10 -12v-592h727v592q0 12 15 12h49q10 0 10 -12v-1334q0 -12 -10 -12h-49q-15 0 -15 12v676h-727v-676q0 -12 -10 -12h-53q-11 0 -11 12z" />
<glyph unicode="I" horiz-adv-x="458" d="M190 12v1334q0 12 11 12h53q10 0 10 -12v-1334q0 -12 -10 -12h-53q-11 0 -11 12z" />
<glyph unicode="J" horiz-adv-x="808" d="M20 37l7 22q2 8 5 11t13 2q117 -15 221 -15q87 0 144.5 22t87.5 66t41 97q10 48 10 115v12v977q0 12 10 12h55q11 0 11 -12v-1012q0 -82 -17 -144t-56.5 -110.5t-110 -74t-171.5 -25.5q-137 0 -239 38q-13 9 -11 19z" />
<glyph unicode="K" horiz-adv-x="1073" d="M141 12v1334q0 12 11 12h53q10 0 10 -12v-861l694 861q12 12 27 12h55q9 0 11 -5t-3 -10l-446 -548l465 -779q3 -5 3 -9q0 -7 -13 -7h-52q-18 0 -24 12l-428 721l-289 -358v-363q0 -12 -10 -12h-53q-11 0 -11 12z" />
<glyph unicode="L" horiz-adv-x="937" d="M152 12v1331q0 15 12 15h49q10 0 10 -15l2 -1273h676q12 0 12 -13v-47q0 -10 -12 -10h-739q-10 0 -10 12z" />
<glyph unicode="M" horiz-adv-x="1460" d="M150 14v1329q0 15 12 15h57q14 0 19 -12l491 -1024h2l490 1019q1 2 2.5 6t2 4.5t2 3t3.5 2.5t5.5 0.5t8.5 0.5h49q17 0 17 -17v-1327q0 -14 -11 -14h-49q-14 0 -14 14v1188h-4l-463 -956q-8 -15 -16 -15h-45q-16 0 -21 13l-461 958h-4v-1188q0 -14 -10 -14h-49 q-14 0 -14 14z" />
<glyph unicode="N" horiz-adv-x="1234" d="M143 14l2 1329q0 5 3.5 10t9.5 5h55q4 0 6 -0.5t4 -1.5t2.5 -2t2.5 -4t3 -4l785 -1215h4v1212q0 15 10 15h47q15 0 15 -15v-1329q0 -14 -13 -14h-55q-6 0 -9 1.5t-4 2.5t-5 8l-785 1215h-4v-1213q0 -14 -10 -14h-49q-15 0 -15 14z" />
<glyph unicode="O" horiz-adv-x="1261" d="M129 698q0 65 4.5 123t17.5 128.5t35 128.5t60 114.5t88.5 95t124.5 62.5t164 24q91 0 165 -20t126 -53.5t90.5 -84.5t62 -106.5t37.5 -127t19 -138t5 -146.5q0 -82 -4 -148t-17 -142.5t-35 -135.5t-60.5 -115.5t-90.5 -93t-128 -59t-170 -22.5t-169 22.5t-126 58.5 t-88.5 93t-58.5 115t-33 135.5t-15.5 142.5t-3.5 149zM205 678q0 -111 10.5 -199t38.5 -171t74 -138t120.5 -88t174.5 -33q121 0 207 45.5t135 132t70.5 196.5t21.5 255q0 118 -11.5 210t-41.5 173t-78.5 133.5t-124.5 82.5t-178 30q-97 0 -170 -31.5t-120 -86t-76 -136 t-40.5 -172t-11.5 -203.5z" />
<glyph unicode="P" horiz-adv-x="987" d="M131 14v1332q0 12 14 12h392q174 0 281.5 -97t107.5 -278q0 -60 -13 -115.5t-43 -107t-73.5 -89.5t-108.5 -60.5t-145 -22.5h-336v-574q0 -14 -12 -14h-50q-14 0 -14 14zM207 653h334q23 0 49 4t63 14.5t69.5 34t62 57.5t46.5 90t17 126q0 155 -91 232t-245 77h-305v-635 z" />
<glyph unicode="Q" horiz-adv-x="1259" d="M129 698q0 65 4.5 123t17.5 128.5t35 128.5t60 114.5t88.5 95t124.5 62.5t164 24q91 0 165 -20t126 -53.5t90.5 -84.5t62 -106.5t37.5 -127t19 -138t5 -146.5q0 -79 -4 -143t-15 -138t-32.5 -132.5t-54 -113t-83.5 -95t-116 -64.5l324 -84q8 -1 11 -6q2 -4 2 -7 q0 -1 -1 -3l-22 -68q-5 -8 -13 -8q-4 0 -8 2l-422 148q-46 -4 -71 -4q-94 0 -169 22.5t-126 58.5t-88.5 93t-58.5 115t-33 135.5t-15.5 142.5t-3.5 149zM205 678q0 -111 10.5 -199t38.5 -171t74 -138t120.5 -88t174.5 -33q121 0 207 45.5t135 132t70.5 196.5t21.5 255 q0 118 -11.5 210t-41.5 173t-78.5 133.5t-124.5 82.5t-178 30q-97 0 -170 -31.5t-120 -86t-76 -136t-40.5 -172t-11.5 -203.5z" />
<glyph unicode="R" horiz-adv-x="1017" d="M135 14v1332q0 5 4.5 8.5t10.5 3.5h391q84 0 153 -21t122.5 -64t83.5 -115.5t30 -168.5q0 -133 -67 -234.5t-204 -133.5l285 -605q3 -8 3 -11q0 -1 -2 -3t-7 -2h-57q-8 0 -11.5 0.5t-7.5 4t-8 11.5l-268 592h-375v-594q0 -14 -12 -14h-49q-15 0 -15 14zM211 674h334 q21 0 41 1.5t52.5 8.5t59.5 19t56.5 35.5t50 55.5t34 81t13.5 110q0 303 -336 303h-305v-614z" />
<glyph unicode="S" horiz-adv-x="1024" d="M98 53l4 23q3 13 19 10q227 -29 373 -29q167 0 264.5 73t97.5 202q0 84 -21.5 142.5t-67 95.5t-102.5 57.5t-143 34.5t-143.5 29t-114.5 40.5t-90 60.5t-53.5 88.5t-20.5 125.5q0 175 111.5 269.5t304.5 94.5q237 0 352 -43q15 -4 11 -18l-2 -23q-3 -12 -19 -10 q-45 7 -153.5 14.5t-182.5 7.5q-170 0 -256 -75.5t-86 -210.5q0 -59 19 -103.5t47 -72t76.5 -48t90 -30.5t105.5 -21q55 -10 94.5 -19t86 -24.5t78 -34t64 -46.5t51 -63t30.5 -84t12 -108q0 -102 -34.5 -176.5t-97 -117t-140 -62.5t-173.5 -20q-73 0 -201 15.5t-179 35.5 q-12 6 -12 16q0 2 1 4z" />
<glyph unicode="T" horiz-adv-x="931" d="M35 1300v46q0 12 12 12h844q10 0 10 -12v-46q0 -10 -10 -10h-385l-2 -1278q0 -12 -10 -12h-50q-14 0 -14 12v1278h-383q-12 0 -12 10z" />
<glyph unicode="U" horiz-adv-x="1210" d="M139 475v866q0 17 15 17h51q10 0 10 -17v-872q0 -201 95 -310.5t292 -109.5q192 0 292.5 105.5t100.5 314.5v872q0 17 15 17h49q10 0 10 -17v-866q0 -150 -35 -239q-103 -254 -432 -254q-338 0 -428 251q-35 93 -35 242z" />
<glyph unicode="V" horiz-adv-x="1089" d="M50 1354q2 2 13 2h50q12 0 14 -10l410 -1252h6l413 1252q4 10 17 10h53q10 0 10 -2t-2 -8l-444 -1332q-6 -14 -17 -14h-63q-11 0 -14 6q-1 2 -2 6l-443 1334q-2 4 -2 6q0 1 1 2z" />
<glyph unicode="W" horiz-adv-x="1615" d="M53 1346q-1 7 1 8.5t12 1.5h49q12 0 14 -10l348 -1252h6l287 1016l-68 236q-1 7 1 8.5t12 1.5h49q12 0 14 -10l348 -1252h7l352 1252q4 10 16 10h53q8 0 10 -1l1 -1q0 -2 -2 -8l-383 -1332q-3 -14 -17 -14h-63q-12 0 -15 6q-1 2 -2 6l-276 963l-277 -961q-3 -14 -16 -14 h-63q-12 0 -15 6q-1 2 -2 6z" />
<glyph unicode="X" horiz-adv-x="1015" d="M57 12l408 690l-379 644q-4 5 0 8.5t10 3.5h54q10 0 18 -12l342 -580l340 580q8 12 18 12h56q5 0 9 -3.5t1 -8.5l-379 -644l408 -690q1 -3 1 -5q0 -7 -12 -7h-57q-9 0 -16 12l-369 627l-371 -627q-5 -12 -16 -12h-55q-13 0 -13 6q0 3 2 6z" />
<glyph unicode="Y" d="M49 1346q-1 3 -1 5t1 3q3 2 12 2h54q10 0 14 -10l363 -682l362 682q6 10 16 10h54q9 0 11 -2q1 -1 1 -2q0 -2 -2 -6l-408 -746v-586q0 -14 -10 -14h-49q-14 0 -14 14l-2 586z" />
<glyph unicode="Z" horiz-adv-x="950" d="M70 12v35q0 14 10 37l715 1204h-674q-15 0 -15 12v46q0 12 15 12h743q10 0 10 -10v-43q0 -19 -8 -35l-708 -1202h712q11 0 11 -13v-41q0 -14 -11 -14h-788q-12 0 -12 12z" />
<glyph unicode="[" horiz-adv-x="464" d="M100 -193v1602q0 14 11 14h256q10 0 10 -12v-35q0 -12 -10 -12h-191v-1511h189q12 -1 12 -11v-35q0 -10 -12 -10h-254q-11 0 -11 10z" />
<glyph unicode="\" horiz-adv-x="471" d="M2 1405q-2 8 0 10t12 2h49q13 0 15 -12l377 -1532q3 -7 -0.5 -8.5t-12.5 -1.5h-49q-7 0 -9 1t-3 9z" />
<glyph unicode="]" horiz-adv-x="464" d="M82 -158q0 4 3 7t6 3l3 1h189v1511h-191q-10 0 -10 12v35q0 12 10 12h256q10 0 10 -14v-1602q0 -10 -10 -10h-254q-12 0 -12 10v35z" />
<glyph unicode="^" horiz-adv-x="948" d="M63 821l332 514l3 5q3 6 4 7t5 4t9 4t12 1h92q7 0 11.5 -1.5t6 -2.5t4 -6.5t3.5 -6.5l336 -518q3 -3 3.5 -9t-3.5 -9l-19 -10q-9 -9 -16 0l-375 505l-365 -499q-10 -14 -18 -8l-22 14q-11 8 -3 16z" />
<glyph unicode="_" horiz-adv-x="1024" d="M-12 -199q0 13 12 13h1024q12 0 12 -13v-32q0 -9 -12 -9h-1024q-12 0 -12 11v30z" />
<glyph unicode="`" horiz-adv-x="966" d="M369 1395q-7 10 4 14l57 27q15 5 19 -6l137 -265q2 -5 2.5 -8t0.5 -3.5t-3 -2t-4 -2.5l-25 -12q-10 -5 -16 4z" />
<glyph unicode="a" horiz-adv-x="1013" d="M92 244q0 173 84 252t264 79h355v119q0 55 -7 93.5t-25 71.5t-50 52.5t-82 30t-121 10.5q-78 0 -307 -22q-15 0 -17 10l-4 23q0 10 11 14q121 45 311 45q107 0 175 -17t110 -58t58.5 -103.5t16.5 -159.5v-557q0 -51 18 -64t79 -16q12 0 12 -12v-27q0 -13 -21 -16 q-17 -1 -32 -1q-67 -1 -93 21q-32 26 -32 111q-82 -48 -136.5 -74t-139.5 -46.5t-181 -20.5q-125 0 -185.5 65.5t-60.5 196.5zM168 252q0 -118 46 -161.5t165 -43.5q65 0 161 31t154.5 58t100.5 50v324h-363q-62 0 -107 -11t-82 -38.5t-56 -79.5t-19 -129z" />
<glyph unicode="b" d="M102 74v1349q0 13 11 13h47q5 0 7 -0.5t3.5 -3.5t1.5 -9v-467l6 -2q161 64 338 64q109 0 183 -33t116.5 -101.5t60 -160t17.5 -221.5q0 -271 -90 -395.5t-295 -124.5q-202 0 -369 38q-23 6 -30 17.5t-7 36.5zM174 80q170 -31 328 -31q71 0 123 16.5t98 61t70 133 t24 221.5q0 249 -66 360t-223 111q-154 0 -354 -59v-813z" />
<glyph unicode="c" horiz-adv-x="802" d="M92 506q0 66 3.5 117.5t13.5 106.5t26.5 96t45 78.5t67 61.5t93.5 38t124 14q65 0 154 -10.5t143 -30.5q12 -4 10 -16l-4 -21q-4 -12 -18 -10q-171 22 -279 22q-169 0 -237 -100t-68 -344q0 -258 64 -358.5t241 -100.5q126 0 281 21q13 2 16 -11l4 -20q1 -2 1 -4 q0 -9 -11 -12q-54 -20 -147 -30.5t-160 -10.5t-120.5 13t-91 36t-65 60t-44 78t-26 97.5t-13 112t-3.5 127.5z" />
<glyph unicode="d" horiz-adv-x="972" d="M92 483q0 139 17 234.5t59 165.5t114.5 102.5t180.5 32.5q182 0 332 -64l6 2v469q0 13 10 13h51q6 0 6 -8v-5v-1413q-4 -11 -6 -12h-53q-10 0 -10 12v109q-233 -139 -408 -139q-166 0 -232.5 118t-66.5 383zM166 477q0 -162 27 -257t78 -133t135 -38q80 0 197 46t196 91 v709q-191 59 -348 59q-154 0 -219.5 -111.5t-65.5 -365.5z" />
<glyph unicode="e" horiz-adv-x="942" d="M92 506q0 82 8 148.5t32.5 137t65.5 118t112.5 78t168.5 30.5q95 0 166 -25t113.5 -65t68 -100.5t34.5 -121t9 -135.5q0 -46 -14 -66t-51 -20h-635q0 -77 6 -134.5t25 -117t51.5 -97t90 -61.5t136.5 -24q38 0 82 2.5t73 5t81.5 8t77.5 7.5q15 0 18 -11l2 -18 q3 -13 -8 -16q-56 -22 -153 -33.5t-179 -11.5q-72 0 -129.5 15t-97 40t-68 65t-45 81t-26 98t-12.5 107.5t-3 115.5zM168 545h627q-1 51 -3.5 88t-10.5 82t-21.5 76.5t-37 63.5t-56 51.5t-80 31.5t-107.5 12q-73 0 -127.5 -20.5t-88 -54.5t-54.5 -87.5t-29.5 -110.5 t-11.5 -132z" />
<glyph unicode="f" horiz-adv-x="643" d="M72 952v35q0 12 14 12h113v199q0 125 68 188.5t186 63.5q122 0 211 -33q14 -5 18 -9q3 -3 3 -7q0 -3 -1 -6l-6 -21q-3 -9 -7.5 -10t-21.5 2q-87 16 -174 16q-205 0 -205 -188v-195h289q12 0 12 -10v-37q0 -10 -12 -10h-289v-930q0 -12 -10 -12h-47q-14 0 -14 12v930h-115 q-12 0 -12 10z" />
<glyph unicode="g" horiz-adv-x="980" d="M90 500q0 272 89 396t296 124q197 0 369 -39q24 -6 30.5 -16.5t6.5 -36.5v-961q0 -199 -75 -272.5t-278 -73.5q-206 0 -319 39q-13 6 -10 18l2 21q3 10 18 10q216 -22 293 -22q168 0 233.5 58t65.5 208v90l-6 4q-158 -63 -336 -63q-109 0 -183.5 33t-117 101.5t-60.5 160 t-18 221.5zM168 520q0 -249 66 -360t223 -111q149 0 352 60v813q-165 30 -326 30q-56 0 -98.5 -9.5t-85 -37t-70 -74.5t-44.5 -125.5t-17 -185.5z" />
<glyph unicode="h" horiz-adv-x="960" d="M104 12v1413q0 13 7 13h53q7 0 8.5 -2.5t1.5 -10.5v-551q243 142 408 142q45 0 81 -7t63 -16.5t48 -29t34.5 -36t23 -46.5t14 -51t7 -58.5t3 -60.5t0.5 -66l2 -633q0 -12 -10 -12h-57q-7 0 -7 12v641q0 51 -1.5 82t-8 70.5t-20.5 62.5t-37.5 45t-61 31.5t-88.5 9.5 q-79 0 -193 -45t-200 -92v-805q0 -12 -10 -12h-53q-7 0 -7 12z" />
<glyph unicode="i" horiz-adv-x="403" d="M152 1266q0 25 10.5 38t38.5 13q30 0 40.5 -12.5t10.5 -38.5q0 -27 -10.5 -41.5t-40.5 -14.5q-29 0 -39 15t-10 41zM166 12v973q0 7 2 9.5t10 2.5h49q9 0 9 -12v-973q0 -12 -11 -12h-47q-8 0 -10 2t-2 10z" />
<glyph unicode="j" horiz-adv-x="425" d="M-39 -369q0 19 21 19q59 2 99.5 14t61.5 26t32 40.5t13 45.5t2 52v1159q0 12 11 12h49q12 0 12 -12v-1180q0 -34 -3.5 -59.5t-19.5 -59t-44.5 -54t-83.5 -33.5q-42 -10 -96 -10q-17 0 -35 1q-2 0 -6 1t-8.5 6t-4.5 12v20zM176 1266q0 25 10.5 38t38.5 13q30 0 40.5 -12.5 t10.5 -38.5q0 -27 -10.5 -41.5t-40.5 -14.5q-29 0 -39 15t-10 41z" />
<glyph unicode="k" horiz-adv-x="823" d="M102 12v1413q0 13 13 13h49q8 0 8 -13v-940l174 174l340 328q12 12 29 12h51q25 0 8 -20l-362 -346l401 -619q3 -5 3 -8q0 -6 -11 -6h-47q-21 0 -31 18l-362 570l-193 -185v-391q0 -12 -10 -12h-47q-13 0 -13 12z" />
<glyph unicode="l" horiz-adv-x="413" d="M154 92v1333q0 13 12 13h51q8 0 8 -13v-1298q-1 -53 13 -64q11 -9 55 -9q12 0 26 1q19 0 21 -10l4 -29q3 -16 -16 -22q-39 -10 -82 -10q-46 0 -69 24.5t-23 83.5z" />
<glyph unicode="m" horiz-adv-x="1587" d="M115 12v973q0 12 6 12h53q7 0 8.5 -2t1.5 -10v-111q243 142 408 142q94 0 144.5 -40t72.5 -114q123 73 223 113.5t205 40.5q44 0 79.5 -9.5t59.5 -27t42.5 -41.5t28.5 -52.5t17 -61.5t8.5 -68.5t2.5 -71.5q0 -18 0.5 -36t-0.5 -36v-37v-563q0 -12 -11 -12h-55q-6 0 -6 12 v572v30v55.5t-1.5 52.5t-4.5 53t-9 47t-15 44t-22.5 35.5t-31.5 29t-42 16.5t-54 7q-29 0 -67.5 -8.5t-71 -18.5t-78 -29t-69 -29.5t-64.5 -30t-46 -21.5l-6 -4q4 -26 6 -60q3 -34 3 -55v-26v-40q0 -44 -1 -57l2 -563q0 -12 -10 -12h-57q-6 0 -6 12v572v30v55.5t-1.5 52.5 t-4.5 53t-9 47t-15 44t-22.5 35.5t-31.5 29t-42 16.5t-54 7q-79 0 -193.5 -45.5t-200.5 -91.5v-805q0 -12 -10 -12h-53q-6 0 -6 12z" />
<glyph unicode="n" horiz-adv-x="950" d="M102 12v973q0 12 11 12h45q14 0 14 -12v-111q243 142 408 142q79 0 133.5 -21.5t82.5 -49.5t42 -85.5t16 -97.5t2 -117v-633q0 -12 -12 -12h-51q-11 0 -11 12v641q0 51 -1.5 82t-8 70.5t-20.5 62.5t-37.5 45t-61 31.5t-88.5 9.5q-79 0 -193 -45t-200 -92v-805 q0 -12 -14 -12h-45q-11 0 -11 12z" />
<glyph unicode="o" horiz-adv-x="976" d="M92 518q0 49 3 92t13.5 95.5t27 95t46.5 84.5t69.5 70t98.5 45.5t131 17.5q102 0 177.5 -29t118 -74t68 -114t33 -134t7.5 -149q0 -62 -2.5 -108.5t-12 -105t-26 -101.5t-46.5 -86.5t-72 -70.5t-104 -44.5t-141 -17.5q-76 0 -136.5 17t-100.5 43.5t-69 70t-45 85.5 t-24.5 101.5t-11 106t-2.5 110.5zM168 502q0 -84 7 -147t27 -123.5t54 -99t90.5 -62t134.5 -23.5q80 0 139 22.5t95 60.5t57.5 97.5t29 124t7.5 150.5q0 87 -7 150.5t-28 122.5t-57 95.5t-95 58t-141 21.5q-78 0 -134.5 -23.5t-90.5 -61.5t-54 -98t-27 -121.5t-7 -143.5z " />
<glyph unicode="p" horiz-adv-x="980" d="M127 -348v1335q0 12 6 12h53q7 0 9 -2t2 -10v-108q233 139 409 139q165 0 230 -117.5t65 -384.5q0 -140 -16.5 -235t-58 -164.5t-113.5 -102t-181 -32.5q-183 0 -331 63l-6 -2v-391q0 -8 -2 -10t-9 -2h-51q-6 0 -6 12zM197 104q194 -59 348 -59q157 0 219.5 110t62.5 367 q0 241 -55.5 335.5t-181.5 94.5q-79 0 -195.5 -46.5t-197.5 -92.5v-709z" />
<glyph unicode="q" horiz-adv-x="980" d="M88 498q0 269 91 394.5t300 125.5q191 0 363 -39q24 -6 30.5 -16.5t6.5 -36.5v-1272q0 -14 -11 -14h-47q-6 0 -8 2.5t-2 11.5v389l-6 2q-158 -63 -332 -63q-109 0 -184.5 33t-119 101t-62.5 160.5t-19 221.5zM166 518q0 -247 68.5 -359t226.5 -112q148 0 348 59v814 q-165 30 -322 30q-58 0 -102 -9.5t-87 -37t-70.5 -74.5t-44.5 -125.5t-17 -185.5z" />
<glyph unicode="r" horiz-adv-x="544" d="M170 12v975q0 12 10 12h47q13 0 13 -12v-121q168 119 274 148q4 1 7 1q4 0 6 -2q3 -4 5 -14l11 -41q1 -5 1 -8q0 -14 -14 -18q-61 -18 -157 -57t-133 -60v-803q0 -12 -13 -12h-47q-10 0 -10 12z" />
<glyph unicode="s" horiz-adv-x="827" d="M84 39l4 20q0 11 16 11q213 -23 293 -23q273 0 273 203q0 61 -13 101t-46 65.5t-76.5 39.5t-116.5 27q-59 10 -96 17.5t-79.5 21t-67.5 31t-47.5 43.5t-32 62.5t-9.5 84.5q0 275 328 275q64 0 147.5 -10.5t138.5 -30.5q11 -4 11 -16l-4 -21q0 -10 -15 -10 q-203 22 -280 22q-130 0 -191 -48t-61 -154q0 -33 6 -58.5t15 -43.5t29 -32.5t36.5 -23.5t48.5 -17t55.5 -12.5t67.5 -11.5q68 -11 110 -21.5t87.5 -31t70.5 -48.5t41 -74t16 -108q0 -151 -89.5 -216.5t-258.5 -65.5q-199 0 -301 37q-10 3 -10 16z" />
<glyph unicode="t" horiz-adv-x="587" d="M70 952v35q0 12 14 12h127v234q0 12 10 16l37 15q14 4 18 4q2 0 3 -1q2 -2 2 -18v-250h223q7 0 8.5 -1.5t1.5 -8.5v-37q0 -10 -10 -10h-223v-747q0 -40 3.5 -62.5t15.5 -44.5t38.5 -31.5t69.5 -9.5q77 0 143 8q13 2 16 -10l4 -18q2 -13 -10 -19q-81 -24 -186 -24 q-93 0 -128.5 43t-35.5 145v770h-129q-12 0 -12 10z" />
<glyph unicode="u" d="M117 336v18v633q0 12 12 12h49q10 0 10 -12v-641q0 -43 1 -70.5t5.5 -63t13.5 -57t24.5 -45t38.5 -36t57 -21t78 -8.5q135 0 395 137v805q0 12 14 12h45q12 0 12 -12v-977q0 -10 -12 -10h-47q-14 0 -14 10v115q-227 -141 -408 -141q-58 0 -102 10.5t-72.5 24.5 t-48.5 44.5t-30 53t-15 67.5t-5.5 71.5t-0.5 80.5z" />
<glyph unicode="v" horiz-adv-x="894" d="M49 987q-1 2 -1 4q0 6 9 6h49q16 0 21 -14l326 -903h4l319 905q4 14 21 14h43q11 0 11 -6q0 -3 -1 -8l-352 -973q-3 -12 -17 -12h-57q-18 0 -21 14z" />
<glyph unicode="w" horiz-adv-x="1355" d="M45 987q-1 2 -1 4q0 6 9 6h49q16 0 21 -14l285 -903h4l231 754l-49 153q-3 10 8 10h49q16 0 21 -14l284 -903h5l278 905q3 14 21 14h43q11 0 11 -6q0 -3 -1 -8l-312 -973q-3 -12 -16 -12h-57q-18 0 -21 14l-227 709l-227 -711q-3 -12 -17 -12h-57q-17 0 -21 14z" />
<glyph unicode="x" horiz-adv-x="829" d="M45 14l330 494l-309 473q-5 5 -3.5 10.5t11.5 5.5h47q12 0 20 -12l277 -424l276 424q8 12 21 12h47q10 0 10.5 -5.5t-4.5 -10.5l-307 -473l332 -492q4 -6 4 -10q0 -6 -13 -6h-47q-17 0 -24 10l-295 445l-291 -445q-8 -10 -25 -10h-51q-8 0 -8 6q0 3 2 8z" />
<glyph unicode="y" horiz-adv-x="901" d="M53 987q-1 2 -1 4q0 6 9 6h50q15 0 20 -14l307 -903h4l330 905q4 14 21 14h43q11 0 11 -6q0 -3 -1 -8l-486 -1335q-3 -10 -16 -10h-41q-11 0 -12 1.5t0 10.5l112 325z" />
<glyph unicode="z" horiz-adv-x="833" d="M66 14v37q0 18 10 31l618 858h-581q-15 0 -15 10v35q0 14 15 14h635q10 0 12 -1.5t2 -10.5v-37q0 -17 -10 -30l-613 -861h611q12 0 12 -10v-35q0 -14 -12 -14h-670q-9 0 -11.5 2.5t-2.5 11.5z" />
<glyph unicode="{" horiz-adv-x="475" d="M47 602v21q0 9 14 13q3 1 5 1q37 11 60.5 35t34 61t13.5 66t4 75v396q0 85 27 127.5t112 42.5q38 0 74 -8q11 -3 16 -6t6 -5t1 -6v-12q0 -8 -3 -10t-12 -2q-37 0 -67 -5q-25 -4 -42 -13t-25.5 -17t-13 -23.5t-5 -24.5t-0.5 -28v-4v-4v-406q0 -208 -115 -252v-2 q68 -43 90.5 -99t24.5 -153v-428q0 -21 0.5 -30t4.5 -27t13 -27t26.5 -17.5t43.5 -10.5l65 -4q15 -3 15 -13v-14q0 -8 -5 -11t-18 -5q-5 0 -27.5 -3t-46.5 -3q-46 0 -75 11.5t-42.5 36.5t-17.5 51t-4 68v418q0 204 -112 236q-3 1 -6.5 2t-5.5 1.5t-4 1.5t-2.5 3.5t-0.5 5.5z " />
<glyph unicode="|" horiz-adv-x="432" d="M178 -225v1638q0 12 15 12h40q17 0 17 -12v-1638q0 -13 -14 -13h-39q-19 0 -19 13z" />
<glyph unicode="}" horiz-adv-x="475" d="M53 -197q0 10 15 13l65 4q26 2 43.5 10.5t26.5 17.5t13 27t4.5 27t0.5 30v428q2 97 24.5 153t90.5 99v2q-115 44 -115 252v406v8q0 19 -0.5 28.5t-4.5 24.5t-13 23.5t-26 17t-42 12.5q-30 5 -67 5q-6 0 -8.5 0.5t-4.5 3t-2 8.5v12q0 15 23 19q41 6 74 6q46 0 75 -12 t42.5 -37.5t17.5 -52t4 -68.5v-396q1 -46 4 -75t13.5 -66t34 -61t60.5 -35q2 0 5 -1q13 -7 14 -13v-21q0 -4 -1.5 -6.5t-3 -3.5t-6.5 -2t-8 -2q-112 -32 -112 -236v-418q0 -42 -4 -68t-17.5 -51t-42.5 -36.5t-75 -11.5q-24 0 -46.5 3t-27.5 3q-9 1 -13.5 2.5t-7 4.5t-2.5 9 v14z" />
<glyph unicode="~" horiz-adv-x="1085" d="M139 594q48 72 100 106.5t117 34.5q44 0 102 -23t105.5 -50.5t102.5 -50.5t92 -23q25 0 46 7.5t40.5 26t30.5 30.5t32 40q2 2 5.5 6.5t5 6.5t4.5 4.5t5 3t5.5 -0.5t7.5 -3l21 -13q18 -11 8 -26q-87 -148 -213 -148q-58 0 -134 36.5t-148.5 73t-119.5 36.5q-33 0 -63 -17 t-47 -35.5t-43 -52.5q-13 -18 -20 -21t-17 3l-21 12q-20 13 -4 37z" />
<glyph unicode="&#xa1;" horiz-adv-x="405" d="M137 936q0 31 13 48t49 17t48.5 -17t12.5 -48q0 -64 -61 -64q-36 0 -49 16t-13 48zM145 -358l29 1028q0 12 8 12h23q10 0 10 -12l21 -1028q0 -17 -15 -17h-65q-5 0 -8.5 5t-2.5 12z" />
<glyph unicode="&#xa2;" horiz-adv-x="1085" d="M205 506q0 65 3 115.5t13 105t26 95.5t43.5 78.5t64.5 62t90 39.5t120 16v215q0 10 13 10h43q14 0 14 -10v-217q150 -8 239 -39q13 -4 11 -16l-4 -21q-3 -10 -15 -10q-203 22 -282 22q-169 0 -237 -100t-68 -344q0 -253 68.5 -356t236.5 -103q125 0 280 21q14 2 17 -11 l4 -20q3 -11 -11 -16q-82 -31 -239 -39v-224q0 -10 -12 -10h-41q-17 0 -17 10v222q-67 0 -119.5 13.5t-90.5 36.5t-65 60t-43.5 77.5t-26 97.5t-12.5 112t-3 127z" />
<glyph unicode="&#xa3;" horiz-adv-x="1085" d="M127 14v31q0 16 18 25q32 16 56.5 40.5t38.5 58.5t22.5 63t12 73t4 68t0.5 67v13v182h-121q-11 0 -11 14v35q0 10 11 10h121v344q0 153 91.5 244.5t250.5 91.5q210 0 325 -43q14 -3 10 -18l-2 -23q-3 -12 -18 -10q-240 18 -315 18q-129 0 -198 -69t-69 -199v-336h443 q10 0 10 -10v-35q0 -6 -0.5 -8.5t-2.5 -4t-7 -1.5h-443v-182q0 -48 -0.5 -75.5t-3.5 -72.5t-10.5 -74.5t-20 -63.5t-33 -59t-48.5 -42l700 2q12 0 12 -11v-47q0 -10 -12 -10h-797q-8 0 -11 2.5t-3 11.5z" />
<glyph unicode="&#xa4;" horiz-adv-x="1030" d="M100 168q-4 7 2 10l113 115q-94 119 -94 262q0 147 92 260l-109 105q-6 3 -2 10l50 53q5 5 10 0l112 -109q117 93 261 93q141 0 253 -88l101 102q10 10 16 0l45 -47q6 -6 -2 -14l-98 -101q96 -117 96 -264q0 -149 -96 -266l102 -103q8 -8 2 -14l-47 -47q-6 -10 -16 0 l-103 104q-112 -88 -253 -88q-147 0 -261 90l-114 -112q-5 -5 -10 0zM199 555q0 -139 97.5 -237.5t235.5 -98.5q141 0 239.5 98t98.5 238t-98.5 238t-239.5 98q-138 0 -235.5 -98.5t-97.5 -237.5z" />
<glyph unicode="&#xa5;" horiz-adv-x="1085" d="M100 1346q-3 6 0.5 8t12.5 2h53q10 0 14 -10l363 -684l362 684q6 10 17 10h53q9 0 11 -2t-1 -8l-393 -721h356q13 0 13 -13v-47q0 -8 -13 -8h-794q-11 0 -11 10v45q0 13 11 13h335zM143 365v43q0 12 11 12h794q13 0 13 -12v-46q0 -8 -13 -8h-370v-340q0 -14 -11 -14h-49 q-14 0 -14 14v340h-350q-11 0 -11 11z" />
<glyph unicode="&#xa6;" horiz-adv-x="432" d="M178 -225v774q0 12 15 12h40q17 0 17 -12v-774q0 -13 -14 -13h-39q-19 0 -19 13zM178 651v754q0 12 15 12h40q17 0 17 -12v-754q0 -12 -14 -12h-39q-19 0 -19 12z" />
<glyph unicode="&#xa7;" horiz-adv-x="819" d="M80 573q0 79 27.5 150.5t107.5 150.5q-72 47 -98.5 96t-26.5 117q0 118 93 198.5t245 80.5q64 0 148 -10.5t139 -30.5q13 -3 10 -16l-4 -21q0 -6 -2.5 -8t-11.5 -2q-203 22 -281 22q-123 0 -196.5 -65t-73.5 -158q0 -34 18 -65.5t53 -59t70 -48t84 -44.5 q17 -9 62.5 -29.5t71.5 -34t67 -37t66 -45.5t50.5 -51t37.5 -63t12 -72q0 -86 -26.5 -153.5t-103.5 -141.5q113 -91 113 -223t-92.5 -218.5t-247.5 -86.5q-179 0 -287 39q-12 4 -8 18l2 21q3 10 17 8q14 -1 79 -7t113.5 -9.5t87.5 -3.5q122 0 195.5 68.5t73.5 162.5 q0 34 -10 63.5t-24 52.5t-41 45.5t-49.5 38t-61.5 35t-66 31t-73 31t-73 31.5q-72 33 -129 96t-57 147zM145 604q0 -83 46.5 -135t127.5 -92q41 -22 128 -57t126 -54q39 50 58 77.5t35 69t16 85.5q0 142 -170 227q-35 18 -116.5 55t-129.5 62q-121 -105 -121 -238z" />
<glyph unicode="&#xa8;" horiz-adv-x="972" d="M276 1260q0 24 10.5 36.5t37.5 12.5q29 0 39 -12.5t10 -36.5q0 -54 -49 -54q-29 0 -38.5 14t-9.5 40zM635 1260q0 24 10 36.5t37 12.5q29 0 39 -12.5t10 -36.5q0 -54 -49 -54q-29 0 -38 14t-9 40z" />
<glyph unicode="&#xa9;" horiz-adv-x="1605" d="M86 686q0 147 56.5 280t152 228.5t227.5 152t277 56.5q150 0 283 -56.5t227.5 -152.5t149 -228t54.5 -280q0 -196 -95.5 -361t-260 -260.5t-358.5 -95.5q-199 0 -363 95.5t-257 260t-93 361.5zM145 686q0 -180 88 -333t238.5 -241.5t327.5 -88.5q133 0 254.5 52.5 t209 141t139.5 211.5t52 258q0 181 -87.5 333.5t-238.5 241.5t-329 89q-177 0 -327.5 -89t-238.5 -242t-88 -333zM508 655q0 416 303 416q117 0 190 -24q11 -7 11 -21l-2 -16q0 -6 -5.5 -9.5t-13.5 -1.5q-4 0 -12.5 1t-13.5 1q-124 11 -154 11q-62 0 -108.5 -23.5t-71.5 -58 t-40 -85t-19.5 -94t-4.5 -96.5q0 -51 5.5 -95.5t22 -91t42 -79t69.5 -53.5t101 -21q55 0 184 11q7 0 14 -3.5t7 -9.5v-18q0 -14 -11 -14q-34 -12 -99 -18.5t-101 -6.5q-79 0 -137.5 31t-91.5 87.5t-48.5 126t-15.5 154.5z" />
<glyph unicode="&#xaa;" horiz-adv-x="690" d="M57 743q0 115 59.5 168.5t186.5 53.5h229v65q0 90 -37 126t-149 36q-108 0 -207 -16q-15 -3 -18 10l-4 16q-3 17 24 23q94 24 203 24q147 0 199.5 -48.5t52.5 -176.5v-356q0 -32 10 -38t56 -9q10 0 10 -11v-22q0 -15 -21 -15q-70 -4 -93 14t-26 72q-59 -32 -91.5 -47.5 t-92.5 -32t-121 -16.5q-170 0 -170 180zM125 750q0 -71 28.5 -99t102.5 -28q98 0 276 84v196h-235q-84 0 -128 -32t-44 -121z" />
<glyph unicode="&#xab;" horiz-adv-x="710" d="M96 334q-12 16 0 33l205 260q2 2 4.5 5.5t3.5 4.5t3.5 3t5.5 3t7.5 1.5t10.5 0.5h41q6 0 7.5 -4.5t-3.5 -9.5l-221 -279l225 -276q4 -4 2.5 -9.5t-8.5 -5.5h-39q-24 0 -39 19zM344 334q-15 15 0 33l205 260q5 7 5.5 8t5 5t9.5 4.5t13 0.5h41q6 0 7.5 -4.5t-1.5 -9.5 l-223 -279l225 -276q5 -4 3.5 -9.5t-7.5 -5.5h-41q-12 0 -20 3.5t-9 5t-8 10.5z" />
<glyph unicode="&#xac;" horiz-adv-x="1085" d="M168 649v43q0 13 12 13h727q11 0 11 -13v-401q0 -10 -13 -10h-43q-8 0 -8 10v348h-674q-12 0 -12 10z" />
<glyph unicode="&#xad;" horiz-adv-x="704" d="M80 633v55q0 12 10 12h543q10 0 10 -12v-57q0 -8 -10 -8h-543q-7 0 -8.5 1.5t-1.5 8.5z" />
<glyph unicode="&#xae;" horiz-adv-x="1042" d="M78 1036q0 187 128.5 318t313.5 131q188 0 315.5 -130.5t127.5 -318.5q0 -187 -130 -318.5t-313 -131.5q-185 0 -313.5 130.5t-128.5 319.5zM121 1036q0 -169 116.5 -288t282.5 -119q164 0 281 119t117 288q0 167 -117 286.5t-281 119.5q-165 0 -282 -119t-117 -287z M379 760v540q0 11 14 11h158q71 0 116.5 -39t45.5 -119q0 -52 -26 -95t-79 -59l111 -233q8 -16 -4 -16h-29q-13 0 -18 10l-105 231h-137v-231q0 -10 -12 -10h-23q-12 0 -12 10zM426 1034h125q16 0 32 3.5t37.5 14t34.5 36.5t13 65q0 113 -127 113h-115v-232z" />
<glyph unicode="&#xaf;" horiz-adv-x="972" d="M274 1229v45q0 12 11 12h460q11 0 11 -12v-47q0 -8 -11 -8h-460q-7 0 -9 2t-2 8z" />
<glyph unicode="&#xb0;" horiz-adv-x="663" d="M106 1108q0 97 71.5 168.5t172.5 71.5q100 0 169 -71t69 -169q0 -100 -69 -169t-169 -69q-112 0 -178 67.5t-66 170.5zM170 1104q0 -72 51.5 -124t124.5 -52q71 0 122.5 52t51.5 124q0 73 -51.5 126.5t-122.5 53.5q-73 0 -124.5 -53t-51.5 -127z" />
<glyph unicode="&#xb1;" horiz-adv-x="1085" d="M170 109v43q0 12 12 12h719q12 0 12 -12v-46q0 -8 -12 -8h-719q-12 0 -12 11zM170 649v43q0 13 12 13h324v337q0 13 12 13h45q8 0 8 -13v-337h330q12 0 12 -13v-45q0 -8 -12 -8h-330v-346q0 -12 -10 -12h-43q-8 0 -10 2.5t-2 9.5v346h-324q-12 0 -12 10z" />
<glyph unicode="&#xb2;" horiz-adv-x="659" d="M53 776v21q0 18 23 41l327 319q97 93 97 180q0 156 -209 156q-98 0 -197 -18q-13 -1 -16.5 1t-5.5 13l-2 12q-3 17 12 21q118 30 213 30q274 0 274 -204q0 -70 -29 -122.5t-85 -105.5l-314 -305h426q10 0 13.5 -3t3.5 -13v-23q0 -16 -17 -16h-491h-3q-7 0 -10.5 0.5 t-6.5 4t-3 11.5z" />
<glyph unicode="&#xb3;" horiz-adv-x="659" d="M51 797l6 20q4 11 23 8q109 -16 205 -16q52 0 88 6.5t73 27t56.5 65.5t19.5 114q0 61 -35.5 92.5t-109.5 42.5l-146 23q-16 3 -16 18v27q0 14 12 26l258 234h-405q-19 0 -19 14v25q0 18 19 18h469q18 0 18 -18v-25q0 -24 -12 -33l-268 -239l131 -21q172 -26 172 -178 q0 -85 -22 -141.5t-65 -85.5t-93.5 -40t-120.5 -11q-152 0 -232 30q-11 4 -6 17z" />
<glyph unicode="&#xb4;" horiz-adv-x="966" d="M438 1165l137 265q7 12 19 6l57 -27q11 -4 4 -14l-172 -254q-5 -10 -14 -4l-25 12q-10 5 -6 16z" />
<glyph unicode="&#xb6;" horiz-adv-x="956" d="M61 1001q1 104 51 183t131 119t179 40h375q20 0 20 -20v-29q0 -22 -20 -22h-76v-1426q0 -20 -21 -20h-32q-23 0 -23 20v1428h-217v-1428q0 -20 -20 -20h-33q-23 0 -23 20v811q-63 0 -114 20t-84 53.5t-54.5 78.5t-30.5 93t-8 99z" />
<glyph unicode="&#xb7;" horiz-adv-x="346" d="M115 520q0 30 13 46t48 16q36 0 49 -15.5t13 -46.5q0 -67 -62 -67q-38 0 -49.5 17t-11.5 50z" />
<glyph unicode="&#xb8;" horiz-adv-x="802" d="M291 -344l6 18q4 12 18 9q73 -13 117 -13q49 0 81 23t32 63q0 45 -28 67t-107 25q-9 0 -14 7.5t-1 17.5l60 152h51l-49 -134q90 -6 127 -39.5t37 -91.5q0 -71 -52.5 -108t-136.5 -37q-58 0 -129 23q-17 7 -12 18z" />
<glyph unicode="&#xb9;" horiz-adv-x="555" d="M68 772v27q0 10 3.5 13t12.5 3h158v641h-146q-18 0 -18 14v13q0 14 12 16l143 37q18 6 33 6h23q18 0 18 -16v-711h166q9 0 12.5 -3t3.5 -13v-27q0 -12 -16 -12h-389q-16 0 -16 12z" />
<glyph unicode="&#xba;" horiz-adv-x="673" d="M59 920q0 327 273 327q71 0 123.5 -19t82.5 -48.5t47.5 -75t23 -88t5.5 -96.5q0 -42 -1.5 -72.5t-8 -70t-18 -68t-32.5 -58t-50.5 -47.5t-73 -29.5t-98.5 -11.5q-62 0 -109 14t-76 41.5t-47.5 58.5t-27 76t-11 81t-2.5 86zM127 907q0 -67 8 -114t29 -88t63 -61.5 t105 -20.5q65 0 109 20t66.5 60.5t31 88t8.5 115.5q0 69 -8.5 115.5t-30.5 86t-66 58.5t-110 19q-63 0 -105 -20.5t-63 -61.5t-29 -87t-8 -110z" />
<glyph unicode="&#xbb;" horiz-adv-x="710" d="M88.5 66.5q-1.5 5.5 3.5 9.5l225 276l-221 277q-3 4 -3.5 7.5t1.5 6t6 2.5h41h7t5.5 -0.5t4.5 -1t3.5 -2t3 -2t3 -2t2 -2.5t2 -3t2.5 -3l205 -260q15 -20 2 -33l-207 -256q-1 -1 -2.5 -3t-2 -3t-2 -2.5l-2.5 -2.5t-3 -2.5t-3.5 -2t-4 -1.5t-5 -1t-5.5 -0.5t-7 -0.5h-41 q-6 0 -7.5 5.5zM336.5 66.5q-1.5 5.5 1.5 9.5l225 276l-221 277q-3 4 -3.5 7.5t1.5 6t6 2.5h41q7 0 12 -0.5t8.5 -2.5t5 -3t4.5 -4.5t5 -5.5l205 -260q13 -20 0 -33l-205 -256q-15 -19 -37 -19h-41q-6 0 -7.5 5.5z" />
<glyph unicode="&#xbc;" horiz-adv-x="1495" d="M143 588v26q0 10 4 13.5t13 3.5h157v641h-145q-18 0 -18 14v12q0 15 12 17l143 37q18 6 33 6h23q18 0 18 -17v-710h166q9 0 12.5 -3.5t3.5 -13.5v-26q0 -13 -16 -13h-389q-17 0 -17 13zM444 -35l557 1458q1 5 2 7t3.5 3t7.5 1h43q10 0 11 -2.5t-3 -8.5l-557 -1458 q-3 -8 -5 -10t-9 -2h-41q-14 0 -9 12zM729 236v24q0 19 12 31l420 479q12 12 29 12h22q7 0 10.5 -0.5t6 -4t2.5 -11.5v-490h102q17 0 17 -14v-26q0 -15 -17 -15h-102v-203q0 -18 -17 -18h-30q-10 0 -12.5 4t-2.5 14v203h-426q-14 0 -14 15zM805 276h364v416z" />
<glyph unicode="&#xbd;" horiz-adv-x="1495" d="M92 588v26q0 10 4 13.5t13 3.5h157v641h-145q-19 0 -19 14v12q0 14 13 17l143 37q18 6 33 6h22q19 0 19 -17v-710h166q9 0 12.5 -3.5t3.5 -13.5v-26q0 -13 -16 -13h-389q-17 0 -17 13zM403 -35l558 1458q1 5 1.5 6.5t3 3t7.5 1.5h43q10 0 11 -2.5t-3 -8.5l-557 -1458 q-3 -8 -5 -10t-9 -2h-41q-14 0 -9 12zM872 16v21q0 18 23 41l328 319q96 92 96 181q0 155 -209 155q-98 0 -197 -18q-13 -1 -16.5 1t-5.5 13l-2 12q-3 17 12 21q122 31 213 31q275 0 275 -205q0 -69 -29.5 -121.5t-85.5 -106.5l-313 -305h425q10 0 13.5 -3t3.5 -13v-23 q0 -16 -17 -16h-491h-3q-7 0 -10.5 0.5t-6.5 4t-3 11.5z" />
<glyph unicode="&#xbe;" horiz-adv-x="1495" d="M82 612l6 21q4 11 23 8q109 -16 204 -16q41 0 70.5 3.5t63 16t55 35t35.5 62.5t14 96q0 61 -35.5 92.5t-109.5 42.5l-146 22q-16 3 -16 19v26q0 15 12 27l258 233h-405q-19 0 -19 15v24q0 19 19 19h469q18 0 18 -19v-24q0 -24 -12 -33l-269 -240l132 -20 q172 -26 172 -178q0 -85 -22 -141.5t-65.5 -85.5t-94 -40.5t-120.5 -11.5q-149 0 -231 31q-11 4 -6 16zM475.5 -44.5q-1.5 2.5 1.5 9.5l557 1458q1 5 2 7t3.5 3t7.5 1h43q10 0 11 -2.5t-3 -8.5l-557 -1458q-3 -8 -5.5 -10t-9.5 -2h-41q-8 0 -9.5 2.5zM793 236v24q0 19 12 31 l420 479q12 12 28 12h23q7 0 10 -0.5t5.5 -4t2.5 -11.5v-490h103q16 0 16 -14v-26q0 -15 -16 -15h-103v-203q0 -18 -16 -18h-31q-10 0 -12 3.5t-2 14.5v203h-426q-14 0 -14 15zM868 276h365v416z" />
<glyph unicode="&#xbf;" horiz-adv-x="692" d="M41 -106q0 45 13 82.5t39 69t48 51t58 46.5q53 39 90.5 74.5t73 82t54 103.5t19.5 123v142q0 14 13 14h36q5 0 7 -0.5t4 -3t2 -8.5v-164q0 -207 -238 -391q-3 -2 -20.5 -15.5t-21.5 -17t-19.5 -16.5t-20.5 -18.5t-17.5 -18.5t-17 -21.5t-12.5 -22.5t-11.5 -25.5t-6 -26.5 t-2.5 -31q0 -64 22.5 -108.5t64.5 -68.5t91.5 -34t113.5 -10q120 0 230 10q13 2 16 -10l2 -21q4 -15 -10 -18q-89 -31 -248 -31q-48 0 -93.5 7t-93.5 27t-83.5 50.5t-58.5 81.5t-23 117zM408 936q0 31 13 48t48 17q36 0 48.5 -17t12.5 -48q0 -64 -61 -64q-36 0 -48.5 16 t-12.5 48z" />
<glyph unicode="&#xc0;" horiz-adv-x="1069" d="M39 2.5q-3 2.5 0 9.5l444 1331q2 7 5 10t4.5 3h7.5h63q11 0 17 -15l446 -1329q3 -8 2 -10t-10 -2h-55q-13 0 -17 12l-119 371h-591l-119 -371q-2 -12 -15 -12h-51q-9 0 -12 2.5zM254 1616l39 49q6 7 8.5 8t9.5 -4l246 -170q10 -8 2 -16l-16 -23q-5 -7 -15 -4l-270 143 q-12 6 -4 17zM258 451h547l-273 819h-6z" />
<glyph unicode="&#xc1;" horiz-adv-x="1069" d="M39 2.5q-3 2.5 0 9.5l444 1331q2 7 5 10t4.5 3h7.5h63q11 0 17 -15l446 -1329q3 -8 2 -10t-10 -2h-55q-13 0 -17 12l-119 371h-591l-119 -371q-2 -12 -15 -12h-51q-9 0 -12 2.5zM258 451h547l-273 819h-6zM504 1483q-8 8 2 16l246 170q8 5 10 4t8 -8l39 -49q7 -11 -4 -17 l-270 -143q-10 -3 -15 4z" />
<glyph unicode="&#xc2;" horiz-adv-x="1069" d="M39 2.5q-3 2.5 0 9.5l444 1331q2 7 5 10t4.5 3h7.5h63q11 0 17 -15l446 -1329q3 -8 2 -10t-10 -2h-55q-13 0 -17 12l-119 371h-591l-119 -371q-2 -12 -15 -12h-51q-9 0 -12 2.5zM258 451h547l-273 819h-6zM264 1477q-7 7 0 14l193 168q14 14 28 14h88q14 0 31 -14 l191 -168q7 -7 0 -14l-23 -21q-6 -4 -16 2l-228 148l-225 -148q-10 -6 -16 -2z" />
<glyph unicode="&#xc3;" horiz-adv-x="1069" d="M39 2.5q-3 2.5 0 9.5l444 1331q2 7 5 10t4.5 3h7.5h63q11 0 17 -15l446 -1329q3 -8 2 -10t-10 -2h-55q-13 0 -17 12l-119 371h-591l-119 -371q-2 -12 -15 -12h-51q-9 0 -12 2.5zM240 1522q35 59 73.5 85.5t87.5 26.5q48 0 150.5 -55t136.5 -55t57.5 21t47.5 61 q7 11 10 12.5t16 -2.5l21 -10q14 -8 4 -27q-58 -117 -158 -117q-36 0 -78 17t-74.5 37.5t-70 37.5t-64.5 17q-53 0 -106 -78q-10 -15 -17 -18t-16 2l-16 8q-22 11 -4 37zM258 451h547l-273 819h-6z" />
<glyph unicode="&#xc4;" horiz-adv-x="1069" d="M39 2.5q-3 2.5 0 9.5l444 1331q2 7 5 10t4.5 3h7.5h63q11 0 17 -15l446 -1329q3 -8 2 -10t-10 -2h-55q-13 0 -17 12l-119 371h-591l-119 -371q-2 -12 -15 -12h-51q-9 0 -12 2.5zM258 451h547l-273 819h-6zM291 1542q0 51 49 51q29 0 38 -12.5t9 -38.5q0 -25 -9.5 -38 t-37.5 -13q-29 0 -39 13.5t-10 37.5zM621 1542q0 51 49 51q29 0 38 -12.5t9 -38.5q0 -25 -9.5 -38t-37.5 -13q-29 0 -39 13.5t-10 37.5z" />
<glyph unicode="&#xc5;" horiz-adv-x="1069" d="M39 2.5q-3 2.5 0 9.5l444 1331q2 7 5 10t4.5 3h7.5h63q11 0 17 -15l446 -1329q3 -8 2 -10t-10 -2h-55q-13 0 -17 12l-119 371h-591l-119 -371q-2 -12 -15 -12h-51q-9 0 -12 2.5zM258 451h547l-273 819h-6zM346 1597q0 78 55.5 130.5t130.5 52.5q78 0 131.5 -54.5 t53.5 -128.5q0 -75 -53.5 -129.5t-131.5 -54.5q-76 0 -131 52t-55 132zM408 1597q0 -58 34 -94.5t90 -36.5q55 0 91 37t36 94q0 54 -36.5 93t-90.5 39q-52 0 -88 -39.5t-36 -92.5z" />
<glyph unicode="&#xc6;" horiz-adv-x="1595" d="M16 2q-3 2 0 10l705 1331q4 15 18 15h750q10 0 10 -12v-46q0 -12 -10 -12h-641v-549h577q11 0 11 -10v-41q0 -14 -11 -14h-577v-606h653q12 0 12 -11v-47q0 -10 -12 -10h-719q-10 0 -10 10v373h-481l-197 -371q-6 -12 -20 -12h-45q-10 0 -13 2zM326 451h446v837h-6z" />
<glyph unicode="&#xc7;" horiz-adv-x="1046" d="M145 664q0 87 6 160.5t21 147t39.5 132t63 110t90 85.5t122.5 53.5t158 19.5q239 0 348 -41q15 -4 11 -18l-3 -23q-3 -12 -18 -10q-240 18 -321 18q-82 0 -148 -20t-111 -52.5t-78.5 -83t-52.5 -102.5t-30.5 -119.5t-15 -126t-3.5 -130.5q0 -102 10 -184.5t39 -164 t76 -136.5t125.5 -88.5t183.5 -33.5q152 0 326 17q15 0 18 -13l5 -22q0 -13 -13 -19q-93 -32 -323 -38l-33 -91q90 -6 127 -39.5t37 -91.5q0 -71 -52.5 -108t-136.5 -37q-58 0 -129 23q-17 7 -12 18l6 18q4 12 19 9q73 -13 116 -13q49 0 81 23t32 63q0 45 -28 67t-107 25 q-9 0 -14 7.5t-1 17.5l43 111q-112 4 -196.5 41t-136.5 96.5t-84 148t-44 182.5t-12 212z" />
<glyph unicode="&#xc8;" horiz-adv-x="964" d="M141 10v1333q0 15 11 15h706q10 0 10 -12v-46q0 -12 -10 -12h-641v-549h578q10 0 10 -10v-41q0 -6 -0.5 -8.5t-2.5 -4t-7 -1.5h-578v-606h653q13 0 13 -11v-47q0 -10 -13 -10h-718q-11 0 -11 10zM254 1616l39 49q6 7 8.5 8t9.5 -4l246 -170q10 -8 2 -16l-16 -23 q-5 -7 -15 -4l-270 143q-12 6 -4 17z" />
<glyph unicode="&#xc9;" horiz-adv-x="964" d="M141 10v1333q0 15 11 15h706q10 0 10 -12v-46q0 -12 -10 -12h-641v-549h578q10 0 10 -10v-41q0 -6 -0.5 -8.5t-2.5 -4t-7 -1.5h-578v-606h653q13 0 13 -11v-47q0 -10 -13 -10h-718q-11 0 -11 10zM463 1483q-8 8 2 16l246 170q7 5 9.5 4t8.5 -8l39 -49q8 -11 -4 -17 l-270 -143q-10 -3 -15 4z" />
<glyph unicode="&#xca;" horiz-adv-x="964" d="M141 10v1333q0 15 11 15h706q10 0 10 -12v-46q0 -12 -10 -12h-641v-549h578q10 0 10 -10v-41q0 -6 -0.5 -8.5t-2.5 -4t-7 -1.5h-578v-606h653q13 0 13 -11v-47q0 -10 -13 -10h-718q-11 0 -11 10zM250 1477q-7 7 0 14l192 168q14 14 29 14h88q14 0 31 -14l190 -168 q7 -7 0 -14l-22 -21q-7 -5 -17 2l-227 148l-225 -148q-10 -7 -17 -2z" />
<glyph unicode="&#xcb;" horiz-adv-x="964" d="M141 10v1333q0 15 11 15h706q10 0 10 -12v-46q0 -12 -10 -12h-641v-549h578q10 0 10 -10v-41q0 -6 -0.5 -8.5t-2.5 -4t-7 -1.5h-578v-606h653q13 0 13 -11v-47q0 -10 -13 -10h-718q-11 0 -11 10zM274 1542q0 51 50 51q29 0 38 -12.5t9 -38.5q0 -25 -9.5 -38t-37.5 -13 q-29 0 -39.5 13.5t-10.5 37.5zM604 1542q0 51 49 51q29 0 38 -12.5t9 -38.5q0 -25 -9.5 -38t-37.5 -13q-29 0 -39 13.5t-10 37.5z" />
<glyph unicode="&#xcc;" horiz-adv-x="458" d="M-43 1616l39 49q6 7 8 8t10 -4l246 -170q10 -8 2 -16l-16 -23q-5 -7 -15 -4l-270 143q-11 6 -4 17zM190 12v1334q0 12 11 12h53q10 0 10 -12v-1334q0 -12 -10 -12h-53q-11 0 -11 12z" />
<glyph unicode="&#xcd;" horiz-adv-x="458" d="M190 12v1334q0 12 11 12h53q10 0 10 -12v-1334q0 -12 -10 -12h-53q-11 0 -11 12zM197 1483q-8 8 2 16l245 170q7 5 10 4t9 -8l39 -49q8 -11 -4 -17l-271 -143q-9 -3 -14 4z" />
<glyph unicode="&#xce;" horiz-adv-x="458" d="M-43 1477q-7 7 0 14l193 168q14 14 28 14h88q14 0 31 -14l190 -168q7 -7 0 -14l-22 -21q-7 -4 -16 2l-228 148l-225 -148q-9 -6 -16 -2zM190 12v1334q0 12 11 12h53q10 0 10 -12v-1334q0 -12 -10 -12h-53q-11 0 -11 12z" />
<glyph unicode="&#xcf;" horiz-adv-x="458" d="M10 1542q0 51 49 51q29 0 38 -12.5t9 -38.5q0 -25 -9.5 -38t-37.5 -13q-29 0 -39 13.5t-10 37.5zM190 12v1334q0 12 11 12h53q10 0 10 -12v-1334q0 -12 -10 -12h-53q-11 0 -11 12zM340 1542q0 51 49 51q29 0 38 -12.5t9 -38.5q0 -25 -9.5 -38t-37.5 -13q-29 0 -39 13.5 t-10 37.5z" />
<glyph unicode="&#xd0;" horiz-adv-x="1210" d="M2 680v45q0 12 10 12h142v604q0 6 6 10.5t14 4.5h379q122 0 214.5 -34t151.5 -93t96 -146t51.5 -184t14.5 -217q0 -123 -14 -220.5t-50 -186t-94.5 -147.5t-151 -93.5t-216.5 -34.5h-381q-20 0 -20 14v656h-142q-7 0 -8.5 2t-1.5 8zM229 66h328q108 0 189 33.5t129 87.5 t77 134.5t39 161.5t10 183q0 98 -9.5 179.5t-38 166.5t-74.5 143.5t-124.5 95.5t-183.5 37h-342v-551h244q10 0 10 -12v-47q0 -8 -10 -8h-244v-604z" />
<glyph unicode="&#xd1;" horiz-adv-x="1234" d="M143 14l2 1329q0 5 3.5 10t9.5 5h55q4 0 6 -0.5t4 -1.5t2.5 -2t2.5 -4t3 -4l785 -1215h4v1212q0 15 10 15h47q15 0 15 -15v-1329q0 -14 -13 -14h-55q-6 0 -9 1.5t-4 2.5t-5 8l-785 1215h-4v-1213q0 -14 -10 -14h-49q-15 0 -15 14zM328 1520q35 59 73.5 85.5t87.5 26.5 t151 -55t136 -55t57.5 21t47.5 61q7 11 10 12.5t16 -2.5l21 -10q14 -8 4 -27q-58 -117 -158 -117q-36 0 -78 17t-74.5 37.5t-70 37.5t-64.5 17q-53 0 -106 -78q-10 -15 -17 -18t-16 2l-16 8q-22 11 -4 37z" />
<glyph unicode="&#xd2;" horiz-adv-x="1261" d="M129 698q0 65 4.5 123t17.5 128.5t35 128.5t60 114.5t88.5 95t124.5 62.5t164 24q91 0 165 -20t126 -53.5t90.5 -84.5t62 -106.5t37.5 -127t19 -138t5 -146.5q0 -82 -4 -148t-17 -142.5t-35 -135.5t-60.5 -115.5t-90.5 -93t-128 -59t-170 -22.5t-169 22.5t-126 58.5 t-88.5 93t-58.5 115t-33 135.5t-15.5 142.5t-3.5 149zM205 678q0 -111 10.5 -199t38.5 -171t74 -138t120.5 -88t174.5 -33q121 0 207 45.5t135 132t70.5 196.5t21.5 255q0 118 -11.5 210t-41.5 173t-78.5 133.5t-124.5 82.5t-178 30q-97 0 -170 -31.5t-120 -86t-76 -136 t-40.5 -172t-11.5 -203.5zM422 1616l39 49q6 7 8 8t10 -4l246 -170q10 -8 2 -16l-16 -23q-5 -7 -15 -4l-270 143q-12 6 -4 17z" />
<glyph unicode="&#xd3;" horiz-adv-x="1261" d="M129 698q0 65 4.5 123t17.5 128.5t35 128.5t60 114.5t88.5 95t124.5 62.5t164 24q91 0 165 -20t126 -53.5t90.5 -84.5t62 -106.5t37.5 -127t19 -138t5 -146.5q0 -82 -4 -148t-17 -142.5t-35 -135.5t-60.5 -115.5t-90.5 -93t-128 -59t-170 -22.5t-169 22.5t-126 58.5 t-88.5 93t-58.5 115t-33 135.5t-15.5 142.5t-3.5 149zM205 678q0 -111 10.5 -199t38.5 -171t74 -138t120.5 -88t174.5 -33q121 0 207 45.5t135 132t70.5 196.5t21.5 255q0 118 -11.5 210t-41.5 173t-78.5 133.5t-124.5 82.5t-178 30q-97 0 -170 -31.5t-120 -86t-76 -136 t-40.5 -172t-11.5 -203.5zM528 1483q-8 8 2 16l246 170q7 5 10 4t9 -8l39 -49q7 -11 -5 -17l-270 -143q-9 -3 -14 4z" />
<glyph unicode="&#xd4;" horiz-adv-x="1261" d="M129 698q0 65 4.5 123t17.5 128.5t35 128.5t60 114.5t88.5 95t124.5 62.5t164 24q91 0 165 -20t126 -53.5t90.5 -84.5t62 -106.5t37.5 -127t19 -138t5 -146.5q0 -82 -4 -148t-17 -142.5t-35 -135.5t-60.5 -115.5t-90.5 -93t-128 -59t-170 -22.5t-169 22.5t-126 58.5 t-88.5 93t-58.5 115t-33 135.5t-15.5 142.5t-3.5 149zM205 678q0 -111 10.5 -199t38.5 -171t74 -138t120.5 -88t174.5 -33q121 0 207 45.5t135 132t70.5 196.5t21.5 255q0 118 -11.5 210t-41.5 173t-78.5 133.5t-124.5 82.5t-178 30q-97 0 -170 -31.5t-120 -86t-76 -136 t-40.5 -172t-11.5 -203.5zM369 1477q-7 7 0 14l192 168q14 14 29 14h88q14 0 31 -14l190 -168q7 -7 0 -14l-22 -21q-7 -5 -17 2l-227 148l-225 -148q-10 -7 -17 -2z" />
<glyph unicode="&#xd5;" horiz-adv-x="1261" d="M129 698q0 65 4.5 123t17.5 128.5t35 128.5t60 114.5t88.5 95t124.5 62.5t164 24q91 0 165 -20t126 -53.5t90.5 -84.5t62 -106.5t37.5 -127t19 -138t5 -146.5q0 -82 -4 -148t-17 -142.5t-35 -135.5t-60.5 -115.5t-90.5 -93t-128 -59t-170 -22.5t-169 22.5t-126 58.5 t-88.5 93t-58.5 115t-33 135.5t-15.5 142.5t-3.5 149zM205 678q0 -111 10.5 -199t38.5 -171t74 -138t120.5 -88t174.5 -33q121 0 207 45.5t135 132t70.5 196.5t21.5 255q0 118 -11.5 210t-41.5 173t-78.5 133.5t-124.5 82.5t-178 30q-97 0 -170 -31.5t-120 -86t-76 -136 t-40.5 -172t-11.5 -203.5zM332 1540q68 113 162 113q48 0 150 -55.5t136 -55.5t57.5 21t47.5 61q7 11 10 12.5t16 -2.5l21 -10q14 -8 4 -27q-58 -116 -158 -116q-45 0 -99 27t-103.5 54t-83.5 27q-54 0 -107 -78q-10 -15 -17 -18t-16 2l-16 8q-22 11 -4 37z" />
<glyph unicode="&#xd6;" horiz-adv-x="1261" d="M129 698q0 65 4.5 123t17.5 128.5t35 128.5t60 114.5t88.5 95t124.5 62.5t164 24q91 0 165 -20t126 -53.5t90.5 -84.5t62 -106.5t37.5 -127t19 -138t5 -146.5q0 -82 -4 -148t-17 -142.5t-35 -135.5t-60.5 -115.5t-90.5 -93t-128 -59t-170 -22.5t-169 22.5t-126 58.5 t-88.5 93t-58.5 115t-33 135.5t-15.5 142.5t-3.5 149zM205 678q0 -111 10.5 -199t38.5 -171t74 -138t120.5 -88t174.5 -33q121 0 207 45.5t135 132t70.5 196.5t21.5 255q0 118 -11.5 210t-41.5 173t-78.5 133.5t-124.5 82.5t-178 30q-97 0 -170 -31.5t-120 -86t-76 -136 t-40.5 -172t-11.5 -203.5zM426 1542q0 51 49 51q29 0 38 -12.5t9 -38.5q0 -25 -9.5 -38t-37.5 -13q-29 0 -39 13.5t-10 37.5zM756 1542q0 51 49 51q29 0 38 -12.5t9 -38.5q0 -25 -9.5 -38t-37.5 -13q-29 0 -39 13.5t-10 37.5z" />
<glyph unicode="&#xd7;" horiz-adv-x="1085" d="M211 365q-7 9 0 18l289 287l-277 276q-9 10 -2 17l31 30q9 9 16 0l277 -276l282 282q8 8 19 0l31 -32q6 -6 -3 -15l-282 -282l276 -277q11 -8 0 -16l-30 -33q-6 -6 -17 4l-276 277l-287 -289q-10 -8 -16 -2z" />
<glyph unicode="&#xd8;" horiz-adv-x="1261" d="M123 41l100 139q-56 95 -75 222.5t-19 295.5q0 65 4.5 123t17.5 128.5t35 128.5t60 114.5t88.5 95t124.5 62.5t164 24q240 0 364 -137l90 125q6 10 19 4l26 -20q15 -9 8 -21l-102 -141q100 -155 100 -486q0 -82 -4 -148t-17 -142.5t-35 -135.5t-60.5 -115.5t-90.5 -93 t-128 -59t-170 -22.5q-242 0 -361 141l-86 -121q-7 -9 -18 -2l-27 20q-15 11 -8 21zM205 678q0 -279 69 -426l666 922q-105 133 -317 133q-97 0 -170 -31.5t-120 -86t-76 -136t-40.5 -172t-11.5 -203.5zM311 190q101 -141 312 -141q121 0 207 45.5t135 132t70.5 196.5 t21.5 255q0 287 -78 436z" />
<glyph unicode="&#xd9;" horiz-adv-x="1210" d="M139 475v866q0 17 15 17h51q10 0 10 -17v-872q0 -201 95 -310.5t292 -109.5q192 0 292.5 105.5t100.5 314.5v872q0 17 15 17h49q10 0 10 -17v-866q0 -150 -35 -239q-103 -254 -432 -254q-338 0 -428 251q-35 93 -35 242zM360 1616l39 49q6 7 9 8t10 -4l246 -170 q10 -8 2 -16l-17 -23q-5 -7 -14 -4l-270 143q-12 6 -5 17z" />
<glyph unicode="&#xda;" horiz-adv-x="1210" d="M139 475v866q0 17 15 17h51q10 0 10 -17v-872q0 -201 95 -310.5t292 -109.5q192 0 292.5 105.5t100.5 314.5v872q0 17 15 17h49q10 0 10 -17v-866q0 -150 -35 -239q-103 -254 -432 -254q-338 0 -428 251q-35 93 -35 242zM573 1483q-8 8 2 16l246 170q7 5 10 4t9 -8 l39 -49q7 -11 -5 -17l-270 -143q-9 -3 -14 4z" />
<glyph unicode="&#xdb;" horiz-adv-x="1210" d="M139 475v866q0 17 15 17h51q10 0 10 -17v-872q0 -201 95 -310.5t292 -109.5q192 0 292.5 105.5t100.5 314.5v872q0 17 15 17h49q10 0 10 -17v-866q0 -150 -35 -239q-103 -254 -432 -254q-338 0 -428 251q-35 93 -35 242zM338 1477q-7 7 0 14l192 168q14 14 29 14h88 q14 0 31 -14l190 -168q7 -7 0 -14l-22 -21q-7 -5 -17 2l-227 148l-225 -148q-10 -7 -17 -2z" />
<glyph unicode="&#xdc;" horiz-adv-x="1210" d="M139 475v866q0 17 15 17h51q10 0 10 -17v-872q0 -201 95 -310.5t292 -109.5q192 0 292.5 105.5t100.5 314.5v872q0 17 15 17h49q10 0 10 -17v-866q0 -150 -35 -239q-103 -254 -432 -254q-338 0 -428 251q-35 93 -35 242zM406 1542q0 51 49 51q29 0 38 -12.5t9 -38.5 q0 -25 -9.5 -38t-37.5 -13q-29 0 -39 13.5t-10 37.5zM735 1542q0 51 49 51q29 0 38 -12.5t9 -38.5q0 -25 -9.5 -38t-37.5 -13q-29 0 -39 13.5t-10 37.5z" />
<glyph unicode="&#xdd;" d="M49 1346q-3 6 0 8t12 2h54q10 0 14 -10l363 -682l362 682q6 10 16 10h54q9 0 11 -2t-1 -8l-408 -746v-586q0 -14 -10 -14h-49q-14 0 -14 14l-2 586zM438 1483q-8 8 2 16l246 170q7 5 10 4t9 -8l38 -49q7 -11 -4 -17l-270 -143q-9 -3 -14 4z" />
<glyph unicode="&#xde;" horiz-adv-x="987" d="M131 14v1329q0 15 12 15h50q14 0 14 -15v-270l330 -2q174 0 281.5 -96t107.5 -277q0 -60 -13 -115.5t-43 -107t-73.5 -89.5t-108.5 -60.5t-145 -22.5h-336v-289q0 -14 -12 -14h-50q-14 0 -14 14zM207 367h334q29 0 61 5t78.5 25.5t81.5 53.5t60.5 96t25.5 147 q0 155 -91 232.5t-245 77.5h-305v-637z" />
<glyph unicode="&#xdf;" horiz-adv-x="960" d="M92 -6v1065q0 103 32 182t84 123t110.5 66t119.5 22q157 0 255 -81t98 -243q0 -75 -41 -164t-129 -130q79 -16 130.5 -52.5t76.5 -96.5t33.5 -122.5t8.5 -154.5q0 -424 -366 -424q-48 0 -109 10q-25 5 -20 22l4 23q3 9 8 11t23 1q37 -6 82 -6q162 0 232.5 91t70.5 276 q0 98 -13.5 164t-48 115.5t-96.5 71t-156 17.5q-20 0 -20 13v30q0 10 16 13q118 23 179 106t61 184q0 133 -75 199t-202 66q-124 0 -201 -87t-77 -235v-1075q0 -12 -10 -12h-48q-8 0 -10 2t-2 10z" />
<glyph unicode="&#xe0;" horiz-adv-x="1013" d="M92 244q0 173 84 252t264 79h355v119q0 55 -7 93.5t-25 71.5t-50 52.5t-82 30t-121 10.5q-78 0 -307 -22q-15 0 -17 10l-4 23q0 10 11 14q121 45 311 45q107 0 175 -17t110 -58t58.5 -103.5t16.5 -159.5v-557q0 -51 18 -64t79 -16q12 0 12 -12v-27q0 -13 -21 -16 q-93 -6 -125 20.5t-32 110.5q-82 -48 -136.5 -74t-139.5 -46.5t-181 -20.5q-125 0 -185.5 65.5t-60.5 196.5zM168 252q0 -118 46 -161.5t165 -43.5q65 0 161 31t154.5 58t100.5 50v324h-363q-62 0 -107 -11t-82 -38.5t-56 -79.5t-19 -129zM373 1395q-7 10 4 14l57 27 q15 5 19 -6l137 -265q2 -5 2.5 -8t0.5 -3.5t-3 -2t-4 -2.5l-25 -12q-10 -5 -16 4z" />
<glyph unicode="&#xe1;" horiz-adv-x="1013" d="M92 244q0 173 84 252t264 79h355v119q0 55 -7 93.5t-25 71.5t-50 52.5t-82 30t-121 10.5q-78 0 -307 -22q-15 0 -17 10l-4 23q0 10 11 14q121 45 311 45q107 0 175 -17t110 -58t58.5 -103.5t16.5 -159.5v-557q0 -51 18 -64t79 -16q12 0 12 -12v-27q0 -13 -21 -16 q-93 -6 -125 20.5t-32 110.5q-82 -48 -136.5 -74t-139.5 -46.5t-181 -20.5q-125 0 -185.5 65.5t-60.5 196.5zM168 252q0 -118 46 -161.5t165 -43.5q65 0 161 31t154.5 58t100.5 50v324h-363q-62 0 -107 -11t-82 -38.5t-56 -79.5t-19 -129zM473 1165l137 265q7 12 19 6 l57 -27q11 -4 4 -14l-172 -254q-5 -10 -14 -4l-25 12q-10 5 -6 16z" />
<glyph unicode="&#xe2;" horiz-adv-x="1013" d="M92 244q0 173 84 252t264 79h355v119q0 55 -7 93.5t-25 71.5t-50 52.5t-82 30t-121 10.5q-78 0 -307 -22q-15 0 -17 10l-4 23q0 10 11 14q121 45 311 45q107 0 175 -17t110 -58t58.5 -103.5t16.5 -159.5v-557q0 -51 18 -64t79 -16q12 0 12 -12v-27q0 -13 -21 -16 q-93 -6 -125 20.5t-32 110.5q-82 -48 -136.5 -74t-139.5 -46.5t-181 -20.5q-125 0 -185.5 65.5t-60.5 196.5zM168 252q0 -118 46 -161.5t165 -43.5q65 0 161 31t154.5 58t100.5 50v324h-363q-62 0 -107 -11t-82 -38.5t-56 -79.5t-19 -129zM261 1155.5q-1 1.5 0.5 3.5l4.5 6 l203 228q11 14 29 14h73q20 0 31 -14l195 -228q6 -8 6 -9t-6 -5l-23 -21q-6 -4 -16 3l-226 206l-227 -206q-10 -7 -16 -3l-23 21q-3 2 -3.5 2.5t-1.5 2z" />
<glyph unicode="&#xe3;" horiz-adv-x="1013" d="M92 244q0 173 84 252t264 79h355v119q0 55 -7 93.5t-25 71.5t-50 52.5t-82 30t-121 10.5q-78 0 -307 -22q-15 0 -17 10l-4 23q0 10 11 14q121 45 311 45q107 0 175 -17t110 -58t58.5 -103.5t16.5 -159.5v-557q0 -51 18 -64t79 -16q12 0 12 -12v-27q0 -13 -21 -16 q-93 -6 -125 20.5t-32 110.5q-82 -48 -136.5 -74t-139.5 -46.5t-181 -20.5q-125 0 -185.5 65.5t-60.5 196.5zM168 252q0 -118 46 -161.5t165 -43.5q65 0 161 31t154.5 58t100.5 50v324h-363q-62 0 -107 -11t-82 -38.5t-56 -79.5t-19 -129zM225 1233q68 113 162 113 q49 0 151 -55.5t136 -55.5q33 0 56.5 21t47.5 61q7 11 10.5 12.5t16.5 -2.5l20 -10q14 -8 4 -27q-58 -116 -157 -116q-45 0 -99.5 27t-104.5 54t-83 27q-53 0 -106 -78q-10 -15 -17 -18t-16 2l-17 8q-21 11 -4 37z" />
<glyph unicode="&#xe4;" horiz-adv-x="1013" d="M92 244q0 173 84 252t264 79h355v119q0 55 -7 93.5t-25 71.5t-50 52.5t-82 30t-121 10.5q-78 0 -307 -22q-15 0 -17 10l-4 23q0 10 11 14q121 45 311 45q107 0 175 -17t110 -58t58.5 -103.5t16.5 -159.5v-557q0 -51 18 -64t79 -16q12 0 12 -12v-27q0 -13 -21 -16 q-93 -6 -125 20.5t-32 110.5q-82 -48 -136.5 -74t-139.5 -46.5t-181 -20.5q-125 0 -185.5 65.5t-60.5 196.5zM168 252q0 -118 46 -161.5t165 -43.5q65 0 161 31t154.5 58t100.5 50v324h-363q-62 0 -107 -11t-82 -38.5t-56 -79.5t-19 -129zM281 1260q0 24 10 36.5t37 12.5 q29 0 39 -12.5t10 -36.5q0 -54 -49 -54q-29 0 -38 14t-9 40zM639 1260q0 24 10 36.5t37 12.5q29 0 39 -12.5t10 -36.5q0 -54 -49 -54q-29 0 -38 14t-9 40z" />
<glyph unicode="&#xe5;" horiz-adv-x="1013" d="M92 244q0 173 84 252t264 79h355v119q0 55 -7 93.5t-25 71.5t-50 52.5t-82 30t-121 10.5q-78 0 -307 -22q-15 0 -17 10l-4 23q0 10 11 14q121 45 311 45q107 0 175 -17t110 -58t58.5 -103.5t16.5 -159.5v-557q0 -51 18 -64t79 -16q12 0 12 -12v-27q0 -13 -21 -16 q-93 -6 -125 20.5t-32 110.5q-82 -48 -136.5 -74t-139.5 -46.5t-181 -20.5q-125 0 -185.5 65.5t-60.5 196.5zM168 252q0 -118 46 -161.5t165 -43.5q65 0 161 31t154.5 58t100.5 50v324h-363q-62 0 -107 -11t-82 -38.5t-56 -79.5t-19 -129zM350 1276q0 78 56 130t131 52 q78 0 131 -54t53 -128q0 -75 -53 -129.5t-131 -54.5q-76 0 -131.5 52t-55.5 132zM412 1276q0 -58 34.5 -94.5t90.5 -36.5q55 0 91 37t36 94q0 54 -36.5 92.5t-90.5 38.5q-52 0 -88.5 -39t-36.5 -92z" />
<glyph unicode="&#xe6;" horiz-adv-x="1652" d="M88 244q0 171 83 243t265 72h355v135q0 55 -7 93.5t-25 71.5t-50 52.5t-82 30t-121 10.5q-78 0 -307 -22q-15 0 -17 10l-4 23q0 11 10 14q121 45 312 45q160 0 239.5 -42.5t104.5 -143.5q88 182 340 182q95 0 166.5 -23.5t115 -61.5t70 -95.5t36 -117t9.5 -134.5 q0 -47 -14 -69.5t-51 -22.5h-652q0 -77 6.5 -135.5t26 -119t53 -100t91.5 -64t137 -24.5q74 0 325 23q16 0 19 -11l2 -18q3 -13 -8 -16q-55 -22 -158.5 -33.5t-186.5 -11.5q-241 0 -325 168q-10 -6 -65 -37t-67.5 -37t-58 -28t-69.5 -28t-68 -18t-88 -16t-96 -6 q-124 -4 -185 62.5t-61 199.5zM164 252q0 -118 46 -161.5t165 -43.5q143 0 448 162q-32 95 -32 285h-363q-64 0 -107 -8.5t-81.5 -33t-57 -74t-18.5 -126.5zM866 559h641q-1 50 -4.5 87.5t-12 81t-22.5 74.5t-38.5 61.5t-57 49t-80.5 30t-108 11.5q-78 0 -135.5 -20 t-92 -53.5t-55 -86t-27.5 -107.5t-8 -128z" />
<glyph unicode="&#xe7;" horiz-adv-x="802" d="M92 506q0 66 3.5 117.5t13.5 106.5t26.5 96t45 78.5t67 61.5t93.5 38t124 14q65 0 154 -10.5t143 -30.5q12 -4 10 -16l-4 -21q-4 -12 -18 -10q-171 22 -279 22q-169 0 -237 -100t-68 -344q0 -258 64 -358.5t241 -100.5q126 0 281 21q13 2 16 -11l4 -20q3 -12 -10 -16 q-89 -32 -273 -41l-32 -91q90 -6 127 -39.5t37 -91.5q0 -71 -52.5 -108t-136.5 -37q-58 0 -129 23q-17 7 -12 18l6 18q4 12 18 9q73 -13 117 -13q49 0 81 23t32 63q0 45 -28 67t-107 25q-9 0 -14 7.5t-1 17.5l43 109q-89 2 -152.5 29t-101 69.5t-58.5 112t-27.5 140.5 t-6.5 173z" />
<glyph unicode="&#xe8;" horiz-adv-x="942" d="M92 506q0 82 8 148.5t32.5 137t65.5 118t112.5 78t168.5 30.5q95 0 166 -25t113.5 -65t68 -100.5t34.5 -121t9 -135.5q0 -46 -14 -66t-51 -20h-635q0 -77 6 -134.5t25 -117t51.5 -97t90 -61.5t136.5 -24q38 0 82 2.5t73 5t81.5 8t77.5 7.5q15 0 18 -11l2 -18 q3 -13 -8 -16q-56 -22 -153 -33.5t-179 -11.5q-72 0 -129.5 15t-97 40t-68 65t-45 81t-26 98t-12.5 107.5t-3 115.5zM168 545h627q-1 51 -3.5 88t-10.5 82t-21.5 76.5t-37 63.5t-56 51.5t-80 31.5t-107.5 12q-73 0 -127.5 -20.5t-88 -54.5t-54.5 -87.5t-29.5 -110.5 t-11.5 -132zM322 1395q-7 10 4 14l57 27q14 5 18 -6l138 -265q2 -5 2.5 -8t0.5 -3.5t-3 -2t-4 -2.5l-25 -12q-10 -5 -16 4z" />
<glyph unicode="&#xe9;" horiz-adv-x="942" d="M92 506q0 82 8 148.5t32.5 137t65.5 118t112.5 78t168.5 30.5q95 0 166 -25t113.5 -65t68 -100.5t34.5 -121t9 -135.5q0 -46 -14 -66t-51 -20h-635q0 -77 6 -134.5t25 -117t51.5 -97t90 -61.5t136.5 -24q38 0 82 2.5t73 5t81.5 8t77.5 7.5q15 0 18 -11l2 -18 q3 -13 -8 -16q-56 -22 -153 -33.5t-179 -11.5q-72 0 -129.5 15t-97 40t-68 65t-45 81t-26 98t-12.5 107.5t-3 115.5zM168 545h627q-1 51 -3.5 88t-10.5 82t-21.5 76.5t-37 63.5t-56 51.5t-80 31.5t-107.5 12q-73 0 -127.5 -20.5t-88 -54.5t-54.5 -87.5t-29.5 -110.5 t-11.5 -132zM414 1165l137 265q7 12 18 6l58 -27q11 -4 4 -14l-172 -254q-5 -11 -15 -4l-24 12q-10 5 -6 16z" />
<glyph unicode="&#xea;" horiz-adv-x="942" d="M92 506q0 82 8 148.5t32.5 137t65.5 118t112.5 78t168.5 30.5q95 0 166 -25t113.5 -65t68 -100.5t34.5 -121t9 -135.5q0 -46 -14 -66t-51 -20h-635q0 -77 6 -134.5t25 -117t51.5 -97t90 -61.5t136.5 -24q38 0 82 2.5t73 5t81.5 8t77.5 7.5q15 0 18 -11l2 -18 q3 -13 -8 -16q-56 -22 -153 -33.5t-179 -11.5q-72 0 -129.5 15t-97 40t-68 65t-45 81t-26 98t-12.5 107.5t-3 115.5zM168 545h627q-1 51 -3.5 88t-10.5 82t-21.5 76.5t-37 63.5t-56 51.5t-80 31.5t-107.5 12q-73 0 -127.5 -20.5t-88 -54.5t-54.5 -87.5t-29.5 -110.5 t-11.5 -132zM222 1155.5q-1 1.5 0.5 3.5l4.5 6l203 228q11 14 29 14h73q20 0 31 -14l195 -228q6 -8 6 -9t-6 -5l-23 -21q-6 -4 -16 3l-225 206l-228 -206q-10 -7 -16 -3l-23 21q-3 2 -3.5 2.5t-1.5 2z" />
<glyph unicode="&#xeb;" horiz-adv-x="942" d="M92 506q0 82 8 148.5t32.5 137t65.5 118t112.5 78t168.5 30.5q95 0 166 -25t113.5 -65t68 -100.5t34.5 -121t9 -135.5q0 -46 -14 -66t-51 -20h-635q0 -77 6 -134.5t25 -117t51.5 -97t90 -61.5t136.5 -24q38 0 82 2.5t73 5t81.5 8t77.5 7.5q15 0 18 -11l2 -18 q3 -13 -8 -16q-56 -22 -153 -33.5t-179 -11.5q-72 0 -129.5 15t-97 40t-68 65t-45 81t-26 98t-12.5 107.5t-3 115.5zM168 545h627q-1 51 -3.5 88t-10.5 82t-21.5 76.5t-37 63.5t-56 51.5t-80 31.5t-107.5 12q-73 0 -127.5 -20.5t-88 -54.5t-54.5 -87.5t-29.5 -110.5 t-11.5 -132zM238 1260q0 24 10 36.5t37 12.5q29 0 39 -12.5t10 -36.5q0 -54 -49 -54q-29 0 -38 14t-9 40zM596 1260q0 24 10 36.5t37 12.5q29 0 39 -12.5t10 -36.5q0 -54 -49 -54q-29 0 -38 14t-9 40z" />
<glyph unicode="&#xec;" horiz-adv-x="403" d="M4 1395q-7 10 4 14l58 27q14 5 18 -6l137 -265q2 -5 2.5 -8t0.5 -3.5t-3 -2t-4 -2.5l-24 -12q-11 -5 -17 4zM166 12v973q0 7 2 9.5t10 2.5h49q9 0 9 -12v-973q0 -12 -11 -12h-47q-8 0 -10 2t-2 10z" />
<glyph unicode="&#xed;" horiz-adv-x="403" d="M162 1165l137 265q7 12 18 6l58 -27q11 -4 4 -14l-172 -254q-5 -10 -14 -4l-25 12q-10 5 -6 16zM166 12v973q0 7 2 9.5t10 2.5h49q9 0 9 -12v-973q0 -12 -11 -12h-47q-8 0 -10 2t-2 10z" />
<glyph unicode="&#xee;" horiz-adv-x="503" d="M-19 1155.5q-1 1.5 0.5 3.5l4.5 6l202 228q11 14 29 14h74q20 0 31 -14l194 -228q6 -8 6 -9t-6 -5l-22 -21q-6 -4 -17 3l-225 206l-227 -206q-11 -7 -17 -3l-22 21q-3 2 -3.5 2.5t-1.5 2zM215 12v973q0 7 2.5 9.5t9.5 2.5h49q9 0 9 -12v-973q0 -12 -11 -12h-47 q-7 0 -9.5 2t-2.5 10z" />
<glyph unicode="&#xef;" horiz-adv-x="413" d="M-20 1260q0 24 10 36.5t37 12.5q29 0 39 -12.5t10 -36.5q0 -54 -49 -54q-29 0 -38 14t-9 40zM174 12v973q0 7 2 9.5t10 2.5h50q8 0 8 -12v-973q0 -12 -11 -12h-47q-8 0 -10 2t-2 10zM338 1260q0 24 10 36.5t37 12.5q29 0 39 -12.5t10 -36.5q0 -54 -49 -54q-29 0 -38 14 t-9 40z" />
<glyph unicode="&#xf0;" horiz-adv-x="976" d="M92 479q0 61 8 118t33.5 124.5t66.5 116.5t114 82.5t169 33.5q124 0 208 -47.5t124 -128.5l4 4q-5 170 -26.5 292t-75.5 196l-123 -121q-15 -19 -29 -2l-20 22q-6 8 -4.5 13t12.5 16l121 121q-27 29 -83.5 47t-125.5 18q-85 0 -180 -14q-19 -2 -23 -0.5t-6 8.5l-4 27 q-2 9 12 16q75 31 203 31q156 0 258 -82l109 109q16 16 28 0l21 -21q8 -9 8.5 -13t-8.5 -15l-109 -107q117 -149 121 -639q0 -95 -3 -167.5t-13.5 -148.5t-29 -130.5t-50 -105t-74.5 -81.5t-104.5 -49t-139.5 -18q-95 0 -166 28t-113 73t-67.5 112t-34 133t-8.5 149z M168 463q0 -91 15 -162.5t49 -130.5t97 -91t152 -32q83 0 144.5 26t96 65.5t55 98t26.5 110.5t6 116q0 205 -76 314.5t-252 109.5q-88 0 -150 -30.5t-97 -88.5t-50.5 -132.5t-15.5 -172.5z" />
<glyph unicode="&#xf1;" horiz-adv-x="960" d="M104 12v973q0 12 11 12h45q14 0 14 -12v-111q243 142 408 142q79 0 133.5 -21.5t82.5 -49.5t42 -85.5t16 -97.5t2 -117v-633q0 -12 -12 -12h-51q-11 0 -11 12v641q0 51 -1.5 82t-8 70.5t-20.5 62.5t-37.5 45t-61 31.5t-88.5 9.5q-79 0 -193 -45t-200 -92v-805 q0 -12 -14 -12h-45q-11 0 -11 12zM188 1233q68 113 162 113q39 0 95.5 -28t109.5 -55.5t82 -27.5q33 0 56.5 21t47.5 61q7 11 10.5 12.5t16.5 -2.5l20 -10q14 -8 5 -27q-58 -116 -158 -116q-45 0 -99.5 27t-104 54t-83.5 27q-53 0 -106 -78q-10 -15 -17 -18t-16 2l-16 8 q-22 11 -5 37z" />
<glyph unicode="&#xf2;" horiz-adv-x="976" d="M92 518q0 49 3 92t13.5 95.5t27 95t46.5 84.5t69.5 70t98.5 45.5t131 17.5q102 0 177.5 -29t118 -74t68 -114t33 -134t7.5 -149q0 -62 -2.5 -108.5t-12 -105t-26 -101.5t-46.5 -86.5t-72 -70.5t-104 -44.5t-141 -17.5q-76 0 -136.5 17t-100.5 43.5t-69 70t-45 85.5 t-24.5 101.5t-11 106t-2.5 110.5zM168 502q0 -84 7 -147t27 -123.5t54 -99t90.5 -62t134.5 -23.5q80 0 139 22.5t95 60.5t57.5 97.5t29 124t7.5 150.5q0 87 -7 150.5t-28 122.5t-57 95.5t-95 58t-141 21.5q-78 0 -134.5 -23.5t-90.5 -61.5t-54 -98t-27 -121.5t-7 -143.5z M344 1395q-7 10 4 14l58 27q14 5 18 -6l137 -265q2 -5 2.5 -8t0.5 -3.5t-3 -2t-4 -2.5l-25 -12q-10 -5 -16 4z" />
<glyph unicode="&#xf3;" horiz-adv-x="976" d="M92 518q0 49 3 92t13.5 95.5t27 95t46.5 84.5t69.5 70t98.5 45.5t131 17.5q102 0 177.5 -29t118 -74t68 -114t33 -134t7.5 -149q0 -62 -2.5 -108.5t-12 -105t-26 -101.5t-46.5 -86.5t-72 -70.5t-104 -44.5t-141 -17.5q-76 0 -136.5 17t-100.5 43.5t-69 70t-45 85.5 t-24.5 101.5t-11 106t-2.5 110.5zM168 502q0 -84 7 -147t27 -123.5t54 -99t90.5 -62t134.5 -23.5q80 0 139 22.5t95 60.5t57.5 97.5t29 124t7.5 150.5q0 87 -7 150.5t-28 122.5t-57 95.5t-95 58t-141 21.5q-78 0 -134.5 -23.5t-90.5 -61.5t-54 -98t-27 -121.5t-7 -143.5z M438 1165l137 265q7 12 19 6l57 -27q11 -4 4 -14l-172 -254q-5 -10 -14 -4l-25 12q-10 5 -6 16z" />
<glyph unicode="&#xf4;" horiz-adv-x="976" d="M92 518q0 49 3 92t13.5 95.5t27 95t46.5 84.5t69.5 70t98.5 45.5t131 17.5q102 0 177.5 -29t118 -74t68 -114t33 -134t7.5 -149q0 -62 -2.5 -108.5t-12 -105t-26 -101.5t-46.5 -86.5t-72 -70.5t-104 -44.5t-141 -17.5q-76 0 -136.5 17t-100.5 43.5t-69 70t-45 85.5 t-24.5 101.5t-11 106t-2.5 110.5zM168 502q0 -84 7 -147t27 -123.5t54 -99t90.5 -62t134.5 -23.5q80 0 139 22.5t95 60.5t57.5 97.5t29 124t7.5 150.5q0 87 -7 150.5t-28 122.5t-57 95.5t-95 58t-141 21.5q-78 0 -134.5 -23.5t-90.5 -61.5t-54 -98t-27 -121.5t-7 -143.5z M214 1155.5q-1 1.5 0.5 3.5l4.5 6l203 228q11 14 29 14h73q20 0 31 -14l195 -228q6 -8 6 -9t-6 -5l-23 -21q-6 -4 -16 3l-226 206l-227 -206q-10 -7 -16 -3l-23 21q-3 2 -3.5 2.5t-1.5 2z" />
<glyph unicode="&#xf5;" horiz-adv-x="976" d="M92 518q0 49 3 92t13.5 95.5t27 95t46.5 84.5t69.5 70t98.5 45.5t131 17.5q102 0 177.5 -29t118 -74t68 -114t33 -134t7.5 -149q0 -62 -2.5 -108.5t-12 -105t-26 -101.5t-46.5 -86.5t-72 -70.5t-104 -44.5t-141 -17.5q-76 0 -136.5 17t-100.5 43.5t-69 70t-45 85.5 t-24.5 101.5t-11 106t-2.5 110.5zM168 502q0 -84 7 -147t27 -123.5t54 -99t90.5 -62t134.5 -23.5q80 0 139 22.5t95 60.5t57.5 97.5t29 124t7.5 150.5q0 87 -7 150.5t-28 122.5t-57 95.5t-95 58t-141 21.5q-78 0 -134.5 -23.5t-90.5 -61.5t-54 -98t-27 -121.5t-7 -143.5z M180 1233q68 113 162 113q39 0 95.5 -28t109.5 -55.5t82 -27.5q33 0 56.5 21t47.5 61q7 11 10.5 12.5t16.5 -2.5l20 -10q14 -8 4 -27q-58 -116 -157 -116q-45 0 -99.5 27t-104 54t-83.5 27q-54 0 -107 -78q-10 -15 -16.5 -18t-15.5 2l-17 8q-22 11 -4 37z" />
<glyph unicode="&#xf6;" horiz-adv-x="976" d="M92 518q0 49 3 92t13.5 95.5t27 95t46.5 84.5t69.5 70t98.5 45.5t131 17.5q102 0 177.5 -29t118 -74t68 -114t33 -134t7.5 -149q0 -62 -2.5 -108.5t-12 -105t-26 -101.5t-46.5 -86.5t-72 -70.5t-104 -44.5t-141 -17.5q-76 0 -136.5 17t-100.5 43.5t-69 70t-45 85.5 t-24.5 101.5t-11 106t-2.5 110.5zM168 502q0 -84 7 -147t27 -123.5t54 -99t90.5 -62t134.5 -23.5q80 0 139 22.5t95 60.5t57.5 97.5t29 124t7.5 150.5q0 87 -7 150.5t-28 122.5t-57 95.5t-95 58t-141 21.5q-78 0 -134.5 -23.5t-90.5 -61.5t-54 -98t-27 -121.5t-7 -143.5z M260 1260q0 24 10 36.5t37 12.5q29 0 39 -12.5t10 -36.5q0 -54 -49 -54q-29 0 -38 14t-9 40zM618 1260q0 24 10.5 36.5t37.5 12.5q29 0 39 -12.5t10 -36.5q0 -54 -49 -54q-29 0 -38.5 14t-9.5 40z" />
<glyph unicode="&#xf7;" horiz-adv-x="1085" d="M168 649v43q0 13 12 13h725q13 0 13 -13v-45q0 -8 -13 -8h-725q-12 0 -12 10zM494 342q0 30 12.5 45.5t46.5 15.5q36 0 48.5 -15t12.5 -46q0 -33 -12.5 -50.5t-48.5 -17.5t-47.5 17.5t-11.5 50.5zM494 1008q0 30 12.5 45.5t46.5 15.5q36 0 48.5 -15t12.5 -46 q0 -33 -12.5 -50.5t-48.5 -17.5t-47.5 17.5t-11.5 50.5z" />
<glyph unicode="&#xf8;" horiz-adv-x="976" d="M92 518q0 49 3 92t13.5 95.5t27 95t46.5 84.5t69.5 70t98.5 45.5t131 17.5q181 0 279 -88l61 84q6 10 19 4l26 -21q13 -8 8 -20l-71 -96q82 -116 82 -363q0 -62 -2.5 -108.5t-12 -105t-26 -101.5t-46.5 -86.5t-72 -70.5t-104 -44.5t-141 -17.5q-175 0 -270 88l-61 -84 q-7 -9 -17 -2l-29 24q-13 10 -6 19l70 94q-47 70 -61.5 166t-14.5 229zM168 502q0 -211 49 -312l498 680q-77 80 -234 80q-78 0 -134.5 -23.5t-90.5 -61.5t-54 -98t-27 -121.5t-7 -143.5zM256 133q73 -86 225 -86q80 0 139 22.5t95 60.5t57.5 97.5t29 124t7.5 150.5 q0 212 -53 313z" />
<glyph unicode="&#xf9;" d="M117 336v18v633q0 12 12 12h49q10 0 10 -12v-641q0 -43 1 -70.5t5.5 -63t13.5 -57t24.5 -45t38.5 -36t57 -21t78 -8.5q135 0 395 137v805q0 12 14 12h45q12 0 12 -12v-977q0 -10 -12 -10h-47q-14 0 -14 10v115q-227 -141 -408 -141q-58 0 -102 10.5t-72.5 24.5 t-48.5 44.5t-30 53t-15 67.5t-5.5 71.5t-0.5 80.5zM328 1395q-7 10 4 14l57 27q15 5 19 -6l137 -265q2 -5 2.5 -8t0.5 -3.5t-3 -2t-4 -2.5l-25 -12q-10 -5 -16 4z" />
<glyph unicode="&#xfa;" d="M117 336v18v633q0 12 12 12h49q10 0 10 -12v-641q0 -43 1 -70.5t5.5 -63t13.5 -57t24.5 -45t38.5 -36t57 -21t78 -8.5q135 0 395 137v805q0 12 14 12h45q12 0 12 -12v-977q0 -10 -12 -10h-47q-14 0 -14 10v115q-227 -141 -408 -141q-58 0 -102 10.5t-72.5 24.5 t-48.5 44.5t-30 53t-15 67.5t-5.5 71.5t-0.5 80.5zM469 1165l137 265q7 12 19 6l57 -27q11 -4 4 -14l-172 -254q-5 -10 -14 -4l-25 12q-10 5 -6 16z" />
<glyph unicode="&#xfb;" d="M117 336v18v633q0 12 12 12h49q10 0 10 -12v-641q0 -43 1 -70.5t5.5 -63t13.5 -57t24.5 -45t38.5 -36t57 -21t78 -8.5q135 0 395 137v805q0 12 14 12h45q12 0 12 -12v-977q0 -10 -12 -10h-47q-14 0 -14 10v115q-227 -141 -408 -141q-58 0 -102 10.5t-72.5 24.5 t-48.5 44.5t-30 53t-15 67.5t-5.5 71.5t-0.5 80.5zM228 1155.5q-1 1.5 0.5 3.5l4.5 6l203 228q11 14 29 14h74q19 0 30 -14l195 -228q6 -8 6 -9t-6 -5l-23 -21q-6 -4 -16 3l-225 206l-228 -206q-10 -7 -16 -3l-23 21q-3 2 -3.5 2.5t-1.5 2z" />
<glyph unicode="&#xfc;" d="M117 336v18v633q0 12 12 12h49q10 0 10 -12v-641q0 -43 1 -70.5t5.5 -63t13.5 -57t24.5 -45t38.5 -36t57 -21t78 -8.5q135 0 395 137v805q0 12 14 12h45q12 0 12 -12v-977q0 -10 -12 -10h-47q-14 0 -14 10v115q-227 -141 -408 -141q-58 0 -102 10.5t-72.5 24.5 t-48.5 44.5t-30 53t-15 67.5t-5.5 71.5t-0.5 80.5zM274 1260q0 24 10.5 36.5t37.5 12.5q29 0 39 -12.5t10 -36.5q0 -54 -49 -54q-29 0 -38.5 14t-9.5 40zM633 1260q0 24 10 36.5t37 12.5q29 0 39 -12.5t10 -36.5q0 -54 -49 -54q-29 0 -38 14t-9 40z" />
<glyph unicode="&#xfd;" horiz-adv-x="901" d="M53 987q-3 10 8 10h50q15 0 20 -14l307 -903h4l330 905q4 14 21 14h43q10 0 11 -3.5t-1 -10.5l-486 -1335q-3 -10 -16 -10h-41q-11 0 -12 1.5t0 10.5l112 325zM399 1165l138 265q7 12 18 6l57 -27q11 -4 4 -14l-172 -254q-5 -10 -14 -4l-24 12q-11 6 -7 16z" />
<glyph unicode="&#xfe;" horiz-adv-x="980" d="M127 -348v1694q0 12 6 12h53q7 0 9 -2t2 -10v-467q233 139 409 139q165 0 230 -117.5t65 -384.5q0 -140 -16.5 -235t-58 -164.5t-113.5 -102t-181 -32.5q-183 0 -331 63l-6 -2v-391q0 -8 -2 -10t-9 -2h-51q-6 0 -6 12zM197 104q194 -59 348 -59q157 0 219.5 110t62.5 367 q0 241 -55.5 335.5t-181.5 94.5q-79 0 -195.5 -46.5t-197.5 -92.5v-709z" />
<glyph unicode="&#xff;" horiz-adv-x="901" d="M53 987q-3 10 8 10h50q15 0 20 -14l307 -903h4l330 905q4 14 21 14h43q10 0 11 -3.5t-1 -10.5l-486 -1335q-3 -10 -16 -10h-41q-11 0 -12 1.5t0 10.5l112 325zM231 1260q0 24 10.5 36.5t37.5 12.5q29 0 39 -12.5t10 -36.5q0 -54 -49 -54q-29 0 -38.5 14t-9.5 40z M590 1260q0 24 10 36.5t37 12.5q29 0 39 -12.5t10 -36.5q0 -54 -49 -54q-29 0 -38 14t-9 40z" />
<glyph unicode="&#x100;" horiz-adv-x="1069" d="M39 2.5q-3 2.5 0 9.5l444 1331q2 7 5 10t4.5 3h7.5h63q11 0 17 -15l446 -1329q3 -8 2 -10t-10 -2h-55q-13 0 -17 12l-119 371h-591l-119 -371q-2 -12 -15 -12h-51q-9 0 -12 2.5zM258 451h547l-273 819h-6zM295 1518v45q0 12 10 12h461q10 0 10 -12v-47q0 -9 -10 -9h-461 q-7 0 -8.5 2t-1.5 9z" />
<glyph unicode="&#x101;" horiz-adv-x="1013" d="M92 244q0 173 84 252t264 79h355v119q0 55 -7 93.5t-25 71.5t-50 52.5t-82 30t-121 10.5q-78 0 -307 -22q-15 0 -17 10l-4 23q0 10 11 14q121 45 311 45q107 0 175 -17t110 -58t58.5 -103.5t16.5 -159.5v-557q0 -51 18 -64t79 -16q12 0 12 -12v-27q0 -13 -21 -16 q-93 -6 -125 20.5t-32 110.5q-82 -48 -136.5 -74t-139.5 -46.5t-181 -20.5q-125 0 -185.5 65.5t-60.5 196.5zM168 252q0 -118 46 -161.5t165 -43.5q65 0 161 31t154.5 58t100.5 50v324h-363q-62 0 -107 -11t-82 -38.5t-56 -79.5t-19 -129zM279 1229v45q0 12 10 12h461 q10 0 10 -12v-47q0 -8 -10 -8h-461q-7 0 -8.5 1.5t-1.5 8.5z" />
<glyph unicode="&#x102;" horiz-adv-x="1069" d="M39 2.5q-3 2.5 0 9.5l444 1331q2 7 5 10t4.5 3h7.5h63q11 0 17 -15l446 -1329q3 -8 2 -10t-10 -2h-55q-13 0 -17 12l-119 371h-591l-119 -371q-2 -12 -15 -12h-51q-9 0 -12 2.5zM258 451h547l-273 819h-6zM270 1657l21 14q15 12 26 -6q49 -73 94.5 -101t112.5 -28 q108 0 201 131q11 14 27 6l18 -12q3 -2 4 -5.5t1.5 -6t-1 -7t-2.5 -7t-4 -8.5t-4 -9q-41 -76 -105 -114t-137 -38q-77 0 -144.5 37.5t-103.5 110.5q-17 34 -4 43z" />
<glyph unicode="&#x103;" horiz-adv-x="1013" d="M92 244q0 173 84 252t264 79h355v119q0 55 -7 93.5t-25 71.5t-50 52.5t-82 30t-121 10.5q-78 0 -307 -22q-15 0 -17 10l-4 23q0 10 11 14q121 45 311 45q107 0 175 -17t110 -58t58.5 -103.5t16.5 -159.5v-557q0 -51 18 -64t79 -16q12 0 12 -12v-27q0 -13 -21 -16 q-93 -6 -125 20.5t-32 110.5q-82 -48 -136.5 -74t-139.5 -46.5t-181 -20.5q-125 0 -185.5 65.5t-60.5 196.5zM168 252q0 -118 46 -161.5t165 -43.5q65 0 161 31t154.5 58t100.5 50v324h-363q-62 0 -107 -11t-82 -38.5t-56 -79.5t-19 -129zM301 1350l21 14q15 12 26 -6 q49 -73 94.5 -101t112.5 -28q108 0 201 131q11 14 26 6l19 -12q3 -2 4 -5.5t1.5 -6t-1 -7t-2.5 -7t-4 -8.5t-4 -9q-41 -76 -105 -114t-137 -38q-77 0 -144.5 37.5t-103.5 110.5q-17 34 -4 43z" />
<glyph unicode="&#x104;" horiz-adv-x="1069" d="M39 2.5q-3 2.5 0 9.5l444 1331q2 7 5 10t4.5 3h7.5h63q11 0 17 -15l446 -1329q3 -8 2 -10t-10 -2h-8q-106 -117 -103 -213q1 -41 24 -65t74 -30.5t132 13.5q12 2 16 -6l10 -29q5 -11 -12 -18q-58 -25 -133 -25q-88 0 -132 41t-44 107q0 59 28.5 120.5t79.5 108.5 q-4 4 -4 8l-119 371h-591l-119 -371q-2 -12 -15 -12h-51q-9 0 -12 2.5zM258 451h547l-273 819h-6z" />
<glyph unicode="&#x105;" horiz-adv-x="1013" d="M92 244q0 173 84 252t264 79h355v119q0 55 -7 93.5t-25 71.5t-50 52.5t-82 30t-121 10.5q-78 0 -307 -22q-15 0 -17 10l-4 23q0 10 11 14q121 45 311 45q107 0 175 -17t110 -58t58.5 -103.5t16.5 -159.5v-557q0 -51 18 -64t79 -16q12 0 12 -12v-27q0 -13 -19 -16 q-99 -110 -96 -205q2 -63 54 -85t175 3q13 2 17 -6l10 -29q5 -11 -12 -18q-58 -25 -133 -25q-88 0 -132 41t-44 107q0 54 25.5 111.5t70.5 105.5q-53 4 -73.5 33.5t-20.5 97.5q-82 -48 -136.5 -74t-139.5 -46.5t-181 -20.5q-125 0 -185.5 65.5t-60.5 196.5zM168 252 q0 -118 46 -161.5t165 -43.5q65 0 161 31t154.5 58t100.5 50v324h-363q-62 0 -107 -11t-82 -38.5t-56 -79.5t-19 -129z" />
<glyph unicode="&#x106;" horiz-adv-x="1046" d="M145 664q0 87 6 160.5t21 147t39.5 132t63 110t90 85.5t122.5 53.5t158 19.5q239 0 348 -41q15 -4 11 -18l-3 -23q-3 -12 -18 -10q-240 18 -321 18q-82 0 -148 -20t-111 -52.5t-78.5 -83t-52.5 -102.5t-30.5 -119.5t-15 -126t-3.5 -130.5q0 -102 10 -184.5t39 -164 t76 -136.5t125.5 -88.5t183.5 -33.5q152 0 326 17q15 0 18 -13l5 -22q0 -13 -13 -19q-56 -20 -165 -29t-183 -9q-119 0 -208.5 35.5t-144 95t-88.5 149.5t-46.5 185.5t-12.5 216.5zM578 1483q-8 8 2 16l245 170q7 5 10 4t9 -8l39 -49q7 -11 -4 -17l-271 -143q-9 -3 -14 4z " />
<glyph unicode="&#x107;" horiz-adv-x="802" d="M92 506q0 66 3.5 117.5t13.5 106.5t26.5 96t45 78.5t67 61.5t93.5 38t124 14q65 0 154 -10.5t143 -30.5q12 -4 10 -16l-4 -21q-4 -12 -18 -10q-171 22 -279 22q-169 0 -237 -100t-68 -344q0 -258 64 -358.5t241 -100.5q126 0 281 21q13 2 16 -11l4 -20q3 -12 -10 -16 q-54 -20 -147 -30.5t-160 -10.5t-120.5 13t-91 36t-65 60t-44 78t-26 97.5t-13 112t-3.5 127.5zM428 1165l137 265q7 12 19 6l57 -27q11 -4 4 -14l-172 -254q-5 -10 -14 -4l-25 12q-10 5 -6 16z" />
<glyph unicode="&#x108;" horiz-adv-x="1046" d="M145 664q0 87 6 160.5t21 147t39.5 132t63 110t90 85.5t122.5 53.5t158 19.5q239 0 348 -41q15 -4 11 -18l-3 -23q-3 -12 -18 -10q-240 18 -321 18q-82 0 -148 -20t-111 -52.5t-78.5 -83t-52.5 -102.5t-30.5 -119.5t-15 -126t-3.5 -130.5q0 -102 10 -184.5t39 -164 t76 -136.5t125.5 -88.5t183.5 -33.5q152 0 326 17q15 0 18 -13l5 -22q0 -13 -13 -19q-56 -20 -165 -29t-183 -9q-119 0 -208.5 35.5t-144 95t-88.5 149.5t-46.5 185.5t-12.5 216.5zM356 1477q-7 7 0 14l193 168q14 14 29 14h88q4 0 7 -0.5t5 -1t4.5 -2t3.5 -2.5t4.5 -4 t5.5 -4l191 -168q7 -7 0 -14l-23 -21q-6 -4 -16 2l-227 148l-226 -148q-9 -6 -16 -2z" />
<glyph unicode="&#x109;" horiz-adv-x="802" d="M92 506q0 66 3.5 117.5t13.5 106.5t26.5 96t45 78.5t67 61.5t93.5 38t124 14q65 0 154 -10.5t143 -30.5q12 -4 10 -16l-4 -21q-4 -12 -18 -10q-171 22 -279 22q-169 0 -237 -100t-68 -344q0 -258 64 -358.5t241 -100.5q126 0 281 21q13 2 16 -11l4 -20q3 -12 -10 -16 q-54 -20 -147 -30.5t-160 -10.5t-120.5 13t-91 36t-65 60t-44 78t-26 97.5t-13 112t-3.5 127.5zM183 1155.5q-1 1.5 0.5 3.5l4.5 6l203 228q11 14 29 14h74q19 0 30 -14l195 -228q6 -8 6 -9t-6 -5l-23 -21q-6 -4 -16 3l-225 206l-228 -206q-10 -7 -16 -3l-23 21 q-3 2 -3.5 2.5t-1.5 2z" />
<glyph unicode="&#x10a;" horiz-adv-x="1046" d="M145 664q0 87 6 160.5t21 147t39.5 132t63 110t90 85.5t122.5 53.5t158 19.5q239 0 348 -41q15 -4 11 -18l-3 -23q-3 -12 -18 -10q-240 18 -321 18q-82 0 -148 -20t-111 -52.5t-78.5 -83t-52.5 -102.5t-30.5 -119.5t-15 -126t-3.5 -130.5q0 -102 10 -184.5t39 -164 t76 -136.5t125.5 -88.5t183.5 -33.5q152 0 326 17q15 0 18 -13l5 -22q0 -13 -13 -19q-56 -20 -165 -29t-183 -9q-119 0 -208.5 35.5t-144 95t-88.5 149.5t-46.5 185.5t-12.5 216.5zM608 1546q0 24 10 36.5t37 12.5q29 0 39.5 -12.5t10.5 -36.5q0 -53 -50 -53q-29 0 -38 13.5 t-9 39.5z" />
<glyph unicode="&#x10b;" horiz-adv-x="802" d="M92 506q0 66 3.5 117.5t13.5 106.5t26.5 96t45 78.5t67 61.5t93.5 38t124 14q65 0 154 -10.5t143 -30.5q12 -4 10 -16l-4 -21q-4 -12 -18 -10q-171 22 -279 22q-169 0 -237 -100t-68 -344q0 -258 64 -358.5t241 -100.5q126 0 281 21q13 2 16 -11l4 -20q3 -12 -10 -16 q-54 -20 -147 -30.5t-160 -10.5t-120.5 13t-91 36t-65 60t-44 78t-26 97.5t-13 112t-3.5 127.5zM453 1260q0 24 10 36.5t37 12.5q29 0 39 -12.5t10 -36.5q0 -54 -49 -54q-29 0 -38 14t-9 40z" />
<glyph unicode="&#x10c;" horiz-adv-x="1046" d="M145 664q0 87 6 160.5t21 147t39.5 132t63 110t90 85.5t122.5 53.5t158 19.5q239 0 348 -41q15 -4 11 -18l-3 -23q-3 -12 -18 -10q-240 18 -321 18q-82 0 -148 -20t-111 -52.5t-78.5 -83t-52.5 -102.5t-30.5 -119.5t-15 -126t-3.5 -130.5q0 -102 10 -184.5t39 -164 t76 -136.5t125.5 -88.5t183.5 -33.5q152 0 326 17q15 0 18 -13l5 -22q0 -13 -13 -19q-56 -20 -165 -29t-183 -9q-119 0 -208.5 35.5t-144 95t-88.5 149.5t-46.5 185.5t-12.5 216.5zM373 1636q-7 8 0 15l22 20q7 5 17 -2l227 -147l225 147q10 7 17 2l22 -20q7 -7 0 -15 l-192 -168q-14 -14 -29 -14h-88q-14 0 -31 14z" />
<glyph unicode="&#x10d;" horiz-adv-x="802" d="M92 506q0 66 3.5 117.5t13.5 106.5t26.5 96t45 78.5t67 61.5t93.5 38t124 14q65 0 154 -10.5t143 -30.5q12 -4 10 -16l-4 -21q-4 -12 -18 -10q-171 22 -279 22q-169 0 -237 -100t-68 -344q0 -258 64 -358.5t241 -100.5q126 0 281 21q13 2 16 -11l4 -20q3 -12 -10 -16 q-54 -20 -147 -30.5t-160 -10.5t-120.5 13t-91 36t-65 60t-44 78t-26 97.5t-13 112t-3.5 127.5zM204.5 1377.5q-0.5 2.5 0 3t4.5 3.5l22 21q7 5 17 -2l225 -207l227 207q10 7 17 2l22 -21q7 -5 5 -8q-1 -2 -5 -6l-202 -227q-12 -15 -31 -15h-64q-16 0 -28 15l-205 227 q-4 5 -4.5 7.5z" />
<glyph unicode="&#x10e;" horiz-adv-x="1210" d="M154 14v1327q0 6 6 10.5t14 4.5h379q122 0 214.5 -34t151.5 -93t96 -146t51.5 -184t14.5 -217q0 -123 -14 -220.5t-50 -186t-94.5 -147.5t-151 -93.5t-216.5 -34.5h-381q-20 0 -20 14zM229 66h328q108 0 189 33.5t129 87.5t77 134.5t39 161.5t10 183q0 98 -9.5 179.5 t-38 166.5t-74.5 143.5t-124.5 95.5t-183.5 37h-342v-1222zM276 1636q-8 8 0 15l23 20q6 4 16 -2l228 -147l225 147q9 6 16 2l23 -20q7 -7 0 -15l-193 -168q-14 -14 -28 -14h-88q-14 0 -31 14z" />
<glyph unicode="&#x10f;" horiz-adv-x="1144" d="M92 483q0 139 17 234.5t59 165.5t114.5 102.5t180.5 32.5q182 0 332 -64l6 2v469q0 13 10 13h51q6 0 6 -8v-5v-1413q-4 -11 -6 -12h-53q-10 0 -10 12v109q-233 -139 -408 -139q-166 0 -232.5 118t-66.5 383zM166 477q0 -162 27 -257t78 -133t135 -38q80 0 197 46t196 91 v709q-191 59 -348 59q-154 0 -219.5 -111.5t-65.5 -365.5zM991 1174q-8 8 2 14q54 54 54 127q0 58 -41 115q-12 12 2 20l69 45q11 7 23 -2q37 -40 37 -88q0 -76 -32 -141t-83 -103q-8 -8 -14 -2z" />
<glyph unicode="&#x110;" horiz-adv-x="1210" d="M2 680v45q0 12 10 12h142v604q0 6 6 10.5t14 4.5h379q122 0 214.5 -34t151.5 -93t96 -146t51.5 -184t14.5 -217q0 -123 -14 -220.5t-50 -186t-94.5 -147.5t-151 -93.5t-216.5 -34.5h-381q-20 0 -20 14v656h-142q-7 0 -8.5 2t-1.5 8zM229 66h328q108 0 189 33.5t129 87.5 t77 134.5t39 161.5t10 183q0 98 -9.5 179.5t-38 166.5t-74.5 143.5t-124.5 95.5t-183.5 37h-342v-551h244q10 0 10 -12v-47q0 -8 -10 -8h-244v-604z" />
<glyph unicode="&#x111;" horiz-adv-x="972" d="M92 483q0 139 17 234.5t59 165.5t114.5 102.5t180.5 32.5q182 0 332 -64l6 2v244h-389q-7 0 -9 2t-2 8v35q0 12 11 12h389v168q0 13 10 13h51q6 0 6 -8v-5v-168h142q10 0 10 -12v-37q0 -8 -10 -8h-142v-1188q-4 -11 -6 -12h-53q-10 0 -10 12v109q-233 -139 -408 -139 q-166 0 -232.5 118t-66.5 383zM166 477q0 -162 27 -257t78 -133t135 -38q80 0 197 46t196 91v709q-191 59 -348 59q-154 0 -219.5 -111.5t-65.5 -365.5z" />
<glyph unicode="&#x112;" horiz-adv-x="964" d="M141 10v1333q0 15 11 15h706q10 0 10 -12v-46q0 -12 -10 -12h-641v-549h578q10 0 10 -10v-41q0 -6 -0.5 -8.5t-2.5 -4t-7 -1.5h-578v-606h653q13 0 13 -11v-47q0 -10 -13 -10h-718q-11 0 -11 10zM285 1518v45q0 12 10 12h461q10 0 10 -12v-47q0 -9 -10 -9h-461 q-7 0 -8.5 2t-1.5 9z" />
<glyph unicode="&#x113;" horiz-adv-x="942" d="M92 506q0 82 8 148.5t32.5 137t65.5 118t112.5 78t168.5 30.5q95 0 166 -25t113.5 -65t68 -100.5t34.5 -121t9 -135.5q0 -46 -14 -66t-51 -20h-635q0 -77 6 -134.5t25 -117t51.5 -97t90 -61.5t136.5 -24q38 0 82 2.5t73 5t81.5 8t77.5 7.5q15 0 18 -11l2 -18 q3 -13 -8 -16q-56 -22 -153 -33.5t-179 -11.5q-72 0 -129.5 15t-97 40t-68 65t-45 81t-26 98t-12.5 107.5t-3 115.5zM168 545h627q-1 51 -3.5 88t-10.5 82t-21.5 76.5t-37 63.5t-56 51.5t-80 31.5t-107.5 12q-73 0 -127.5 -20.5t-88 -54.5t-54.5 -87.5t-29.5 -110.5 t-11.5 -132zM238 1229v45q0 12 10 12h461q10 0 10 -12v-47q0 -8 -10 -8h-461q-7 0 -8.5 1.5t-1.5 8.5z" />
<glyph unicode="&#x114;" horiz-adv-x="964" d="M141 10v1333q0 15 11 15h706q10 0 10 -12v-46q0 -12 -10 -12h-641v-549h578q10 0 10 -10v-41q0 -6 -0.5 -8.5t-2.5 -4t-7 -1.5h-578v-606h653q13 0 13 -11v-47q0 -10 -13 -10h-718q-11 0 -11 10zM248 1657l20 14q16 13 27 -6q49 -73 94.5 -101t112.5 -28q107 0 200 131 q11 14 27 6l19 -12q3 -3 4.5 -6.5t0.5 -8t-2.5 -8t-5 -10.5t-4.5 -10q-41 -76 -104.5 -114t-136.5 -38q-77 0 -144.5 37.5t-103.5 110.5q-17 34 -4 43z" />
<glyph unicode="&#x115;" horiz-adv-x="942" d="M92 506q0 82 8 148.5t32.5 137t65.5 118t112.5 78t168.5 30.5q95 0 166 -25t113.5 -65t68 -100.5t34.5 -121t9 -135.5q0 -46 -14 -66t-51 -20h-635q0 -77 6 -134.5t25 -117t51.5 -97t90 -61.5t136.5 -24q38 0 82 2.5t73 5t81.5 8t77.5 7.5q15 0 18 -11l2 -18 q3 -13 -8 -16q-56 -22 -153 -33.5t-179 -11.5q-72 0 -129.5 15t-97 40t-68 65t-45 81t-26 98t-12.5 107.5t-3 115.5zM168 545h627q-1 51 -3.5 88t-10.5 82t-21.5 76.5t-37 63.5t-56 51.5t-80 31.5t-107.5 12q-73 0 -127.5 -20.5t-88 -54.5t-54.5 -87.5t-29.5 -110.5 t-11.5 -132zM254 1350l20 14q16 13 27 -6q49 -73 94.5 -101t112.5 -28q108 0 201 131q11 14 26 6l19 -12q3 -2 4 -5.5t1.5 -6t-1 -7t-2.5 -7t-4 -8.5t-4 -9q-41 -76 -105 -114t-137 -38q-77 0 -144.5 37.5t-103.5 110.5q-17 34 -4 43z" />
<glyph unicode="&#x116;" horiz-adv-x="964" d="M141 10v1333q0 15 11 15h706q10 0 10 -12v-46q0 -12 -10 -12h-641v-549h578q10 0 10 -10v-41q0 -6 -0.5 -8.5t-2.5 -4t-7 -1.5h-578v-606h653q13 0 13 -11v-47q0 -10 -13 -10h-718q-11 0 -11 10zM481 1546q0 24 10 36.5t37 12.5q29 0 39.5 -12.5t10.5 -36.5 q0 -53 -50 -53q-29 0 -38 13.5t-9 39.5z" />
<glyph unicode="&#x117;" horiz-adv-x="942" d="M92 506q0 82 8 148.5t32.5 137t65.5 118t112.5 78t168.5 30.5q95 0 166 -25t113.5 -65t68 -100.5t34.5 -121t9 -135.5q0 -46 -14 -66t-51 -20h-635q0 -77 6 -134.5t25 -117t51.5 -97t90 -61.5t136.5 -24q38 0 82 2.5t73 5t81.5 8t77.5 7.5q15 0 18 -11l2 -18 q3 -13 -8 -16q-56 -22 -153 -33.5t-179 -11.5q-72 0 -129.5 15t-97 40t-68 65t-45 81t-26 98t-12.5 107.5t-3 115.5zM168 545h627q-1 51 -3.5 88t-10.5 82t-21.5 76.5t-37 63.5t-56 51.5t-80 31.5t-107.5 12q-73 0 -127.5 -20.5t-88 -54.5t-54.5 -87.5t-29.5 -110.5 t-11.5 -132zM455 1260q0 24 10 36.5t37 12.5q29 0 39 -12.5t10 -36.5q0 -54 -49 -54q-29 0 -38 14t-9 40z" />
<glyph unicode="&#x118;" horiz-adv-x="964" d="M141 10v1333q0 15 11 15h706q10 0 10 -12v-46q0 -12 -10 -12h-641v-549h578q10 0 10 -10v-41q0 -6 -0.5 -8.5t-2.5 -4t-7 -1.5h-578v-606h653q13 0 13 -11v-47q0 -10 -13 -10h-14q-105 -116 -102 -213q2 -63 54 -85t175 3q12 2 16 -6l11 -29q4 -11 -13 -18 q-58 -25 -133 -25q-88 0 -132 41t-44 107q0 58 28 119t77 106h-641q-11 0 -11 10z" />
<glyph unicode="&#x119;" horiz-adv-x="966" d="M92 506q0 82 8 148.5t32.5 137t65.5 118t112.5 78t168.5 30.5q95 0 166 -25t113.5 -65t68 -100.5t34.5 -121t9 -135.5q0 -46 -14 -66t-51 -20h-635q0 -77 6 -134.5t25 -117t51.5 -97t90 -61.5t136.5 -24q38 0 82 2.5t73 5t81.5 8t77.5 7.5q15 0 18 -11l2 -18 q3 -13 -8 -16q-49 -17 -80 -23q-112 -118 -109 -219q1 -41 24 -65t74 -30.5t132 13.5q12 2 16 -6l10 -29q5 -11 -12 -18q-58 -25 -133 -25q-88 0 -132 41t-44 107q0 56 26 115t72 106q-95 -12 -176 -12q-72 0 -129.5 15t-97 40t-68 65t-45 81t-26 98t-12.5 107.5t-3 115.5z M168 545h627q-1 51 -3.5 88t-10.5 82t-21.5 76.5t-37 63.5t-56 51.5t-80 31.5t-107.5 12q-73 0 -127.5 -20.5t-88 -54.5t-54.5 -87.5t-29.5 -110.5t-11.5 -132z" />
<glyph unicode="&#x11a;" horiz-adv-x="964" d="M141 10v1333q0 15 11 15h706q10 0 10 -12v-46q0 -12 -10 -12h-641v-549h578q10 0 10 -10v-41q0 -6 -0.5 -8.5t-2.5 -4t-7 -1.5h-578v-606h653q13 0 13 -11v-47q0 -10 -13 -10h-718q-11 0 -11 10zM233 1636q-7 8 0 15l23 20q7 4 16 -2l228 -147l225 147q9 6 16 2l23 -20 q8 -7 0 -15l-193 -168q-14 -14 -28 -14h-88q-14 0 -31 14z" />
<glyph unicode="&#x11b;" horiz-adv-x="942" d="M92 506q0 82 8 148.5t32.5 137t65.5 118t112.5 78t168.5 30.5q95 0 166 -25t113.5 -65t68 -100.5t34.5 -121t9 -135.5q0 -46 -14 -66t-51 -20h-635q0 -77 6 -134.5t25 -117t51.5 -97t90 -61.5t136.5 -24q38 0 82 2.5t73 5t81.5 8t77.5 7.5q15 0 18 -11l2 -18 q3 -13 -8 -16q-56 -22 -153 -33.5t-179 -11.5q-72 0 -129.5 15t-97 40t-68 65t-45 81t-26 98t-12.5 107.5t-3 115.5zM168 545h627q-1 51 -3.5 88t-10.5 82t-21.5 76.5t-37 63.5t-56 51.5t-80 31.5t-107.5 12q-73 0 -127.5 -20.5t-88 -54.5t-54.5 -87.5t-29.5 -110.5 t-11.5 -132zM231.5 1377.5q-0.5 2.5 0 3t4.5 3.5l22 21q6 4 16 -2l226 -207l227 207q9 6 16 2l23 -21q7 -5 5 -8q-1 -2 -5 -6l-203 -227q-12 -15 -31 -15h-63q-17 0 -29 15l-204 227q-4 5 -4.5 7.5z" />
<glyph unicode="&#x11c;" horiz-adv-x="1183" d="M133 664q0 123 12 221.5t45.5 192.5t88.5 156t145 100t211 38q239 0 348 -41q14 -3 10 -18l-2 -23q-3 -12 -18 -10q-240 18 -328 18q-83 0 -149 -20t-110.5 -52.5t-77 -83t-50.5 -101.5t-28.5 -120t-13.5 -126t-3 -131t4.5 -134t17.5 -125t34 -115t57 -96t84.5 -76 t117.5 -47.5t154 -17.5q65 0 148 12t135 33v514h-213q-17 0 -17 15v49q0 10 17 10h278q12 0 12 -14v-588q0 -45 -38 -55q-158 -45 -326 -45q-289 0 -417 165t-128 515zM375 1477q-7 7 0 14l192 168q14 14 29 14h88q14 0 31 -14l190 -168q7 -7 0 -14l-22 -21q-7 -5 -17 2 l-227 148l-225 -148q-10 -7 -17 -2z" />
<glyph unicode="&#x11d;" horiz-adv-x="980" d="M90 500q0 272 89 396t296 124q197 0 369 -39q24 -6 30.5 -16.5t6.5 -36.5v-961q0 -199 -75 -272.5t-278 -73.5q-206 0 -319 39q-13 6 -10 18l2 21q3 10 18 10q216 -22 293 -22q168 0 233.5 58t65.5 208v90l-6 4q-158 -63 -336 -63q-109 0 -183.5 33t-117 101.5t-60.5 160 t-18 221.5zM168 520q0 -249 66 -360t223 -111q149 0 352 60v813q-165 30 -326 30q-56 0 -98.5 -9.5t-85 -37t-70 -74.5t-44.5 -125.5t-17 -185.5zM261 1155.5q-1 1.5 0.5 3.5l4.5 6l203 228q11 14 29 14h73q20 0 31 -14l195 -228q6 -8 6 -9t-6 -5l-23 -21q-6 -4 -16 3 l-226 206l-227 -206q-10 -7 -16 -3l-23 21q-3 2 -3.5 2.5t-1.5 2z" />
<glyph unicode="&#x11e;" horiz-adv-x="1183" d="M133 664q0 123 12 221.5t45.5 192.5t88.5 156t145 100t211 38q239 0 348 -41q14 -3 10 -18l-2 -23q-3 -12 -18 -10q-240 18 -328 18q-83 0 -149 -20t-110.5 -52.5t-77 -83t-50.5 -101.5t-28.5 -120t-13.5 -126t-3 -131t4.5 -134t17.5 -125t34 -115t57 -96t84.5 -76 t117.5 -47.5t154 -17.5q65 0 148 12t135 33v514h-213q-17 0 -17 15v49q0 10 17 10h278q12 0 12 -14v-588q0 -45 -38 -55q-158 -45 -326 -45q-289 0 -417 165t-128 515zM410 1657l20 14q16 13 27 -6q49 -73 94.5 -101t112.5 -28q107 0 200 131q11 14 27 6l18 -12q3 -2 4 -5.5 t1.5 -6t-1 -7t-2.5 -7t-4 -8.5t-4 -9q-41 -76 -104.5 -114t-136.5 -38q-77 0 -144.5 37.5t-103.5 110.5q-17 34 -4 43z" />
<glyph unicode="&#x11f;" horiz-adv-x="980" d="M90 500q0 272 89 396t296 124q197 0 369 -39q24 -6 30.5 -16.5t6.5 -36.5v-961q0 -199 -75 -272.5t-278 -73.5q-206 0 -319 39q-13 6 -10 18l2 21q3 10 18 10q216 -22 293 -22q168 0 233.5 58t65.5 208v90l-6 4q-158 -63 -336 -63q-109 0 -183.5 33t-117 101.5t-60.5 160 t-18 221.5zM168 520q0 -249 66 -360t223 -111q149 0 352 60v813q-165 30 -326 30q-56 0 -98.5 -9.5t-85 -37t-70 -74.5t-44.5 -125.5t-17 -185.5zM297 1350l20 14q16 13 27 -6q49 -73 94.5 -101t112.5 -28q108 0 201 131q11 14 26 6l19 -12q3 -2 4 -5.5t1.5 -6t-1 -7 t-2.5 -7t-4 -8.5t-4 -9q-41 -76 -105 -114t-137 -38q-77 0 -144.5 37.5t-103.5 110.5q-17 34 -4 43z" />
<glyph unicode="&#x120;" horiz-adv-x="1183" d="M133 664q0 123 12 221.5t45.5 192.5t88.5 156t145 100t211 38q239 0 348 -41q14 -3 10 -18l-2 -23q-3 -12 -18 -10q-240 18 -328 18q-83 0 -149 -20t-110.5 -52.5t-77 -83t-50.5 -101.5t-28.5 -120t-13.5 -126t-3 -131t4.5 -134t17.5 -125t34 -115t57 -96t84.5 -76 t117.5 -47.5t154 -17.5q65 0 148 12t135 33v514h-213q-17 0 -17 15v49q0 10 17 10h278q12 0 12 -14v-588q0 -45 -38 -55q-158 -45 -326 -45q-289 0 -417 165t-128 515zM618 1546q0 24 10.5 36.5t37.5 12.5q29 0 39 -12.5t10 -36.5q0 -53 -49 -53q-29 0 -38.5 13.5t-9.5 39.5 z" />
<glyph unicode="&#x121;" horiz-adv-x="980" d="M90 500q0 272 89 396t296 124q197 0 369 -39q24 -6 30.5 -16.5t6.5 -36.5v-961q0 -199 -75 -272.5t-278 -73.5q-206 0 -319 39q-13 6 -10 18l2 21q3 10 18 10q216 -22 293 -22q168 0 233.5 58t65.5 208v90l-6 4q-158 -63 -336 -63q-109 0 -183.5 33t-117 101.5t-60.5 160 t-18 221.5zM168 520q0 -249 66 -360t223 -111q149 0 352 60v813q-165 30 -326 30q-56 0 -98.5 -9.5t-85 -37t-70 -74.5t-44.5 -125.5t-17 -185.5zM518 1260q0 24 10 36.5t37 12.5q29 0 39 -12.5t10 -36.5q0 -54 -49 -54q-29 0 -38 14t-9 40z" />
<glyph unicode="&#x122;" horiz-adv-x="1183" d="M133 664q0 123 12 221.5t45.5 192.5t88.5 156t145 100t211 38q239 0 348 -41q14 -3 10 -18l-2 -23q-3 -12 -18 -10q-240 18 -328 18q-83 0 -149 -20t-110.5 -52.5t-77 -83t-50.5 -101.5t-28.5 -120t-13.5 -126t-3 -131t4.5 -134t17.5 -125t34 -115t57 -96t84.5 -76 t117.5 -47.5t154 -17.5q65 0 148 12t135 33v514h-213q-17 0 -17 15v49q0 10 17 10h278q12 0 12 -14v-588q0 -45 -38 -55q-158 -45 -326 -45q-289 0 -417 165t-128 515zM580 -428q-8 8 2 14q53 53 53 127q0 58 -41 115q-12 12 2 20l70 46q10 7 22 -3q37 -40 37 -88 q0 -76 -32 -140.5t-83 -102.5q-8 -8 -14 -2z" />
<glyph unicode="&#x123;" horiz-adv-x="980" d="M90 500q0 272 89 396t296 124q197 0 369 -39q24 -6 30.5 -16.5t6.5 -36.5v-961q0 -199 -75 -272.5t-278 -73.5q-206 0 -319 39q-13 6 -10 18l2 21q3 10 18 10q216 -22 293 -22q168 0 233.5 58t65.5 208v90l-6 4q-158 -63 -336 -63q-109 0 -183.5 33t-117 101.5t-60.5 160 t-18 221.5zM168 520q0 -249 66 -360t223 -111q149 0 352 60v813q-165 30 -326 30q-56 0 -98.5 -9.5t-85 -37t-70 -74.5t-44.5 -125.5t-17 -185.5zM485 1237q0 76 32 141t83 103q8 8 14 2l17 -15q8 -8 -2 -14q-54 -54 -54 -127q0 -58 41 -115q12 -12 -2 -20l-69 -45 q-11 -7 -23 2q-37 40 -37 88z" />
<glyph unicode="&#x124;" horiz-adv-x="1167" d="M147 12v1334q0 12 11 12h53q10 0 10 -12v-592h727v592q0 12 15 12h49q10 0 10 -12v-1334q0 -12 -10 -12h-49q-15 0 -15 12v676h-727v-676q0 -12 -10 -12h-53q-11 0 -11 12zM328 1477q-7 7 0 14l192 168q14 14 29 14h88q14 0 31 -14l190 -168q7 -7 0 -14l-22 -21 q-7 -5 -17 2l-227 148l-225 -148q-10 -7 -17 -2z" />
<glyph unicode="&#x125;" horiz-adv-x="960" d="M-123 1477q-7 7 0 14l193 168q14 14 28 14h88q14 0 31 -14l191 -168q7 -7 0 -14l-23 -21q-7 -4 -16 2l-228 148l-225 -148q-10 -6 -16 -2zM104 12v1413q0 13 7 13h53q7 0 8.5 -2.5t1.5 -10.5v-551q243 142 408 142q45 0 81 -7t63 -16.5t48 -29t34.5 -36t23 -46.5t14 -51 t7 -58.5t3 -60.5t0.5 -66l2 -633q0 -12 -10 -12h-57q-7 0 -7 12v641q0 51 -1.5 82t-8 70.5t-20.5 62.5t-37.5 45t-61 31.5t-88.5 9.5q-79 0 -193 -45t-200 -92v-805q0 -12 -10 -12h-53q-7 0 -7 12z" />
<glyph unicode="&#x126;" horiz-adv-x="1167" d="M61 1014v39q0 12 11 12h75v281q0 12 11 12h53q10 0 10 -12v-281h727v281q0 12 15 12h49q10 0 10 -12v-281h74q10 0 10 -12v-41q0 -8 -10 -8h-74v-992q0 -12 -10 -12h-49q-15 0 -15 12v676h-727v-676q0 -12 -10 -12h-53q-11 0 -11 12v992h-75q-7 0 -9 2t-2 8zM221 754h727 v250h-727v-250z" />
<glyph unicode="&#x127;" horiz-adv-x="1032" d="M43 1210v35q0 12 14 12h129v168q0 13 7 13h53q7 0 8.5 -2.5t1.5 -10.5v-168h528q7 0 9 -2t2 -8v-37q0 -10 -11 -10h-528v-326q243 142 408 142q80 0 134 -20.5t81.5 -46.5t41 -81.5t15.5 -92.5t2 -112v-18l2 -633q0 -12 -10 -12h-58q-6 0 -6 12v641q0 51 -1.5 82t-8 70.5 t-20.5 62.5t-37.5 45t-61 31.5t-88.5 9.5q-79 0 -193 -45t-200 -92v-805q0 -12 -10 -12h-53q-7 0 -7 12v1188h-131q-12 0 -12 10z" />
<glyph unicode="&#x128;" horiz-adv-x="458" d="M-78 1526q67 112 162 112q39 0 95.5 -27.5t109.5 -55t82 -27.5q33 0 56.5 21t47.5 61q7 11 10.5 12.5t16.5 -2.5l20 -10q14 -8 4 -27q-58 -117 -157 -117q-36 0 -78 17t-74.5 37.5t-70 37.5t-64.5 17q-54 0 -107 -78q-10 -15 -16.5 -18t-15.5 2l-17 8q-22 11 -4 37z M190 12v1334q0 12 11 12h53q10 0 10 -12v-1334q0 -12 -10 -12h-53q-11 0 -11 12z" />
<glyph unicode="&#x129;" horiz-adv-x="598" d="M-2 1233q68 113 162 113q48 0 150 -55.5t136 -55.5t57.5 21t47.5 61q7 11 10.5 12.5t16.5 -2.5l20 -10q14 -8 4 -27q-58 -116 -158 -116q-45 0 -99 27t-103.5 54t-83.5 27q-54 0 -107 -78q-10 -15 -17 -18t-16 2l-16 8q-22 11 -4 37zM270 12v973q0 12 13 12h49q8 0 8 -12 v-973q0 -12 -10 -12h-47q-13 0 -13 12z" />
<glyph unicode="&#x12a;" horiz-adv-x="458" d="M-8 1518v45q0 12 10 12h461q10 0 10 -12v-47q0 -9 -10 -9h-461q-7 0 -8.5 2t-1.5 9zM190 12v1334q0 12 11 12h53q10 0 10 -12v-1334q0 -12 -10 -12h-53q-11 0 -11 12z" />
<glyph unicode="&#x12b;" horiz-adv-x="460" d="M-10 1229v45q0 12 10 12h461q10 0 10 -12v-47q0 -8 -10 -8h-461q-7 0 -8.5 1.5t-1.5 8.5zM199 12v973q0 7 2.5 9.5t9.5 2.5h49q8 0 8 -12v-973q0 -12 -10 -12h-47q-7 0 -9.5 2t-2.5 10z" />
<glyph unicode="&#x12c;" horiz-adv-x="555" d="M8 1657l21 14q15 12 26 -6q49 -73 94.5 -101t112.5 -28q108 0 201 131q11 14 26 6l19 -12q3 -2 4 -5.5t1.5 -6t-1 -7t-2.5 -7t-4 -8.5t-4 -9q-41 -76 -105 -114t-137 -38q-77 0 -144.5 37.5t-103.5 110.5q-17 34 -4 43zM223 12v1334q0 12 10 12h54q10 0 10 -12v-1334 q0 -12 -10 -12h-54q-10 0 -10 12z" />
<glyph unicode="&#x12d;" horiz-adv-x="493" d="M-2 1362l20 14q16 13 27 -6q49 -73 94.5 -101t112.5 -28q108 0 201 131q11 14 26 6l19 -12q3 -2 4 -5.5t1.5 -6t-1 -7t-2.5 -7t-4 -8.5t-4 -9q-41 -76 -105 -114t-137 -38q-77 0 -144.5 37.5t-103.5 110.5q-17 34 -4 43zM215 12v973q0 7 2.5 9.5t9.5 2.5h49q9 0 9 -12 v-973q0 -12 -11 -12h-47q-7 0 -9.5 2t-2.5 10z" />
<glyph unicode="&#x12e;" horiz-adv-x="458" d="M78 -225q0 59 30 122.5t82 108.5v6v1334q0 12 11 12h53q10 0 10 -12v-1334q0 -12 -10 -12h-8q-106 -117 -103 -213q1 -41 24 -65t74 -30.5t132 13.5q12 2 16 -6l10 -29q5 -11 -12 -18q-58 -25 -133 -25q-88 0 -132 41t-44 107z" />
<glyph unicode="&#x12f;" horiz-adv-x="403" d="M53 -225q0 59 30.5 122.5t82.5 108.5v6v973q0 7 2 9.5t10 2.5h49q9 0 9 -12v-973q0 -12 -11 -12h-4q-105 -116 -102 -213q2 -63 54 -85t175 3q13 2 17 -6l10 -29q4 -11 -13 -18q-58 -25 -133 -25q-88 0 -132 41t-44 107zM152 1266q0 25 10.5 38t38.5 13q30 0 40.5 -12.5 t10.5 -38.5q0 -27 -10.5 -41.5t-40.5 -14.5q-29 0 -39 15t-10 41z" />
<glyph unicode="&#x130;" horiz-adv-x="458" d="M178 1546q0 24 10 36.5t37 12.5q29 0 39 -12.5t10 -36.5q0 -53 -49 -53q-29 0 -38 13.5t-9 39.5zM190 12v1334q0 12 11 12h53q10 0 10 -12v-1334q0 -12 -10 -12h-53q-11 0 -11 12z" />
<glyph unicode="&#x131;" horiz-adv-x="403" d="M166 12v973q0 7 2 9.5t10 2.5h49q9 0 9 -12v-973q0 -12 -11 -12h-47q-8 0 -10 2t-2 10z" />
<glyph unicode="&#x132;" horiz-adv-x="1173" d="M184 12v1334q0 12 11 12h53q10 0 10 -12v-1334q0 -12 -10 -12h-53q-11 0 -11 12zM385 37l6 22q3 15 19 13q117 -15 221 -15q87 0 144.5 22t87 66t40.5 96.5t10 127.5v977q0 12 11 12h55q10 0 10 -12v-1012q0 -82 -17 -144t-56 -111t-109.5 -74t-171.5 -25q-138 0 -240 38 q-12 8 -10 19z" />
<glyph unicode="&#x133;" horiz-adv-x="864" d="M152 1266q0 25 10.5 38t38.5 13q30 0 40.5 -12.5t10.5 -38.5q0 -27 -10.5 -41.5t-40.5 -14.5q-29 0 -39 15t-10 41zM166 12v973q0 7 2 9.5t10 2.5h49q9 0 9 -12v-973q0 -12 -11 -12h-47q-8 0 -10 2t-2 10zM360 -369q0 19 21 19q42 2 75 8.5t55 15t37.5 23t23.5 27 t12 32.5t5 34.5t1 37.5v1159q0 12 10 12h49q13 0 13 -12v-1180q0 -34 -3.5 -59.5t-20 -59t-45 -54t-83.5 -33.5t-131 -9q-2 0 -6 1t-8.5 6t-4.5 12v20zM575 1266q0 51 50 51q30 0 40.5 -12.5t10.5 -38.5q0 -27 -10.5 -41.5t-40.5 -14.5q-50 0 -50 56z" />
<glyph unicode="&#x134;" horiz-adv-x="833" d="M20 39l7 22q2 8 5 11t13 2q117 -15 221 -15q87 0 144.5 22t87.5 66t41 96.5t10 127.5v977q0 12 10 12h55q11 0 11 -12v-1012q0 -82 -17 -144t-56.5 -110.5t-110 -74t-171.5 -25.5q-137 0 -239 38q-13 9 -11 19zM319 1481q-7 7 0 14l193 168q14 14 29 14h88q4 0 7 -0.5 t5 -1t4.5 -2t3.5 -2.5t4.5 -4t5.5 -4l191 -168q7 -7 0 -14l-23 -21q-7 -4 -16 2l-227 148l-226 -148q-10 -6 -16 -2z" />
<glyph unicode="&#x135;" horiz-adv-x="503" d="M-19 1155.5q-1 1.5 0.5 3.5l4.5 6l202 228q11 14 29 14h74q20 0 31 -14l194 -228q6 -8 6 -9t-6 -5l-22 -21q-6 -4 -17 3l-225 206l-227 -206q-11 -7 -17 -3l-22 21q-3 2 -3.5 2.5t-1.5 2zM-18 -369q0 19 20 19q42 2 75 8.5t55 15t37.5 23t23.5 27t12 32.5t5 34.5t1 37.5 v1159q0 12 10 12h49q13 0 13 -12v-1180q0 -34 -3.5 -59.5t-20 -59t-45 -54t-83.5 -33.5t-131 -9q-2 0 -5.5 1t-8 6t-4.5 12v20z" />
<glyph unicode="&#x136;" horiz-adv-x="1073" d="M141 12v1334q0 12 11 12h53q10 0 10 -12v-861l694 861q12 12 27 12h55q9 0 11 -5t-3 -10l-446 -548l465 -779q10 -16 -10 -16h-52q-18 0 -24 12l-428 721l-289 -358v-363q0 -12 -10 -12h-53q-11 0 -11 12zM461 -387q-8 8 2 14q53 53 53 127q0 58 -41 115q-12 12 2 20 l70 45q11 7 22 -2q37 -40 37 -88q0 -76 -31.5 -140.5t-82.5 -102.5q-8 -9 -15 -2z" />
<glyph unicode="&#x137;" horiz-adv-x="823" d="M102 12v1413q0 13 13 13h49q8 0 8 -13v-940l174 174l340 328q12 12 29 12h51q25 0 8 -20l-362 -346l401 -619q9 -14 -8 -14h-47q-21 0 -31 18l-362 570l-193 -185v-391q0 -12 -10 -12h-47q-13 0 -13 12zM328 -428q-8 8 2 14q53 53 53 127q0 58 -41 115q-12 12 2 20l70 46 q10 7 22 -3q37 -40 37 -88q0 -76 -32 -140.5t-83 -102.5q-8 -8 -14 -2z" />
<glyph unicode="&#x138;" horiz-adv-x="831" d="M102 12v973q0 12 13 12h49q8 0 8 -12v-500l174 174l340 328q12 12 29 12h51q25 0 8 -20l-362 -346l409 -619q9 -14 -8 -14h-47q-21 0 -31 18l-370 570l-193 -185v-391q0 -12 -10 -12h-47q-13 0 -13 12z" />
<glyph unicode="&#x139;" horiz-adv-x="937" d="M152 12v1331q0 15 12 15h49q10 0 10 -15l2 -1273h676q12 0 12 -13v-47q0 -10 -12 -10h-739q-10 0 -10 12zM197 1483q-8 8 2 16l245 170q7 5 10 4t9 -8l39 -49q8 -11 -4 -17l-271 -143q-9 -3 -14 4z" />
<glyph unicode="&#x13a;" horiz-adv-x="413" d="M154 92v1333q0 13 12 13h51q8 0 8 -13v-1298q0 -53 13.5 -64t80.5 -8q19 0 21 -10l4 -29q3 -16 -16 -22q-39 -10 -82 -10q-46 0 -69 24.5t-23 83.5zM158 1556q-9 9 2 17l246 170q8 5 10 4t8 -8l39 -49q7 -11 -4 -17l-271 -143q-9 -3 -14 4z" />
<glyph unicode="&#x13b;" horiz-adv-x="937" d="M152 12v1331q0 15 12 15h49q10 0 10 -15l2 -1273h676q12 0 12 -13v-47q0 -10 -12 -10h-739q-10 0 -10 12zM457 -428q-8 8 2 14q53 53 53 127q0 58 -41 115q-12 12 2 20l70 46q10 7 22 -3q37 -40 37 -88q0 -76 -32 -140.5t-83 -102.5q-8 -8 -14 -2z" />
<glyph unicode="&#x13c;" horiz-adv-x="413" d="M145 -428q-8 8 2 14q54 54 54 127q0 58 -41 115q-12 12 2 20l69 46q11 7 23 -3q37 -40 37 -88q0 -76 -32 -140.5t-83 -102.5q-8 -8 -14 -2zM154 92v1333q0 13 12 13h51q8 0 8 -13v-1298q0 -53 13.5 -64t80.5 -8q19 0 21 -10l4 -29q3 -16 -16 -22q-39 -10 -82 -10 q-46 0 -69 24.5t-23 83.5z" />
<glyph unicode="&#x13d;" horiz-adv-x="937" d="M152 12v1331q0 15 12 15h49q10 0 10 -15l2 -1273h676q12 0 12 -13v-47q0 -10 -12 -10h-739q-10 0 -10 12zM614 1032q-8 8 2 15q54 54 54 127q0 57 -41 114q-12 12 2 21l69 45q11 7 23 -2q37 -40 37 -88q0 -76 -32 -141t-83 -103q-8 -8 -14 -2z" />
<glyph unicode="&#x13e;" horiz-adv-x="485" d="M154 92v1333q0 13 12 13h51q8 0 8 -13v-1298q0 -53 13.5 -64t80.5 -8q19 0 21 -10l4 -29q3 -16 -16 -22q-39 -10 -82 -10q-46 0 -69 24.5t-23 83.5zM338 1133q-8 8 2 14q53 53 53 127q0 58 -41 115q-12 12 2 20l70 45q11 7 22 -2q37 -40 37 -88q0 -76 -31.5 -141 t-82.5 -103q-9 -8 -15 -2z" />
<glyph unicode="&#x13f;" horiz-adv-x="937" d="M152 12v1331q0 15 12 15h49q10 0 10 -15l2 -1273h676q12 0 12 -13v-47q0 -10 -12 -10h-739q-10 0 -10 12zM573 694q0 24 10.5 36.5t37.5 12.5q29 0 39 -12.5t10 -36.5q0 -53 -49 -53q-29 0 -38.5 13.5t-9.5 39.5z" />
<glyph unicode="&#x140;" horiz-adv-x="454" d="M154 92v1333q0 13 12 13h51q8 0 8 -13v-1298q0 -53 13.5 -64t80.5 -8q19 0 21 -10l4 -29q3 -16 -16 -22q-39 -10 -82 -10q-46 0 -69 24.5t-23 83.5zM352 729q0 24 10 36.5t37 12.5q29 0 39.5 -12.5t10.5 -36.5q0 -53 -50 -53q-29 0 -38 13.5t-9 39.5z" />
<glyph unicode="&#x141;" horiz-adv-x="954" d="M-4 498q-10 15 4 22l168 90v733q0 15 12 15h49q11 0 11 -15v-694l254 137q15 11 20 -6l16 -26q9 -14 -6 -23l-284 -151l2 -510h676q12 0 12 -13v-47q0 -10 -12 -10h-740q-10 0 -10 12v529l-135 -72q-16 -10 -23 2z" />
<glyph unicode="&#x142;" horiz-adv-x="442" d="M2 549q-10 15 4 22l160 84v770q0 13 12 13h51q9 0 9 -13v-733l159 84q16 12 21 -6l16 -27q8 -14 -6 -22l-190 -98v-496q0 -53 13.5 -64t80.5 -8q18 0 20 -10l4 -29q3 -16 -16 -22q-39 -10 -82 -10q-46 0 -69 24.5t-23 83.5v494l-127 -66q-16 -10 -23 2z" />
<glyph unicode="&#x143;" horiz-adv-x="1234" d="M143 14l2 1329q0 5 3.5 10t9.5 5h55q4 0 6 -0.5t4 -1.5t2.5 -2t2.5 -4t3 -4l785 -1215h4v1212q0 15 10 15h47q15 0 15 -15v-1329q0 -14 -13 -14h-55q-6 0 -9 1.5t-4 2.5t-5 8l-785 1215h-4v-1213q0 -14 -10 -14h-49q-15 0 -15 14zM565 1483q-8 8 2 16l246 170q7 5 9.5 4 t8.5 -8l39 -49q8 -11 -4 -17l-270 -143q-9 -3 -14 4z" />
<glyph unicode="&#x144;" horiz-adv-x="960" d="M104 12v973q0 12 11 12h45q14 0 14 -12v-111q243 142 408 142q79 0 133.5 -21.5t82.5 -49.5t42 -85.5t16 -97.5t2 -117v-633q0 -12 -12 -12h-51q-11 0 -11 12v641q0 51 -1.5 82t-8 70.5t-20.5 62.5t-37.5 45t-61 31.5t-88.5 9.5q-79 0 -193 -45t-200 -92v-805 q0 -12 -14 -12h-45q-11 0 -11 12zM377 1165l137 265q7 12 18 6l58 -27q11 -4 4 -14l-172 -254q-5 -10 -14 -4l-25 12q-10 5 -6 16z" />
<glyph unicode="&#x145;" horiz-adv-x="1234" d="M143 14l2 1329q0 5 3.5 10t9.5 5h55q4 0 6 -0.5t4 -1.5t2.5 -2t2.5 -4t3 -4l785 -1215h4v1212q0 15 10 15h47q15 0 15 -15v-1329q0 -14 -13 -14h-55q-6 0 -9 1.5t-4 2.5t-5 8l-785 1215h-4v-1213q0 -14 -10 -14h-49q-15 0 -15 14zM541 -387q-8 8 2 14q53 53 53 127 q0 58 -41 115q-12 12 2 20l70 45q11 7 22 -2q37 -40 37 -88q0 -76 -32 -140.5t-83 -102.5q-8 -8 -14 -2z" />
<glyph unicode="&#x146;" horiz-adv-x="960" d="M104 12v973q0 12 11 12h45q14 0 14 -12v-111q243 142 408 142q79 0 133.5 -21.5t82.5 -49.5t42 -85.5t16 -97.5t2 -117v-633q0 -12 -12 -12h-51q-11 0 -11 12v641q0 51 -1.5 82t-8 70.5t-20.5 62.5t-37.5 45t-61 31.5t-88.5 9.5q-79 0 -193 -45t-200 -92v-805 q0 -12 -14 -12h-45q-11 0 -11 12zM414 -428q-8 8 2 14q53 53 53 127q0 58 -41 115q-12 12 2 20l70 46q10 7 22 -3q37 -40 37 -88q0 -76 -32 -140.5t-83 -102.5q-8 -8 -14 -2z" />
<glyph unicode="&#x147;" horiz-adv-x="1234" d="M143 14l2 1329q0 5 3.5 10t9.5 5h55q4 0 6 -0.5t4 -1.5t2.5 -2t2.5 -4t3 -4l785 -1215h4v1212q0 15 10 15h47q15 0 15 -15v-1329q0 -14 -13 -14h-55q-6 0 -9 1.5t-4 2.5t-5 8l-785 1215h-4v-1213q0 -14 -10 -14h-49q-15 0 -15 14zM362 1636q-8 8 0 15l23 20q6 4 16 -2 l228 -147l225 147q10 6 16 2l23 -20q7 -7 0 -15l-193 -168q-14 -14 -28 -14h-88q-14 0 -31 14z" />
<glyph unicode="&#x148;" horiz-adv-x="960" d="M104 12v973q0 12 11 12h45q14 0 14 -12v-111q243 142 408 142q79 0 133.5 -21.5t82.5 -49.5t42 -85.5t16 -97.5t2 -117v-633q0 -12 -12 -12h-51q-11 0 -11 12v641q0 51 -1.5 82t-8 70.5t-20.5 62.5t-37.5 45t-61 31.5t-88.5 9.5q-79 0 -193 -45t-200 -92v-805 q0 -12 -14 -12h-45q-11 0 -11 12zM188.5 1377.5q-0.5 2.5 0 3t4.5 3.5l22 21q6 4 16 -2l226 -207l227 207q9 6 16 2l23 -21q7 -5 5 -8q-1 -2 -5 -6l-203 -227q-12 -15 -31 -15h-63q-17 0 -29 15l-204 227q-4 5 -4.5 7.5z" />
<glyph unicode="&#x149;" horiz-adv-x="1009" d="M20 1061q-7 7 3 14q53 53 53 127q0 58 -41 115q-12 12 2 20l69 45q11 7 23 -2q37 -40 37 -88q0 -76 -32 -140.5t-83 -102.5q-8 -8 -14 -2zM154 12v973q0 12 10 12h45q14 0 14 -12v-111q243 142 408 142q79 0 133.5 -21.5t82.5 -49.5t42 -85.5t16 -97.5t2 -117v-633 q0 -12 -12 -12h-51q-10 0 -10 12v641q0 43 -1 70.5t-5.5 63t-13.5 57t-24.5 45t-38.5 36t-57 21t-78 8.5q-79 0 -193 -45t-200 -92v-805q0 -12 -14 -12h-45q-10 0 -10 12z" />
<glyph unicode="&#x14a;" horiz-adv-x="1234" d="M143 14l2 1329q0 5 3.5 10t9.5 5h55q4 0 6 -0.5t4 -1.5t2.5 -2t2.5 -4t3 -4l785 -1215h4v1212q0 15 10 15h47q15 0 15 -15v-1470q0 -25 -1 -41t-5.5 -41.5t-15.5 -41.5t-28.5 -33t-47.5 -25.5t-70 -9.5q-45 0 -99 10q-13 3 -16 6.5t-2 13.5l4 29q1 10 5 12t15 2 q33 -3 58 -3t44.5 3t33 7.5t23 14t15 18.5t8.5 24.5t4 30t1 36.5v107l-797 1235h-4v-1213q0 -14 -10 -14h-49q-15 0 -15 14z" />
<glyph unicode="&#x14b;" horiz-adv-x="960" d="M104 12v973q0 12 11 12h45q14 0 14 -12v-111q243 142 408 142q58 0 102.5 -10.5t73.5 -25t48.5 -45t30 -53.5t15.5 -68.5t5.5 -72.5t0.5 -82v-14v-772q0 -25 -1 -41t-5.5 -41.5t-15.5 -41.5t-28.5 -33t-47.5 -25.5t-70 -9.5q-44 0 -98 10q-13 3 -16.5 6.5t-2.5 13.5l5 29 q1 10 5.5 12t14.5 2q33 -3 58 -3t44.5 3t33 7.5t23 14t14.5 18.5t8 24.5t4 30t1 36.5v768q0 51 -1.5 82t-8 70.5t-20.5 62.5t-37.5 45t-61 31.5t-88.5 9.5q-79 0 -193 -45t-200 -92v-805q0 -12 -14 -12h-45q-11 0 -11 12z" />
<glyph unicode="&#x14c;" horiz-adv-x="1261" d="M129 698q0 65 4.5 123t17.5 128.5t35 128.5t60 114.5t88.5 95t124.5 62.5t164 24q91 0 165 -20t126 -53.5t90.5 -84.5t62 -106.5t37.5 -127t19 -138t5 -146.5q0 -82 -4 -148t-17 -142.5t-35 -135.5t-60.5 -115.5t-90.5 -93t-128 -59t-170 -22.5t-169 22.5t-126 58.5 t-88.5 93t-58.5 115t-33 135.5t-15.5 142.5t-3.5 149zM205 678q0 -111 10.5 -199t38.5 -171t74 -138t120.5 -88t174.5 -33q121 0 207 45.5t135 132t70.5 196.5t21.5 255q0 118 -11.5 210t-41.5 173t-78.5 133.5t-124.5 82.5t-178 30q-97 0 -170 -31.5t-120 -86t-76 -136 t-40.5 -172t-11.5 -203.5zM399 1518v45q0 12 11 12h460q11 0 11 -12v-47q0 -9 -11 -9h-460q-11 0 -11 11z" />
<glyph unicode="&#x14d;" horiz-adv-x="976" d="M92 518q0 49 3 92t13.5 95.5t27 95t46.5 84.5t69.5 70t98.5 45.5t131 17.5q102 0 177.5 -29t118 -74t68 -114t33 -134t7.5 -149q0 -62 -2.5 -108.5t-12 -105t-26 -101.5t-46.5 -86.5t-72 -70.5t-104 -44.5t-141 -17.5q-76 0 -136.5 17t-100.5 43.5t-69 70t-45 85.5 t-24.5 101.5t-11 106t-2.5 110.5zM168 502q0 -84 7 -147t27 -123.5t54 -99t90.5 -62t134.5 -23.5q80 0 139 22.5t95 60.5t57.5 97.5t29 124t7.5 150.5q0 87 -7 150.5t-28 122.5t-57 95.5t-95 58t-141 21.5q-78 0 -134.5 -23.5t-90.5 -61.5t-54 -98t-27 -121.5t-7 -143.5z M250 1229v45q0 12 10 12h461q10 0 10 -12v-47q0 -8 -10 -8h-461q-7 0 -8.5 1.5t-1.5 8.5z" />
<glyph unicode="&#x14e;" horiz-adv-x="1261" d="M129 698q0 65 4.5 123t17.5 128.5t35 128.5t60 114.5t88.5 95t124.5 62.5t164 24q91 0 165 -20t126 -53.5t90.5 -84.5t62 -106.5t37.5 -127t19 -138t5 -146.5q0 -82 -4 -148t-17 -142.5t-35 -135.5t-60.5 -115.5t-90.5 -93t-128 -59t-170 -22.5t-169 22.5t-126 58.5 t-88.5 93t-58.5 115t-33 135.5t-15.5 142.5t-3.5 149zM205 678q0 -111 10.5 -199t38.5 -171t74 -138t120.5 -88t174.5 -33q121 0 207 45.5t135 132t70.5 196.5t21.5 255q0 118 -11.5 210t-41.5 173t-78.5 133.5t-124.5 82.5t-178 30q-97 0 -170 -31.5t-120 -86t-76 -136 t-40.5 -172t-11.5 -203.5zM385 1657l21 14q15 12 26 -6q49 -73 94.5 -101t112.5 -28q108 0 201 131q11 14 26 6l19 -12q3 -2 4 -5.5t1.5 -6t-1 -7t-2.5 -7t-4 -8.5t-4 -9q-41 -76 -105 -114t-137 -38q-77 0 -144.5 37.5t-103.5 110.5q-17 34 -4 43z" />
<glyph unicode="&#x14f;" horiz-adv-x="976" d="M92 518q0 49 3 92t13.5 95.5t27 95t46.5 84.5t69.5 70t98.5 45.5t131 17.5q102 0 177.5 -29t118 -74t68 -114t33 -134t7.5 -149q0 -62 -2.5 -108.5t-12 -105t-26 -101.5t-46.5 -86.5t-72 -70.5t-104 -44.5t-141 -17.5q-76 0 -136.5 17t-100.5 43.5t-69 70t-45 85.5 t-24.5 101.5t-11 106t-2.5 110.5zM168 502q0 -84 7 -147t27 -123.5t54 -99t90.5 -62t134.5 -23.5q80 0 139 22.5t95 60.5t57.5 97.5t29 124t7.5 150.5q0 87 -7 150.5t-28 122.5t-57 95.5t-95 58t-141 21.5q-78 0 -134.5 -23.5t-90.5 -61.5t-54 -98t-27 -121.5t-7 -143.5z M250 1350l20 14q16 13 27 -6q49 -73 94.5 -101t112.5 -28q108 0 201 131q11 14 26 6l19 -12q3 -3 4.5 -6.5t0.5 -8t-2.5 -8t-5 -10.5t-4.5 -10q-41 -76 -104.5 -114t-136.5 -38q-77 0 -144.5 37.5t-103.5 110.5q-17 34 -4 43z" />
<glyph unicode="&#x150;" horiz-adv-x="1261" d="M129 698q0 65 4.5 123t17.5 128.5t35 128.5t60 114.5t88.5 95t124.5 62.5t164 24q91 0 165 -20t126 -53.5t90.5 -84.5t62 -106.5t37.5 -127t19 -138t5 -146.5q0 -82 -4 -148t-17 -142.5t-35 -135.5t-60.5 -115.5t-90.5 -93t-128 -59t-170 -22.5t-169 22.5t-126 58.5 t-88.5 93t-58.5 115t-33 135.5t-15.5 142.5t-3.5 149zM205 678q0 -111 10.5 -199t38.5 -171t74 -138t120.5 -88t174.5 -33q121 0 207 45.5t135 132t70.5 196.5t21.5 255q0 118 -11.5 210t-41.5 173t-78.5 133.5t-124.5 82.5t-178 30q-97 0 -170 -31.5t-120 -86t-76 -136 t-40.5 -172t-11.5 -203.5zM471 1483q-8 8 2 16l246 170q7 5 9.5 4t8.5 -8l39 -49q8 -11 -4 -17l-270 -143q-10 -3 -15 4zM717 1483q-8 8 2 16l246 170q7 5 9.5 4t8.5 -8l39 -49q8 -11 -4 -17l-270 -143q-10 -3 -15 4z" />
<glyph unicode="&#x151;" horiz-adv-x="976" d="M92 518q0 49 3 92t13.5 95.5t27 95t46.5 84.5t69.5 70t98.5 45.5t131 17.5q102 0 177.5 -29t118 -74t68 -114t33 -134t7.5 -149q0 -62 -2.5 -108.5t-12 -105t-26 -101.5t-46.5 -86.5t-72 -70.5t-104 -44.5t-141 -17.5q-76 0 -136.5 17t-100.5 43.5t-69 70t-45 85.5 t-24.5 101.5t-11 106t-2.5 110.5zM168 502q0 -84 7 -147t27 -123.5t54 -99t90.5 -62t134.5 -23.5q80 0 139 22.5t95 60.5t57.5 97.5t29 124t7.5 150.5q0 87 -7 150.5t-28 122.5t-57 95.5t-95 58t-141 21.5q-78 0 -134.5 -23.5t-90.5 -61.5t-54 -98t-27 -121.5t-7 -143.5z M370 1155q0 3 3 10l137 265q4 8 6.5 8.5t11.5 -2.5l58 -27q11 -4 4 -14l-172 -254q-6 -10 -15 -4l-24 12q-9 4 -9 6zM564 1155q0 3 3 10l138 265q4 8 6.5 8.5t11.5 -2.5l57 -27q11 -4 4 -14l-172 -254q-6 -9 -14 -4l-25 12q-9 4 -9 6z" />
<glyph unicode="&#x152;" horiz-adv-x="1591" d="M129 698q0 65 4.5 123t17.5 128.5t35 128.5t60 114.5t88.5 95t124.5 62.5t164 24q82 0 157 -16h705q10 0 10 -12v-46q0 -12 -10 -12h-641v-549h577q11 0 11 -10v-41q0 -14 -11 -14h-577v-606h653q12 0 12 -11v-47q0 -10 -12 -10h-715q-70 -18 -159 -18q-94 0 -169 22.5 t-126 58.5t-88.5 93t-58.5 115t-33 135.5t-15.5 142.5t-3.5 149zM205 678q0 -111 10.5 -199t38.5 -171t74 -138t120.5 -88t174.5 -33q77 0 145 19v1218q-75 21 -145 21q-97 0 -170 -31.5t-120 -86t-76 -136t-40.5 -172t-11.5 -203.5z" />
<glyph unicode="&#x153;" horiz-adv-x="1665" d="M92 518q0 49 3 92t13.5 95.5t27 95t46.5 84.5t69.5 70t98.5 45.5t131 17.5q286 0 367 -223h2q81 223 356 223q95 0 166.5 -25t115 -65.5t70 -100t36.5 -121t10 -135.5q0 -46 -14.5 -66t-51.5 -20h-649q1 -78 7 -135t25.5 -116.5t52 -97t90 -61.5t136.5 -24q75 0 326 23 q15 0 18 -11l2 -18q3 -13 -10 -16q-54 -22 -156.5 -33.5t-187.5 -11.5q-146 0 -228 57t-116 162h-4q-81 -219 -363 -219q-76 0 -136.5 17t-100.5 43.5t-69 70t-45 85.5t-24.5 101.5t-11 106t-2.5 110.5zM168 502q0 -84 7 -147t27 -123.5t54 -99t90.5 -62t134.5 -23.5 q80 0 139 22.5t95 60.5t57.5 97.5t29 124t7.5 150.5q0 87 -7 150.5t-28 122.5t-57 95.5t-95 58t-141 21.5q-78 0 -134.5 -23.5t-90.5 -61.5t-54 -98t-27 -121.5t-7 -143.5zM889 545h641q-2 51 -5.5 88.5t-12.5 83t-22.5 77t-38 64t-57 52t-80.5 32t-108 12.5q-78 0 -135 -21 t-90.5 -55t-53.5 -89.5t-27.5 -110.5t-10.5 -133z" />
<glyph unicode="&#x154;" horiz-adv-x="1017" d="M135 14v1332q0 5 4.5 8.5t10.5 3.5h391q84 0 153 -21t122.5 -64t83.5 -115.5t30 -168.5q0 -133 -67 -234.5t-204 -133.5l285 -605q2 -6 2.5 -9.5t-1.5 -5t-7 -1.5h-57q-8 0 -11.5 0.5t-7.5 4t-8 11.5l-268 592h-375v-594q0 -14 -12 -14h-49q-15 0 -15 14zM211 674h334 q21 0 41 1.5t52.5 8.5t59.5 19t56.5 35.5t50 55.5t34 81t13.5 110q0 303 -336 303h-305v-614zM442 1483q-8 8 2 16l246 170q7 5 10 4t9 -8l39 -49q7 -11 -5 -17l-270 -143q-9 -3 -14 4z" />
<glyph unicode="&#x155;" horiz-adv-x="544" d="M170 12v975q0 12 10 12h47q13 0 13 -12v-121q168 119 274 148q10 3 13 -1t5 -14l11 -41q5 -21 -13 -26q-61 -18 -157 -57t-133 -60v-803q0 -12 -13 -12h-47q-10 0 -10 12zM305 1165l137 265q7 12 19 6l57 -27q11 -4 4 -14l-172 -254q-5 -10 -14 -4l-25 12q-10 5 -6 16z " />
<glyph unicode="&#x156;" horiz-adv-x="1017" d="M135 14v1332q0 5 4.5 8.5t10.5 3.5h391q84 0 153 -21t122.5 -64t83.5 -115.5t30 -168.5q0 -133 -67 -234.5t-204 -133.5l285 -605q2 -6 2.5 -9.5t-1.5 -5t-7 -1.5h-57q-8 0 -11.5 0.5t-7.5 4t-8 11.5l-268 592h-375v-594q0 -14 -12 -14h-49q-15 0 -15 14zM211 674h334 q21 0 41 1.5t52.5 8.5t59.5 19t56.5 35.5t50 55.5t34 81t13.5 110q0 303 -336 303h-305v-614zM434 -387q-8 8 2 14q53 53 53 127q0 59 -40 115q-12 12 2 20l69 45q11 7 23 -2q37 -40 37 -88q0 -76 -32 -140.5t-83 -102.5q-8 -8 -14 -2z" />
<glyph unicode="&#x157;" horiz-adv-x="544" d="M135 -428q-8 8 2 14q53 53 53 127q0 59 -40 115q-12 12 2 20l69 46q10 7 23 -3q37 -40 37 -88q0 -76 -32 -140.5t-83 -102.5q-8 -8 -14 -2zM170 12v975q0 12 10 12h47q13 0 13 -12v-121q168 119 274 148q10 3 13 -1t5 -14l11 -41q5 -21 -13 -26q-61 -18 -157 -57 t-133 -60v-803q0 -12 -13 -12h-47q-10 0 -10 12z" />
<glyph unicode="&#x158;" horiz-adv-x="1017" d="M135 14v1332q0 5 4.5 8.5t10.5 3.5h391q84 0 153 -21t122.5 -64t83.5 -115.5t30 -168.5q0 -133 -67 -234.5t-204 -133.5l285 -605q2 -6 2.5 -9.5t-1.5 -5t-7 -1.5h-57q-8 0 -11.5 0.5t-7.5 4t-8 11.5l-268 592h-375v-594q0 -14 -12 -14h-49q-15 0 -15 14zM197 1636 q-7 8 0 15l22 20q7 5 17 -2l227 -147l225 147q10 7 17 2l22 -20q7 -7 0 -15l-192 -168q-14 -14 -29 -14h-88q-14 0 -31 14zM211 674h334q21 0 41 1.5t52.5 8.5t59.5 19t56.5 35.5t50 55.5t34 81t13.5 110q0 303 -336 303h-305v-614z" />
<glyph unicode="&#x159;" horiz-adv-x="544" d="M-2.5 1377.5q-0.5 2.5 0 3t4.5 3.5l23 21q7 4 16 -2l225 -207l228 207q9 6 16 2l22 -21q7 -5 5 -8q-1 -2 -5 -6l-202 -227q-12 -15 -31 -15h-63q-17 0 -29 15l-205 227q-4 5 -4.5 7.5zM170 12v975q0 12 10 12h47q13 0 13 -12v-121q168 119 274 148q10 3 13 -1t5 -14 l11 -41q5 -21 -13 -26q-61 -18 -157 -57t-133 -60v-803q0 -12 -13 -12h-47q-10 0 -10 12z" />
<glyph unicode="&#x15a;" horiz-adv-x="1024" d="M98 53l4 23q3 13 19 10q227 -29 373 -29q167 0 264.5 73t97.5 202q0 84 -21.5 142.5t-67 95.5t-102.5 57.5t-143 34.5t-143.5 29t-114.5 40.5t-90 60.5t-53.5 88.5t-20.5 125.5q0 175 111.5 269.5t304.5 94.5q237 0 352 -43q15 -4 11 -18l-2 -23q-3 -12 -19 -10 q-45 7 -153.5 14.5t-182.5 7.5q-170 0 -256 -75.5t-86 -210.5q0 -59 19 -103.5t47 -72t76.5 -48t90 -30.5t105.5 -21q55 -10 94.5 -19t86 -24.5t78 -34t64 -46.5t51 -63t30.5 -84t12 -108q0 -102 -34.5 -176.5t-97 -117t-140 -62.5t-173.5 -20q-73 0 -201 15.5t-179 35.5 q-14 7 -11 20zM422 1483q-8 8 2 16l246 170q7 5 9.5 4t8.5 -8l39 -49q7 -11 -4 -17l-270 -143q-10 -3 -15 4z" />
<glyph unicode="&#x15b;" horiz-adv-x="827" d="M84 39l4 20q0 11 16 11q213 -23 293 -23q273 0 273 203q0 61 -13 101t-46 65.5t-76.5 39.5t-116.5 27q-59 10 -96 17.5t-79.5 21t-67.5 31t-47.5 43.5t-32 62.5t-9.5 84.5q0 275 328 275q64 0 147.5 -10.5t138.5 -30.5q11 -4 11 -16l-4 -21q0 -10 -15 -10 q-203 22 -280 22q-130 0 -191 -48t-61 -154q0 -33 6 -58.5t15 -43.5t29 -32.5t36.5 -23.5t48.5 -17t55.5 -12.5t67.5 -11.5q68 -11 110 -21.5t87.5 -31t70.5 -48.5t41 -74t16 -108q0 -151 -89.5 -216.5t-258.5 -65.5q-199 0 -301 37q-10 3 -10 16zM365 1165l137 265 q7 12 18 6l58 -27q11 -4 4 -14l-172 -254q-5 -11 -15 -4l-24 12q-10 5 -6 16z" />
<glyph unicode="&#x15c;" horiz-adv-x="1024" d="M98 53l4 23q3 13 19 10q227 -29 373 -29q167 0 264.5 73t97.5 202q0 84 -21.5 142.5t-67 95.5t-102.5 57.5t-143 34.5t-143.5 29t-114.5 40.5t-90 60.5t-53.5 88.5t-20.5 125.5q0 175 111.5 269.5t304.5 94.5q237 0 352 -43q15 -4 11 -18l-2 -23q-3 -12 -19 -10 q-45 7 -153.5 14.5t-182.5 7.5q-170 0 -256 -75.5t-86 -210.5q0 -59 19 -103.5t47 -72t76.5 -48t90 -30.5t105.5 -21q55 -10 94.5 -19t86 -24.5t78 -34t64 -46.5t51 -63t30.5 -84t12 -108q0 -102 -34.5 -176.5t-97 -117t-140 -62.5t-173.5 -20q-73 0 -201 15.5t-179 35.5 q-14 7 -11 20zM238 1477q-7 7 0 14l192 168q14 14 29 14h88q14 0 31 -14l190 -168q7 -7 0 -14l-23 -21q-7 -4 -16 2l-227 148l-226 -148q-10 -6 -16 -2z" />
<glyph unicode="&#x15d;" horiz-adv-x="827" d="M84 39l4 20q0 11 16 11q213 -23 293 -23q273 0 273 203q0 61 -13 101t-46 65.5t-76.5 39.5t-116.5 27q-59 10 -96 17.5t-79.5 21t-67.5 31t-47.5 43.5t-32 62.5t-9.5 84.5q0 275 328 275q64 0 147.5 -10.5t138.5 -30.5q11 -4 11 -16l-4 -21q0 -10 -15 -10 q-203 22 -280 22q-130 0 -191 -48t-61 -154q0 -33 6 -58.5t15 -43.5t29 -32.5t36.5 -23.5t48.5 -17t55.5 -12.5t67.5 -11.5q68 -11 110 -21.5t87.5 -31t70.5 -48.5t41 -74t16 -108q0 -151 -89.5 -216.5t-258.5 -65.5q-199 0 -301 37q-10 3 -10 16zM134 1155.5 q-1 1.5 0.5 3.5l4.5 6l203 228q11 14 29 14h73q20 0 31 -14l195 -228q6 -8 6 -9t-6 -5l-23 -21q-6 -4 -16 3l-225 206l-228 -206q-10 -7 -16 -3l-23 21q-3 2 -3.5 2.5t-1.5 2z" />
<glyph unicode="&#x15e;" horiz-adv-x="1024" d="M98 53l4 23q3 13 19 10q227 -29 373 -29q167 0 264.5 73t97.5 202q0 84 -21.5 142.5t-67 95.5t-102.5 57.5t-143 34.5t-143.5 29t-114.5 40.5t-90 60.5t-53.5 88.5t-20.5 125.5q0 175 111.5 269.5t304.5 94.5q237 0 352 -43q15 -4 11 -18l-2 -23q-3 -12 -19 -10 q-45 7 -153.5 14.5t-182.5 7.5q-170 0 -256 -75.5t-86 -210.5q0 -59 19 -103.5t47 -72t76.5 -48t90 -30.5t105.5 -21q55 -10 94.5 -19t86 -24.5t78 -34t64 -46.5t51 -63t30.5 -84t12 -108q0 -98 -32 -171t-91 -116t-132 -64.5t-163 -24.5l-33 -91q90 -6 127 -39.5t37 -91.5 q0 -71 -52.5 -108t-135.5 -37q-58 0 -129 23q-17 7 -13 18l7 18q4 12 18 9q73 -13 117 -13q49 0 80.5 23t31.5 63q0 45 -28 67t-107 25q-9 0 -13.5 7.5t-0.5 17.5l43 109q-86 4 -198 18.5t-158 32.5q-14 7 -11 20z" />
<glyph unicode="&#x15f;" horiz-adv-x="827" d="M84 39l4 20q0 11 16 11q213 -23 293 -23q273 0 273 203q0 61 -13 101t-46 65.5t-76.5 39.5t-116.5 27q-59 10 -96 17.5t-79.5 21t-67.5 31t-47.5 43.5t-32 62.5t-9.5 84.5q0 275 328 275q64 0 147.5 -10.5t138.5 -30.5q11 -4 11 -16l-4 -21q0 -10 -15 -10 q-203 22 -280 22q-130 0 -191 -48t-61 -154q0 -33 6 -58.5t15 -43.5t29 -32.5t36.5 -23.5t48.5 -17t55.5 -12.5t67.5 -11.5q68 -11 110 -21.5t87.5 -31t70.5 -48.5t41 -74t16 -108q0 -144 -81.5 -209.5t-235.5 -70.5l-35 -97q90 -6 127 -39.5t37 -91.5q0 -71 -52.5 -108 t-135.5 -37q-58 0 -129 23q-17 7 -13 18l6 18q4 12 19 9q73 -13 117 -13q49 0 80.5 23t31.5 63q0 45 -28 67t-107 25q-9 0 -13.5 7.5t-0.5 17.5l43 113q-194 5 -279 37q-10 3 -10 16z" />
<glyph unicode="&#x160;" horiz-adv-x="1024" d="M98 53l4 23q3 13 19 10q227 -29 373 -29q167 0 264.5 73t97.5 202q0 84 -21.5 142.5t-67 95.5t-102.5 57.5t-143 34.5t-143.5 29t-114.5 40.5t-90 60.5t-53.5 88.5t-20.5 125.5q0 175 111.5 269.5t304.5 94.5q237 0 352 -43q15 -4 11 -18l-2 -23q-3 -12 -19 -10 q-45 7 -153.5 14.5t-182.5 7.5q-170 0 -256 -75.5t-86 -210.5q0 -59 19 -103.5t47 -72t76.5 -48t90 -30.5t105.5 -21q55 -10 94.5 -19t86 -24.5t78 -34t64 -46.5t51 -63t30.5 -84t12 -108q0 -102 -34.5 -176.5t-97 -117t-140 -62.5t-173.5 -20q-73 0 -201 15.5t-179 35.5 q-14 7 -11 20zM238 1636q-8 8 0 15l22 20q6 4 16 -2l228 -147l225 147q9 6 16 2l23 -20q8 -7 0 -15l-193 -168q-14 -14 -28 -14h-88q-14 0 -31 14z" />
<glyph unicode="&#x161;" horiz-adv-x="827" d="M84 39l4 20q0 11 16 11q213 -23 293 -23q273 0 273 203q0 61 -13 101t-46 65.5t-76.5 39.5t-116.5 27q-59 10 -96 17.5t-79.5 21t-67.5 31t-47.5 43.5t-32 62.5t-9.5 84.5q0 275 328 275q64 0 147.5 -10.5t138.5 -30.5q11 -4 11 -16l-4 -21q0 -10 -15 -10 q-203 22 -280 22q-130 0 -191 -48t-61 -154q0 -33 6 -58.5t15 -43.5t29 -32.5t36.5 -23.5t48.5 -17t55.5 -12.5t67.5 -11.5q68 -11 110 -21.5t87.5 -31t70.5 -48.5t41 -74t16 -108q0 -151 -89.5 -216.5t-258.5 -65.5q-199 0 -301 37q-10 3 -10 16zM159.5 1377.5 q-0.5 2.5 0 3t4.5 3.5l22 21q7 5 17 -2l225 -207l227 207q10 7 17 2l22 -21q7 -5 5 -8q-1 -2 -5 -6l-202 -227q-12 -15 -31 -15h-64q-16 0 -28 15l-205 227q-4 5 -4.5 7.5z" />
<glyph unicode="&#x162;" horiz-adv-x="931" d="M35 1300v46q0 12 12 12h844q10 0 10 -12v-46q0 -10 -10 -10h-385l-2 -1278q0 -12 -10 -12h-7l-38 -109q90 -6 126.5 -39t36.5 -92q0 -71 -52.5 -108t-135.5 -37q-58 0 -129 23q-17 7 -12 18l6 18q4 12 18 9q73 -13 117 -13q49 0 81 23t32 63q0 45 -28.5 67t-107.5 25 q-9 0 -13.5 7.5t-0.5 17.5l49 127q-6 3 -6 12v1278h-383q-12 0 -12 10z" />
<glyph unicode="&#x163;" horiz-adv-x="587" d="M70 952v35q0 12 14 12h127v234q0 12 10 16l37 15q19 5 21 3t2 -18v-250h223q7 0 8.5 -1.5t1.5 -8.5v-37q0 -10 -10 -10h-223v-747q0 -40 3.5 -62.5t15.5 -44.5t38.5 -31.5t69.5 -9.5q77 0 143 8q13 2 16 -10l4 -18q2 -13 -10 -19q-81 -24 -186 -24q-53 0 -78 10l-31 -88 q90 -6 127 -39.5t37 -91.5q0 -71 -52.5 -108.5t-135.5 -37.5q-58 0 -129 23q-17 7 -13 18l6 19q4 11 19 8q68 -12 117 -12t80.5 23t31.5 63q0 45 -28 67t-107 25q-9 0 -13.5 7t-0.5 17l51 129q-45 42 -45 156v770h-129q-12 0 -12 10z" />
<glyph unicode="&#x164;" horiz-adv-x="931" d="M35 1300v46q0 12 12 12h844q10 0 10 -12v-46q0 -10 -10 -10h-385l-2 -1278q0 -12 -10 -12h-50q-14 0 -14 12v1278h-383q-12 0 -12 10zM205 1636q-7 8 0 15l22 20q7 5 17 -2l227 -147l225 147q10 7 17 2l22 -20q7 -7 0 -15l-192 -168q-14 -14 -29 -14h-88q-14 0 -31 14z " />
<glyph unicode="&#x165;" horiz-adv-x="606" d="M70 952v35q0 12 14 12h127v234q0 12 10 16l37 15q19 5 21 3t2 -18v-250h223q7 0 8.5 -1.5t1.5 -8.5v-37q0 -10 -10 -10h-223v-747q0 -40 3.5 -62.5t15.5 -44.5t38.5 -31.5t69.5 -9.5q77 0 143 8q13 2 16 -10l4 -18q2 -13 -10 -19q-81 -24 -186 -24q-93 0 -128.5 43 t-35.5 145v770h-129q-12 0 -12 10zM467 1128q-8 8 2 15q53 53 53 127q0 57 -41 114q-12 12 2 21l70 45q11 7 22 -2q37 -40 37 -88q0 -76 -31.5 -141t-82.5 -103q-8 -8 -15 -2z" />
<glyph unicode="&#x166;" horiz-adv-x="931" d="M35 1300v46q0 12 12 12h844q10 0 10 -12v-46q0 -10 -10 -10h-385l-2 -491h284q11 0 11 -13v-41q0 -8 -11 -8h-284v-725q0 -12 -10 -12h-50q-14 0 -14 12v725h-280q-11 0 -11 11v38q0 13 11 13h280v491h-383q-12 0 -12 10z" />
<glyph unicode="&#x167;" horiz-adv-x="587" d="M63 600v39q0 12 11 12h137v291h-129q-12 0 -12 10v35q0 12 14 12h127v234q0 12 10 16l37 15q19 5 21 3t2 -18v-250h223q7 0 8.5 -1.5t1.5 -8.5v-37q0 -10 -10 -10h-223v-291h223q10 0 10 -12v-41q0 -8 -10 -8h-223v-395q0 -40 3.5 -62.5t15.5 -44.5t38.5 -31.5t69.5 -9.5 q77 0 143 8q13 2 16 -10l4 -18q2 -13 -10 -19q-81 -24 -186 -24q-93 0 -128.5 43t-35.5 145v418h-137q-7 0 -9 2t-2 8z" />
<glyph unicode="&#x168;" horiz-adv-x="1210" d="M139 475v866q0 17 15 17h51q10 0 10 -17v-872q0 -201 95 -310.5t292 -109.5q192 0 292.5 105.5t100.5 314.5v872q0 17 15 17h49q10 0 10 -17v-866q0 -150 -35 -239q-103 -254 -432 -254q-338 0 -428 251q-35 93 -35 242zM305 1518q67 112 162 112q49 0 151 -55t136 -55 q33 0 56.5 21t47.5 61q7 11 10.5 12.5t16.5 -2.5l20 -10q14 -8 4 -27q-59 -117 -157 -117q-36 0 -78 17t-74.5 37.5t-70 37.5t-64.5 17q-54 0 -107 -78q-10 -15 -16.5 -18t-15.5 2l-17 8q-21 11 -4 37z" />
<glyph unicode="&#x169;" d="M117 336v18v633q0 12 12 12h49q10 0 10 -12v-641q0 -43 1 -70.5t5.5 -63t13.5 -57t24.5 -45t38.5 -36t57 -21t78 -8.5q135 0 395 137v805q0 12 14 12h45q12 0 12 -12v-977q0 -10 -12 -10h-47q-14 0 -14 10v115q-227 -141 -408 -141q-58 0 -102 10.5t-72.5 24.5 t-48.5 44.5t-30 53t-15 67.5t-5.5 71.5t-0.5 80.5zM195 1229q35 59 73.5 85.5t87.5 26.5q39 0 95.5 -27.5t109.5 -55t82 -27.5q34 0 57.5 21t47.5 61q7 11 10 12.5t16 -2.5l21 -10q14 -8 4 -27q-59 -117 -158 -117q-45 0 -99.5 27.5t-104.5 54.5t-83 27q-53 0 -106 -78 q-10 -15 -17 -18t-16 2l-16 8q-21 11 -4 37z" />
<glyph unicode="&#x16a;" horiz-adv-x="1210" d="M139 475v866q0 17 15 17h51q10 0 10 -17v-872q0 -201 95 -310.5t292 -109.5q192 0 292.5 105.5t100.5 314.5v872q0 17 15 17h49q10 0 10 -17v-866q0 -150 -35 -239q-103 -254 -432 -254q-338 0 -428 251q-35 93 -35 242zM369 1518v45q0 12 10 12h461q10 0 10 -12v-47 q0 -9 -10 -9h-461q-7 0 -8.5 2t-1.5 9z" />
<glyph unicode="&#x16b;" d="M117 336v18v633q0 12 12 12h49q10 0 10 -12v-641q0 -43 1 -70.5t5.5 -63t13.5 -57t24.5 -45t38.5 -36t57 -21t78 -8.5q135 0 395 137v805q0 12 14 12h45q12 0 12 -12v-977q0 -10 -12 -10h-47q-14 0 -14 10v115q-227 -141 -408 -141q-58 0 -102 10.5t-72.5 24.5 t-48.5 44.5t-30 53t-15 67.5t-5.5 71.5t-0.5 80.5zM254 1229v45q0 12 10 12h461q10 0 10 -12v-47q0 -8 -10 -8h-461q-7 0 -8.5 1.5t-1.5 8.5z" />
<glyph unicode="&#x16c;" horiz-adv-x="1210" d="M139 475v866q0 17 15 17h51q10 0 10 -17v-872q0 -201 95 -310.5t292 -109.5q192 0 292.5 105.5t100.5 314.5v872q0 17 15 17h49q10 0 10 -17v-866q0 -150 -35 -239q-103 -254 -432 -254q-338 0 -428 251q-35 93 -35 242zM375 1657l20 14q16 13 27 -6q49 -73 94.5 -101 t112.5 -28q107 0 200 131q11 14 27 6l18 -12q3 -2 4 -5.5t1.5 -6t-1 -7t-2.5 -7t-4 -8.5t-4 -9q-41 -76 -104.5 -114t-136.5 -38q-77 0 -144.5 37.5t-103.5 110.5q-17 34 -4 43z" />
<glyph unicode="&#x16d;" d="M117 336v18v633q0 12 12 12h49q10 0 10 -12v-641q0 -43 1 -70.5t5.5 -63t13.5 -57t24.5 -45t38.5 -36t57 -21t78 -8.5q135 0 395 137v805q0 12 14 12h45q12 0 12 -12v-977q0 -10 -12 -10h-47q-14 0 -14 10v115q-227 -141 -408 -141q-58 0 -102 10.5t-72.5 24.5 t-48.5 44.5t-30 53t-15 67.5t-5.5 71.5t-0.5 80.5zM254 1350l20 14q16 13 27 -6q49 -73 94.5 -101t112.5 -28q108 0 201 131q11 14 26 6l19 -12q3 -2 4 -5.5t1.5 -6t-1 -7t-2.5 -7t-4 -8.5t-4 -9q-41 -76 -105 -114t-137 -38q-77 0 -144.5 37.5t-103.5 110.5q-17 34 -4 43z " />
<glyph unicode="&#x16e;" horiz-adv-x="1210" d="M139 475v866q0 17 15 17h51q10 0 10 -17v-872q0 -201 95 -310.5t292 -109.5q192 0 292.5 105.5t100.5 314.5v872q0 17 15 17h49q10 0 10 -17v-866q0 -150 -35 -239q-103 -254 -432 -254q-338 0 -428 251q-35 93 -35 242zM434 1608q0 78 56 130t131 52q78 0 131 -54 t53 -128q0 -75 -53 -130t-131 -55q-76 0 -131.5 52.5t-55.5 132.5zM496 1608q0 -58 34.5 -94.5t90.5 -36.5q55 0 91 37t36 94q0 54 -36.5 92.5t-90.5 38.5q-52 0 -88.5 -39t-36.5 -92z" />
<glyph unicode="&#x16f;" d="M117 336v18v633q0 12 12 12h49q10 0 10 -12v-641q0 -43 1 -70.5t5.5 -63t13.5 -57t24.5 -45t38.5 -36t57 -21t78 -8.5q135 0 395 137v805q0 12 14 12h45q12 0 12 -12v-977q0 -10 -12 -10h-47q-14 0 -14 10v115q-227 -141 -408 -141q-58 0 -102 10.5t-72.5 24.5 t-48.5 44.5t-30 53t-15 67.5t-5.5 71.5t-0.5 80.5zM336 1276q0 78 55.5 130t130.5 52q78 0 131.5 -54.5t53.5 -127.5q0 -75 -53.5 -129.5t-131.5 -54.5q-76 0 -131 52t-55 132zM397 1276q0 -58 34.5 -94.5t90.5 -36.5q55 0 91 37t36 94q0 54 -36.5 92.5t-90.5 38.5 q-52 0 -88.5 -39t-36.5 -92z" />
<glyph unicode="&#x170;" horiz-adv-x="1210" d="M139 475v866q0 17 15 17h51q10 0 10 -17v-872q0 -201 95 -310.5t292 -109.5q192 0 292.5 105.5t100.5 314.5v872q0 17 15 17h49q10 0 10 -17v-866q0 -150 -35 -239q-103 -254 -432 -254q-338 0 -428 251q-35 93 -35 242zM428 1483q-8 8 2 16l246 170q8 5 10 4t8 -8 l39 -49q7 -11 -4 -17l-270 -143q-10 -3 -15 4zM674 1483q-8 8 2 16l246 170q7 5 9.5 4t8.5 -8l39 -49q7 -11 -4 -17l-270 -143q-10 -3 -15 4z" />
<glyph unicode="&#x171;" d="M117 336v18v633q0 12 12 12h49q10 0 10 -12v-641q0 -43 1 -70.5t5.5 -63t13.5 -57t24.5 -45t38.5 -36t57 -21t78 -8.5q135 0 395 137v805q0 12 14 12h45q12 0 12 -12v-977q0 -10 -12 -10h-47q-14 0 -14 10v115q-227 -141 -408 -141q-58 0 -102 10.5t-72.5 24.5 t-48.5 44.5t-30 53t-15 67.5t-5.5 71.5t-0.5 80.5zM370 1155q0 3 3 10l137 265q4 8 6.5 8.5t11.5 -2.5l58 -27q11 -4 4 -14l-172 -254q-6 -10 -15 -4l-24 12q-9 4 -9 6zM564 1155q0 3 3 10l138 265q4 8 6.5 8.5t11.5 -2.5l57 -27q11 -4 4 -14l-172 -254q-6 -9 -14 -4l-25 12 q-9 4 -9 6z" />
<glyph unicode="&#x172;" horiz-adv-x="1210" d="M139 475v866q0 17 15 17h51q10 0 10 -17v-872q0 -201 95 -310.5t292 -109.5q192 0 292.5 105.5t100.5 314.5v872q0 17 15 17h49q10 0 10 -17v-866q0 -150 -35 -239q-97 -239 -397 -252q-89 -106 -86 -197q2 -63 54 -85t175 3q13 2 17 -6l10 -29q5 -11 -12 -18 q-58 -25 -133 -25q-88 0 -132.5 41.5t-44.5 106.5q0 51 23 107t63 100q-313 13 -397 251q-35 93 -35 242z" />
<glyph unicode="&#x173;" d="M117 336v18v633q0 12 12 12h49q10 0 10 -12v-641q0 -43 1 -70.5t5.5 -63t13.5 -57t24.5 -45t38.5 -36t57 -21t78 -8.5q135 0 395 137v805q0 12 14 12h45q12 0 12 -12v-977q0 -10 -12 -10h-8q-105 -116 -102 -213q2 -63 54 -85t175 3q12 2 16 -6l11 -29q4 -11 -13 -18 q-58 -25 -133 -25q-88 0 -132 41t-44 107q0 61 31 124.5t84 108.5v2v115q-227 -141 -408 -141q-58 0 -102 10.5t-72.5 24.5t-48.5 44.5t-30 53t-15 67.5t-5.5 71.5t-0.5 80.5z" />
<glyph unicode="&#x174;" horiz-adv-x="1615" d="M53 1346q-1 7 1 8.5t12 1.5h49q12 0 14 -10l348 -1252h6l287 1016l-68 236q-1 7 1 8.5t12 1.5h49q12 0 14 -10l348 -1252h7l352 1252q4 10 16 10h53q9 0 10.5 -1t-1.5 -9l-383 -1332q-3 -14 -17 -14h-63q-12 0 -15 6q-1 2 -2 6l-276 963l-277 -961q-3 -14 -16 -14h-63 q-12 0 -15 6q-1 2 -2 6zM522 1477q-7 7 0 14l193 168q14 14 28 14h88q14 0 31 -14l191 -168q7 -7 0 -14l-23 -21q-7 -4 -16 2l-228 148l-225 -148q-9 -6 -16 -2z" />
<glyph unicode="&#x175;" horiz-adv-x="1355" d="M45 987q-3 10 8 10h49q16 0 21 -14l285 -903h4l231 754l-49 153q-3 10 8 10h49q16 0 21 -14l284 -903h5l278 905q3 14 21 14h43q10 0 11 -3.5t-1 -10.5l-312 -973q-3 -12 -16 -12h-57q-18 0 -21 14l-227 709l-227 -711q-3 -12 -17 -12h-57q-17 0 -21 14zM390 1155.5 q-1 1.5 0.5 3.5l4.5 6l203 228q11 14 29 14h73q20 0 31 -14l195 -228q6 -8 6 -9t-6 -5l-23 -21q-6 -4 -16 3l-225 206l-228 -206q-10 -7 -16 -3l-23 21q-3 2 -3.5 2.5t-1.5 2z" />
<glyph unicode="&#x176;" d="M49 1346q-3 6 0 8t12 2h54q10 0 14 -10l363 -682l362 682q6 10 16 10h54q9 0 11 -2t-1 -8l-408 -746v-586q0 -14 -10 -14h-49q-14 0 -14 14l-2 586zM227 1477q-7 7 0 14l193 168q14 14 29 14h88q4 0 7 -0.5t5 -1t4.5 -2t3.5 -2.5t4.5 -4t5.5 -4l191 -168q7 -7 0 -14 l-23 -21q-7 -4 -16 2l-227 148l-226 -148q-9 -6 -16 -2z" />
<glyph unicode="&#x177;" horiz-adv-x="901" d="M53 987q-3 10 8 10h50q15 0 20 -14l307 -903h4l330 905q4 14 21 14h43q10 0 11 -3.5t-1 -10.5l-486 -1335q-3 -10 -16 -10h-41q-11 0 -12 1.5t0 10.5l112 325zM192 1155.5q-1 1.5 0.5 3.5l4.5 6l202 228q11 14 29 14h74q19 0 30 -14l195 -228q6 -8 6 -9t-6 -5l-22 -21 q-6 -4 -17 3l-225 206l-227 -206q-11 -7 -17 -3l-22 21q-3 2 -3.5 2.5t-1.5 2z" />
<glyph unicode="&#x178;" d="M49 1346q-3 6 0 8t12 2h54q10 0 14 -10l363 -682l362 682q6 10 16 10h54q9 0 11 -2t-1 -8l-408 -746v-586q0 -14 -10 -14h-49q-14 0 -14 14l-2 586zM276 1542q0 51 50 51q29 0 38 -12.5t9 -38.5q0 -25 -9.5 -38t-37.5 -13q-29 0 -39.5 13.5t-10.5 37.5zM606 1542 q0 51 49 51q29 0 38 -12.5t9 -38.5q0 -25 -9.5 -38t-37.5 -13q-29 0 -39 13.5t-10 37.5z" />
<glyph unicode="&#x179;" horiz-adv-x="950" d="M70 12v35q0 14 10 37l715 1204h-674q-15 0 -15 12v46q0 12 15 12h743q10 0 10 -10v-43q0 -19 -8 -35l-708 -1202h712q11 0 11 -13v-41q0 -14 -11 -14h-788q-12 0 -12 12zM406 1483q-8 8 2 16l245 170q7 5 10 4t9 -8l39 -49q7 -11 -4 -17l-271 -143q-9 -3 -14 4z" />
<glyph unicode="&#x17a;" horiz-adv-x="833" d="M66 14v37q0 18 10 31l618 858h-581q-15 0 -15 10v35q0 14 15 14h635q10 0 12 -1.5t2 -10.5v-37q0 -17 -10 -30l-613 -861h611q12 0 12 -10v-35q0 -14 -12 -14h-670q-9 0 -11.5 2.5t-2.5 11.5zM387 1165l137 265q7 12 19 6l57 -27q11 -4 4 -14l-172 -254q-5 -10 -14 -4 l-25 12q-10 5 -6 16z" />
<glyph unicode="&#x17b;" horiz-adv-x="950" d="M70 12v35q0 14 10 37l715 1204h-674q-15 0 -15 12v46q0 12 15 12h743q10 0 10 -10v-43q0 -19 -8 -35l-708 -1202h712q11 0 11 -13v-41q0 -14 -11 -14h-788q-12 0 -12 12zM446 1546q0 24 10.5 36.5t37.5 12.5q29 0 39 -12.5t10 -36.5q0 -53 -49 -53q-29 0 -38.5 13.5 t-9.5 39.5z" />
<glyph unicode="&#x17c;" horiz-adv-x="833" d="M66 14v37q0 18 10 31l618 858h-581q-15 0 -15 10v35q0 14 15 14h635q10 0 12 -1.5t2 -10.5v-37q0 -17 -10 -30l-613 -861h611q12 0 12 -10v-35q0 -14 -12 -14h-670q-9 0 -11.5 2.5t-2.5 11.5zM414 1260q0 24 10 36.5t37 12.5q29 0 39 -12.5t10 -36.5q0 -54 -49 -54 q-29 0 -38 14t-9 40z" />
<glyph unicode="&#x17d;" horiz-adv-x="950" d="M70 12v35q0 14 10 37l715 1204h-674q-15 0 -15 12v46q0 12 15 12h743q10 0 10 -10v-43q0 -19 -8 -35l-708 -1202h712q11 0 11 -13v-41q0 -14 -11 -14h-788q-12 0 -12 12zM238 1636q-8 8 0 15l22 20q6 4 16 -2l228 -147l225 147q9 6 16 2l23 -20q8 -7 0 -15l-193 -168 q-14 -14 -28 -14h-88q-14 0 -31 14z" />
<glyph unicode="&#x17e;" horiz-adv-x="833" d="M66 14v37q0 18 10 31l618 858h-581q-15 0 -15 10v35q0 14 15 14h635q10 0 12 -1.5t2 -10.5v-37q0 -17 -10 -30l-613 -861h611q12 0 12 -10v-35q0 -14 -12 -14h-670q-9 0 -11.5 2.5t-2.5 11.5zM171.5 1377.5q-0.5 2.5 0 3t4.5 3.5l23 21q7 4 16 -2l225 -207l228 207 q10 6 16 2l23 -21q7 -5 5 -8q-1 -2 -5 -6l-203 -227q-12 -15 -31 -15h-63q-17 0 -29 15l-205 227q-4 5 -4.5 7.5z" />
<glyph unicode="&#x192;" horiz-adv-x="1085" d="M88 -57l8 20q5 12 19 10q80 -14 127 -14q82 0 125.5 56t62.5 155l105 549h-211q-15 0 -15 10v33q0 12 17 12h219l59 313q55 285 246 285q79 0 160 -31q15 -5 10 -18l-6 -18q-7 -13 -19 -11q-100 17 -131 17q-81 0 -123.5 -59.5t-62.5 -161.5l-62 -316h215q15 0 15 -10 v-35q0 -10 -15 -10h-225l-102 -539q-55 -284 -252 -284q-78 0 -156 30q-13 4 -8 17z" />
<glyph unicode="&#x1a0;" horiz-adv-x="1261" d="M129 698q0 65 4.5 123t17.5 128.5t35 128.5t60 114.5t88.5 95t124.5 62.5t164 24q243 0 368 -141h35q81 0 118.5 39.5t37.5 134.5v123q0 12 3 16t15 4h33q10 0 13 -4t3 -16v-127q0 -233 -211 -236q90 -159 90 -469q0 -82 -4 -148t-17 -142.5t-35 -135.5t-60.5 -115.5 t-90.5 -93t-128 -59t-170 -22.5t-169 22.5t-126 58.5t-88.5 93t-58.5 115t-33 135.5t-15.5 142.5t-3.5 149zM205 678q0 -111 10.5 -199t38.5 -171t74 -138t120.5 -88t174.5 -33q121 0 207 45.5t135 132t70.5 196.5t21.5 255q0 118 -11.5 210t-41.5 173t-78.5 133.5 t-124.5 82.5t-178 30q-97 0 -170 -31.5t-120 -86t-76 -136t-40.5 -172t-11.5 -203.5z" />
<glyph unicode="&#x1a1;" horiz-adv-x="1052" d="M92 518q0 49 3 92t13.5 95.5t27 95t46.5 84.5t69.5 70t98.5 45.5t131 17.5q226 0 320 -135h33q81 0 118 39t37 135v123q0 12 3.5 16t15.5 4h32q10 0 13.5 -4t3.5 -16v-127q0 -115 -51.5 -175.5t-165.5 -60.5h-2q47 -106 47 -299q0 -62 -2.5 -108.5t-12 -105t-26 -101.5 t-46.5 -86.5t-72 -70.5t-104 -44.5t-141 -17.5q-76 0 -136.5 17t-100.5 43.5t-69 70t-45 85.5t-24.5 101.5t-11 106t-2.5 110.5zM168 502q0 -84 7 -147t27 -123.5t54 -99t90.5 -62t134.5 -23.5q80 0 139 22.5t95 60.5t57.5 97.5t29 124t7.5 150.5q0 87 -7 150.5t-28 122.5 t-57 95.5t-95 58t-141 21.5q-78 0 -134.5 -23.5t-90.5 -61.5t-54 -98t-27 -121.5t-7 -143.5z" />
<glyph unicode="&#x1af;" horiz-adv-x="1306" d="M147 475v866q0 17 15 17h51q10 0 10 -17v-872q0 -201 95 -310.5t292 -109.5q192 0 293 105.5t101 314.5v872q0 17 14 17h49q10 0 10 -17v-108h45q81 0 118.5 39.5t37.5 134.5v123q0 12 3 16t15 4h33q10 0 13.5 -4t3.5 -16v-127q0 -115 -52 -175.5t-166 -60.5h-51v-692 q0 -150 -35 -239q-103 -254 -432 -254q-338 0 -428 251q-35 93 -35 242z" />
<glyph unicode="&#x1b0;" horiz-adv-x="1120" d="M117 336v18v633q0 12 12 12h49q10 0 10 -12v-641q0 -43 1 -70.5t5.5 -63t13.5 -57t24.5 -45t38.5 -36t57 -21t78 -8.5q135 0 395 137v805q0 12 14 12h45q12 0 12 -12v-104h35q81 0 118.5 39.5t37.5 134.5v123q0 12 3 16t15 4h33q10 0 13 -4t3 -16v-127 q0 -115 -51.5 -175.5t-165.5 -60.5h-41v-807q0 -10 -12 -10h-47q-14 0 -14 10v115q-227 -141 -408 -141q-58 0 -102 10.5t-72.5 24.5t-48.5 44.5t-30 53t-15 67.5t-5.5 71.5t-0.5 80.5z" />
<glyph unicode="&#x1fc;" horiz-adv-x="1595" d="M16 2q-3 2 0 10l705 1331q4 15 18 15h750q10 0 10 -12v-46q0 -12 -10 -12h-641v-549h577q11 0 11 -10v-41q0 -14 -11 -14h-577v-606h653q12 0 12 -11v-47q0 -10 -12 -10h-719q-10 0 -10 10v373h-481l-197 -371q-6 -12 -20 -12h-45q-10 0 -13 2zM326 451h446v837h-6z M958 1483q-8 8 3 16l245 170q7 5 10 4t9 -8l39 -49q8 -11 -4 -17l-271 -143q-9 -3 -14 4z" />
<glyph unicode="&#x1fd;" horiz-adv-x="1652" d="M88 244q0 171 83 243t265 72h355v135q0 55 -7 93.5t-25 71.5t-50 52.5t-82 30t-121 10.5q-78 0 -307 -22q-15 0 -17 10l-4 23q0 11 10 14q121 45 312 45q160 0 239.5 -42.5t104.5 -143.5q88 182 340 182q95 0 166.5 -23.5t115 -61.5t70 -95.5t36 -117t9.5 -134.5 q0 -47 -14 -69.5t-51 -22.5h-652q0 -77 6.5 -135.5t26 -119t53 -100t91.5 -64t137 -24.5q74 0 325 23q16 0 19 -11l2 -18q3 -13 -8 -16q-55 -22 -158.5 -33.5t-186.5 -11.5q-241 0 -325 168q-10 -6 -65 -37t-67.5 -37t-58 -28t-69.5 -28t-68 -18t-88 -16t-96 -6 q-124 -4 -185 62.5t-61 199.5zM164 252q0 -118 46 -161.5t165 -43.5q143 0 448 162q-32 95 -32 285h-363q-64 0 -107 -8.5t-81.5 -33t-57 -74t-18.5 -126.5zM864 1165l137 265q7 12 19 6l57 -27q11 -4 4 -14l-172 -254q-5 -10 -14 -4l-25 12q-10 5 -6 16zM866 559h641 q-1 50 -4.5 87.5t-12 81t-22.5 74.5t-38.5 61.5t-57 49t-80.5 30t-108 11.5q-78 0 -135.5 -20t-92 -53.5t-55 -86t-27.5 -107.5t-8 -128z" />
<glyph unicode="&#x1fe;" horiz-adv-x="1261" d="M123 41l100 139q-56 95 -75 222.5t-19 295.5q0 65 4.5 123t17.5 128.5t35 128.5t60 114.5t88.5 95t124.5 62.5t164 24q240 0 364 -137l90 125q6 10 19 4l26 -20q15 -9 8 -21l-102 -141q100 -155 100 -486q0 -82 -4 -148t-17 -142.5t-35 -135.5t-60.5 -115.5t-90.5 -93 t-128 -59t-170 -22.5q-242 0 -361 141l-86 -121q-7 -9 -18 -2l-27 20q-15 11 -8 21zM205 678q0 -279 69 -426l666 922q-105 133 -317 133q-97 0 -170 -31.5t-120 -86t-76 -136t-40.5 -172t-11.5 -203.5zM311 190q101 -141 312 -141q121 0 207 45.5t135 132t70.5 196.5 t21.5 255q0 287 -78 436zM567 1483q-8 8 2 16l246 170q7 5 10 4t9 -8l38 -49q8 -11 -4 -17l-270 -143q-9 -3 -14 4z" />
<glyph unicode="&#x1ff;" horiz-adv-x="976" d="M92 518q0 49 3 92t13.5 95.5t27 95t46.5 84.5t69.5 70t98.5 45.5t131 17.5q181 0 279 -88l61 84q6 10 19 4l26 -21q13 -8 8 -20l-71 -96q82 -116 82 -363q0 -62 -2.5 -108.5t-12 -105t-26 -101.5t-46.5 -86.5t-72 -70.5t-104 -44.5t-141 -17.5q-175 0 -270 88l-61 -84 q-7 -9 -17 -2l-29 24q-13 10 -6 19l70 94q-47 70 -61.5 166t-14.5 229zM168 502q0 -211 49 -312l498 680q-77 80 -234 80q-78 0 -134.5 -23.5t-90.5 -61.5t-54 -98t-27 -121.5t-7 -143.5zM256 133q73 -86 225 -86q80 0 139 22.5t95 60.5t57.5 97.5t29 124t7.5 150.5 q0 212 -53 313zM438 1165l137 265q7 12 19 6l57 -27q11 -4 4 -14l-172 -254q-5 -10 -14 -4l-25 12q-10 5 -6 16z" />
<glyph unicode="&#x218;" horiz-adv-x="1024" d="M98 53l4 23q3 13 19 10q227 -29 373 -29q167 0 264.5 73t97.5 202q0 84 -21.5 142.5t-67 95.5t-102.5 57.5t-143 34.5t-143.5 29t-114.5 40.5t-90 60.5t-53.5 88.5t-20.5 125.5q0 175 111.5 269.5t304.5 94.5q237 0 352 -43q15 -4 11 -18l-2 -23q-3 -12 -19 -10 q-45 7 -153.5 14.5t-182.5 7.5q-170 0 -256 -75.5t-86 -210.5q0 -59 19 -103.5t47 -72t76.5 -48t90 -30.5t105.5 -21q55 -10 94.5 -19t86 -24.5t78 -34t64 -46.5t51 -63t30.5 -84t12 -108q0 -102 -34.5 -176.5t-97 -117t-140 -62.5t-173.5 -20q-73 0 -201 15.5t-179 35.5 q-14 7 -11 20zM442 -428q-8 8 2 14q54 54 54 127q0 58 -41 115q-12 12 2 20l69 46q10 7 23 -3q37 -40 37 -88q0 -76 -32 -140.5t-83 -102.5q-8 -8 -14 -2z" />
<glyph unicode="&#x219;" horiz-adv-x="827" d="M84 39l4 20q0 11 16 11q213 -23 293 -23q273 0 273 203q0 61 -13 101t-46 65.5t-76.5 39.5t-116.5 27q-59 10 -96 17.5t-79.5 21t-67.5 31t-47.5 43.5t-32 62.5t-9.5 84.5q0 275 328 275q64 0 147.5 -10.5t138.5 -30.5q11 -4 11 -16l-4 -21q0 -10 -15 -10 q-203 22 -280 22q-130 0 -191 -48t-61 -154q0 -33 6 -58.5t15 -43.5t29 -32.5t36.5 -23.5t48.5 -17t55.5 -12.5t67.5 -11.5q68 -11 110 -21.5t87.5 -31t70.5 -48.5t41 -74t16 -108q0 -151 -89.5 -216.5t-258.5 -65.5q-199 0 -301 37q-10 3 -10 16zM332 -428q-8 8 2 14 q53 53 53 127q0 58 -41 115q-12 12 2 20l70 46q10 7 22 -3q37 -40 37 -88q0 -76 -32 -140.5t-83 -102.5q-8 -8 -14 -2z" />
<glyph unicode="&#x21a;" horiz-adv-x="931" d="M35 1300v46q0 12 12 12h844q10 0 10 -12v-46q0 -10 -10 -10h-385l-2 -1278q0 -12 -10 -12h-50q-14 0 -14 12v1278h-383q-12 0 -12 10zM381 -428q-8 8 2 14q53 53 53 127q0 58 -41 115q-12 12 2 20l70 46q10 7 22 -3q37 -40 37 -88q0 -76 -31.5 -140.5t-82.5 -102.5 q-8 -8 -15 -2z" />
<glyph unicode="&#x21b;" horiz-adv-x="587" d="M70 952v35q0 12 14 12h127v234q0 12 10 16l37 15q19 5 21 3t2 -18v-250h223q7 0 8.5 -1.5t1.5 -8.5v-37q0 -10 -10 -10h-223v-747q0 -40 3.5 -62.5t15.5 -44.5t38.5 -31.5t69.5 -9.5q77 0 143 8q13 2 16 -10l4 -18q2 -13 -10 -19q-81 -24 -186 -24q-93 0 -128.5 43 t-35.5 145v770h-129q-12 0 -12 10zM244 -428q-8 8 2 14q53 53 53 127q0 58 -41 115q-12 12 2 20l70 46q10 7 22 -3q37 -40 37 -88q0 -76 -32 -140.5t-83 -102.5q-8 -8 -14 -2z" />
<glyph unicode="&#x259;" horiz-adv-x="962" d="M90 432q0 46 14.5 66t51.5 20h637q0 55 -2.5 97.5t-10.5 89.5t-21 81.5t-36 67t-54.5 53t-77 33t-102.5 12.5q-38 0 -79.5 -2.5t-69 -5t-77 -7.5t-75.5 -7q-16 0 -18 10l-2 18q-4 14 8 17q56 23 148 34t172 11q72 0 129 -15t96 -40t66.5 -65t43.5 -81t25 -98.5 t11.5 -106.5t2.5 -116q0 -512 -399 -512q-71 0 -128 13t-96.5 34.5t-68 55.5t-45.5 70t-27 84t-13 91t-3 98zM166 459q-1 -50 0.5 -88t8 -82.5t19 -76.5t35.5 -64t55 -51.5t79.5 -31.5t107.5 -12q73 0 128.5 20.5t91 55t58.5 87.5t33 111t13 132h-629z" />
<glyph unicode="&#x2b9;" horiz-adv-x="462" d="M90 887l191 508q7 16 26 10l58 -19q17 -7 6 -26l-234 -504q-5 -8 -8 -9.5t-12 1.5l-19 10q-16 5 -8 29z" />
<glyph unicode="&#x2c6;" horiz-adv-x="976" d="M216 1155.5q-1 1.5 0.5 3.5l4.5 6l203 228q11 14 29 14h73q20 0 31 -14l195 -228q6 -8 6 -9t-6 -5l-23 -21q-6 -4 -16 3l-226 206l-227 -206q-10 -7 -16 -3l-23 21q-3 2 -3.5 2.5t-1.5 2z" />
<glyph unicode="&#x2c7;" horiz-adv-x="972" d="M265.5 1377.5q-0.5 2.5 0 3t4.5 3.5l23 21q6 4 16 -2l226 -207l227 207q9 6 16 2l23 -21q7 -5 5 -8q-1 -2 -5 -6l-203 -227q-12 -15 -31 -15h-63q-17 0 -29 15l-205 227q-4 5 -4.5 7.5z" />
<glyph unicode="&#x2d8;" horiz-adv-x="972" d="M225 1350l21 14q15 12 26 -6q49 -73 94.5 -101t112.5 -28q108 0 201 131q11 14 27 6l18 -12q3 -2 4 -5.5t1.5 -6t-1 -7t-2.5 -7t-4 -8.5t-4 -9q-41 -76 -105 -114t-137 -38q-77 0 -144.5 37.5t-103.5 110.5q-17 34 -4 43z" />
<glyph unicode="&#x2d9;" horiz-adv-x="972" d="M485 1260q0 24 10 36.5t37 12.5q29 0 39.5 -12.5t10.5 -36.5q0 -54 -50 -54q-29 0 -38 14t-9 40z" />
<glyph unicode="&#x2da;" horiz-adv-x="7600" d="M0 287q0 57 21 107t66.5 93.5t130 69t200.5 25.5h200v75q0 164 -200 164q-64 0 -138 -14.5t-116 -29.5l-41 -15l-41 168q176 71 397 71q174 0 259 -65t85 -219v-680q-65 0 -113 5.5t-69.5 11t-22.5 5.5q-4 -3 -12.5 -7.5t-37 -17t-59 -22t-79 -17t-98.5 -7.5 q-66 0 -122.5 15.5t-105 48.5t-76.5 93t-28 142zM213 299q0 -76 44 -103.5t124 -27.5q59 0 131.5 16.5t105.5 42.5v203h-227q-178 0 -178 -131zM1102 0l94 993q71 8 104 8q32 0 49 -1t40.5 -5.5t37 -14t28 -27.5t24.5 -44l186 -473q14 -42 18 -69q6 28 23 71l190 471 q26 63 56 77.5t104 14.5l115 -8l96 -993h-225l-45 670l-207 -502q-12 -30 -35.5 -46t-73.5 -16q-53 0 -77.5 15.5t-36.5 46.5l-193 502l-59 -670h-213zM2472 287q0 57 21 107t66.5 93.5t130 69t200.5 25.5h200v75q0 164 -200 164q-64 0 -138 -14.5t-116 -29.5l-41 -15 l-41 168q176 71 397 71q174 0 259 -65t85 -219v-680q-65 0 -113 5.5t-69.5 11t-22.5 5.5q-4 -3 -12.5 -7.5t-37 -17t-59 -22t-79 -17t-98.5 -7.5q-66 0 -122.5 15.5t-105 48.5t-76.5 93t-28 142zM2685 299q0 -76 44 -103.5t124 -27.5q59 0 131.5 16.5t105.5 42.5v203h-227 q-178 0 -178 -131zM3625 18v924q157 59 389 59q236 0 372 -131t136 -362q0 -267 -126.5 -394.5t-412.5 -127.5q-198 0 -358 32zM3834 180q74 -16 164 -16t148 19.5t91.5 63.5t46.5 105.5t13 155.5q0 87 -22.5 152t-63 102.5t-89.5 55.5t-108 18q-95 0 -180 -13v-643z M4786 33v925q17 5 49 12t137 19t218 12q79 0 150 -4t102 -8l32 -4v-172q-120 25 -270 25q-53 0 -105 -4t-78 -8l-26 -3v-239h432v-162h-432v-242q12 -2 32.5 -4.5t79.5 -6.5t113 -3q72 1 139 7.5t97 12.5l31 7v-175q-105 -30 -328 -30q-93 0 -186 11t-140 23zM5741 373v614 q83 14 190 14h33v-593q0 -124 36 -177t144 -53q58 0 134 25.5t118 50.5v747h47q98 0 178 -14v-950q-59 0 -113 9.5t-78 18.5l-24 9q-2 0 -18.5 -9t-45.5 -21.5t-67 -25t-92 -21.5t-111 -9q-96 0 -161 23.5t-102 74t-52.5 119.5t-15.5 168zM6869 31l45 164q133 -31 268 -31 q195 0 195 117q0 14 -5 26t-19.5 23.5t-24.5 19t-35.5 19.5t-36.5 16.5t-43 17.5l-30 12q-42 17 -63 26t-58.5 27t-58 33t-47 38.5t-40 48t-23.5 58t-10 71.5q0 70 30.5 126t82.5 89.5t114.5 51t131.5 17.5q107 0 192 -21t123 -40l-45 -164q-15 7 -41 17.5t-93 27.5t-120 17 q-47 0 -79.5 -11.5t-46 -31t-18.5 -34.5t-5 -30q0 -34 29 -62t54.5 -40t89.5 -37q6 -3 9 -4q78 -33 128.5 -59.5t95 -62.5t65 -80t20.5 -99q0 -69 -25 -122.5t-64.5 -86.5t-94 -54.5t-108 -29.5t-111.5 -8q-87 0 -169 11t-120 23z" />
<glyph unicode="&#x2db;" horiz-adv-x="589" d="M160 -225q0 62 33.5 128t89.5 113h57v-4q-118 -124 -115 -225q1 -41 24 -65t74 -30.5t132 13.5q12 2 16 -6l10 -29q5 -11 -12 -18q-58 -25 -133 -25q-88 0 -132 41t-44 107z" />
<glyph unicode="&#x2dc;" horiz-adv-x="976" d="M199 1233q36 59 74 86t87 27q39 0 95.5 -28t109.5 -55.5t82 -27.5q34 0 57.5 21t47.5 61q7 11 10 12.5t16 -2.5l21 -10q14 -8 4 -27q-58 -116 -158 -116q-45 0 -99.5 27t-104 54t-83.5 27q-53 0 -106 -78q-10 -15 -17 -18t-16 2l-16 8q-21 11 -4 37z" />
<glyph unicode="&#x2dd;" horiz-adv-x="976" d="M372 1155q0 3 3 10l137 265q4 8 6.5 8.5t11.5 -2.5l58 -27q11 -4 4 -14l-172 -254q-6 -9 -14 -4l-25 12q-9 4 -9 6zM566 1155q0 3 3 10l138 265q5 8 7 8.5t11 -2.5l57 -27q11 -4 4 -14l-172 -254q-6 -9 -14 -4l-25 12q-9 4 -9 6z" />
<glyph unicode="&#x384;" horiz-adv-x="966" d="M501 1155q0 3 3 10l137 265q5 8 7 8.5t11 -2.5l58 -27q11 -4 4 -14l-172 -254q-6 -9 -14 -4l-25 12q-9 4 -9 6z" />
<glyph unicode="&#x385;" d="M260 1260q0 24 10 36.5t37 12.5q29 0 39 -12.5t10 -36.5q0 -54 -49 -54q-29 0 -38 14t-9 40zM405 1155q0 3 3 10l137 265q5 8 7 8.5t11 -2.5l58 -27q11 -4 4 -14l-172 -254q-6 -10 -15 -4l-24 12q-9 4 -9 6zM659 1260q0 24 10.5 36.5t37.5 12.5q29 0 39 -12.5t10 -36.5 q0 -54 -49 -54q-29 0 -38.5 14t-9.5 40z" />
<glyph unicode="&#x386;" horiz-adv-x="1069" d="M5 1053q0 3 3 10l137 264q3 5 5 7t4.5 1.5t9.5 -2.5l57 -26q11 -4 4 -15l-172 -254q-6 -9 -14 -4l-25 13q-9 4 -9 6zM39 2.5q-3 2.5 0 9.5l444 1331q2 7 5 10t4.5 3h7.5h63q11 0 17 -15l446 -1329q3 -8 2 -10t-10 -2h-55q-13 0 -17 12l-119 371h-591l-119 -371 q-2 -12 -15 -12h-51q-9 0 -12 2.5zM258 451h547l-273 819h-6z" />
<glyph unicode="&#x387;" horiz-adv-x="346" d="M115 840q0 30 13 45.5t48 15.5q36 0 49 -15t13 -46q0 -68 -62 -68q-38 0 -49.5 17.5t-11.5 50.5z" />
<glyph unicode="&#x388;" horiz-adv-x="964" d="M-197.5 1052.5q-0.5 1.5 2.5 10.5l138 264q5 8 7 8.5t11 -2.5l57 -26q12 -4 5 -15l-173 -254q-6 -9 -14 -4l-24 13l-4 2q-5 2 -5.5 3.5zM141 10v1333q0 15 11 15h706q10 0 10 -12v-46q0 -12 -10 -12h-641v-549h578q10 0 10 -10v-41q0 -6 -0.5 -8.5t-2.5 -4t-7 -1.5h-578 v-606h653q13 0 13 -11v-47q0 -10 -13 -10h-718q-11 0 -11 10z" />
<glyph unicode="&#x389;" horiz-adv-x="1167" d="M-218 1053q0 3 3 10l137 264q3 5 5 7t4.5 1.5t9.5 -2.5l57 -26q11 -4 4 -15l-172 -254q-6 -9 -14 -4l-25 13q-9 4 -9 6zM147 12v1334q0 12 11 12h53q10 0 10 -12v-592h727v592q0 12 15 12h49q10 0 10 -12v-1334q0 -12 -10 -12h-49q-15 0 -15 12v676h-727v-676 q0 -12 -10 -12h-53q-11 0 -11 12z" />
<glyph unicode="&#x38a;" horiz-adv-x="458" d="M-218 1053q0 3 3 10l137 264q3 5 5 7t4.5 1.5t9.5 -2.5l57 -26q11 -4 4 -15l-172 -254q-6 -9 -14 -4l-25 13q-9 4 -9 6zM190 12v1334q0 12 11 12h53q10 0 10 -12v-1334q0 -12 -10 -12h-53q-11 0 -11 12z" />
<glyph unicode="&#x38c;" horiz-adv-x="1261" d="M-111.5 1052.5q-0.5 1.5 2.5 10.5l138 264q4 8 6.5 8.5t11.5 -2.5l57 -26q12 -4 5 -15l-172 -254q-6 -10 -15 -4l-24 13l-4 2q-5 2 -5.5 3.5zM129 698q0 65 4.5 123t17.5 128.5t35 128.5t60 114.5t88.5 95t124.5 62.5t164 24q91 0 165 -20t126 -53.5t90.5 -84.5 t62 -106.5t37.5 -127t19 -138t5 -146.5q0 -82 -4 -148t-17 -142.5t-35 -135.5t-60.5 -115.5t-90.5 -93t-128 -59t-170 -22.5t-169 22.5t-126 58.5t-88.5 93t-58.5 115t-33 135.5t-15.5 142.5t-3.5 149zM205 678q0 -111 10.5 -199t38.5 -171t74 -138t120.5 -88t174.5 -33 q121 0 207 45.5t135 132t70.5 196.5t21.5 255q0 118 -11.5 210t-41.5 173t-78.5 133.5t-124.5 82.5t-178 30q-97 0 -170 -31.5t-120 -86t-76 -136t-40.5 -172t-11.5 -203.5z" />
<glyph unicode="&#x38e;" d="M-269 1053q0 3 3 10l137 264q5 8 7 8.5t11 -2.5l58 -26q11 -4 4 -15l-172 -254q-6 -10 -15 -4l-24 13q-9 4 -9 6zM49 1346q-3 6 0 8t12 2h54q10 0 14 -10l363 -682l362 682q6 10 16 10h54q9 0 11 -2t-1 -8l-408 -746v-586q0 -14 -10 -14h-49q-14 0 -14 14l-2 586z" />
<glyph unicode="&#x38f;" horiz-adv-x="1304" d="M-109 1053q0 3 3 10l137 264q5 8 7 8.5t11 -2.5l57 -26q12 -4 5 -15l-172 -254q-6 -10 -15 -4l-24 13q-9 4 -9 6zM92 14v41q0 13 10 13h260v4q-74 53 -122 122.5t-70.5 156.5t-30.5 166.5t-8 187.5q0 113 17 210t56.5 183t99 146t149.5 95t204 35q116 0 206.5 -35.5 t148 -96t95 -147t52.5 -182t15 -208.5q0 -109 -8.5 -189t-32.5 -165.5t-74 -155t-127 -123.5l2 -4h254q12 0 12 -13v-41q0 -14 -12 -14h-381q-14 0 -14 12v54q0 21 18 26q70 22 122.5 67t84 101t51 131t26.5 148t7 161q0 57 -4.5 110.5t-17.5 116t-33 115.5t-55 103.5 t-80 85.5t-110.5 56.5t-144.5 21.5q-102 0 -181.5 -32.5t-129.5 -87.5t-82 -134t-44.5 -164t-12.5 -186q0 -120 13.5 -215t44 -176t85 -137t131.5 -83q12 -5 15.5 -9.5t3.5 -18.5v-52q0 -14 -15 -14h-383q-10 0 -10 14z" />
<glyph unicode="&#x390;" horiz-adv-x="403" d="M-33 1260q0 24 10 36.5t37 12.5q29 0 39 -12.5t10 -36.5q0 -54 -49 -54q-29 0 -38 14t-9 40zM112 1155q0 3 3 10l137 265q4 8 6.5 8.5t11.5 -2.5l58 -27q11 -4 4 -14l-172 -254q-6 -10 -15 -4l-24 12q-9 4 -9 6zM166 12v973q0 7 2 9.5t10 2.5h49q9 0 9 -12v-973 q0 -12 -11 -12h-47q-8 0 -10 2t-2 10zM367 1260q0 24 10 36.5t37 12.5q29 0 39 -12.5t10 -36.5q0 -54 -49 -54q-29 0 -38 14t-9 40z" />
<glyph unicode="&#x391;" horiz-adv-x="1069" d="M39 2.5q-3 2.5 0 9.5l444 1331q2 7 5 10t4.5 3h7.5h63q11 0 17 -15l446 -1329q3 -8 2 -10t-10 -2h-55q-13 0 -17 12l-119 371h-591l-119 -371q-2 -12 -15 -12h-51q-9 0 -12 2.5zM258 451h547l-273 819h-6z" />
<glyph unicode="&#x392;" horiz-adv-x="1075" d="M131 16v1325q0 15 14 15l439 2q170 0 267 -90t97 -238q0 -233 -190 -315v-2q65 -20 112.5 -62t72 -94.5t35.5 -103t11 -101.5q0 -161 -94.5 -256.5t-245.5 -95.5h-493q-25 0 -25 16zM209 68h391q305 0 305 299q0 125 -82 216t-227 91h-387v-606zM209 739h346 q150 0 229.5 75t79.5 202q0 125 -74.5 198.5t-224.5 73.5h-356v-549z" />
<glyph unicode="&#x393;" horiz-adv-x="917" d="M147 14v1329q0 15 11 15h696q10 0 10 -12v-46q0 -12 -10 -12h-631v-1274q0 -14 -10 -14h-53q-13 0 -13 14z" />
<glyph unicode="&#x394;" horiz-adv-x="1069" d="M39 2.5q-3 2.5 0 9.5l444 1331q2 7 5 10t4.5 3h7.5h63q11 0 17 -15l446 -1329q3 -8 2 -10t-10 -2h-967q-9 0 -12 2.5zM139 66h785l-392 1204h-6z" />
<glyph unicode="&#x395;" horiz-adv-x="964" d="M141 10v1333q0 15 11 15h706q10 0 10 -12v-46q0 -12 -10 -12h-641v-549h578q10 0 10 -10v-41q0 -6 -0.5 -8.5t-2.5 -4t-7 -1.5h-578v-606h653q13 0 13 -11v-47q0 -10 -13 -10h-718q-11 0 -11 10z" />
<glyph unicode="&#x396;" horiz-adv-x="950" d="M70 12v35q0 14 10 37l715 1204h-674q-15 0 -15 12v46q0 12 15 12h743q10 0 10 -10v-43q0 -19 -8 -35l-708 -1202h712q11 0 11 -13v-41q0 -14 -11 -14h-788q-12 0 -12 12z" />
<glyph unicode="&#x397;" horiz-adv-x="1167" d="M147 12v1334q0 12 11 12h53q10 0 10 -12v-592h727v592q0 12 15 12h49q10 0 10 -12v-1334q0 -12 -10 -12h-49q-15 0 -15 12v676h-727v-676q0 -12 -10 -12h-53q-11 0 -11 12z" />
<glyph unicode="&#x398;" horiz-adv-x="1261" d="M129 698q0 65 4.5 123t17.5 128.5t35 128.5t60 114.5t88.5 95t124.5 62.5t164 24q91 0 165 -20t126 -53.5t90.5 -84.5t62 -106.5t37.5 -127t19 -138t5 -146.5q0 -82 -4 -148t-17 -142.5t-35 -135.5t-60.5 -115.5t-90.5 -93t-128 -59t-170 -22.5t-169 22.5t-126 58.5 t-88.5 93t-58.5 115t-33 135.5t-15.5 142.5t-3.5 149zM205 678q0 -79 4.5 -144t16.5 -131.5t32 -117.5t52 -97t75 -75.5t103.5 -46.5t134.5 -17q102 0 178 30.5t124.5 84t78.5 134.5t41.5 172.5t11.5 207.5q0 118 -11.5 210t-41.5 173t-78.5 133.5t-124.5 82.5t-178 30 q-97 0 -170 -31.5t-120 -86t-76 -136t-40.5 -172t-11.5 -203.5zM352 686v45q0 10 13 10h542q13 0 13 -10v-45q0 -10 -13 -10h-542h-6.5t-3.5 1t-2.5 3t-0.5 6z" />
<glyph unicode="&#x399;" horiz-adv-x="458" d="M190 12v1334q0 12 11 12h53q10 0 10 -12v-1334q0 -12 -10 -12h-53q-11 0 -11 12z" />
<glyph unicode="&#x39a;" horiz-adv-x="1073" d="M141 12v1334q0 12 11 12h53q10 0 10 -12v-861l694 861q12 12 27 12h55q9 0 11 -5t-3 -10l-446 -548l465 -779q10 -16 -10 -16h-52q-18 0 -24 12l-428 721l-289 -358v-363q0 -12 -10 -12h-53q-11 0 -11 12z" />
<glyph unicode="&#x39b;" horiz-adv-x="1069" d="M39 2.5q-3 2.5 0 9.5l444 1331q2 7 5 10t4.5 3h7.5h63q11 0 17 -15l446 -1329q3 -8 2 -10t-10 -2h-55q-13 0 -17 12q-27 80 -70 210t-134.5 405.5t-151.5 459t-58 183.5h-6l-409 -1258q-2 -12 -15 -12h-51q-9 0 -12 2.5z" />
<glyph unicode="&#x39c;" horiz-adv-x="1460" d="M150 14v1329q0 15 12 15h57q14 0 19 -12l491 -1024h2l490 1019q1 2 2.5 6t2 4.5t2 3t3.5 2.5t5.5 0.5t8.5 0.5h49q17 0 17 -17v-1327q0 -14 -11 -14h-49q-14 0 -14 14v1188h-4l-463 -956q-8 -15 -16 -15h-45q-16 0 -21 13l-461 958h-4v-1188q0 -14 -10 -14h-49 q-14 0 -14 14z" />
<glyph unicode="&#x39d;" horiz-adv-x="1234" d="M143 14l2 1329q0 5 3.5 10t9.5 5h55q4 0 6 -0.5t4 -1.5t2.5 -2t2.5 -4t3 -4l785 -1215h4v1212q0 15 10 15h47q15 0 15 -15v-1329q0 -14 -13 -14h-55q-6 0 -9 1.5t-4 2.5t-5 8l-785 1215h-4v-1213q0 -14 -10 -14h-49q-15 0 -15 14z" />
<glyph unicode="&#x39e;" horiz-adv-x="1017" d="M45 10v47q0 11 14 11h408v606h-332q-12 0 -12 14v41q0 10 12 10h332v549h-395q-13 0 -13 12v46q0 12 13 12h868q10 0 10 -12v-46q0 -12 -10 -12h-397v-549h334q10 0 10 -10v-41q0 -6 -0.5 -8.5t-2.5 -4t-7 -1.5h-334v-606h409q13 0 13 -11v-47q0 -10 -13 -10h-893 q-14 0 -14 10z" />
<glyph unicode="&#x39f;" horiz-adv-x="1261" d="M129 698q0 65 4.5 123t17.5 128.5t35 128.5t60 114.5t88.5 95t124.5 62.5t164 24q91 0 165 -20t126 -53.5t90.5 -84.5t62 -106.5t37.5 -127t19 -138t5 -146.5q0 -82 -4 -148t-17 -142.5t-35 -135.5t-60.5 -115.5t-90.5 -93t-128 -59t-170 -22.5t-169 22.5t-126 58.5 t-88.5 93t-58.5 115t-33 135.5t-15.5 142.5t-3.5 149zM205 678q0 -111 10.5 -199t38.5 -171t74 -138t120.5 -88t174.5 -33q121 0 207 45.5t135 132t70.5 196.5t21.5 255q0 118 -11.5 210t-41.5 173t-78.5 133.5t-124.5 82.5t-178 30q-97 0 -170 -31.5t-120 -86t-76 -136 t-40.5 -172t-11.5 -203.5z" />
<glyph unicode="&#x3a0;" horiz-adv-x="1167" d="M147 12v1334q0 12 11 12h854q10 0 10 -12v-1334q0 -12 -10 -12h-49q-15 0 -15 12v1278h-727v-1278q0 -12 -10 -12h-53q-11 0 -11 12z" />
<glyph unicode="&#x3a1;" horiz-adv-x="987" d="M131 14v1332q0 12 14 12h392q174 0 281.5 -97t107.5 -278q0 -60 -13 -115.5t-43 -107t-73.5 -89.5t-108.5 -60.5t-145 -22.5h-336v-574q0 -14 -12 -14h-50q-14 0 -14 14zM207 653h334q23 0 49 4t63 14.5t69.5 34t62 57.5t46.5 90t17 126q0 155 -91 232t-245 77h-305v-635 z" />
<glyph unicode="&#x3a3;" horiz-adv-x="872" d="M41 12v35q0 22 10 45l365 619l-367 559q-8 11 -8 35v43q0 10 8 10h770q12 0 12 -12v-46q0 -12 -12 -12h-700l360 -540q24 -34 0 -74l-350 -606h713q10 0 10 -13v-41q0 -14 -10 -14h-789q-12 0 -12 12z" />
<glyph unicode="&#x3a4;" horiz-adv-x="931" d="M35 1300v46q0 12 12 12h844q10 0 10 -12v-46q0 -10 -10 -10h-385l-2 -1278q0 -12 -10 -12h-50q-14 0 -14 12v1278h-383q-12 0 -12 10z" />
<glyph unicode="&#x3a5;" d="M49 1346q-3 6 0 8t12 2h54q10 0 14 -10l363 -682l362 682q6 10 16 10h54q9 0 11 -2t-1 -8l-408 -746v-586q0 -14 -10 -14h-49q-14 0 -14 14l-2 586z" />
<glyph unicode="&#x3a6;" horiz-adv-x="1409" d="M100 684q0 282 143 439.5t431 170.5v52q0 12 10 12h53q11 0 11 -12v-52q151 -5 259 -49t172.5 -124.5t94 -187.5t29.5 -249q0 -582 -555 -614v-58q0 -12 -11 -12h-53q-10 0 -10 12v60q-131 3 -233 40t-165 94.5t-104 137.5t-56.5 162.5t-15.5 177.5zM174 684 q0 -120 25 -213.5t81.5 -168.5t155.5 -118.5t238 -50.5v1098q-500 -28 -500 -547zM750 133q134 9 228.5 51.5t148.5 115.5t78 166t24 214q0 53 -4 100t-16.5 104t-33 103.5t-57.5 92t-86 77t-121 51.5t-161 21v-1096z" />
<glyph unicode="&#x3a7;" horiz-adv-x="1015" d="M57 12l408 690l-379 644q-4 5 0 8.5t10 3.5h54q10 0 18 -12l342 -580l340 580q8 12 18 12h56q5 0 9 -3.5t1 -8.5l-379 -644l408 -690q5 -12 -11 -12h-57q-9 0 -16 12l-369 627l-371 -627q-5 -12 -16 -12h-55q-18 0 -11 12z" />
<glyph unicode="&#x3a8;" horiz-adv-x="1353" d="M127 858v488q0 12 10 12h56q10 0 10 -12v-488q0 -205 112.5 -318.5t311.5 -125.5l2 932q0 8 1 10t7 2h55q10 0 10 -12v-932q198 12 314.5 126t116.5 318v488q0 12 10 12h53q10 0 10 -12v-488q0 -106 -32.5 -196.5t-94.5 -160t-158.5 -111.5t-218.5 -46v-332 q0 -12 -10 -12h-55q-6 0 -7 2t-1 10l-2 330q-131 8 -229 51t-156.5 113t-87 158t-27.5 194z" />
<glyph unicode="&#x3a9;" horiz-adv-x="1304" d="M92 14v41q0 13 10 13h260v4q-74 53 -122 122.5t-70.5 156.5t-30.5 166.5t-8 187.5q0 113 17 210t56.5 183t99 146t149.5 95t204 35q116 0 206.5 -35.5t148 -96t95 -147t52.5 -182t15 -208.5q0 -109 -8.5 -189t-32.5 -165.5t-74 -155t-127 -123.5l2 -4h254q12 0 12 -13 v-41q0 -14 -12 -14h-381q-14 0 -14 12v54q0 21 18 26q70 22 122.5 67t84 101t51 131t26.5 148t7 161q0 57 -4.5 110.5t-17.5 116t-33 115.5t-55 103.5t-80 85.5t-110.5 56.5t-144.5 21.5q-102 0 -181.5 -32.5t-129.5 -87.5t-82 -134t-44.5 -164t-12.5 -186q0 -120 13.5 -215 t44 -176t85 -137t131.5 -83q12 -5 15.5 -9.5t3.5 -18.5v-52q0 -14 -15 -14h-383q-10 0 -10 14z" />
<glyph unicode="&#x3aa;" horiz-adv-x="458" d="M4 1542q0 51 49 51q29 0 38 -12.5t9 -38.5q0 -25 -9.5 -38t-37.5 -13q-29 0 -39 13.5t-10 37.5zM190 12v1334q0 12 11 12h53q10 0 10 -12v-1334q0 -12 -10 -12h-53q-11 0 -11 12zM334 1542q0 51 49 51q29 0 38 -12.5t9 -38.5q0 -25 -9.5 -38t-37.5 -13q-29 0 -39 13.5 t-10 37.5z" />
<glyph unicode="&#x3ab;" d="M49 1346q-3 6 0 8t12 2h54q10 0 14 -10l363 -682l362 682q6 10 16 10h54q9 0 11 -2t-1 -8l-408 -746v-586q0 -14 -10 -14h-49q-14 0 -14 14l-2 586zM252 1542q0 51 49 51q29 0 38 -12.5t9 -38.5q0 -25 -9.5 -38t-37.5 -13q-29 0 -39 13.5t-10 37.5zM582 1542q0 51 49 51 q29 0 38 -12.5t9 -38.5q0 -25 -9.5 -38t-37.5 -13q-29 0 -39 13.5t-10 37.5z" />
<glyph unicode="&#x3ac;" horiz-adv-x="997" d="M98 483q0 279 89 408t292 129q68 0 154 -21t168 -61l4 2v47q0 7 2.5 9.5t9.5 2.5h45q4 0 5.5 -0.5t3 -2.5t1.5 -7v-862q0 -51 18 -64t79 -16q12 0 12 -12v-27q0 -14 -20 -16q-97 -9 -127.5 18t-30.5 113q-238 -139 -410 -139q-164 0 -229.5 119t-65.5 380zM172 479 q0 -163 26.5 -258t77 -133.5t134.5 -38.5q79 0 193 45t200 92v688q-195 80 -320 80q-162 0 -236.5 -110.5t-74.5 -364.5zM501 1155q0 3 3 10l137 265q5 8 7 8.5t11 -2.5l58 -27q11 -4 4 -14l-172 -254q-6 -9 -14 -4l-25 12q-9 4 -9 6z" />
<glyph unicode="&#x3ad;" horiz-adv-x="825" d="M94 276q0 213 185 265v2q-166 34 -166 209q0 72 30 125.5t82 83.5t113 44.5t131 14.5q67 0 153.5 -10.5t139.5 -30.5q10 -3 10 -16l-4 -21q0 -6 -2.5 -8t-11.5 -2q-10 1 -76.5 7.5t-114.5 9.5t-88 3q-285 0 -285 -198q0 -42 12.5 -73.5t38 -50.5t50.5 -31t64 -16.5 t64.5 -6t63.5 -1.5h90q11 0 11 -12v-41q0 -12 -11 -12h-81q-37 0 -62 -1t-61.5 -6t-61.5 -13.5t-52.5 -25.5t-44 -40.5t-27.5 -59t-11 -81.5q0 -60 19 -104t48 -69t73 -39.5t84 -19t91 -4.5q66 0 279 23q16 0 16 -11l4 -20q0 -13 -10 -16q-55 -20 -143 -30.5t-154 -10.5 q-83 0 -150.5 16t-121.5 49.5t-83.5 91.5t-29.5 137zM400.5 1154.5q-0.5 1.5 2.5 10.5l138 265q5 8 7 8.5t11 -2.5l57 -27q12 -4 5 -14l-172 -254q-6 -10 -15 -4l-24 12l-4 2q-5 2 -5.5 3.5z" />
<glyph unicode="&#x3ae;" horiz-adv-x="960" d="M104 12v973q0 12 11 12h45q14 0 14 -12v-111q243 142 408 142q79 0 133.5 -21.5t82.5 -49.5t42 -85.5t16 -97.5t2 -117v-633q0 -12 -12 -12h-51q-11 0 -11 12v641q0 51 -1.5 82t-8 70.5t-20.5 62.5t-37.5 45t-61 31.5t-88.5 9.5q-79 0 -193 -45t-200 -92v-805 q0 -12 -14 -12h-45q-11 0 -11 12zM376 1155q0 3 3 10l137 265q3 5 5 7t4.5 1.5t9.5 -2.5l57 -27q11 -4 4 -14l-172 -254q-6 -9 -14 -4l-25 12q-9 4 -9 6z" />
<glyph unicode="&#x3af;" horiz-adv-x="403" d="M166 12v973q0 7 2 9.5t10 2.5h49q9 0 9 -12v-973q0 -12 -11 -12h-47q-8 0 -10 2t-2 10zM171 1155q0 3 3 10l137 265q3 5 5 7t4.5 1.5t9.5 -2.5l57 -27q11 -4 4 -14l-172 -254q-6 -9 -14 -4l-25 12q-9 4 -9 6z" />
<glyph unicode="&#x3b0;" d="M113 350v635q0 7 2.5 9.5t9.5 2.5h49q8 0 8 -12l2 -633q0 -53 6.5 -95t26.5 -83t52.5 -67.5t87 -43t128.5 -16.5q316 0 316 305v633q0 12 12 12h51q8 0 8 -12v-635q0 -167 -94 -265.5t-291 -98.5q-201 0 -287.5 92.5t-86.5 271.5zM287 1260q0 24 10 36.5t37 12.5 q29 0 39 -12.5t10 -36.5q0 -54 -49 -54q-29 0 -38 14t-9 40zM431 1155q0 3 3 10l137 265q3 5 5 7t4.5 1.5t9.5 -2.5l57 -27q11 -4 4 -14l-172 -254q-6 -9 -14 -4l-25 12q-9 4 -9 6zM686 1260q0 24 10 36.5t37 12.5q29 0 39 -12.5t10 -36.5q0 -54 -49 -54q-29 0 -38 14t-9 40 z" />
<glyph unicode="&#x3b1;" horiz-adv-x="997" d="M98 483q0 279 89 408t292 129q68 0 154 -21t168 -61l4 2v47q0 7 2.5 9.5t9.5 2.5h45q4 0 5.5 -0.5t3 -2.5t1.5 -7v-862q0 -51 18 -64t79 -16q12 0 12 -12v-27q0 -14 -20 -16q-97 -9 -127.5 18t-30.5 113q-238 -139 -410 -139q-164 0 -229.5 119t-65.5 380zM172 479 q0 -163 26.5 -258t77 -133.5t134.5 -38.5q79 0 193 45t200 92v688q-195 80 -320 80q-162 0 -236.5 -110.5t-74.5 -364.5z" />
<glyph unicode="&#x3b2;" horiz-adv-x="960" d="M100 -274v1321q0 204 99.5 304.5t261.5 100.5q152 0 243 -78.5t91 -240.5q0 -72 -46 -159t-137 -132l2 -4q139 -14 199.5 -106.5t60.5 -258.5q0 -259 -87 -376t-302 -117q-170 0 -313 67h-4v-321v-6t-1 -3.5t-3 -1.5h-6h-52q-6 0 -6 11zM170 106q196 -59 317 -59 q175 0 244.5 100t69.5 318q0 76 -14 133t-37 91t-57.5 55t-70 28.5t-79.5 7.5q-37 0 -154 -8h-5.5h-5.5t-4.5 0.5t-3.5 2t-2 4.5t-1 7v31q0 4 0.5 6t3 3t4 1.5t7 1.5t9.5 2q137 19 232.5 98t95.5 208q0 130 -73.5 188.5t-192.5 58.5q-61 0 -110 -19.5t-81 -51.5t-53 -76 t-30 -90.5t-9 -97.5v-943z" />
<glyph unicode="&#x3b3;" horiz-adv-x="856" d="M2 981q-2 8 0.5 11.5t13.5 6.5q68 19 98 -5t58 -105l283 -772h2l321 868q4 14 21 14h45q10 0 11 -3.5t-1 -10.5l-369 -979v-354q0 -12 -10 -12h-47q-8 0 -10 2t-2 10v377l-310 837q-21 55 -32 66q-15 14 -47 14q-3 0 -8 -0.5t-6.5 0t-3.5 2.5t-3 6z" />
<glyph unicode="&#x3b4;" horiz-adv-x="976" d="M96 492q0 53 4 97.5t19 102.5t40.5 103t73.5 88.5t113 70.5q-89 34 -127.5 89.5t-38.5 138.5q0 135 75 203.5t239 68.5q178 0 286 -39q15 -4 11 -18l-5 -21q0 -6 -2.5 -7.5t-11.5 -0.5q-19 2 -80.5 8t-111.5 9.5t-88 3.5q-127 0 -181.5 -47t-54.5 -156q0 -29 7 -53 t18 -41t30.5 -31.5t36.5 -23.5t45 -18.5t47.5 -14.5t52.5 -13.5t52 -13.5q99 -26 160 -57.5t105 -86.5t61.5 -136.5t17.5 -204.5q0 -52 -2.5 -94t-9 -90.5t-19.5 -86.5t-33 -76.5t-51 -66t-71 -50t-95.5 -33.5t-122.5 -11q-74 0 -133.5 15.5t-99.5 40.5t-69.5 64.5t-46 80 t-26 96t-12 102.5t-2.5 109zM172 475q0 -104 13.5 -177.5t47.5 -133t96.5 -88.5t155.5 -29q79 0 136.5 19.5t94 53.5t58.5 89t30.5 118t8.5 148q0 66 -4.5 118.5t-16.5 93.5t-25.5 71t-39 54t-48.5 39.5t-63 30t-74 23.5t-89 21q-147 -37 -214 -144t-67 -307z" />
<glyph unicode="&#x3b5;" horiz-adv-x="825" d="M94 276q0 213 185 265v2q-166 34 -166 209q0 72 30 125.5t82 83.5t113 44.5t131 14.5q67 0 153.5 -10.5t139.5 -30.5q10 -3 10 -16l-4 -21q0 -6 -2.5 -8t-11.5 -2q-10 1 -76.5 7.5t-114.5 9.5t-88 3q-285 0 -285 -198q0 -42 12.5 -73.5t38 -50.5t50.5 -31t64 -16.5 t64.5 -6t63.5 -1.5h90q11 0 11 -12v-41q0 -12 -11 -12h-81q-37 0 -62 -1t-61.5 -6t-61.5 -13.5t-52.5 -25.5t-44 -40.5t-27.5 -59t-11 -81.5q0 -60 19 -104t48 -69t73 -39.5t84 -19t91 -4.5q66 0 279 23q16 0 16 -11l4 -20q0 -13 -10 -16q-55 -20 -143 -30.5t-154 -10.5 q-83 0 -150.5 16t-121.5 49.5t-83.5 91.5t-29.5 137z" />
<glyph unicode="&#x3b6;" horiz-adv-x="862" d="M88 301q0 45 12.5 90t32.5 83t53 77.5t65 71t78.5 66.5t83 60t88.5 56t86.5 50.5t84.5 46.5q15 8 23 12.5t20 11.5t22 12l-2 2h-614q-15 0 -15 10v35q0 14 15 14l706 -2q10 0 12.5 -1.5t2.5 -10.5v-37q0 -22 -11 -28q-21 -12 -67.5 -37.5t-80.5 -44.5t-85.5 -49 t-90.5 -55.5t-86.5 -60t-82 -65t-69.5 -68.5t-57 -73.5t-36 -76t-14 -79.5q0 -74 38.5 -124.5t113 -76.5t160 -36.5t200.5 -10.5h78q17 0 22 -10l19 -37q8 -12 6.5 -24.5t-15.5 -34.5q-31 -47 -74.5 -135t-56.5 -131q-3 -8 -6 -10t-12 0l-33 6q-9 2 -12 6.5t0 17.5 q7 43 55 139.5t84 145.5q-74 0 -133.5 2.5t-128 10t-121 21t-103 36.5t-83 54.5t-52.5 77.5t-20 103z" />
<glyph unicode="&#x3b7;" horiz-adv-x="960" d="M104 12v973q0 12 11 12h45q14 0 14 -12v-111q243 142 408 142q80 0 134 -20.5t81.5 -46.5t41 -81.5t15.5 -92.5t2 -112v-18l2 -633q0 -12 -12 -12h-51q-11 0 -11 12v641q0 51 -1.5 82t-8 70.5t-20.5 62.5t-37.5 45t-61 31.5t-88.5 9.5q-79 0 -193 -45t-200 -92v-805 q0 -12 -14 -12h-45q-11 0 -11 12z" />
<glyph unicode="&#x3b8;" horiz-adv-x="1015" d="M86 741q0 78 4 145t15.5 141.5t30.5 134t51 115.5t74.5 93t103 59.5t135.5 22.5q106 0 183.5 -35t124.5 -94t74.5 -152.5t37.5 -194t10 -235.5q0 -93 -3.5 -164.5t-14 -154t-29 -143t-51 -119t-77 -95t-109.5 -59t-146 -22.5q-62 0 -114 13t-91.5 34.5t-70.5 57 t-52.5 74.5t-37.5 92.5t-25 104.5t-14.5 119t-7 127t-1.5 135zM162 737q0 -139 8 -239t29.5 -189.5t59 -144t97.5 -86t144 -31.5q86 0 147.5 27.5t102 79t63.5 138.5t32 192t9 253h-692zM162 795h692q-3 122 -13.5 211t-35 163.5t-64 120.5t-99.5 71t-142 25 q-94 0 -159 -38.5t-103 -117.5t-55.5 -183.5t-20.5 -251.5z" />
<glyph unicode="&#x3b9;" horiz-adv-x="403" d="M166 12v973q0 7 2 9.5t10 2.5h49q9 0 9 -12v-973q0 -12 -11 -12h-47q-8 0 -10 2t-2 10z" />
<glyph unicode="&#x3ba;" horiz-adv-x="831" d="M102 12v973q0 12 13 12h49q8 0 8 -12v-500l174 174l340 328q12 12 29 12h51q25 0 8 -20l-362 -346l409 -619q9 -14 -8 -14h-47q-21 0 -31 18l-370 570l-193 -185v-391q0 -12 -10 -12h-47q-13 0 -13 12z" />
<glyph unicode="&#x3bb;" horiz-adv-x="880" d="M25 18l407 945l-94 297q-24 75 -52 106t-77 31q-25 0 -62 -6q-10 -1 -13 0.5t-5 9.5l-4 18q-1 10 3.5 15t16.5 8q50 12 86 12q28 0 50.5 -6t40 -21.5t29 -29.5t24 -42t19 -45.5t18.5 -54.5l368 -1157q8 -25 21 -37t37 -12h20q8 0 11.5 -0.5t6 -3t3.5 -8.5l2 -14 q2 -13 -17 -21q-16 -8 -53 -8q-43 0 -66 27.5t-43 91.5q-157 494 -239 759h-2q-45 -118 -136.5 -332.5t-160.5 -369.5l-68 -156q-8 -16 -22 -16h-39q-17 0 -10 20z" />
<glyph unicode="&#x3bc;" d="M121 -348v1335q0 12 12 12h45q10 0 10 -12v-641q0 -43 1 -70.5t5.5 -63t13.5 -57t24.5 -45t38.5 -36t57 -21t78 -8.5q135 0 395 137v805q0 12 14 12h43q12 0 12 -12v-975q0 -10 -12 -10h-45q-14 0 -14 10v113q-227 -141 -408 -141q-135 0 -203 61v-393v-6t-1 -3.5t-3 -2 t-6 -0.5h-51q-6 0 -6 12z" />
<glyph unicode="&#x3bd;" horiz-adv-x="894" d="M49 987q-3 10 8 10h49q16 0 21 -14l326 -903h4l319 905q4 14 21 14h43q10 0 11 -3.5t-1 -10.5l-352 -973q-3 -12 -17 -12h-57q-18 0 -21 14z" />
<glyph unicode="&#x3be;" horiz-adv-x="753" d="M59 381q0 50 3 89.5t12 85.5t26.5 82.5t44.5 71t68.5 60.5t95.5 43v4q-66 16 -112 45t-71 67t-35.5 79t-10.5 90q0 171 104 262.5t285 91.5q68 0 157 -10.5t142 -30.5q10 -3 10 -16l-4 -21q-1 -5 -1.5 -6.5t-4 -3.5t-8.5 0q-15 1 -79 7t-112.5 9.5t-87.5 3.5 q-149 0 -236 -73.5t-87 -212.5q0 -60 21.5 -106t55 -72.5t79 -43.5t87 -22.5t86.5 -5.5h177q12 0 12 -10v-41q0 -13 -12 -13h-187q-184 -1 -264 -96t-80 -305q0 -63 16 -113t40.5 -83t66 -57t80.5 -36.5t96 -20t101 -9t106 -1.5h78q17 0 22 -10l19 -37q8 -13 6.5 -24 t-14.5 -35q-34 -57 -74 -139t-58 -129q-8 -15 -20 -11l-33 11q-15 5 -10 22q19 58 62.5 149.5t76.5 135.5q-56 -2 -113 0t-112.5 5t-107 14.5t-97 28.5t-83.5 47t-65 69t-42 95t-15 126z" />
<glyph unicode="&#x3bf;" horiz-adv-x="976" d="M92 518q0 49 3 92t13.5 95.5t27 95t46.5 84.5t69.5 70t98.5 45.5t131 17.5q102 0 177.5 -29t118 -74t68 -114t33 -134t7.5 -149q0 -62 -2.5 -108.5t-12 -105t-26 -101.5t-46.5 -86.5t-72 -70.5t-104 -44.5t-141 -17.5q-76 0 -136.5 17t-100.5 43.5t-69 70t-45 85.5 t-24.5 101.5t-11 106t-2.5 110.5zM168 502q0 -84 7 -147t27 -123.5t54 -99t90.5 -62t134.5 -23.5q80 0 139 22.5t95 60.5t57.5 97.5t29 124t7.5 150.5q0 87 -7 150.5t-28 122.5t-57 95.5t-95 58t-141 21.5q-78 0 -134.5 -23.5t-90.5 -61.5t-54 -98t-27 -121.5t-7 -143.5z " />
<glyph unicode="&#x3c0;" horiz-adv-x="960" d="M104 12v975q0 12 17 12h725q7 0 8.5 -1.5t1.5 -8.5l2 -977q0 -12 -12 -12h-51q-11 0 -11 12v928h-610v-928q0 -12 -14 -12h-45q-11 0 -11 12z" />
<glyph unicode="&#x3c1;" horiz-adv-x="972" d="M94 -346v891q0 132 29.5 226t84.5 147t123.5 76.5t157.5 23.5q200 0 298 -118.5t98 -375.5q0 -139 -18 -236.5t-61 -168t-116.5 -104t-181.5 -33.5q-190 0 -338 63l-6 -2v-389q0 -14 -8 -14h-50q-12 0 -12 14zM168 104q193 -59 350 -59q163 0 226 117.5t63 365.5 q0 101 -17 176.5t-45.5 122t-70.5 75.5t-87.5 39.5t-101.5 10.5q-317 0 -317 -407v-441z" />
<glyph unicode="&#x3c2;" horiz-adv-x="827" d="M84 39l4 20q0 11 16 11q213 -23 293 -23q273 0 273 203q0 61 -13 101t-46 65.5t-76.5 39.5t-116.5 27q-59 10 -96 17.5t-79.5 21t-67.5 31t-47.5 43.5t-32 62.5t-9.5 84.5q0 275 328 275q64 0 147.5 -10.5t138.5 -30.5q11 -4 11 -16l-4 -21q0 -10 -15 -10 q-203 22 -280 22q-130 0 -191 -48t-61 -154q0 -33 6 -58.5t15 -43.5t29 -32.5t36.5 -23.5t48.5 -17t55.5 -12.5t67.5 -11.5q68 -11 110 -21.5t87.5 -31t70.5 -48.5t41 -74t16 -108q0 -151 -89.5 -216.5t-258.5 -65.5q-199 0 -301 37q-10 3 -10 16z" />
<glyph unicode="&#x3c3;" horiz-adv-x="993" d="M92 504q0 49 3 91.5t13 95t26.5 94.5t46.5 83.5t69.5 69.5t98.5 45.5t132 17.5h484q10 0 10 -12v-37q0 -10 -10 -10h-244q94 -61 129 -172.5t35 -265.5q0 -62 -2.5 -107.5t-12 -103t-26 -99t-46.5 -83.5t-72 -68t-104 -42.5t-141 -16.5q-67 0 -121.5 11.5t-93.5 34.5 t-68.5 51t-48 68.5t-30.5 78t-17.5 88.5t-7.5 92t-2 96zM168 487q0 -84 7 -145.5t27 -120t54 -95t90.5 -58t134.5 -21.5q81 0 139.5 21t94.5 56.5t57.5 93t29 121t7.5 148.5q0 86 -8 150t-29.5 122t-57.5 94.5t-94.5 57.5t-138.5 21t-137.5 -23t-91 -60.5t-53 -98 t-25.5 -120.5t-6 -143z" />
<glyph unicode="&#x3c4;" horiz-adv-x="649" d="M27 952v35q0 12 14 12h561q7 0 8.5 -1.5t1.5 -8.5v-37q0 -10 -10 -10h-272v-747q0 -40 3.5 -62.5t15.5 -44.5t38.5 -31.5t69.5 -9.5q77 0 143 8q13 2 16 -10l5 -18q2 -12 -11 -19q-81 -24 -186 -24q-93 0 -128.5 43t-35.5 145v770h-221q-12 0 -12 10z" />
<glyph unicode="&#x3c5;" d="M113 350v635q0 7 2.5 9.5t9.5 2.5h49q8 0 8 -12l2 -633q0 -53 6.5 -95t26.5 -83t52.5 -67.5t87 -43t128.5 -16.5q316 0 316 305v633q0 12 12 12h51q8 0 8 -12v-635q0 -167 -94 -265.5t-291 -98.5q-201 0 -287.5 92.5t-86.5 271.5z" />
<glyph unicode="&#x3c6;" horiz-adv-x="1222" d="M92 522q0 69 11 133.5t36 130.5t74 120.5t117 86.5q9 3 16 -4l19 -26q4 -9 -5 -15q-192 -112 -192 -442q0 -213 100 -330.5t307 -120.5l3 928q0 18 7 24.5t21 6.5h62q111 0 194.5 -29.5t133.5 -77t81 -117.5t42 -139.5t11 -154.5q0 -486 -487 -506v-338q0 -12 -8 -12h-49 q-13 0 -13 12v338q-121 5 -210 38.5t-140 81.5t-81.5 119.5t-40 139t-9.5 153.5zM643 53q211 17 311.5 123.5t100.5 315.5q0 79 -10 142t-38 124t-73 101.5t-119 65.5t-172 25v-897z" />
<glyph unicode="&#x3c7;" horiz-adv-x="829" d="M45 14l330 494l-309 473q-5 5 -3.5 10.5t11.5 5.5h47q12 0 20 -12l277 -424l276 424q8 12 21 12h47q10 0 10.5 -5.5t-4.5 -10.5l-307 -473l332 -492q12 -16 -9 -16h-47q-17 0 -24 10l-295 445l-291 -445q-8 -10 -25 -10h-51q-13 0 -6 14z" />
<glyph unicode="&#x3c8;" horiz-adv-x="1095" d="M102 354q0 108 1 315t1 316q0 12 13 12h49q8 0 8 -12q0 -107 -1 -312.5t-1 -314.5q0 -138 76 -216.5t264 -84.5v1000q0 12 12 12h51q9 0 9 -12v-1000q96 2 164 25.5t105.5 65.5t54 93t16.5 117q0 104 -1 313t-1 314q0 12 12 12h51q8 0 8 -12v-631q0 -171 -94.5 -260 t-314.5 -102v-340q0 -12 -11 -12h-49q-12 0 -12 12v342q-116 6 -196 31.5t-126.5 72t-67 108.5t-20.5 148z" />
<glyph unicode="&#x3c9;" horiz-adv-x="1478" d="M92 489q0 69 5 124.5t20 117t40 109t68.5 89.5t102.5 68q16 8 20 -2l17 -28q5 -11 -7 -17q-190 -89 -190 -463q0 -219 61.5 -329.5t208.5 -110.5q69 0 119.5 19t77.5 47.5t43 71t20 77.5t4 80v328q0 12 13 12h51q8 0 8 -12l-2 -328q0 -44 5 -80.5t22 -78.5t45 -70t79 -47 t119 -19q147 0 208 110.5t61 329.5q0 373 -191 463q-10 7 -6 17l16 28q6 10 21 2q59 -26 102.5 -68t68.5 -89.5t39.5 -109t19.5 -117t5 -124.5q0 -120 -16 -208t-54.5 -157t-107 -104.5t-168.5 -35.5q-222 0 -301 159h-2q-79 -159 -299 -159q-99 0 -167.5 35.5t-107 104.5 t-55 157.5t-16.5 207.5z" />
<glyph unicode="&#x3ca;" horiz-adv-x="403" d="M-27 1260q0 24 10 36.5t37 12.5q29 0 39.5 -12.5t10.5 -36.5q0 -54 -50 -54q-29 0 -38 14t-9 40zM166 12v973q0 7 2 9.5t10 2.5h49q9 0 9 -12v-973q0 -12 -11 -12h-47q-8 0 -10 2t-2 10zM332 1260q0 24 10 36.5t37 12.5q29 0 39 -12.5t10 -36.5q0 -54 -49 -54 q-29 0 -38 14t-9 40z" />
<glyph unicode="&#x3cb;" d="M113 350v635q0 7 2.5 9.5t9.5 2.5h49q8 0 8 -12l2 -633q0 -53 6.5 -95t26.5 -83t52.5 -67.5t87 -43t128.5 -16.5q316 0 316 305v633q0 12 12 12h51q8 0 8 -12v-635q0 -167 -94 -265.5t-291 -98.5q-201 0 -287.5 92.5t-86.5 271.5zM274 1260q0 24 10.5 36.5t37.5 12.5 q29 0 39 -12.5t10 -36.5q0 -54 -49 -54q-29 0 -38.5 14t-9.5 40zM633 1260q0 24 10 36.5t37 12.5q29 0 39 -12.5t10 -36.5q0 -54 -49 -54q-29 0 -38 14t-9 40z" />
<glyph unicode="&#x3cc;" horiz-adv-x="976" d="M92 518q0 49 3 92t13.5 95.5t27 95t46.5 84.5t69.5 70t98.5 45.5t131 17.5q102 0 177.5 -29t118 -74t68 -114t33 -134t7.5 -149q0 -62 -2.5 -108.5t-12 -105t-26 -101.5t-46.5 -86.5t-72 -70.5t-104 -44.5t-141 -17.5q-76 0 -136.5 17t-100.5 43.5t-69 70t-45 85.5 t-24.5 101.5t-11 106t-2.5 110.5zM168 502q0 -84 7 -147t27 -123.5t54 -99t90.5 -62t134.5 -23.5q80 0 139 22.5t95 60.5t57.5 97.5t29 124t7.5 150.5q0 87 -7 150.5t-28 122.5t-57 95.5t-95 58t-141 21.5q-78 0 -134.5 -23.5t-90.5 -61.5t-54 -98t-27 -121.5t-7 -143.5z M462 1155q0 3 3 10l137 265q3 5 5 7t4.5 1.5t9.5 -2.5l57 -27q11 -4 4 -14l-172 -254q-6 -9 -14 -4l-25 12q-9 4 -9 6z" />
<glyph unicode="&#x3cd;" d="M113 350v635q0 7 2.5 9.5t9.5 2.5h49q8 0 8 -12l2 -633q0 -53 6.5 -95t26.5 -83t52.5 -67.5t87 -43t128.5 -16.5q316 0 316 305v633q0 12 12 12h51q8 0 8 -12v-635q0 -167 -94 -265.5t-291 -98.5q-201 0 -287.5 92.5t-86.5 271.5zM454 1155q0 3 3 10l137 265q4 8 6.5 8.5 t11.5 -2.5l58 -27q11 -4 4 -14l-172 -254q-6 -10 -15 -4l-24 12q-9 4 -9 6z" />
<glyph unicode="&#x3ce;" horiz-adv-x="1478" d="M92 489q0 69 5 124.5t20 117t40 109t68.5 89.5t102.5 68q16 8 20 -2l17 -28q5 -11 -7 -17q-190 -89 -190 -463q0 -219 61.5 -329.5t208.5 -110.5q69 0 119.5 19t77.5 47.5t43 71t20 77.5t4 80v328q0 12 13 12h51q8 0 8 -12l-2 -328q0 -44 5 -80.5t22 -78.5t45 -70t79 -47 t119 -19q147 0 208 110.5t61 329.5q0 373 -191 463q-10 7 -6 17l16 28q6 10 21 2q59 -26 102.5 -68t68.5 -89.5t39.5 -109t19.5 -117t5 -124.5q0 -120 -16 -208t-54.5 -157t-107 -104.5t-168.5 -35.5q-222 0 -301 159h-2q-79 -159 -299 -159q-99 0 -167.5 35.5t-107 104.5 t-55 157.5t-16.5 207.5zM706 1155q0 3 3 10l137 265q4 8 6.5 8.5t11.5 -2.5l58 -27q11 -4 4 -14l-172 -254q-6 -10 -15 -4l-24 12q-9 4 -9 6z" />
<glyph unicode="&#x400;" horiz-adv-x="964" d="M141 10v1333q0 15 11 15h706q10 0 10 -12v-46q0 -12 -10 -12h-641v-549h578q10 0 10 -10v-41q0 -6 -0.5 -8.5t-2.5 -4t-7 -1.5h-578v-606h653q13 0 13 -11v-47q0 -10 -13 -10h-718q-11 0 -11 10zM297 1616l39 49q6 7 8 8t10 -4l246 -170q10 -8 2 -16l-16 -23 q-5 -7 -15 -4l-270 143q-11 6 -4 17z" />
<glyph unicode="&#x401;" horiz-adv-x="964" d="M141 10v1333q0 15 11 15h706q10 0 10 -12v-46q0 -12 -10 -12h-641v-549h578q10 0 10 -10v-41q0 -6 -0.5 -8.5t-2.5 -4t-7 -1.5h-578v-606h653q13 0 13 -11v-47q0 -10 -13 -10h-718q-11 0 -11 10zM297 1542q0 51 49 51q29 0 38 -12.5t9 -38.5q0 -25 -9.5 -38t-37.5 -13 q-29 0 -39 13.5t-10 37.5zM627 1542q0 51 49 51q29 0 38 -12.5t9 -38.5q0 -25 -9.5 -38t-37.5 -13q-29 0 -39 13.5t-10 37.5z" />
<glyph unicode="&#x402;" horiz-adv-x="1376" d="M6 1300v46q0 12 12 12h1047q10 0 10 -12v-46q0 -10 -10 -10h-588v-440q229 108 412 108q88 0 158 -27t115.5 -72t76 -106.5t43 -126.5t12.5 -137q0 -79 -10.5 -152.5t-38.5 -154t-72.5 -147t-119 -125t-170.5 -94.5h-3q-3 -1 -6 -1.5t-6.5 1.5t-5.5 6l-10 22q-7 16 10 25 q182 95 268.5 243t86.5 373q0 201 -96 300.5t-253 99.5q-86 0 -197 -33.5t-196 -77.5v-762q0 -12 -10 -12h-49q-15 0 -15 12v1278h-383q-12 0 -12 10z" />
<glyph unicode="&#x403;" horiz-adv-x="917" d="M147 14v1329q0 15 11 15h696q10 0 10 -12v-46q0 -12 -10 -12h-631v-1274q0 -14 -10 -14h-53q-13 0 -13 14zM391 1483q-8 8 2 16l246 170q7 5 9.5 4t8.5 -8l39 -49q8 -11 -4 -17l-270 -143q-9 -3 -14 4z" />
<glyph unicode="&#x404;" horiz-adv-x="1046" d="M100 664q0 87 6 160.5t21 147t39.5 132t63 110t90 85.5t122.5 53.5t158 19.5q239 0 348 -41q14 -3 10 -18l-2 -23q-3 -12 -18 -10q-240 18 -322 18q-79 0 -143 -18.5t-109 -49t-78.5 -77.5t-53 -96.5t-32 -113t-17 -120t-5.5 -125.5h572q10 0 10 -10v-41q0 -6 -0.5 -8.5 t-2.5 -4t-7 -1.5h-572q1 -98 12.5 -177t41.5 -156t77 -128.5t124 -83t179 -31.5q152 0 326 17q15 0 18 -13l5 -22q0 -13 -13 -19q-56 -20 -165 -29t-183 -9q-119 0 -208.5 35.5t-144 95t-88.5 149.5t-46.5 185.5t-12.5 216.5z" />
<glyph unicode="&#x405;" horiz-adv-x="1024" d="M98 53l4 23q3 13 19 10q227 -29 373 -29q167 0 264.5 73t97.5 202q0 84 -21.5 142.5t-67 95.5t-102.5 57.5t-143 34.5t-143.5 29t-114.5 40.5t-90 60.5t-53.5 88.5t-20.5 125.5q0 175 111.5 269.5t304.5 94.5q237 0 352 -43q15 -4 11 -18l-2 -23q-3 -12 -19 -10 q-45 7 -153.5 14.5t-182.5 7.5q-170 0 -256 -75.5t-86 -210.5q0 -59 19 -103.5t47 -72t76.5 -48t90 -30.5t105.5 -21q55 -10 94.5 -19t86 -24.5t78 -34t64 -46.5t51 -63t30.5 -84t12 -108q0 -102 -34.5 -176.5t-97 -117t-140 -62.5t-173.5 -20q-73 0 -201 15.5t-179 35.5 q-14 7 -11 20z" />
<glyph unicode="&#x406;" horiz-adv-x="458" d="M190 12v1334q0 12 11 12h53q10 0 10 -12v-1334q0 -12 -10 -12h-53q-11 0 -11 12z" />
<glyph unicode="&#x407;" horiz-adv-x="458" d="M12 1542q0 51 49 51q29 0 38.5 -12.5t9.5 -38.5q0 -25 -10 -38t-38 -13q-29 0 -39 13.5t-10 37.5zM190 12v1334q0 12 11 12h53q10 0 10 -12v-1334q0 -12 -10 -12h-53q-11 0 -11 12zM342 1542q0 51 49 51q29 0 38 -12.5t9 -38.5q0 -25 -9.5 -38t-37.5 -13q-29 0 -39 13.5 t-10 37.5z" />
<glyph unicode="&#x408;" horiz-adv-x="808" d="M20 37l7 22q2 8 5 11t13 2q117 -15 221 -15q87 0 144.5 22t87.5 66t41 96.5t10 127.5v977q0 12 10 12h55q11 0 11 -12v-1012q0 -82 -17 -144t-56.5 -110.5t-110 -74t-171.5 -25.5q-137 0 -239 38q-13 9 -11 19z" />
<glyph unicode="&#x409;" horiz-adv-x="1748" d="M10 10v25q0 6 0.5 9t4.5 5t6.5 2.5t11.5 1.5q57 7 97.5 28.5t65.5 51.5t40.5 81.5t22 105t11.5 135.5l54 891q0 12 10 12h622q13 0 13 -15l-2 -569h372q85 0 150.5 -23t105.5 -60.5t66 -90.5t35.5 -107t9.5 -116q0 -182 -107.5 -279.5t-281.5 -97.5h-412q-14 0 -14 12 v1278h-494l-57 -909q-11 -192 -76 -290t-221 -107q-21 -1 -27 4.5t-6 21.5zM967 68h327q153 0 244.5 79t91.5 234q0 84 -22.5 147t-54.5 96.5t-77.5 53.5t-81 25.5t-75.5 5.5h-352v-641z" />
<glyph unicode="&#x40a;" horiz-adv-x="1603" d="M147 12v1334q0 12 11 12h53q10 0 10 -12v-572h516v569q0 15 15 15h49q12 0 12 -15v-569h377q98 0 171 -34t113 -92.5t59 -126t19 -144.5q0 -182 -107.5 -279.5t-281.5 -97.5h-411q-6 0 -10.5 3.5t-4.5 8.5v697h-516v-697q0 -12 -10 -12h-53q-11 0 -11 12zM813 68h328 q153 0 244.5 79t91.5 234q0 84 -25.5 147t-61 96.5t-82 53.5t-78.5 25.5t-61 5.5h-356v-641z" />
<glyph unicode="&#x40b;" horiz-adv-x="1400" d="M27 1300v46q0 12 12 12l1079 -2q10 0 10 -13v-45q0 -10 -10 -10l-620 2v-454q269 118 450 118q77 0 138 -21t100.5 -56.5t65 -85t36 -104t10.5 -116.5v-559q0 -12 -10 -12h-55q-8 0 -8 12v568q0 142 -70 221.5t-211 79.5q-87 0 -222 -39.5t-226 -81.5v-748q0 -12 -13 -12 h-47q-14 0 -14 12v1278h-383q-12 0 -12 10z" />
<glyph unicode="&#x40c;" horiz-adv-x="1073" d="M143 16v1327q0 15 13 15h47q14 0 14 -15v-606h320q179 0 241 187l135 411q6 23 25 23h31q23 0 14 -23l-135 -417q-31 -93 -69.5 -142.5t-98.5 -62.5q75 -14 115 -63t77 -161l140 -464q6 -25 -13 -25h-36q-19 0 -25 16l-139 467q-36 114 -91 150.5t-161 36.5h-330v-654 q0 -16 -14 -16h-47q-13 0 -13 16zM414 1483q-8 8 2 16l246 170q8 5 10 4t8 -8l39 -49q7 -11 -4 -17l-271 -143q-9 -3 -14 4z" />
<glyph unicode="&#x40d;" horiz-adv-x="1234" d="M143 1343q0 15 15 15h49q10 0 10 -15v-1212h4l785 1215q1 1 3 4t2.5 4t2.5 2t4 1.5t6 0.5h55q6 0 9.5 -5t3.5 -10l2 -1329q0 -14 -15 -14h-49q-10 0 -10 14v1213h-4l-785 -1215q-13 -11 -18 -12h-55q-13 0 -13 14zM442 1616l39 49q6 7 9 8t10 -4l245 -170q11 -8 3 -16 l-17 -23q-5 -7 -14 -4l-271 143q-12 6 -4 17z" />
<glyph unicode="&#x40e;" horiz-adv-x="993" d="M47 1348q-3 6 0 8t12 2h56q10 0 14 -10l371 -945l366 945q6 10 17 10h49q9 0 11 -2t-1 -8l-403 -1041q-22 -57 -34 -86t-31 -70t-32.5 -60t-34.5 -43.5t-42.5 -35.5t-49.5 -19.5t-63 -10.5q-72 -3 -125 18q-12 8 -10 18l6 27q5 17 27 14q61 -13 100 -10q69 6 107 51 t79 148l25 61zM256 1630l20 15q15 12 27 -7q49 -73 94.5 -101t112.5 -28q108 0 201 131q11 14 26 7l19 -13q3 -2 4 -5.5t1.5 -6t-1 -7t-2.5 -7t-4 -8.5t-4 -9q-41 -76 -105 -113.5t-137 -37.5q-77 0 -144.5 37t-103.5 110q-17 34 -4 43z" />
<glyph unicode="&#x40f;" horiz-adv-x="1167" d="M156 12v1334q0 12 10 12h53q10 0 10 -12v-1278h727v1278q0 12 15 12h49q10 0 10 -12v-1334q0 -12 -10 -12h-377l-12 -283q-2 -36 -19 -36h-30q-10 0 -14.5 7t-4.5 29l-12 283h-385q-10 0 -10 12z" />
<glyph unicode="&#x410;" horiz-adv-x="1069" d="M39 2.5q-3 2.5 0 9.5l444 1331q2 7 5 10t4.5 3h7.5h63q11 0 17 -15l446 -1329q3 -8 2 -10t-10 -2h-55q-13 0 -17 12l-119 371h-591l-119 -371q-2 -12 -15 -12h-51q-9 0 -12 2.5zM258 451h547l-273 819h-6z" />
<glyph unicode="&#x411;" horiz-adv-x="987" d="M131 14v1329q0 15 14 15l676 -2q10 0 10 -13v-43q0 -12 -10 -12l-614 2v-518h336q80 0 145 -22.5t108.5 -60.5t73.5 -89.5t43 -107t13 -115.5q0 -181 -107.5 -277t-281.5 -96l-392 -2q-14 0 -14 12zM207 72h305q154 0 245 77t91 232q0 84 -25.5 147t-60.5 96.5 t-81.5 53.5t-78.5 25.5t-61 5.5h-334v-637z" />
<glyph unicode="&#x412;" horiz-adv-x="1075" d="M131 16v1325q0 15 14 15l439 2q170 0 267 -90t97 -238q0 -233 -190 -315v-2q65 -20 112.5 -62t72 -94.5t35.5 -103t11 -101.5q0 -161 -94.5 -256.5t-245.5 -95.5h-493q-25 0 -25 16zM209 68h391q305 0 305 299q0 125 -82 216t-227 91h-387v-606zM209 739h346 q150 0 229.5 75t79.5 202q0 125 -74.5 198.5t-224.5 73.5h-356v-549z" />
<glyph unicode="&#x413;" horiz-adv-x="917" d="M147 14v1329q0 15 11 15h696q10 0 10 -12v-46q0 -12 -10 -12h-631v-1274q0 -14 -10 -14h-53q-13 0 -13 14z" />
<glyph unicode="&#x414;" horiz-adv-x="1236" d="M23 14q-1 21 3 29.5t17 13.5l57 11q149 132 176 487l58 778q0 9 5.5 17t16.5 8h721q10 0 10 -12v-1278l62 -7q15 -3 21 -10.5t6 -25.5l-11 -293q-2 -37 -18 -37h-29q-22 0 -22 37l-13 268h-974l-11 -268q-2 -37 -18 -37h-31q-10 0 -14 7.5t-4 29.5zM201 68h813v1222h-608 l-56 -719q-34 -388 -149 -503z" />
<glyph unicode="&#x415;" horiz-adv-x="964" d="M141 10v1333q0 15 11 15h706q10 0 10 -12v-46q0 -12 -10 -12h-641v-549h578q10 0 10 -10v-41q0 -6 -0.5 -8.5t-2.5 -4t-7 -1.5h-578v-606h653q13 0 13 -11v-47q0 -10 -13 -10h-718q-11 0 -11 10z" />
<glyph unicode="&#x416;" horiz-adv-x="1626" d="M43 25l139 464q37 111 77 160t116 64q-60 13 -98.5 62.5t-69.5 142.5l-135 417q-9 23 14 23h31q18 0 24 -23l135 -411q62 -187 242 -187h258v606q0 15 12 15h48q14 0 14 -15v-606h258q180 0 242 187l135 411q6 23 24 23h31q23 0 14 -23l-135 -417q-31 -93 -69.5 -142.5 t-98.5 -62.5q76 -15 116 -64t77 -160l139 -464q6 -25 -12 -25h-37q-19 0 -25 16l-139 467q-36 114 -91 150.5t-161 36.5h-268v-654q0 -16 -14 -16h-48q-12 0 -12 16v654h-268q-106 0 -161 -36.5t-91 -150.5l-139 -467q-6 -16 -25 -16h-37q-18 0 -12 25z" />
<glyph unicode="&#x417;" horiz-adv-x="958" d="M8 53l4 23q2 12 19 10q82 -14 193 -22.5t173 -8.5q178 0 281.5 79t103.5 235q0 90 -25.5 151.5t-77 96t-118.5 49t-160 14.5h-49q-14 0 -14 12v43q0 15 14 15h29q153 0 265 83.5t112 208.5q0 68 -23 118t-56 77t-82.5 42.5t-89 19.5t-87.5 4q-55 0 -151.5 -10t-157.5 -23 q-12 -2 -15 -0.5t-6 10.5l-6 20q-3 11 -1 13.5t13 7.5q153 57 330 57q223 0 320.5 -82.5t97.5 -248.5q0 -107 -69 -196.5t-197 -123.5v-4q141 -32 214.5 -112.5t73.5 -227.5q0 -108 -36.5 -187.5t-103 -125t-151.5 -66.5t-192 -20q-86 0 -194.5 13t-170.5 38q-14 3 -10 18z " />
<glyph unicode="&#x418;" horiz-adv-x="1234" d="M143 1343q0 15 15 15h49q10 0 10 -15v-1212h4l785 1215q1 1 3 4t2.5 4t2.5 2t4 1.5t6 0.5h55q6 0 9.5 -5t3.5 -10l2 -1329q0 -14 -15 -14h-49q-10 0 -10 14v1213h-4l-785 -1215q-13 -11 -18 -12h-55q-13 0 -13 14z" />
<glyph unicode="&#x419;" horiz-adv-x="1234" d="M143 1343q0 15 15 15h49q10 0 10 -15v-1212h4l785 1215q1 1 3 4t2.5 4t2.5 2t4 1.5t6 0.5h55q6 0 9.5 -5t3.5 -10l2 -1329q0 -14 -15 -14h-49q-10 0 -10 14v1213h-4l-785 -1215q-13 -11 -18 -12h-55q-13 0 -13 14zM352 1630l21 15q15 12 26 -7q49 -73 94.5 -101 t112.5 -28q108 0 201 131q12 15 27 7l18 -13q3 -2 4 -5.5t1.5 -6t-1 -7t-2.5 -7t-4 -8.5t-4 -9q-41 -76 -105 -113.5t-137 -37.5q-77 0 -144.5 37t-103.5 110q-17 34 -4 43z" />
<glyph unicode="&#x41a;" horiz-adv-x="1073" d="M143 16v1327q0 15 13 15h47q14 0 14 -15v-606h320q179 0 241 187l135 411q6 23 25 23h31q23 0 14 -23l-135 -417q-31 -93 -69.5 -142.5t-98.5 -62.5q75 -14 115 -63t77 -161l140 -464q6 -25 -13 -25h-36q-19 0 -25 16l-139 467q-36 114 -91 150.5t-161 36.5h-330v-654 q0 -16 -14 -16h-47q-13 0 -13 16z" />
<glyph unicode="&#x41b;" horiz-adv-x="1173" d="M10 10v25q0 6 0.5 9t4.5 5t6.5 2.5t11.5 1.5q57 7 97.5 28.5t65.5 51.5t40.5 81.5t22 105t11.5 135.5l54 891q0 12 10 12h684q10 0 10 -12v-1334q0 -12 -10 -12h-49q-15 0 -15 12v1278h-557l-57 -909q-11 -192 -76 -290t-221 -107q-21 -1 -27 4.5t-6 21.5z" />
<glyph unicode="&#x41c;" horiz-adv-x="1460" d="M150 14v1329q0 15 12 15h57q14 0 19 -12l491 -1024h2l490 1019q1 2 2.5 6t2 4.5t2 3t3.5 2.5t5.5 0.5t8.5 0.5h49q17 0 17 -17v-1327q0 -14 -11 -14h-49q-14 0 -14 14v1188h-4l-463 -956q-8 -15 -16 -15h-45q-16 0 -21 13l-461 958h-4v-1188q0 -14 -10 -14h-49 q-14 0 -14 14z" />
<glyph unicode="&#x41d;" horiz-adv-x="1167" d="M147 12v1334q0 12 11 12h53q10 0 10 -12v-592h727v592q0 12 15 12h49q10 0 10 -12v-1334q0 -12 -10 -12h-49q-15 0 -15 12v676h-727v-676q0 -12 -10 -12h-53q-11 0 -11 12z" />
<glyph unicode="&#x41e;" horiz-adv-x="1261" d="M129 698q0 65 4.5 123t17.5 128.5t35 128.5t60 114.5t88.5 95t124.5 62.5t164 24q91 0 165 -20t126 -53.5t90.5 -84.5t62 -106.5t37.5 -127t19 -138t5 -146.5q0 -82 -4 -148t-17 -142.5t-35 -135.5t-60.5 -115.5t-90.5 -93t-128 -59t-170 -22.5t-169 22.5t-126 58.5 t-88.5 93t-58.5 115t-33 135.5t-15.5 142.5t-3.5 149zM205 678q0 -111 10.5 -199t38.5 -171t74 -138t120.5 -88t174.5 -33q121 0 207 45.5t135 132t70.5 196.5t21.5 255q0 118 -11.5 210t-41.5 173t-78.5 133.5t-124.5 82.5t-178 30q-97 0 -170 -31.5t-120 -86t-76 -136 t-40.5 -172t-11.5 -203.5z" />
<glyph unicode="&#x41f;" horiz-adv-x="1167" d="M147 12v1334q0 12 11 12h854q10 0 10 -12v-1334q0 -12 -10 -12h-49q-15 0 -15 12v1278h-727v-1278q0 -12 -10 -12h-53q-11 0 -11 12z" />
<glyph unicode="&#x420;" horiz-adv-x="987" d="M131 14v1332q0 12 14 12h392q174 0 281.5 -97t107.5 -278q0 -60 -13 -115.5t-43 -107t-73.5 -89.5t-108.5 -60.5t-145 -22.5h-336v-574q0 -14 -12 -14h-50q-14 0 -14 14zM207 653h334q23 0 49 4t63 14.5t69.5 34t62 57.5t46.5 90t17 126q0 155 -91 232t-245 77h-305v-635 z" />
<glyph unicode="&#x421;" horiz-adv-x="1046" d="M145 664q0 87 6 160.5t21 147t39.5 132t63 110t90 85.5t122.5 53.5t158 19.5q239 0 348 -41q15 -4 11 -18l-3 -23q-3 -12 -18 -10q-240 18 -321 18q-82 0 -148 -20t-111 -52.5t-78.5 -83t-52.5 -102.5t-30.5 -119.5t-15 -126t-3.5 -130.5q0 -102 10 -184.5t39 -164 t76 -136.5t125.5 -88.5t183.5 -33.5q152 0 326 17q15 0 18 -13l5 -22q0 -13 -13 -19q-56 -20 -165 -29t-183 -9q-119 0 -208.5 35.5t-144 95t-88.5 149.5t-46.5 185.5t-12.5 216.5z" />
<glyph unicode="&#x422;" horiz-adv-x="931" d="M35 1300v46q0 12 12 12h844q10 0 10 -12v-46q0 -10 -10 -10h-385l-2 -1278q0 -12 -10 -12h-50q-14 0 -14 12v1278h-383q-12 0 -12 10z" />
<glyph unicode="&#x423;" horiz-adv-x="993" d="M47 1348q-3 6 0 8t12 2h56q10 0 14 -10l371 -945l366 945q6 10 17 10h49q9 0 11 -2t-1 -8l-403 -1041q-22 -57 -34 -86t-31 -70t-32.5 -60t-34.5 -43.5t-42.5 -35.5t-49.5 -19.5t-63 -10.5q-72 -3 -125 18q-12 8 -10 18l6 27q5 17 27 14q61 -13 100 -10q69 6 107 51 t79 148l25 61z" />
<glyph unicode="&#x424;" horiz-adv-x="1409" d="M100 684q0 282 143 439.5t431 170.5v52q0 12 10 12h53q11 0 11 -12v-52q151 -5 259 -49t172.5 -124.5t94 -187.5t29.5 -249q0 -582 -555 -614v-58q0 -12 -11 -12h-53q-10 0 -10 12v60q-131 3 -233 40t-165 94.5t-104 137.5t-56.5 162.5t-15.5 177.5zM174 684 q0 -120 25 -213.5t81.5 -168.5t155.5 -118.5t238 -50.5v1098q-500 -28 -500 -547zM750 133q134 9 228.5 51.5t148.5 115.5t78 166t24 214q0 53 -4 100t-16.5 104t-33 103.5t-57.5 92t-86 77t-121 51.5t-161 21v-1096z" />
<glyph unicode="&#x425;" horiz-adv-x="1015" d="M57 12l408 690l-379 644q-4 5 0 8.5t10 3.5h54q10 0 18 -12l342 -580l340 580q8 12 18 12h56q5 0 9 -3.5t1 -8.5l-379 -644l408 -690q5 -12 -11 -12h-57q-9 0 -16 12l-369 627l-371 -627q-5 -12 -16 -12h-55q-18 0 -11 12z" />
<glyph unicode="&#x426;" horiz-adv-x="1191" d="M156 12v1334q0 12 10 12h53q10 0 10 -12v-1278h727v1278q0 12 15 12h49q10 0 10 -12v-1274l62 -6q16 -2 21.5 -9t4.5 -28l-14 -297q-1 -19 -6.5 -25t-16.5 -6h-20q-11 0 -17 5.5t-6 25.5l-6 268h-866q-10 0 -10 12z" />
<glyph unicode="&#x427;" horiz-adv-x="1052" d="M68 977v366q0 15 16 15h45q14 0 14 -12v-369q0 -79 19.5 -138.5t49 -93.5t72.5 -54.5t82 -27t85 -6.5q179 0 380 68v618q0 15 17 15h45q14 0 14 -12v-1332q0 -14 -14 -14h-49q-13 0 -13 14v643q-196 -71 -401 -71q-87 0 -153 22.5t-105 59t-63 89t-32.5 105t-8.5 115.5z " />
<glyph unicode="&#x428;" horiz-adv-x="1728" d="M156 12v1334q0 12 10 12h53q10 0 10 -12v-1278h596v1278q0 12 11 12h53q10 0 10 -12v-1278h602v1278q0 12 15 12h49q10 0 10 -12v-1334q0 -12 -10 -12h-1399q-10 0 -10 12z" />
<glyph unicode="&#x429;" horiz-adv-x="1736" d="M156 12v1334q0 12 10 12h53q10 0 10 -12v-1278h596v1278q0 12 11 12h53q10 0 10 -12v-1278h602v1278q0 12 15 12h49q10 0 10 -12v-1274l61 -6q16 -2 22 -9t5 -28l-14 -297q-1 -19 -6.5 -25t-16.5 -6h-20q-11 0 -17 5.5t-6 25.5l-6 268h-1411q-10 0 -10 12z" />
<glyph unicode="&#x42a;" horiz-adv-x="1308" d="M4 1300v46q0 12 10 12h490q12 0 12 -15v-569h377q98 0 171 -34t113 -92.5t59 -126t19 -144.5q0 -182 -107.5 -279.5t-281.5 -97.5h-411q-6 0 -10.5 3.5t-4.5 8.5v1278h-426q-7 0 -8.5 2t-1.5 8zM516 68h328q153 0 244.5 79t91.5 234q0 84 -25.5 147t-61 96.5t-82 53.5 t-78.5 25.5t-61 5.5h-356v-641z" />
<glyph unicode="&#x42b;" horiz-adv-x="1345" d="M147 12v1331q0 15 15 15h49q12 0 12 -15v-569h377q79 0 142.5 -23t104 -61t67.5 -90t38 -107t11 -116q0 -181 -108 -279t-282 -98h-411q-6 0 -10.5 3.5t-4.5 8.5zM223 68h328q153 0 244.5 79t91.5 234q0 84 -25.5 147t-60.5 96.5t-81.5 53.5t-78.5 25.5t-61 5.5h-357 v-641zM1124 12v1334q0 12 11 12h53q10 0 10 -12v-1334q0 -12 -10 -12h-53q-11 0 -11 12z" />
<glyph unicode="&#x42c;" horiz-adv-x="1013" d="M147 12v1331q0 15 15 15h49q12 0 12 -15v-569h377q79 0 142.5 -23t104 -61t67.5 -90t38 -107t11 -116q0 -181 -108 -279t-282 -98h-411q-6 0 -10.5 3.5t-4.5 8.5zM223 68h328q153 0 244.5 79t91.5 234q0 84 -25.5 147t-60.5 96.5t-81.5 53.5t-78.5 25.5t-61 5.5h-357 v-641z" />
<glyph unicode="&#x42d;" horiz-adv-x="1046" d="M78 39l4 22q3 13 18 13q174 -17 326 -17q104 0 183 35.5t126.5 91.5t77.5 138.5t41 164.5t12 181h-571q-7 0 -8.5 3t-1.5 11v41q0 10 10 10h571q-1 64 -5.5 117t-17 113t-32 106.5t-53 91t-78.5 73.5t-109 46.5t-143 17.5q-49 0 -97.5 -2.5t-121 -9t-78.5 -6.5 q-15 -2 -18 10l-2 23q-4 15 10 18q109 41 323 41q123 0 213.5 -35t145 -93t87 -148.5t43.5 -185t11 -218.5q0 -120 -13 -219t-48 -193t-90.5 -157.5t-145.5 -102t-209 -38.5q-74 0 -183 9t-165 29q-12 6 -12 19z" />
<glyph unicode="&#x42e;" horiz-adv-x="1492" d="M147 12v1334q0 12 11 12h53q10 0 10 -12v-592h201q19 620 469 620q87 0 157 -20t119 -53.5t86 -84.5t59 -106.5t35.5 -127t18 -138t4.5 -146.5q0 -82 -4 -148t-16 -143t-33 -135.5t-57 -115t-85.5 -93t-121.5 -59t-162 -22.5q-88 0 -159 22t-119.5 57.5t-84 91.5 t-55.5 113t-32 133t-15.5 141.5t-3.5 147.5h-201v-676q0 -12 -10 -12h-53q-11 0 -11 12zM498 678q0 -112 9.5 -199.5t35.5 -170.5t68.5 -138t113.5 -88t166 -33q93 0 163.5 30.5t116 84t74.5 134t41 173t12 207.5q0 119 -10.5 210.5t-38.5 172.5t-73 133.5t-117 82.5 t-168 30q-92 0 -161 -31.5t-112.5 -86t-71 -136t-38 -172t-10.5 -203.5z" />
<glyph unicode="&#x42f;" horiz-adv-x="1071" d="M59 25l119 403q30 95 66 142.5t98 68.5q-56 15 -98.5 48.5t-67 79t-36 96.5t-11.5 108q0 96 32 171.5t88 121.5t128 70t155 24h377q6 0 10.5 -3.5t4.5 -8.5v-1332q0 -14 -15 -14h-49q-12 0 -12 14v594h-320q-54 0 -92 -7t-75 -26t-63.5 -57t-45.5 -96l-119 -406 q-3 -8 -6.5 -11.5t-7 -4t-10.5 -0.5h-37q-19 0 -13 25zM207 967q0 -48 9.5 -88t24 -68t38 -50.5t44 -36.5t51 -24t50 -14.5t49 -7t40.5 -2.5h32h303v612h-291q-156 0 -253 -79.5t-97 -241.5z" />
<glyph unicode="&#x430;" horiz-adv-x="1013" d="M92 244q0 173 84 252t264 79h355v119q0 55 -7 93.5t-25 71.5t-50 52.5t-82 30t-121 10.5q-78 0 -307 -22q-15 0 -17 10l-4 23q0 10 11 14q121 45 311 45q107 0 175 -17t110 -58t58.5 -103.5t16.5 -159.5v-557q0 -51 18 -64t79 -16q12 0 12 -12v-27q0 -13 -21 -16 q-93 -6 -125 20.5t-32 110.5q-82 -48 -136.5 -74t-139.5 -46.5t-181 -20.5q-125 0 -185.5 65.5t-60.5 196.5zM168 252q0 -118 46 -161.5t165 -43.5q65 0 161 31t154.5 58t100.5 50v324h-363q-62 0 -107 -11t-82 -38.5t-56 -79.5t-19 -129z" />
<glyph unicode="&#x431;" horiz-adv-x="978" d="M92 485q0 103 1.5 164.5t9.5 150.5t23 144t44.5 122t71.5 109.5t105 81.5t145 62q69 20 307 61q13 2 18 0t6 -12l4 -25q1 -9 -1.5 -14.5t-5.5 -7t-9 -2.5q-43 -9 -129.5 -25t-126.5 -26q-189 -46 -273.5 -155.5t-105.5 -317.5l6 -4q46 70 134 117.5t194 47.5 q70 0 127 -16.5t95.5 -42.5t67.5 -64t45 -76t26 -83.5t13 -81t3 -74.5q0 -55 -3 -101.5t-13.5 -103t-28.5 -101.5t-49.5 -89t-74 -73.5t-106 -47.5t-141.5 -18q-59 0 -109 10.5t-86 28t-65 45t-48 55.5t-33 67t-21 71t-11 76t-5 74.5t-1 73.5zM170 492q0 -84 6 -145 t25.5 -120.5t52.5 -96.5t89 -60t134 -23q80 0 139.5 23.5t96.5 63t59.5 99.5t30.5 124t8 145q0 62 -7 113t-27.5 104t-54 88.5t-91 58.5t-133.5 23t-135.5 -26.5t-95 -67.5t-58.5 -95.5t-31 -105t-8 -102.5z" />
<glyph unicode="&#x432;" horiz-adv-x="940" d="M102 16v969q0 14 17 14h409q148 0 220.5 -70.5t72.5 -185.5q0 -30 -5 -55.5t-19 -56t-44.5 -58t-76.5 -49.5v-2q53 -13 91 -42.5t56.5 -67t26.5 -73t8 -71.5q0 -122 -78 -195t-217 -73h-436q-25 0 -25 16zM172 59h352q136 0 199 58.5t63 152.5q0 93 -63 154t-205 61h-346 v-426zM172 545h307q128 0 199.5 53.5t71.5 142.5q0 92 -59 145.5t-183 53.5h-336v-395z" />
<glyph unicode="&#x433;" horiz-adv-x="774" d="M123 14v971q0 14 10 14h606q6 0 10.5 -3.5t4.5 -8.5v-33q0 -7 -2.5 -10.5t-12.5 -3.5h-549v-926q0 -14 -14 -14h-41q-9 0 -10.5 2t-1.5 12z" />
<glyph unicode="&#x434;" horiz-adv-x="1079" d="M20 23q0 18 5 24.5t18 9.5l49 6q75 68 107 149t47 208l61 522q3 31 17.5 44t60.5 13h514q19 0 19 -18v-920l49 -4q13 -1 17.5 -7.5t4.5 -22.5l-12 -252q-1 -22 -6 -27.5t-17 -5.5h-18q-10 0 -15 5t-6 22l-10 231h-803l-12 -231q-3 -27 -20 -27h-21q-10 0 -14.5 5.5 t-5.5 21.5zM176 59h672v881h-475l-60 -498q-16 -142 -46 -233t-91 -150z" />
<glyph unicode="&#x435;" horiz-adv-x="942" d="M92 506q0 82 8 148.5t32.5 137t65.5 118t112.5 78t168.5 30.5q95 0 166 -25t113.5 -65t68 -100.5t34.5 -121t9 -135.5q0 -46 -14 -66t-51 -20h-635q0 -77 6 -134.5t25 -117t51.5 -97t90 -61.5t136.5 -24q38 0 82 2.5t73 5t81.5 8t77.5 7.5q15 0 18 -11l2 -18 q3 -13 -8 -16q-56 -22 -153 -33.5t-179 -11.5q-72 0 -129.5 15t-97 40t-68 65t-45 81t-26 98t-12.5 107.5t-3 115.5zM168 545h627q-1 51 -3.5 88t-10.5 82t-21.5 76.5t-37 63.5t-56 51.5t-80 31.5t-107.5 12q-73 0 -127.5 -20.5t-88 -54.5t-54.5 -87.5t-29.5 -110.5 t-11.5 -132z" />
<glyph unicode="&#x436;" horiz-adv-x="1363" d="M53 23l97 288q35 105 73 150.5t109 58.5q-57 13 -94 60t-66 135l-88 262q-9 20 14 20h29q17 0 23 -20l88 -258q59 -174 229 -174h180v440q0 14 12 14h43q15 0 15 -14v-440h180q170 0 229 174l88 258q6 20 23 20h29q23 0 14 -20l-88 -262q-29 -88 -66 -135t-94 -60 q71 -13 109 -58.5t73 -150.5l97 -288q7 -23 -13 -23h-34q-17 0 -23 16l-96 289q-35 107 -87 141.5t-151 34.5h-190v-465q0 -16 -15 -16h-43q-12 0 -12 16v465h-190q-99 0 -151 -34.5t-87 -141.5l-96 -289q-6 -16 -23 -16h-34q-20 0 -13 23z" />
<glyph unicode="&#x437;" horiz-adv-x="823" d="M33 45l4 21q4 14 20 12q185 -29 271 -29q161 0 249.5 58t88.5 172q0 219 -301 219h-43q-17 0 -17 14v37q0 12 17 12h34q121 0 205 54.5t84 144.5q0 109 -72.5 151.5t-205.5 42.5q-119 0 -258 -22q-22 -3 -25 10l-2 14q-3 20 12 25q116 39 281 39q83 0 145.5 -14 t100.5 -37.5t61.5 -57.5t32 -69t8.5 -78q0 -79 -53 -145t-154 -84v-5q85 -3 155 -69.5t70 -171.5q0 -152 -106 -228.5t-305 -76.5q-170 0 -287 41q-14 5 -10 20z" />
<glyph unicode="&#x438;" horiz-adv-x="970" d="M102 14v971q0 14 17 14h43q10 0 10 -14v-874l297 424l313 446q18 18 27 18h45q14 0 14 -14v-971q0 -14 -16 -14h-43q-10 0 -10 14v883l-262 -375l-361 -514q-8 -8 -16 -8h-43q-6 0 -10.5 4.5t-4.5 9.5z" />
<glyph unicode="&#x439;" horiz-adv-x="970" d="M102 14v971q0 14 17 14h43q10 0 10 -14v-874l297 424l313 446q18 18 27 18h45q14 0 14 -14v-971q0 -14 -16 -14h-43q-10 0 -10 14v883l-262 -375l-361 -514q-8 -8 -16 -8h-43q-6 0 -10.5 4.5t-4.5 9.5zM244 1319l20 14q16 13 27 -6q49 -73 94.5 -101t112.5 -28 q107 0 200 131q11 14 27 6l18 -12q3 -2 4 -5.5t1.5 -6t-1 -7t-2.5 -7t-4 -8.5t-4 -9q-41 -76 -104.5 -114t-136.5 -38q-77 0 -144.5 37.5t-103.5 110.5q-17 34 -4 43z" />
<glyph unicode="&#x43a;" horiz-adv-x="845" d="M102 16v969q0 14 13 14h43q14 0 14 -14v-440h217q170 0 229 174l89 258q6 20 22 20h29q23 0 14 -20l-88 -262q-29 -88 -66 -135t-94 -60q71 -13 109.5 -58.5t73.5 -150.5l96 -288q7 -23 -12 -23h-35q-17 0 -23 16l-96 289q-35 107 -87 141.5t-151 34.5h-227v-465 q0 -16 -14 -16h-43q-13 0 -13 16z" />
<glyph unicode="&#x43b;" horiz-adv-x="1032" d="M10 0v29q0 8 3.5 11.5t7 4t12.5 0.5q55 3 93 18t62.5 38.5t39.5 67t22.5 90.5t13.5 122l41 537q3 47 21.5 64t64.5 17h506q7 0 9.5 -2.5t2.5 -9.5v-975q0 -8 -2.5 -10t-9.5 -2h-43q-10 0 -13 2t-3 10v928h-461l-45 -594q-4 -47 -7.5 -77.5t-12.5 -73t-22 -70t-36 -57.5 t-53.5 -47t-75 -27t-100.5 -8q-15 0 -15 14z" />
<glyph unicode="&#x43c;" horiz-adv-x="1146" d="M102 14v971q0 14 15 14h47q15 0 20 -10l383 -743l391 739q7 14 27 14h41q18 0 18 -16v-969q0 -14 -10 -14h-43q-16 0 -16 14v856l-371 -690q-6 -12 -16 -12h-39q-19 0 -25 12q-68 116 -177.5 345.5t-174.5 342.5v-854q0 -14 -14 -14h-39q-17 0 -17 14z" />
<glyph unicode="&#x43d;" horiz-adv-x="960" d="M104 12v975q0 8 2 10t9 2h45q9 0 11.5 -2t2.5 -10v-432h610v432q0 7 3 9.5t14 2.5h45q8 0 10 -2.5t2 -9.5v-975q0 -8 -2 -10t-10 -2h-45q-11 0 -14 2.5t-3 9.5v488h-610v-488q0 -8 -2.5 -10t-11.5 -2h-45q-7 0 -9 2t-2 10z" />
<glyph unicode="&#x43e;" horiz-adv-x="976" d="M92 518q0 49 3 92t13.5 95.5t27 95t46.5 84.5t69.5 70t98.5 45.5t131 17.5q102 0 177.5 -29t118 -74t68 -114t33 -134t7.5 -149q0 -62 -2.5 -108.5t-12 -105t-26 -101.5t-46.5 -86.5t-72 -70.5t-104 -44.5t-141 -17.5q-76 0 -136.5 17t-100.5 43.5t-69 70t-45 85.5 t-24.5 101.5t-11 106t-2.5 110.5zM168 502q0 -84 7 -147t27 -123.5t54 -99t90.5 -62t134.5 -23.5q80 0 139 22.5t95 60.5t57.5 97.5t29 124t7.5 150.5q0 87 -7 150.5t-28 122.5t-57 95.5t-95 58t-141 21.5q-78 0 -134.5 -23.5t-90.5 -61.5t-54 -98t-27 -121.5t-7 -143.5z " />
<glyph unicode="&#x43f;" horiz-adv-x="960" d="M104 12v975q0 12 17 12h725q7 0 8.5 -1.5t1.5 -8.5l2 -977q0 -12 -12 -12h-51q-11 0 -11 12v928h-610v-928q0 -12 -14 -12h-45q-11 0 -11 12z" />
<glyph unicode="&#x440;" horiz-adv-x="980" d="M127 -348v1335q0 12 6 12h53q7 0 9 -2t2 -10v-108q233 139 409 139q165 0 230 -117.5t65 -384.5q0 -140 -16.5 -235t-58 -164.5t-113.5 -102t-181 -32.5q-183 0 -331 63l-6 -2v-391q0 -8 -2 -10t-9 -2h-51q-6 0 -6 12zM197 104q194 -59 348 -59q157 0 219.5 110t62.5 367 q0 241 -55.5 335.5t-181.5 94.5q-79 0 -195.5 -46.5t-197.5 -92.5v-709z" />
</font>
</defs>
</svg>
